<svg id="Capa_1" enable-background="new 0 0 512 512" height="512" viewBox="0 0 512 512" width="512" xmlns="http://www.w3.org/2000/svg"><g><g><g><path d="m292.559 306.552c-14.791 10.348-32.791 16.423-52.213 16.423-19.421 0-37.421-6.076-52.212-16.424-49.112 7.127-86.839 49.396-86.839 100.483v96.966h278.102v-96.965c0-51.087-37.727-93.356-86.838-100.483z" fill="#f7594e"/><path d="m101.295 486h278.102v18h-278.102z" fill="#ea4642"/><path d="m240.346 322.975c-50.366 0-91.195-40.829-91.195-91.195v-72.615h182.39v72.615c0 50.366-40.83 91.195-91.195 91.195z" fill="#edf4fa"/><path d="m240.346 304.976c-50.366 0-91.195-40.829-91.195-91.195v18c0 50.365 40.829 91.195 91.195 91.195 50.365 0 91.195-40.829 91.195-91.195v-18c0 50.365-40.83 91.195-91.195 91.195z" fill="#d8e5ef"/><path d="m334.364 118.511c-1.94-7.37-5.54-18.95-11.42-30.99l42.08 13.69c.39-9.42 6.45-17.35 14.87-20.48-12.02-21.681-47.81-72.731-118.371-72.731-72.78 0-105.101 83.91-113.521 110.511z" fill="#f7594e"/><g><path d="m179.195 159.166v43.71c0 16.817 6.792 32.046 17.778 43.101 5.699-11.184 17.902-22.051 43.813-22.051 25.451 0 37.673 10.485 43.499 21.457 10.648-11.004 17.211-25.985 17.211-42.507v-43.71z" fill="#ffd6bd"/></g><path d="m334.81 159.166h-188.928c-11.227 0-20.328-9.101-20.328-20.328 0-11.227 9.101-20.328 20.328-20.328h188.928c11.227 0 20.328 9.101 20.328 20.328 0 11.226-9.101 20.328-20.328 20.328z" fill="#edf4fa"/><path d="m148.003 118.511h186.361c-1.222-4.642-3.104-10.956-5.798-18.001h-174.05c-2.928 7.208-5.071 13.445-6.513 18.001z" fill="#ea4642"/><path d="m334.81 141.165h-188.928c-7.991 0-14.885-4.622-18.207-11.328-1.345 2.716-2.121 5.764-2.121 9 0 11.227 9.101 20.328 20.328 20.328h188.928c11.227 0 20.328-9.101 20.328-20.328 0-3.236-.776-6.284-2.121-9-3.322 6.707-10.216 11.328-18.207 11.328z" fill="#d8e5ef"/><ellipse cx="387.843" cy="102.147" fill="#edf4fa" rx="22.862" ry="22.862" transform="matrix(.462 -.887 .887 .462 118.131 398.983)"/><path d="m387.843 107.008c-9.43 0-17.525-5.711-21.02-13.862-1.184 2.762-1.842 5.804-1.842 9 0 12.626 10.236 22.862 22.862 22.862s22.862-10.236 22.862-22.862c0-3.196-.658-6.238-1.842-9-3.495 8.152-11.589 13.862-21.02 13.862z" fill="#d8e5ef"/><path d="m154.929 469.117h170.834v34.883h-170.834z" fill="#565e75"/><path d="m154.929 486h170.834v18h-170.834z" fill="#4b5165"/><path d="m278.164 504h-75.637v-29.714c0-8.284 6.716-15 15-15h45.637c8.284 0 15 6.716 15 15z" fill="#ffe08c"/><path d="m202.527 486h75.637v18h-75.637z" fill="#f9d375"/></g><path d="m240.782 254.389c13.695 26.271 48.59 15.661 48.59 15.661s4.795-46.125-48.587-46.125-48.587 46.125-48.587 46.125 34.895 10.61 48.59-15.661z" fill="#c3d0d8"/><path d="m240.346 322.975c-5.837 0-11.544-.555-17.077-1.603v137.914h34.153v-137.914c-5.532 1.048-11.239 1.603-17.076 1.603z" fill="#edf4fa"/></g><g><path d="m207.428 181.82c-4.15 0-7.515 3.364-7.515 7.515v17.531c0 4.15 3.365 7.515 7.515 7.515s7.515-3.365 7.515-7.515v-17.531c-.001-4.15-3.365-7.515-7.515-7.515z"/><path d="m273.203 181.82c-4.15 0-7.515 3.364-7.515 7.515v17.531c0 4.15 3.364 7.515 7.515 7.515s7.515-3.365 7.515-7.515v-17.531c0-4.15-3.365-7.515-7.515-7.515z"/><path d="m388.101 71.424c-1.459 0-2.892.11-4.297.309-15.105-24.996-52.675-71.733-122.27-71.733-73.825 0-108.395 79.255-119.244 110.937-13.787 1.673-24.506 13.439-24.506 27.671 0 13.934 10.274 25.514 23.644 27.561v65.564c0 27.779 11.518 52.915 30.024 70.895-16.876 5.012-32.255 14.028-45.088 26.573-2.968 2.901-3.022 7.659-.121 10.627 1.472 1.506 3.422 2.262 5.374 2.262 1.894 0 3.791-.712 5.253-2.141 13.701-13.393 30.753-22.132 49.458-25.407 8.9 5.822 18.794 10.243 29.363 12.964v124.739c-6.995.544-13.106 4.289-16.858 9.774h-36.588v-39.085c0-4.15-3.365-7.515-7.515-7.515s-7.515 3.364-7.515 7.515v74.036h-38.709v-89.64c0-15.925 4.044-31.658 11.693-45.501 2.007-3.633.69-8.205-2.943-10.212-3.632-2.006-8.204-.69-10.212 2.943-8.876 16.062-13.568 34.31-13.568 52.77v97.155c0 4.15 3.365 7.515 7.515 7.515h278.646c4.15 0 7.515-3.365 7.515-7.515v-40.775c0-4.15-3.365-7.515-7.515-7.515s-7.515 3.365-7.515 7.515v33.261h-38.709v-74.036c0-4.15-3.365-7.515-7.515-7.515s-7.515 3.364-7.515 7.515v39.085h-36.588c-3.752-5.486-9.862-9.23-16.858-9.774v-124.74c10.565-2.72 20.455-7.138 29.353-12.957 21.111 3.709 40.427 14.586 54.633 30.865 14.96 17.144 23.199 39.133 23.199 61.916v26.321c0 4.15 3.365 7.515 7.515 7.515s7.515-3.365 7.515-7.515v-26.321c0-26.417-9.555-51.916-26.904-71.798-13.671-15.668-31.437-27.016-51.088-32.887 18.516-17.982 30.042-43.125 30.042-70.913v-65.564c13.37-2.048 23.644-13.627 23.644-27.561 0-13.527-9.683-24.83-22.481-27.353-1.037-3.517-2.325-7.511-3.913-11.81l21.578 7.02c2.232 14.59 14.867 25.802 30.071 25.802 16.774 0 30.421-13.647 30.421-30.421s-13.646-30.421-30.421-30.421zm-193.193 425.547h-32.662v-19.922h32.662zm90.815-19.922h32.662v19.922h-32.662zm-15.03-2.335v22.257h-60.756v-22.257c0-4.144 3.371-7.515 7.515-7.515h45.726c4.144 0 7.515 3.371 7.515 7.515zm-20.782-22.545h-19.19v-122.026c3.159.306 6.357.478 9.595.478s6.436-.172 9.595-.478zm74.263-220.436c0 46.24-37.619 83.859-83.859 83.859s-83.858-37.619-83.858-83.859v-65.243h15.073v36.28c0 16.547 5.831 32.205 16.489 44.65-4.515 11.935-3.485 22.798-3.419 23.433.313 3.007 2.396 5.533 5.289 6.413 12.11 3.681 35.993 5.299 50.867-10.083 9.264 9.582 22.022 12.567 33.255 12.567 6.802 0 13.045-1.095 17.613-2.484 2.892-.88 4.976-3.406 5.289-6.413.067-.648 1.141-11.944-3.7-24.163 10.271-12.336 15.888-27.736 15.888-43.921v-36.28h15.073zm-116.101 11.057c6.891-7.573 17.887-11.412 32.683-11.412s25.792 3.84 32.683 11.412c6.297 6.92 8.034 15.744 8.463 21.262-8.878 1.442-26.358 2.075-34.355-12.891-.109-.229-.23-.453-.362-.672-1.362-2.246-3.798-3.618-6.426-3.618h-.007c-2.627 0-5.063 1.372-6.426 3.618-.133.22-.253.444-.362.672-7.999 14.971-25.487 14.331-34.353 12.892.43-5.528 2.167-14.347 8.462-21.263zm76.621-9.963c-9.857-10.935-24.639-16.48-43.937-16.48s-34.081 5.545-43.938 16.48c-.204.227-.394.458-.592.687-6.274-8.957-9.667-19.592-9.667-30.744v-36.28h107.512v36.28c0 10.887-3.258 21.32-9.284 30.165-.033-.035-.062-.072-.094-.108zm74.922-141.65-31.258-10.169c-2.46-4.767-5.087-9.258-7.853-13.353-2.323-3.439-6.994-4.344-10.433-2.021-3.44 2.323-4.345 6.994-2.022 10.433 2.929 4.338 5.713 9.191 8.273 14.424 3.516 7.2 6.179 14.221 8.144 20.236h-36.235c-4.15 0-7.515 3.364-7.515 7.515 0 4.15 3.365 7.515 7.515 7.515h46.732c7.087 0 12.853 5.766 12.853 12.853s-5.766 12.853-12.853 12.853h-189.298c-7.087 0-12.853-5.766-12.853-12.853s5.766-12.853 12.853-12.853h112.508c4.15 0 7.515-3.364 7.515-7.515 0-4.15-3.364-7.515-7.515-7.515h-99.864c11.558-31.429 42.632-95.696 103.225-95.696 60.394 0 93.933 39.698 108.23 62.562-4.553 3.448-8.107 8.148-10.149 13.584zm28.485 26.06c-8.487 0-15.392-6.905-15.392-15.392s6.905-15.392 15.392-15.392 15.392 6.905 15.392 15.392-6.904 15.392-15.392 15.392z"/></g></g></svg>