<svg id="Capa_1" enable-background="new 0 0 511.987 511.987" height="512" viewBox="0 0 511.987 511.987" width="512" xmlns="http://www.w3.org/2000/svg"><g><path d="m378.221 240.415c8.953-34.795 7.69-83.202-1.979-118.091-2.639-9.521.046-19.72 7.032-26.706l7.67-7.67c7.263-7.263 7.801-19.097.801-26.613-7.349-7.891-19.709-8.057-27.269-.497l-1.133 1.133c-8.304 8.304-20.952 10.364-31.501 5.204-64.395-31.499-191.367-28.402-257.355 2.73-10.445 4.928-22.859 2.733-31.026-5.433l-3.634-3.634c-7.398-7.398-19.392-7.398-26.789 0-7.398 7.398-7.398 19.392 0 26.79l8.371 8.371c7.114 7.114 9.729 17.538 6.893 27.19-10.065 34.266-11.202 82.252-1.954 116.455 2.563 9.478-.133 19.598-7.076 26.541l-6.235 6.235c-7.398 7.398-7.398 19.392 0 26.789 7.398 7.398 19.392 7.398 26.789 0l2.39-2.39c7.943-7.943 19.957-10.307 30.242-5.79 67.615 29.695 195.18 33.277 261.171 2.664 10.411-4.83 22.731-2.599 30.846 5.516 7.398 7.398 19.392 7.398 26.789 0 7.398-7.398 7.398-19.392 0-26.789l-5.862-5.862c-6.838-6.84-9.591-16.777-7.181-26.143z" fill="#f4fbff"/><path d="m391.264 272.418c-1.783-2.612-17.956-12.909-13.043-32.004 8.725-33.896 7.948-82.447-2.037-118.298-2.63-9.442.159-19.568 7.089-26.499l7.669-7.669c7.263-7.263 7.802-19.097.801-26.614-7.349-7.892-19.709-8.057-27.269-.497l-.366.366c.043.046.092.084.135.131 7 7.517 6.462 19.35-.801 26.614l-7.67 7.67c-6.99 6.99-9.667 17.195-7.027 26.722.162.586.322 1.176.48 1.77 7.337 27.631-7.654 56.046-34.249 66.532-51.472 20.295-89.375 67.529-96.344 124.33 43.409-.701 85.396-7.548 114.996-21.28 10.251-4.755 22.343-2.654 30.459 5.158.127.122.262.233.387.358 7.397 7.398 19.392 7.398 26.789 0 7.399-7.398 7.399-19.392.001-26.79z" fill="#daf1f4"/><circle cx="371.418" cy="333.909" fill="#365e7d" r="133.069"/><path d="m371.418 200.84c-3.528 0-7.023.14-10.482.41 68.592 5.345 122.587 62.695 122.587 132.659s-53.995 127.314-122.587 132.659c3.459.27 6.954.41 10.482.41 73.492 0 133.069-59.577 133.069-133.069s-59.577-133.069-133.069-133.069z" fill="#2b4d66"/><circle cx="371.418" cy="333.909" fill="#f4fbff" r="99.255"/><path d="m371.418 234.654c-4.599 0-9.123.32-13.556.925 48.403 6.611 85.7 48.112 85.7 98.33s-37.297 91.719-85.7 98.33c4.433.605 8.957.925 13.556.925 54.817 0 99.255-44.438 99.255-99.255s-44.438-99.255-99.255-99.255z" fill="#daf1f4"/><g><path d="m371.419 272.7c4.143 0 7.5-3.357 7.5-7.5v-3.436c0-4.143-3.357-7.5-7.5-7.5s-7.5 3.357-7.5 7.5v3.436c0 4.143 3.357 7.5 7.5 7.5z"/><path d="m420.003 292.825c1.919 0 3.839-.732 5.304-2.196l2.43-2.43c2.929-2.93 2.929-7.678 0-10.607-2.93-2.928-7.678-2.928-10.607 0l-2.43 2.43c-2.929 2.93-2.929 7.678 0 10.607 1.464 1.464 3.384 2.196 5.303 2.196z"/><path d="m443.562 341.409c4.143 0 7.5-3.357 7.5-7.5s-3.357-7.5-7.5-7.5h-3.436c-4.143 0-7.5 3.357-7.5 7.5s3.357 7.5 7.5 7.5z"/><path d="m299.274 326.409c-4.143 0-7.5 3.357-7.5 7.5s3.357 7.5 7.5 7.5h3.436c4.143 0 7.5-3.357 7.5-7.5s-3.357-7.5-7.5-7.5z"/><path d="m414.699 387.797 2.43 2.43c1.465 1.464 3.385 2.196 5.304 2.196s3.839-.732 5.304-2.196c2.929-2.93 2.929-7.678 0-10.607l-2.43-2.43c-2.93-2.928-7.678-2.928-10.607 0-2.93 2.929-2.93 7.677-.001 10.607z"/><path d="m363.919 402.618v3.435c0 4.143 3.357 7.5 7.5 7.5s7.5-3.357 7.5-7.5v-3.435c0-4.143-3.357-7.5-7.5-7.5s-7.5 3.357-7.5 7.5z"/><path d="m317.529 377.191-2.429 2.43c-2.928 2.929-2.927 7.678.003 10.606 1.464 1.464 3.383 2.195 5.302 2.195 1.92 0 3.84-.732 5.305-2.198l2.429-2.43c2.928-2.929 2.927-7.678-.003-10.606s-7.679-2.928-10.607.003z"/><path d="m328.138 280.023-2.429-2.43c-2.929-2.932-7.678-2.929-10.606-.003-2.93 2.929-2.931 7.678-.003 10.606l2.429 2.43c1.465 1.466 3.385 2.198 5.305 2.198 1.919 0 3.838-.732 5.302-2.195 2.929-2.928 2.93-7.677.002-10.606z"/><path d="m475.038 250.091c-3.359 2.423-4.119 7.11-1.697 10.471 15.47 21.455 23.646 46.818 23.646 73.348 0 69.239-56.33 125.569-125.568 125.569-69.239 0-125.569-56.33-125.569-125.569s56.33-125.569 125.569-125.569c30.53 0 59.962 11.095 82.873 31.24 3.108 2.734 7.848 2.432 10.584-.68 2.735-3.11 2.432-7.85-.68-10.584-20.542-18.064-45.769-29.62-72.557-33.509.747-26.007-2.158-52.794-8.169-74.487-1.913-6.903.044-14.337 5.107-19.399l7.67-7.67c10.298-10.299 10.731-26.563.985-37.028-4.943-5.308-11.652-8.301-18.891-8.43-12.708-.222-19.851 8.562-20.303 8.874-6.015 6.014-15.22 7.53-22.903 3.77-51.194-25.041-145.879-30.283-220.243-12.192-4.025.979-6.494 5.035-5.515 9.06s5.037 6.499 9.06 5.515c33.487-8.147 73.113-11.659 111.563-9.868 39.68 1.84 74.677 9.283 98.544 20.958 13.438 6.572 29.556 3.907 40.104-6.64.576-.419 3.519-4.645 9.428-4.48 3.132.056 6.037 1.354 8.181 3.654 4.144 4.449 3.867 11.716-.616 16.198l-7.67 7.67c-8.878 8.879-12.31 21.911-8.955 34.013 5.557 20.055 8.272 44.868 7.656 69.12-1.747-.065-3.497-.106-5.251-.106-68.302 0-125.373 48.97-137.971 113.642-58.021 2.91-119.453-5.903-157.975-22.822-12.969-5.695-28.466-2.74-38.562 7.354l-2.39 2.39c-4.461 4.463-11.721 4.463-16.182 0-4.462-4.461-4.462-11.721 0-16.183l6.234-6.234c8.813-8.814 12.268-21.767 9.013-33.803-8.777-32.459-7.991-78.673 1.91-112.384 3.616-12.312.249-25.572-8.786-34.606l-8.371-8.37c-4.462-4.463-4.462-11.723 0-16.184 4.461-4.463 11.721-4.463 16.182 0l3.634 3.634c10.39 10.388 26.272 13.165 39.529 6.913 3.981-1.878 8.325-3.702 12.911-5.422 3.879-1.454 5.844-5.776 4.39-9.655s-5.777-5.843-9.655-4.39c-4.969 1.862-9.694 3.848-14.046 5.9-7.546 3.562-16.597 1.972-22.521-3.954l-3.634-3.634c-10.311-10.309-27.086-10.309-37.396 0-10.31 10.31-10.31 27.086 0 37.397l8.372 8.371c5.153 5.152 7.069 12.729 5 19.772-10.603 36.1-11.425 85.662-1.998 120.526 1.857 6.865-.112 14.253-5.14 19.279l-6.234 6.235c-10.31 10.311-10.31 27.087 0 37.396 10.311 10.309 27.086 10.309 37.396 0l2.39-2.39c5.758-5.759 14.564-7.459 21.923-4.228 35.83 15.735 87.973 24.666 141.133 24.666 6.919 0 13.856-.161 20.777-.469-.326 3.897-.501 7.837-.501 11.817 0 77.51 63.06 140.569 140.569 140.569s140.568-63.06 140.568-140.569c0-29.698-9.156-58.095-26.479-82.121-2.427-3.355-7.113-4.113-10.473-1.692z"/><path d="m363.919 317.869-5.112-4.271c-3.178-2.656-7.909-2.231-10.563.946-2.656 3.178-2.232 7.908.946 10.563l17.421 14.557c4.836 4.046 12.309.641 12.309-5.755v-41.579c0-4.143-3.357-7.5-7.5-7.5s-7.5 3.357-7.5 7.5v25.539z"/><path d="m429.094 182.749h21.071c4.143 0 7.5-3.357 7.5-7.5s-3.357-7.5-7.5-7.5h-6.788l12.11-17.562c1.583-2.294 1.762-5.277.467-7.744-1.296-2.468-3.854-4.014-6.641-4.014h-19.688c-4.143 0-7.5 3.357-7.5 7.5s3.357 7.5 7.5 7.5h5.404l-12.11 17.562c-3.427 4.968.142 11.758 6.175 11.758z"/><path d="m476.42 159.493h28.067c4.143 0 7.5-3.357 7.5-7.5s-3.357-7.5-7.5-7.5h-13.784l18.824-27.296c1.583-2.294 1.762-5.277.467-7.744-1.296-2.468-3.854-4.014-6.641-4.014h-26.225c-4.143 0-7.5 3.357-7.5 7.5s3.357 7.5 7.5 7.5h11.941l-18.824 27.296c-3.427 4.968.142 11.758 6.175 11.758z"/><path d="m333.55 425.985c-1.282 3.938.872 8.171 4.812 9.452 10.657 3.468 21.78 5.227 33.058 5.227 58.865 0 106.755-47.89 106.755-106.755s-47.89-106.755-106.755-106.755-106.756 47.89-106.756 106.755c0 34.441 16.765 66.957 44.846 86.979 3.374 2.405 8.058 1.619 10.461-1.752 2.405-3.373 1.62-8.057-1.752-10.461-24.142-17.213-38.555-45.163-38.555-74.766 0-50.594 41.161-91.755 91.756-91.755 50.594 0 91.755 41.161 91.755 91.755s-41.161 91.755-91.755 91.755c-9.699 0-19.26-1.511-28.417-4.49-3.938-1.283-8.172.872-9.453 4.811z"/></g></g></svg>