<svg height="512pt" viewBox="0 0 512 512" width="512pt" xmlns="http://www.w3.org/2000/svg"><path d="m502 136v346c0 11.050781-8.949219 20-20 20h-452c-11.050781 0-20-8.949219-20-20v-346zm0 0" fill="#fff"/><path d="m482 50c11.050781 0 20 8.949219 20 20v66h-492v-66c0-11.050781 8.949219-20 20-20zm0 0" fill="#ff5d5d"/><g fill="#7cd69f"><path d="m356 236h80v80h-80zm0 0"/><path d="m356 356h80v80h-80zm0 0"/><path d="m216 356h80v80h-80zm0 0"/><path d="m216 236h80v80h-80zm0 0"/><path d="m76 236h80v80h-80zm0 0"/><path d="m76 356h80v80h-80zm0 0"/></g><path d="m116 186c5.519531 0 10-4.480469 10-10s-4.480469-10-10-10-10 4.480469-10 10 4.480469 10 10 10zm0 0"/><path d="m30 512h452c16.542969 0 30-13.457031 30-30v-412c0-16.542969-13.457031-30-30-30h-16v-10c0-16.542969-13.457031-30-30-30s-30 13.457031-30 30v10h-60v-10c0-16.542969-13.457031-30-30-30s-30 13.457031-30 30v10h-60v-10c0-16.542969-13.457031-30-30-30s-30 13.457031-30 30v10h-60v-10c0-16.542969-13.457031-30-30-30s-30 13.457031-30 30v10h-16c-16.542969 0-30 13.457031-30 30v412c0 16.542969 13.457031 30 30 30zm452-20h-452c-5.515625 0-10-4.484375-10-10v-336h472v336c0 5.515625-4.484375 10-10 10zm-56-462c0-5.515625 4.484375-10 10-10s10 4.484375 10 10v10h-20zm-120 0c0-5.515625 4.484375-10 10-10s10 4.484375 10 10v10h-20zm-120 0c0-5.515625 4.484375-10 10-10s10 4.484375 10 10v10h-20zm-120 0c0-5.515625 4.484375-10 10-10s10 4.484375 10 10v10h-20zm-36 30h16v13c0 16.542969 13.457031 30 30 30 5.523438 0 10-4.476562 10-10s-4.476562-10-10-10c-5.515625 0-10-4.484375-10-10v-13h100v13c0 16.542969 13.457031 30 30 30 5.523438 0 10-4.476562 10-10s-4.476562-10-10-10c-5.515625 0-10-4.484375-10-10v-13h100v13c0 16.542969 13.457031 30 30 30 5.523438 0 10-4.476562 10-10s-4.476562-10-10-10c-5.515625 0-10-4.484375-10-10v-13h100v13c0 16.542969 13.457031 30 30 30 5.523438 0 10-4.476562 10-10s-4.476562-10-10-10c-5.515625 0-10-4.484375-10-10v-13h56c5.515625 0 10 4.484375 10 10v56h-472v-56c0-5.515625 4.484375-10 10-10zm0 0"/><path d="m156 186h240c5.523438 0 10-4.476562 10-10s-4.476562-10-10-10h-240c-5.523438 0-10 4.476562-10 10s4.476562 10 10 10zm0 0"/><path d="m436 346h-80c-5.523438 0-10 4.476562-10 10v80c0 5.523438 4.476562 10 10 10h80c5.523438 0 10-4.476562 10-10v-80c0-5.523438-4.476562-10-10-10zm-10 80h-60v-60h60zm0 0"/><path d="m296 346h-80c-5.523438 0-10 4.476562-10 10v80c0 5.523438 4.476562 10 10 10h80c5.523438 0 10-4.476562 10-10v-80c0-5.523438-4.476562-10-10-10zm-10 80h-60v-60h60zm0 0"/><path d="m156 346h-80c-5.523438 0-10 4.476562-10 10v80c0 5.523438 4.476562 10 10 10h80c5.523438 0 10-4.476562 10-10v-80c0-5.523438-4.476562-10-10-10zm-10 80h-60v-60h60zm0 0"/><path d="m156 226h-80c-5.523438 0-10 4.476562-10 10v80c0 5.523438 4.476562 10 10 10h80c5.523438 0 10-4.476562 10-10v-80c0-5.523438-4.476562-10-10-10zm-10 80h-60v-60h60zm0 0"/><path d="m296 226h-80c-5.523438 0-10 4.476562-10 10v80c0 5.523438 4.476562 10 10 10h80c5.523438 0 10-4.476562 10-10v-80c0-5.523438-4.476562-10-10-10zm-10 80h-60v-60h60zm0 0"/><path d="m436 226h-80c-5.523438 0-10 4.476562-10 10v80c0 5.523438 4.476562 10 10 10h80c5.523438 0 10-4.476562 10-10v-80c0-5.523438-4.476562-10-10-10zm-10 80h-60v-60h60zm0 0"/></svg>