<svg id="Capa_1" enable-background="new 0 0 512 512" height="512" viewBox="0 0 512 512" width="512" xmlns="http://www.w3.org/2000/svg"><g><path d="m377.817 504.5h-40.552c-9.076 0-16.434-7.358-16.434-16.434v-88.066h73.42v88.067c0 9.076-7.358 16.433-16.434 16.433z" fill="#f4fbff"/><path d="m320.831 488.066c0 2.462.557 4.789 1.527 6.886 26.951-9.273 51.355-24.012 71.893-42.897v-52.055h-73.42z" fill="#daf1f4"/><path d="m130.877 107.575-89.933 89.933c-2.679 2.679-7.023 2.679-9.702 0l-11.76-11.76c-16.338-16.338-16.338-42.826 0-59.163l40.471-40.471c16.338-16.338 42.826-16.338 59.163 0l11.76 11.76c2.68 2.678 2.68 7.022.001 9.701z" fill="#5766cb"/><path d="m130.877 97.873-11.76-11.76c-15.904-15.904-41.422-16.32-57.837-1.261 12.015.423 23.905 5.209 33.077 14.381l20.943 20.943c.516.516.938 1.087 1.285 1.69l14.291-14.291c2.68-2.679 2.68-7.023.001-9.702z" fill="#3d4fc3"/><path d="m380.581 107.575 89.933 89.933c2.679 2.679 7.023 2.679 9.702 0l11.76-11.76c16.338-16.338 16.338-42.826 0-59.163l-40.471-40.471c-16.338-16.338-42.826-16.338-59.163 0l-11.76 11.76c-2.68 2.678-2.68 7.022-.001 9.701z" fill="#5766cb"/><path d="m491.976 126.584-5.965-5.965c4.455 16.103.366 34.073-12.291 46.731l-16.682 16.682 13.476 13.476c2.679 2.679 7.023 2.679 9.702 0l11.76-11.76c16.337-16.338 16.337-42.827 0-59.164z" fill="#3d4fc3"/><path d="m82.233 143.836h49.385v59.44h-49.385z" fill="#f4fbff" transform="matrix(.707 -.707 .707 .707 -91.405 126.442)"/><path d="m67.024 150.136h49.385v16.421h-49.385z" fill="#daf1f4" transform="matrix(.707 -.707 .707 .707 -85.105 111.232)"/><path d="m379.839 143.836h49.385v59.44h-49.385z" fill="#f4fbff" transform="matrix(-.707 -.707 .707 -.707 567.856 582.327)"/><path d="m411.721 133.575h16.198v49.385h-16.198z" fill="#daf1f4" transform="matrix(.707 -.707 .707 .707 11.05 343.213)"/><path d="m174.193 504.5h-40.553c-9.076 0-16.434-7.358-16.434-16.434v-88.066h73.42v88.067c0 9.076-7.357 16.433-16.433 16.433z" fill="#f4fbff"/><path d="m117.207 452.056c20.537 18.884 44.941 33.624 71.893 42.897.97-2.097 1.527-4.424 1.527-6.886v-88.067h-73.42z" fill="#daf1f4"/><circle cx="255.729" cy="295.351" fill="#5766cb" r="187.928"/><path d="m255.729 107.423c-4.295 0-8.553.158-12.777.441 97.83 6.57 175.152 87.992 175.152 187.487s-77.322 180.917-175.152 187.487c4.223.284 8.481.441 12.777.441 103.79 0 187.928-84.138 187.928-187.928s-84.138-187.928-187.928-187.928z" fill="#3d4fc3"/><circle cx="255.729" cy="295.351" fill="#f4fbff" r="144.171"/><path d="m255.729 151.181c-5.406 0-10.74.308-15.991.887 72.096 7.957 128.18 69.066 128.18 143.283s-56.083 135.326-128.18 143.283c5.252.58 10.585.887 15.991.887 79.623 0 144.171-64.547 144.171-144.171s-64.548-144.169-144.171-144.169z" fill="#daf1f4"/><g><path d="m497.279 121.281-14.932-14.933 5.826-5.826c2.929-2.929 2.929-7.678-.001-10.606-2.928-2.93-7.677-2.929-10.606 0l-5.825 5.826-14.932-14.932c-18.297-18.297-47.498-19.177-66.861-2.667l-16.674-4.431c-14.466-3.844-24.931-15.936-26.658-30.804-2.845-24.462-23.558-42.908-48.184-42.908h-85.406c-24.625 0-45.339 18.446-48.183 42.907-1.728 14.868-12.192 26.96-26.659 30.804l-16.67 4.43c-8.917-7.617-20.124-11.782-31.979-11.782-13.178 0-25.567 5.131-34.886 14.45l-14.932 14.933-5.827-5.826c-2.928-2.93-7.677-2.929-10.606 0s-2.929 7.678.001 10.606l5.826 5.826-14.931 14.931c-2.412 2.411-4.581 5.082-6.446 7.939-2.265 3.468-1.289 8.116 2.179 10.38 3.469 2.264 8.115 1.288 10.38-2.179 1.301-1.991 2.812-3.852 4.493-5.532l40.471-40.472c6.484-6.485 15.107-10.056 24.278-10.056s17.793 3.571 24.277 10.056l11.309 11.309c-89.684 89.683 17.34-17.341-89.027 89.028l-11.309-11.309c-5.133-5.132-8.455-11.63-9.606-18.791-.658-4.09-4.506-6.873-8.597-6.214-4.089.658-6.871 4.506-6.214 8.596 1.656 10.296 6.433 19.639 13.811 27.016l11.761 11.761c2.8 2.799 6.477 4.198 10.153 4.198 3.678 0 7.355-1.399 10.155-4.199l22.202-22.202 17.695 17.695c-16.437 28.611-25.845 61.751-25.845 97.048 0 49.743 18.691 95.196 49.406 129.73v62.986c0 13.197 10.736 23.934 23.934 23.934h40.552c13.197 0 23.934-10.736 23.934-23.934v-5.955c18.217 5.63 37.561 8.667 57.603 8.667s39.386-3.037 57.603-8.667v5.954c0 13.197 10.736 23.934 23.934 23.934h40.553c12.457 0 22.935-9.733 23.852-22.158.306-4.131-2.796-7.728-6.927-8.032-4.129-.294-7.728 2.797-8.032 6.927-.343 4.634-4.248 8.264-8.893 8.264h-40.553c-4.926 0-8.934-4.008-8.934-8.934v-11.28c21.648-8.694 41.394-21.149 58.42-36.561v19.045c0 4.143 3.357 7.5 7.5 7.5s7.5-3.357 7.5-7.5v-34.19c30.715-34.534 49.406-79.987 49.406-129.73 0-35.297-9.408-68.437-25.845-97.048l17.695-17.695 22.202 22.203c5.601 5.6 14.711 5.597 20.31 0l11.76-11.761c9.318-9.318 14.449-21.707 14.449-34.885s-5.131-25.566-14.45-34.884zm-361.098-28.711-2.217-2.217 8.071-2.145c20.462-5.438 35.264-22.54 37.708-43.57 1.964-16.896 16.273-29.638 33.282-29.638h85.406c17.011 0 31.319 12.742 33.283 29.639 2.444 21.03 17.245 38.132 37.707 43.57l8.072 2.145-2.216 2.216c-2.713 2.712-4.207 6.319-4.207 10.155 0 3.835 1.494 7.441 4.206 10.154l22.203 22.203-13.201 13.201c-32.629-28.556-74.807-46.447-121.05-48.201v-17.174h18.054c4.143 0 7.5-3.358 7.5-7.5s-3.357-7.5-7.5-7.5h-51.106c-4.143 0-7.5 3.358-7.5 7.5s3.357 7.5 7.5 7.5h18.053v17.173c-46.243 1.754-88.421 19.645-121.05 48.201l-13.201-13.201 22.203-22.203c5.598-5.6 5.597-14.71 0-20.308zm-57.124 77.432 12.157-12.157 12.157-12.157 12.903 12.903c-8.066 8.224-15.415 17.152-21.939 26.688zm104.069 318.065c0 4.926-4.008 8.934-8.934 8.934h-40.552c-4.926 0-8.934-4.008-8.934-8.934v-47.84c17.025 15.412 36.771 27.867 58.419 36.56v11.28zm72.602-12.287c-99.488 0-180.428-80.94-180.428-180.429s80.939-180.428 180.428-180.428 180.429 80.94 180.429 180.428-80.94 180.429-180.429 180.429zm161.395-290.501c-6.525-9.536-13.873-18.465-21.939-26.688l12.903-12.903 24.314 24.314zm69.549-4.835-11.308 11.309c-11.15-11.151-77.845-77.846-89.027-89.029l11.308-11.308c13.387-13.387 35.17-13.388 48.557 0l40.471 40.471c6.485 6.485 10.057 15.107 10.057 24.278s-3.573 17.794-10.058 24.279z"/><path d="m255.728 200.308c4.143 0 7.5-3.358 7.5-7.5v-9.645c0-4.142-3.357-7.5-7.5-7.5s-7.5 3.358-7.5 7.5v9.645c0 4.142 3.358 7.5 7.5 7.5z"/><path d="m328.238 230.342c1.919 0 3.839-.732 5.304-2.197l6.82-6.82c2.929-2.929 2.929-7.678 0-10.606-2.93-2.929-7.678-2.929-10.607 0l-6.82 6.82c-2.929 2.929-2.929 7.678 0 10.606 1.464 1.465 3.384 2.197 5.303 2.197z"/><path d="m358.272 302.851h9.645c4.143 0 7.5-3.357 7.5-7.5s-3.357-7.5-7.5-7.5h-9.645c-4.143 0-7.5 3.357-7.5 7.5s3.358 7.5 7.5 7.5z"/><path d="m329.755 379.984c1.465 1.464 3.385 2.196 5.304 2.196s3.839-.732 5.304-2.196c2.929-2.93 2.929-7.678 0-10.607l-6.82-6.82c-2.93-2.928-7.678-2.928-10.607 0-2.929 2.93-2.929 7.678 0 10.607z"/><path d="m248.228 397.895v9.645c0 4.143 3.357 7.5 7.5 7.5s7.5-3.357 7.5-7.5v-9.645c0-4.143-3.357-7.5-7.5-7.5s-7.5 3.357-7.5 7.5z"/><path d="m177.916 362.556-6.82 6.82c-2.929 2.93-2.929 7.678 0 10.607 1.465 1.464 3.385 2.196 5.304 2.196s3.839-.732 5.304-2.196l6.82-6.82c2.929-2.93 2.929-7.678 0-10.607-2.93-2.928-7.678-2.928-10.608 0z"/><path d="m153.186 287.851h-9.646c-4.143 0-7.5 3.357-7.5 7.5s3.357 7.5 7.5 7.5h9.646c4.143 0 7.5-3.357 7.5-7.5s-3.358-7.5-7.5-7.5z"/><path d="m188.523 217.539-6.82-6.82c-2.93-2.929-7.678-2.929-10.607 0s-2.929 7.678 0 10.606l6.82 6.82c1.465 1.464 3.385 2.197 5.304 2.197s3.839-.732 5.304-2.197c2.928-2.928 2.928-7.677-.001-10.606z"/><path d="m305.394 295.351c0-4.143-3.357-7.5-7.5-7.5h-34.665v-55.816c0-4.142-3.357-7.5-7.5-7.5s-7.5 3.358-7.5 7.5v63.316c0 4.143 3.357 7.5 7.5 7.5h42.165c4.142 0 7.5-3.357 7.5-7.5z"/><path d="m340.152 169.336c-3.438-2.308-8.098-1.392-10.407 2.047s-1.392 8.099 2.048 10.407c37.95 25.473 60.606 67.926 60.606 113.561 0 75.36-61.311 136.671-136.671 136.671s-136.67-61.311-136.67-136.671 61.31-136.67 136.67-136.67c17.591 0 34.725 3.3 50.925 9.809 3.841 1.542 8.21-.319 9.755-4.164 1.545-3.843-.319-8.211-4.163-9.755-17.985-7.226-37.001-10.89-56.517-10.89-83.631 0-151.67 68.039-151.67 151.67 0 83.632 68.039 151.671 151.67 151.671 83.632 0 151.671-68.039 151.671-151.671 0-50.643-25.138-97.751-67.247-126.015z"/></g></g></svg>