<svg id="Capa_1" enable-background="new 0 0 512 512" height="512" viewBox="0 0 512 512" width="512" xmlns="http://www.w3.org/2000/svg"><g><g><path d="m414.893 358.783-56.402-96.138h21.858c3.798 0 6.163-4.12 4.248-7.4l-65.341-111.906h16.982c3.813 0 6.177-4.151 4.23-7.43l-71.563-120.562c-5.815-9.796-19.995-9.796-25.81 0l-71.563 120.561c-1.947 3.279.417 7.43 4.23 7.43h16.982l-65.341 111.906c-1.915 3.279.451 7.4 4.248 7.4h21.858l-56.402 96.138c-5.869 10.005 1.345 22.601 12.944 22.601h291.897c11.6.001 18.814-12.596 12.945-22.6z" fill="#36ce94"/><path d="m95.331 363.384c-1.836 8.882 4.852 18 14.72 18h291.897c9.868 0 16.557-9.118 14.72-18z" fill="#36bf84"/><g><path d="m236.824 381.384h38.351v122.616h-38.351z" fill="#e4936b"/><path d="m236.824 486h38.351v18h-38.351z" fill="#db835d"/><path d="m114.731 445.473h122.093v58.527h-122.093z" fill="#ffe08c"/><path d="m214.567 445.473s4.975-25.954-9.718-28.403c-16.756-2.793-29.071 28.403-29.071 28.403s-12.315-31.196-29.071-28.403c-14.693 2.449-9.718 28.403-9.718 28.403z" fill="#f7594e"/><path d="m8 432.63h106.731v71.369h-106.731z" fill="#f7594e"/><path d="m100.155 432.63s4.974-25.954-9.718-28.403c-16.756-2.793-29.071 28.403-29.071 28.403s-12.315-31.196-29.071-28.403c-14.693 2.449-9.718 28.403-9.718 28.403z" fill="#ffe08c"/><path d="m275.176 445.473h122.093v58.527h-122.093z" fill="#f7594e" transform="matrix(-1 0 0 -1 672.444 949.473)"/><path d="m297.433 445.473s-4.975-25.954 9.718-28.403c16.756-2.793 29.071 28.403 29.071 28.403s12.315-31.196 29.071-28.403c14.693 2.449 9.718 28.403 9.718 28.403z" fill="#ffe08c"/><path d="m397.269 432.63h106.731v71.369h-106.731z" fill="#ffe08c" transform="matrix(-1 0 0 -1 901.269 936.631)"/><path d="m114.731 486h122.093v18h-122.093z" fill="#f9d375"/><path d="m8 486h106.731v18h-106.731z" fill="#ea4642"/><path d="m275.176 486h122.093v18h-122.093z" fill="#ea4642"/><path d="m397.269 486h106.731v18h-106.731z" fill="#f9d375"/><path d="m411.845 432.63s-4.975-25.954 9.718-28.403c16.756-2.793 29.071 28.403 29.071 28.403s12.315-31.196 29.071-28.403c14.693 2.449 9.718 28.403 9.718 28.403z" fill="#f7594e"/></g><circle cx="183.965" cy="336.99" fill="#f7594e" r="15.496"/><circle cx="263.325" cy="284.64" fill="#ffe08c" r="15.496"/><circle cx="301.278" cy="202.391" fill="#f7594e" r="15.496"/><circle cx="210.35" cy="217.887" fill="#ffe08c" r="15.496"/><circle cx="256" cy="111.832" fill="#ffe08c" r="15.496"/><circle cx="332.223" cy="333.64" fill="#f7594e" r="15.496"/><path d="m183.965 334.486c-5.198 0-9.787-2.568-12.598-6.496-1.817 2.539-2.898 5.64-2.898 9 0 8.558 6.938 15.496 15.496 15.496s15.496-6.938 15.496-15.496c0-3.36-1.081-6.461-2.898-9-2.811 3.928-7.4 6.496-12.598 6.496z" fill="#ea4642"/><path d="m263.325 282.135c-5.198 0-9.787-2.568-12.598-6.496-1.817 2.539-2.898 5.64-2.898 9 0 8.558 6.938 15.496 15.496 15.496s15.496-6.938 15.496-15.496c0-3.36-1.081-6.461-2.898-9-2.811 3.928-7.4 6.496-12.598 6.496z" fill="#f9d375"/><path d="m301.278 199.887c-5.198 0-9.787-2.568-12.598-6.496-1.817 2.539-2.898 5.64-2.898 9 0 8.558 6.938 15.496 15.496 15.496s15.496-6.938 15.496-15.496c0-3.36-1.081-6.461-2.898-9-2.811 3.928-7.4 6.496-12.598 6.496z" fill="#ea4642"/><path d="m210.35 215.383c-5.198 0-9.787-2.568-12.598-6.496-1.817 2.539-2.898 5.64-2.898 9 0 8.558 6.938 15.496 15.496 15.496s15.496-6.938 15.496-15.496c0-3.36-1.081-6.461-2.898-9-2.811 3.928-7.4 6.496-12.598 6.496z" fill="#f9d375"/><path d="m256 109.328c-5.198 0-9.787-2.568-12.598-6.496-1.817 2.539-2.898 5.64-2.898 9 0 8.558 6.938 15.496 15.496 15.496s15.496-6.938 15.496-15.496c0-3.36-1.081-6.461-2.898-9-2.811 3.928-7.4 6.496-12.598 6.496z" fill="#f9d375"/><path d="m332.223 331.136c-5.198 0-9.787-2.568-12.598-6.496-1.817 2.539-2.898 5.64-2.898 9 0 8.558 6.938 15.496 15.496 15.496s15.496-6.938 15.496-15.496c0-3.36-1.081-6.461-2.898-9-2.811 3.927-7.4 6.496-12.598 6.496z" fill="#ea4642"/></g><g><path d="m214.676 62.71c3.568 2.118 8.179.943 10.298-2.626l24.559-41.372c1.973-3.324 5.18-3.682 6.467-3.682 1.288 0 4.496.359 6.469 3.682l69.385 116.892h-12.474c-2.692 0-5.177 1.439-6.517 3.773-1.341 2.334-1.33 5.206.027 7.53l14.075 24.106c1.397 2.393 3.912 3.727 6.496 3.727 1.287 0 2.591-.331 3.782-1.026 3.584-2.092 4.794-6.694 2.701-10.278l-7.475-12.802h3.926c4.463 0 8.607-2.41 10.814-6.288 2.207-3.879 2.163-8.672-.115-12.508l-71.702-120.798c-4.103-6.913-11.354-11.04-19.393-11.04s-15.288 4.128-19.391 11.041l-24.558 41.372c-2.119 3.568-.943 8.179 2.626 10.297z"/><path d="m109.766 389.144h35.796c4.15 0 7.515-3.364 7.515-7.515 0-4.15-3.365-7.515-7.515-7.515h-35.796c-3.936 0-5.876-2.646-6.527-3.784-.651-1.137-1.952-4.15.04-7.544l56.512-96.327c1.363-2.323 1.379-5.199.04-7.537s-3.827-3.78-6.521-3.78h-17.396l63.197-108.235c1.357-2.324 1.368-5.197.028-7.53-1.34-2.334-3.826-3.773-6.517-3.773h-12.474l29.454-49.621c2.118-3.569.943-8.179-2.626-10.298-3.57-2.119-8.179-.942-10.298 2.626l-31.773 53.527c-2.277 3.837-2.321 8.63-.113 12.508 2.207 3.878 6.351 6.287 10.814 6.287h3.926l-58.868 100.82c-2.241 3.838-2.259 8.616-.046 12.47s6.348 6.249 10.792 6.249h8.78l-49.873 85.009c-4.142 7.06-4.186 15.516-.119 22.619 4.066 7.103 11.382 11.344 19.568 11.344z"/><path d="m504.485 425.461h-6.303c.191-6.332-.549-14.686-4.756-20.73-2.894-4.158-7.061-6.795-12.047-7.626-13.591-2.265-23.998 9.29-30.363 19.432-6.365-10.142-16.774-21.696-30.364-19.432-4.986.831-9.153 3.468-12.047 7.626-4.208 6.044-4.948 14.397-4.756 20.73h-6.303c-4.151 0-7.515 3.364-7.515 7.515v5.353h-6.484c.191-6.332-.549-14.685-4.756-20.729-2.894-4.158-7.061-6.796-12.047-7.627-13.59-2.265-23.998 9.29-30.363 19.432-6.365-10.142-16.771-21.696-30.364-19.432-4.986.831-9.153 3.469-12.047 7.627-4.208 6.044-4.948 14.397-4.756 20.729h-6.484v-49.185h119.506c8.186 0 15.501-4.241 19.569-11.343 4.067-7.103 4.023-15.559-.118-22.619l-49.873-85.01h8.78c4.444 0 8.579-2.394 10.792-6.249 2.212-3.854 2.195-8.632-.046-12.469l-36.241-62.068c-2.093-3.584-6.696-4.793-10.278-2.7-3.584 2.092-4.794 6.694-2.701 10.278l33.97 58.179h-17.397c-2.694 0-5.182 1.442-6.521 3.78-1.34 2.338-1.324 5.214.039 7.538l56.513 96.326c1.991 3.395.691 6.407.039 7.544-.652 1.138-2.592 3.784-6.527 3.784h-226.615c-4.15 0-7.515 3.365-7.515 7.515s3.364 7.515 7.515 7.515h53.651v49.185h-6.485c.191-6.332-.549-14.686-4.756-20.73-2.895-4.158-7.06-6.795-12.047-7.626-13.587-2.264-23.999 9.29-30.363 19.432-6.365-10.142-16.779-21.694-30.365-19.432-4.986.831-9.152 3.468-12.046 7.626-4.207 6.044-4.948 14.398-4.756 20.73h-6.484v-5.353c0-4.15-3.365-7.515-7.515-7.515h-6.304c.191-6.333-.549-14.686-4.757-20.73-2.894-4.158-7.06-6.794-12.047-7.626-13.583-2.265-23.999 9.29-30.363 19.432-6.365-10.141-16.776-21.7-30.364-19.432-4.987.831-9.153 3.468-12.047 7.626-4.208 6.044-4.948 14.397-4.756 20.73h-6.302c-4.15 0-7.515 3.364-7.515 7.515v71.509c0 4.149 3.364 7.514 7.515 7.514h496.971c4.151 0 7.515-3.365 7.515-7.515v-71.509c-.001-4.15-3.365-7.515-7.516-7.515zm-25.577-13.531c.987.165 1.598.551 2.177 1.38 1.774 2.537 2.251 7.538 2.069 12.152h-19.949c4.508-7.392 10.575-14.376 15.703-13.532zm-57.969 1.389c.588-.845 1.18-1.221 2.184-1.389 5.059-.843 11.12 5.889 15.751 13.531h-19.98c-.172-4.378.2-9.492 2.045-12.142zm-30.909 83.652h-46.136v-43.613h46.136zm-25.759-72.174c.988.165 1.599.551 2.178 1.38 1.774 2.537 2.251 7.537 2.069 12.151h-19.949c4.508-7.39 10.594-14.381 15.702-13.531zm-57.968 1.389c.588-.845 1.18-1.221 2.184-1.388 5.057-.841 11.12 5.889 15.75 13.531h-19.98c-.171-4.379.201-9.492 2.046-12.143zm-77.031 70.785h-46.137v-43.613h46.137zm-25.759-72.174c.988.164 1.598.551 2.177 1.38 1.773 2.537 2.251 7.534 2.069 12.152h-19.996c4.631-7.644 10.706-14.372 15.75-13.532zm-57.962 1.38c.579-.828 1.189-1.215 2.177-1.38 5.057-.84 11.12 5.888 15.751 13.531h-19.997c-.182-4.617.296-9.614 2.069-12.151zm-38.611 70.794h-38.441v-56.48h38.441v5.353zm-18.062-85.041c.987.164 1.598.551 2.177 1.38 1.773 2.536 2.251 7.534 2.069 12.152h-19.997c4.631-7.644 10.706-14.372 15.751-13.532zm-57.963 1.38c.579-.828 1.189-1.215 2.177-1.38 5.043-.84 11.121 5.889 15.751 13.531h-19.997c-.182-4.617.296-9.615 2.069-12.151zm-15.886 27.181h38.441v56.48h-38.441zm106.941 12.867h46.136v43.613h-46.136zm122.331-7.515v-56.7h23.397v56.7 51.127h-23.397zm38.427 7.515h46.137v43.613h-46.137zm122.332-7.515v-5.353h38.441v56.48h-38.441zm91.911 51.128h-38.44v-56.48h38.44z"/><path d="m160.784 337.149c0 12.705 10.336 23.041 23.041 23.041s23.041-10.336 23.041-23.041c0-12.704-10.336-23.041-23.041-23.041s-23.041 10.336-23.041 23.041zm31.052 0c0 4.418-3.594 8.012-8.011 8.012s-8.011-3.594-8.011-8.012c0-4.417 3.594-8.011 8.011-8.011s8.011 3.593 8.011 8.011z"/><path d="m263.339 307.737c12.705 0 23.04-10.336 23.04-23.041 0-12.704-10.336-23.041-23.04-23.041-12.705 0-23.041 10.336-23.041 23.041s10.336 23.041 23.041 23.041zm0-31.053c4.417 0 8.011 3.594 8.011 8.011 0 4.418-3.594 8.012-8.011 8.012-4.418 0-8.012-3.594-8.012-8.012.001-4.417 3.595-8.011 8.012-8.011z"/><path d="m324.407 202.287c0-12.705-10.337-23.041-23.041-23.041-12.705 0-23.04 10.336-23.04 23.041 0 12.704 10.336 23.041 23.04 23.041 12.704-.001 23.041-10.337 23.041-23.041zm-31.052 0c0-4.418 3.594-8.012 8.011-8.012 4.418 0 8.012 3.594 8.012 8.012 0 4.417-3.594 8.011-8.012 8.011-4.417 0-8.011-3.594-8.011-8.011z"/><path d="m233.301 217.813c0-12.705-10.336-23.041-23.041-23.041s-23.041 10.336-23.041 23.041c0 12.704 10.336 23.041 23.041 23.041s23.041-10.337 23.041-23.041zm-31.052 0c0-4.417 3.594-8.011 8.011-8.011s8.011 3.594 8.011 8.011-3.594 8.011-8.011 8.011-8.011-3.594-8.011-8.011z"/><path d="m256 134.591c12.704 0 23.041-10.336 23.041-23.041s-10.337-23.041-23.041-23.041c-12.705 0-23.041 10.336-23.041 23.041s10.336 23.041 23.041 23.041zm0-31.052c4.418 0 8.012 3.594 8.012 8.012 0 4.417-3.594 8.011-8.012 8.011-4.417 0-8.011-3.594-8.011-8.011 0-4.418 3.594-8.012 8.011-8.012z"/><path d="m332.372 356.833c12.704 0 23.041-10.336 23.041-23.041s-10.337-23.041-23.041-23.041-23.041 10.336-23.041 23.041 10.336 23.041 23.041 23.041zm0-31.053c4.418 0 8.012 3.594 8.012 8.012 0 4.417-3.594 8.011-8.012 8.011s-8.012-3.594-8.012-8.011c0-4.418 3.594-8.012 8.012-8.012z"/></g></g></svg>