<svg id="Capa_1" enable-background="new 0 0 512 512" height="512" viewBox="0 0 512 512" width="512" xmlns="http://www.w3.org/2000/svg"><g><g><path d="m398.708 500.784-142.708-111.708-142.708 111.708c-9.846 7.707-24.246.692-24.246-11.812v-465.972c0-8.284 6.716-15 15-15h303.908c8.284 0 15 6.716 15 15v465.972c0 12.504-14.399 19.519-24.246 11.812z" fill="#f7594e"/><path d="m398.708 482.784-139.626-109.295c-1.81-1.417-4.354-1.417-6.164 0l-139.626 109.295c-9.846 7.707-24.246.692-24.246-11.812v18c0 12.504 14.4 19.519 24.246 11.812l142.708-111.708 142.708 111.708c9.846 7.707 24.246.692 24.246-11.812v-18c0 12.504-14.4 19.519-24.246 11.812z" fill="#ea4642"/><path d="m127.628 8h-23.582c-8.284 0-15 6.716-15 15v465.972c0 12.504 14.4 19.519 24.246 11.812l14.337-11.222v-481.562z" fill="#cb3541"/><path d="m384.372 8h23.582c8.284 0 15 6.716 15 15v465.972c0 12.504-14.4 19.519-24.246 11.812l-14.337-11.222v-481.562z" fill="#cb3541"/><path d="m328.69 286.516-26.644-54.78h9.381c3.743 0 6.159-3.962 4.445-7.29l-31.035-60.245h6.433c3.844 0 6.25-4.156 4.336-7.49l-35.27-61.424c-1.922-3.347-6.75-3.347-8.672 0l-35.27 61.424c-1.914 3.333.492 7.49 4.336 7.49h6.433l-31.035 60.245c-1.714 3.328.702 7.29 4.445 7.29h9.381l-26.644 54.78c-1.615 3.321.803 7.187 4.496 7.187h136.388c3.693 0 6.112-3.866 4.496-7.187z" fill="#36ce94"/><path d="m323.432 275.704h-134.863l-5.259 10.812c-1.615 3.321.803 7.187 4.497 7.187h136.388c3.693 0 6.112-3.866 4.496-7.187z" fill="#36bf84"/><path d="m267.833 330.07h-22.923c-2.761 0-5-2.239-5-5v-31.367h32.924v31.367c-.001 2.761-2.239 5-5.001 5z" fill="#edbca4"/><path d="m239.91 293.703h32.924v18h-32.924z" fill="#eaab92"/><g fill="#ba3243"><path d="m398.708 482.784-14.337-11.222v18l14.337 11.222c9.846 7.707 24.246.692 24.246-11.812v-17.997c-.003 12.502-14.4 19.515-24.246 11.809z"/><path d="m113.292 482.784c-9.845 7.706-24.243.693-24.246-11.808v17.997c0 12.504 14.4 19.519 24.246 11.812l14.337-11.222v-18z"/></g></g><g><path d="m423.281 241.253c4.151 0 7.515-3.364 7.515-7.515v-211.194c0-12.431-10.114-22.544-22.544-22.544h-304.504c-12.43 0-22.544 10.113-22.544 22.544v58.451c0 4.15 3.364 7.515 7.515 7.515s7.515-3.365 7.515-7.515v-58.451c0-4.143 3.371-7.515 7.515-7.515h16.114v338.172c0 4.15 3.364 7.515 7.515 7.515s7.515-3.365 7.515-7.515v-338.172h242.218v459.565l-116.479-91.174c-2.72-2.13-6.544-2.13-9.264 0l-116.477 91.174v-91.334c0-4.15-3.364-7.515-7.515-7.515s-7.515 3.365-7.515 7.515v103.099l-11.482 8.988c-2.316 1.814-5.277 2.127-7.922.839s-4.224-3.814-4.224-6.756v-378.376c0-4.15-3.364-7.515-7.515-7.515s-7.515 3.364-7.515 7.515v378.376c0 8.694 4.855 16.46 12.671 20.267 3.169 1.544 6.55 2.303 9.907 2.303 4.922-.001 9.792-1.633 13.861-4.819l138.358-108.3 138.357 108.301c6.845 5.359 15.955 6.323 23.768 2.515 7.816-3.807 12.671-11.573 12.671-20.267v-225.633c0-4.15-3.364-7.515-7.515-7.515s-7.515 3.365-7.515 7.515v225.633c0 2.942-1.579 5.468-4.224 6.756-2.644 1.288-5.605.975-7.922-.839l-11.482-8.988v-471.33h16.114c4.144 0 7.515 3.371 7.515 7.515v211.194c0 4.15 3.364 7.515 7.514 7.515z"/><path d="m177.055 295.41c2.304 3.683 6.273 5.882 10.617 5.882h44.692v23.914c0 6.906 5.618 12.524 12.525 12.524h22.968c6.906 0 12.525-5.618 12.525-12.524v-23.914h43.947c4.344 0 8.313-2.199 10.617-5.882 2.304-3.684 2.545-8.214.645-12.121l-21.561-44.331c3.388-.677 6.35-2.725 8.201-5.759 2.293-3.76 2.456-8.342.439-12.256l-26.044-50.556c2.288-1.058 4.227-2.808 5.554-5.1 2.265-3.913 2.273-8.591.022-12.512l-35.34-61.544c-2.227-3.879-6.389-6.288-10.861-6.288s-8.634 2.41-10.861 6.288l-35.34 61.544c-2.251 3.921-2.244 8.598.021 12.512 1.327 2.292 3.266 4.042 5.554 5.1l-26.044 50.556c-2.017 3.914-1.853 8.496.439 12.256 1.85 3.035 4.812 5.082 8.201 5.759l-21.561 44.33c-1.9 3.908-1.66 8.439.645 12.122zm88.296 27.291h-17.958v-21.409h17.958zm-48.731-87.725c1.133-2.329.987-5.077-.387-7.273-1.374-2.195-3.781-3.529-6.371-3.529h-5.291l29.214-56.711c1.201-2.329 1.1-5.116-.264-7.353-1.364-2.238-3.795-3.603-6.416-3.603h-2.119l31.014-54.009 31.013 54.009h-2.119c-2.62 0-5.052 1.365-6.416 3.603-1.364 2.237-1.465 5.024-.264 7.353l29.214 56.711h-5.291c-2.59 0-4.997 1.334-6.371 3.529-1.374 2.196-1.52 4.944-.386 7.273l24.944 51.287h-128.648z"/></g></g></svg>