<svg id="Capa_1" enable-background="new 0 0 512 512" height="512" viewBox="0 0 512 512" width="512" xmlns="http://www.w3.org/2000/svg"><g><path d="m504.5 182.044-21.636 20h-453.2l-22.164-20v-47.896c0-10.923 8.855-19.778 19.778-19.778h457.444c10.923 0 19.778 8.855 19.778 19.778z" fill="#95d6a4"/><path d="m484.722 114.37h-23.493c10.923 0 19.778 8.855 19.778 19.778v67.896l23.493-20v-47.896c0-10.923-8.854-19.778-19.778-19.778z" fill="#78c2a4"/><path d="m504.5 182.044h-497v288.172c0 10.923 8.855 19.778 19.778 19.778h457.444c10.923 0 19.778-8.855 19.778-19.778z" fill="#f4fbff"/><path d="m481.007 182.044h-473.507v21.731h448.29c13.927 0 25.217 11.29 25.217 25.217v241.225c0 10.923-8.855 19.778-19.778 19.778h23.493c10.923 0 19.778-8.855 19.778-19.778v-288.173z" fill="#daf1f4"/><circle cx="256" cy="40.228" fill="#365e7d" r="18.272"/><g><path d="m343.587 140.707h-175.173c-4.143 0-7.5 3.357-7.5 7.5s3.357 7.5 7.5 7.5h175.173c4.143 0 7.5-3.357 7.5-7.5s-3.358-7.5-7.5-7.5z"/><path d="m77.754 225.42h-30.387c-4.143 0-7.5 3.357-7.5 7.5s3.357 7.5 7.5 7.5h30.387c4.143 0 7.5-3.357 7.5-7.5s-3.358-7.5-7.5-7.5z"/><path d="m142.234 225.42h-30.387c-4.143 0-7.5 3.357-7.5 7.5s3.357 7.5 7.5 7.5h30.387c4.143 0 7.5-3.357 7.5-7.5s-3.357-7.5-7.5-7.5z"/><path d="m206.714 225.42h-30.387c-4.143 0-7.5 3.357-7.5 7.5s3.357 7.5 7.5 7.5h30.387c4.143 0 7.5-3.357 7.5-7.5s-3.358-7.5-7.5-7.5z"/><path d="m271.193 225.42h-30.387c-4.143 0-7.5 3.357-7.5 7.5s3.357 7.5 7.5 7.5h30.387c4.143 0 7.5-3.357 7.5-7.5s-3.357-7.5-7.5-7.5z"/><path d="m335.674 225.42h-30.387c-4.143 0-7.5 3.357-7.5 7.5s3.357 7.5 7.5 7.5h30.387c4.143 0 7.5-3.357 7.5-7.5s-3.358-7.5-7.5-7.5z"/><path d="m400.153 225.42h-30.387c-4.143 0-7.5 3.357-7.5 7.5s3.357 7.5 7.5 7.5h30.387c4.143 0 7.5-3.357 7.5-7.5s-3.357-7.5-7.5-7.5z"/><path d="m464.633 225.42h-30.387c-4.143 0-7.5 3.357-7.5 7.5s3.357 7.5 7.5 7.5h30.387c4.143 0 7.5-3.357 7.5-7.5s-3.358-7.5-7.5-7.5z"/><path d="m77.754 276.297h-30.387c-4.143 0-7.5 3.357-7.5 7.5s3.357 7.5 7.5 7.5h30.387c4.143 0 7.5-3.357 7.5-7.5s-3.358-7.5-7.5-7.5z"/><path d="m142.234 276.297h-30.387c-4.143 0-7.5 3.357-7.5 7.5s3.357 7.5 7.5 7.5h30.387c4.143 0 7.5-3.357 7.5-7.5s-3.357-7.5-7.5-7.5z"/><path d="m206.714 276.297h-30.387c-4.143 0-7.5 3.357-7.5 7.5s3.357 7.5 7.5 7.5h30.387c4.143 0 7.5-3.357 7.5-7.5s-3.358-7.5-7.5-7.5z"/><path d="m271.193 276.297h-30.387c-4.143 0-7.5 3.357-7.5 7.5s3.357 7.5 7.5 7.5h30.387c4.143 0 7.5-3.357 7.5-7.5s-3.357-7.5-7.5-7.5z"/><path d="m335.674 276.297h-30.387c-4.143 0-7.5 3.357-7.5 7.5s3.357 7.5 7.5 7.5h30.387c4.143 0 7.5-3.357 7.5-7.5s-3.358-7.5-7.5-7.5z"/><path d="m400.153 276.297h-30.387c-4.143 0-7.5 3.357-7.5 7.5s3.357 7.5 7.5 7.5h30.387c4.143 0 7.5-3.357 7.5-7.5s-3.357-7.5-7.5-7.5z"/><path d="m464.633 276.297h-30.387c-4.143 0-7.5 3.357-7.5 7.5s3.357 7.5 7.5 7.5h30.387c4.143 0 7.5-3.357 7.5-7.5s-3.358-7.5-7.5-7.5z"/><path d="m77.754 327.174h-30.387c-4.143 0-7.5 3.357-7.5 7.5s3.357 7.5 7.5 7.5h30.387c4.143 0 7.5-3.357 7.5-7.5s-3.358-7.5-7.5-7.5z"/><path d="m142.234 327.174h-30.387c-4.143 0-7.5 3.357-7.5 7.5s3.357 7.5 7.5 7.5h30.387c4.143 0 7.5-3.357 7.5-7.5s-3.357-7.5-7.5-7.5z"/><path d="m206.714 327.174h-30.387c-4.143 0-7.5 3.357-7.5 7.5s3.357 7.5 7.5 7.5h30.387c4.143 0 7.5-3.357 7.5-7.5s-3.358-7.5-7.5-7.5z"/><path d="m271.193 327.174h-30.387c-4.143 0-7.5 3.357-7.5 7.5s3.357 7.5 7.5 7.5h30.387c4.143 0 7.5-3.357 7.5-7.5s-3.357-7.5-7.5-7.5z"/><path d="m335.674 327.174h-30.387c-4.143 0-7.5 3.357-7.5 7.5s3.357 7.5 7.5 7.5h30.387c4.143 0 7.5-3.357 7.5-7.5s-3.358-7.5-7.5-7.5z"/><path d="m400.153 327.174h-30.387c-4.143 0-7.5 3.357-7.5 7.5s3.357 7.5 7.5 7.5h30.387c4.143 0 7.5-3.357 7.5-7.5s-3.357-7.5-7.5-7.5z"/><path d="m464.633 327.174h-30.387c-4.143 0-7.5 3.357-7.5 7.5s3.357 7.5 7.5 7.5h30.387c4.143 0 7.5-3.357 7.5-7.5s-3.358-7.5-7.5-7.5z"/><path d="m77.754 378.05h-30.387c-4.143 0-7.5 3.357-7.5 7.5s3.357 7.5 7.5 7.5h30.387c4.143 0 7.5-3.357 7.5-7.5s-3.358-7.5-7.5-7.5z"/><path d="m142.234 378.05h-30.387c-4.143 0-7.5 3.357-7.5 7.5s3.357 7.5 7.5 7.5h30.387c4.143 0 7.5-3.357 7.5-7.5s-3.357-7.5-7.5-7.5z"/><path d="m206.714 378.05h-30.387c-4.143 0-7.5 3.357-7.5 7.5s3.357 7.5 7.5 7.5h30.387c4.143 0 7.5-3.357 7.5-7.5s-3.358-7.5-7.5-7.5z"/><path d="m271.193 378.05h-30.387c-4.143 0-7.5 3.357-7.5 7.5s3.357 7.5 7.5 7.5h30.387c4.143 0 7.5-3.357 7.5-7.5s-3.357-7.5-7.5-7.5z"/><path d="m335.674 378.05h-30.387c-4.143 0-7.5 3.357-7.5 7.5s3.357 7.5 7.5 7.5h30.387c4.143 0 7.5-3.357 7.5-7.5s-3.358-7.5-7.5-7.5z"/><path d="m400.153 378.05h-30.387c-4.143 0-7.5 3.357-7.5 7.5s3.357 7.5 7.5 7.5h30.387c4.143 0 7.5-3.357 7.5-7.5s-3.357-7.5-7.5-7.5z"/><path d="m464.633 378.05h-30.387c-4.143 0-7.5 3.357-7.5 7.5s3.357 7.5 7.5 7.5h30.387c4.143 0 7.5-3.357 7.5-7.5s-3.358-7.5-7.5-7.5z"/><path d="m77.754 428.927h-30.387c-4.143 0-7.5 3.357-7.5 7.5s3.357 7.5 7.5 7.5h30.387c4.143 0 7.5-3.357 7.5-7.5s-3.358-7.5-7.5-7.5z"/><path d="m142.234 428.927h-30.387c-4.143 0-7.5 3.357-7.5 7.5s3.357 7.5 7.5 7.5h30.387c4.143 0 7.5-3.357 7.5-7.5s-3.357-7.5-7.5-7.5z"/><path d="m206.714 428.927h-30.387c-4.143 0-7.5 3.357-7.5 7.5s3.357 7.5 7.5 7.5h30.387c4.143 0 7.5-3.357 7.5-7.5s-3.358-7.5-7.5-7.5z"/><path d="m484.723 106.87h-30.544c-1.268-1.033 9.624 4.67-173.028-86.492-15.345-7.651-34.237-8.008-50.301 0-182.728 91.2-171.76 85.459-173.028 86.492h-30.544c-15.041 0-27.278 12.237-27.278 27.278v336.068c0 15.041 12.237 27.278 27.278 27.278h457.444c15.041 0 27.277-12.237 27.277-27.278v-34.518c0-4.143-3.357-7.5-7.5-7.5s-7.5 3.357-7.5 7.5v34.518c0 6.771-5.508 12.278-12.277 12.278h-457.444c-6.771 0-12.278-5.508-12.278-12.278v-280.672h482v216.167c0 4.143 3.357 7.5 7.5 7.5s7.5-3.357 7.5-7.5v-271.563c0-15.041-12.236-27.278-27.277-27.278zm-217.951-66.642c0 5.94-4.832 10.772-10.772 10.772s-10.772-4.832-10.772-10.772c0-5.567 4.245-10.161 9.668-10.716.736-.019 1.472-.019 2.209 0 5.423.555 9.667 5.148 9.667 10.716zm-251.772 93.92c0-6.77 5.508-12.277 12.278-12.277h115.683c4.143 0 7.5-3.357 7.5-7.5s-3.357-7.5-7.5-7.5h-51.947l139.376-69.502c-1.709 15.41 10.411 28.631 25.61 28.631 15.214 0 27.317-13.238 25.61-28.631l139.376 69.501h-248.039c-4.143 0-7.5 3.357-7.5 7.5s3.357 7.5 7.5 7.5h311.775c6.77 0 12.277 5.508 12.277 12.277v40.396h-481.999z"/></g></g></svg>