<svg id="Capa_1" enable-background="new 0 0 512 512" height="512" viewBox="0 0 512 512" width="512" xmlns="http://www.w3.org/2000/svg"><g><g><g><path d="m479.838 270.651c20.222-39.473 7.26-87.846-29.988-111.919-2.224-44.295-37.635-79.707-81.931-81.93-24.073-37.249-72.446-50.21-111.919-29.989-39.473-20.222-87.845-7.26-111.919 29.989-44.295 2.224-79.707 37.635-81.93 81.93-37.249 24.073-50.21 72.446-29.989 111.919-20.222 39.473-7.26 87.845 29.989 111.919 2.224 44.295 37.635 79.707 81.93 81.93 24.073 37.249 72.446 50.21 111.919 29.989 39.473 20.222 87.845 7.26 111.919-29.989 44.295-2.224 79.707-37.635 81.931-81.93 37.248-24.073 50.21-72.446 29.988-111.919zm-223.841 122.13c-67.452 0-122.133-54.681-122.133-122.133s54.681-122.132 122.133-122.132 122.132 54.681 122.132 122.132c0 67.452-54.68 122.133-122.132 122.133z" fill="#36ce94"/><circle cx="256" cy="445.182" fill="#f7594e" r="17.537"/><circle cx="430.531" cy="291.446" fill="#f7594e" r="17.537"/><circle cx="374.441" cy="400.222" fill="#ffe08c" r="17.537"/><path d="m387.529 158.985c6.848-6.849 17.952-6.849 24.801 0s6.849 17.952 0 24.801c-6.849 6.848-17.952 6.848-24.801 0s-6.849-17.952 0-24.801z" fill="#ffe08c"/><circle cx="81.463" cy="291.446" fill="#f7594e" r="17.537"/><g fill="#ffe08c"><path d="m149.953 412.623c-6.849 6.849-17.952 6.849-24.801 0s-6.849-17.952 0-24.801c6.849-6.848 17.952-6.848 24.801 0 6.849 6.849 6.849 17.952 0 24.801z"/><circle cx="112.065" cy="171.386" r="17.537"/></g></g><path d="m479.838 270.651c20.222-39.473 7.26-87.846-29.988-111.919-2.224-44.295-37.635-79.707-81.931-81.93-24.073-37.249-72.446-50.21-111.919-29.989-39.473-20.222-87.845-7.26-111.919 29.989-44.295 2.224-79.707 37.635-81.93 81.93-37.249 24.073-50.21 72.446-29.989 111.919-20.222 39.473-7.26 87.845 29.989 111.919 2.224 44.295 37.635 79.707 81.93 81.93 24.073 37.249 72.446 50.21 111.919 29.989 39.473 20.222 87.845 7.26 111.919-29.989 44.295-2.224 79.707-37.635 81.931-81.93 37.248-24.073 50.21-72.446 29.988-111.919zm-223.841 122.13c-67.452 0-122.133-54.681-122.133-122.133s54.681-122.132 122.133-122.132 122.132 54.681 122.132 122.132c0 67.452-54.68 122.133-122.132 122.133z" fill="#36ce94"/><g fill="#36bf84"><path d="m255.997 130.515c-67.452 0-122.133 54.681-122.133 122.133 0 3.027.115 6.028.331 9 4.607-63.249 57.377-113.132 121.802-113.132 64.424 0 117.194 49.884 121.801 113.132.217-2.972.331-5.973.331-9 0-67.452-54.68-122.133-122.132-122.133z"/><path d="m367.919 446.501c-24.073 37.249-72.446 50.21-111.919 29.989-39.473 20.222-87.845 7.26-111.919-29.989-31.218-1.567-62.491-19.62-79.016-45.647 9.584 35.405 41.021 61.74 79.016 63.647 24.073 37.249 72.446 50.21 111.919 29.989 39.473 20.222 87.845 7.26 111.919-29.989 37.995-1.908 69.432-28.242 79.016-63.647-16.525 26.027-47.798 44.079-79.016 45.647z"/></g><circle cx="256" cy="445.182" fill="#f7594e" r="17.537"/><circle cx="430.531" cy="291.446" fill="#f7594e" r="17.537"/><circle cx="374.441" cy="400.222" fill="#ffe08c" r="17.537"/><path d="m387.529 158.985c6.848-6.849 17.952-6.849 24.801 0s6.849 17.952 0 24.801c-6.849 6.848-17.952 6.848-24.801 0s-6.849-17.952 0-24.801z" fill="#ffe08c"/><circle cx="81.463" cy="291.446" fill="#f7594e" r="17.537"/><path d="m149.953 412.623c-6.849 6.849-17.952 6.849-24.801 0s-6.849-17.952 0-24.801c6.849-6.848 17.952-6.848 24.801 0 6.849 6.849 6.849 17.952 0 24.801z" fill="#ffe08c"/><circle cx="112.065" cy="171.386" fill="#ffe08c" r="17.537"/><path d="m256 444.72c-6.39 0-11.966-3.43-15.031-8.537-1.581 2.634-2.506 5.705-2.506 9 0 9.685 7.852 17.537 17.537 17.537s17.537-7.852 17.537-17.537c0-3.295-.925-6.366-2.506-9-3.065 5.107-8.641 8.537-15.031 8.537z" fill="#ea4642"/><path d="m430.531 290.983c-6.39 0-11.966-3.429-15.031-8.537-1.581 2.634-2.506 5.705-2.506 9 0 9.685 7.851 17.537 17.537 17.537 9.685 0 17.537-7.852 17.537-17.537 0-3.295-.926-6.366-2.506-9-3.065 5.108-8.64 8.537-15.031 8.537z" fill="#ea4642"/><path d="m386.842 394.623c-6.849 6.849-17.952 6.849-24.801 0-1.042-1.042-1.906-2.191-2.631-3.4-4.039 6.737-3.176 15.594 2.631 21.4 6.849 6.849 17.952 6.849 24.801 0 5.806-5.806 6.67-14.663 2.631-21.4-.725 1.209-1.589 2.358-2.631 3.4z" fill="#f9d375"/><path d="m412.33 165.786c-6.848 6.849-17.952 6.849-24.801 0-1.042-1.042-1.906-2.191-2.631-3.4-4.039 6.737-3.175 15.594 2.631 21.4 6.848 6.849 17.952 6.849 24.801 0 5.807-5.806 6.67-14.663 2.631-21.4-.725 1.209-1.589 2.358-2.631 3.4z" fill="#f9d375"/><path d="m81.463 290.983c-6.39 0-11.966-3.429-15.031-8.537-1.581 2.634-2.506 5.705-2.506 9 0 9.685 7.852 17.537 17.537 17.537s17.537-7.852 17.537-17.537c0-3.295-.926-6.366-2.506-9-3.065 5.108-8.641 8.537-15.031 8.537z" fill="#ea4642"/><path d="m149.953 394.623c-6.849 6.849-17.952 6.849-24.801 0-1.042-1.042-1.906-2.191-2.631-3.4-4.04 6.737-3.176 15.594 2.631 21.4 6.849 6.849 17.952 6.849 24.801 0 5.806-5.806 6.67-14.663 2.631-21.4-.725 1.209-1.588 2.358-2.631 3.4z" fill="#f9d375"/><path d="m124.465 165.786c-6.849 6.849-17.952 6.849-24.801 0-1.042-1.042-1.906-2.191-2.631-3.4-4.039 6.737-3.175 15.594 2.631 21.4 6.849 6.849 17.952 6.849 24.801 0 5.806-5.806 6.67-14.663 2.631-21.4-.725 1.209-1.589 2.358-2.631 3.4z" fill="#f9d375"/><g><path d="m234.143 35.563h43.715v42.801h-43.715z" fill="#cb3541"/><path d="m234.143 35.563s-52.485-34.609-89.552-26.264c-42.041 9.464-28.199 102.244 3.403 111.001 27.669 7.667 86.149-41.936 86.149-41.936z" fill="#f7594e"/><path d="m234.142 78.363s-13.714 11.632-31.002 22.76c-42.356 70.41-46.247 172.786-46.247 172.786l42.348-28.572c10.715-72.452 56.759-166.974 56.759-166.974z" fill="#cb3541"/><path d="m234.142 78.363s-13.714 11.632-31.002 22.76c-42.356 70.41-46.247 172.786-46.247 172.786l42.348-28.572c10.715-72.452 56.759-166.974 56.759-166.974z" fill="#cb3541"/><path d="m158.348 254.93c-1.182 11.823-1.455 18.979-1.455 18.979l42.348-28.572c.986-6.671 2.275-13.53 3.797-20.484z" fill="#ba3243"/><path d="m277.858 35.563s52.485-34.609 89.551-26.264c42.041 9.464 28.199 102.244-3.403 111.001-27.669 7.667-86.149-41.936-86.149-41.936v-42.801z" fill="#f7594e"/><path d="m234.143 60.364h43.715v18h-43.715z" fill="#ba3243"/><path d="m147.994 102.299c-15.69-4.348-26.997-29.407-29.266-54.698-2.917 30.043 9.802 67.305 29.266 72.698 27.669 7.667 86.149-41.936 86.149-41.936v-18c0 .001-58.481 49.603-86.149 41.936z" fill="#ea4642"/><path d="m364.007 102.299c-27.669 7.667-86.149-41.936-86.149-41.936v18s58.48 49.603 86.149 41.936c19.463-5.394 32.182-42.655 29.266-72.698-2.269 25.291-13.576 50.35-29.266 54.698z" fill="#ea4642"/><path d="m277.858 78.363s13.714 11.632 31.002 22.76c42.356 70.41 46.247 172.786 46.247 172.786l-42.348-28.572c-10.715-72.452-56.759-166.974-56.759-166.974z" fill="#cb3541"/><path d="m353.652 254.93c1.182 11.823 1.455 18.979 1.455 18.979l-42.348-28.572c-.987-6.671-2.275-13.53-3.797-20.484z" fill="#ba3243"/></g></g><g><path d="m281.082 445.487c0-13.831-11.252-25.083-25.083-25.083s-25.083 11.252-25.083 25.083c0 13.83 11.252 25.082 25.083 25.082s25.083-11.252 25.083-25.082zm-35.138 0c0-5.545 4.511-10.055 10.055-10.055s10.055 4.511 10.055 10.055-4.511 10.055-10.055 10.055-10.055-4.511-10.055-10.055z"/><path d="m405.766 291.47c0 13.831 11.252 25.083 25.083 25.083s25.083-11.252 25.083-25.083c0-13.83-11.252-25.082-25.083-25.082s-25.083 11.252-25.083 25.082zm25.083-10.055c5.544 0 10.055 4.511 10.055 10.055 0 5.545-4.511 10.055-10.055 10.055s-10.055-4.511-10.055-10.055 4.511-10.055 10.055-10.055z"/><path d="m356.921 382.709c-9.779 9.779-9.779 25.693 0 35.472 4.89 4.89 11.314 7.335 17.736 7.335 6.423 0 12.847-2.445 17.736-7.335 9.779-9.78 9.779-25.693-.001-35.473-9.779-9.778-25.69-9.779-35.471.001zm27.791 17.736c0 2.686-1.046 5.211-2.946 7.11-3.919 3.92-10.3 3.92-14.219 0-1.9-1.9-2.946-4.425-2.946-7.11 0-2.686 1.046-5.211 2.945-7.11 1.961-1.961 4.536-2.94 7.111-2.94s5.15.98 7.11 2.94c1.899 1.899 2.945 4.424 2.945 7.11z"/><path d="m382.455 153.455c-9.779 9.78-9.779 25.692 0 35.472 4.89 4.89 11.314 7.335 17.736 7.335 6.423 0 12.847-2.445 17.736-7.335 9.78-9.78 9.78-25.692 0-35.472-9.779-9.779-25.692-9.779-35.472 0zm24.846 24.846c-3.919 3.92-10.3 3.92-14.219 0-3.921-3.921-3.921-10.299 0-14.22 1.96-1.96 4.535-2.94 7.11-2.94s5.15.98 7.11 2.94c3.92 3.921 3.92 10.3-.001 14.22z"/><path d="m56.062 291.47c0 13.831 11.252 25.083 25.083 25.083s25.083-11.252 25.083-25.083c0-13.83-11.252-25.082-25.083-25.082s-25.083 11.252-25.083 25.082zm35.138 0c0 5.545-4.511 10.055-10.055 10.055s-10.055-4.511-10.055-10.055 4.511-10.055 10.055-10.055 10.055 4.511 10.055 10.055z"/><path d="m137.337 425.516c6.423 0 12.847-2.445 17.736-7.335 9.779-9.78 9.779-25.693-.001-35.473-9.779-9.778-25.69-9.779-35.472.001-9.779 9.779-9.779 25.693 0 35.472 4.89 4.89 11.314 7.335 17.737 7.335zm-7.111-32.181c1.961-1.961 4.536-2.94 7.111-2.94s5.15.98 7.11 2.94c1.9 1.899 2.946 4.424 2.946 7.111 0 2.686-1.046 5.211-2.946 7.11-3.919 3.92-10.3 3.92-14.219 0-1.9-1.9-2.946-4.425-2.946-7.11-.001-2.687 1.045-5.212 2.944-7.111z"/><path d="m129.538 153.455c-9.779-9.779-25.693-9.779-35.473 0-9.78 9.78-9.78 25.692 0 35.472 4.89 4.89 11.313 7.335 17.736 7.335s12.847-2.445 17.736-7.335c9.781-9.779 9.781-25.692.001-35.472zm-10.627 24.846c-3.919 3.92-10.3 3.92-14.219 0-3.921-3.921-3.921-10.299 0-14.22 1.96-1.96 4.535-2.94 7.11-2.94s5.15.98 7.11 2.94c3.921 3.921 3.921 10.3-.001 14.22z"/><path d="m488.602 270.639c19.149-41.319 6.08-90.094-31.162-116.303-1.609-17.822-8.188-34.639-19.146-48.849-10.16-13.177-23.434-23.302-38.667-29.57 1.353-7.513 1.979-15.167 1.801-22.462-.689-28.166-12.714-47.597-32.166-51.976-10.844-2.442-23.646-1.856-38.051 1.737-4.026 1.005-6.475 5.083-5.47 9.109 1.004 4.027 5.081 6.473 9.109 5.471 12.106-3.021 22.574-3.579 31.11-1.657 5.902 1.329 19.71 7.66 20.444 37.683.664 27.157-10.875 55.254-24.209 58.949-5.261 1.458-18.41 1.167-47.389-17.149-13.075-8.264-24.438-17.16-29.397-21.172v-35.16c4.324-2.613 12.459-7.28 22.428-11.81 3.778-1.716 5.449-6.171 3.732-9.949-1.716-3.777-6.169-5.449-9.949-3.732-12.376 5.623-21.967 11.347-25.913 13.808h-39.413c-10.249-6.413-57.516-34.243-93.56-26.129-19.452 4.379-31.477 23.81-32.166 51.977-.178 7.295.448 14.948 1.801 22.461-15.233 6.268-28.507 16.393-38.667 29.57-10.958 14.21-17.537 31.027-19.146 48.849-37.243 26.21-50.31 74.986-31.161 116.305-8.719 18.877-10.958 40.225-6.28 60.537.8 3.477 3.894 5.829 7.315 5.829.559 0 1.126-.063 1.694-.193 4.043-.931 6.567-4.965 5.635-9.008-4.17-18.107-1.798-37.194 6.679-53.743 1.103-2.151 1.103-4.701 0-6.851-18.574-36.257-6.78-80.273 27.435-102.386 2.029-1.312 3.304-3.52 3.425-5.934 1.491-29.698 19.958-56.195 46.767-68.192 5.828 17.901 16.06 32.767 29.722 36.553 2.548.706 5.269 1.031 8.126 1.031 9.286-.001 19.977-3.447 30.587-8.424-9.004 19.412-15.727 39.902-20.745 59.378-24.28 24.48-37.63 56.842-37.63 91.397 0 71.61 58.259 129.868 129.869 129.868s129.869-58.259 129.869-129.868c0-34.549-13.346-66.907-37.619-91.386-5.018-19.478-11.741-39.97-20.745-59.385 10.61 4.976 21.298 8.421 30.583 8.42 2.854-.001 5.579-.326 8.125-1.031 13.662-3.786 23.894-18.652 29.722-36.553 26.809 11.997 45.276 38.495 46.767 68.192.121 2.414 1.396 4.622 3.425 5.934 34.215 22.113 46.008 66.129 27.435 102.387-1.103 2.151-1.103 4.701 0 6.851 3.81 7.437 6.405 15.358 7.714 23.544.592 3.696 3.784 6.328 7.411 6.328.394 0 .794-.031 1.196-.095 4.097-.656 6.888-4.509 6.233-8.606-1.358-8.5-3.88-16.756-7.508-24.595zm-246.986-228.005h28.767v27.851h-28.767zm-91.813 70.137c-13.334-3.695-24.872-31.792-24.208-58.949.734-30.023 14.541-36.355 20.443-37.684 28.491-6.413 68.744 16.033 80.551 23.156v35.156c-4.96 4.012-16.322 12.907-29.397 21.171-28.98 18.317-42.128 18.607-47.389 17.15zm58.733-6.497c12.877-8.365 23.515-16.825 28.291-20.761h7.366c-4.626 10.124-11.903 26.599-19.592 46.157-16.68 42.429-27.568 79.147-32.389 109.216l-26.871 18.13c2.854-30.474 12.508-100.637 43.195-152.742zm47.465-10.39c4.931 10.967 12.012 27.33 19.353 46.347-12.798-1.904-25.906-1.905-38.703-.002 7.34-19.015 14.419-35.378 19.35-46.345zm114.837 174.75c0 63.324-51.518 114.841-114.842 114.841s-114.842-51.518-114.842-114.841c0-20.402 5.263-39.941 15.151-57.118-5.966 33.182-7.023 58.031-7.101 60.1-.108 2.827 1.382 5.476 3.856 6.851 1.139.634 2.396.948 3.652.948 1.471 0 2.937-.431 4.202-1.285l42.425-28.624c1.75-1.18 2.922-3.042 3.23-5.129 4.146-28.036 13.794-59.691 23.945-87.736 16.673-3.768 34.297-3.768 50.975.003 10.148 28.038 19.792 59.688 23.939 87.734.308 2.088 1.481 3.949 3.23 5.129l42.426 28.624c1.265.854 2.732 1.285 4.202 1.285 1.255 0 2.513-.314 3.652-.948 2.473-1.376 3.963-4.024 3.856-6.851-.078-2.069-1.135-26.908-7.097-60.081 9.882 17.173 15.141 36.704 15.141 57.098zm-24.184-11.622-26.866-18.126c-4.821-30.069-15.709-66.787-32.39-109.216-7.689-19.558-14.965-36.033-19.591-46.157h7.366c4.777 3.937 15.416 12.399 28.294 20.765 30.649 52.049 40.321 122.245 43.187 152.734z"/><path d="m489.617 319.158c-4.081-.794-8.017 1.872-8.807 5.946-4.135 21.328-16.454 39.563-34.686 51.346-2.029 1.312-3.304 3.52-3.425 5.934-2.043 40.687-34.265 72.909-74.953 74.952-2.414.121-4.622 1.396-5.934 3.426-22.113 34.214-66.131 46.008-102.386 27.435-2.152-1.103-4.7-1.103-6.852 0-36.258 18.573-80.274 6.779-102.386-27.435-1.312-2.03-3.52-3.305-5.934-3.426-40.687-2.042-72.91-34.264-74.953-74.952-.121-2.414-1.396-4.622-3.425-5.934-9.46-6.114-17.341-13.978-23.423-23.373-2.256-3.484-6.908-4.479-10.391-2.224-3.483 2.256-4.479 6.908-2.224 10.391 6.555 10.126 14.86 18.756 24.721 25.696 4.076 45.358 39.78 81.062 85.139 85.139 18.109 25.733 46.984 39.924 76.736 39.922 13.308-.001 26.795-2.841 39.565-8.759 12.772 5.919 26.255 8.759 39.565 8.759 29.749 0 58.629-14.191 76.736-39.922 45.359-4.077 81.063-39.78 85.139-85.138 19.963-14.044 33.444-34.846 38.123-58.975.791-4.075-1.871-8.018-5.945-8.808z"/></g></g></svg>