<svg id="Capa_1" enable-background="new 0 0 512.523 512.523" height="512" viewBox="0 0 512.523 512.523" width="512" xmlns="http://www.w3.org/2000/svg"><g><circle cx="175.349" cy="224.6" fill="#5766cb" r="167.849"/><path d="m343.198 224.6c0-92.7-75.149-167.849-167.849-167.849-3.774 0-7.516.137-11.228.383 79.431 5.248 143.571 65.66 154.853 143.046 2.247 15.413-9.81 29.205-25.386 29.205h-17.089c-10.408 0-19.696 4.881-25.697 12.474-9.188 11.626-23.182 18.419-38 18.419h-5.204c-59.932 0-109.047 48.268-109.487 107.597-.014 1.955.041 3.902.131 5.846 109.832 56.909 244.956-21.935 244.956-149.121z" fill="#3d4fc3"/><circle cx="175.349" cy="224.6" fill="#f4fbff" r="128.846"/><path d="m304.195 224.6c0-71.16-57.686-128.846-128.846-128.846-4.231 0-8.413.21-12.54.609 60.164 5.812 108.664 53.198 115.478 113.562 1.069 9.47-4.69 18.234-13.601 21.612-4.592 1.74-9.607 4.856-13.952 10.409-8.911 11.39-22.333 18.332-36.794 18.332h-6.342c-47.317 0-87.885 30.091-103.086 71.954 17.059 11.25 36.953 18.538 58.376 20.597-.026.002-.052.006-.079.008 76.272 7.349 141.386-52.449 141.386-128.237z" fill="#daf1f4"/><path d="m418.149 282.026h-211.953c-47.902 0-87.607 38.315-87.962 86.216-.358 48.281 38.673 87.532 86.872 87.532 32.862 0 61.462-18.247 76.222-45.161 6.051-11.034 17.715-17.814 30.299-17.814 12.561 0 24.237 6.738 30.269 17.757 14.531 26.545 42.52 44.674 74.789 45.207 47.457.784 87.196-37.315 88.314-84.766 1.152-48.938-38.174-88.971-86.85-88.971z" fill="#f4fbff"/><g fill="#daf1f4"><path d="m285.146 392.798c-12.585 0-24.248 6.78-30.299 17.814-12.744 23.238-35.808 40.002-63.021 44.153 4.33.664 8.765 1.009 13.28 1.009 32.862 0 61.462-18.247 76.222-45.162 3.834-6.991 9.923-12.265 17.069-15.199-4.141-1.698-8.635-2.615-13.251-2.615z"/><path d="m418.149 282.026h-26.481c48.676 0 88.002 40.033 86.849 88.97-1.001 42.482-32.959 77.463-73.697 83.762 3.876.597 7.837.938 11.864 1.004 47.457.784 87.196-37.315 88.314-84.766 1.153-48.938-38.173-88.97-86.849-88.97z"/></g><circle cx="387.701" cy="346.046" fill="#5766cb" r="20.351"/><path d="m387.701 325.695c-2.917 0-5.684.624-8.192 1.729 7.157 3.153 12.159 10.299 12.159 18.622s-5.002 15.468-12.159 18.622c2.508 1.105 5.275 1.729 8.192 1.729 11.24 0 20.352-9.111 20.352-20.351-.001-11.24-9.112-20.351-20.352-20.351z" fill="#3d4fc3"/><circle cx="434.484" cy="392.829" fill="#dd636e" r="20.351"/><path d="m434.484 372.478c-2.91 0-5.672.621-8.176 1.722 7.166 3.149 12.176 10.3 12.176 18.63s-5.01 15.48-12.176 18.63c2.504 1.1 5.265 1.722 8.176 1.722 11.24 0 20.351-9.112 20.351-20.352.001-11.241-9.111-20.352-20.351-20.352z" fill="#da4a54"/><path d="m357.407 282.026h-91.559v-21.131c0-5.622 4.557-10.179 10.179-10.179h71.202c5.622 0 10.179 4.557 10.179 10.179v21.131z" fill="#365e7d"/><path d="m347.229 250.716h-28.486c5.622 0 10.179 4.557 10.179 10.179v21.131h28.486v-21.131c-.001-5.622-4.558-10.179-10.179-10.179z" fill="#2b4d66"/><g><path d="m175.349 136.992c4.142 0 7.5-3.357 7.5-7.5v-8.658c0-4.143-3.358-7.5-7.5-7.5s-7.5 3.357-7.5 7.5v8.658c0 4.143 3.358 7.5 7.5 7.5z"/><path d="m247.903 162.652 6.122-6.122c2.929-2.93 2.929-7.678 0-10.607-2.929-2.928-7.678-2.928-10.606 0l-6.122 6.122c-2.929 2.93-2.929 7.678 0 10.607 2.93 2.929 7.678 2.928 10.606 0z"/><path d="m270.457 232.1h8.658c4.143 0 7.5-3.357 7.5-7.5s-3.357-7.5-7.5-7.5h-8.658c-4.143 0-7.5 3.357-7.5 7.5s3.357 7.5 7.5 7.5z"/><path d="m96.672 303.277c2.93 2.929 7.678 2.928 10.606 0l6.122-6.122c2.929-2.93 2.929-7.678 0-10.607-2.929-2.928-7.678-2.928-10.606 0l-6.122 6.122c-2.929 2.929-2.929 7.677 0 10.607z"/><path d="m87.741 224.6c0-4.143-3.358-7.5-7.5-7.5h-8.658c-4.142 0-7.5 3.357-7.5 7.5s3.358 7.5 7.5 7.5h8.658c4.142 0 7.5-3.358 7.5-7.5z"/><path d="m102.794 162.652c2.93 2.929 7.678 2.928 10.606 0 2.929-2.93 2.929-7.678 0-10.607l-6.122-6.122c-2.929-2.928-7.678-2.928-10.606 0-2.929 2.93-2.929 7.678 0 10.607z"/><path d="m167.849 227.118c0 6.998 8.71 10.131 13.203 4.871l22.132-25.909c2.69-3.149 2.318-7.884-.831-10.573-3.148-2.691-7.883-2.318-10.574.831l-8.93 10.453v-37.633c0-4.143-3.358-7.5-7.5-7.5s-7.5 3.357-7.5 7.5z"/><path d="m190.775 344.103 7.833-7.814 7.833 7.814c2.927 2.921 7.677 2.924 10.606-.013 2.925-2.933 2.92-7.682-.013-10.606l-13.13-13.099c-2.928-2.92-7.666-2.92-10.594 0l-13.13 13.099c-2.933 2.925-2.938 7.674-.013 10.606 2.926 2.933 7.675 2.937 10.608.013z"/><path d="m234.787 384.824 13.098-13.13c2.92-2.928 2.92-7.666 0-10.594l-13.098-13.131c-2.925-2.932-7.674-2.94-10.607-.013-2.933 2.925-2.938 7.674-.013 10.606l7.814 7.834-7.814 7.833c-2.925 2.933-2.92 7.682.013 10.606 2.928 2.923 7.678 2.926 10.607-.011z"/><path d="m196.576 415.675c1.464 1.46 3.38 2.19 5.297 2.19s3.833-.73 5.297-2.19l13.13-13.099c2.933-2.925 2.938-7.674.013-10.606-2.925-2.934-7.674-2.938-10.606-.013l-7.833 7.814-7.833-7.814c-2.933-2.927-7.682-2.922-10.606.013-2.925 2.933-2.92 7.682.013 10.606z"/><path d="m387.701 318.194c-15.357 0-27.852 12.494-27.852 27.852s12.494 27.852 27.852 27.852 27.852-12.494 27.852-27.852-12.495-27.852-27.852-27.852zm0 40.704c-7.086 0-12.852-5.766-12.852-12.852s5.766-12.852 12.852-12.852 12.852 5.766 12.852 12.852-5.766 12.852-12.852 12.852z"/><path d="m434.484 420.681c15.357 0 27.852-12.494 27.852-27.852s-12.494-27.852-27.852-27.852-27.852 12.494-27.852 27.852 12.494 27.852 27.852 27.852zm0-40.703c7.086 0 12.852 5.766 12.852 12.852s-5.766 12.852-12.852 12.852-12.852-5.766-12.852-12.852 5.766-12.852 12.852-12.852z"/><path d="m290.359 345.767c-4.143 0-7.5 3.357-7.5 7.5s3.357 7.5 7.5 7.5h7.593c4.143 0 7.5-3.357 7.5-7.5s-3.357-7.5-7.5-7.5z"/><path d="m325.303 360.767h7.593c4.143 0 7.5-3.357 7.5-7.5s-3.357-7.5-7.5-7.5h-7.593c-4.143 0-7.5 3.357-7.5 7.5s3.358 7.5 7.5 7.5z"/><path d="m176.3 351.222c-2.934-2.927-7.681-2.921-10.607.013l-13.098 13.131c-2.92 2.928-2.92 7.666 0 10.594l13.098 13.13c2.92 2.928 7.67 2.943 10.606.013 2.933-2.925 2.938-7.674.013-10.606l-7.814-7.833 7.814-7.834c2.927-2.934 2.921-7.683-.012-10.608z"/><path d="m336.599 307.582c0-4.143-3.357-7.5-7.5-7.5h-34.944c-4.143 0-7.5 3.357-7.5 7.5s3.357 7.5 7.5 7.5h34.944c4.143 0 7.5-3.357 7.5-7.5z"/><path d="m418.149 274.526h-53.242v-13.631c0-8.912-6.635-16.285-15.221-17.487.667-6.246 1.012-12.542 1.012-18.808 0-45.911-17.633-89.324-49.65-122.241-2.886-2.968-7.634-3.036-10.605-.146-2.969 2.888-3.035 7.636-.146 10.605 29.278 30.101 45.402 69.799 45.402 111.782 0 6.204-.362 12.441-1.076 18.616h-24.203c.84-6.155 1.275-12.385 1.275-18.616 0-75.182-61.165-136.346-136.346-136.346s-136.346 61.164-136.346 136.346c0 22.527 5.616 44.857 16.24 64.578 1.355 2.515 3.939 3.944 6.609 3.943 1.201 0 2.419-.289 3.551-.898 3.646-1.964 5.01-6.513 3.045-10.16-9.45-17.541-14.445-37.411-14.445-57.463 0-66.91 54.436-121.346 121.346-121.346s121.346 54.436 121.346 121.346c0 6.24-.478 12.478-1.422 18.616h-19.247c-9.747 0-17.678 7.931-17.678 17.679v13.631h-52.152c-39.197 0-73.088 23.641-87.739 57.253-12.681-6.764-24.26-15.842-33.807-26.578-2.753-3.095-7.493-3.372-10.589-.62-3.095 2.753-3.373 7.493-.62 10.589 11.433 12.856 24.907 23.251 40.113 30.98-2.146 8.503-3 16.867-2.784 25.25-57.743-25.414-95.77-82.978-95.77-146.8 0-88.417 71.932-160.349 160.349-160.349 33.657 0 65.872 10.314 93.161 29.828 3.367 2.409 8.054 1.634 10.463-1.738 2.409-3.369 1.631-8.054-1.738-10.463-29.849-21.345-65.081-32.627-101.886-32.627-96.688 0-175.349 78.661-175.349 175.349 0 72.703 45.128 137.98 112.745 163.821 3.69 17.641 12.377 33.862 25.38 46.962 44.514 44.844 119.517 34.017 149.779-21.164 4.709-8.587 13.799-13.921 23.723-13.921 9.934 0 19.011 5.311 23.69 13.858 26.684 48.744 90.182 64.581 136.653 32.106 3.396-2.372 4.225-7.048 1.852-10.443-2.371-3.395-7.048-4.226-10.443-1.852-39.088 27.313-92.454 13.996-114.903-27.015-7.313-13.357-21.433-21.655-36.849-21.655-15.402 0-29.532 8.318-36.875 21.708-25.507 46.513-88.608 55.46-125.98 17.81-49.792-50.161-13.556-135.29 57.425-135.29h211.953c44.525 0 80.407 36.545 79.352 81.293-.371 15.764-5.431 30.924-14.632 43.843-2.402 3.374-1.615 8.057 1.759 10.46 3.374 2.402 8.057 1.615 10.46-1.759 10.946-15.37 16.967-33.417 17.409-52.19 1.246-53.035-41.265-96.646-94.349-96.646zm-144.801 0v-13.631c0-1.477 1.201-2.679 2.678-2.679h71.202c1.477 0 2.679 1.202 2.679 2.679v13.631z"/></g></g></svg>