<svg id="Capa_1" enable-background="new 0 0 512 512" height="512" viewBox="0 0 512 512" width="512" xmlns="http://www.w3.org/2000/svg"><g><path d="m317.858 95.036h-123.715v-54.731c0-6.484 5.256-11.74 11.74-11.74h100.235c6.484 0 11.74 5.256 11.74 11.74z" fill="#dd636e"/><path d="m306.118 28.565h-20.352c6.484 0 11.74 5.256 11.74 11.74v54.731h20.352v-54.731c0-6.484-5.256-11.74-11.74-11.74z" fill="#da4a54"/><path d="m89.753 59.959-58.343 58.342-20.444-20.444c-4.621-4.621-4.621-12.112 0-16.733l41.61-41.61c4.621-4.621 12.112-4.621 16.733 0z" fill="#365e7d"/><path d="m422.248 59.959 58.342 58.342 20.444-20.444c4.621-4.621 4.621-12.112 0-16.733l-41.61-41.61c-4.621-4.621-12.112-4.621-16.733 0z" fill="#365e7d"/><path d="m496.126 133.837-89.413-89.414-.646.646c-26.195 26.195-64.182 36.301-100.156 27.454-15.99-3.932-32.706-6.019-49.91-6.019s-33.92 2.087-49.911 6.019c-35.974 8.847-73.961-1.259-100.156-27.454l-.646-.646-89.413 89.414 1.462 1.462c27.521 27.521 39.478 66.684 33.06 105.073-1.999 11.955-2.98 24.254-2.85 36.807 1.188 114.626 93.823 206.258 208.455 206.257 115.132-.001 208.464-93.333 208.464-208.465 0-11.996-1.015-23.755-2.962-35.196-6.456-37.929 5.354-76.669 32.56-103.875z" fill="#5766cb"/><g><path d="m496.126 133.837-89.413-89.413-.646.646c-4.379 4.379-9.094 8.298-14.068 11.764l65.602 65.602c6.297 6.297 6.297 16.505 0 22.802-22.324 22.324-31.706 54.465-25.005 85.317 3.108 14.312 4.746 29.172 4.746 44.415 0 110.586-86.112 201.044-194.938 208.016 4.496.287 9.027.449 13.598.449 115.132-.001 208.464-93.333 208.464-208.465 0-11.999-1.015-23.76-2.963-35.203-6.456-37.927 5.355-76.666 32.561-103.868z" fill="#3d4fc3"/></g><path d="m392.17 265.203c0 18.68-3.77 36.49-10.58 52.7-8.48 20.19-21.69 37.9-38.23 51.75-7.33 6.14-18.14 5.42-24.73-1.52-15.74-16.56-37.97-26.9-62.63-26.9s-46.9 10.34-62.64 26.91c-6.54 6.89-17.3 7.7-24.6 1.61-16.6-13.87-29.85-31.62-38.36-51.85-7.06-16.82-10.85-35.37-10.55-54.83.44-29.13 10.14-56.09 26.27-78.09 24.66-33.63 64.34-55.64 108.9-55.95 45.61-.32 86.08 21.79 111.03 55.95 16.43 22.5 26.12 50.22 26.12 80.22z" fill="#b1e4f9" stroke="#b1e4f9" stroke-miterlimit="10"/><g><path d="m366.05 184.983c-24.95-34.16-65.42-56.27-111.03-55.95-2.939.021-5.856.141-8.75.348 41.241 2.882 77.429 24.115 100.427 55.602 16.43 22.5 26.12 50.22 26.12 80.22 0 18.68-3.77 36.49-10.58 52.7-8.48 20.19-21.69 37.9-38.23 51.75-.596.5-1.222.937-1.861 1.346 6.498 4.109 15.073 3.798 21.214-1.346 16.54-13.85 29.75-31.56 38.23-51.75 6.81-16.21 10.58-34.02 10.58-52.7 0-30-9.69-57.72-26.12-80.22z" fill="#90d8f9"/></g><path d="m392.17 265.203c0 18.68-3.77 36.49-10.58 52.7h-251.19c-7.06-16.82-10.85-35.37-10.55-54.83.44-29.13 10.14-56.09 26.27-78.09h219.93c16.43 22.5 26.12 50.22 26.12 80.22z" fill="#f4fbff"/><path d="m366.05 184.983h-19.353c16.43 22.5 26.12 50.22 26.12 80.22 0 18.68-3.77 36.49-10.58 52.7h19.353c6.81-16.21 10.58-34.02 10.58-52.7 0-30-9.69-57.72-26.12-80.22z" fill="#daf1f4"/><g><path d="m512 89.491c0-5.164-2.011-10.019-5.661-13.67l-41.61-41.61c-7.539-7.537-19.801-7.535-27.34 0l-15.141 15.141-10.231-10.232c-1.407-1.406-3.314-2.196-5.304-2.196s-3.896.79-5.304 2.196l-.646.646c-20.096 20.098-47.36 30.078-75.404 28.21v-27.671c0-10.609-8.631-19.24-19.24-19.24h-100.236c-10.609 0-19.24 8.631-19.24 19.24v27.67c-28.043 1.866-55.308-8.113-75.404-28.209l-.646-.646c-1.407-1.406-3.314-2.196-5.304-2.196s-3.896.79-5.304 2.196l-10.232 10.231-15.142-15.141c-7.537-7.537-19.802-7.535-27.339 0l-41.609 41.611c-3.652 3.651-5.663 8.506-5.663 13.67s2.011 10.019 5.662 13.67l15.141 15.141-10.232 10.232c-1.406 1.407-2.196 3.315-2.196 5.305s.791 3.897 2.198 5.304l1.46 1.46c25.45 25.45 37.026 62.285 30.966 98.532-2.091 12.506-3.084 25.332-2.952 38.121.299 28.854 6.146 56.791 17.38 83.033 1.63 3.808 6.04 5.574 9.846 3.943 3.809-1.63 5.574-6.038 3.943-9.846-10.451-24.416-15.892-50.418-16.169-77.285-.124-11.912.801-23.854 2.747-35.493 6.553-39.192-5.155-79.031-31.396-107.687 16.287-16.288 59.192-59.192 79.029-79.03 12.849 11.402 28.264 19.747 44.951 24.284 14.431 3.923 29.591 4.93 44.487 3.037.073-.007.143-.019.215-.028 15.45-1.993 29.467-8.178 60.922-8.178 32.505 0 48.72 7.034 61.142 8.207 14.894 1.892 30.051.885 44.481-3.037 16.687-4.537 32.103-12.882 44.95-24.284 10.095 10.095 67.24 67.241 79.006 79.007-26.372 28.423-38.111 68.117-31.47 107.135 1.895 11.133 2.855 22.551 2.855 33.938 0 110.812-90.152 200.965-200.964 200.965-70.072.001-133.916-35.395-170.78-94.682-2.188-3.519-6.812-4.597-10.329-2.409-3.518 2.188-4.597 6.812-2.409 10.329 19.012 30.576 45.617 56.109 76.94 73.839 32.273 18.268 69.128 27.924 106.578 27.923 57.687 0 111.92-22.464 152.71-63.255 40.79-40.79 63.254-95.023 63.254-152.71 0-12.228-1.032-24.492-3.068-36.455-6.088-35.767 5.303-72.146 30.468-97.312l2.062-2.062c1.407-1.406 2.198-3.314 2.198-5.304s-.79-3.897-2.196-5.305l-10.232-10.232 15.141-15.141c3.65-3.652 5.661-8.506 5.661-13.67zm-495.731 3.062c-.819-.818-1.269-1.905-1.269-3.062s.45-2.244 1.27-3.062l41.61-41.61c.844-.845 1.953-1.267 3.062-1.267s2.219.422 3.062 1.267l15.141 15.14-47.735 47.736zm188.03-27.312c-.885.218-1.771.416-2.656.609v-25.545c0-2.338 1.902-4.24 4.24-4.24h100.235c2.338 0 4.24 1.902 4.24 4.24v25.545c-.886-.193-1.771-.392-2.656-.609-33.8-8.314-69.598-8.315-103.403 0zm291.432 27.312-15.141 15.141-47.736-47.737 15.14-15.14c1.689-1.689 4.438-1.689 6.126 0l41.61 41.61c.818.817 1.269 1.905 1.269 3.062s-.449 2.247-1.268 3.064z"/><path d="m277.668 394.738c4.143 0 7.5-3.357 7.5-7.5s-3.357-7.5-7.5-7.5h-43.335c-4.143 0-7.5 3.357-7.5 7.5s3.357 7.5 7.5 7.5z"/><path d="m196.833 423.907c0 4.143 3.357 7.5 7.5 7.5h103.335c4.143 0 7.5-3.357 7.5-7.5s-3.357-7.5-7.5-7.5h-103.335c-4.143 0-7.5 3.357-7.5 7.5z"/><path d="m304.091 212.136h-15.545c-4.143 0-7.5 3.357-7.5 7.5s3.357 7.5 7.5 7.5h8.045v65.228c0 4.143 3.357 7.5 7.5 7.5s7.5-3.357 7.5-7.5v-72.728c0-4.142-3.358-7.5-7.5-7.5z"/><path d="m340.07 212.136h-15.545c-4.143 0-7.5 3.357-7.5 7.5s3.357 7.5 7.5 7.5h8.045v65.228c0 4.143 3.357 7.5 7.5 7.5s7.5-3.357 7.5-7.5v-72.728c0-4.142-3.357-7.5-7.5-7.5z"/><path d="m244.421 212.136h-15.545c-4.143 0-7.5 3.357-7.5 7.5s3.357 7.5 7.5 7.5h8.045v65.228c0 4.143 3.357 7.5 7.5 7.5s7.5-3.357 7.5-7.5v-72.728c0-4.142-3.358-7.5-7.5-7.5z"/><path d="m192.961 210.652c-15.731 0-28.53 12.799-28.53 28.531v33.634c0 15.732 12.799 28.531 28.53 28.531 15.732 0 28.531-12.799 28.531-28.531v-33.634c0-15.732-12.799-28.531-28.531-28.531zm13.531 62.165c0 7.461-6.07 13.531-13.531 13.531s-13.53-6.07-13.53-13.531v-33.634c0-7.461 6.069-13.531 13.53-13.531s13.531 6.07 13.531 13.531z"/><path d="m270.755 227.395c-4.143 0-7.5 3.357-7.5 7.5v4.447c0 4.143 3.357 7.5 7.5 7.5s7.5-3.357 7.5-7.5v-4.447c0-4.143-3.358-7.5-7.5-7.5z"/><path d="m270.755 265.158c-4.143 0-7.5 3.357-7.5 7.5v4.448c0 4.143 3.357 7.5 7.5 7.5s7.5-3.357 7.5-7.5v-4.448c0-4.143-3.358-7.5-7.5-7.5z"/><path d="m251.658 164.455h8.684c4.143 0 7.5-3.357 7.5-7.5s-3.357-7.5-7.5-7.5h-8.684c-4.143 0-7.5 3.357-7.5 7.5s3.358 7.5 7.5 7.5z"/><path d="m109.27 102.922c-2.93-2.928-7.678-2.928-10.607 0-2.929 2.93-2.929 7.678 0 10.607l17.317 17.317c1.465 1.464 3.385 2.196 5.304 2.196s3.839-.732 5.304-2.196c2.929-2.93 2.929-7.678 0-10.607z"/><path d="m74.374 127.211c-2.929 2.93-2.929 7.678 0 10.607l17.317 17.317c1.465 1.464 3.385 2.196 5.304 2.196s3.839-.732 5.304-2.196c2.929-2.93 2.929-7.678 0-10.607l-17.317-17.317c-2.93-2.927-7.678-2.927-10.608 0z"/><path d="m402.73 102.922-17.317 17.317c-2.929 2.93-2.929 7.678 0 10.607 1.465 1.464 3.385 2.196 5.304 2.196s3.839-.732 5.304-2.196l17.317-17.317c2.929-2.93 2.929-7.678 0-10.607-2.93-2.927-7.678-2.927-10.608 0z"/><path d="m409.702 155.136c1.465 1.464 3.385 2.196 5.304 2.196s3.839-.732 5.304-2.196l17.317-17.317c2.929-2.93 2.929-7.678 0-10.607-2.93-2.928-7.678-2.928-10.607 0l-17.317 17.317c-2.93 2.929-2.93 7.678-.001 10.607z"/><path d="m255.97 121.53c-.332 0-.669.001-1.002.003-78.02.544-141.448 63.935-142.616 141.424-.68 44.061 18.581 84.964 51.604 112.555 4.682 3.906 10.419 5.826 16.155 5.826 6.821 0 13.642-2.714 18.687-8.029 15.054-15.848 35.369-24.575 57.203-24.575 21.824 0 42.136 8.725 57.19 24.563 9.315 9.812 24.681 10.735 34.984 2.106 31.915-26.724 51.495-66.528 51.495-110.2.001-80.552-65.659-143.673-143.7-143.673zm-.897 15.003c.3-.002.597-.003.896-.003 35.791 0 69.947 15.049 94.155 40.953h-188.04c24.031-25.631 57.789-40.705 92.989-40.95zm121.42 173.87h-43.642c-4.143 0-7.5 3.357-7.5 7.5s3.357 7.5 7.5 7.5h36.885c-7.781 14.645-18.418 27.805-31.192 38.5-4.245 3.554-10.604 3.145-14.479-.938-17.917-18.851-42.09-29.232-68.065-29.232-25.987 0-50.164 10.386-68.08 29.247-3.859 4.063-10.164 4.511-14.352 1.017-12.82-10.711-23.499-23.904-31.31-38.594h160.605c4.143 0 7.5-3.357 7.5-7.5s-3.357-7.5-7.5-7.5h-167.363c-5.656-15.062-8.402-30.919-8.151-47.217.384-25.416 8.215-49.774 22.659-70.703h212.14c14.736 21.448 22.522 46.502 22.522 72.72.001 15.591-2.754 30.77-8.177 45.2z"/></g></g></svg>