<svg id="Capa_1" enable-background="new 0 0 512 512" height="512" viewBox="0 0 512 512" width="512" xmlns="http://www.w3.org/2000/svg"><g><g><g><path d="m80.883 121.684c3.907 18.183 18.793 46.627 71.772 61.869v109.351c0 25.238 15.776 46.779 37.999 55.336v138.375c0 9.601 7.783 17.384 17.384 17.384s17.384-7.783 17.384-17.384v-134.42h106.586s7.711 26.46 36.487 44.31c7.137 4.427 11.391 12.311 11.391 20.71v69.4c0 9.601 7.783 17.384 17.385 17.384s17.384-7.783 17.384-17.384v-81.01c0-9.219-4.033-17.888-10.805-24.145-4.696-4.339-9.144-10.97-9.144-20.525 0-12.255 16.529-18.999 23.369-38.379 1.323-3.748 1.614-7.584 1.237-11.335 18.403-23.086 12.686-38.678 3.564-48.123-7.311-7.57-17.55-11.599-28.075-11.599h-169.379v-119.515c6.116-.053 12.978-1.915 19.481-5.67 14.63-8.447 21.897-23.25 16.231-33.065-5.666-9.814-22.12-10.923-36.75-2.476-6.539 3.775-11.601 8.821-14.701 14.123h-115.201c-8.84 0-15.456 8.145-13.599 16.788z" fill="#e4936b"/></g><g fill="#db835d"><path d="m190.653 333.564c0-1.977-1.171-3.753-2.974-4.563-20.643-9.273-35.024-30-35.024-54.096v18c0 25.238 15.776 46.779 37.999 55.336v-14.677z"/><path d="m244.903 108.314c-5.031 2.904-10.275 4.676-15.224 5.354-2.452.336-4.257 2.466-4.257 4.941v13.375c6.116-.053 12.978-1.915 19.481-5.67 14.63-8.447 21.897-23.25 16.231-33.065-.172-.299-.356-.589-.548-.871-2.947 5.954-8.402 11.732-15.683 15.936z"/><path d="m149.126 164.502c-43.624-13.465-60.114-36.102-66.173-53.463-2.019 2.988-2.904 6.763-2.07 10.645 3.907 18.183 18.793 46.627 71.772 61.869v-14.278c0-2.191-1.434-4.127-3.529-4.773z"/><path d="m397.271 486c-9.601 0-17.385-7.783-17.385-17.384v18c0 9.601 7.783 17.384 17.385 17.384s17.384-7.783 17.384-17.384v-18c0 9.601-7.783 17.384-17.384 17.384z"/><path d="m208.038 486c-9.601 0-17.384-7.783-17.384-17.384v18c0 9.601 7.783 17.384 17.384 17.384s17.384-7.783 17.384-17.384v-18c0 9.601-7.783 17.384-17.384 17.384z"/><path d="m379.886 399.216c0-8.399-4.255-16.283-11.392-20.71-22.739-14.106-32.324-33.588-35.345-41.141-.763-1.908-2.598-3.169-4.653-3.169h-98.074c-2.761 0-5 2.239-5 5v13h106.586s7.711 26.46 36.487 44.31c7.137 4.427 11.391 12.311 11.391 20.71z"/></g></g><g><path d="m167.058 125.642c-4.15 0-7.515 3.364-7.515 7.515 0 4.15 3.365 7.515 7.515 7.515h9.167c4.15 0 7.515-3.365 7.515-7.515s-3.364-7.515-7.515-7.515z"/><path d="m225.355 406.62c-4.15 0-7.515 3.365-7.515 7.515v72.932c0 5.461-4.443 9.904-9.904 9.904s-9.904-4.443-9.904-9.904v-138.645c0-3.108-1.914-5.896-4.814-7.013-19.893-7.66-33.259-27.123-33.259-48.431v-109.566c0-3.35-2.218-6.296-5.437-7.222-38.195-10.989-55.314-28.692-62.684-44.572 7.392-3.759 12.598-10.986 13.651-19.502h104.096c2.67 0 5.14-1.417 6.487-3.722 2.565-4.387 6.826-8.449 11.999-11.435 11.807-6.817 23.473-5.614 26.557-.27 3.085 5.343-1.706 16.047-13.512 22.864-5.145 2.97-10.766 4.631-15.828 4.675-4.124.036-7.449 3.389-7.449 7.514v43.228c0 4.15 3.365 7.515 7.515 7.515s7.515-3.365 7.515-7.515v-36.454c5.334-1.003 10.679-3.012 15.762-5.947 18.533-10.7 26.884-29.761 19.013-43.394-7.872-13.634-28.555-15.931-47.087-5.231-6.079 3.509-11.195 8.002-15.001 13.144h-5.145c2.699-29.4 22.071-33.685 52.702-40.424 4.645-1.021 9.448-2.078 14.372-3.278 46.159-11.249 38.89-47.111 38.811-47.472-.885-4.055-4.891-6.623-8.945-5.738-4.055.885-6.624 4.89-5.738 8.945.182.836 3.892 19.438-22.383 28.144v-17.447c0-4.15-3.364-7.515-7.515-7.515-4.15 0-7.515 3.365-7.515 7.515v21.213c-1.451.322-2.893.641-4.317.954-5.158 1.135-10.272 2.26-15.232 3.53v-16.388c0-4.15-3.364-7.515-7.515-7.515-4.15 0-7.515 3.365-7.515 7.515v21.067c-5.531 2.141-10.655 4.747-15.174 8.098l-8.951-11.504c-2.549-3.275-7.27-3.865-10.546-1.316s-3.865 7.27-1.316 10.546l10.303 13.241c-4.653 6.98-7.712 15.988-8.611 27.827h-91.167c-6.515 0-12.599 2.907-16.694 7.974-4.084 5.054-5.643 11.593-4.279 17.94 2.841 13.22 9.383 25.239 19.443 35.724 12.457 12.982 30.033 23.148 52.301 30.26v103.992c0 25.724 15.101 49.36 38.073 60.379v133.711c0 13.748 11.185 24.933 24.933 24.933s24.933-11.185 24.933-24.933v-72.932c0-4.149-3.364-7.514-7.514-7.514z"/><path d="m414.957 460.483c-4.15 0-7.515 3.365-7.515 7.515v19.069c0 5.461-4.443 9.904-9.904 9.904s-9.904-4.443-9.904-9.904v-69.536c0-11.011-5.735-21.408-14.967-27.135-25.832-16.025-33.242-39.902-33.305-40.114-.935-3.207-3.874-5.412-7.215-5.412h-106.792c-4.15 0-7.515 3.365-7.515 7.515v31.692c0 4.15 3.365 7.515 7.515 7.515s7.515-3.365 7.515-7.515v-24.177h94.083c3.999 9.363 14.6 28.881 37.793 43.268 4.848 3.007 7.861 8.512 7.861 14.364v69.536c0 13.748 11.185 24.933 24.933 24.933s24.933-11.185 24.933-24.933v-19.069c-.001-4.152-3.366-7.516-7.516-7.516z"/><path d="m428.6 257.893c-8.54-8.844-20.763-13.917-33.535-13.917h-162.196v-38.948c0-4.15-3.365-7.515-7.515-7.515s-7.515 3.365-7.515 7.515v46.463c0 4.15 3.365 7.515 7.515 7.515h169.71c8.717 0 17 3.4 22.724 9.328 7.096 7.348 8.334 15.972 3.696 26.146-2.5-3.759-6.104-7.589-11.305-10.834-3.523-2.197-8.156-1.124-10.354 2.397-2.197 3.521-1.124 8.156 2.397 10.354 9.503 5.93 9.912 15.318 9.924 15.688.3 2.984.023 5.634-.848 8.103-2.896 8.204-7.844 13.799-12.629 19.21-5.514 6.234-11.215 12.681-11.215 21.745 0 10.066 4.003 19.086 11.577 26.085 5.345 4.938 8.411 11.744 8.411 18.672v32.041c0 4.15 3.365 7.515 7.515 7.515s7.515-3.365 7.515-7.515v-32.041c0-11.107-4.826-21.936-13.241-29.711-4.477-4.137-6.747-9.2-6.747-15.046 0-3.209 2.829-6.57 7.444-11.789 5.201-5.881 11.673-13.199 15.543-24.164 1.275-3.609 1.882-7.461 1.815-11.484 20.917-27.968 9.924-46.898 1.314-55.813z"/></g></g></svg>