<svg id="Capa_1" enable-background="new 0 0 512 512" height="512" viewBox="0 0 512 512" width="512" xmlns="http://www.w3.org/2000/svg"><g><g><path d="m359.738 218.947-92.475 275.227c-4.402 13.102-22.934 13.102-27.336 0l-92.475-275.227z" fill="#36ce94"/><g fill="#f7594e"><path d="m184.022 327.787 108.84-108.84h-58.67l-64.925 64.925z"/><path d="m215.59 421.739 114.474-114.474 29.674-88.318h-.026l-158.878 158.877z"/><path d="m267.263 494.174 28.973-86.232-63.834 63.835 7.525 22.397c4.403 13.101 22.934 13.101 27.336 0z"/><circle cx="253.14" cy="162.331" r="19.799"/><circle cx="194.533" cy="90.14" r="19.799"/><circle cx="312.89" cy="83.581" r="19.8"/><circle cx="442.931" cy="27.799" r="19.8"/></g><path d="m253.14 164.13c-7.691 0-14.342-4.394-17.621-10.799-1.383 2.702-2.179 5.756-2.179 9 0 10.935 8.865 19.8 19.799 19.8 10.935 0 19.799-8.865 19.799-19.8 0-3.244-.796-6.298-2.179-9-3.277 6.406-9.928 10.799-17.619 10.799z" fill="#ea4642"/><path d="m194.533 91.94c-7.691 0-14.342-4.394-17.621-10.799-1.383 2.702-2.179 5.756-2.179 9 0 10.935 8.865 19.799 19.799 19.799 10.935 0 19.799-8.864 19.799-19.799 0-3.244-.796-6.298-2.179-9-3.277 6.405-9.928 10.799-17.619 10.799z" fill="#ea4642"/><path d="m312.89 85.381c-7.691 0-14.342-4.394-17.621-10.799-1.383 2.702-2.179 5.756-2.179 9 0 10.935 8.865 19.799 19.8 19.799s19.799-8.864 19.799-19.799c0-3.244-.796-6.298-2.179-9-3.278 6.405-9.929 10.799-17.62 10.799z" fill="#ea4642"/><path d="m442.931 29.599c-7.691 0-14.342-4.394-17.621-10.799-1.383 2.702-2.179 5.756-2.179 9 0 10.935 8.865 19.799 19.8 19.799s19.799-8.864 19.799-19.799c0-3.244-.796-6.298-2.179-9-3.278 6.405-9.929 10.799-17.62 10.799z" fill="#ea4642"/><path d="m65.888 98.808c-2.833 5.778-7.538 13.052-15.073 19.245-2.061 1.694-2.061 4.898 0 6.591 7.535 6.193 12.24 13.466 15.073 19.245 1.572 3.206 6.114 3.206 7.686 0 2.833-5.778 7.538-13.052 15.073-19.245 2.06-1.693 2.06-4.898 0-6.591-7.535-6.193-12.24-13.466-15.073-19.245-1.572-3.206-6.114-3.206-7.686 0z" fill="#ffe08c"/><path d="m406.72 144.936c-2.833 5.779-7.538 13.052-15.073 19.245-2.06 1.694-2.06 4.898 0 6.591 7.535 6.193 12.24 13.466 15.073 19.245 1.572 3.206 6.114 3.206 7.686 0 2.833-5.778 7.538-13.052 15.073-19.245 2.061-1.693 2.061-4.898 0-6.591-7.534-6.193-12.24-13.466-15.073-19.245-1.572-3.206-6.114-3.206-7.686 0z" fill="#ffe08c"/></g><g><path d="m359.941 211.36h-212.701c-2.419 0-4.69 1.164-6.101 3.128-1.412 1.964-1.792 4.487-1.022 6.78l92.656 275.765c3.055 9.092 11.227 14.967 20.818 14.967s17.763-5.875 20.818-14.967l92.656-275.765c.77-2.292.39-4.816-1.022-6.78s-3.683-3.128-6.102-3.128zm-36.294 91.94-62.297 62.297c-2.935 2.934-2.935 7.693 0 10.627 1.467 1.467 3.39 2.201 5.314 2.201 1.923 0 3.846-.734 5.314-2.201l40.915-40.915-23.138 68.865-54.137 54.137-11.5-34.227 26.605-26.605c2.935-2.935 2.935-7.693 0-10.627-2.934-2.935-7.692-2.935-10.627 0l-21.323 21.323-9.439-28.091 133.305-133.304zm-131.159 26.648 55.032-55.032c2.935-2.934 2.935-7.693 0-10.627s-7.693-2.934-10.627 0l-49.75 49.75-9.438-28.091 59.559-59.559h37.53l-16.645 16.645c-2.935 2.935-2.935 7.693 0 10.627 1.467 1.467 3.39 2.201 5.314 2.201 1.923 0 3.846-.734 5.314-2.201l27.272-27.273h45.727l-137.788 137.786zm23.52-103.559-43.65 43.65-14.666-43.65zm44.154 265.857c-1.473 4.384-5.402 4.725-6.571 4.725s-5.099-.341-6.572-4.725l-6.057-18.026 38.036-38.037z"/><path d="m253.135 189.501c15.082 0 27.353-12.271 27.353-27.353 0-15.083-12.271-27.353-27.353-27.353s-27.353 12.271-27.353 27.353 12.27 27.353 27.353 27.353zm0-39.677c6.795 0 12.323 5.528 12.323 12.324 0 6.795-5.528 12.324-12.323 12.324s-12.323-5.529-12.323-12.324c-.001-6.796 5.527-12.324 12.323-12.324z"/><path d="m194.413 117.168c15.082 0 27.353-12.271 27.353-27.353s-12.271-27.353-27.353-27.353c-15.083 0-27.353 12.271-27.353 27.353 0 15.083 12.27 27.353 27.353 27.353zm0-39.676c6.795 0 12.323 5.528 12.323 12.323s-5.528 12.323-12.323 12.323c-6.796 0-12.324-5.528-12.324-12.323 0-6.794 5.528-12.323 12.324-12.323z"/><path d="m313.001 110.597c15.082 0 27.353-12.271 27.353-27.353s-12.27-27.353-27.353-27.353-27.353 12.271-27.353 27.353 12.271 27.353 27.353 27.353zm0-39.676c6.795 0 12.323 5.528 12.323 12.323s-5.528 12.323-12.323 12.323-12.324-5.528-12.324-12.323c.001-6.795 5.529-12.323 12.324-12.323z"/><path d="m443.297 0c-15.083 0-27.353 12.271-27.353 27.353 0 15.083 12.271 27.353 27.353 27.353s27.353-12.271 27.353-27.353-12.271-27.353-27.353-27.353zm0 39.677c-6.796 0-12.324-5.528-12.324-12.324 0-6.795 5.528-12.324 12.324-12.324 6.795 0 12.323 5.528 12.323 12.324 0 6.795-5.528 12.324-12.323 12.324z"/><path d="m73.323 46.303c.574.482 57.656 49.153 81.17 134.459.919 3.333 3.943 5.519 7.24 5.519.661 0 1.333-.088 2.001-.272 4.001-1.103 6.35-5.241 5.248-9.242-24.815-90.024-83.526-139.91-86.013-141.99-3.183-2.659-7.914-2.237-10.578.942-2.663 3.179-2.245 7.918.932 10.584z"/><path d="m342.535 186.01c.669.184 1.34.272 2.001.272 3.297 0 6.321-2.187 7.24-5.519 14.233-51.638 40.415-89.67 59.873-112.481 2.693-3.158 2.317-7.901-.84-10.594-3.158-2.694-7.9-2.318-10.594.84-20.447 23.971-47.961 63.943-62.928 118.241-1.103 4 1.247 8.138 5.248 9.241z"/><path d="m345.5 47.138c1.142.623 2.375.918 3.591.918 2.66 0 5.239-1.416 6.604-3.915.091-.166 9.209-16.744 19.793-26.082 3.112-2.746 3.409-7.495.663-10.607-2.745-3.111-7.493-3.409-10.607-.663-12.594 11.112-22.624 29.386-23.045 30.159-1.985 3.643-.641 8.203 3.001 10.19z"/><path d="m130.782 18.059c10.531 9.292 19.612 25.752 19.791 26.078 1.363 2.503 3.943 3.921 6.606 3.921 1.214 0 2.447-.295 3.588-.917 3.644-1.985 4.99-6.549 3.004-10.194-.421-.772-10.451-19.046-23.045-30.159-3.112-2.745-7.861-2.449-10.607.663-2.746 3.114-2.449 7.862.663 10.608z"/><path d="m245.62 67.111c0 4.15 3.364 7.515 7.515 7.515 4.15 0 7.515-3.365 7.515-7.515 0-29.478-11.237-47.627-11.715-48.385-2.208-3.499-6.819-4.541-10.327-2.349-3.508 2.191-4.577 6.821-2.402 10.34.093.152 9.414 15.517 9.414 40.394z"/><path d="m93.091 111.978c-6.779-5.573-10.88-12.204-13.127-16.786-2.001-4.081-6.062-6.616-10.598-6.616-4.536.001-8.597 2.536-10.597 6.617-2.247 4.582-6.348 11.214-13.128 16.786-2.726 2.241-4.291 5.561-4.291 9.106 0 3.546 1.563 6.866 4.291 9.109 6.779 5.571 10.88 12.203 13.127 16.784 2 4.081 6.061 6.616 10.597 6.616h.001c4.536 0 8.597-2.535 10.598-6.616 2.246-4.582 6.347-11.213 13.127-16.785 2.727-2.242 4.292-5.562 4.291-9.109 0-3.546-1.564-6.866-4.291-9.106zm-23.725 23.087c-3.158-5.206-6.991-9.941-11.324-13.98 4.334-4.04 8.166-8.774 11.324-13.98 3.157 5.206 6.99 9.94 11.323 13.98-4.333 4.04-8.166 8.774-11.323 13.98z"/><path d="m434.59 158.196c-6.779-5.572-10.88-12.203-13.127-16.786-2.001-4.081-6.062-6.615-10.598-6.615-4.536.001-8.597 2.536-10.597 6.617-2.247 4.582-6.348 11.213-13.127 16.785-2.727 2.242-4.291 5.561-4.291 9.107s1.564 6.866 4.291 9.107c6.779 5.572 10.88 12.204 13.127 16.785 2 4.081 6.061 6.616 10.597 6.616 4.536 0 8.597-2.535 10.598-6.616 2.246-4.582 6.347-11.213 13.126-16.785 2.728-2.242 4.292-5.561 4.292-9.108.001-3.547-1.564-6.866-4.291-9.107zm-23.724 23.088c-3.158-5.207-6.99-9.94-11.323-13.981 4.334-4.04 8.165-8.774 11.323-13.98 3.158 5.206 6.99 9.94 11.323 13.98-4.334 4.041-8.166 8.775-11.323 13.981z"/></g></g></svg>