<svg id="Capa_1" enable-background="new 0 0 511.999 511.999" height="512" viewBox="0 0 511.999 511.999" width="512" xmlns="http://www.w3.org/2000/svg"><g><circle cx="213.044" cy="218.355" fill="#dd636e" r="205.544"/><path d="m418.588 218.355c0-113.519-92.025-205.544-205.545-205.544-4.622 0-9.204.168-13.75.469 102.32 6.76 184.171 88.382 191.282 190.605.483 6.946-5.209 12.689-12.17 12.541-1.067-.023-2.137-.034-3.21-.034-84.773 0-153.496 68.722-153.496 153.496 0 7.961.608 15.779 1.779 23.411 2.314 15.087-8.645 29.083-23.874 30.113-.104.007-.208.014-.312.021 4.546.3 9.128.469 13.75.469 114.192-.003 205.546-92.787 205.546-205.547z" fill="#da4a54"/><circle cx="213.044" cy="218.355" fill="#f4fbff" r="157.782"/><path d="m370.826 218.355c0-87.14-70.641-157.782-157.782-157.782-4.275 0-8.508.176-12.697.51 81.505 6.491 145.56 74.913 145.082 158.198-.003.004-.005.006-.009.01-66.577 13.089-116.233 68.597-122.944 134.833-1.154 11.386-10.071 20.493-21.476 21.45-.218.018-.435.036-.653.053 91.876 7.32 170.479-65.064 170.479-157.272z" fill="#daf1f4"/><circle cx="375.196" cy="369.886" fill="#eab14d" r="129.303"/><circle cx="375.196" cy="369.886" fill="#ffe07d" r="52.58"/><path d="m375.196 317.305c-4.036 0-7.959.47-11.734 1.331 23.388 5.334 40.846 26.246 40.846 51.25 0 25.003-17.458 45.916-40.846 51.25 3.775.861 7.698 1.331 11.734 1.331 29.039 0 52.58-23.541 52.58-52.58 0-29.041-23.541-52.582-52.58-52.582z" fill="#ffd064"/><path d="m375.196 240.582c-5.034 0-9.998.298-14.882.858 64.401 7.382 114.421 62.068 114.421 128.446s-50.02 121.064-114.421 128.446c4.884.56 9.848.858 14.882.858 71.412 0 129.303-57.891 129.303-129.303 0-71.414-57.891-129.305-129.303-129.305z" fill="#e49542"/><g><path d="m213.044 83.786c-4.143 0-7.5 3.357-7.5 7.5v10.603c0 4.143 3.357 7.5 7.5 7.5s7.5-3.357 7.5-7.5v-10.603c0-4.143-3.357-7.5-7.5-7.5z"/><path d="m300.702 141.304 7.497-7.497c2.929-2.93 2.929-7.678 0-10.607-2.93-2.928-7.678-2.928-10.607 0l-7.497 7.497c-2.929 2.93-2.929 7.678 0 10.607 2.93 2.929 7.677 2.928 10.607 0z"/><path d="m340.113 225.855c4.143 0 7.5-3.357 7.5-7.5s-3.357-7.5-7.5-7.5h-10.603c-4.143 0-7.5 3.357-7.5 7.5s3.357 7.5 7.5 7.5z"/><path d="m208.628 337.906v10.603c0 4.143 3.357 7.5 7.5 7.5s7.5-3.357 7.5-7.5v-10.603c0-4.143-3.357-7.5-7.5-7.5s-7.5 3.357-7.5 7.5z"/><path d="m117.889 313.51c2.931 2.929 7.678 2.928 10.607 0l7.497-7.497c2.929-2.93 2.929-7.678 0-10.607-2.93-2.928-7.678-2.928-10.607 0l-7.497 7.497c-2.929 2.93-2.929 7.678 0 10.607z"/><path d="m96.577 225.855c4.143 0 7.5-3.357 7.5-7.5s-3.357-7.5-7.5-7.5h-10.602c-4.143 0-7.5 3.357-7.5 7.5s3.357 7.5 7.5 7.5z"/><path d="m125.386 141.304c2.931 2.929 7.678 2.928 10.607 0 2.929-2.93 2.929-7.678 0-10.607l-7.497-7.497c-2.93-2.928-7.678-2.928-10.607 0-2.929 2.93-2.929 7.678 0 10.607z"/><path d="m205.544 213.939h-28.945c-4.143 0-7.5 3.357-7.5 7.5s3.357 7.5 7.5 7.5h36.445c4.143 0 7.5-3.357 7.5-7.5v-70.977c0-4.143-3.357-7.5-7.5-7.5s-7.5 3.357-7.5 7.5z"/><path d="m435.276 369.885c0-33.128-26.952-60.08-60.08-60.08-33.129 0-60.081 26.952-60.081 60.08 0 33.129 26.952 60.081 60.081 60.081 33.128 0 60.08-26.952 60.08-60.081zm-60.08 45.081c-24.857 0-45.081-20.224-45.081-45.081s20.224-45.08 45.081-45.08 45.08 20.223 45.08 45.08-20.222 45.081-45.08 45.081z"/><path d="m424.727 242.365c.899-7.993 1.361-16.043 1.361-24.01 0-54.785-20.758-106.842-58.449-146.582-2.851-3.006-7.599-3.131-10.603-.28-3.006 2.851-3.131 7.598-.28 10.603 35.036 36.941 54.332 85.332 54.332 136.26 0 6.388-.322 12.836-.945 19.258-10.405-2.751-21.291-4.302-32.503-4.5.439-4.924.686-9.861.686-14.759 0-91.137-74.146-165.282-165.282-165.282s-165.282 74.145-165.282 165.282c0 18.365 3 36.421 8.918 53.666 1.335 3.891 5.582 6.011 9.528 4.659 3.918-1.344 6.004-5.61 4.659-9.528-5.378-15.674-8.105-32.092-8.105-48.797 0-82.866 67.416-150.282 150.282-150.282s150.282 67.416 150.282 150.282c0 5.082-.273 10.212-.792 15.319-68.406 6.309-122.387 63.185-124.098 132.805-8.37 1.425-16.883 2.157-25.392 2.157-53.52 0-103.418-28.824-130.223-75.226-2.072-3.587-6.66-4.812-10.246-2.742-3.586 2.072-4.814 6.659-2.742 10.246 28.624 49.55 82.144 82.722 143.211 82.722 8.655 0 17.319-.679 25.857-2.022.949 11.128 3.227 21.884 6.69 32.098-10.734 1.775-21.644 2.687-32.547 2.687-109.202 0-198.044-88.842-198.044-198.044s88.842-198.045 198.044-198.045c44.857 0 87.16 14.624 122.335 42.292 3.254 2.56 7.971 1.997 10.531-1.258 2.562-3.256 1.998-7.971-1.258-10.531-37.844-29.769-83.354-45.503-131.608-45.503-117.473 0-213.044 95.571-213.044 213.045 0 117.473 95.571 213.044 213.044 213.044 12.841 0 25.696-1.164 38.3-3.453 21.879 46.484 69.166 78.743 123.853 78.743 28.346 0 55.544-8.599 78.654-24.866 3.387-2.384 4.2-7.062 1.815-10.45-2.384-3.386-7.062-4.201-10.45-1.815-20.569 14.479-44.781 22.132-70.02 22.132-66.269 0-121.804-53.717-121.804-121.803 0-67.163 54.641-121.804 121.804-121.804 67.162 0 121.803 54.641 121.803 121.804 0 29.821-10.896 58.521-30.68 80.812-2.75 3.098-2.467 7.838.631 10.588 3.099 2.749 7.839 2.467 10.588-.631 22.223-25.039 34.461-57.274 34.461-90.77 0-57.973-36.25-107.635-87.272-127.521z"/><path d="m382.696 291.099v-11.477c0-4.143-3.357-7.5-7.5-7.5s-7.5 3.357-7.5 7.5v11.477c0 4.143 3.357 7.5 7.5 7.5s7.5-3.357 7.5-7.5z"/><path d="m436.21 319.479 8.115-8.115c2.929-2.93 2.929-7.678 0-10.607-2.93-2.928-7.678-2.928-10.607 0l-8.115 8.115c-2.929 2.93-2.929 7.678 0 10.607 2.93 2.929 7.677 2.928 10.607 0z"/><path d="m453.982 377.385h11.477c4.143 0 7.5-3.357 7.5-7.5s-3.357-7.5-7.5-7.5h-11.477c-4.143 0-7.5 3.357-7.5 7.5s3.358 7.5 7.5 7.5z"/><path d="m433.718 439.015c2.931 2.929 7.678 2.928 10.607 0 2.929-2.93 2.929-7.678 0-10.607l-8.115-8.115c-2.93-2.928-7.678-2.928-10.607 0-2.929 2.93-2.929 7.678 0 10.607z"/><path d="m367.696 448.672v11.476c0 4.143 3.357 7.5 7.5 7.5s7.5-3.357 7.5-7.5v-11.476c0-4.143-3.357-7.5-7.5-7.5s-7.5 3.358-7.5 7.5z"/><path d="m316.675 439.014 8.114-8.115c2.929-2.929 2.929-7.678-.001-10.606-2.927-2.927-7.676-2.93-10.606.001l-8.114 8.115c-2.929 2.929-2.929 7.678.001 10.606 2.928 2.928 7.676 2.929 10.606-.001z"/><path d="m296.409 362.385h-11.476c-4.143 0-7.5 3.357-7.5 7.5s3.357 7.5 7.5 7.5h11.476c4.143 0 7.5-3.357 7.5-7.5s-3.357-7.5-7.5-7.5z"/><path d="m314.182 319.478c2.928 2.928 7.677 2.931 10.606.001 2.93-2.929 2.93-7.678.001-10.606l-8.114-8.115c-2.929-2.929-7.678-2.93-10.606-.001-2.93 2.929-2.93 7.678-.001 10.606z"/></g></g></svg>