<svg id="Capa_1" enable-background="new 0 0 512 512" height="512" viewBox="0 0 512 512" width="512" xmlns="http://www.w3.org/2000/svg"><g><g><g><path d="m150.698 349.223c0-106.325 112-194.232 112-194.232h129.302s112 87.907 112 194.232c0 92.093-64.465 125.581-176.651 125.581h-78.164z" fill="#e4936b"/><path d="m261.768 154.991h130.604c10.635 0 19.256-8.621 19.256-19.256 0-10.635-8.621-19.256-19.256-19.256h-130.604c-10.635 0-19.256 8.621-19.256 19.256 0 10.635 8.621 19.256 19.256 19.256z" fill="#ffe08c"/><path d="m392.372 136.991h-130.604c-7.382 0-13.786-4.158-17.018-10.256-1.424 2.687-2.238 5.747-2.238 9 0 10.635 8.621 19.256 19.256 19.256h130.604c10.635 0 19.256-8.621 19.256-19.256 0-3.253-.814-6.313-2.238-9-3.232 6.098-9.636 10.256-17.018 10.256z" fill="#f9d375"/><path d="m386.791 116.479h-118.884l-26.373-58.081c-4.509-9.931 2.751-21.202 13.658-21.202h144.314c10.907 0 18.167 11.271 13.658 21.202z" fill="#e4936b"/><path d="m259.734 98.479 8.173 18h118.884l8.173-18z" fill="#db835d"/></g><path d="m327.349 456.804h-78.164v18h78.164c112.186 0 176.651-33.488 176.651-125.581 0-2.832-.096-5.648-.25-8.453-4.38 84.865-68.184 116.034-176.401 116.034z" fill="#db835d"/><g><path d="m269.278 299.828h-246.278c-8.284 0-15-6.716-15-15v-21.07c0-8.284 6.716-15 15-15h246.278c8.284 0 15 6.716 15 15v21.07c0 8.284-6.715 15-15 15z" fill="#ffe08c"/><path d="m269.278 281.828h-246.278c-8.284 0-15-6.716-15-15v18c0 8.284 6.716 15 15 15h246.278c8.284 0 15-6.716 15-15v-18c0 8.284-6.715 15-15 15z" fill="#f9d375"/><path d="m249.185 474.804h-206.092c-8.284 0-15-6.716-15-15v-159.976h236.092v159.976c0 8.284-6.715 15-15 15z" fill="#ffe08c"/><path d="m249.185 456.804h-206.092c-8.284 0-15-6.716-15-15v18c0 8.284 6.716 15 15 15h206.092c8.284 0 15-6.716 15-15v-18c0 8.284-6.715 15-15 15z" fill="#f9d375"/><path d="m125.628 299.828h41.023v174.976h-41.023z" fill="#f7594e"/><path d="m125.628 456.804h41.023v18h-41.023z" fill="#ea4642"/><path d="m120.027 248.758h52.225v51.07h-52.225z" fill="#f7594e"/><path d="m120.027 281.828h52.225v18h-52.225z" fill="#ea4642"/><path d="m128.261 213.678h35.756v35.08h-35.756z" fill="#cb3541"/><path d="m128.261 213.678s-31.182-35.289-56.378-25.571c-26.047 10.047-7.814 60.651-7.814 60.651h64.192z" fill="#f7594e"/><path d="m164.017 213.678s31.182-35.289 56.378-25.571c26.046 10.047 7.814 60.651 7.814 60.651h-64.192z" fill="#f7594e"/><path d="m128.261 230.758h35.756v18h-35.756z" fill="#ba3243"/><g fill="#ea4642"><path d="m59.402 230.758c1.837 10.139 4.668 18 4.668 18h64.192v-18z"/><path d="m164.017 230.758v18h64.192s2.831-7.861 4.668-18z"/></g></g></g><path d="m454.261 207.481c-18.048-22.732-35.929-39.926-46.82-49.641 7.229-4.807 12.006-13.023 12.006-22.336 0-12.796-9.014-23.519-21.023-26.172l21.89-48.209c7.012-14.27-4.638-32.349-20.527-31.865h-144.596c-15.891-.484-27.537 17.597-20.527 31.865l21.839 48.097c-12.264 2.458-21.532 13.308-21.532 26.284 0 9.455 4.924 17.775 12.338 22.55-6.134 5.488-14.439 13.308-23.741 23.132-.18-.073-.36-.149-.538-.218-25.625-9.882-54.099 16.535-62.447 25.118h-29.316c-8.347-8.584-36.821-35.003-62.447-25.118-9.863 3.804-21.074 14.156-18.479 41.871.64 6.832 1.997 13.333 3.288 18.395h-31.085c-12.431 0-22.544 10.113-22.544 22.544v21.111c0 11.616 8.831 21.206 20.132 22.413v152.905c0 12.431 10.113 22.544 22.544 22.544h22.831c4.15 0 7.515-3.365 7.515-7.515s-3.365-7.515-7.515-7.515h-22.831c-4.144 0-7.515-3.371-7.515-7.515v-152.773h82.696v160.289h-22.291c-4.15 0-7.515 3.365-7.515 7.515s3.365 7.515 7.515 7.515h231.922c60.556 0 104.646-9.667 134.789-29.553 16.393-10.815 28.884-24.92 37.122-41.923 8.361-17.257 12.601-38.071 12.601-61.866 0-45.274-19.966-94.352-57.739-141.929zm-192.482-83.756h37.584c4.151 0 7.515-3.365 7.515-7.515s-3.364-7.515-7.515-7.515h-26.592l-24.423-53.787c-2.356-4.753 1.541-10.802 6.842-10.622h144.596c5.302-.18 9.197 5.869 6.842 10.621l-24.423 53.787h-52.784c-4.151 0-7.515 3.365-7.515 7.515s3.364 7.515 7.515 7.515h63.217c6.495 0 11.779 5.284 11.779 11.779s-5.284 11.779-11.779 11.779h-130.86c-6.495 0-11.778-5.284-11.778-11.779s5.284-11.778 11.779-11.778zm-126.253 97.39h20.796v20.119h-20.796zm-23.28 71.288h-89.702c-4.144 0-7.515-3.371-7.515-7.515v-21.111c0-4.144 3.371-7.515 7.515-7.515h89.702zm8.251-51.169h-.736-50.596c-4.105-14.097-8.761-40.912 5.063-46.244 15.456-5.962 37.061 11.968 46.269 21.552zm38.464 226.488h-26.074v-160.289h26.074zm5.612-175.319h-37.298v-36.141h37.298zm6.779-51.169v-24.692c9.207-9.584 30.812-27.515 46.269-21.552 13.773 5.313 9.141 32.141 5.055 46.244h-50.588zm2.639 66.199h26.707c4.15 0 7.515-3.365 7.515-7.515s-3.365-7.515-7.515-7.515h-21.095v-36.141h89.702c4.144 0 7.515 3.371 7.515 7.515v21.111c0 4.143-3.371 7.515-7.515 7.515h-38.548c-4.15 0-7.515 3.364-7.515 7.515 0 4.15 3.364 7.515 7.515 7.515h25.931v152.775c0 4.144-3.371 7.515-7.515 7.515h-75.182zm153.497 160.289h-57.065c.834-2.352 1.293-4.881 1.293-7.515v-152.905c11.3-1.208 20.132-10.797 20.132-22.413v-21.111c0-12.431-10.113-22.544-22.544-22.544h-31.083c1.291-5.062 2.648-11.563 3.287-18.395 1.466-15.658-1.476-25.772-6.09-32.296 13.905-14.577 25.504-24.535 29.965-28.23h124.211c6.791 5.63 30.1 25.744 53.111 54.784 24.755 31.242 54.266 79.559 54.266 132.314 0 81.823-52.27 118.311-169.483 118.311z"/></g></svg>