<svg id="Capa_1" enable-background="new 0 0 512 512" height="512" viewBox="0 0 512 512" width="512" xmlns="http://www.w3.org/2000/svg"><g><g><g fill="#36ce94"><path d="m349.252 242.627s-20.766-27.465-18.378-54.925 23.069-44.327 23.069-44.327-42.189-25.221-24.864-76.664c0 0-55.46.86-73.078-49.136-17.618 49.996-73.078 49.136-73.078 49.136 17.325 51.443-24.864 76.664-24.864 76.664s20.681 16.867 23.069 44.327-18.378 54.925-18.378 54.925l93.25 32.265z"/><path d="m359.464 261.135s12.791 31.968 37.537 44.108c24.746 12.139 49.871 3.144 49.871 3.144s-.197 49.153 52.801 60.89c0 0-29.384 47.044 4.326 87.955-51.91-10.739-79.821 37.193-79.821 37.193-35.099-41.407-78.487-18.31-78.487-18.31s-3.76-26.421-26.04-42.649c-22.279-16.229-56.524-12.634-56.524-12.634l20.541-96.514z"/><path d="m152.536 261.135s-12.791 31.968-37.537 44.108c-24.746 12.139-49.871 3.144-49.871 3.144s.197 49.153-52.801 60.89c0 0 29.384 47.044-4.326 87.955 51.91-10.739 79.821 37.193 79.821 37.193 35.099-41.407 78.487-18.31 78.487-18.31s3.76-26.421 26.04-42.649 56.524-12.634 56.524-12.634l-20.541-96.514z"/></g><circle cx="197.931" cy="274.892" fill="#f7594e" r="58.069"/><circle cx="314.069" cy="274.892" fill="#f7594e" r="58.069"/><circle cx="256" cy="375.529" fill="#f7594e" r="58.069"/><path d="m197.931 314.961c-29.009 0-53.046-21.273-57.372-49.069-.456 2.934-.697 5.939-.697 9 0 32.07 25.998 58.069 58.069 58.069 32.07 0 58.069-25.998 58.069-58.069 0-3.061-.24-6.066-.697-9-4.326 27.796-28.363 49.069-57.372 49.069z" fill="#ea4642"/><path d="m314.069 314.961c-29.009 0-53.046-21.273-57.372-49.069-.457 2.934-.697 5.939-.697 9 0 32.07 25.998 58.069 58.069 58.069 32.07 0 58.069-25.998 58.069-58.069 0-3.061-.241-6.066-.697-9-4.326 27.796-28.363 49.069-57.372 49.069z" fill="#ea4642"/><path d="m256 415.598c-29.009 0-53.046-21.273-57.372-49.069-.456 2.933-.697 5.938-.697 9 0 32.07 25.998 58.069 58.069 58.069s58.069-25.998 58.069-58.069c0-3.062-.241-6.067-.697-9-4.326 27.796-28.363 49.069-57.372 49.069z" fill="#ea4642"/></g><path d="m510.277 452.812c-12.422-15.076-16.908-32.839-13.332-52.796 2.763-15.424 9.513-26.474 9.572-26.569 2.783-4.191.192-10.366-4.748-11.318-46.316-10.257-47.006-51.901-47.013-53.64.152-5.034-5.321-8.911-10.024-7.113-.224.078-22.654 7.731-44.148-2.813-7.393-3.627-14.431-9.747-20.952-18.199.149-1.803.245-3.622.245-5.464 0-25.691-14.832-47.971-36.375-58.764-4.041-10.177-5.725-19.568-4.997-27.943 2.074-23.851 20.214-39.104 20.377-39.24 3.983-3.079 3.5-9.765-.869-12.258-1.511-.919-36.812-23.02-21.671-67.977 1.737-4.72-2.223-10.09-7.22-9.913-.112-.01-13.074.075-27.712-5.527-18.935-7.247-31.828-20.263-38.321-38.688-2.071-6.571-12.103-6.569-14.174 0-6.493 18.425-19.386 31.441-38.321 38.688-14.626 5.597-27.587 5.524-27.695 5.528-5.062-.193-8.962 5.179-7.238 9.912 2.749 8.161 4.013 16.092 3.757 23.573-.141 4.148 3.107 7.625 7.254 7.766 4.136.138 7.626-3.106 7.767-7.254.217-6.378-.435-12.96-1.94-19.654 5.984-.754 14.146-2.333 22.915-5.626 17.706-6.65 31.498-17.875 40.587-32.877 9.089 15.002 22.881 26.227 40.587 32.877 8.769 3.293 16.93 4.871 22.915 5.626-5.583 24.829 1.727 43.397 9.386 55.035 4.565 6.936 9.721 12.17 13.828 15.726-7.071 7.988-17.438 22.884-19.185 42.982-.64 7.36.115 15.177 2.236 23.357-3.765-.673-7.632-1.044-11.587-1.044-20.38 0-38.61 9.337-50.666 23.951v-119.839c0-4.15-3.364-7.514-7.514-7.514s-7.514 3.364-7.514 7.514v119.839c-12.056-14.614-30.285-23.951-50.666-23.951-3.955 0-7.823.371-11.587 1.044 2.121-8.18 2.876-15.997 2.236-23.358-1.747-20.098-12.114-34.993-19.185-42.98 4.65-4.026 10.643-10.204 15.61-18.576 2.117-3.569.941-8.179-2.628-10.297-3.569-2.117-8.179-.942-10.297 2.629-7.424 12.515-17.875 18.965-17.954 19.014-4.41 2.471-4.898 9.189-.894 12.273.183.149 18.284 15.17 20.377 39.239.728 8.375-.957 17.766-4.997 27.943-21.543 10.793-36.375 33.073-36.375 58.764 0 1.843.076 3.674.225 5.49-6.515 8.439-13.546 14.551-20.932 18.174-21.496 10.543-43.925 2.891-44.125 2.821-4.696-1.82-10.169 2.046-10.048 7.076-.007 1.768-.697 43.412-47.013 53.669-4.927.955-7.514 7.11-4.757 11.302.067.11 6.818 11.161 9.581 26.584 3.576 19.957-.91 37.72-13.332 52.796-4.555 5.169.624 13.754 7.322 12.137 19.128-3.956 36.934.359 52.92 12.829 12.355 9.638 18.982 20.763 19.039 20.859 2.412 4.413 9.07 5.009 12.226 1.078 30.676-36.187 67.834-17.376 69.375-16.571 4.386 2.484 10.364-.552 10.967-5.55.035-.235 3.727-23.645 23.079-37.741 6.003-4.373 13.722-7.544 22.944-9.47 10.428 6.97 22.949 11.043 36.405 11.043 13.457 0 25.977-4.073 36.405-11.043 9.222 1.926 16.94 5.097 22.944 9.471 19.352 14.095 23.043 37.506 23.076 37.716.572 5.022 6.577 8.073 10.97 5.574.092-.048 9.5-4.882 22.449-5.491 4.145-.195 7.348-3.713 7.153-7.859-.196-4.146-3.697-7.359-7.86-7.153-8.056.379-14.997 2.051-20.046 3.693-3.187-10.181-10.587-26.751-26.893-38.628-5.258-3.83-11.403-6.921-18.353-9.254 9.867-11.496 15.849-26.418 15.849-42.721 0-7.682-1.34-15.052-3.779-21.907l100.282 60.495c3.495 2.125 8.159 1.032 10.316-2.553 2.144-3.554 1.001-8.172-2.553-10.316l-102.076-61.577c23.663-3.52 43.235-19.706 51.606-41.417 5.803 5.86 11.982 10.416 18.473 13.6 18.111 8.885 36.221 7.703 46.713 5.774.923 5.354 2.742 12.473 6.323 19.964 6.009 12.57 18.132 28.42 42.276 36.465-2.445 5.514-5.31 13.318-7.019 22.527-3.451 18.596-.965 36.204 7.187 51.735-17.541.033-34.276 6.045-49.115 17.771-7.349 5.807-12.917 11.981-16.654 16.716-5.719-5.481-11.895-9.904-18.44-13.2-3.705-1.867-8.225-.374-10.091 3.332-1.867 3.707-.375 8.225 3.332 10.091 7.321 3.686 14.149 9.232 20.296 16.483 3.156 3.932 9.814 3.335 12.226-1.078.252-.433 25.78-43.238 71.959-33.688 6.696 1.619 11.871-6.969 7.318-12.136zm-322.475-25.107c-16.307 11.878-23.707 28.449-26.894 38.629-5.167-1.68-12.312-3.392-20.609-3.718-13.915-.551-33.596 2.784-51.973 20.391-3.738-4.735-9.305-10.909-16.654-16.716-14.841-11.727-31.573-17.739-49.115-17.771 8.151-15.531 10.638-33.139 7.187-51.735-1.709-9.209-4.574-17.013-7.019-22.527 24.144-8.044 36.267-23.895 42.276-36.465 3.581-7.491 5.4-14.61 6.323-19.964 10.496 1.928 28.606 3.109 46.713-5.774 6.477-3.177 12.643-7.719 18.435-13.561 2.226 5.779 5.288 11.252 9.145 16.294 2.521 3.296 7.238 3.925 10.534 1.402 3.296-2.521 3.924-7.237 1.403-10.534-6.804-8.893-10.4-19.529-10.4-30.757 0-27.937 22.729-50.666 50.667-50.666 27.937 0 50.666 22.729 50.666 50.666s-22.728 50.666-50.666 50.666c-6.843 0-13.478-1.339-19.72-3.979-3.823-1.614-8.232.171-9.848 3.993-1.617 3.822.171 8.232 3.993 9.849 5.107 2.16 10.412 3.645 15.856 4.452l-102.063 61.571c-3.554 2.144-4.696 6.762-2.553 10.316 1.411 2.34 3.895 3.634 6.441 3.634 1.322 0 2.66-.349 3.875-1.081l100.282-60.495c-2.438 6.855-3.778 14.225-3.778 21.907 0 16.302 5.982 31.225 15.849 42.721-6.951 2.332-13.096 5.422-18.353 9.252zm68.198-1.308c-27.938 0-50.666-22.729-50.666-50.666s22.728-50.666 50.666-50.666 50.666 22.729 50.666 50.666-22.728 50.666-50.666 50.666zm58.18-100.83c-27.938 0-50.666-22.729-50.666-50.666s22.728-50.666 50.666-50.666c27.937 0 50.667 22.729 50.667 50.666s-22.729 50.666-50.667 50.666z"/></g></svg>