<svg id="Capa_1" enable-background="new 0 0 512 512" height="512" viewBox="0 0 512 512" width="512" xmlns="http://www.w3.org/2000/svg"><g><g><path d="m384.323 126.474v305.072c68.689-16.757 119.677-78.687 119.677-152.536s-50.988-135.779-119.677-152.536z" fill="#565e75"/><path d="m384.323 413.546v18c68.689-16.756 119.677-78.687 119.677-152.536 0-3.021-.094-6.021-.262-9-3.948 69.839-53.536 127.465-119.415 143.536z" fill="#4b5165"/><path d="m369.323 467.172h-346.323c-8.284 0-15-6.716-15-15v-346.323c0-8.284 6.716-15 15-15h346.323c8.284 0 15 6.716 15 15v346.323c0 8.284-6.716 15-15 15z" fill="#f7594e"/><path d="m369.323 449.172h-346.323c-8.284 0-15-6.716-15-15v18c0 8.284 6.716 15 15 15h346.323c8.284 0 15-6.716 15-15v-18c0 8.284-6.716 15-15 15z" fill="#ea4642"/><path d="m384.323 221.386v115.249c18.854-12.242 31.336-33.469 31.336-57.624 0-24.156-12.482-45.383-31.336-57.625z" fill="#edf4fa"/><path d="m384.323 318.634v18c18.854-12.242 31.336-33.469 31.336-57.624 0-3.051-.2-6.055-.586-9-2.67 20.374-14.277 37.929-30.75 48.624z" fill="#d8e5ef"/><path d="m268.48 367.301-26.644-54.78h9.381c3.743 0 6.159-3.962 4.445-7.29l-31.035-60.245h6.433c3.844 0 6.25-4.156 4.336-7.49l-35.27-61.424c-1.922-3.347-6.75-3.347-8.672 0l-35.27 61.424c-1.914 3.333.492 7.49 4.336 7.49h6.433l-31.035 60.245c-1.714 3.328.702 7.29 4.445 7.29h9.381l-26.644 54.78c-1.615 3.321.803 7.187 4.496 7.187h136.388c3.693 0 6.111-3.866 4.496-7.187z" fill="#36ce94"/><g><path d="m263.221 356.488h-134.862l-5.259 10.813c-1.615 3.321.803 7.187 4.496 7.187h136.388c3.693 0 6.112-3.866 4.496-7.187z" fill="#36bf84"/></g><path d="m207.623 410.855h-22.923c-2.761 0-5-2.238-5-5v-31.367h32.923v31.367c0 2.762-2.238 5-5 5z" fill="#edbca4"/><path d="m179.7 374.488h32.924v18h-32.924z" fill="#eaab92"/></g><g><path d="m441.234 225.435c4.766 8.556 17.995.914 13.049-7.458-8.545-14.95-19.902-27.737-33.755-38.007-3.333-2.471-8.04-1.773-10.512 1.561-2.473 3.334-1.773 8.041 1.561 10.512 12.173 9.025 22.151 20.26 29.657 33.392z"/><path d="m466.422 247.66c-1.055-4.014-5.166-6.41-9.178-5.358-4.014 1.055-6.413 5.164-5.358 9.178 2.353 8.955 3.547 18.238 3.547 27.593 0 34.172-16.423 66.728-43.931 87.085-3.336 2.469-4.039 7.175-1.57 10.511 2.483 3.357 7.207 4.023 10.511 1.57 31.321-23.179 50.02-60.25 50.02-99.166-.001-10.643-1.36-21.212-4.041-31.413z"/><path d="m476.219 176.525c-21.472-26.982-51.173-46.729-84.13-56.068v-14.884c0-12.431-10.113-22.544-22.544-22.544h-92.349c-4.151 0-7.515 3.365-7.515 7.515s3.364 7.515 7.515 7.515h92.349c4.144 0 7.515 3.371 7.515 7.515v347.001c0 4.144-3.371 7.515-7.515 7.515h-256.006c-4.151 0-7.515 3.365-7.515 7.515s3.364 7.515 7.515 7.515h256.006c12.43 0 22.544-10.113 22.544-22.544v-14.884c32.957-9.339 62.659-29.086 84.13-56.068 23.408-29.419 35.781-64.88 35.781-102.551s-12.373-73.132-35.781-102.548zm-84.13 60.852c10.427 11.203 16.368 25.993 16.368 41.696s-5.941 30.493-16.368 41.696zm72.37 134.885c-18.628 23.409-44.059 40.83-72.37 49.749v-81.262c19.733-14.369 31.397-37.123 31.397-61.676s-11.665-47.307-31.397-61.676v-81.262c28.311 8.918 53.742 26.339 72.37 49.748 21.269 26.728 32.512 58.953 32.512 93.189 0 34.238-11.243 66.462-32.512 93.19z"/><path d="m241.85 246.248c2.266-3.913 2.274-8.591.023-12.512l-35.34-61.544c-4.418-8.265-17.305-8.264-21.722 0l-35.34 61.545c-3.746 6.105-.898 14.769 5.575 17.612l-26.044 50.555c-3.922 7.049.757 16.669 8.64 18.016l-21.561 44.33c-4.177 7.941 2.294 18.285 11.262 18.003h44.691v23.914c0 6.906 5.618 12.525 12.524 12.525h22.969c6.906 0 12.524-5.618 12.524-12.525v-23.914h43.946c8.968.282 15.44-10.062 11.263-18.002l-21.562-44.331c7.884-1.347 12.563-10.967 8.641-18.015l-26.044-50.556c2.29-1.059 4.228-2.809 5.555-5.101zm-36.827 157.413h-17.959v-21.409h17.959zm42.077-98.526h-5.292c-5.379-.161-9.255 6.035-6.757 10.801l24.945 51.287h-128.648l24.944-51.287c2.498-4.767-1.379-10.962-6.757-10.801h-5.291l29.214-56.711c2.644-4.771-1.229-11.121-6.68-10.956h-2.119l31.013-54.009 31.013 54.009h-2.119c-5.452-.165-9.324 6.186-6.68 10.956z"/><path d="m314.645 215.199v-64.139c1.549.786 3.188 1.759 4.81 2.957 8.394 6.201 12.651 15.624 12.651 28.008 0 4.15 3.364 7.515 7.515 7.515s7.515-3.365 7.515-7.515c0-34.059-25.439-46.871-38.891-48.887-4.397-.767-8.732 2.974-8.628 7.431v52.538c-2.705-1.073-5.649-1.669-8.731-1.669-13.102 0-23.76 10.659-23.76 23.76s10.659 23.76 23.76 23.76c13.1.001 23.759-10.658 23.759-23.759zm-32.491 0c0-4.814 3.917-8.73 8.731-8.73s8.731 3.916 8.731 8.73-3.917 8.731-8.731 8.731c-4.815-.001-8.731-3.917-8.731-8.731z"/><path d="m73.247 124.147c-13.102 0-23.76 10.659-23.76 23.76s10.658 23.76 23.76 23.76 23.76-10.659 23.76-23.76v-49.849h47.521v11.513c-2.705-1.073-5.649-1.669-8.731-1.669-13.102 0-23.76 10.659-23.76 23.76s10.659 23.76 23.76 23.76c13.102 0 23.76-10.659 23.76-23.76v-33.604h87.58c4.151 0 7.515-3.364 7.515-7.515s-3.364-7.515-7.515-7.515h-87.58v-33.583c.204-7.796-7.732-14.137-15.291-12.215l-52.529 11.897c-5.747 1.3-9.759 6.323-9.759 12.215v21.686h-59.434c-12.431 0-22.544 10.113-22.544 22.544v347.001c0 12.431 10.113 22.544 22.544 22.544h60.936c4.151 0 7.515-3.365 7.515-7.515s-3.364-7.515-7.515-7.515h-60.936c-4.144 0-7.515-3.371-7.515-7.515v-347c0-4.144 3.371-7.515 7.515-7.515h59.434v27.759c-2.705-1.073-5.649-1.669-8.731-1.669zm62.549 16.245c-4.814 0-8.731-3.916-8.731-8.73s3.917-8.731 8.731-8.731 8.731 3.917 8.731 8.731-3.916 8.73-8.731 8.73zm-38.789-77.049 47.521-10.763v30.448h-47.521zm-23.76 93.295c-4.814 0-8.731-3.917-8.731-8.731s3.917-8.73 8.731-8.73 8.731 3.916 8.731 8.73-3.917 8.731-8.731 8.731z"/></g></g></svg>