<svg id="Capa_1" enable-background="new 0 0 511.97 511.97" height="512" viewBox="0 0 511.97 511.97" width="512" xmlns="http://www.w3.org/2000/svg"><g><g fill="#2b4d66"><path d="m198.697 487.585h-68.937c-6.321 0-11.446-5.124-11.446-11.446v-39.045h91.828v39.045c0 6.321-5.124 11.446-11.445 11.446z"/><path d="m382.211 487.585h-68.937c-6.321 0-11.446-5.124-11.446-11.446v-39.045h91.828v39.045c.001 6.321-5.124 11.446-11.445 11.446z"/></g><path d="m503.006 346.885c-16.659-93.522-44.431-191.781-83.314-282.099-10.553-24.513-34.676-40.4-61.364-40.4h-204.685c-26.688 0-50.811 15.887-61.364 40.4-38.884 90.317-66.655 188.576-83.314 282.099-10.235 57.46 33.94 110.21 92.305 110.21h309.432c58.364-.001 102.54-52.75 92.304-110.21zm-181.494-240.552h-131.054c-10.975 0-19.872-8.897-19.872-19.872s8.897-19.872 19.872-19.872h131.054c10.975 0 19.872 8.897 19.872 19.872s-8.897 19.872-19.872 19.872z" fill="#365e7d"/><g><path d="m503.006 346.885c-16.659-93.522-44.431-191.781-83.314-282.099-10.553-24.513-34.676-40.4-61.364-40.4h-27.5c26.688 0 50.811 15.887 61.364 40.4 38.883 90.317 66.654 188.576 83.314 282.099 10.236 57.46-33.94 110.21-92.305 110.21h27.5c58.365-.001 102.541-52.75 92.305-110.21z" fill="#2b4d66"/></g><path d="m359.109 411.526h-206.247c-29.066 0-51.557-25.471-47.959-54.314l22.767-182.489c1.679-13.457 13.117-23.557 26.679-23.557h203.272c13.562 0 25 10.1 26.679 23.557l22.767 182.489c3.599 28.843-18.892 54.314-47.958 54.314z" fill="#f4fbff"/><path d="m407.067 357.212-22.767-182.489c-1.679-13.457-13.117-23.557-26.679-23.557h-20.526c13.562 0 25 10.1 26.679 23.557l22.767 182.49c3.598 28.843-18.893 54.314-47.959 54.314h20.526c29.067-.001 51.558-25.472 47.959-54.315z" fill="#daf1f4"/><path d="m255.985 213.145c-37.666 0-68.201 30.535-68.201 68.201s30.534 68.201 68.201 68.201c28.879 0 53.547-17.958 63.494-43.309l-63.494-24.892z" fill="#dd636e"/><path d="m237.459 215.713v70.539c0 4.657 2.852 8.838 7.187 10.538l65.667 25.744c3.756-4.949 6.86-10.42 9.166-16.295l-63.494-24.892v-68.201c-6.424-.001-12.633.907-18.526 2.567z" fill="#da4a54"/><g><path d="m263.485 185.28v-7.757c0-4.142-3.357-7.5-7.5-7.5s-7.5 3.358-7.5 7.5v7.757c0 4.142 3.357 7.5 7.5 7.5s7.5-3.358 7.5-7.5z"/><path d="m334.704 202.628c-2.93-2.929-7.678-2.929-10.607 0l-5.485 5.485c-2.929 2.929-2.929 7.678 0 10.606 2.93 2.929 7.678 2.929 10.607 0l5.485-5.485c2.929-2.928 2.929-7.677 0-10.606z"/><path d="m352.051 273.846c-4.143 0-7.5 3.357-7.5 7.5s3.357 7.5 7.5 7.5h7.758c4.143 0 7.5-3.357 7.5-7.5s-3.357-7.5-7.5-7.5z"/><path d="m324.097 360.064c2.927 2.927 7.678 2.93 10.606-.001 2.929-2.929 2.929-7.678-.001-10.606l-5.485-5.484c-2.93-2.93-7.679-2.929-10.606.001-2.929 2.929-2.929 7.678.001 10.606z"/><path d="m248.485 377.412v7.758c0 4.143 3.357 7.5 7.5 7.5s7.5-3.357 7.5-7.5v-7.758c0-4.143-3.357-7.5-7.5-7.5s-7.5 3.358-7.5 7.5z"/><path d="m187.874 360.064 5.485-5.484c2.93-2.929 2.93-7.678.001-10.606s-7.678-2.93-10.606-.001l-5.485 5.484c-2.93 2.929-2.93 7.678-.001 10.606 2.928 2.928 7.676 2.93 10.606.001z"/><path d="m152.162 273.846c-4.143 0-7.5 3.357-7.5 7.5s3.357 7.5 7.5 7.5h7.757c4.143 0 7.5-3.357 7.5-7.5s-3.357-7.5-7.5-7.5z"/><path d="m193.36 218.72c2.929-2.929 2.929-7.678 0-10.606l-5.485-5.485c-2.93-2.929-7.678-2.929-10.607 0s-2.929 7.678 0 10.606l5.485 5.485c2.93 2.929 7.677 2.929 10.607 0z"/><path d="m326.46 308.978c0-.001.001-.002.001-.002.812-2.071 1.539-4.185 2.16-6.281 1.176-3.971-1.09-8.145-5.062-9.321-3.265-.965-6.658.393-8.419 3.109l-51.656-20.252v-55.485c3.173-.649 5.678-3.316 5.968-6.707.353-4.127-2.706-7.759-6.834-8.112-2.185-.187-4.417-.282-6.634-.282-41.741 0-75.7 33.959-75.7 75.701s33.959 75.701 75.7 75.701c31.355 0 59.018-18.868 70.476-48.069zm-70.475 33.069c-33.471 0-60.7-27.23-60.7-60.701 0-30.931 23.256-56.533 53.2-60.24v60.24c0 3.086 1.89 5.856 4.763 6.982l56.087 21.989c-10.526 19.494-30.743 31.73-53.35 31.73z"/><path d="m296.669 236.295c3.063 2.787 7.807 2.565 10.595-.499 2.788-3.063 2.564-7.807-.499-10.595-3.219-2.929-6.707-5.592-10.368-7.916-3.496-2.22-8.132-1.184-10.351 2.313-2.22 3.498-1.184 8.132 2.313 10.352 2.933 1.861 5.729 3.996 8.31 6.345z"/><path d="m324.432 275.908c4.066-.788 6.723-4.725 5.934-8.791-.824-4.252-2.029-8.474-3.582-12.545-1.475-3.871-5.808-5.813-9.679-4.337-3.871 1.475-5.812 5.809-4.337 9.679 1.245 3.268 2.212 6.652 2.873 10.061.793 4.086 4.746 6.72 8.791 5.933z"/><path d="m120.228 173.794-22.767 182.489c-1.981 15.881 2.958 31.869 13.551 43.866 10.593 11.996 25.847 18.877 41.851 18.877h206.247c16.004 0 31.257-6.88 41.85-18.877 10.593-11.996 15.532-27.985 13.551-43.866l-4.488-35.98c-.514-4.11-4.262-7.021-8.371-6.514-4.11.513-7.026 4.261-6.514 8.371l4.488 35.98c1.449 11.614-2.163 23.307-9.91 32.081-7.746 8.772-18.901 13.805-30.605 13.805h-206.249c-11.704 0-22.86-5.032-30.606-13.806-7.747-8.773-11.359-20.466-9.91-32.08l22.768-182.49c1.208-9.683 9.478-16.985 19.236-16.985h203.271c9.759 0 18.028 7.302 19.237 16.986l14.537 116.521c.514 4.11 4.266 7.022 8.371 6.514 4.11-.513 7.026-4.261 6.514-8.371l-14.537-116.521c-2.144-17.176-16.813-30.128-34.122-30.128h-203.272c-17.309 0-31.978 12.952-34.121 30.128z"/><path d="m66.292 248.335-11.496 92.145c-.513 4.11 2.403 7.858 6.514 8.371.315.039.628.059.938.059 3.728 0 6.959-2.777 7.433-6.572l11.496-92.145c.513-4.11-2.403-7.858-6.514-8.371-4.105-.507-7.858 2.402-8.371 6.513z"/><path d="m449.723 348.909c.31 0 .623-.02.938-.059 4.11-.513 7.026-4.261 6.514-8.371l-11.496-92.145c-.514-4.11-4.261-7.021-8.371-6.514-4.11.513-7.026 4.261-6.514 8.371l11.496 92.145c.474 3.796 3.706 6.573 7.433 6.573z"/><path d="m510.389 345.57c-17.707-99.406-46.688-197.525-83.809-283.749-11.751-27.297-38.542-44.935-68.253-44.935h-204.685c-29.71 0-56.501 17.638-68.253 44.935-2.305 5.353-4.649 10.927-6.971 16.566-1.576 3.83.251 8.213 4.081 9.79 3.829 1.576 8.213-.25 9.79-4.081 2.291-5.566 4.604-11.065 6.877-16.344 9.38-21.788 30.763-35.866 54.476-35.866h204.686c23.713 0 45.096 14.078 54.476 35.866 36.672 85.182 65.311 182.16 82.818 280.449 4.489 25.199-2.361 50.903-18.795 70.524-16.433 19.617-40.534 30.869-66.126 30.869h-309.432c-25.591 0-49.692-11.251-66.124-30.869-16.434-19.62-23.285-45.325-18.797-70.525 14.438-81.055 36.9-162.791 64.957-236.372 1.476-3.87-.466-8.204-4.336-9.68-3.866-1.477-8.204.464-9.68 4.336-28.386 74.446-51.108 157.121-65.708 239.086-5.27 29.581 2.773 59.755 22.065 82.787 19.289 23.029 47.582 36.237 77.623 36.237h9.545v11.545c0 10.446 8.499 18.945 18.945 18.945h15.166c4.143 0 7.5-3.357 7.5-7.5s-3.357-7.5-7.5-7.5h-15.166c-2.176 0-3.945-1.77-3.945-3.945v-11.545h76.828v11.545c0 2.176-1.771 3.945-3.946 3.945h-23.784c-4.143 0-7.5 3.357-7.5 7.5s3.357 7.5 7.5 7.5h23.784c10.447 0 18.946-8.499 18.946-18.945v-11.545h76.687v11.545c0 10.446 8.499 18.945 18.945 18.945h68.938c10.446 0 18.945-8.499 18.945-18.945v-11.545h9.544c30.042 0 58.335-13.208 77.625-36.238 19.291-23.032 27.333-53.206 22.063-82.786zm-124.232 130.569c0 2.176-1.77 3.945-3.945 3.945h-68.938c-2.176 0-3.945-1.77-3.945-3.945v-11.545h76.828z"/><path d="m321.512 113.833c15.093 0 27.372-12.279 27.372-27.372s-12.279-27.372-27.372-27.372h-131.053c-15.093 0-27.372 12.279-27.372 27.372s12.279 27.372 27.372 27.372zm-143.425-27.372c0-6.822 5.55-12.372 12.372-12.372h131.054c6.822 0 12.372 5.55 12.372 12.372s-5.55 12.372-12.372 12.372h-131.054c-6.823 0-12.372-5.55-12.372-12.372z"/></g></g></svg>