<svg id="Capa_1" enable-background="new 0 0 512 512" height="512" viewBox="0 0 512 512" width="512" xmlns="http://www.w3.org/2000/svg"><g><g><path d="m351.504 504c-16.31 0-29.533-13.222-29.533-29.533v-341.431c0-36.377-29.594-65.971-65.971-65.971s-65.971 29.594-65.971 65.971v36.57c0 16.31-13.222 29.533-29.533 29.533s-29.533-13.222-29.533-29.533v-36.57c.001-68.945 56.092-125.036 125.036-125.036 68.946 0 125.037 56.091 125.037 125.036v341.431c0 16.311-13.222 29.533-29.532 29.533z" fill="#edf4fa"/><g fill="#d8e5ef"><path d="m160.496 181.139c-16.31 0-29.533-13.222-29.533-29.533v18c0 16.31 13.222 29.533 29.533 29.533s29.533-13.222 29.533-29.533v-18c0 16.311-13.222 29.533-29.533 29.533z"/><path d="m351.504 486c-16.31 0-29.533-13.222-29.533-29.533v18c0 16.31 13.222 29.533 29.533 29.533s29.533-13.222 29.533-29.533v-18c-.001 16.311-13.223 29.533-29.533 29.533z"/><path d="m321.971 115.036c0-36.377-29.594-65.971-65.971-65.971s-65.971 29.594-65.971 65.971v18c0-36.377 29.594-65.971 65.971-65.971s65.971 29.594 65.971 65.971z"/></g><g fill="#f7594e"><path d="m381.034 427.72v46.75c0 16.31-13.22 29.53-29.53 29.53-12.64 0-23.43-7.94-27.64-19.11z"/><path d="m381.034 282.89v60.46l-59.06 59.06v-60.46z"/><path d="m381.034 138.05v60.47l-59.06 59.06v-60.46z"/><path d="m188.694 178.42c-3.75 12.01-14.96 20.72-28.2 20.72-16.31 0-29.53-13.22-29.53-29.53v-36.57c0-3.98.19-7.9.56-11.79z"/><path d="m360.304 64.15-41.97 47.27c-5.57-16.03-17.16-29.26-32.05-36.98l28.85-51.55c18.24 9.83 33.77 24.06 45.17 41.26z"/><path d="m238.014 69.57-25.784-53.657c-20.728 7.772-38.865 20.89-52.711 37.676l39.695 45.911c.002.001.003.003.005.004 8.53-14.388 22.367-25.263 38.798-29.926-.001-.003-.002-.006-.003-.008z"/></g><path d="m230.607 54.155c-17.152 7.181-30.639 21.407-36.845 39.039l5.452 6.306c.002.001.003.003.005.004 8.53-14.388 22.367-25.263 38.798-29.926-.001-.003-.002-.005-.003-.008z" fill="#ea4642"/><path d="m351.504 486c-7.956 0-15.172-3.152-20.482-8.268l-7.158 7.158c4.21 11.17 15 19.11 27.64 19.11 16.31 0 29.53-13.22 29.53-29.53v-17.906c-.052 16.266-13.252 29.436-29.53 29.436z" fill="#ea4642"/><path d="m160.496 181.139c-16.307 0-29.527-13.217-29.532-29.523v17.994c0 16.31 13.22 29.53 29.53 29.53 13.24 0 24.45-8.71 28.2-20.72l-6.639-6.639c-5.389 5.756-13.051 9.358-21.559 9.358z" fill="#ea4642"/><path d="m293.797 61.015-7.513 13.425c14.89 7.72 26.48 20.95 32.05 36.98l3.229-3.637c-2.122-19.316-12.617-36.137-27.766-46.768z" fill="#ea4642"/></g><path d="m359.97 50.265c-18.292-22.998-43.973-39.495-72.314-46.452-4.032-.989-8.101 1.476-9.09 5.506-.99 4.031 1.476 8.1 5.506 9.09 7.141 1.753 14.082 4.212 20.747 7.271l-21.666 38.713c-8.409-3.35-17.566-5.213-27.155-5.213-4.729 0-9.363.461-13.869 1.318l-19.538-40.636c10.595-3.14 21.806-4.834 33.406-4.834 4.15 0 7.515-3.365 7.515-7.515s-3.363-7.513-7.513-7.513c-73.223 0-132.794 59.572-132.794 132.796v36.642c0 20.46 16.645 37.105 37.105 37.105s37.105-16.645 37.105-37.105v-22.368c0-4.15-3.365-7.515-7.515-7.515s-7.515 3.365-7.515 7.515v14.394l-43.249-43.249c2.437-19.65 9.733-37.813 20.646-53.248l30.223 35.172c-2.347 4.761-4.216 9.833-5.521 15.169-.986 4.031 1.483 8.099 5.514 9.085s8.098-1.483 9.085-5.514c6.434-26.301 29.838-44.669 56.917-44.669 32.304 0 58.585 26.281 58.585 58.585v145.865c0 4.15 3.364 7.515 7.515 7.515s7.515-3.364 7.515-7.515v-17.962l44.152-44.152v63.281l-44.152 44.152v-15.26c0-4.15-3.365-7.515-7.515-7.515s-7.515 3.364-7.515 7.515v166.176c0 20.46 16.645 37.105 37.105 37.105s37.105-16.645 37.105-37.105v-342.099c.001-30.283-9.967-58.821-28.825-82.531zm-199.66 141.248c-12.173 0-22.076-9.903-22.076-22.076v-30.871l41.447 41.447c-3.753 6.847-11.028 11.5-19.371 11.5zm38.114-104.639-29.033-33.787c10.886-11.819 24.153-21.411 39.033-28.009l19.133 39.794c-11.42 4.768-21.44 12.344-29.133 22.002zm175.342 47.83-44.152 44.159v-46.068c0-6.87-.966-13.515-2.735-19.828l32.493-36.596c9.46 17.188 14.393 36.374 14.393 56.424v1.909zm-77.284-63.349 21.575-38.551c11.43 7.121 21.686 16.174 30.15 26.817.942 1.185 1.852 2.388 2.744 3.599l-30.396 34.235c-5.79-10.533-14.084-19.497-24.073-26.1zm33.133 168.089v-39.324l44.152-44.159v39.331zm0 166.368 44.152-44.152v63.281l-44.152 44.152zm44.151-104.73v39.324l-44.152 44.152v-39.324zm-22.076 195.889c-7.778 0-14.624-4.047-18.557-10.142l40.633-40.633v28.7c0 12.172-9.903 22.075-22.076 22.075z"/></g></svg>