<svg id="Capa_1" enable-background="new 0 0 512 512" height="512" viewBox="0 0 512 512" width="512" xmlns="http://www.w3.org/2000/svg"><g><g><path d="m429.45 144.536h-212.165c-8.212 0-14.868-6.657-14.868-14.868v-42.4c0-8.211 6.657-14.868 14.868-14.868h212.165c8.211 0 14.868 6.657 14.868 14.868v42.4c0 8.211-6.657 14.868-14.868 14.868z" fill="#edf4fa"/><path d="m429.45 126.536h-212.165c-8.212 0-14.868-6.657-14.868-14.868v18c0 8.212 6.657 14.868 14.868 14.868h212.165c8.211 0 14.868-6.657 14.868-14.868v-18c0 8.211-6.657 14.868-14.868 14.868z" fill="#d8e5ef"/><path d="m221.638 144.536v127.682l-89.599 35.421c-52.249 20.655-77.861 79.756-57.206 132.005 20.655 52.249 79.756 77.861 132.005 57.205l143.333-56.663c45.219-17.876 74.926-61.564 74.926-110.188v-185.462z" fill="#f7594e"/><path d="m350.172 422.185-143.333 56.663c-52.249 20.655-111.35-4.956-132.005-57.205-3.688-9.328-5.893-18.874-6.743-28.381-1.367 15.293.713 31.128 6.743 46.381 20.655 52.249 79.756 77.861 132.005 57.205l143.333-56.663c45.219-17.876 74.926-61.564 74.926-110.188v-18c-.001 48.624-29.708 92.312-74.926 110.188z" fill="#ea4642"/><path d="m327.146 396.468c0 17.377 4.255 33.757 11.771 48.166l11.255-4.45c45.219-17.876 74.926-61.564 74.926-110.188v-37.633c-54.647 3.285-97.952 48.634-97.952 104.105z" fill="#edf4fa"/><path d="m207.487 452.356c0-63.1-45.629-115.54-105.69-126.133-30.994 27.583-43.104 72.593-26.964 113.42 19.554 49.462 73.561 75.045 123.593 60.11 5.844-14.661 9.061-30.653 9.061-47.397z" fill="#edf4fa"/><g fill="#d8e5ef"><path d="m74.833 421.643c-3.69-9.335-5.896-18.888-6.745-28.402-1.371 15.299.712 31.142 6.745 46.401 19.554 49.462 73.561 75.045 123.593 60.11 2.566-6.438 4.625-13.133 6.128-20.035-51.676 19.034-109.366-6.585-129.721-58.074z"/><path d="m350.172 422.185-17.767 7.024c1.767 5.345 3.944 10.503 6.512 15.426l11.255-4.45c45.219-17.876 74.926-61.564 74.926-110.188v-18c-.001 48.624-29.708 92.312-74.926 110.188z"/></g></g><g><path d="m432.034 64.634c5.215-10.869 8.22-24.303 8.22-34.109 0-16.832-13.694-30.525-30.525-30.525s-30.525 13.693-30.525 30.524c0 9.773 2.985 23.148 8.167 33.997h-111.89c-4.15 0-7.514 3.364-7.514 7.514s3.364 7.514 7.514 7.514h154.313c4.071 0 7.382 3.312 7.382 7.383v42.48c0 4.071-3.311 7.382-7.382 7.382h-38.294c-4.15 0-7.514 3.364-7.514 7.514s3.364 7.514 7.514 7.514h26.42v133.75c-55.573 6.869-98.137 54.38-98.137 111.145 0 15.198 3.134 30.322 9.094 44.216l-53.376 21.101c-3.859 1.525-5.751 5.891-4.225 9.75 1.167 2.953 3.997 4.754 6.99 4.754.919 0 1.854-.17 2.761-.528l72.105-28.505c23.635-9.344 43.683-25.392 57.974-46.409s21.845-45.56 21.845-70.975v-178.524c10.869-1.538 19.258-10.898 19.258-22.184v-42.48c-.004-11.602-8.865-21.172-20.175-22.299zm-27.34-.113c-6.02-8.222-10.461-24.122-10.461-33.997 0-8.545 6.952-15.496 15.496-15.496s15.496 6.952 15.496 15.496c0 9.875-4.441 25.775-10.461 33.997zm-6.019 328.126c-12.589 18.515-30.25 32.652-51.071 40.884l-4.758 1.881c-5.33-12.189-8.035-25.172-8.035-38.693 0-48.517 35.906-89.226 83.109-95.986v29.389c-.001 22.389-6.656 44.01-19.245 62.525z"/><path d="m247.529 473.093-37.177 14.697c3.039-11.381 4.574-23.125 4.574-35.078 0-60.52-39.575-112.809-96.161-129.96 4.924-3.117 10.203-5.824 15.818-8.044l89.769-35.487c2.868-1.134 4.752-3.904 4.752-6.988v-120.41h132.339c4.15 0 7.514-3.364 7.514-7.514s-3.364-7.514-7.514-7.514h-144.215c-4.071 0-7.382-3.311-7.382-7.382v-42.48c0-4.071 3.311-7.383 7.382-7.383h28.197c4.15 0 7.514-3.364 7.514-7.514s-3.364-7.514-7.514-7.514h-28.197c-12.357 0-22.411 10.054-22.411 22.411v42.48c0 11.287 8.388 20.647 19.258 22.184v115.526l-85.018 33.609c-27.184 10.747-48.557 31.436-60.18 58.258s-12.106 56.564-1.359 83.748c10.746 27.184 31.436 48.557 58.257 60.18 13.964 6.052 28.716 9.084 43.49 9.083 13.603 0 27.226-2.572 40.258-7.724l43.53-17.208c3.859-1.525 5.751-5.891 4.225-9.75-1.525-3.861-5.891-5.753-9.749-4.226zm-166.035-35.881c-14.478-36.625-4.367-76.991 22.374-102.764 55.865 11.611 96.03 60.759 96.03 118.263 0 14.194-2.436 28.049-7.233 41.244-7.728 1.981-15.534 2.96-23.26 2.96-37.623-.002-73.262-22.647-87.911-59.703z"/></g></g></svg>