<svg id="Capa_1" enable-background="new 0 0 512 512" height="512" viewBox="0 0 512 512" width="512" xmlns="http://www.w3.org/2000/svg"><g><path d="m414.08 83.791c10.599-38.366-18.241-76.291-58.044-76.291h-100.035-100.035c-39.803 0-68.644 37.925-58.044 76.291 14.73 53.318 44.044 97.226 68.015 133.968 15.163 23.243 15.163 53.238 0 76.481-23.971 36.743-53.285 80.651-68.015 133.968-10.599 38.366 18.241 76.291 58.044 76.291h200.07c39.803 0 68.644-37.925 58.044-76.291-14.73-53.318-44.044-97.226-68.015-133.968-15.163-23.243-15.163-53.238 0-76.481 23.971-36.742 53.285-80.65 68.015-133.968z" fill="#b1e4f9" stroke="#b1e4f9" stroke-miterlimit="10"/><path d="m346.065 294.241c-15.164-23.243-15.164-53.238 0-76.481 23.971-36.743 53.285-80.651 68.015-133.968 10.599-38.367-18.241-76.292-58.044-76.292h-22.676c39.803 0 68.644 37.925 58.044 76.291-14.73 53.318-44.044 97.226-68.015 133.968-15.164 23.243-15.164 53.238 0 76.481 23.971 36.743 53.285 80.651 68.015 133.968 10.599 38.366-18.241 76.291-58.044 76.291h22.676c39.803 0 68.644-37.925 58.044-76.291-14.73-53.317-44.044-97.225-68.015-133.967z" fill="#90d8f9"/><path d="m172.421 153.285c8.15 13.71 16.65 26.73 24.76 39.16l2.26 3.46c11.9 18.25 17.86 39.17 17.86 60.09s-5.95 41.85-17.86 60.1l-2.26 3.46c-17.31 26.51-36.4 55.74-50.03 88.56l60.505 38.048c30.25-15.975 66.44-15.975 96.69 0l60.505-38.048c-13.63-32.83-32.72-62.06-50.03-88.57l-2.26-3.45c-11.91-18.25-17.86-39.18-17.86-60.1s5.96-41.84 17.86-60.09l2.26-3.45c8.12-12.43 16.62-25.45 24.76-39.17 14.5-24.37 27.87-50.92 35.94-80.14 2.33-8.43-1.13-14.69-3.4-17.67s-7.37-7.98-16.09-7.98h-200.061c-8.72 0-13.82 5-16.09 7.98s-5.73 9.24-3.4 17.66c8.071 29.22 21.441 55.77 35.941 80.15z" fill="#f4fbff"/><g><path d="m314.821 192.455c8.12-12.43 16.62-25.45 24.76-39.17 14.5-24.37 27.87-50.92 35.94-80.14 2.33-8.43-1.13-14.69-3.4-17.67s-7.37-7.98-16.09-7.98h-20.009c8.72 0 13.82 5 16.09 7.98s5.73 9.24 3.4 17.67c-8.07 29.22-21.44 55.77-35.94 80.14-8.14 13.72-16.64 26.74-24.76 39.17l-2.26 3.45c-11.9 18.25-17.86 39.17-17.86 60.09s5.95 41.85 17.86 60.1l2.26 3.45c17.31 26.51 36.4 55.74 50.03 88.57l-52.142 32.789c3.96 1.502 7.85 3.254 11.646 5.259l60.505-38.048c-13.63-32.83-32.72-62.06-50.03-88.57l-2.26-3.45c-11.91-18.25-17.86-39.18-17.86-60.1s5.96-41.84 17.86-60.09z" fill="#daf1f4"/></g><path d="m339.581 153.285c-8.14 13.72-16.64 26.74-24.76 39.17l-2.26 3.45c-11.9 18.25-17.86 39.17-17.86 60.09l-30.706 125.64c-2.045 8.367-13.943 8.367-15.988 0l-30.706-125.64c0-20.92-5.96-41.84-17.86-60.09l-2.26-3.46c-8.11-12.43-16.61-25.45-24.76-39.16l25.82 10.452c37.046 14.997 78.473 14.997 115.52 0z" fill="#eab14d"/><g><path d="m313.76 163.737c-.092.037-.184.071-.275.108-6.125 9.889-12.341 19.412-18.35 28.61l-2.26 3.45c-10.319 15.825-16.171 33.658-17.544 51.758-.538 7.094-1.731 14.123-3.42 21.034l-25.753 105.373 1.849 7.565c2.045 8.367 13.943 8.367 15.988 0l30.706-125.64c0-20.92 5.96-41.84 17.86-60.09l2.26-3.45c8.12-12.43 16.62-25.45 24.76-39.17z" fill="#e49542"/></g><path d="m372.121 456.525c-2.27 2.98-7.37 7.98-16.09 7.98h-200.061c-8.72 0-13.82-5-16.09-7.98s-5.73-9.24-3.4-17.67c2.92-10.59 6.54-20.83 10.67-30.74l60.505-31.952c30.251-15.975 66.44-15.975 96.69 0l60.505 31.952c4.13 9.91 7.75 20.16 10.67 30.75 2.331 8.42-1.129 14.68-3.399 17.66z" fill="#eab14d"/><path d="m375.52 438.865c-2.92-10.59-6.54-20.84-10.67-30.75l-60.505-31.952c-20.011-10.567-42.619-14.138-64.388-10.725 11.14 1.747 22.062 5.317 32.302 10.725l35.853 18.933c17.179 9.072 30.044 24.729 35.234 43.451.029.106.059.212.088.318 2.33 8.42-1.13 14.68-3.4 17.66s-7.37 7.98-16.09 7.98h32.086c8.72 0 13.82-5 16.09-7.98 2.271-2.98 5.731-9.24 3.4-17.66z" fill="#e49542"/><g><path d="m187.047 424.214c-2.212-3.503-6.844-4.548-10.346-2.338-3.502 2.211-4.549 6.843-2.338 10.346l1.047 1.658c2.208 3.497 6.835 4.552 10.346 2.338 3.502-2.211 4.549-6.843 2.338-10.346z"/><path d="m252.265 285.654c-3.502 2.212-4.547 6.845-2.335 10.347l1.047 1.657c1.427 2.259 3.86 3.495 6.348 3.495 1.369 0 2.756-.375 3.999-1.16 3.502-2.212 4.547-6.845 2.335-10.347l-1.047-1.657c-2.212-3.502-6.845-4.546-10.347-2.335z"/><path d="m224.551 190.366c-3.503 2.21-4.552 6.842-2.341 10.345l1.046 1.658c2.213 3.509 6.847 4.548 10.345 2.341 3.503-2.21 4.552-6.842 2.341-10.345l-1.046-1.658c-2.21-3.504-6.844-4.552-10.345-2.341z"/><path d="m252.269 413.001c1.999 0 3.994-.794 5.47-2.367l1.557-1.658c2.835-3.02 2.686-7.766-.335-10.601-3.02-2.837-7.767-2.686-10.601.335l-1.557 1.658c-4.518 4.813-1.027 12.633 5.466 12.633z"/><path d="m279.381 235.333 1.557-1.658c2.835-3.02 2.686-7.766-.334-10.601-3.02-2.836-7.766-2.686-10.602.333l-1.557 1.658c-2.835 3.02-2.686 7.766.334 10.601 3.02 2.836 7.767 2.686 10.602-.333z"/><path d="m314.275 444.952c4.143 0 7.5-3.357 7.5-7.5v-1.768c0-4.143-3.357-7.5-7.5-7.5s-7.5 3.357-7.5 7.5v1.768c0 4.142 3.357 7.5 7.5 7.5z"/><path d="m190.883 315.482c-17.231 26.389-36.762 56.298-50.649 89.734-.002.005-.005.011-.007.016-4.423 10.613-8.116 21.255-10.975 31.625-4.916 17.779 8.441 35.148 26.718 35.148h200.061c18.336 0 31.619-17.431 26.721-35.134-2.866-10.395-6.56-21.041-10.974-31.633-.001-.003-.003-.006-.004-.01s-.003-.007-.004-.01c-14.036-33.799-33.355-63.252-52.927-93.222-10.887-16.683-16.642-36.047-16.642-56.001 0-19.934 5.755-39.296 16.635-55.98 9.103-13.952 18.222-27.776 27.19-42.895.001-.003.003-.005.004-.008v-.001c17.929-30.134 29.597-56.181 36.719-81.969 4.915-17.781-8.443-35.148-26.719-35.148h-144.291c-4.143 0-7.5 3.358-7.5 7.5s3.357 7.5 7.5 7.5h144.292c8.411 0 14.528 7.95 12.261 16.153-6.587 23.849-17.385 48.105-33.888 76.141l-23.457 9.496c-9.14 3.7-18.725 6.486-28.487 8.279-4.073.748-6.77 4.658-6.021 8.731.749 4.075 4.661 6.77 8.732 6.021 20.035-3.681 33.279-10.017 36.016-10.995-18.368 28.855-33.681 47.46-33.982 86.255l-24.875 101.784c-4.216-.241-8.442-.241-12.658 0l-24.875-101.782c-.298-38.43-14.88-56.28-33.898-86.144-.022-.034-.043-.069-.065-.103 3.063.955 27.176 13.125 62.889 13.628.036 0 .071.001.107.001 4.093 0 7.439-3.289 7.497-7.394.059-4.142-3.252-7.547-7.394-7.605-18.227-.257-36.018-3.849-52.878-10.675l-23.457-9.496c-16.504-28.047-27.303-52.308-33.888-76.154-2.271-8.203 3.869-16.14 12.261-16.14h25.782c4.143 0 7.5-3.358 7.5-7.5s-3.357-7.5-7.5-7.5h-25.783c-18.336 0-31.617 17.433-26.719 35.137 7.12 25.781 18.789 51.833 36.722 81.986 26.716 44.937 43.827 59.342 43.827 98.877 0 35.158-17.975 57.519-18.917 59.487zm102.404-22.112c9.627 28.699 30.463 47.469 55.553 97.809-34.411-17.128-46.446-27.518-71.532-32.428zm-26.18 78.955c.085.011.169.019.254.027 28.211 3.363 40.615 15.813 91.576 41.121 3.728 9.2 6.876 18.401 9.355 27.392 2.278 8.229-3.901 16.141-12.262 16.141h-200.06c-8.409 0-14.528-7.948-12.259-16.157 2.472-8.966 5.619-18.161 9.354-27.375 51.174-25.414 63.419-37.765 91.577-41.121.083-.008.167-.015.251-.027 7.379-.86 14.834-.861 22.214-.001zm-103.942 18.852c12.195-24.461 26.938-47.065 40.295-67.52 1.231-2.125 9.451-12.983 15.254-30.286l15.979 65.38c-24.952 4.883-36.603 15.042-71.528 32.426z"/><path d="m352.346 290.143c-13.53-20.741-13.53-47.545 0-68.285l2.249-3.445c23.226-35.57 52.131-79.839 66.714-132.625 5.684-20.572 1.53-42.109-11.394-59.088-12.917-16.968-32.554-26.7-53.88-26.7h-200.07c-21.324 0-40.963 9.732-53.879 26.701-12.925 16.979-17.078 38.516-11.394 59.088 14.583 52.786 43.488 97.054 66.714 132.625l2.249 3.444c13.53 20.741 13.53 47.544 0 68.286l-2.247 3.442c-23.227 35.57-52.133 79.839-66.716 132.626-5.684 20.572-1.53 42.108 11.395 59.088 12.915 16.968 32.554 26.7 53.878 26.7h128.322c4.143 0 7.5-3.357 7.5-7.5s-3.357-7.5-7.5-7.5h-128.322c-16.601 0-31.889-7.576-41.943-20.786-10.063-13.221-13.297-29.99-8.871-46.009 13.961-50.535 40.979-91.913 64.816-128.419l2.25-3.448c16.779-25.72 16.779-58.957 0-84.677l-2.252-3.449c-23.837-36.506-50.854-77.883-64.814-128.418-4.426-16.019-1.192-32.788 8.871-46.008 10.054-13.21 25.342-20.786 41.943-20.786h200.07c16.601 0 31.889 7.576 41.943 20.786 10.063 13.221 13.297 29.99 8.871 46.009-13.96 50.535-40.978 91.912-64.814 128.418l-2.252 3.449c-16.779 25.72-16.779 58.957 0 84.677 27.407 41.974 53.219 81.741 67.066 131.867 9.294 33.64-15.978 66.795-50.814 66.795h-41.761c-4.143 0-7.5 3.357-7.5 7.5s3.357 7.5 7.5 7.5h41.761c21.325 0 40.963-9.732 53.879-26.7 12.925-16.979 17.078-38.517 11.395-59.089-14.265-51.637-41.31-93.719-68.963-136.069z"/></g></g></svg>