<svg id="Capa_1" enable-background="new 0 0 512 512" height="512" viewBox="0 0 512 512" width="512" xmlns="http://www.w3.org/2000/svg"><g><g><g><g><path d="m344.129 304.556h58.703v75.205h-58.703z" fill="#cb3541" transform="matrix(.707 -.707 .707 .707 -132.553 364.307)"/><path d="m379.315 389.502 41.509-41.51 11.12 11.12c11.463 11.462 11.463 30.047 0 41.509-11.462 11.463-30.047 11.463-41.509 0z" fill="#ffd6bd"/></g><path d="m350.09 318.947h18v75.205h-18z" fill="#ba3243" transform="matrix(.707 -.707 .707 .707 -146.944 358.346)"/><path d="m437.31 393.26c-1.36 2.652-3.145 5.142-5.366 7.362-11.462 11.463-30.047 11.463-41.51 0l-11.12-11.12 12.728-12.728 11.12 11.12c9.243 9.242 23.112 11.027 34.148 5.366z" fill="#f9c6aa"/></g><g><g><path d="m100.917 312.807h75.205v58.703h-75.205z" fill="#cb3541" transform="matrix(.707 -.707 .707 .707 -201.371 198.163)"/><path d="m132.685 389.502-41.509-41.51-11.12 11.12c-11.463 11.462-11.463 30.047 0 41.509 11.463 11.463 30.047 11.463 41.509 0z" fill="#ffd6bd"/></g><path d="m115.307 347.549h75.205v18h-75.205z" fill="#ba3243" transform="matrix(.707 -.707 .707 .707 -207.332 212.555)"/><path d="m74.689 393.26c1.36 2.652 3.145 5.142 5.366 7.362 11.463 11.463 30.047 11.463 41.509 0l11.12-11.12-12.728-12.728-11.12 11.12c-9.241 9.242-23.111 11.027-34.147 5.366z" fill="#f9c6aa"/></g><path d="m255.999 176.258c29.688 0 60.949 3.511 86.974 9.604-19.223-103.671-58.979-177.862-86.973-177.862-27.995 0-67.75 74.191-86.974 177.862 26.025-6.092 57.286-9.604 86.973-9.604z" fill="#f7594e"/><path d="m353.946 229.269c-1.923-.009-3.875-.295-5.806-.894-24.994-7.757-59.44-12.388-92.14-12.388s-67.146 4.631-92.14 12.388c-1.931.599-3.883.885-5.805.893-6.822 21.763-26.327 92.69-25.879 191.044.071 15.555 9.254 29.629 23.49 35.898 20.764 9.143 55.002 19.723 100.334 18.276 45.332 1.447 79.57-9.133 100.334-18.276 14.236-6.269 23.42-20.342 23.49-35.898.448-98.353-19.056-169.28-25.878-191.043z" fill="#f7594e"/><path d="m356.334 438.209c-20.764 9.143-55.002 19.723-100.334 18.276-45.332 1.447-79.57-9.133-100.334-18.276-13.499-5.944-22.44-18.908-23.392-33.496-.086 5.12-.123 10.317-.099 15.598.071 15.555 9.254 29.629 23.49 35.898 20.764 9.143 55.002 19.723 100.334 18.276 45.332 1.447 79.57-9.133 100.334-18.276 14.236-6.269 23.419-20.342 23.49-35.898.024-5.281-.013-10.479-.099-15.598-.95 14.588-9.891 27.552-23.39 33.496z" fill="#ea4642"/><path d="m354.033 229.272c-1.951 0-3.933-.289-5.893-.897-24.994-7.757-59.44-12.388-92.14-12.388s-67.146 4.631-92.14 12.388c-10.477 3.252-21.607-2.606-24.859-13.084-3.251-10.477 2.606-21.607 13.084-24.859 28.596-8.874 67.442-14.173 103.915-14.173s75.319 5.299 103.915 14.173c10.478 3.252 16.336 14.382 13.084 24.859-2.643 8.516-10.492 13.981-18.966 13.981z" fill="#edf4fa"/><path d="m354.033 229.272c-1.951 0-3.933-.289-5.893-.897-24.994-7.757-59.44-12.388-92.14-12.388s-67.146 4.631-92.14 12.388c-10.477 3.252-21.607-2.606-24.859-13.084-3.251-10.477 2.606-21.607 13.084-24.859 28.596-8.874 67.442-14.173 103.915-14.173s75.319 5.299 103.915 14.173c10.478 3.252 16.336 14.382 13.084 24.859-2.643 8.516-10.492 13.981-18.966 13.981z" fill="#edf4fa"/><path d="m172.816 167.003c-1.336 6.167-2.602 12.456-3.79 18.859 26.025-6.092 57.286-9.604 86.973-9.604 29.688 0 60.949 3.511 86.974 9.604-1.187-6.403-2.454-12.692-3.79-18.859-25.239-5.561-54.922-8.745-83.184-8.745-28.261 0-57.945 3.184-83.183 8.745z" fill="#ea4642"/><path d="m163.86 228.375c24.994-7.757 59.439-12.388 92.14-12.388s67.146 4.631 92.14 12.388c1.96.608 3.943.897 5.893.897 6.679 0 12.958-3.405 16.618-9.014-2.439-3.734-6.143-6.674-10.736-8.099-28.596-8.874-67.442-14.173-103.915-14.173s-75.319 5.299-103.915 14.173c-4.592 1.425-8.295 4.364-10.734 8.096 4.728 7.249 13.835 10.812 22.509 8.12z" fill="#d8e5ef"/><path d="m163.86 228.375c-1.931.599-3.883.885-5.805.893-3.281 10.466-9.494 32.307-15.012 63.097h225.914c-5.517-30.789-11.731-52.63-15.011-63.096-1.923-.009-3.875-.295-5.806-.894-24.994-7.757-59.44-12.388-92.14-12.388s-67.146 4.63-92.14 12.388z" fill="#ffd6bd"/><path d="m153.216 247.577c27.882-8.51 66.306-13.59 102.784-13.59s74.903 5.08 102.784 13.59c.139.043.279.071.419.111-2.078-7.936-3.914-14.133-5.258-18.419-1.923-.009-3.875-.295-5.806-.894-24.994-7.757-59.44-12.388-92.14-12.388s-67.146 4.631-92.14 12.388c-1.931.599-3.883.885-5.805.893-1.344 4.286-3.18 10.484-5.258 18.42.14-.04.28-.069.42-.111z" fill="#f9c6aa"/><ellipse cx="256" cy="273.444" fill="#edbca4" rx="24.114" ry="24.114" transform="matrix(.616 -.788 .788 .616 -117.097 306.699)"/><path d="m256 279.558c-10.135 0-18.804-6.256-22.372-15.114-1.12 2.782-1.743 5.817-1.743 9 0 13.318 10.796 24.114 24.114 24.114s24.114-10.796 24.114-24.114c0-3.183-.623-6.218-1.743-9-3.566 8.858-12.235 15.114-22.37 15.114z" fill="#eaab92"/><path d="m231.885 273.444c0-4.019.989-7.805 2.728-11.137-10.881-4.51-27.699-9.13-40.978-2.262-21.435 11.087-28.826 25.87-43.979 30.305-5.557 1.626-12.306 1.364-18.626.38-9.571-1.491-16.542 8.797-11.741 17.209 8.571 15.017 24.793 31.933 54.389 31.933 38.727 0 61.312-27.914 71.47-44.895-7.865-3.972-13.263-12.12-13.263-21.533z" fill="#edf4fa"/><path d="m280.114 273.444c0-4.019-.989-7.805-2.728-11.137 10.881-4.51 27.699-9.13 40.978-2.262 21.435 11.087 28.826 25.87 43.979 30.305 5.556 1.626 12.306 1.364 18.626.38 9.571-1.491 16.542 8.797 11.741 17.209-8.571 15.017-24.793 31.933-54.389 31.933-38.727 0-61.312-27.914-71.47-44.895 7.866-3.972 13.263-12.12 13.263-21.533z" fill="#edf4fa"/><g><path d="m237.225 288.554c-12.258 15.743-32.815 33.317-63.546 33.317-27.21 0-43.11-14.298-52.158-28.274-3.715 3.434-5.147 9.231-2.231 14.341 8.571 15.017 24.793 31.933 54.389 31.933 38.727 0 61.312-27.914 71.47-44.895-3.082-1.555-5.776-3.759-7.924-6.422z" fill="#d8e5ef"/></g><g><path d="m390.479 293.597c-9.048 13.976-24.949 28.274-52.158 28.274-30.731 0-51.288-17.574-63.546-33.317-2.148 2.663-4.842 4.867-7.923 6.423 10.158 16.981 32.742 44.895 71.47 44.895 29.596 0 45.818-16.916 54.389-31.933 2.915-5.111 1.483-10.908-2.232-14.342z" fill="#d8e5ef"/></g><path d="m266.851 294.977c-3.263 1.647-6.947 2.581-10.851 2.581s-7.589-.934-10.851-2.581c-8.689 14.525-26.481 37.034-55.68 43.245 14.49 47.216 58.011 65.584 66.531 65.584s52.041-18.368 66.531-65.584c-29.199-6.211-46.991-28.72-55.68-43.245z" fill="#edf4fa"/><path d="m256 385.806c-7.463 0-41.784-14.098-59.921-49.332-2.138.67-4.335 1.264-6.61 1.748 14.49 47.216 58.011 65.584 66.531 65.584s52.041-18.368 66.531-65.584c-2.275-.484-4.472-1.077-6.61-1.748-18.138 35.235-52.458 49.332-59.921 49.332z" fill="#d8e5ef"/><path d="m355.64 456.51c-17.693 7.707-44.878 16.319-80.149 17.862-.233 1.355-.366 2.733-.366 4.134 0 18.373 20.6 25.494 46.011 25.494s46.011-7.122 46.011-25.494c.001-8.435-4.35-16.132-11.507-21.996z" fill="#565e75"/><path d="m365.15 468.817c-1.94-4.604-5.214-8.787-9.51-12.307-17.693 7.707-44.878 16.319-80.149 17.862-.233 1.355-.366 2.733-.366 4.134 0 5.519 1.87 10.015 5.159 13.616 33.398-2.101 59.174-10.481 76.05-17.912 3.218-1.418 6.161-3.251 8.816-5.393z" fill="#4b5165"/><path d="m156.36 456.51c-7.157 5.864-11.507 13.561-11.507 21.996 0 18.373 20.6 25.494 46.011 25.494s46.011-7.122 46.011-25.494c0-1.401-.134-2.779-.366-4.134-35.271-1.543-62.456-10.155-80.149-17.862z" fill="#565e75"/><path d="m156.36 456.51c-4.296 3.52-7.57 7.703-9.51 12.307 2.655 2.142 5.598 3.975 8.816 5.392 16.876 7.431 42.651 15.811 76.049 17.912 3.289-3.6 5.159-8.097 5.159-13.616 0-1.401-.134-2.779-.366-4.134-35.27-1.542-62.455-10.154-80.148-17.861z" fill="#4b5165"/></g><path d="m437.594 354.001-39.644-39.645c.538-.87 1.057-1.736 1.546-2.592 3.686-6.457 3.356-14.27-.86-20.388-4.184-6.072-11.312-9.138-18.587-8.005-1.68.262-3.284.445-4.811.559-4.079-21.367-8.382-37.999-11.519-48.896 7.835-2.877 14.083-9.233 16.679-17.597 4.481-14.438-3.62-29.831-18.06-34.313-4.05-1.257-8.305-2.441-12.719-3.554-9.243-47.844-23.4-92.176-40.045-125.281-12.455-24.765-31.859-54.289-53.583-54.289-13.93 0-28.492 12.046-43.281 35.803-2.193 3.523-1.115 8.158 2.408 10.351 3.524 2.192 8.158 1.115 10.351-2.409 11.194-17.981 22.604-28.716 30.522-28.716 4.623 0 10.744 3.849 17.235 10.837 7.464 8.037 15.389 20.201 22.919 35.176 15.302 30.433 28.457 70.914 37.437 114.954-24.125-4.734-51.47-7.409-77.591-7.409s-53.465 2.674-77.59 7.409c8.133-39.819 19.847-77.289 33.364-106.507 1.743-3.767.102-8.233-3.664-9.976-3.768-1.742-8.233-.101-9.976 3.664-14.957 32.329-27.275 72.489-35.747 116.39-4.419 1.113-8.678 2.299-12.733 3.557-14.438 4.482-22.539 19.874-18.059 34.313 2.171 6.995 6.936 12.725 13.416 16.136 1.064.56 2.155 1.041 3.264 1.454-3.137 10.897-7.441 27.532-11.52 48.903-1.528-.115-3.131-.298-4.812-.56-7.279-1.134-14.404 1.933-18.588 8.005-4.216 6.118-4.545 13.931-.86 20.388.489.856 1.007 1.722 1.546 2.592l-39.644 39.644c-14.396 14.396-14.396 37.821 0 52.218 7.199 7.198 16.654 10.797 26.109 10.797 8.547 0 17.088-2.951 23.968-8.833-.052 4.162-.074 8.323-.055 12.483.07 15.282 7.554 29.375 19.66 38.038-4.534 6.095-6.958 13.04-6.958 20.236 0 9.94 5.225 33.059 53.616 33.059 43.226 0 52.008-18.446 53.39-29.469 3.874.052 7.828.026 11.874-.099 2.828.088 5.611.13 8.354.13 1.182 0 2.353-.011 3.52-.026 1.384 11.023 10.168 29.465 53.39 29.465 48.391 0 53.615-23.119 53.615-33.059 0-7.195-2.424-14.14-6.958-20.236 12.106-8.663 19.59-22.756 19.66-38.038.019-4.16-.003-8.322-.055-12.483 6.88 5.881 15.421 8.832 23.967 8.832 9.455 0 18.911-3.599 26.11-10.797 6.974-6.974 10.815-16.247 10.815-26.109-.001-9.861-3.843-19.133-10.816-26.107zm-283.494-156.521c27.972-8.681 66.062-13.863 101.891-13.863 35.83 0 73.92 5.182 101.89 13.863 6.524 2.025 10.186 8.98 8.161 15.504-1.618 5.217-6.371 8.722-11.826 8.722-1.24 0-2.477-.189-3.678-.562-10.351-3.213-22.211-5.912-35.249-8.023-4.099-.667-7.957 2.12-8.619 6.217-.663 4.097 2.119 7.955 6.216 8.619 12.345 1.999 23.515 4.537 33.198 7.542.754.234 1.516.426 2.283.594 2.811 9.456 6.924 24.706 10.965 44.832-4.007-2.256-7.762-5.549-12.165-9.416-6.585-5.785-14.05-12.342-25.238-18.129-13.462-6.965-29.224-4.447-41.63-.182-5.815-6.958-14.552-11.394-24.309-11.394-9.756 0-18.493 4.436-24.309 11.394-12.406-4.265-28.166-6.783-41.631.182-11.188 5.787-18.652 12.344-25.237 18.129-4.403 3.867-8.158 7.161-12.165 9.416 4.041-20.125 8.154-35.373 10.965-44.83.765-.168 1.527-.361 2.284-.596 24.361-7.561 58.04-12.074 90.093-12.074 9.032 0 18.314.361 27.588 1.072 4.144.321 7.749-2.78 8.067-6.918.317-4.138-2.781-7.75-6.919-8.067-9.654-.741-19.322-1.116-28.737-1.116-33.48 0-68.825 4.766-94.548 12.75-3.16.98-6.513.671-9.44-.869-2.928-1.542-5.082-4.131-6.063-7.292-2.023-6.526 1.638-13.481 8.162-15.505zm118.538 75.998c0 9.179-7.468 16.647-16.647 16.647-9.18 0-16.647-7.468-16.647-16.647s7.468-16.647 16.647-16.647 16.647 7.468 16.647 16.647zm-156.659 122.114c-8.537 8.536-22.427 8.536-30.964 0-8.536-8.537-8.537-22.427 0-30.964l5.828-5.828 30.965 30.963zm9.798-23.113-24.306-24.306 21.734-21.734c1.878 2.016 3.931 3.972 6.154 5.836-1.557 13.288-2.76 26.709-3.582 40.204zm-.238-68.164c-1.168-2.046-.261-3.766.183-4.41.428-.622 1.662-2.032 3.899-1.682 8.62 1.343 15.998 1.142 21.93-.593 9.449-2.765 16.12-8.626 23.183-14.831 6.228-5.471 12.669-11.129 22.224-16.071 8.532-4.414 19.65-2.543 28.065.105-.46 2.144-.707 4.366-.707 6.646 0 9.366 4.089 17.791 10.572 23.596-10.581 15.338-30.367 35.447-61.377 35.447-21.151-.001-37.29-9.491-47.972-28.207zm65.188 192.656c-11.602 0-38.587-1.757-38.587-18.029 0-4.623 1.97-9.204 5.608-13.217 16.984 6.9 41.049 14 71.24 16.165-3.07 13.54-27.402 15.081-38.261 15.081zm130.528 0c-10.857 0-35.184-1.541-38.262-15.075 30.191-2.163 54.255-9.271 71.239-16.171 3.639 4.013 5.608 8.594 5.608 13.217.001 16.272-26.983 18.029-38.585 18.029zm32.238-47.247c-20.077 8.841-53.246 19.079-97.262 17.679-.16-.005-.32-.005-.48 0-44.016 1.402-77.185-8.838-97.262-17.678-11.515-5.071-18.993-16.503-19.05-29.125-.121-26.564 1.23-53.194 4.016-79.328 8.291 3.855 18.212 6.279 30.053 6.279 3.74 0 7.337-.24 10.802-.681 3.3 8.776 7.71 17.059 13.193 24.676 1.468 2.04 3.77 3.125 6.105 3.125 1.52 0 3.056-.46 4.384-1.416 3.368-2.425 4.133-7.121 1.708-10.489-4.295-5.967-7.833-12.408-10.573-19.218 23.965-7.816 39.87-25.564 49.097-39.358 2.486.629 5.087.966 7.766.966s5.28-.337 7.766-.966c9.226 13.793 25.129 31.54 49.093 39.357-15.076 37.362-50.268 52.766-56.825 53.036-2.077-.085-13.602-3.603-26.886-13.823-3.291-2.531-8.008-1.916-10.538 1.374-2.531 3.289-1.916 8.007 1.374 10.538 14.301 11.003 29.231 16.94 36.017 16.94 12.003 0 54.656-19.574 71.674-64.742 3.466.441 7.066.682 10.807.682 11.843 0 21.76-2.431 30.054-6.287 2.787 26.137 4.138 52.77 4.017 79.336-.058 12.62-7.535 24.052-19.05 29.123zm-15.02-117.203c-31.012 0-50.796-20.108-61.376-35.447 6.482-5.804 10.571-14.23 10.571-23.595 0-2.28-.247-4.501-.707-6.646 8.413-2.649 19.532-4.519 28.065-.105 9.555 4.942 15.995 10.6 22.223 16.071 7.063 6.205 13.735 12.066 23.183 14.83 5.932 1.737 13.31 1.936 21.929.593 2.227-.347 3.47 1.06 3.898 1.682.444.644 1.351 2.364.183 4.41-10.683 18.717-26.822 28.207-47.969 28.207zm47.732 39.956c-.822-13.491-2.024-26.91-3.581-40.195 2.226-1.865 4.272-3.826 6.152-5.844l21.735 21.735zm40.762 23.115c-8.537 8.536-22.429 8.537-30.964 0l-5.829-5.828 30.964-30.964 5.829 5.828c4.135 4.135 6.413 9.634 6.413 15.482s-2.278 11.347-6.413 15.482z"/></g></svg>