<svg id="Capa_1" enable-background="new 0 0 511.991 511.991" height="512" viewBox="0 0 511.991 511.991" width="512" xmlns="http://www.w3.org/2000/svg"><g><path d="m420.17 399.638h-328.348c-21.019 0-39.066-14.95-42.976-35.602l-40.739-215.159c-4.014-21.202 12.244-40.828 33.823-40.828h428.131c21.579 0 37.837 19.626 33.823 40.828l-40.739 215.159c-3.91 20.652-21.957 35.602-42.975 35.602z" fill="#365e7d"/><path d="m470.061 108.049h-22.996c21.579 0 37.837 19.626 33.823 40.828l-40.738 215.159c-3.91 20.652-21.957 35.602-42.976 35.602h22.995c21.019 0 39.066-14.95 42.976-35.602l40.739-215.159c4.015-21.202-12.244-40.828-33.823-40.828z" fill="#2b4d66"/><path d="m365.738 319.852h-219.485c-15.687 0-29.037-11.423-31.464-26.92l-28.952-184.883h340.317l-28.953 184.883c-2.426 15.498-15.777 26.92-31.463 26.92z" fill="#b1e4f9" stroke="#b1e4f9" stroke-miterlimit="10"/><path d="m402.67 108.049-28.953 184.883c-2.427 15.498-15.777 26.92-31.464 26.92h23.484c15.687 0 29.037-11.423 31.464-26.92l28.953-184.883z" fill="#90d8f9"/><path d="m176.453 108.049h-55.168v-20.158c0-3.282 2.66-5.942 5.942-5.942h43.284c3.282 0 5.942 2.66 5.942 5.942z" fill="#dd636e"/><g fill="#2b4d66"><path d="m180.364 430.042h-51.704c-8.092 0-14.652-6.56-14.652-14.652v-15.752h81.007v15.752c.001 8.092-6.559 14.652-14.651 14.652z"/><path d="m383.331 430.042h-51.704c-8.092 0-14.652-6.56-14.652-14.652v-15.752h81.007v15.752c.001 8.092-6.559 14.652-14.651 14.652z"/></g><g><path d="m176.453 265.395c4.142 0 7.5-3.357 7.5-7.5v-87.888c0-4.143-3.358-7.5-7.5-7.5h-18.785c-4.142 0-7.5 3.357-7.5 7.5s3.358 7.5 7.5 7.5h11.285v80.388c0 4.143 3.358 7.5 7.5 7.5z"/><path d="m215.099 265.395c4.142 0 7.5-3.357 7.5-7.5v-87.888c0-4.143-3.358-7.5-7.5-7.5h-18.785c-4.142 0-7.5 3.357-7.5 7.5s3.358 7.5 7.5 7.5h11.285v80.388c0 4.143 3.358 7.5 7.5 7.5z"/><path d="m354.323 265.395c4.143 0 7.5-3.357 7.5-7.5v-87.888c0-4.143-3.357-7.5-7.5-7.5h-18.785c-4.143 0-7.5 3.357-7.5 7.5s3.357 7.5 7.5 7.5h11.285v80.388c0 4.143 3.358 7.5 7.5 7.5z"/><path d="m298.179 160.713c-18.149 0-32.915 14.766-32.915 32.915v40.646c0 18.149 14.766 32.915 32.915 32.915s32.915-14.766 32.915-32.915v-40.646c0-18.149-14.766-32.915-32.915-32.915zm17.915 73.561c0 9.878-8.037 17.915-17.915 17.915s-17.915-8.037-17.915-17.915v-40.646c0-9.878 8.037-17.915 17.915-17.915s17.915 8.037 17.915 17.915z"/><path d="m245.1 201.321c4.142 0 7.5-3.357 7.5-7.5v-5.375c0-4.143-3.358-7.5-7.5-7.5s-7.5 3.357-7.5 7.5v5.375c0 4.142 3.358 7.5 7.5 7.5z"/><path d="m237.6 239.456c0 4.143 3.358 7.5 7.5 7.5s7.5-3.357 7.5-7.5v-5.375c0-4.143-3.358-7.5-7.5-7.5s-7.5 3.357-7.5 7.5z"/><path d="m502.346 115.728c-7.991-9.646-19.759-15.179-32.284-15.179h-286.109v-12.658c0-7.412-6.03-13.441-13.442-13.441h-43.284c-7.412 0-13.442 6.029-13.442 13.441v12.658h-71.855c-12.526 0-24.293 5.532-32.284 15.178-7.992 9.646-11.238 22.238-8.908 34.546l40.739 215.158c4.576 24.167 25.749 41.707 50.345 41.707h14.687v8.252c0 12.214 9.938 22.151 22.152 22.151h51.704c12.214 0 22.152-9.938 22.152-22.151v-8.252h106.96v8.252c0 12.214 9.938 22.151 22.151 22.151h51.704c12.214 0 22.151-9.938 22.151-22.151v-8.252h14.688c24.596 0 45.77-17.54 50.345-41.707l11.748-62.047c.771-4.07-1.904-7.994-5.974-8.765-4.068-.768-7.994 1.904-8.765 5.974l-11.748 62.047c-3.236 17.093-18.211 29.498-35.606 29.498h-328.35c-17.396 0-32.371-12.405-35.606-29.498l-40.739-215.158c-1.497-7.904.588-15.99 5.721-22.185 5.132-6.195 12.689-9.748 20.733-9.748h37.49l9.249 59.063c.579 3.699 3.77 6.341 7.4 6.341.386 0 .777-.029 1.169-.091 4.092-.642 6.89-4.479 6.25-8.57l-8.886-56.743h322.785l-27.597 176.223c-1.867 11.926-11.983 20.581-24.054 20.581h-219.482c-12.07 0-22.187-8.655-24.055-20.581l-14.014-89.493c-.641-4.092-4.481-6.889-8.57-6.25-4.092.642-6.89 4.479-6.25 8.57l14.014 89.493c3.019 19.272 19.367 33.261 38.874 33.261h219.484c19.507 0 35.855-13.988 38.874-33.261l27.959-178.543h37.491c8.044 0 15.601 3.553 20.732 9.748 5.133 6.194 7.218 14.281 5.721 22.185l-23.41 123.642c-.771 4.07 1.904 7.994 5.974 8.765 4.07.77 7.994-1.904 8.765-5.974l23.41-123.642c2.33-12.308-.916-24.899-8.907-34.545zm-111.863 291.41v8.252c0 3.943-3.208 7.151-7.151 7.151h-51.704c-3.943 0-7.151-3.208-7.151-7.151v-8.252zm-202.967 0v8.252c0 3.943-3.208 7.151-7.152 7.151h-51.704c-3.943 0-7.152-3.208-7.152-7.151v-8.252zm-58.731-306.589v-11.1h40.168v11.1z"/></g></g></svg>