<svg id="Capa_1" enable-background="new 0 0 512 512" height="512" viewBox="0 0 512 512" width="512" xmlns="http://www.w3.org/2000/svg"><g><path d="m403.23 135.495-33.804-37.679-19.636-63.139-93.79-10.824v-.022l-.097.011-.097-.011v.022l-93.79 10.824-19.636 63.139-33.804 37.679-54.134 1.021v149.19l5.14 93.728 55.114 6.451 26.87 39.367 20.399 49.954 66.427 9.485h27.414.194 27.415l66.427-9.485 20.398-49.954 26.87-39.367 55.114-6.451 5.14-93.728v-149.19z" fill="#664545"/><g fill="#523838"><path d="m369.426 97.816-19.636-63.139-93.79-10.824v-.022l-.097.011-.097-.011v.022l-93.79 10.824-19.636 63.139-33.804 37.679-54.134 1.021v33.358h34.747c51.838 0 94.011-42.173 94.011-94.01 0-7.571 6.159-13.73 13.73-13.73h118.141c7.57 0 13.729 6.159 13.729 13.73 0 51.837 42.174 94.01 94.012 94.01h34.552v-33.358l-54.134-1.021z"/><path d="m452.224 379.434 2.046-37.309h-31.458c-51.838 0-94.012 42.173-94.012 94.011 0 7.571-6.159 13.73-13.729 13.73h-118.14c-7.571 0-13.73-6.159-13.73-13.73 0-51.838-42.173-94.011-94.011-94.011h-31.654l2.046 37.309 55.114 6.451 26.87 39.367 20.398 49.954 66.427 9.486h27.414.195 27.414l66.427-9.486 20.399-49.954 26.87-39.367z"/></g><path d="m42.704 136.516h33.756v242.918h-33.756z" fill="#eab14d"/><path d="m435.54 136.516h33.756v242.918h-33.756z" fill="#eab14d"/><g fill="#e49542"><path d="m42.705 171.791c1.014.174 2.049.284 3.113.284h30.642v-35.559h-33.755z"/><path d="m435.54 172.075h30.643c1.063 0 2.099-.11 3.113-.284v-35.275h-33.756z"/><path d="m435.54 378.442h30.643c1.063 0 2.099-.11 3.113-.284v-36.066c-1.014-.174-2.049-.284-3.113-.284h-30.643z"/><path d="m42.705 378.158c1.014.174 2.049.284 3.113.284h30.642v-36.634h-30.643c-1.063 0-2.099.11-3.113.284v36.066z"/></g><g><path d="m466.183 151.874h-43.371c-41.913 0-76.012-34.099-76.012-76.011 0-17.497-14.234-31.73-31.729-31.73h-118.14c-17.497 0-31.73 14.234-31.73 31.73 0 41.912-34.099 76.011-76.011 76.011h-43.373c-10.116 0-18.317-8.201-18.317-18.317s8.201-18.317 18.317-18.317h43.373c21.712 0 39.377-17.665 39.377-39.377 0-37.696 30.668-68.364 68.364-68.364h118.141c37.695 0 68.363 30.668 68.363 68.364 0 21.712 17.665 39.377 39.378 39.377h43.371c10.116 0 18.317 8.201 18.317 18.317s-8.202 18.317-18.318 18.317z" fill="#8b5e5e"/></g><g fill="#785252"><path d="m363.434 75.864c0 21.712 17.665 39.377 39.378 39.377h20c-21.713 0-39.378-17.665-39.378-39.377 0-37.696-30.668-68.364-68.363-68.364h-20c37.696 0 68.363 30.667 68.363 68.364z"/><path d="m466.183 115.241h-20c10.116 0 18.317 8.201 18.317 18.317s-8.201 18.317-18.317 18.317h20c10.116 0 18.317-8.201 18.317-18.317 0-10.117-8.201-18.317-18.317-18.317z"/></g><g><path d="m466.183 360.125h-43.371c-41.913 0-76.012 34.099-76.012 76.011 0 17.496-14.234 31.73-31.729 31.73h-118.14c-17.497 0-31.73-14.234-31.73-31.73 0-41.912-34.099-76.011-76.011-76.011h-43.373c-10.116 0-18.317 8.201-18.317 18.317s8.201 18.317 18.317 18.317h43.373c21.712 0 39.377 17.665 39.377 39.377 0 37.696 30.668 68.364 68.364 68.364h118.141c37.695 0 68.363-30.668 68.363-68.364 0-21.712 17.665-39.377 39.378-39.377h43.371c10.116 0 18.317-8.201 18.317-18.317s-8.202-18.317-18.318-18.317z" fill="#8b5e5e"/></g><g fill="#785252"><path d="m363.434 436.135c0 37.696-30.668 68.364-68.363 68.364h20c37.695 0 68.363-30.668 68.363-68.364 0-21.712 17.665-39.377 39.378-39.377h-20c-21.713.001-39.378 17.665-39.378 39.377z"/><path d="m466.183 360.125h-20c10.116 0 18.317 8.201 18.317 18.317s-8.201 18.317-18.317 18.317h20c10.116 0 18.317-8.201 18.317-18.317s-8.201-18.317-18.317-18.317z"/></g><circle cx="256" cy="256" fill="#f4fbff" r="93.984"/><path d="m256 162.016c-3.998 0-7.937.252-11.804.736 46.334 5.806 82.18 45.34 82.18 93.248s-35.846 87.441-82.18 93.248c3.867.485 7.806.736 11.804.736 51.906 0 93.984-42.078 93.984-93.984s-42.078-93.984-93.984-93.984z" fill="#daf1f4"/><circle cx="256" cy="102.589" fill="#f4fbff" r="32.906"/><path d="m256 69.683c-3.196 0-6.281.464-9.203 1.314 13.693 3.982 23.704 16.614 23.704 31.592s-10.011 27.61-23.704 31.592c2.921.85 6.007 1.314 9.203 1.314 18.174 0 32.906-14.733 32.906-32.906 0-18.174-14.732-32.906-32.906-32.906z" fill="#daf1f4"/><path d="m275.946 437.102h-39.892c-4.232 0-7.663-3.431-7.663-7.663v-19.946c0-15.248 12.361-27.608 27.608-27.608 15.248 0 27.608 12.361 27.608 27.608v19.946c.002 4.232-3.429 7.663-7.661 7.663z" fill="#8b5e5e"/><path d="m256 381.885c-3.102 0-6.081.519-8.864 1.463 10.898 3.694 18.745 14 18.745 26.146v19.946c0 4.232-3.43 7.662-7.661 7.663h17.726c4.232 0 7.663-3.431 7.663-7.663v-19.946c0-15.249-12.361-27.609-27.609-27.609z" fill="#785252"/><g><path d="m476.796 354.916v-197.833c8.955-4.056 15.204-13.071 15.204-23.525 0-14.235-11.581-25.817-25.816-25.817h-43.371c-17.577 0-31.878-14.3-31.878-31.876 0-41.833-34.033-75.865-75.864-75.865h-60.224c-4.143 0-7.5 3.357-7.5 7.5s3.357 7.5 7.5 7.5h60.224c33.561 0 60.863 27.304 60.863 60.864 0 25.848 21.029 46.876 46.878 46.876h43.371c5.964 0 10.816 4.853 10.816 10.817 0 5.273-3.796 9.672-8.798 10.621-2.056.304 2.481.173-45.389.196-37.777 0-68.512-30.733-68.512-68.51 0-21.632-17.599-39.23-39.229-39.23h-118.14c-21.632 0-39.23 17.599-39.23 39.23 0 37.776-30.733 68.51-68.511 68.51-47.826-.023-43.386.106-45.388-.196-5.004-.948-8.802-5.346-8.802-10.62 0-5.965 4.853-10.817 10.817-10.817h43.372c25.848 0 46.877-21.028 46.877-46.876 0-33.561 27.304-60.865 60.865-60.865h27.931c4.143 0 7.5-3.357 7.5-7.5s-3.357-7.5-7.5-7.5h-27.931c-41.832 0-75.864 34.032-75.864 75.864 0 17.576-14.3 31.876-31.877 31.876h-43.373c-14.235 0-25.817 11.582-25.817 25.818 0 10.453 6.249 19.469 15.204 23.525v197.834c-8.955 4.056-15.204 13.071-15.204 23.524 0 14.235 11.582 25.817 25.817 25.817h43.372c17.577 0 31.877 14.3 31.877 31.877 0 41.832 34.032 75.864 75.864 75.864h118.141c41.831 0 75.863-34.032 75.863-75.864 0-17.577 14.301-31.877 31.878-31.877h43.371c14.235 0 25.816-11.582 25.816-25.817.001-10.453-6.248-19.469-15.203-23.525zm-304.096-279.052c0-13.36 10.87-24.23 24.23-24.23h118.141c13.36 0 24.229 10.87 24.229 24.23 0 46.048 37.463 83.51 83.512 83.51h5.228v78.961c0 4.143 3.357 7.5 7.5 7.5s7.5-3.357 7.5-7.5v-78.961h18.756v193.251h-18.756v-84.303c0-4.143-3.357-7.5-7.5-7.5s-7.5 3.357-7.5 7.5v84.303h-5.228c-46.049 0-83.512 37.463-83.512 83.511 0 13.36-10.869 24.23-24.229 24.23h-118.14c-13.36 0-24.23-10.87-24.23-24.23 0-46.048-37.463-83.511-83.511-83.511h-5.23v-193.251h5.229c46.048 0 83.511-37.462 83.511-83.51zm-103.74 83.51v193.251h-18.756v-193.251zm397.224 229.885h-43.371c-25.849 0-46.878 21.029-46.878 46.877 0 33.561-27.303 60.864-60.863 60.864h-118.141c-33.561 0-60.864-27.304-60.864-60.864 0-25.848-21.029-46.877-46.877-46.877h-43.373c-5.965 0-10.817-4.853-10.817-10.817 0-5.321 3.871-9.772 8.972-10.64 1.609-.277-1.544-.154 45.218-.177 37.777 0 68.511 30.733 68.511 68.511 0 21.632 17.599 39.23 39.23 39.23h118.141c21.631 0 39.229-17.599 39.229-39.23 0-37.777 30.734-68.511 68.512-68.511 47.331.023 43.469-.099 45.325.186 5.033.924 8.862 5.334 8.862 10.63 0 5.965-4.853 10.818-10.816 10.818z"/><path d="m256 142.995c22.28 0 40.406-18.126 40.406-40.406s-18.126-40.406-40.406-40.406-40.406 18.126-40.406 40.406 18.126 40.406 40.406 40.406zm0-65.812c14.009 0 25.406 11.397 25.406 25.406s-11.397 25.406-25.406 25.406-25.406-11.397-25.406-25.406 11.397-25.406 25.406-25.406z"/><path d="m256 110.089c4.143 0 7.5-3.357 7.5-7.5v-9.546c0-4.143-3.357-7.5-7.5-7.5s-7.5 3.357-7.5 7.5v9.546c0 4.142 3.357 7.5 7.5 7.5z"/><path d="m256 201.11c4.143 0 7.5-3.357 7.5-7.5v-3.45c0-4.143-3.357-7.5-7.5-7.5s-7.5 3.357-7.5 7.5v3.45c0 4.143 3.357 7.5 7.5 7.5z"/><path d="m307.86 204.14c-2.93-2.928-7.678-2.928-10.607 0l-2.44 2.44c-2.929 2.93-2.929 7.678 0 10.607 1.465 1.464 3.385 2.196 5.304 2.196s3.839-.732 5.304-2.196l2.44-2.44c2.928-2.93 2.928-7.678-.001-10.607z"/><path d="m321.841 263.5c4.143 0 7.5-3.357 7.5-7.5s-3.357-7.5-7.5-7.5h-3.451c-4.143 0-7.5 3.357-7.5 7.5s3.357 7.5 7.5 7.5z"/><path d="m305.418 294.812c-2.93-2.93-7.679-2.929-10.606.003-2.928 2.929-2.927 7.678.003 10.606l2.439 2.439c1.465 1.464 3.384 2.195 5.303 2.195 1.92 0 3.84-.732 5.305-2.198 2.928-2.929 2.927-7.678-.003-10.606z"/><path d="m248.5 321.84c0 4.143 3.357 7.5 7.5 7.5s7.5-3.357 7.5-7.5v-3.45c0-4.143-3.357-7.5-7.5-7.5s-7.5 3.357-7.5 7.5z"/><path d="m214.748 307.859 2.439-2.439c2.929-2.93 2.929-7.678 0-10.607-2.93-2.928-7.678-2.928-10.607 0l-2.439 2.439c-2.929 2.93-2.929 7.678 0 10.607 1.465 1.464 3.385 2.196 5.304 2.196s3.838-.732 5.303-2.196z"/><path d="m190.16 248.5c-4.143 0-7.5 3.357-7.5 7.5s3.357 7.5 7.5 7.5h3.45c4.143 0 7.5-3.357 7.5-7.5s-3.357-7.5-7.5-7.5z"/><path d="m211.884 219.384c1.919 0 3.838-.732 5.302-2.195 2.93-2.929 2.931-7.678.003-10.606l-2.439-2.44c-2.929-2.931-7.678-2.93-10.606-.003-2.93 2.929-2.931 7.678-.003 10.607l2.439 2.439c1.464 1.465 3.384 2.198 5.304 2.198z"/><path d="m248.5 256c0 4.143 3.357 7.5 7.5 7.5h17.134c4.143 0 7.5-3.357 7.5-7.5s-3.357-7.5-7.5-7.5h-9.634v-29.657c0-4.143-3.357-7.5-7.5-7.5s-7.5 3.357-7.5 7.5z"/><path d="m384.48 305.942c-3.283 2.524-3.898 7.233-1.373 10.518 2.522 3.282 7.23 3.899 10.518 1.373.502-.385 1.227-.293 1.612.21.729.946.726 1.94.659 2.448s-.318 1.469-1.265 2.196c-1.272.979-2.847 1.404-4.446 1.197-1.593-.208-3.009-1.024-3.988-2.297-2.522-3.284-7.232-3.899-10.517-1.374-3.284 2.524-3.899 7.233-1.374 10.517 3.422 4.45 8.372 7.302 13.938 8.028.924.12 1.846.18 2.763.18 4.604 0 9.058-1.507 12.769-4.36 3.878-2.982 6.361-7.296 6.994-12.146s-.661-9.656-3.644-13.534c-5.427-7.054-15.584-8.384-22.646-2.956z"/><path d="m353.397 336.989c-7.677 3.143-17.937 10.382-23.854 27.054-1.385 3.902.423 8.374 4.295 9.84.878.333 1.778.49 2.661.49 3.103 0 6.005-1.94 7.083-5.035 4.073-11.694 10.947-16.49 15.53-18.442 2.838-1.209 4.595-4.091 4.506-7.174-.148-5.184-5.422-8.697-10.221-6.733z"/><path d="m108.224 334.577c3.711 2.854 8.164 4.361 12.77 4.361.916 0 1.839-.06 2.763-.18 5.565-.727 10.516-3.577 13.938-8.027 2.525-3.283 1.91-7.992-1.373-10.518-3.286-2.525-7.992-1.911-10.518 1.373-.979 1.273-2.396 2.09-3.989 2.298-1.591.207-3.171-.217-4.445-1.197-.946-.728-1.198-1.688-1.265-2.196s-.069-1.502.659-2.448c.387-.503 1.112-.595 1.612-.21 3.284 2.524 7.993 1.908 10.518-1.373 2.525-3.284 1.91-7.993-1.373-10.518-7.059-5.428-17.219-4.102-22.647 2.956-2.981 3.877-4.275 8.684-3.643 13.533.632 4.851 3.116 9.165 6.993 12.146z"/><path d="m148.212 349.576c.028.001 3.14.252 6.949 2.363 5.919 3.28 10.379 9.134 13.257 17.397 1.078 3.096 3.98 5.035 7.083 5.035.818 0 1.65-.135 2.467-.419 3.912-1.362 5.979-5.638 4.616-9.55-10.032-28.804-32.969-29.793-33.94-29.821-4.122-.137-7.594 3.141-7.713 7.281-.119 4.141 3.14 7.595 7.281 7.714z"/><path d="m375.68 191.785c3.285 2.524 7.991 1.909 10.518-1.373.979-1.273 2.396-2.089 3.988-2.297 1.595-.204 3.172.217 4.447 1.197.945.728 1.197 1.688 1.264 2.196.066.508.069 1.501-.658 2.447-.387.503-1.112.595-1.613.21-3.287-2.526-7.995-1.909-10.518 1.373-2.525 3.284-1.91 7.993 1.373 10.518 2.929 2.252 6.391 3.342 9.827 3.341 4.847 0 9.644-2.167 12.819-6.296 2.982-3.877 4.276-8.684 3.644-13.534s-3.117-9.164-6.994-12.146c-4.449-3.422-9.971-4.905-15.531-4.181-5.566.727-10.517 3.577-13.938 8.026-2.527 3.285-1.912 7.994 1.372 10.519z"/><path d="m353.442 175.028c4.791 1.954 10.057-1.522 10.245-6.693.115-3.149-1.769-5.991-4.673-7.214-4.591-1.933-11.338-6.706-15.432-18.459-1.461-4.193-6.269-6.266-10.385-4.269-3.481 1.688-4.962 5.871-3.671 9.517 5.927 16.737 16.228 23.983 23.916 27.118z"/><path d="m115.585 209.269c.71.093 1.418.139 2.122.139 3.539 0 6.961-1.157 9.813-3.351 3.283-2.524 3.898-7.233 1.373-10.518-2.523-3.283-7.23-3.899-10.518-1.373-.5.386-1.225.294-1.613-.211-.728-.945-.725-1.938-.658-2.446.066-.509.318-1.469 1.266-2.197 2.627-2.021 6.412-1.527 8.435 1.102 2.524 3.283 7.233 3.899 10.518 1.371 3.283-2.525 3.896-7.234 1.371-10.518-3.422-4.448-8.372-7.299-13.938-8.025-5.564-.725-11.081.76-15.529 4.181-3.878 2.981-6.362 7.295-6.995 12.146s.661 9.657 3.643 13.533c2.628 3.419 6.432 5.609 10.71 6.167z"/><path d="m158.739 174.954c7.717-3.195 17.984-10.529 23.845-27.358 1.426-4.094-.904-8.586-5.173-9.72-3.836-1.02-7.755 1.302-9.083 5.043-4.047 11.407-10.771 16.164-15.32 18.134-2.86 1.239-4.719 4.042-4.63 7.157.152 5.25 5.508 8.753 10.361 6.744z"/><path d="m256 374.385c-19.358 0-35.108 15.75-35.108 35.108v19.946c0 8.36 6.802 15.162 15.163 15.162h39.892c8.36 0 15.162-6.802 15.162-15.162v-19.946c-.001-19.358-15.751-35.108-35.109-35.108zm20.108 55.054c0 .09-.072.162-.162.162h-39.892c-.09 0-.163-.072-.163-.162v-19.946c0-11.088 9.021-20.108 20.108-20.108s20.108 9.021 20.108 20.108v19.946z"/><path d="m186.52 329.961c3.017 2.837 7.764 2.691 10.601-.329 2.837-3.018 2.689-7.765-.329-10.601-17.588-16.529-27.274-38.914-27.274-63.031 0-47.688 38.796-86.484 86.483-86.484s86.484 38.797 86.484 86.484-38.797 86.483-86.485 86.483c-12.684 0-24.907-2.687-36.331-7.983-3.758-1.744-8.218-.11-9.959 3.648-1.743 3.758-.109 8.217 3.648 9.959 13.416 6.222 27.763 9.376 42.642 9.376 55.959 0 101.484-45.525 101.484-101.483 0-55.959-45.525-101.484-101.484-101.484-55.958 0-101.483 45.525-101.483 101.484 0 27.891 11.664 54.849 32.003 73.961z"/></g></g></svg>