<svg id="Capa_1" enable-background="new 0 0 512 512" height="512" viewBox="0 0 512 512" width="512" xmlns="http://www.w3.org/2000/svg"><g><g><path d="m256 8c-136.967 0-248 111.033-248 248s111.033 248 248 248 248-111.033 248-248-111.033-248-248-248zm0 391.344c-79.167 0-143.344-64.177-143.344-143.344s64.177-143.344 143.344-143.344 143.344 64.177 143.344 143.344-64.177 143.344-143.344 143.344z" fill="#36ce94"/><g fill="#36bf84"><path d="m256 486c-133.952 0-243.081-106.204-247.82-239-.107 2.989-.18 5.986-.18 9 0 136.967 111.033 248 248 248s248-111.033 248-248c0-3.014-.073-6.011-.18-9-4.739 132.796-113.868 239-247.82 239z"/><path d="m256 94.656c-79.167 0-143.344 64.178-143.344 143.344 0 3.024.105 6.023.289 9 4.646-74.973 66.912-134.344 143.055-134.344s138.408 59.371 143.055 134.344c.185-2.977.29-5.976.29-9-.001-79.167-64.178-143.344-143.345-143.344z"/></g><g fill="#f7594e"><path d="m55.318 110.292c11.878 20.461 36.882 52.25 82.14 65.099 8.919-13.091 19.947-24.629 32.599-34.122l.001-.003c-64.118-6.735-83.853-65.293-84.035-65.837-11.283 10.627-21.567 22.3-30.705 34.863z"/><path d="m277.506 503.062v-105.324c-7.015 1.056-14.196 1.606-21.506 1.606s-14.491-.551-21.506-1.606v105.324c7.089.609 14.259.938 21.506.938s14.417-.329 21.506-.938z"/><path d="m128.064 320.708c-44.176 21.512-90.991 10.265-110.466 3.826 4.317 15.045 10.024 29.5 16.965 43.226 25.528 6.425 70.952 11.613 117.03-13.553-9.351-9.937-17.299-21.208-23.529-33.499z"/><path d="m456.682 110.292c-11.878 20.461-36.882 52.25-82.14 65.099-8.919-13.091-19.947-24.629-32.599-34.122l-.001-.003c64.118-6.735 83.853-65.293 84.035-65.837 11.283 10.627 21.567 22.3 30.705 34.863z"/><path d="m383.935 320.708c44.176 21.512 90.991 10.265 110.466 3.826-4.317 15.045-10.023 29.5-16.965 43.226-25.529 6.425-70.952 11.613-117.03-13.553 9.352-9.937 17.3-21.208 23.529-33.499z"/></g><g><path d="m194.534 256c-6.726 0-11.757-6.174-10.418-12.765 4.035-19.863 17.488-24.759 23.467-60.754 7.079-42.615 32.561-49.446 48.417-49.446s41.338 6.831 48.417 49.446c5.979 35.995 19.432 40.89 23.467 60.754 1.339 6.592-3.692 12.765-10.418 12.765z" fill="#ffe08c"/><path d="m326.513 238h-141.026c-.531 1.639-.992 3.371-1.371 5.235-1.339 6.592 3.692 12.765 10.418 12.765h122.932c6.726 0 11.757-6.174 10.418-12.765-.379-1.864-.84-3.596-1.371-5.235z" fill="#f9d375"/><path d="m239.514 101.004h32.972v32.031h-32.972z" fill="#cb3541"/><path d="m239.514 101.004s-35.694-37.695-55.615-24.562c-18.612 12.271-14.546 80.462 8.201 78.789s47.414-22.197 47.414-22.197z" fill="#f7594e"/><path d="m272.486 101.004s35.694-37.695 55.615-24.562c18.612 12.271 14.546 80.462-8.201 78.789s-47.414-22.197-47.414-22.197z" fill="#f7594e"/><path d="m239.514 115.035h32.972v18h-32.972z" fill="#ba3243"/><g fill="#ea4642"><path d="m172.571 103.941c-2.255 23.505 4.629 52.387 19.529 51.291 22.747-1.673 47.414-22.197 47.414-22.197v-18s-24.667 20.525-47.414 22.197c-11.192.823-17.858-15.27-19.529-33.291z"/><path d="m319.9 137.232c-22.747-1.673-47.414-22.197-47.414-22.197v18s24.667 20.525 47.414 22.197c14.901 1.096 21.784-27.786 19.529-51.291-1.671 18.021-8.337 34.114-19.529 33.291z"/></g></g><path d="m24.311 326.592c-2.491-.709-4.747-1.408-6.713-2.058 4.317 15.045 10.024 29.5 16.965 43.226 3.512.884 7.413 1.741 11.628 2.502-8.659-13.708-16.008-28.322-21.88-43.67z" fill="#ea4642"/><path d="m256 486c-7.247 0-14.417-.329-21.506-.938v18c7.089.609 14.259.938 21.506.938s14.417-.329 21.506-.938v-18c-7.089.609-14.259.938-21.506.938z" fill="#ea4642"/><path d="m465.809 370.262c4.215-.761 8.116-1.618 11.628-2.502 6.941-13.726 12.648-28.181 16.965-43.226-1.965.65-4.221 1.349-6.713 2.058-5.872 15.348-13.221 29.962-21.88 43.67z" fill="#ea4642"/><path d="m341.941 141.266.001.003c12.652 9.493 23.68 21.031 32.599 34.122 3.093-.878 6.083-1.852 8.989-2.898-6.527-12.681-14.894-24.257-24.741-34.388-5.24 1.447-10.849 2.531-16.848 3.161z" fill="#ea4642"/><path d="m170.058 141.269.001-.003c-5.998-.63-11.607-1.714-16.849-3.161-9.847 10.131-18.214 21.707-24.741 34.388 2.906 1.046 5.896 2.02 8.989 2.898 8.919-13.091 19.947-24.629 32.6-34.122z" fill="#ea4642"/></g><g><path d="m133.525 408.264c0-5.405-4.397-9.802-9.801-9.802s-9.801 4.397-9.801 9.802 4.397 9.801 9.801 9.801 9.801-4.397 9.801-9.801z"/><path d="m195.846 446.293c0-5.405-4.397-9.802-9.801-9.802s-9.801 4.397-9.801 9.802 4.397 9.801 9.801 9.801 9.801-4.397 9.801-9.801z"/><path d="m388.277 398.462c-5.404 0-9.801 4.397-9.801 9.802s4.397 9.801 9.801 9.801 9.801-4.397 9.801-9.801c0-5.405-4.397-9.802-9.801-9.802z"/><path d="m325.955 436.491c-5.404 0-9.801 4.397-9.801 9.802s4.397 9.801 9.801 9.801 9.801-4.397 9.801-9.801-4.397-9.802-9.801-9.802z"/><path d="m457.074 269.184c-5.404 0-9.801 4.397-9.801 9.801s4.397 9.802 9.801 9.802c5.405 0 9.802-4.397 9.802-9.802s-4.397-9.801-9.802-9.801z"/><path d="m437.133 193.065c-5.405 0-9.802 4.397-9.802 9.802s4.397 9.801 9.802 9.801c5.404 0 9.801-4.397 9.801-9.801 0-5.405-4.397-9.802-9.801-9.802z"/><path d="m54.926 288.788c5.404 0 9.801-4.397 9.801-9.802s-4.397-9.801-9.801-9.801c-5.405 0-9.802 4.397-9.802 9.801s4.397 9.802 9.802 9.802z"/><path d="m74.867 212.668c5.405 0 9.802-4.397 9.802-9.801 0-5.405-4.397-9.802-9.802-9.802-5.404 0-9.801 4.397-9.801 9.802s4.397 9.801 9.801 9.801z"/><path d="m382.096 78.405c0-5.405-4.397-9.802-9.801-9.802-5.405 0-9.802 4.397-9.802 9.802s4.397 9.801 9.802 9.801c5.404 0 9.801-4.397 9.801-9.801z"/><path d="m129.904 78.405c0 5.405 4.397 9.801 9.801 9.801 5.405 0 9.802-4.397 9.802-9.801 0-5.405-4.397-9.802-9.802-9.802-5.404 0-9.801 4.397-9.801 9.802z"/><path d="m246.199 42.351c0 5.405 4.397 9.802 9.801 9.802s9.801-4.397 9.801-9.802-4.397-9.801-9.801-9.801-9.801 4.397-9.801 9.801z"/><path d="m375.818 29.714c-3.668-1.944-8.215-.549-10.16 3.116-1.945 3.666-.55 8.215 3.116 10.16 17.811 9.45 34.096 20.918 48.649 34.029-2.33 5.229-7.099 14.504-15.061 24.019-15 17.925-34.131 28.673-56.905 32.002 4.47-21.749 2.093-53.221-13.08-63.224-21.956-14.474-53.679 14.126-63.012 23.369h-26.732c-9.334-9.243-41.064-37.84-63.012-23.369-15.173 10.003-17.549 41.475-13.08 63.224-22.773-3.329-41.904-14.076-56.905-32.002-7.938-9.487-12.703-18.737-15.041-23.974 44.347-40.094 101.189-62.035 161.405-62.035 29.891 0 59.058 5.404 86.69 16.062 3.872 1.493 8.222-.435 9.715-4.307 1.494-3.872-.434-8.222-4.306-9.716-29.364-11.325-60.351-17.068-92.099-17.068-68.381 0-132.667 26.629-181.02 74.98-48.352 48.353-74.98 112.64-74.98 181.02 0 35.905 7.29 70.635 21.665 103.225 13.885 31.478 33.677 59.45 58.824 83.141 3.014 2.842 7.772 2.708 10.622-.316 2.845-3.021 2.704-7.777-.317-10.623-16.678-15.712-30.84-33.431-42.331-52.884 8.215 1.281 17.656 2.186 27.967 2.186 21.824 0 47.514-4.049 73.558-17.115 20.725 20.419 47.297 34.912 76.948 40.711v90.926c-41.715-4.975-81.052-20.678-115.11-46.148-3.325-2.486-8.034-1.806-10.519 1.518-2.486 3.323-1.806 8.033 1.517 10.519 44.495 33.272 97.462 50.86 153.176 50.86 68.381 0 132.667-26.629 181.02-74.98 48.352-48.353 74.98-112.64 74.98-181.02 0-95.01-52.182-181.718-136.182-226.286zm96.965 331.755c-21.862 5.02-60.377 9.086-100.17-9.422 5.537-6.711 10.502-13.909 14.831-21.513 18.451 7.711 37.094 10.357 53.948 10.357 16.331 0 30.975-2.471 42.132-5.182-3.073 8.791-6.66 17.388-10.741 25.76zm15.974-42.75c-18.531 5.602-57.124 13.565-94.522-1.644 8.288-18.687 12.904-39.35 12.904-61.075 0-27.353-7.399-53.701-20.857-76.587 35.96-12.956 58.489-37.452 71.109-55.863 25.39 38.602 39.579 84.396 39.579 132.451.001 21.474-2.805 42.515-8.213 62.718zm-59.907-230.703c6.877 7.07 13.293 14.536 19.222 22.351-10.931 17.392-32.875 43.776-70.324 56.084-5.491-7.465-11.684-14.452-18.53-20.854 40.842-10.458 61.345-41.166 69.632-57.581zm-148.817 15.75c11.202-11.092 33.649-28.275 44.072-21.401 7.655 5.047 11.5 32.538 5.416 52.578-.007.024-.016.047-.023.071-.17.558-.345 1.114-.531 1.66-1.843 5.415-4.982 11.116-8.393 10.866-16.015-1.178-33.868-13.425-40.542-18.421v-25.353zm-33.037 4.449h18.008v17.064h-18.008zm-59.102-25.85c1.644-1.084 3.59-1.566 5.747-1.566 11.47 0 28.883 13.642 38.326 22.972v25.348c-6.679 4.998-24.53 17.243-40.542 18.421-3.418.244-6.551-5.451-8.393-10.866-.186-.546-.361-1.102-.531-1.66-.007-.024-.015-.047-.023-.071-6.083-20.04-2.239-47.531 5.416-52.578zm-104.707 5.724c8.312 16.432 28.815 47.064 69.595 57.509-6.847 6.402-13.039 13.39-18.53 20.855-37.42-12.299-59.359-38.652-70.298-56.044 5.911-7.766 12.327-15.219 19.233-22.32zm-28.574 35.468c12.621 18.411 35.149 42.902 71.104 55.856-13.457 22.886-20.857 49.235-20.857 76.587 0 21.724 4.616 42.388 12.904 61.075-37.384 15.203-75.962 7.252-94.501 1.65-5.467-20.307-8.235-41.29-8.235-62.725.001-47.796 13.834-93.461 39.585-132.443zm-15.312 237.931c-1.339-2.75-2.644-5.52-3.884-8.329-2.534-5.745-4.834-11.56-6.899-17.441 11.151 2.707 25.778 5.172 42.091 5.172 16.853 0 35.499-2.647 53.948-10.357 4.329 7.605 9.293 14.803 14.83 21.514-39.743 18.485-78.209 14.452-100.086 9.441zm80.589-105.488c0-41.959 19.306-81.31 52.066-107.053 6.02 11.413 13.952 13.632 19.201 13.632.48 0 .937-.019 1.369-.05 4.496-.331 9.019-1.3 13.421-2.66-2.601 6.279-4.564 13.363-5.872 21.237-3.28 19.746-8.922 29.446-13.9 38.004-3.928 6.755-7.64 13.135-9.564 22.603-2.5 10.872 6.648 22.085 17.802 21.802h23.207c4.151 0 7.515-3.365 7.515-7.515s-3.364-7.515-7.515-7.515h-23.207c-2.406-.363-3.201-1.343-3.074-3.779 1.432-7.044 4.254-11.896 7.827-18.039 5.348-9.195 12.004-20.637 15.735-43.098 5.939-35.754 25.628-43.26 41.099-43.26 28.029 0 37.821 23.525 41.099 43.26 3.731 22.461 10.387 33.904 15.735 43.098 3.573 6.143 6.395 10.996 7.827 18.04.126 2.434-.669 3.416-3.074 3.778h-69.907c-4.151 0-7.515 3.365-7.515 7.515s3.364 7.515 7.515 7.515h69.906c11.155.283 20.302-10.93 17.802-21.801-1.924-9.469-5.635-15.849-9.564-22.604-4.978-8.558-10.62-18.258-13.9-38.004-1.308-7.874-3.271-14.958-5.872-21.237 4.402 1.361 8.924 2.33 13.421 2.66.431.032.888.05 1.369.05 5.25 0 13.181-2.22 19.201-13.632 32.761 25.743 52.067 65.094 52.067 107.053 0 75.051-61.059 136.11-136.11 136.11s-136.11-61.059-136.11-136.11zm122.077 240.568v-90.085c4.622.428 9.301.657 14.033.657s9.411-.23 14.033-.657v90.073c-4.655.266-9.332.415-14.033.415-4.7 0-9.378-.139-14.033-.403zm184.425-70.176c-38.591 38.591-87.967 62.472-141.33 68.847v-90.915c29.651-5.799 56.224-20.292 76.949-40.711 26.047 13.067 51.733 17.115 73.558 17.115 10.332 0 19.793-.909 28.023-2.195-10.216 17.24-22.658 33.318-37.2 47.859z"/></g></g></svg>