<svg id="Capa_1" enable-background="new 0 0 512 512" height="512" viewBox="0 0 512 512" width="512" xmlns="http://www.w3.org/2000/svg"><g><path d="m301.414 7.5h-123.119c-9.539 0-17.506 7.318-18.253 16.829-3.266 41.554-15.602 83.109-50.686 124.663h260.996c-35.084-41.554-47.419-83.109-50.686-124.663-.747-9.511-8.713-16.829-18.252-16.829z" fill="#365e7d"/><path d="m334.026 89.081c-8.513-21.6-12.668-43.199-14.362-64.799-.745-9.492-8.729-16.782-18.25-16.782h-23.933c9.54 0 17.506 7.318 18.253 16.829.352 4.479.81 8.958 1.391 13.438 3.525 27.188-17.534 51.315-44.95 51.315h-106.492c-7.871 19.97-19.467 39.94-36.327 59.91h260.996c-15.04-17.816-27.535-37.606-36.326-59.911z" fill="#2b4d66"/><path d="m301.414 504.5h-123.119c-9.539 0-17.506-7.318-18.253-16.829-3.266-41.554-15.602-83.109-50.686-124.663h260.996c-35.084 41.554-47.419 83.109-50.686 124.663-.747 9.511-8.713 16.829-18.252 16.829z" fill="#365e7d"/><path d="m370.353 363.008h-23.933-237.064c16.86 19.97 28.456 39.94 36.327 59.91h106.491c27.416 0 48.475 24.127 44.95 51.315-.581 4.479-1.039 8.958-1.391 13.438-.748 9.51-8.714 16.829-18.253 16.829h23.933c9.521 0 17.505-7.29 18.249-16.783 3.76-47.916 19.303-87.532 50.691-124.709z" fill="#2b4d66"/><path d="m347.493 400.919h-215.277c-20.589 0-37.28-16.691-37.28-37.28v-215.278c0-20.589 16.691-37.28 37.28-37.28h215.278c20.589 0 37.28 16.691 37.28 37.28v215.278c-.001 20.589-16.692 37.28-37.281 37.28z" fill="#4a80aa"/><path d="m347.493 111.081h-19.096c20.589 0 37.28 16.691 37.28 37.28v215.278c0 20.589-16.691 37.28-37.28 37.28h19.096c20.589 0 37.28-16.691 37.28-37.28v-215.278c0-20.589-16.691-37.28-37.28-37.28z" fill="#407093"/><path d="m132.215 370.919c-4.014 0-7.279-3.266-7.279-7.28v-215.278c0-4.015 3.266-7.28 7.279-7.28h215.277c4.015 0 7.28 3.266 7.28 7.28v215.277c0 4.015-3.266 7.28-7.28 7.28h-215.277z" fill="#b1e4f9" stroke="#b1e4f9" stroke-miterlimit="10"/><path d="m347.493 141.081h-19.281c4.015 0 7.28 3.266 7.28 7.28v215.277c0 4.015-3.266 7.28-7.28 7.28h19.281c4.015 0 7.28-3.266 7.28-7.28v-215.277c0-4.014-3.266-7.28-7.28-7.28z" fill="#90d8f9"/><path d="m405.981 249.483h-21.208v-58.008h21.208c6.122 0 11.084 4.963 11.084 11.084v35.839c0 6.122-4.963 11.085-11.084 11.085z" fill="#eab14d"/><path d="m293.52 305.729s4.024-11.219 15.614-11.219c9.243 0 15.614 7.462 15.614 16.152 0 10.059-8.684 21.96-31.227 32.304-22.544-10.344-31.227-22.246-31.227-32.304 0-8.69 6.37-16.152 15.614-16.152 11.588 0 15.612 11.219 15.612 11.219z" fill="#dd636e"/><g><path d="m405.98 183.975h-13.707v-35.613c0-24.243-19.367-44.033-43.44-44.746-12.39-24.108-19.311-49.616-21.69-79.874-1.044-13.314-12.347-23.742-25.729-23.742h-46.566c-4.143 0-7.5 3.357-7.5 7.5s3.357 7.5 7.5 7.5h46.566c5.605 0 10.339 4.355 10.776 9.916 2.282 29.025 8.83 54.883 19.931 78.665h-184.534c11.101-23.782 17.649-49.64 19.931-78.666.438-5.56 5.171-9.915 10.776-9.915h46.566c4.143 0 7.5-3.357 7.5-7.5s-3.357-7.5-7.5-7.5h-46.566c-13.382 0-24.685 10.428-25.729 23.74-2.379 30.259-9.3 55.767-21.69 79.875-24.073.713-43.44 20.503-43.44 44.746v62.926c0 4.143 3.357 7.5 7.5 7.5s7.5-3.357 7.5-7.5v-62.926c0-16.421 13.359-29.78 29.78-29.78h215.277c16.421 0 29.78 13.359 29.78 29.78v215.277c0 16.421-13.359 29.78-29.78 29.78-12.277 0-202.083 0-215.277 0-16.421 0-29.78-13.359-29.78-29.78v-122.364c0-4.143-3.357-7.5-7.5-7.5s-7.5 3.357-7.5 7.5v122.364c0 24.243 19.367 44.033 43.44 44.746 12.39 24.108 19.311 49.616 21.69 79.875 1.047 13.312 12.349 23.74 25.729 23.74h123.119c13.381 0 24.683-10.428 25.729-23.74 2.379-30.259 9.3-55.767 21.69-79.875 24.073-.713 43.44-20.504 43.44-44.746v-106.656h13.707c10.247 0 18.584-8.337 18.584-18.584v-35.84c.001-10.246-8.335-18.583-18.583-18.583zm-93.79 303.109c-.438 5.561-5.171 9.916-10.776 9.916h-123.119c-5.605 0-10.339-4.355-10.776-9.916-2.282-29.025-8.83-54.883-19.931-78.665h184.534c-11.102 23.782-17.65 49.64-19.932 78.665zm97.374-248.686c0 1.977-1.607 3.584-3.584 3.584h-13.707v-43.008h13.707c1.977 0 3.584 1.607 3.584 3.584z"/><path d="m232.354 182.106v66.394h-29.061c-4.143 0-7.5 3.357-7.5 7.5s3.357 7.5 7.5 7.5h36.561c4.143 0 7.5-3.357 7.5-7.5v-73.894c0-4.143-3.357-7.5-7.5-7.5s-7.5 3.358-7.5 7.5z"/><path d="m332.248 310.662c0-13.263-10.153-23.651-23.114-23.651-6.712 0-11.871 2.586-15.613 5.921-3.742-3.335-8.901-5.921-15.613-5.921-12.961 0-23.114 10.389-23.114 23.651 0 19.827 22.305 33.021 35.6 39.121.993.456 2.061.684 3.128.684s2.135-.228 3.128-.684c13.293-6.099 35.598-19.294 35.598-39.121zm-38.727 23.993c-14.925-7.429-23.728-16.273-23.728-23.993 0-4.299 2.787-8.651 8.114-8.651 5.819 0 8.228 5.443 8.566 6.288 1.014 3.019 3.794 4.979 6.981 5.021 3.169.021 6.044-2.045 7.125-5.059.022-.062 2.314-6.25 8.554-6.25 5.327 0 8.114 4.353 8.114 8.651.001 7.72-8.802 16.565-23.726 23.993z"/><path d="m316.786 378.419h30.707c8.149 0 14.78-6.631 14.78-14.78v-215.278c0-8.149-6.631-14.78-14.78-14.78h-215.277c-8.149 0-14.779 6.631-14.779 14.78v215.277c0 8.149 6.63 14.78 14.779 14.78h154.584c4.143 0 7.5-3.357 7.5-7.5s-3.357-7.5-7.5-7.5h-154.363v-214.837h214.837v214.838h-30.487c-4.143 0-7.5 3.357-7.5 7.5s3.357 7.5 7.499 7.5z"/></g></g></svg>