<svg id="Capa_1" enable-background="new 0 0 512 512" height="512" viewBox="0 0 512 512" width="512" xmlns="http://www.w3.org/2000/svg"><g><g><g><path d="m294.917 96.406h-77.835c-8.06 0-14.594-6.534-14.594-14.594v-15.567c0-8.06 6.534-14.594 14.594-14.594h77.835c8.06 0 14.594 6.534 14.594 14.594v15.567c0 8.06-6.534 14.594-14.594 14.594z" fill="#ffe08c"/><path d="m294.917 78.406h-77.834c-7.649 0-13.913-5.888-14.533-13.377-.033.402-.061.806-.061 1.216v15.567c0 8.06 6.534 14.594 14.594 14.594h77.834c8.06 0 14.594-6.534 14.594-14.594v-15.567c0-.411-.028-.814-.061-1.216-.62 7.489-6.883 13.377-14.533 13.377z" fill="#f9d375"/><path d="m294.917 126.077v-29.671h-77.835v29.671c-86.794 17.973-152.031 94.853-152.031 186.975 0 105.458 85.491 190.948 190.949 190.948s190.948-85.49 190.948-190.948c0-92.122-65.236-169.002-152.031-186.975z" fill="#f7594e"/><path d="m256 486c-102.457 0-186.058-80.696-190.733-181.998-.14 2.999-.215 6.015-.215 9.049-.001 105.459 85.49 190.949 190.948 190.949s190.948-85.49 190.948-190.948c0-3.034-.075-6.05-.215-9.049-4.675 101.301-88.276 181.997-190.733 181.997z" fill="#ea4642"/></g><g><path d="m234.143 135.728h43.715v42.801h-43.715z" fill="#febd55"/><path d="m234.143 135.728s-52.485-34.609-89.552-26.264c-42.041 9.464-28.199 102.244 3.403 111.001 27.669 7.667 86.149-41.936 86.149-41.936z" fill="#ffe08c"/><path d="m234.142 178.529s-13.714 11.632-31.002 22.76c-42.356 70.41-46.247 172.786-46.247 172.786l42.348-28.572c10.715-72.452 56.759-166.974 56.759-166.974z" fill="#febd55"/><path d="m277.858 135.728s52.485-34.609 89.552-26.264c42.041 9.464 28.199 102.244-3.403 111.001-27.668 7.667-86.149-41.936-86.149-41.936z" fill="#ffe08c"/><path d="m234.143 160.529h43.715v18h-43.715z" fill="#f9ab43"/><path d="m147.993 202.464c-15.69-4.348-26.997-29.407-29.266-54.698-2.917 30.043 9.802 67.305 29.266 72.698 27.669 7.667 86.149-41.936 86.149-41.936v-18c.001.001-58.48 49.604-86.149 41.936z" fill="#f9d375"/><path d="m364.007 202.464c-27.668 7.667-86.149-41.936-86.149-41.936v18s58.48 49.603 86.149 41.936c19.463-5.393 32.182-42.655 29.266-72.698-2.269 25.292-13.576 50.351-29.266 54.698z" fill="#f9d375"/><path d="m277.858 178.529s13.714 11.632 31.002 22.76c42.356 70.41 46.247 172.786 46.247 172.786l-42.348-28.572c-10.715-72.452-56.759-166.974-56.759-166.974z" fill="#febd55"/><g fill="#f9ab43"><path d="m158.348 355.092c-1.182 11.825-1.455 18.982-1.455 18.982l42.348-28.572c.992-6.709 2.289-13.609 3.822-20.604z"/><path d="m308.94 324.916c1.532 6.989 2.827 13.883 3.819 20.586l42.348 28.572s-.272-7.157-1.455-18.982z"/></g></g></g><path d="m399.734 175.803c1.292-7.356 1.889-14.835 1.714-21.972-.688-28.171-12.714-47.605-32.17-51.985-2.594-.584-5.335-1.001-8.145-1.239-4.107-.357-7.771 2.718-8.122 6.853-.35 4.135 2.718 7.772 6.854 8.122 2.128.181 4.185.492 6.112.926 5.903 1.329 19.713 7.662 20.447 37.69.663 27.16-10.877 55.26-24.212 58.955-5.261 1.456-18.412 1.168-47.395-17.151-13.074-8.264-24.439-17.16-29.401-21.174v-35.167c7.627-4.609 27.137-15.615 47.876-21.091 4.013-1.06 6.406-5.172 5.346-9.185s-5.174-6.407-9.184-5.347c-9.593 2.534-18.835 6.085-26.945 9.724v-11.469c8.518-3.084 14.622-11.252 14.622-20.822v-15.597c0-12.206-9.931-22.138-22.137-22.138h-13.368c2.389-4.248 3.758-9.143 3.758-14.354 0-16.201-13.181-29.382-29.384-29.382s-29.384 13.181-29.384 29.383c0 5.211 1.369 10.106 3.758 14.354h-13.368c-12.206 0-22.137 9.931-22.137 22.138v15.597c0 9.569 6.104 17.738 14.622 20.822v11.464c-19.311-8.655-45.069-16.798-66.77-11.912-19.455 4.38-31.481 23.814-32.17 51.986-.174 7.136.423 14.615 1.714 21.971-35.56 37.17-55.103 85.786-55.103 137.361.001 109.638 89.199 198.836 198.838 198.836 28.993 0 56.945-6.102 83.08-18.137 3.77-1.736 5.419-6.199 3.683-9.969s-6.201-5.418-9.969-3.682c-24.15 11.121-49.987 16.76-76.794 16.76-101.351 0-183.807-82.455-183.807-183.807 0-44.502 15.739-86.624 44.57-119.98 5.932 16.954 15.889 30.817 29.012 34.454 2.548.706 5.27 1.031 8.127 1.031 9.293 0 19.994-3.445 30.613-8.428-8.47 18.297-15.655 39.143-21.439 62.3-1.006 4.026 1.443 8.106 5.47 9.112 4.029 1.004 8.106-1.444 9.111-5.47 7.805-31.251 18.186-57.989 30.863-79.516 12.885-8.37 23.525-16.835 28.304-20.773h7.366c-4.626 10.126-11.905 26.607-19.594 46.163-16.682 42.434-27.571 79.157-32.393 109.23l-26.889 18.142c.995-10.734 2.826-26.378 6.115-44.333.747-4.082-1.955-7.997-6.037-8.746-4.084-.747-7.998 1.956-8.746 6.038-6.379 34.822-7.415 60.554-7.455 61.633-.108 2.828 1.383 5.477 3.856 6.852 1.139.634 2.396.948 3.653.948 1.471 0 2.937-.431 4.203-1.285l42.43-28.628c1.751-1.181 2.923-3.042 3.231-5.13 7.978-53.944 36.315-121.321 49.436-150.51 13.122 29.189 41.458 96.566 49.436 150.51.308 2.088 1.481 3.95 3.231 5.13l42.431 28.628c1.265.854 2.732 1.285 4.203 1.285 1.255 0 2.514-.314 3.653-.948 2.474-1.376 3.964-4.025 3.856-6.852-.145-3.827-3.622-85.469-35.293-153.764 10.609 4.975 21.297 8.413 30.581 8.412 2.854 0 5.581-.326 8.127-1.031 13.124-3.637 23.081-17.5 29.013-34.453 28.83 33.356 44.569 75.478 44.569 119.98 0 61.543-30.595 118.723-81.842 152.956-3.451 2.305-4.38 6.972-2.074 10.423 1.448 2.169 3.83 3.342 6.255 3.342 1.434 0 2.884-.411 4.167-1.267 55.43-37.027 88.523-98.879 88.523-165.453.001-51.578-19.542-100.195-55.102-137.364zm-143.734-160.774c7.915 0 14.354 6.439 14.354 14.354s-6.439 14.354-14.354 14.354-14.354-6.439-14.354-14.354 6.439-14.354 14.354-14.354zm-46.101 50.845c0-3.919 3.189-7.108 7.108-7.108h77.986c3.919 0 7.108 3.189 7.108 7.108v15.597c0 3.919-3.189 7.108-7.108 7.108h-77.986c-3.919 0-7.108-3.188-7.108-7.108zm16.686 108.955c-4.936 3.995-16.22 12.831-29.267 21.088-29.071 18.399-42.258 18.695-47.529 17.236-13.336-3.695-24.876-31.795-24.212-58.955.735-30.028 14.544-36.361 20.447-37.69 3.494-.787 7.162-1.139 10.936-1.139 26.995 0 59.256 18.044 69.625 24.297zm9.709-46.851c-2.275-1.423-6.379-3.903-11.773-6.809v-17.56h62.957v17.568c-5.406 2.911-9.509 5.39-11.768 6.801zm5.321 42.885v-27.856h28.771v27.856zm105.051 188.551-26.87-18.129c-4.822-30.073-15.711-66.796-32.394-109.23-7.688-19.557-14.967-36.038-19.593-46.163h7.366c4.78 3.939 15.421 12.406 28.308 20.777 30.649 52.055 40.317 122.254 43.183 152.745z"/></g></svg>