<svg id="Capa_1" enable-background="new 0 0 512.003 512.003" height="512" viewBox="0 0 512.003 512.003" width="512" xmlns="http://www.w3.org/2000/svg"><g><circle cx="213.045" cy="213.044" fill="#365e7d" r="205.544"/><path d="m418.547 216.392c1.843-115.276-91.076-208.892-205.502-208.892-4.548 0-9.057.164-13.531.455 83.542 5.431 153.469 60.765 180.273 136.493 4.494 12.696-5.463 25.62-18.923 25.13-.458-.017-.923-.025-1.394-.025h-31.332c-12.218 0-23.419 6.677-29.233 17.427l-10.997 20.337-21.972 10.582-22.76-4.082c-1.933-.347-3.906-.522-5.867-.522-10.172 0-19.642 4.562-25.981 12.513l-19.534 24.495c-7.621 9.555-9.385 22.477-4.604 33.722l9.044 21.277-5.427 23.777-17.382 15.249c-9.186 8.059-13.202 20.465-10.482 32.376l6.972 30.549c.589 2.578 1.488 5.03 2.629 7.338 8.802 1.759 17.81 2.946 26.979 3.544-.002 0-.005 0-.007 0 72.573 4.79 142.151-28.984 183.346-89.265 24.267-35.521 33.977-70.865 35.685-112.478z" fill="#2b4d66"/><circle cx="213.045" cy="213.044" fill="#f4fbff" r="157.782"/><path d="m369.981 196.637c-.025-.243-.057-.484-.083-.727-8.55-79.101-75.515-140.648-156.853-140.648-5.182 0-10.303.258-15.356.746 58.085 5.611 106.956 42.714 129.333 94.027 3.721 8.532-.603 18.472-9.475 21.29-6.548 2.08-13.678 6.475-18.642 15.653l-10.997 20.337-21.972 10.582-22.76-4.082c-1.933-.347-3.906-.522-5.867-.522-10.172 0-19.642 4.562-25.981 12.513l-19.534 24.495c-7.621 9.555-9.385 22.477-4.604 33.722l9.044 21.277-5.427 23.777-17.382 15.249c-5.555 4.874-9.204 11.341-10.632 18.324 43.722 14.68 94.926 10.902 140.841-20.415 45.864-32.219 72.385-87.135 66.347-145.598z" fill="#daf1f4"/><circle cx="343.805" cy="351.526" fill="#f4fbff" r="81.294"/><path d="m343.804 270.231c-7.747 0-15.231 1.107-22.328 3.131 34.036 9.706 58.966 41.013 58.966 78.164s-24.93 68.458-58.966 78.164c7.097 2.024 14.581 3.13 22.328 3.13 44.898 0 81.294-36.396 81.294-81.294.001-44.898-36.396-81.295-81.294-81.295z" fill="#daf1f4"/><path d="m305.03 219.801 12.348-22.835c2.137-3.952 6.268-6.414 10.761-6.414h31.332c4.493 0 8.624 2.463 10.761 6.414l12.348 22.835c1.225 2.265 3.133 4.086 5.453 5.203l27.089 13.045c2.32 1.117 4.933 1.474 7.468 1.019l25.551-4.583c4.422-.793 8.923.901 11.724 4.414l19.535 24.496c2.801 3.512 3.452 8.278 1.694 12.412l-10.154 23.891c-1.007 2.37-1.241 4.997-.668 7.507l6.69 29.312c.573 2.51 1.923 4.776 3.859 6.474l19.515 17.119c3.377 2.963 4.859 7.538 3.859 11.918l-6.972 30.547c-1 4.38-4.32 7.86-8.648 9.064l-25.01 6.957c-2.481.69-4.68 2.145-6.286 4.158l-18.746 23.507c-1.605 2.013-2.535 4.482-2.655 7.054l-1.217 25.931c-.211 4.488-2.864 8.499-6.912 10.448l-28.229 13.594c-4.048 1.949-8.838 1.523-12.478-1.11l-21.032-15.216c-2.086-1.509-4.595-2.322-7.17-2.322h-30.066c-2.575 0-5.084.812-7.17 2.322l-21.032 15.216c-3.64 2.633-8.43 3.06-12.478 1.11l-28.229-13.594c-4.048-1.949-6.701-5.96-6.912-10.448l-1.217-25.931c-.121-2.572-1.05-5.04-2.655-7.054l-18.746-23.507c-1.605-2.013-3.805-3.468-6.286-4.158l-25.01-6.957c-4.328-1.204-7.648-4.684-8.648-9.064l-6.972-30.547c-1-4.38.482-8.956 3.859-11.918l19.515-17.119c1.936-1.698 3.286-3.964 3.859-6.474l6.69-29.312c.573-2.51.339-5.138-.668-7.507l-10.154-23.891c-1.757-4.135-1.107-8.9 1.694-12.412l19.535-24.496c2.801-3.512 7.302-5.207 11.724-4.414l25.551 4.583c2.534.455 5.148.098 7.468-1.019l27.089-13.045c2.316-1.117 4.224-2.938 5.449-5.203zm-23.457 131.69c0 34.369 27.862 62.231 62.231 62.231s62.231-27.862 62.231-62.231-27.862-62.231-62.231-62.231-62.231 27.861-62.231 62.231z" fill="#5766cb"/><g fill="#3d4fc3"><path d="m343.039 196.967 12.348 22.835c1.225 2.265 3.133 4.086 5.453 5.203l27.089 13.045c2.32 1.117 4.933 1.474 7.468 1.019l15.913-2.854-23.277-11.21c-2.32-1.117-4.228-2.938-5.453-5.203l-12.348-22.835c-2.137-3.952-6.268-6.415-10.761-6.415h-27.192c4.492 0 8.623 2.463 10.76 6.415z"/><path d="m500.335 360.111-19.515-17.119c-1.936-1.698-3.286-3.964-3.859-6.474l-6.69-29.312c-.573-2.511-.339-5.138.668-7.507l10.154-23.891c1.757-4.135 1.107-8.9-1.694-12.412l-19.535-24.497c-2.801-3.512-7.302-5.207-11.724-4.414l-16.788 3.011c.47.43.915.895 1.319 1.402l19.535 24.497c2.801 3.512 3.451 8.278 1.694 12.412l-10.154 23.891c-1.007 2.37-1.241 4.997-.668 7.507l6.69 29.312c.573 2.51 1.923 4.776 3.859 6.474l19.514 17.119c3.377 2.963 4.859 7.538 3.859 11.918l-6.972 30.547c-1 4.38-4.32 7.859-8.648 9.063l-25.01 6.957c-2.481.69-4.68 2.145-6.286 4.158l-18.746 23.506c-1.605 2.013-2.535 4.482-2.655 7.054l-1.217 25.931c-.211 4.488-2.864 8.499-6.912 10.448l-18.474 8.897 4.959 3.588c3.64 2.633 8.43 3.06 12.478 1.11l28.229-13.594c4.048-1.949 6.701-5.96 6.912-10.448l1.217-25.931c.121-2.572 1.05-5.041 2.656-7.054l18.746-23.506c1.605-2.013 3.805-3.468 6.286-4.158l25.01-6.957c4.328-1.204 7.648-4.683 8.648-9.063l6.972-30.547c1-4.38-.481-8.955-3.858-11.918z"/></g><g><path d="m213.045 104.077c4.143 0 7.5-3.357 7.5-7.5v-10.601c0-4.143-3.357-7.5-7.5-7.5s-7.5 3.357-7.5 7.5v10.602c0 4.142 3.358 7.499 7.5 7.499z"/><path d="m300.704 135.993 7.497-7.497c2.929-2.93 2.929-7.678 0-10.607-2.93-2.928-7.678-2.928-10.607 0l-7.497 7.497c-2.929 2.93-2.929 7.678 0 10.607 2.93 2.929 7.677 2.928 10.607 0z"/><path d="m117.89 308.199c2.931 2.929 7.678 2.928 10.607 0l7.497-7.497c2.929-2.93 2.929-7.678 0-10.607-2.93-2.928-7.678-2.928-10.607 0l-7.497 7.497c-2.929 2.929-2.929 7.678 0 10.607z"/><path d="m96.579 220.544c4.143 0 7.5-3.357 7.5-7.5s-3.357-7.5-7.5-7.5h-10.603c-4.143 0-7.5 3.357-7.5 7.5s3.357 7.5 7.5 7.5z"/><path d="m125.387 135.993c2.931 2.929 7.678 2.928 10.607 0 2.929-2.93 2.929-7.678 0-10.607l-7.497-7.497c-2.93-2.928-7.678-2.928-10.607 0-2.929 2.93-2.929 7.678 0 10.607z"/><path d="m205.545 216.129c0 7.001 8.709 10.129 13.203 4.871l27.103-31.729c2.689-3.149 2.317-7.884-.832-10.574-3.149-2.688-7.884-2.316-10.574.832l-13.899 16.272v-50.649c0-4.143-3.357-7.5-7.5-7.5s-7.5 3.357-7.5 7.5v70.977z"/><path d="m505.281 354.474-19.515-17.119c-.754-.661-1.271-1.528-1.494-2.506l-6.689-29.312c-.223-.979-.134-1.982.259-2.905l10.154-23.892c2.838-6.678 1.79-14.35-2.732-20.021l-19.537-24.499c-4.525-5.672-11.768-8.401-18.911-7.117l-21.496 3.855c.497-5.962.771-11.957.771-17.915 0-54.784-20.758-106.841-58.449-146.581-2.851-3.005-7.598-3.131-10.603-.28-3.006 2.851-3.131 7.598-.28 10.603 35.036 36.941 54.332 85.332 54.332 136.259 0 4.814-.197 9.653-.547 14.477l-19.257-9.274c-.903-.435-1.633-1.13-2.109-2.013l-11.931-22.063c-4.53-39.808-23.381-76.549-53.216-103.601-30.442-27.604-69.857-42.807-110.984-42.807-91.137 0-165.282 74.145-165.282 165.281 0 18.365 3 36.421 8.917 53.665 1.067 3.112 3.978 5.068 7.094 5.068.807 0 1.628-.131 2.434-.408 3.918-1.344 6.005-5.609 4.66-9.527-5.378-15.675-8.104-32.093-8.104-48.798 0-82.865 67.416-150.281 150.282-150.281 37.395 0 73.231 13.821 100.908 38.918 23.903 21.674 40.054 50.179 46.375 81.4-1.268-.055 3.8-.01-32.191-.029-7.256 0-13.907 3.965-17.358 10.348l-12.348 22.835c-.477.882-1.206 1.577-2.108 2.013l-27.089 13.044c-.904.436-1.904.569-2.89.396l-25.551-4.583c-7.134-1.28-14.387 1.445-18.913 7.119l-19.533 24.495c-4.526 5.673-5.573 13.346-2.734 20.023l10.153 23.89c.393.924.482 1.929.26 2.906l-6.69 29.312c-.224.978-.74 1.845-1.494 2.506l-19.515 17.119c-1.596 1.4-2.92 3.025-3.967 4.795-40.147-9.479-74.723-35.137-95.538-71.168-2.073-3.588-6.66-4.814-10.246-2.742-3.586 2.071-4.814 6.659-2.742 10.246 23.111 40.008 61.662 68.39 106.377 78.566l6.864 30.074c.39 1.707 1.001 3.326 1.796 4.831-95.905-13.72-169.871-96.394-169.871-196.032-.002-109.203 88.84-198.045 198.042-198.045 44.858 0 87.161 14.624 122.335 42.291 3.254 2.561 7.97 1.998 10.531-1.258s1.998-7.971-1.258-10.531c-37.843-29.768-83.353-45.502-131.608-45.502-117.473 0-213.044 95.571-213.044 213.044 0 117.474 95.571 213.045 213.045 213.045 2.985 0 6.059-.079 9.147-.21.898.284 1.684.812 2.275 1.553l18.745 23.505c.626.784.981 1.728 1.027 2.729l1.218 25.93c.34 7.247 4.611 13.706 11.149 16.854l28.229 13.596c6.536 3.146 14.251 2.46 20.129-1.792l21.033-15.217c.812-.587 1.771-.897 2.772-.897h30.066c1.002 0 1.961.311 2.774.898l21.032 15.216c3.43 2.481 7.482 3.749 11.564 3.749 2.913 0 5.841-.646 8.563-1.958l28.229-13.594c6.537-3.148 10.81-9.606 11.15-16.854l1.216-25.93c.048-1.002.403-1.946 1.026-2.729l2.451-3.072c2.584-3.238 2.053-7.957-1.185-10.54-3.238-2.584-7.957-2.054-10.54 1.185l-2.453 3.074c-2.605 3.268-4.086 7.202-4.283 11.378l-1.217 25.93c-.081 1.739-1.106 3.288-2.674 4.044l-28.229 13.595c-1.568.754-3.417.589-4.828-.43l-21.031-15.215c-3.387-2.451-7.387-3.747-11.567-3.747h-30.066c-4.181 0-8.181 1.296-11.566 3.746l-21.032 15.216c-1.41 1.02-3.261 1.185-4.828.43l-28.229-13.595c-1.568-.756-2.593-2.304-2.674-4.043l-1.218-25.929c-.195-4.175-1.677-8.11-4.284-11.381l-18.745-23.505c-6.306-7.909-12.886-6.552-35.149-13.665-1.677-.467-2.959-1.811-3.347-3.507l-6.972-30.547c-.387-1.697.186-3.464 1.493-4.611l19.515-17.119c3.142-2.757 5.295-6.368 6.225-10.443l6.69-29.312c.931-4.073.559-8.261-1.077-12.11l-10.154-23.892c-.681-1.602-.43-3.44.656-4.802l19.534-24.496c1.086-1.36 2.822-2.011 4.536-1.708l25.551 4.583c4.113.738 8.279.171 12.047-1.645l27.09-13.045c3.767-1.814 6.808-4.717 8.795-8.393l12.348-22.834c.827-1.531 2.423-2.482 4.163-2.482h31.332c1.74 0 3.336.951 4.163 2.482l12.348 22.833c1.987 3.678 5.029 6.58 8.797 8.394 24.748 10.903 28.928 16.521 39.134 14.689l25.553-4.583c1.722-.306 3.451.348 4.535 1.707l19.536 24.498c1.085 1.36 1.336 3.2.655 4.802l-10.154 23.89c-1.636 3.847-2.008 8.035-1.077 12.111l6.689 29.312c.93 4.075 3.083 7.687 6.225 10.443l19.515 17.119c1.309 1.148 1.881 2.915 1.494 4.611l-6.974 30.548c-.387 1.696-1.668 3.039-3.345 3.506l-25.011 6.956c-1.822.508-3.574 1.285-5.207 2.311-3.508 2.204-4.563 6.834-2.36 10.341 2.206 3.508 6.836 4.563 10.341 2.36.404-.254.824-.442 1.247-.561l25.01-6.956c6.991-1.945 12.336-7.548 13.949-14.62l6.973-30.547c1.617-7.071-.769-14.437-6.223-19.223z"/><path d="m343.804 421.222c38.45 0 69.731-31.281 69.731-69.731 0-38.449-31.281-69.73-69.731-69.73-38.443 0-69.721 31.272-69.73 69.713v.009.003.006c0 38.448 31.281 69.73 69.73 69.73zm-7.5-123.935v16.859h-8.8c-4.143 0-7.5 3.357-7.5 7.5s3.357 7.5 7.5 7.5h16.3c4.143 0 7.5-3.357 7.5-7.5v-24.359c24.187 3.331 43.374 22.516 46.705 46.704h-31.709v-5.441c0-4.143-3.357-7.5-7.5-7.5s-7.5 3.357-7.5 7.5v12.941c0 4.143 3.357 7.5 7.5 7.5h39.209c-3.331 24.188-22.517 43.374-46.705 46.705v-14.646h5.495c4.143 0 7.5-3.357 7.5-7.5s-3.357-7.5-7.5-7.5h-12.995c-4.143 0-7.5 3.357-7.5 7.5v22.146c-24.184-3.331-43.368-22.512-46.703-46.696l24.064.027h.009c4.138 0 7.495-3.353 7.5-7.491.005-4.143-3.35-7.504-7.491-7.509l-24.084-.027c3.328-24.192 22.515-43.382 46.705-46.713z"/></g></g></svg>