<svg height="512pt" viewBox="0 0 512 512" width="512pt" xmlns="http://www.w3.org/2000/svg"><path d="m502 136v346c0 11.050781-8.949219 20-20 20h-452c-11.050781 0-20-8.949219-20-20v-346zm0 0" fill="#fff"/><path d="m482 50c11.050781 0 20 8.949219 20 20v66h-492v-66c0-11.050781 8.949219-20 20-20zm0 0" fill="#ff5d5d"/><path d="m359.449219 310.71875-51.417969 50.132812 12.140625 70.769532c-.1875-.097656-63.441406-33.347656-63.5625-33.410156l-63.570313 33.410156 12.140626-70.769532-51.417969-50.132812 71.058593-10.320312 31.789063-64.398438 31.78125 64.398438zm0 0" fill="#ffaa24"/><path d="m116 166c-5.519531 0-10 4.480469-10 10s4.480469 10 10 10 10-4.480469 10-10-4.480469-10-10-10zm0 0"/><path d="m30 512h452c16.542969 0 30-13.457031 30-30v-412c0-16.542969-13.457031-30-30-30h-16v-10c0-16.542969-13.457031-30-30-30s-30 13.457031-30 30v10h-60v-10c0-16.542969-13.457031-30-30-30s-30 13.457031-30 30v10h-60v-10c0-16.542969-13.457031-30-30-30s-30 13.457031-30 30v10h-60v-10c0-16.542969-13.457031-30-30-30s-30 13.457031-30 30v10h-16c-16.542969 0-30 13.457031-30 30v412c0 16.542969 13.457031 30 30 30zm452-20h-452c-5.515625 0-10-4.484375-10-10v-336h472v336c0 5.515625-4.484375 10-10 10zm-56-462c0-5.515625 4.484375-10 10-10s10 4.484375 10 10v10h-20zm-120 0c0-5.515625 4.484375-10 10-10s10 4.484375 10 10v10h-20zm-120 0c0-5.515625 4.484375-10 10-10s10 4.484375 10 10v10h-20zm-120 0c0-5.515625 4.484375-10 10-10s10 4.484375 10 10v10h-20zm-36 30h16v13c0 16.542969 13.457031 30 30 30 5.523438 0 10-4.476562 10-10s-4.476562-10-10-10c-5.515625 0-10-4.484375-10-10v-13h100v13c0 16.542969 13.457031 30 30 30 5.523438 0 10-4.476562 10-10s-4.476562-10-10-10c-5.515625 0-10-4.484375-10-10v-13h100v13c0 16.542969 13.457031 30 30 30 5.523438 0 10-4.476562 10-10s-4.476562-10-10-10c-5.515625 0-10-4.484375-10-10v-13h100v13c0 16.542969 13.457031 30 30 30 5.523438 0 10-4.476562 10-10s-4.476562-10-10-10c-5.515625 0-10-4.484375-10-10v-13h56c5.515625 0 10 4.484375 10 10v56h-472v-56c0-5.515625 4.484375-10 10-10zm0 0"/><path d="m396 166h-240c-5.523438 0-10 4.476562-10 10s4.476562 10 10 10h240c5.523438 0 10-4.476562 10-10s-4.476562-10-10-10zm0 0"/><path d="m360.886719 300.824219-65.855469-9.566407-29.453125-59.683593c-1.683594-3.414063-5.160156-5.574219-8.96875-5.574219-3.804687 0-7.28125 2.160156-8.964844 5.574219l-29.464843 59.683593-65.855469 9.566407c-3.769531.546875-6.898438 3.183593-8.074219 6.804687s-.195312 7.59375 2.53125 10.25l47.65625 46.460938-11.253906 65.589844c-.644532 3.75.898437 7.542968 3.980468 9.78125 3.066407 2.226562 7.148438 2.535156 10.53125.761718l58.914063-30.964844 58.910156 30.960938c3.371094 1.773438 7.453125 1.476562 10.53125-.761719 3.078125-2.234375 4.621094-6.027343 3.976563-9.78125l-11.25-65.585937 47.65625-46.460938c2.726562-2.65625 3.707031-6.632812 2.53125-10.25-1.179688-3.621094-4.3125-6.257812-8.078125-6.804687zm-59.835938 52.867187c-2.359375 2.296875-3.433593 5.605469-2.875 8.847656l8.710938 50.804688-45.625-23.984375c-2.910157-1.53125-6.390625-1.53125-9.304688 0l-45.636719 23.984375 8.714844-50.800781c.558594-3.246094-.515625-6.554688-2.875-8.851563l-36.910156-35.988281 51.007812-7.40625c3.257813-.472656 6.074219-2.519531 7.527344-5.46875l22.824219-46.234375 22.8125 46.230469c1.457031 2.953125 4.273437 5 7.53125 5.472656l51.007813 7.40625zm0 0"/></svg>