<svg id="Capa_1" enable-background="new 0 0 512 512" height="512" viewBox="0 0 512 512" width="512" xmlns="http://www.w3.org/2000/svg"><g><g><path d="m363.558 438.605c10.677 0 17.935 10.839 13.87 20.711l-14.575 35.395c-2.314 5.621-7.792 9.289-13.87 9.289h-185.966c-6.078 0-11.556-3.668-13.87-9.289l-14.575-35.395c-4.065-9.873 3.193-20.711 13.87-20.711z" fill="#ffe08c"/><path d="m363.558 438.605c10.677 0 17.935 10.839 13.87 20.711l-14.575 35.395c-2.314 5.621-7.792 9.289-13.87 9.289h-185.966c-6.078 0-11.556-3.668-13.87-9.289l-14.575-35.395c-4.065-9.873 3.193-20.711 13.87-20.711z" fill="#ffe08c"/><path d="m145.56 486 3.587 8.711c2.314 5.621 7.792 9.289 13.87 9.289h185.966c6.078 0 11.556-3.668 13.87-9.289l3.587-8.711z" fill="#f9d375"/><path d="m324.725 356.576v-82.127c-.457.046-.916.086-1.384.095-9.39.176-17.076-7.799-17.076-17.191v-48.343c0-9.391-7.685-17.367-17.075-17.191-9.106.17-16.435 7.605-16.436 16.751v17.347c0 9.147-7.329 16.582-16.435 16.752-9.39.176-17.075-7.8-17.075-17.191v-4.29c-.001-9.146-7.33-16.581-16.436-16.751-9.39-.176-17.075 7.8-17.075 17.191v26.516c0 9.147-7.33 16.582-16.436 16.752-.686.013-1.359-.03-2.024-.102v91.782l70.269 33.107z" fill="#c3d0d8"/><g fill="#b0c2cc"><path d="m205.734 266.143v-18c0 9.147-7.33 16.582-16.436 16.752-.686.013-1.359-.03-2.024-.102v18c.665.071 1.338.115 2.024.102 9.106-.17 16.436-7.605 16.436-16.752z"/><path d="m222.809 222.436c9.106.17 16.435 7.605 16.436 16.751v4.29c0 9.392 7.685 17.367 17.075 17.191 9.106-.171 16.435-7.605 16.435-16.752v-17.347c.001-9.146 7.33-16.581 16.436-16.751 9.39-.176 17.075 7.8 17.075 17.191v-18c0-9.391-7.685-17.367-17.075-17.191-9.106.17-16.435 7.605-16.436 16.751v17.347c0 9.147-7.329 16.582-16.435 16.752-9.39.176-17.075-7.8-17.075-17.191v-4.29c-.001-9.146-7.33-16.581-16.436-16.751-9.39-.176-17.075 7.8-17.075 17.191v18c0-9.391 7.685-17.367 17.075-17.191z"/><path d="m323.341 274.544c-9.39.176-17.076-7.799-17.076-17.191v18c0 9.392 7.686 17.367 17.076 17.191.467-.009.927-.049 1.384-.095v-18c-.457.046-.916.086-1.384.095z"/></g><path d="m172.223 176.871v70.833c0 9.391 7.685 17.367 17.075 17.192 9.106-.17 16.436-7.605 16.436-16.752v-26.516c0-9.391 7.685-17.367 17.075-17.191 9.106.17 16.435 7.605 16.436 16.751v4.29c0 9.392 7.685 17.367 17.075 17.191 9.106-.171 16.435-7.605 16.435-16.752v-17.347c.001-9.146 7.33-16.581 16.436-16.751 9.39-.176 17.075 7.8 17.075 17.191v48.343c0 9.392 7.686 17.367 17.076 17.191 9.106-.171 16.435-7.606 16.435-16.752v-80.921c0-16.524-13.395-29.92-29.92-29.92h-107.714c-16.524 0-29.92 13.396-29.92 29.92z" fill="#edf4fa"/><path d="m256 120.753c23.891 0 43.258-19.367 43.258-43.258 0-40.453-43.258-69.495-43.258-69.495s-43.258 29.042-43.258 69.495c0 23.89 19.367 43.258 43.258 43.258z" fill="#ffe08c"/><path d="m256 102.753c-21.027 0-38.544-15.006-42.442-34.891-.526 3.13-.816 6.343-.816 9.633 0 23.891 19.367 43.258 43.258 43.258s43.258-19.367 43.258-43.258c0-3.29-.29-6.503-.816-9.633-3.898 19.885-21.415 34.891-42.442 34.891z" fill="#f9d375"/><path d="m241.668 422.472.008-.016c-7.771-4.806-12.951-13.402-12.951-23.211 0-2.583.367-5.08 1.038-7.448-16.536-17.67-25.747-36.416-25.747-36.416-16.183 6.637-43.788-7.587-43.788-7.587-14.578 18.582-43.964 16.848-43.964 16.848s19.868 21.721 14.632 44.751c0 0 28.443 12.465 33.491 29.212h38.224c-.001 0 39.065-16.149 39.057-16.133z" fill="#36ce94"/><path d="m270.331 422.472-.007-.016c7.771-4.806 12.951-13.402 12.951-23.211 0-2.583-.367-5.08-1.038-7.448 16.536-17.67 25.747-36.416 25.747-36.416 16.183 6.637 43.788-7.587 43.788-7.587 14.578 18.582 43.964 16.848 43.964 16.848s-19.868 21.721-14.632 44.751c0 0-28.443 12.465-33.491 29.212h-38.223s-39.066-16.149-39.059-16.133z" fill="#36ce94"/><path d="m362.218 420.605h-89.269c-.838.665-1.711 1.287-2.625 1.852l.007.016c-.007-.016 39.059 16.133 39.059 16.133h38.224c2.088-6.928 8.179-13.119 14.604-18.001z" fill="#36bf84"/><path d="m164.386 438.605h38.224s39.066-16.148 39.059-16.133l.008-.016c-.913-.565-1.787-1.186-2.625-1.852h-89.269c6.424 4.883 12.515 11.074 14.603 18.001z" fill="#36bf84"/><g fill="#f7594e"><ellipse cx="256" cy="399.245" rx="27.276" ry="27.275" transform="matrix(.389 -.921 .921 .389 -211.408 479.636)"/><ellipse cx="228.724" cy="446.485" rx="27.275" ry="27.276" transform="matrix(.987 -.16 .16 .987 -68.566 42.403)"/><ellipse cx="283.275" cy="446.485" rx="27.275" ry="27.276" transform="matrix(.987 -.16 .16 .987 -67.861 51.141)"/></g><g fill="#ea4642"><path d="m256 408.521c-11.909 0-22.029-7.635-25.748-18.276-.985 2.819-1.527 5.845-1.527 9 0 15.064 12.212 27.276 27.275 27.276 15.064 0 27.275-12.212 27.275-27.276 0-3.155-.542-6.181-1.527-9-3.719 10.641-13.839 18.276-25.748 18.276z"/><path d="m228.724 455.761c-11.909 0-22.029-7.635-25.748-18.276-.985 2.819-1.527 5.845-1.527 9 0 15.064 12.212 27.276 27.275 27.276 15.064 0 27.275-12.212 27.275-27.276 0-3.155-.542-6.181-1.527-9-3.718 10.64-13.839 18.276-25.748 18.276z"/><path d="m283.275 455.761c-11.909 0-22.029-7.635-25.748-18.276-.985 2.819-1.527 5.845-1.527 9 0 15.064 12.212 27.276 27.275 27.276 15.064 0 27.276-12.212 27.276-27.276 0-3.155-.542-6.181-1.527-9-3.719 10.64-13.839 18.276-25.749 18.276z"/></g><path d="m256 276.412s-11.069 27.277-34.113 32.45c0 0 7.878 33.104-17.871 46.519 0 0 9.21 18.746 25.747 36.416v.002c3.241-11.443 13.757-19.83 26.238-19.83s22.997 8.387 26.238 19.83c0-.001 0-.001 0-.002 16.536-17.67 25.746-36.416 25.746-36.416-25.749-13.415-17.871-46.519-17.871-46.519-23.045-5.173-34.114-32.45-34.114-32.45z" fill="#36ce94"/><path d="m256 276.412s-11.069 27.277-34.113 32.45c0 0 7.878 33.104-17.871 46.519 0 0 9.21 18.746 25.747 36.416v.002c3.241-11.443 13.757-19.83 26.238-19.83s22.997 8.387 26.238 19.83c0-.001 0-.001 0-.002 16.536-17.67 25.746-36.416 25.746-36.416-25.749-13.415-17.871-46.519-17.871-46.519-23.045-5.173-34.114-32.45-34.114-32.45z" fill="#36bf84"/></g><path d="m402.785 361.624c-1.315-2.762-4.166-4.453-7.227-4.271-.252.016-25.848 1.083-37.695-14.018-2.221-2.832-6.145-3.688-9.348-2.044-3.038 1.558-9.29 4.267-16.149 6.219v-67.256c8.823-3.666 15.081-12.4 15.081-22.458v-22.793c0-4.15-3.365-7.515-7.515-7.515s-7.515 3.365-7.515 7.515v22.793c0 5.019-4.079 9.178-9.094 9.272-2.39.047-4.674-.897-6.462-2.652-1.901-1.865-2.992-4.439-2.992-7.06v-48.437c0-6.63-2.731-13.113-7.494-17.787-4.69-4.603-10.828-7.09-17.27-6.952-13.146.246-23.842 11.145-23.842 24.297v17.381c0 5.019-4.08 9.178-9.093 9.272-2.393.049-4.675-.897-6.462-2.652-1.901-1.866-2.992-4.439-2.992-7.06v-4.299c-.001-13.151-10.696-24.05-23.842-24.297-6.466-.133-12.579 2.348-17.27 6.952-4.762 4.674-7.494 11.157-7.494 17.786v26.568c0 5.019-4.079 9.178-9.093 9.272-2.395.04-4.675-.897-6.462-2.652-1.901-1.866-2.992-4.439-2.992-7.061v-70.972c0-12.386 10.077-22.463 22.463-22.463h107.925c12.387 0 22.463 10.077 22.463 22.463v28.229c0 4.15 3.365 7.515 7.515 7.515s7.515-3.365 7.515-7.515v-28.229c0-20.674-16.819-37.493-37.493-37.493h-46.448v-11.779c24.492-3.644 43.343-24.809 43.343-50.299 0-44.031-44.763-74.59-46.669-75.869-2.534-1.701-5.845-1.701-8.377 0-.469.315-11.601 7.848-22.863 20.594-2.747 3.11-2.454 7.859.656 10.607 3.109 2.747 7.858 2.454 10.607-.656 5.959-6.745 11.939-11.886 15.781-14.928 10.267 8.154 35.836 31.366 35.836 60.253 0 19.756-16.072 35.828-35.828 35.828s-35.828-16.072-35.828-35.828c0-7.283 1.64-14.751 4.873-22.197 1.653-3.807-.093-8.233-3.9-9.886-3.805-1.652-8.233.094-9.886 3.9-4.059 9.346-6.116 18.828-6.116 28.183 0 25.49 18.851 46.655 43.343 50.299v11.779h-46.448c-20.674 0-37.493 16.819-37.493 37.493v70.972c0 6.63 2.731 13.113 7.494 17.787 2.243 2.201 4.812 3.906 7.587 5.08v76.955c-6.857-1.951-13.107-4.659-16.142-6.215-3.206-1.651-7.131-.795-9.355 2.042-11.948 15.229-37.457 14.03-37.695 14.018-6.502-.599-10.547 7.871-5.999 12.56.172.19 17.181 19.239 12.89 38.113-.798 3.51 1.011 7.095 4.305 8.546 4.58 2.018 15.431 7.836 22.712 14.875h-2.108c-7.536 0-14.538 3.738-18.731 10-4.193 6.261-4.984 14.16-2.115 21.128l14.603 35.465c3.492 8.481 11.675 13.96 20.846 13.96h26.05c4.15 0 7.515-3.365 7.515-7.515s-3.365-7.515-7.515-7.515h-26.05c-3.057 0-5.785-1.827-6.949-4.653l-14.603-35.465c-2.132-4.734 1.76-10.545 6.949-10.376h45.606c-.001.127-.01.253-.01.381 0 19.213 15.631 34.844 34.844 34.844 11.069 0 20.942-5.195 27.329-13.268 6.387 8.073 16.26 13.268 27.329 13.268 19.213 0 34.844-15.631 34.844-34.844 0-.128-.008-.254-.01-.381h45.606c5.19-.169 9.08 5.642 6.949 10.376l-14.603 35.464c-1.164 2.827-3.891 4.654-6.949 4.654h-130.224c-4.15 0-7.515 3.365-7.515 7.515s3.365 7.515 7.515 7.515h130.222c9.171 0 17.354-5.479 20.846-13.96l14.603-35.464c2.869-6.968 2.079-14.867-2.114-21.128-4.193-6.262-11.196-10-18.732-10h-2.108c7.281-7.038 18.13-12.856 22.706-14.872 3.301-1.447 5.11-5.034 4.311-8.549-4.292-18.874 12.717-37.923 12.878-38.1 2.064-2.26 2.554-5.543 1.239-8.305zm-208.14-89.91c10.58-2.633 18.496-12.273 18.496-23.586v-26.568c0-2.621 1.09-5.194 2.992-7.06 1.787-1.754 4.07-2.701 6.461-2.652 5.014.094 9.094 4.253 9.094 9.271v4.299c0 6.63 2.731 13.113 7.494 17.786 4.691 4.604 10.833 7.071 17.271 6.952 13.146-.247 23.841-11.147 23.841-24.298v-17.38c.001-5.018 4.08-9.177 9.094-9.271 2.373-.046 4.673.897 6.461 2.652 1.901 1.866 2.992 4.439 2.992 7.06v48.437c0 6.63 2.731 13.113 7.494 17.787 3.135 3.077 6.915 5.199 11.002 6.232v68.446c-2.231-.066-4.299-.4-6.095-1.083-19.821-10.637-14.013-36.936-13.76-38.032.465-1.955.128-4.015-.936-5.72-1.065-1.705-2.768-2.912-4.728-3.352-18.885-4.239-28.771-27.786-28.862-28.007-1.148-2.828-3.896-4.673-6.949-4.68-.006 0-.012 0-.018 0-3.046 0-5.794 1.847-6.953 4.664-.098.237-9.984 23.784-28.869 28.023-1.953.438-3.647 1.65-4.712 3.343-1.065 1.694-1.408 3.755-.958 5.704.259 1.121 6.066 27.419-13.754 38.056-1.796.683-3.864 1.017-6.095 1.083v-78.106zm61.345 107.997c10.926 0 19.814 8.889 19.814 19.815s-8.888 19.814-19.814 19.814-19.814-8.889-19.814-19.814c0-10.926 8.889-19.815 19.814-19.815zm7.515-14.204v-26.953c0-4.15-3.365-7.515-7.515-7.515s-7.515 3.365-7.515 7.515v26.953c-8.293 1.831-15.489 6.617-20.411 13.203-6.482-8.048-11.304-15.657-14.21-20.629 15.088-11.75 17.64-30.858 16.388-43.914 11.925-4.854 20.41-14.392 25.747-22.277 5.338 7.885 13.823 17.423 25.747 22.277-1.252 13.056 1.3 32.165 16.388 43.914-2.907 4.973-7.728 12.581-14.21 20.629-4.92-6.586-12.116-11.372-20.409-13.203zm-94.348 65.94c-6.702-12.563-22.003-21.819-30.266-26.109 1.079-13.251-4.02-25.42-8.973-33.847 9.663-1.467 22.327-5.179 31.932-14.368 8.318 3.615 24.509 9.451 38.26 7.237 3.761 6.59 11.041 18.216 21.434 29.902-.261 1.717-.398 3.474-.398 5.263 0 2.079.193 4.113.544 6.094l-46.562-20.92c-3.786-1.701-8.233-.011-9.934 3.775s-.011 8.233 3.775 9.934l41.591 18.687c-5.625 3.433-10.2 8.418-13.139 14.352zm59.504 35.225c-10.926 0-19.814-8.889-19.814-19.815s8.889-19.814 19.814-19.814c10.926 0 19.814 8.888 19.814 19.814s-8.888 19.815-19.814 19.815zm54.658 0c-10.926 0-19.814-8.889-19.814-19.815s8.888-19.814 19.814-19.814 19.814 8.888 19.814 19.814-8.888 19.815-19.814 19.815zm89.77-61.333c-8.262 4.289-23.563 13.546-30.266 26.108h-28.265c-2.939-5.934-7.514-10.918-13.139-14.352l41.591-18.687c3.786-1.701 5.476-6.149 3.775-9.934-1.702-3.786-6.148-5.476-9.935-3.775l-46.562 20.92c.351-1.98.545-4.014.545-6.094 0-1.789-.136-3.546-.398-5.263 10.393-11.686 17.672-23.311 21.433-29.902 13.754 2.211 29.942-3.623 38.26-7.238 9.607 9.191 22.269 12.902 31.932 14.369-4.95 8.428-10.05 20.598-8.971 33.848z"/></g></svg>