<svg height="512pt" viewBox="0 0 512 512" width="512pt" xmlns="http://www.w3.org/2000/svg"><path d="m502 136v346c0 11.050781-8.949219 20-20 20h-452c-11.050781 0-20-8.949219-20-20v-346zm0 0" fill="#fff"/><path d="m482 50c11.050781 0 20 8.949219 20 20v66h-492v-66c0-11.050781 8.949219-20 20-20zm0 0" fill="#ff5d5d"/><path d="m256 236c55.230469 0 100 44.769531 100 100s-44.769531 100-100 100-100-44.769531-100-100 44.769531-100 100-100zm0 0" fill="#4e8dc2"/><path d="m116 166c-5.519531 0-10 4.480469-10 10s4.480469 10 10 10 10-4.480469 10-10-4.480469-10-10-10zm0 0"/><path d="m30 512h452c16.542969 0 30-13.457031 30-30v-412c0-16.542969-13.457031-30-30-30h-16v-10c0-16.542969-13.457031-30-30-30s-30 13.457031-30 30v10h-60v-10c0-16.542969-13.457031-30-30-30s-30 13.457031-30 30v10h-60v-10c0-16.542969-13.457031-30-30-30s-30 13.457031-30 30v10h-60v-10c0-16.542969-13.457031-30-30-30s-30 13.457031-30 30v10h-16c-16.542969 0-30 13.457031-30 30v412c0 16.542969 13.457031 30 30 30zm452-20h-452c-5.515625 0-10-4.484375-10-10v-336h472v336c0 5.515625-4.484375 10-10 10zm-56-462c0-5.515625 4.484375-10 10-10s10 4.484375 10 10v10h-20zm-120 0c0-5.515625 4.484375-10 10-10s10 4.484375 10 10v10h-20zm-120 0c0-5.515625 4.484375-10 10-10s10 4.484375 10 10v10h-20zm-120 0c0-5.515625 4.484375-10 10-10s10 4.484375 10 10v10h-20zm-36 30h16v13c0 16.542969 13.457031 30 30 30 5.523438 0 10-4.476562 10-10s-4.476562-10-10-10c-5.515625 0-10-4.484375-10-10v-13h100v13c0 16.542969 13.457031 30 30 30 5.523438 0 10-4.476562 10-10s-4.476562-10-10-10c-5.515625 0-10-4.484375-10-10v-13h100v13c0 16.542969 13.457031 30 30 30 5.523438 0 10-4.476562 10-10s-4.476562-10-10-10c-5.515625 0-10-4.484375-10-10v-13h100v13c0 16.542969 13.457031 30 30 30 5.523438 0 10-4.476562 10-10s-4.476562-10-10-10c-5.515625 0-10-4.484375-10-10v-13h56c5.515625 0 10 4.484375 10 10v56h-472v-56c0-5.515625 4.484375-10 10-10zm0 0"/><path d="m396 166h-240c-5.523438 0-10 4.476562-10 10s4.476562 10 10 10h240c5.523438 0 10-4.476562 10-10s-4.476562-10-10-10zm0 0"/><path d="m256 376c-5.519531 0-10 4.480469-10 10s4.480469 10 10 10 10-4.480469 10-10-4.480469-10-10-10zm0 0"/><path d="m256 226c-60.652344 0-110 49.347656-110 110s49.347656 110 110 110 110-49.347656 110-110-49.347656-110-110-110zm0 200c-49.625 0-90-40.375-90-90s40.375-90 90-90 90 40.375 90 90-40.375 90-90 90zm0 0"/><path d="m256 276c-16.542969 0-30 13.457031-30 30 0 5.523438 4.476562 10 10 10s10-4.476562 10-10c0-5.515625 4.484375-10 10-10s10 4.484375 10 10c0 3.21875-1.488281 6.15625-4.074219 8.0625-9.972656 7.332031-15.925781 19.09375-15.925781 31.46875v.46875c0 5.523438 4.476562 10 10 10s10-4.476562 10-10v-.46875c0-6.035156 2.90625-11.773438 7.78125-15.359375 7.652344-5.640625 12.21875-14.675781 12.21875-24.171875 0-16.542969-13.457031-30-30-30zm0 0"/></svg>