<svg id="Capa_1" enable-background="new 0 0 512 512" height="512" viewBox="0 0 512 512" width="512" xmlns="http://www.w3.org/2000/svg"><g><g><g><circle cx="138.629" cy="373.371" fill="#f7594e" r="130.629"/><path d="m138.629 486c-69.119 0-125.69-53.684-130.315-121.629-.202 2.975-.314 5.974-.314 9 0 72.145 58.484 130.629 130.629 130.629s130.629-58.484 130.629-130.629c0-3.026-.112-6.025-.314-9-4.626 67.945-61.197 121.629-130.315 121.629z" fill="#ea4642"/><path d="m138.629 242.743c11.026 0 21.73 1.373 31.957 3.944v-24.445c0-8.003-6.487-14.49-14.49-14.49h-35.021c-8.003 0-14.49 6.487-14.49 14.49v24.466c10.254-2.585 20.987-3.965 32.044-3.965z" fill="#ffe08c"/><path d="m106.585 228.708v18c10.254-2.586 20.987-3.965 32.044-3.965 11.026 0 21.73 1.373 31.957 3.944v-18c-10.228-2.572-20.932-3.944-31.957-3.944-11.057 0-21.79 1.38-32.044 3.965z" fill="#f9d375"/></g><ellipse cx="393.482" cy="267.317" fill="#ffe08c" rx="110.518" ry="110.518" transform="matrix(.707 -.707 .707 .707 -73.774 356.529)"/><path d="m393.482 359.836c-58.007 0-105.571-44.691-110.152-101.518-.239 2.969-.366 5.97-.366 9 0 61.038 49.481 110.518 110.518 110.518 61.038 0 110.518-49.481 110.518-110.518 0-3.03-.127-6.031-.366-9-4.581 56.827-52.145 101.518-110.152 101.518z" fill="#f9d375"/><path d="m393.482 156.799c9.328 0 18.384 1.161 27.038 3.337v-23.296c0-6.771-5.489-12.259-12.259-12.259h-29.629c-6.771 0-12.259 5.489-12.259 12.259v23.314c8.673-2.188 17.754-3.355 27.109-3.355z" fill="#febd55"/><path d="m366.371 142.154v18c8.675-2.188 17.756-3.355 27.111-3.355 9.328 0 18.384 1.161 27.038 3.337v-18c-8.653-2.176-17.709-3.337-27.038-3.337-9.355 0-18.436 1.167-27.111 3.355z" fill="#f9ab43"/><path d="m393.444 253.7c-44.66 0-80.154-9.795-105.215-20.159-3.415 10.647-5.265 21.995-5.265 33.777 0 10.098 1.362 19.877 3.899 29.171 25.131 10.572 61.103 20.729 106.581 20.729 45.53 0 81.532-10.181 106.667-20.766 2.531-9.283 3.889-19.05 3.889-29.135 0-11.792-1.854-23.149-5.274-33.805-25.065 10.375-60.583 20.188-105.282 20.188z" fill="#f7594e"/><g fill="#ea4642"><path d="m283.33 258.321c-.24 2.968-.367 5.967-.367 8.996 0 10.098 1.362 19.877 3.899 29.171 2.637 1.109 5.401 2.213 8.276 3.302-6.484-12.607-10.611-26.624-11.808-41.469z"/><path d="m491.844 299.755c2.871-1.089 5.632-2.193 8.267-3.303 2.531-9.283 3.889-19.05 3.889-29.135 0-3.029-.127-6.029-.366-8.997-1.197 14.831-5.317 28.836-11.79 41.435z"/></g></g><g><path d="m177.933 240.965v-18.789c0-10.542-7.444-19.374-17.35-21.527 1.303-2.97 2.031-6.247 2.031-9.692 0-10.746-7.038-19.874-16.744-23.031v-160.411c0-4.15-3.365-7.515-7.515-7.515s-7.515 3.365-7.515 7.515v160.44c-9.662 3.183-16.658 12.288-16.658 23.002 0 3.438.725 6.709 2.022 9.674-9.945 2.124-17.428 10.976-17.428 21.545v18.815c-57.063 17.081-98.776 70.062-98.776 132.61 0 76.313 62.086 138.399 138.399 138.399 28.223 0 55.375-8.443 78.521-24.416 3.416-2.357 4.274-7.037 1.917-10.453-2.358-3.416-7.037-4.274-10.453-1.917-20.625 14.233-44.825 21.756-69.985 21.756-8.835 0-17.453-.941-25.766-2.715 6.23-18.804 15.452-33.061 27.487-42.426 16.184-12.59 30.205-15.818 45.047-19.237 15.106-3.479 30.726-7.077 49.179-19.977 10.818-7.563 19.7-16.389 26.797-26.629-2.628 26.207-13.549 50.899-31.422 70.564-2.791 3.071-2.564 7.824.507 10.615s7.824 2.565 10.616-.507c23.186-25.511 35.955-58.559 35.955-93.058-.001-62.579-41.756-115.582-98.866-132.635zm-39.534-59.195c5.066 0 9.186 4.121 9.186 9.186s-4.121 9.186-9.186 9.186c-5.066 0-9.186-4.121-9.186-9.186-.001-5.065 4.12-9.186 9.186-9.186zm-24.592 40.406c0-3.862 3.142-7.004 7.004-7.004h35.089c3.862 0 7.004 3.142 7.004 7.004v15.199c-7.956-1.427-16.145-2.173-24.505-2.173-8.391 0-16.609.752-24.592 2.189zm-96.719 173.901c6.156-22.158 16.08-38.7 29.533-49.157 5.693-4.429 11.406-7.94 17.465-10.736 3.769-1.739 5.414-6.203 3.675-9.972-1.739-3.768-6.204-5.413-9.972-3.675-7.114 3.282-13.786 7.378-20.394 12.518-8.429 6.551-15.648 14.958-21.632 25.119 6.713-61.733 59.147-109.943 122.636-109.943 9.297 0 18.355 1.041 27.07 2.999-6.844 17.505-17.768 31.35-33.234 42.157-16.058 11.227-30.082 14.457-43.643 17.581-4.045.932-6.568 4.965-5.636 9.01.801 3.477 3.894 5.829 7.316 5.829.559 0 1.126-.063 1.694-.193 14.263-3.286 30.43-7.01 48.88-19.908 18.374-12.84 31.206-29.347 39.094-50.271 14.081 5.051 26.982 12.592 38.176 22.092-3.286 22.904-11.432 50.658-40.554 71.021-16.059 11.227-29.603 14.344-43.941 17.644-15.782 3.632-32.1 7.388-50.912 22.017-17.803 13.853-30.148 35.661-36.806 64.932-14.484-16.411-24.679-36.687-28.815-59.064zm208.646 4.221c-16.059 11.227-29.602 14.347-43.94 17.649-15.78 3.634-32.097 7.392-50.903 22.021-14.578 11.343-25.563 28.238-32.743 50.254-14.572-5.044-27.911-12.747-39.439-22.525 3.861-21.934 12.761-49.699 33.229-65.626 16.189-12.589 30.21-15.816 45.054-19.232 15.108-3.477 30.729-7.072 49.183-19.973 29.293-20.483 40.239-47.81 44.959-70.537 15.086 17.192 25.48 38.596 29.16 62.196-6.718 19.22-18.027 34.215-34.56 45.773z"/><g><path d="m428.356 154.26v-17.653c0-8.489-5.381-15.727-12.903-18.535 1.483-3.121 2.317-6.609 2.317-10.289 0-10.64-6.946-19.682-16.54-22.846v-77.422c0-4.15-3.365-7.515-7.515-7.515s-7.515 3.365-7.515 7.515v77.423c-9.594 3.164-16.54 12.207-16.54 22.846 0 3.679.833 7.167 2.317 10.289-7.522 2.808-12.904 10.045-12.904 18.535v17.654c-11.574 3.544-22.587 8.867-32.697 15.889-3.409 2.367-4.253 7.05-1.885 10.459 2.367 3.408 7.049 4.252 10.459 1.885 17.309-12.021 37.643-18.375 58.802-18.375 43.438 0 80.691 26.972 95.9 65.046-29.69 11.288-61.924 17.015-95.938 17.015-33.979 0-66.184-5.715-95.851-16.982 3.972-9.995 9.486-19.382 16.431-27.748 2.651-3.193 2.211-7.931-.982-10.582s-7.931-2.211-10.582.982c-17.558 21.149-27.227 47.958-27.227 75.489 0 65.203 53.046 118.249 118.249 118.249s118.25-53.046 118.25-118.249c-.002-53.168-35.275-98.247-83.646-113.08zm-34.642-55.502c4.977 0 9.025 4.049 9.025 9.026 0 4.976-4.049 9.025-9.025 9.025s-9.026-4.049-9.026-9.025c.001-4.977 4.05-9.026 9.026-9.026zm19.612 51.962c-6.37-1.066-12.908-1.63-19.576-1.63-6.639 0-13.203.566-19.649 1.642v-14.125c0-2.63 2.139-4.769 4.769-4.769h29.687c2.63 0 4.769 2.139 4.769 4.769zm-19.613 110.49c35.545 0 69.298-5.961 100.476-17.7 1.815 7.652 2.782 15.63 2.782 23.83 0 8.14-.951 16.061-2.741 23.663-30.929 12.478-64.719 18.821-100.517 18.821-35.765 0-69.527-6.331-100.433-18.787-1.795-7.612-2.749-15.545-2.749-23.697 0-8.057.97-16.038 2.809-23.791 31.151 11.713 64.868 17.661 100.373 17.661zm.037 109.349c-41.936 0-78.108-25.141-94.245-61.14 29.404 10.235 61.01 15.433 94.207 15.433 33.232 0 64.868-5.209 94.297-15.464-16.129 36.016-52.31 61.171-94.259 61.171z"/><path d="m308.179 280.309c1.627.45 3.281.892 4.963 1.325.63.162 1.261.24 1.882.24 3.345 0 6.397-2.25 7.271-5.64 1.037-4.018-1.381-8.117-5.4-9.153-1.596-.412-3.167-.832-4.712-1.259-4.003-1.105-8.14 1.241-9.245 5.241-1.106 4.001 1.241 8.14 5.241 9.246z"/><path d="m345.727 288.161c3.62.526 7.315.999 10.98 1.403.28.031.558.046.834.046 3.78 0 7.036-2.845 7.46-6.691.456-4.125-2.52-7.838-6.645-8.294-3.495-.386-7.016-.836-10.467-1.337-4.108-.595-7.921 2.248-8.518 6.355-.597 4.108 2.248 7.921 6.356 8.518z"/><path d="m389.808 291.555c1.216.014 2.438.021 3.661.021 2.471.003 4.948-.023 7.39-.074 4.149-.086 7.443-3.52 7.357-7.669s-3.531-7.431-7.669-7.357c-2.263.047-4.568.071-6.857.071-1.237-.005-2.481-.006-3.713-.02-4.116-.06-7.552 3.28-7.599 7.43-.046 4.149 3.28 7.551 7.43 7.598z"/><path d="m433.035 289.243c.3 0 .604-.018.909-.055 3.658-.441 7.348-.951 10.967-1.515 4.101-.639 6.906-4.482 6.268-8.583-.639-4.101-4.478-6.906-8.583-6.268-3.449.538-6.965 1.024-10.452 1.445-4.12.497-7.058 4.24-6.56 8.361.46 3.814 3.702 6.615 7.451 6.615z"/><path d="m475.479 281.055c.647 0 1.306-.085 1.96-.261 1.678-.452 3.327-.913 4.948-1.38 3.988-1.15 6.289-5.315 5.139-9.302-1.151-3.988-5.315-6.292-9.302-5.139-1.539.444-3.104.881-4.696 1.311-4.007 1.08-6.38 5.204-5.299 9.211.903 3.351 3.937 5.56 7.25 5.56z"/></g></g></g></svg>