<svg id="Capa_1" enable-background="new 0 0 512 512" height="512" viewBox="0 0 512 512" width="512" xmlns="http://www.w3.org/2000/svg"><g><path d="m430.251 436.404h-348.502v-254.654c0-96.236 78.015-174.25 174.251-174.25 96.236 0 174.251 78.015 174.251 174.251z" fill="#8b5e5e"/><path d="m256 7.5c-4.107 0-8.177.153-12.212.432 90.537 6.269 162.039 81.688 162.039 173.818v254.654h24.424v-254.654c0-96.236-78.015-174.25-174.251-174.25z" fill="#785252"/><path d="m447.227 436.404h-382.454c-5.354 0-9.693 4.34-9.693 9.693v19.415c0 5.354 4.34 9.693 9.693 9.693h382.454c5.354 0 9.693-4.34 9.693-9.693v-19.415c0-5.353-4.34-9.693-9.693-9.693z" fill="#eab14d"/><path d="m447.227 436.404h-21.487c5.354 0 9.693 4.34 9.693 9.693v19.415c0 5.354-4.34 9.693-9.693 9.693h21.487c5.354 0 9.693-4.34 9.693-9.693v-19.415c0-5.353-4.34-9.693-9.693-9.693z" fill="#e49542"/><g fill="#8b5e5e"><path d="m165.715 504.5h-53.228c-5.217 0-9.447-4.229-9.447-9.447v-19.847h72.121v19.847c.001 5.217-4.228 9.447-9.446 9.447z"/><path d="m399.512 504.5h-53.228c-5.217 0-9.447-4.229-9.447-9.447v-19.847h72.121v19.847c.001 5.217-4.229 9.447-9.446 9.447z"/></g><path d="m153.24 475.206v19.848c0 5.217-4.229 9.447-9.447 9.447h21.922c5.217 0 9.447-4.229 9.447-9.447v-19.848z" fill="#785252"/><path d="m387.037 475.206v19.848c0 5.217-4.229 9.447-9.447 9.447h21.922c5.217 0 9.447-4.229 9.447-9.447v-19.848z" fill="#785252"/><circle cx="256" cy="184.575" fill="#f4fbff" r="98.791"/><path d="m256 85.784c-4.159 0-8.258.26-12.282.759 48.765 6.047 86.509 47.63 86.509 98.032s-37.745 91.984-86.509 98.032c4.024.499 8.122.759 12.282.759 54.561 0 98.791-44.23 98.791-98.791s-44.23-98.791-98.791-98.791z" fill="#daf1f4"/><path d="m305.399 403.256h-98.799c-5.485 0-9.932-4.447-9.932-9.932v-14.878c0-5.485 4.447-9.932 9.932-9.932h98.799c5.485 0 9.932 4.447 9.932 9.932v14.878c0 5.485-4.447 9.932-9.932 9.932z" fill="#eab14d"/><path d="m305.399 368.514h-26.099c5.485 0 9.932 4.447 9.932 9.932v14.878c0 5.485-4.447 9.932-9.932 9.932h26.099c5.485 0 9.932-4.447 9.932-9.932v-14.878c0-5.486-4.447-9.932-9.932-9.932z" fill="#e49542"/><g><path d="m238.393 27.712c-6.625 1.49-12.273 5.471-15.905 11.209-3.631 5.739-4.811 12.548-3.32 19.173.909 4.041 4.923 6.576 8.963 5.672 4.041-.909 6.581-4.922 5.672-8.963-1.261-5.607 2.274-11.195 7.882-12.456 7.299-1.642 11.473 8.501 5.17 9.916-4.041.909-6.58 4.921-5.672 8.963.784 3.487 3.88 5.856 7.311 5.856.545 0 1.099-.061 1.652-.185 4.943-1.111 9.159-4.082 11.868-8.364 2.71-4.282 3.59-9.363 2.478-14.307-2.644-11.747-14.345-19.16-26.099-16.514z"/><path d="m212.902 53.955c-3.107-2.742-7.847-2.442-10.586.664-.128.147-13.231 14.544-39.977 4.512-3.882-1.455-8.202.51-9.656 4.389s.511 8.202 4.389 9.656c8.741 3.278 16.497 4.53 23.253 4.53 21.308 0 32.629-12.471 33.241-13.165 2.74-3.106 2.442-7.846-.664-10.586z"/><path d="m146.293 76.478c-5.69 1.279-10.543 4.699-13.662 9.629-7.495 11.846-3.956 27.581 7.889 35.077 1.245.787 2.632 1.163 4.004 1.163 2.485 0 4.917-1.235 6.345-3.49 2.215-3.5 1.173-8.134-2.327-10.349-4.856-3.073-6.308-9.524-3.234-14.381 2.017-3.188 6.25-4.139 9.435-2.122 1.855 1.174 2.407 3.623 1.232 5.479-2.215 3.5-1.173 8.134 2.327 10.349 3.5 2.213 8.133 1.173 10.349-2.327 2.709-4.282 3.59-9.363 2.478-14.308-1.112-4.943-4.082-9.158-8.364-11.868-4.932-3.119-10.78-4.13-16.472-2.852z"/><path d="m101.07 162.101c-3.771 1.715-5.438 6.161-3.725 9.932 1.257 2.765 3.981 4.398 6.833 4.398 1.037 0 2.093-.217 3.099-.674 35.307-16.049 33.917-44.835 33.841-46.053-.26-4.135-3.834-7.301-7.957-7.058-4.135.26-7.277 3.779-7.019 7.913.032.808.485 19.925-25.072 31.542z"/><path d="m123.938 222.029c1.841 0 3.711-.202 5.581-.622 4.041-.909 6.581-4.922 5.672-8.963s-4.923-6.577-8.963-5.672c-5.606 1.264-11.194-2.275-12.456-7.882-.83-3.693 1.489-7.345 5.172-8.172 2.131-.485 4.263.859 4.744 3.002.909 4.042 4.924 6.579 8.963 5.672 4.041-.908 6.58-4.921 5.672-8.963-1.111-4.943-4.082-9.159-8.364-11.868-4.283-2.71-9.364-3.591-14.307-2.478-11.748 2.642-19.156 14.35-16.515 26.098 2.655 11.807 13.174 19.848 24.801 19.848z"/><path d="m134.945 287.892c.868.325 1.758.479 2.633.479 3.036 0 5.895-1.857 7.023-4.868 13.617-36.312-7.72-55.688-8.635-56.494-3.107-2.741-7.847-2.442-10.586.664s-2.442 7.846.664 10.586c.146.129 14.54 13.235 4.512 39.977-1.454 3.878.511 8.202 4.389 9.656z"/><path d="m157.532 307.943c4.208 2.663 8.906 3.933 13.553 3.933 8.432 0 16.691-4.185 21.524-11.821 2.215-3.5 1.173-8.134-2.327-10.349-3.5-2.213-8.133-1.173-10.349 2.327-3.073 4.857-9.526 6.309-14.381 3.234-3.187-2.016-4.139-6.249-2.122-9.435 1.169-1.846 3.616-2.413 5.479-1.232 3.5 2.214 8.133 1.173 10.349-2.327 2.215-3.5 1.173-8.134-2.327-10.349-4.282-2.71-9.361-3.588-14.308-2.478-4.943 1.112-9.158 4.082-11.868 8.364-3.119 4.93-4.132 10.778-2.852 16.47 1.279 5.692 4.699 10.544 9.629 13.663z"/><path d="m201.128 299.457c-4.134.26-7.317 3.823-7.058 7.957s3.769 7.271 7.913 7.019c.809-.039 19.924-.49 31.542 25.072 1.257 2.765 3.981 4.398 6.833 4.398 1.037 0 2.093-.217 3.099-.674 3.771-1.715 5.438-6.161 3.725-9.932-16.048-35.305-44.834-33.916-46.054-33.84z"/><path d="m265.146 316.887c4.041-.909 6.58-4.921 5.672-8.963-.908-4.041-4.924-6.575-8.963-5.672-10.205 2.295-16.642 12.465-14.347 22.672 2.282 10.141 11.318 17.048 21.305 17.048 1.582 0 3.188-.173 4.794-.534 6.625-1.49 12.273-5.471 15.904-11.21 3.631-5.738 4.811-12.547 3.32-19.172-.909-4.041-4.922-6.575-8.963-5.672-4.041.909-6.581 4.922-5.672 8.963 1.262 5.607-2.274 11.195-7.881 12.456-3.68.825-7.346-1.494-8.173-5.171-.479-2.136.867-4.265 3.004-4.745z"/><path d="m349.661 310.019c3.88 1.453 8.202-.511 9.656-4.389 1.454-3.879-.511-8.202-4.389-9.656-36.314-13.618-55.688 7.72-56.494 8.635-2.74 3.106-2.471 7.878.636 10.617 1.435 1.265 3.21 1.889 4.977 1.889 2.06 0 4.106-.849 5.581-2.521.549-.595 13.744-14.433 40.033-4.575z"/><path d="m379.369 283.043c7.495-11.846 3.956-27.581-7.889-35.077-3.501-2.213-8.133-1.173-10.349 2.327-2.215 3.5-1.173 8.134 2.327 10.349 4.856 3.073 6.308 9.524 3.234 14.381-2.015 3.186-6.233 4.149-9.435 2.122-1.855-1.174-2.407-3.623-1.232-5.479 2.215-3.5 1.173-8.134-2.327-10.349-3.501-2.212-8.133-1.173-10.349 2.327-2.709 4.282-3.59 9.363-2.478 14.308 1.112 4.943 4.082 9.158 8.364 11.868 3.615 2.287 7.651 3.379 11.643 3.378 7.245 0 14.339-3.594 18.491-10.155z"/><path d="m410.93 207.049c3.771-1.715 5.438-6.161 3.725-9.932s-6.159-5.439-9.932-3.725c-35.307 16.049-33.918 44.836-33.842 46.054.249 3.974 3.55 7.03 7.479 7.03.157 0 .316-.005.477-.015 4.134-.26 7.274-3.821 7.016-7.955-.014-.194-.924-19.639 25.077-31.457z"/><path d="m401.653 151.062c-5.739-3.631-12.548-4.811-19.173-3.319-4.041.909-6.58 4.923-5.671 8.964.91 4.04 4.919 6.576 8.964 5.671 2.714-.612 5.506-.128 7.859 1.36 2.353 1.489 3.984 3.805 4.596 6.521.827 3.679-1.493 7.346-5.171 8.173-2.14.478-4.266-.868-4.745-3.003-.908-4.041-4.921-6.574-8.963-5.672-4.041.908-6.58 4.921-5.672 8.963 1.98 8.81 9.83 14.811 18.507 14.811 1.374 0 2.77-.15 4.165-.464 11.747-2.644 19.155-14.351 16.514-26.1-1.491-6.625-5.472-12.274-11.21-15.905z"/><path d="m377.055 81.258c-3.882-1.455-8.203.511-9.656 4.389-13.618 36.313 7.72 55.688 8.635 56.494 1.426 1.258 3.195 1.875 4.958 1.875 2.078 0 4.146-.858 5.628-2.539 2.74-3.106 2.442-7.846-.664-10.586-.146-.129-14.541-13.235-4.512-39.977 1.454-3.879-.511-8.202-4.389-9.656z"/><path d="m354.468 61.206c-5.738-3.63-12.545-4.813-19.173-3.32-6.625 1.49-12.272 5.471-15.904 11.209-2.215 3.5-1.173 8.134 2.327 10.349 3.501 2.214 8.132 1.173 10.349-2.327 3.072-4.856 9.521-6.31 14.381-3.234 3.181 2.013 4.151 6.229 2.122 9.435-1.174 1.854-3.624 2.407-5.479 1.232-3.501-2.213-8.133-1.173-10.349 2.327-2.215 3.5-1.173 8.134 2.327 10.349 3.073 1.944 6.558 2.946 10.107 2.946 1.396 0 2.804-.155 4.2-.469 4.943-1.112 9.158-4.082 11.868-8.364 3.119-4.93 4.132-10.778 2.852-16.47s-4.699-10.544-9.628-13.663z"/><path d="m309.881 69.717c.538 0 .878-.018.989-.024 4.134-.26 7.317-3.823 7.058-7.957s-3.764-7.261-7.913-7.019c-.805.041-19.922.49-31.541-25.072-1.714-3.771-6.161-5.438-9.932-3.725-3.771 1.715-5.438 6.161-3.725 9.932 14.587 32.088 39.695 33.865 45.064 33.865z"/><path d="m206.6 410.756h98.799c9.612 0 17.432-7.819 17.432-17.432v-14.879c0-9.612-7.819-17.432-17.432-17.432h-98.799c-9.612 0-17.432 7.819-17.432 17.432v14.879c0 9.613 7.82 17.432 17.432 17.432zm-2.432-32.311c0-1.341 1.091-2.432 2.432-2.432h98.799c1.341 0 2.432 1.091 2.432 2.432v14.879c0 1.341-1.091 2.432-2.432 2.432h-98.799c-1.341 0-2.432-1.091-2.432-2.432z"/><path d="m256 126.744c4.143 0 7.5-3.357 7.5-7.5v-6.847c0-4.143-3.357-7.5-7.5-7.5s-7.5 3.357-7.5 7.5v6.847c0 4.143 3.357 7.5 7.5 7.5z"/><path d="m321.331 177.075c-4.143 0-7.5 3.357-7.5 7.5s3.357 7.5 7.5 7.5h6.846c4.143 0 7.5-3.357 7.5-7.5s-3.357-7.5-7.5-7.5z"/><path d="m248.5 249.906v6.846c0 4.143 3.357 7.5 7.5 7.5s7.5-3.357 7.5-7.5v-6.846c0-4.143-3.357-7.5-7.5-7.5s-7.5 3.358-7.5 7.5z"/><path d="m183.823 177.075c-4.143 0-7.5 3.357-7.5 7.5s3.357 7.5 7.5 7.5h6.846c4.143 0 7.5-3.357 7.5-7.5s-3.357-7.5-7.5-7.5z"/><path d="m284.787 184.575c0-4.143-3.357-7.5-7.5-7.5h-13.787v-30.932c0-4.143-3.357-7.5-7.5-7.5s-7.5 3.357-7.5 7.5v38.432c0 4.143 3.357 7.5 7.5 7.5h21.287c4.142 0 7.5-3.357 7.5-7.5z"/><path d="m149.708 184.574c0 58.609 47.682 106.292 106.291 106.292 24.17 0 47.828-8.332 66.617-23.462 18.507-14.902 31.628-35.788 36.947-58.812.933-4.036-1.583-8.063-5.619-8.996-4.035-.928-8.062 1.583-8.996 5.619-4.566 19.765-15.838 37.701-31.739 50.505-16.367 13.18-36.149 20.146-57.21 20.146-50.338 0-91.291-40.953-91.291-91.292 0-50.338 40.953-91.291 91.291-91.291 23.151 0 45.23 8.68 62.169 24.439 16.853 15.68 27.099 36.905 28.851 59.768.317 4.131 3.922 7.214 8.052 6.905 4.13-.317 7.222-3.922 6.905-8.052-2.042-26.63-13.971-51.349-33.59-69.603-19.723-18.35-45.431-28.457-72.386-28.457-58.61 0-106.292 47.682-106.292 106.291z"/><path d="m447.227 428.904h-9.477v-247.154c0-100.217-81.533-181.75-181.75-181.75-39.571 0-77.188 12.496-108.784 36.139-3.316 2.481-3.993 7.182-1.512 10.498 2.48 3.317 7.182 3.995 10.498 1.512 28.982-21.686 63.492-33.149 99.798-33.149 91.946 0 166.75 74.804 166.75 166.75v247.154h-333.5v-247.154c0-42.756 16.167-83.416 45.524-114.488 2.844-3.011 2.709-7.758-.302-10.603-3.01-2.844-7.757-2.711-10.603.302-31.997 33.868-49.619 78.186-49.619 124.789v247.154h-9.477c-9.48 0-17.193 7.713-17.193 17.193v19.414c0 9.48 7.713 17.193 17.193 17.193h30.769v12.348c0 9.345 7.603 16.947 16.946 16.947h53.228c9.344 0 16.946-7.603 16.946-16.947v-12.348h37.029c4.143 0 7.5-3.357 7.5-7.5s-3.357-7.5-7.5-7.5h-154.918c-1.209 0-2.193-.984-2.193-2.193v-19.414c0-1.209.984-2.193 2.193-2.193h382.454c1.209 0 2.193.984 2.193 2.193v19.414c0 1.209-.984 2.193-2.193 2.193h-197.549c-4.143 0-7.5 3.357-7.5 7.5s3.357 7.5 7.5 7.5h79.659v12.348c0 9.345 7.603 16.947 16.947 16.947h53.228c9.344 0 16.946-7.603 16.946-16.947v-12.348h30.769c9.48 0 17.193-7.713 17.193-17.193v-19.414c0-9.48-7.712-17.193-17.193-17.193zm-279.565 66.149c0 1.073-.873 1.947-1.946 1.947h-53.228c-1.073 0-1.946-.874-1.946-1.947v-12.347h57.12zm233.796 0c0 1.073-.873 1.947-1.946 1.947h-53.228c-1.073 0-1.947-.874-1.947-1.947v-12.347h57.121z"/></g></g></svg>