<svg id="Capa_1" enable-background="new 0 0 512 512" height="512" viewBox="0 0 512 512" width="512" xmlns="http://www.w3.org/2000/svg"><g><g><path d="m113.557 436.179h284.886l12.998 48.974c2.526 9.519-4.65 18.848-14.498 18.848h-281.886c-9.848 0-17.024-9.329-14.498-18.848z" fill="#565e75"/><path d="m100.361 486c-1.898 9.217 5.141 18 14.696 18h281.885c9.555 0 16.594-8.783 14.696-18z" fill="#4b5165"/><path d="m256 8c-131.32 0-237.776 106.456-237.776 237.775 0 77.892 37.455 147.033 95.335 190.403h284.881c57.88-43.37 95.335-112.512 95.335-190.403.001-131.319-106.455-237.775-237.775-237.775z" fill="#92e0ff"/><path d="m92.266 418.178c6.737 6.401 13.842 12.417 21.293 18h284.881c7.45-5.583 14.556-11.599 21.293-18z" fill="#75d5f2"/><g><path d="m292.595 191.097h-73.191c-17.08 11.688-28.292 31.323-28.292 53.581 0 35.837 29.051 64.888 64.888 64.888 35.836 0 64.888-29.051 64.888-64.888 0-22.259-11.212-41.893-28.293-53.581z" fill="#edf4fa"/><path d="m256 291.566c-32.792 0-59.887-24.33-64.256-55.92-.411 2.952-.632 5.966-.632 9.032 0 35.837 29.051 64.888 64.888 64.888 35.836 0 64.888-29.051 64.888-64.888 0-3.066-.22-6.079-.632-9.032-4.369 31.59-31.464 55.92-64.256 55.92z" fill="#d8e5ef"/><path d="m199.016 436.178h113.967c18.012-15.831 29.395-39.023 29.395-64.888 0-32.955-18.459-61.591-45.598-76.154-11.144 9.018-25.328 14.429-40.781 14.429s-29.637-5.411-40.781-14.429c-27.138 14.563-45.597 43.199-45.597 76.154 0 25.865 11.383 49.058 29.395 64.888z" fill="#edf4fa"/><path d="m183.47 418.178c4.34 6.694 9.576 12.753 15.546 18h113.967c5.97-5.247 11.206-11.306 15.546-18z" fill="#d8e5ef"/></g><path d="m294.389 191.097h-76.777l-8.109-64.642c-1.123-8.955 5.858-16.867 14.883-16.867h63.229c9.025 0 16.007 7.912 14.883 16.867z" fill="#565e75"/><path d="m215.353 173.097 2.258 18h76.778l2.258-18z" fill="#4b5165"/></g><g><path d="m429.775 71.98c-46.417-46.417-108.131-71.98-173.775-71.98-58.66 0-115.452 21.004-159.917 59.142-3.15 2.702-3.514 7.446-.812 10.596 2.701 3.15 7.445 3.512 10.596.812 41.743-35.803 95.061-55.521 150.133-55.521 61.629 0 119.57 24 163.148 67.578s67.578 101.519 67.578 163.148c0 36.962-8.475 72.268-25.189 104.936-15.57 30.433-38.134 57.469-65.344 78.325h-65.788c12.637-16.348 19.657-36.54 19.657-57.5 0-17.54-4.86-34.325-13.617-48.762l48.701-19.665 27.229 6.673c3.924.995 8.115-1.448 9.087-5.51.988-4.031-1.478-8.099-5.51-9.088l-21.544-5.279 7.331-20.936c1.372-3.917-.692-8.204-4.609-9.576-3.917-1.369-8.204.692-9.575 4.609l-8.942 25.536-51.272 20.703c-5.275-6.135-11.364-11.63-18.179-16.297 12.007-12.947 19.366-30.261 19.366-49.269 0-17.062-6.002-33.327-16.609-46.171h9.094c4.151 0 7.515-3.364 7.515-7.515 0-4.15-3.364-7.515-7.515-7.515h-18.033l7.065-56.319c1.938-13.032-9.198-25.649-22.368-25.35h-63.354c-13.172-.3-24.306 12.319-22.369 25.35l7.065 56.319h-18.035c-4.15 0-7.515 3.365-7.515 7.515s3.364 7.515 7.515 7.515h9.095c-10.607 12.845-16.609 29.11-16.609 46.171 0 19.01 7.362 36.326 19.371 49.273-6.782 4.649-12.867 10.148-18.163 16.301l-51.291-20.711-8.942-25.536c-1.371-3.917-5.657-5.979-9.576-4.609-3.917 1.372-5.98 5.659-4.609 9.576l7.331 20.935-21.544 5.28c-9.548 2.189-5.785 17.084 3.577 14.598l27.229-6.673 48.713 19.67c-5.089 8.378-8.897 17.57-11.169 27.302-.943 4.042 1.568 8.083 5.61 9.026 4.045.944 8.083-1.568 9.026-5.61 4.792-20.525 17.641-38.25 35.56-49.284.191.133.393.263.607.392 11.633 7.945 25.681 12.6 40.8 12.6s29.169-4.656 40.802-12.601c.213-.128.415-.258.605-.391 23.326 14.355 37.626 39.734 37.626 67.323 0 21.781-9.022 42.581-24.844 57.5h-108.378c-13.686-12.894-22.307-30.097-24.364-48.741-.455-4.126-4.172-7.103-8.293-6.645-4.125.455-7.101 4.168-6.645 8.293 1.906 17.281 8.551 33.51 19.076 47.093h-65.777c-27.21-20.856-49.774-47.892-65.344-78.325-16.714-32.668-25.188-67.974-25.188-104.936 0-57.403 21.214-112.418 59.735-154.911 2.788-3.075 2.554-7.827-.521-10.615-3.074-2.787-7.827-2.555-10.615.521-41.032 45.263-63.629 103.863-63.629 165.005 0 39.365 9.029 76.974 26.838 111.782 16.211 31.685 39.546 59.892 67.653 81.889l-11.743 44.247c-1.81 6.819-.381 13.936 3.92 19.528s10.815 8.799 17.869 8.799h210.165c4.151 0 7.515-3.364 7.515-7.515s-3.364-7.515-7.515-7.515h-210.166c-2.352 0-4.523-1.069-5.957-2.933s-1.91-4.236-1.307-6.509l11.54-43.482h273.882l11.541 43.482c.604 2.273.127 4.646-1.306 6.509-1.434 1.864-3.606 2.933-5.957 2.933h-42.212c-4.151 0-7.515 3.365-7.515 7.515s3.364 7.515 7.515 7.515h42.212c7.055 0 13.569-3.207 17.869-8.799 4.301-5.592 5.731-12.709 3.921-19.528l-11.743-44.247c28.106-21.997 51.442-50.204 67.654-81.889 17.808-34.808 26.838-72.416 26.838-111.782-.002-65.643-25.564-127.358-71.982-173.775zm-211.086 47.378c1.447-1.64 3.448-2.543 5.635-2.543h63.354c4.394-.11 8.113 4.104 7.456 8.45l-7.3 58.19h-63.666l-7.3-58.19c-.273-2.17.374-4.267 1.821-5.907zm37.311 182.798c-31.706 0-57.5-25.795-57.5-57.5 0-18.233 8.645-35.327 23.236-46.171h68.528c14.591 10.844 23.236 27.937 23.236 46.171 0 31.706-25.795 57.5-57.5 57.5z"/><path d="m134.739 114.65c5.405 0 9.802-4.397 9.802-9.802s-4.397-9.801-9.802-9.801-9.801 4.397-9.801 9.801 4.396 9.802 9.801 9.802z"/><path d="m240.119 49.484c0-5.405-4.397-9.802-9.802-9.802s-9.801 4.397-9.801 9.802 4.397 9.801 9.801 9.801c5.405.001 9.802-4.396 9.802-9.801z"/><path d="m57.17 243.255c0 5.405 4.397 9.801 9.802 9.801s9.801-4.397 9.801-9.801c0-5.405-4.397-9.802-9.801-9.802-5.405 0-9.802 4.397-9.802 9.802z"/><path d="m108.6 183.19c0 5.405 4.397 9.802 9.801 9.802 5.405 0 9.802-4.397 9.802-9.802s-4.397-9.801-9.802-9.801c-5.404 0-9.801 4.397-9.801 9.801z"/><path d="m392.38 150.135c0-5.405-4.397-9.801-9.801-9.801s-9.801 4.397-9.801 9.801c0 5.405 4.397 9.802 9.801 9.802s9.801-4.397 9.801-9.802z"/><path d="m448.153 226.597c0-5.405-4.397-9.802-9.801-9.802s-9.801 4.397-9.801 9.802 4.397 9.801 9.801 9.801c5.403 0 9.801-4.396 9.801-9.801z"/><path d="m128.832 369.497c0-5.405-4.397-9.801-9.802-9.801s-9.801 4.397-9.801 9.801 4.397 9.802 9.801 9.802 9.802-4.397 9.802-9.802z"/><path d="m337.69 78.909c5.404 0 9.801-4.397 9.801-9.802s-4.397-9.801-9.801-9.801-9.801 4.397-9.801 9.801 4.397 9.802 9.801 9.802z"/><path d="m384.37 355.384c0 5.405 4.397 9.801 9.802 9.801 5.404 0 9.801-4.397 9.801-9.801s-4.397-9.802-9.801-9.802c-5.405 0-9.802 4.397-9.802 9.802z"/><path d="m256 362.898c4.151 0 7.515-3.364 7.515-7.515v-10.626c0-4.15-3.364-7.515-7.515-7.515-4.15 0-7.515 3.364-7.515 7.515v10.626c0 4.151 3.365 7.515 7.515 7.515z"/><path d="m248.485 395.648c0 4.15 3.365 7.515 7.515 7.515 4.151 0 7.515-3.365 7.515-7.515v-10.626c0-4.15-3.364-7.515-7.515-7.515-4.15 0-7.515 3.365-7.515 7.515z"/><path d="m237.832 240.968v-7.935c0-4.15-3.365-7.515-7.515-7.515s-7.515 3.365-7.515 7.515v7.935c0 4.15 3.364 7.515 7.515 7.515 4.15-.001 7.515-3.365 7.515-7.515z"/><path d="m281.683 225.518c-4.151 0-7.515 3.365-7.515 7.515v7.935c0 4.15 3.364 7.515 7.515 7.515s7.515-3.365 7.515-7.515v-7.935c0-4.15-3.364-7.515-7.515-7.515z"/><path d="m269.56 255.272c-3.582 0-6.573 2.508-7.327 5.863l-.009-.002c-.417 1.662-1.78 4.452-6.225 4.452-4.446 0-5.808-2.79-6.225-4.452l-.009.002c-.754-3.355-3.745-5.863-7.327-5.863-4.783-.066-8.482 4.631-7.303 9.258 1.268 5.711 7.146 16.084 20.864 16.084s19.595-10.373 20.864-16.084c.133-.56.212-1.142.212-1.743 0-4.151-3.364-7.515-7.515-7.515z"/></g></g></svg>