<svg id="Capa_1" enable-background="new 0 0 512.001 512.001" height="512" viewBox="0 0 512.001 512.001" width="512" xmlns="http://www.w3.org/2000/svg"><g><path d="m56.148 431.602-4.979-10.254c-40.604-83.625-37.382-181.889 8.613-262.674 5.031-8.836 16.699-11.21 24.782-5.042l.368.28c8.244 6.291 11.281 17.189 7.514 26.749l-15.451 39.212c-15.643 39.697-12.819 84.295 7.705 121.702 8.471 15.439 30.876 14.763 38.4-1.16l19.554-41.383c3.688-7.804 12.926-11.244 20.82-7.751 5.994 2.653 9.748 8.711 9.454 15.259l-4.741 105.698-15.237 19.934-76.986 13.306z" fill="#ffddce"/><g fill="#ffcbbe"><path d="m94.992 350.998c-4.141-1.78-7.815-4.907-10.293-9.423-20.524-37.407-23.347-82.005-7.705-121.702l15.451-39.212c3.767-9.56.73-20.458-7.514-26.749l-.367-.281c-5.676-4.331-13.11-4.436-18.781-1.065.536.322 1.06.676 1.57 1.065l.368.281c8.244 6.291 11.281 17.189 7.514 26.749l-15.452 39.212c-15.643 39.697-12.819 84.295 7.705 121.702 5.751 10.484 17.924 13.528 27.504 9.423z"/><path d="m164.437 291.746c-5.308-2.778-11.367-2.259-15.996.711 4.706 3.031 7.532 8.37 7.275 14.083l-2.255 50.278c-.981 21.867-17.048 40.104-38.618 43.832l-67.832 11.723c1.333 3.008 2.714 6.001 4.158 8.974l4.979 10.254 16.409 11.49 3.407 2.386 76.986-13.306 15.237-19.934.941-20.97 3.781-84.287c.279-6.269-2.911-12.323-8.472-15.234z"/></g><path d="m455.961 431.602 4.979-10.254c40.604-83.625 37.382-181.889-8.613-262.674-5.031-8.836-16.699-11.21-24.782-5.042l-.368.28c-8.244 6.291-11.281 17.189-7.514 26.749l15.451 39.212c15.643 39.697 12.819 84.295-7.705 121.702-8.471 15.439-30.876 14.763-38.4-1.16l-19.554-41.383c-3.688-7.804-12.926-11.244-20.82-7.751-5.994 2.653-9.748 8.711-9.454 15.259l4.741 105.698 15.237 19.934 76.986 13.306z" fill="#ffddce"/><g fill="#ffcbbe"><path d="m389.01 340.415-19.554-41.383c-3.588-7.595-12.431-11.036-20.178-7.998 1.61 1.401 2.969 3.141 3.938 5.191l19.554 41.383c4.646 9.832 14.964 13.843 24.174 11.843-3.269-2.06-6.062-5.075-7.934-9.036z"/><path d="m432.095 151.172c1.558 1.27 2.929 2.829 3.992 4.696 39.045 68.577 47.261 149.749 24.015 223.869-6.095 19.434-25.646 31.351-45.716 27.882l-71.222-12.309.759 16.929 95.798 16.557 16.24 2.807 4.979-10.254c.845-1.741 1.665-3.491 2.472-5.244.002-.004.003-.007.005-.011 37.967-82.464 33.945-178.319-11.09-257.419-4.145-7.282-12.793-10.161-20.232-7.503z"/></g><path d="m465.975 492.099 8.267-47.832c.881-5.097-2.537-9.944-7.635-10.825l-131.084-22.655c-5.097-.881-9.944 2.537-10.825 7.635l-8.267 47.832c-1.405 8.132 4.047 15.863 12.179 17.269l120.095 20.756c8.133 1.405 15.865-4.048 17.27-12.18z" fill="#dd636e"/><path d="m466.607 433.442-9.177-1.586-12.3 71.166c-.036.209-.095.408-.138.615l3.714.642c8.132 1.405 15.863-4.047 17.269-12.179l8.267-47.832c.881-5.098-2.537-9.945-7.635-10.826z" fill="#da4a54"/><path d="m46.134 492.099-8.267-47.832c-.881-5.097 2.537-9.944 7.635-10.825l131.084-22.655c5.097-.881 9.944 2.537 10.825 7.635l8.267 47.832c1.405 8.132-4.047 15.863-12.179 17.269l-120.096 20.755c-8.132 1.406-15.864-4.047-17.269-12.179z" fill="#dd636e"/><path d="m195.677 466.253-8.267-47.832c-.881-5.097-5.728-8.516-10.825-7.635l-11.695 2.021c.826 1.182 1.421 2.553 1.682 4.068l10.029 58.027c.618 3.577-.006 7.073-1.537 10.076l8.433-1.457c8.133-1.404 13.586-9.136 12.18-17.268z" fill="#da4a54"/><circle cx="256.055" cy="140.569" fill="#dd636e" r="133.069"/><path d="m256.055 7.5c-3.528 0-7.023.14-10.482.41 68.592 5.345 122.587 62.695 122.587 132.659s-53.995 127.314-122.587 132.659c3.459.27 6.954.41 10.482.41 73.492 0 133.069-59.577 133.069-133.069s-59.577-133.069-133.069-133.069z" fill="#da4a54"/><circle cx="256.055" cy="140.569" fill="#f4fbff" r="99.255"/><path d="m256.055 41.314c-4.599 0-9.123.32-13.556.925 48.403 6.611 85.7 48.112 85.7 98.33s-37.297 91.719-85.7 98.33c4.433.605 8.957.925 13.556.925 54.817 0 99.255-44.438 99.255-99.255s-44.438-99.255-99.255-99.255z" fill="#daf1f4"/><g><path d="m194.801 417.143c-1.541-8.9-9.829-14.955-18.707-13.842l4.324-96.424c.437-9.708-5.024-18.522-13.91-22.454-11.706-5.18-25.166-.172-30.637 11.405l-19.554 41.383c-2.305 4.877-6.899 7.886-12.29 8.049-5.437.14-10.159-2.563-12.754-7.292-19.512-35.563-22.173-77.604-7.302-115.345l15.451-39.213c4.973-12.618.884-27.2-9.938-35.457l-.371-.283c-11.67-8.904-28.565-5.503-35.85 7.293-9.341 16.408-17.104 33.812-23.074 51.729-1.31 3.93.814 8.177 4.744 9.486 3.931 1.312 8.177-.815 9.486-4.744 5.661-16.99 13.021-33.492 21.879-49.05 2.81-4.936 9.269-6.182 13.712-2.793l.371.284c5.52 4.211 7.61 11.627 5.086 18.035l-15.451 39.212c-16.511 41.9-13.557 88.576 8.106 128.06 5.281 9.627 15.363 15.394 26.357 15.07 10.975-.332 20.708-6.705 25.399-16.634l19.554-41.383c1.964-4.157 6.796-5.958 11.004-4.097 3.191 1.412 5.152 4.578 4.996 8.065l-4.471 99.67c-20.882 3.609-78.734 13.608-100.533 17.376-1.02-3.414-46.142-79.398-23.96-182.703.869-4.05-1.709-8.037-5.759-8.907-4.035-.87-8.036 1.708-8.907 5.759-13.503 62.887-5.47 129.377 22.617 187.225l.624 1.286c-.353.13-7.125.509-11.733 7.041-2.597 3.682-3.604 8.153-2.837 12.593l8.268 47.833c2.087 12.083 13.576 20.422 25.937 18.292l120.095-20.756c12.221-2.111 20.405-13.712 18.293-25.937zm-12.581 58.989-120.095 20.756c-4.072.701-7.904-2.027-8.601-6.065l-8.268-47.833c-.175-1.005.492-1.979 1.521-2.156 19.719-3.408 112.314-19.411 131.084-22.655.106-.019.213-.027.318-.027.892 0 1.683.642 1.839 1.548l8.267 47.833c.702 4.048-2.011 7.9-6.065 8.599z"/><path d="m256.054 33.814c-58.865 0-106.755 47.89-106.755 106.755s47.89 106.755 106.755 106.755 106.756-47.89 106.756-106.755-47.891-106.755-106.756-106.755zm0 198.51c-50.594 0-91.755-41.161-91.755-91.755s41.161-91.755 91.755-91.755c50.595 0 91.756 41.161 91.756 91.755s-41.161 91.755-91.756 91.755z"/><path d="m256.054 79.36c4.143 0 7.5-3.357 7.5-7.5v-3.436c0-4.143-3.357-7.5-7.5-7.5s-7.5 3.357-7.5 7.5v3.436c0 4.143 3.358 7.5 7.5 7.5z"/><path d="m301.764 84.252-2.429 2.429c-2.929 2.93-2.929 7.678 0 10.607 1.465 1.464 3.385 2.196 5.304 2.196s3.839-.732 5.304-2.196l2.429-2.429c2.929-2.93 2.929-7.678 0-10.607-2.93-2.928-7.678-2.928-10.608 0z"/><path d="m317.263 140.569c0 4.143 3.357 7.5 7.5 7.5h3.436c4.143 0 7.5-3.357 7.5-7.5s-3.357-7.5-7.5-7.5h-3.436c-4.142 0-7.5 3.358-7.5 7.5z"/><path d="m309.944 183.852c-2.93-2.931-7.679-2.93-10.606-.003-2.93 2.929-2.931 7.678-.003 10.606l2.429 2.43c1.465 1.466 3.385 2.198 5.305 2.198 1.919 0 3.838-.732 5.302-2.195 2.93-2.929 2.931-7.678.003-10.606z"/><path d="m256.054 201.778c-4.143 0-7.5 3.357-7.5 7.5v3.435c0 4.143 3.357 7.5 7.5 7.5s7.5-3.357 7.5-7.5v-3.435c0-4.142-3.357-7.5-7.5-7.5z"/><path d="m202.166 183.85-2.43 2.43c-2.929 2.93-2.929 7.678 0 10.607 1.465 1.464 3.385 2.196 5.304 2.196s3.839-.732 5.304-2.196l2.43-2.43c2.929-2.93 2.929-7.678 0-10.607-2.93-2.928-7.678-2.928-10.608 0z"/><path d="m187.346 133.069h-3.436c-4.143 0-7.5 3.357-7.5 7.5s3.357 7.5 7.5 7.5h3.436c4.143 0 7.5-3.357 7.5-7.5s-3.357-7.5-7.5-7.5z"/><path d="m202.168 97.289c1.464 1.464 3.383 2.195 5.302 2.195 1.92 0 3.84-.732 5.305-2.198 2.928-2.929 2.927-7.678-.003-10.606l-2.43-2.429c-2.929-2.93-7.678-2.929-10.606.003-2.928 2.929-2.927 7.678.003 10.606z"/><path d="m276.497 133.069h-12.942v-32.085c0-4.143-3.357-7.5-7.5-7.5s-7.5 3.357-7.5 7.5v39.585c0 4.143 3.357 7.5 7.5 7.5h20.442c4.143 0 7.5-3.357 7.5-7.5s-3.358-7.5-7.5-7.5z"/><path d="m467.063 425.91c.2-.966 71.512-130.911-8.219-270.946-7.26-12.756-24.141-16.229-35.852-7.292l-.365.278c-10.825 8.26-14.914 22.842-9.941 35.461l15.451 39.212c14.871 37.74 12.21 79.781-7.302 115.345-2.595 4.729-7.334 7.428-12.755 7.292-5.391-.163-9.985-3.172-12.289-8.049l-19.554-41.383c-5.471-11.578-18.926-16.587-30.637-11.405-8.885 3.932-14.346 12.745-13.911 22.454l4.325 96.424c-8.879-1.114-17.168 4.941-18.707 13.843l-8.267 47.833c-2.112 12.223 6.069 23.825 18.293 25.937l37.262 6.44c4.092.7 7.963-2.032 8.668-6.113.705-4.082-2.031-7.962-6.113-8.668l-37.262-6.44c-4.045-.698-6.769-4.539-6.066-8.601l8.267-47.833c.175-1.015 1.144-1.7 2.157-1.521 28.811 4.979 101.73 17.582 131.084 22.655 1.018.175 1.697 1.14 1.521 2.157l-8.267 47.832c-.699 4.055-4.556 6.769-8.601 6.065l-53.284-9.209c-4.088-.701-7.963 2.032-8.668 6.113-.705 4.082 2.031 7.962 6.113 8.668l53.284 9.209c12.235 2.109 23.827-6.081 25.937-18.292l8.267-47.831c.768-4.439-.239-8.912-2.837-12.595-4.605-6.529-11.371-6.907-11.732-7.04zm-115.392-127.77c4.204-1.862 9.039-.062 11.004 4.097l19.554 41.383c4.691 9.928 14.423 16.302 25.398 16.634 10.996.299 21.076-5.443 26.358-15.07 21.663-39.483 24.617-86.159 8.106-128.06l-15.451-39.211c-2.524-6.409-.434-13.825 5.089-18.039l.365-.279c4.439-3.387 10.901-2.149 13.714 2.791 77.622 136.335 6.295 258.879 5.87 260.866-19.813-3.424-66.736-11.534-100.534-17.376l-4.471-99.669c-.154-3.489 1.807-6.655 4.998-8.067z"/><path d="m396.624 140.569c0-29.698-9.156-58.095-26.479-82.121-2.424-3.36-7.11-4.118-10.471-1.697-3.359 2.423-4.119 7.11-1.697 10.471 15.47 21.455 23.646 46.818 23.646 73.348 0 69.238-56.33 125.568-125.569 125.568-69.238 0-125.568-56.33-125.568-125.568 0-69.24 56.33-125.57 125.568-125.57 30.531 0 59.963 11.095 82.874 31.24 3.11 2.732 7.849 2.431 10.585-.681 2.734-3.11 2.431-7.85-.681-10.585-25.65-22.553-58.599-34.974-92.778-34.974-77.51 0-140.568 63.06-140.568 140.569s63.059 140.568 140.568 140.568 140.57-63.058 140.57-140.568z"/></g></g></svg>