<svg id="Capa_1" enable-background="new 0 0 512 512" height="512" viewBox="0 0 512 512" width="512" xmlns="http://www.w3.org/2000/svg"><g><g><path d="m431.59 141.107h-129.188c17.112-13.686 28.09-34.757 28.09-58.412.001-41.253-33.351-74.695-74.492-74.695s-74.493 33.442-74.493 74.695c0 23.654 10.978 44.726 28.09 58.412h-129.187c-19.415 0-35.154 15.739-35.154 35.154 0 19.415 15.739 35.154 35.154 35.154h99.543l-15.207 255.04c-1.213 20.364 14.974 37.545 35.375 37.545 17.53 0 32.425-12.817 35.04-30.15l20.839-138.128 20.84 138.128c2.615 17.333 17.51 30.15 35.04 30.15 20.401 0 36.588-17.181 35.374-37.546l-15.207-255.04h99.543c19.415 0 35.153-15.739 35.153-35.154 0-19.414-15.738-35.153-35.153-35.153z" fill="#e4936b"/><g fill="#edf4fa"><path d="m276.84 473.85c2.615 17.333 17.51 30.15 35.04 30.15 20.401 0 36.588-17.181 35.374-37.546l-1.095-18.366h-73.205z"/><path d="m200.121 504c17.53 0 32.425-12.817 35.04-30.15l3.887-25.762h-73.206l-1.095 18.366c-1.214 20.365 14.973 37.546 35.374 37.546z"/></g><g><path d="m431.59 193.414h-94.236c-2.878 0-5.162 2.424-4.991 5.298l.757 12.702h98.47c19.415 0 35.153-15.739 35.153-35.154 0-3.112-.409-6.127-1.168-9-3.975 15.054-17.682 26.154-33.985 26.154z" fill="#db835d"/><path d="m179.638 198.712c.171-2.873-2.113-5.298-4.991-5.298h-94.237c-16.303 0-30.01-11.1-33.986-26.154-.759 2.873-1.168 5.888-1.168 9 0 19.415 15.739 35.154 35.154 35.154h98.47z" fill="#db835d"/><g fill="#d8e5ef"><path d="m237.919 455.85c-2.615 17.333-20.269 30.15-37.798 30.15-17.413 0-31.746-12.52-34.819-28.85l-.555 9.304c-1.214 20.365 14.973 37.546 35.374 37.546 17.53 0 32.425-12.817 35.04-30.15z"/><path d="m276.84 473.85c2.615 17.333 17.51 30.15 35.04 30.15 20.401 0 36.588-17.181 35.374-37.546l-.555-9.304c-3.074 16.33-17.407 28.85-34.82 28.85-17.529 0-35.141-12.817-37.756-30.15z"/></g></g><path d="m80.41 211.414h20.758v-70.307h-20.758c-19.415 0-35.154 15.739-35.154 35.154.001 19.414 15.739 35.153 35.154 35.153z" fill="#edf4fa"/><path d="m431.59 141.107h-20.758v70.307h20.758c19.415 0 35.153-15.739 35.153-35.154 0-19.414-15.738-35.153-35.153-35.153z" fill="#edf4fa"/><g fill="#d8e5ef"><path d="m46.424 167.261c-.759 2.873-1.168 5.888-1.168 9 0 19.415 15.739 35.154 35.154 35.154h20.758v-18h-20.758c-16.303-.001-30.009-11.101-33.986-26.154z"/><path d="m431.59 193.414h-20.758v18h20.758c19.415 0 35.153-15.739 35.153-35.154 0-3.112-.409-6.127-1.168-9-3.975 15.054-17.682 26.154-33.985 26.154z"/></g></g><g><path d="m232.501 87.224v-9.735c0-4.15-3.364-7.515-7.515-7.515s-7.515 3.365-7.515 7.515v9.735c0 4.15 3.364 7.515 7.515 7.515s7.515-3.365 7.515-7.515z"/><path d="m256 203.667c4.151 0 7.515-3.365 7.515-7.515v-9.736c0-4.15-3.364-7.515-7.515-7.515s-7.515 3.364-7.515 7.515v9.736c0 4.151 3.364 7.515 7.515 7.515z"/><path d="m248.485 240.208c0 4.15 3.364 7.515 7.515 7.515s7.515-3.365 7.515-7.515v-9.736c0-4.15-3.364-7.515-7.515-7.515s-7.515 3.365-7.515 7.515z"/><path d="m248.485 284.263c0 4.15 3.364 7.515 7.515 7.515s7.515-3.365 7.515-7.515v-9.736c0-4.15-3.364-7.515-7.515-7.515s-7.515 3.365-7.515 7.515z"/><path d="m294.528 87.224v-9.735c0-4.15-3.364-7.515-7.515-7.515s-7.515 3.365-7.515 7.515v9.735c0 4.15 3.364 7.515 7.515 7.515s7.515-3.365 7.515-7.515z"/><path d="m431.934 133.367h-111.429c11.365-14.384 17.649-32.22 17.649-51.011 0-45.411-36.855-82.356-82.154-82.356s-82.154 36.945-82.154 82.356c0 18.791 6.283 36.628 17.649 51.011h-22.076c-4.151 0-7.515 3.364-7.515 7.515 0 4.15 3.364 7.515 7.515 7.515h40.088c3.192 0 6.035-2.016 7.091-5.028 1.057-3.012.095-6.362-2.397-8.355-16.094-12.872-25.325-32.065-25.325-52.657 0-37.124 30.112-67.327 67.124-67.327s67.124 30.202 67.124 67.327c0 20.593-9.231 39.786-25.325 52.657-2.492 1.993-3.454 5.343-2.397 8.355 1.056 3.012 3.899 5.028 7.091 5.028h101.127v55.415h-71.425c-2.07 0-4.05.854-5.47 2.362-1.42 1.507-2.155 3.533-2.031 5.6l8.403 140.945c.238 3.991 3.548 7.068 7.494 7.068.151 0 .301-.004.454-.013 4.143-.247 7.301-3.806 7.054-7.949l-7.928-132.983h91.761c23.565 0 42.737-19.172 42.737-42.737.001-23.566-19.17-42.738-42.735-42.738zm0 70.445h-13.284v-55.415h13.284c15.278 0 27.707 12.43 27.707 27.708s-12.43 27.707-27.707 27.707z"/><path d="m349.884 381.754c-.246-4.143-3.82-7.287-7.948-7.054-4.143.247-7.301 3.806-7.054 7.949l3.476 58.301h-58.906l-16.022-106.192c-.555-3.676-3.713-6.394-7.431-6.394s-6.876 2.718-7.43 6.394l-16.02 106.192h-58.907l9.553-160.218c.248-4.143-2.911-7.702-7.054-7.949-4.16-.238-7.702 2.911-7.948 7.054l-11.125 186.581c-.713 11.957 3.417 23.343 11.631 32.061 8.214 8.719 19.335 13.521 31.313 13.521 21.449 0 39.34-15.393 42.539-36.603l13.449-89.146 13.45 89.146c3.199 21.209 21.089 36.603 42.539 36.603 11.979 0 23.099-4.801 31.312-13.52 8.214-8.718 12.344-20.105 11.631-32.061zm-149.872 115.217c-7.794 0-15.029-3.124-20.374-8.797-5.344-5.673-8.032-13.081-7.568-20.861l.676-11.334h57.536l-2.591 17.176c-2.083 13.8-13.723 23.816-27.679 23.816zm132.35-8.797c-5.343 5.672-12.579 8.796-20.373 8.796-13.956 0-25.597-10.016-27.678-23.816l-2.591-17.176h57.535l.676 11.335c.463 7.78-2.224 15.188-7.569 20.861z"/><path d="m169.979 249.872c-.248 4.143 2.911 7.702 7.054 7.949.153.009.303.014.454.013 3.945 0 7.256-3.077 7.494-7.067l2.326-38.993c.123-2.067-.612-4.094-2.031-5.601-1.42-1.507-3.399-2.362-5.47-2.362h-71.426v-55.415h30.981c4.151 0 7.515-3.365 7.515-7.515s-3.364-7.515-7.515-7.515h-59.295c-23.565 0-42.737 19.172-42.737 42.737s19.171 42.737 42.737 42.737h91.762zm-117.62-73.767c0-15.278 12.429-27.708 27.707-27.708h13.284v55.415h-13.284c-15.277 0-27.707-12.429-27.707-27.707z"/></g></g></svg>