<svg id="Capa_1" enable-background="new 0 0 512 512" height="512" viewBox="0 0 512 512" width="512" xmlns="http://www.w3.org/2000/svg"><g><path d="m390.991 504.5h-269.982c-15.094 0-27.33-12.236-27.33-27.33v-442.34c0-15.094 12.236-27.33 27.33-27.33h269.982c15.094 0 27.33 12.236 27.33 27.33v442.34c0 15.094-12.236 27.33-27.33 27.33z" fill="#365e7d"/><path d="m390.991 7.5h-20.739c15.094 0 27.33 12.236 27.33 27.33v442.34c0 15.094-12.236 27.33-27.33 27.33h20.739c15.094 0 27.33-12.236 27.33-27.33v-442.341c.001-15.093-12.236-27.329-27.33-27.329z" fill="#2b4d66"/><path d="m128.68 424.163v-353.328c0-4.087 3.313-7.4 7.4-7.4h239.842c4.087 0 7.4 3.313 7.4 7.4v353.328c0 4.087-3.313 7.4-7.4 7.4h-239.843c-4.086 0-7.399-3.313-7.399-7.4z" fill="#b1e4f9" stroke="#b1e4f9" stroke-miterlimit="10"/><path d="m375.922 63.436h-27.305c4.087 0 7.4 3.313 7.4 7.399v353.328c0 4.086-3.313 7.399-7.4 7.399h27.305c4.087 0 7.4-3.313 7.4-7.399v-353.328c-.001-4.086-3.314-7.399-7.4-7.399z" fill="#90d8f9"/><g><path d="m264.945 40.906c4.143 0 7.5-3.357 7.5-7.5s-3.357-7.5-7.5-7.5h-17.89c-4.143 0-7.5 3.357-7.5 7.5s3.357 7.5 7.5 7.5z"/><path d="m241.072 461.287c-4.143 0-7.5 3.357-7.5 7.5s3.357 7.5 7.5 7.5h29.856c4.143 0 7.5-3.357 7.5-7.5s-3.357-7.5-7.5-7.5z"/><path d="m233.389 165.214c0-4.143-3.357-7.5-7.5-7.5h-15.909c-4.143 0-7.5 3.357-7.5 7.5s3.357 7.5 7.5 7.5h8.409v66.931c0 4.143 3.357 7.5 7.5 7.5s7.5-3.357 7.5-7.5z"/><path d="m225.889 356.495c4.143 0 7.5-3.357 7.5-7.5v-74.431c0-4.143-3.357-7.5-7.5-7.5h-15.909c-4.143 0-7.5 3.357-7.5 7.5s3.357 7.5 7.5 7.5h8.409v66.931c0 4.143 3.357 7.5 7.5 7.5z"/><path d="m305.287 183.53c0-14.637-11.908-26.545-26.546-26.545-12.656 0-23.61 9.004-26.047 21.408-.798 4.064 1.85 8.007 5.914 8.805 4.069.796 8.008-1.85 8.805-5.914 1.059-5.388 5.822-9.299 11.328-9.299 6.227 0 11.317 4.953 11.538 11.126-.077.228.171 5.027-6.918 15.156-11.803 16.865-18.846 26.086-22.63 31.04-4.594 6.016-6.495 8.505-5.199 12.721.754 2.454 2.615 4.339 5.107 5.17 1.025.343 2.072.692 16.274.692 5.668 0 13.432-.056 24.122-.19 4.142-.052 7.457-3.451 7.404-7.594-.052-4.142-3.448-7.504-7.594-7.404-8.26.104-17.056.168-23.989.17 4.189-5.569 10.274-13.831 18.793-26.003 4.195-5.991 9.638-15.642 9.638-23.339z"/><path d="m280.498 358.014c16.004 0 29.023-13.02 29.023-29.023v-34.422c0-16.004-13.02-29.023-29.023-29.023s-29.023 13.02-29.023 29.023v34.422c0 16.003 13.019 29.023 29.023 29.023zm-14.023-63.446c0-7.732 6.291-14.023 14.023-14.023s14.023 6.291 14.023 14.023v34.422c0 7.732-6.291 14.023-14.023 14.023s-14.023-6.291-14.023-14.023z"/><path d="m290.805 107.233c0-4.143-3.357-7.5-7.5-7.5h-54.609c-4.143 0-7.5 3.357-7.5 7.5s3.357 7.5 7.5 7.5h54.609c4.142 0 7.5-3.357 7.5-7.5z"/><path d="m390.991 0h-269.982c-19.205 0-34.83 15.624-34.83 34.829v381.708c0 4.143 3.357 7.5 7.5 7.5s7.5-3.357 7.5-7.5v-381.708c0-10.934 8.896-19.829 19.83-19.829h269.982c10.935 0 19.83 8.896 19.83 19.829v442.341c0 10.935-8.896 19.83-19.83 19.83h-269.982c-10.935 0-19.83-8.896-19.83-19.83v-30.646c0-4.143-3.357-7.5-7.5-7.5s-7.5 3.357-7.5 7.5v30.646c0 19.205 15.625 34.83 34.83 34.83h269.982c19.205 0 34.83-15.625 34.83-34.83v-442.341c0-19.205-15.625-34.829-34.83-34.829z"/><path d="m121.18 70.835v353.328c0 8.216 6.684 14.899 14.899 14.899h239.843c8.216 0 14.899-6.684 14.899-14.899v-353.328c0-8.216-6.684-14.899-14.899-14.899h-54.742c-4.143 0-7.5 3.357-7.5 7.5s3.357 7.5 7.5 7.5h54.642v353.127h-239.642v-353.127h155.013c4.143 0 7.5-3.357 7.5-7.5s-3.357-7.5-7.5-7.5h-155.114c-8.216 0-14.899 6.683-14.899 14.899z"/></g></g></svg>