<svg id="Capa_1" enable-background="new 0 0 512 512" height="512" viewBox="0 0 512 512" width="512" xmlns="http://www.w3.org/2000/svg"><g><g><path d="m290.466 96.532h-68.932c-8.072 0-14.615-6.543-14.615-14.615v-15.589c0-8.071 6.543-14.615 14.615-14.615h68.932c8.071 0 14.615 6.543 14.615 14.615v15.589c0 8.071-6.544 14.615-14.615 14.615z" fill="#ffe08c"/><path d="m290.466 78.532h-68.932c-7.664 0-13.939-5.903-14.554-13.409-.033.398-.061.799-.061 1.205v15.589c0 8.071 6.543 14.615 14.615 14.615h68.932c8.071 0 14.615-6.543 14.615-14.615v-15.589c0-.407-.028-.807-.061-1.205-.615 7.505-6.89 13.409-14.554 13.409z" fill="#f9d375"/><path d="m285.161 96.532v20.646c0 17.359 8.409 33.666 22.616 43.641 23.999 16.85 59.461 49.125 65.365 96.286 7.248 57.893-8.846 97.597-51.139 149.567-32.591 40.047-35.743 97.328-66.003 97.328s-33.412-57.281-66.003-97.328c-42.293-51.97-58.386-91.673-51.139-149.567 5.904-47.161 41.366-79.436 65.365-96.286 14.207-9.975 22.616-26.282 22.616-43.641v-20.646z" fill="#edf4fa"/><path d="m353.382 206.038c-10.637 9.459-19.946 22.452-37.972 22.452-28.33 0-35.13-32.1-59.41-32.1s-31.08 32.1-59.41 32.1c-18.032 0-27.342-12.999-37.976-22.448-9.727 14.424-17.301 31.451-19.756 51.062-1.384 11.056-1.91 21.445-1.572 31.386 24.196.095 31.019 32.089 59.304 32.089 28.327 0 35.125-32.093 59.409-32.093s31.082 32.093 59.409 32.093c28.285 0 35.107-31.994 59.304-32.089.338-9.941-.188-20.33-1.572-31.386-2.454-19.612-10.029-36.641-19.758-51.066z" fill="#ffe08c"/><path d="m374.713 288.491c-24.196.095-31.019 32.089-59.304 32.089-28.327 0-35.125-32.093-59.409-32.093s-31.082 32.093-59.409 32.093c-28.285 0-35.107-31.994-59.304-32.089 1.433 42.115 18.494 76.135 52.71 118.18 1.58 1.942 3.089 3.925 4.537 5.939.669.04 1.357.06 2.056.06 28.33 0 35.13-32.09 59.41-32.09s31.08 32.09 59.41 32.09c.698 0 1.386-.02 2.055-.06 1.448-2.014 2.957-3.997 4.537-5.939 34.217-42.045 51.278-76.064 52.711-118.18z" fill="#f7594e"/><path d="m315.411 412.671c-28.33 0-35.13-32.09-59.41-32.09s-31.08 32.09-59.41 32.09c-.699 0-1.387-.02-2.056-.06 28.42 39.529 32.672 91.389 61.465 91.389s33.045-51.86 61.465-91.389c-.668.04-1.356.06-2.054.06z" fill="#36ce94"/><path d="m306.906 411.599c-19.511 35.929-26.106 74.401-50.906 74.401s-31.395-38.471-50.906-74.4c-2.618.674-5.428 1.071-8.504 1.071-.699 0-1.387-.02-2.056-.06 28.421 39.529 32.673 91.389 61.466 91.389s33.045-51.86 61.465-91.389c-.668.04-1.357.06-2.055.06-3.076 0-5.886-.397-8.504-1.072z" fill="#36bf84"/><g fill="#f9d375"><path d="m137.419 273.404c-.254 5.156-.3 10.177-.132 15.087.561.002 1.103.039 1.645.074-.748-4.954-1.246-10.001-1.513-15.161z"/><path d="m373.067 288.566c.543-.036 1.085-.072 1.646-.074.167-4.911.122-9.932-.132-15.088-.267 5.16-.765 10.207-1.514 15.162z"/></g><g fill="#ea4642"><path d="m189.997 388.672c-29.194-35.874-45.898-65.905-51.065-100.106-.542-.036-1.084-.072-1.645-.074 1.433 42.115 18.494 76.135 52.71 118.18 1.58 1.942 3.089 3.925 4.537 5.939.669.04 1.357.06 2.056.06 3.076 0 5.885-.397 8.504-1.071-4.296-7.912-9.215-15.701-15.097-22.928z"/><path d="m322.002 388.672c-5.881 7.227-10.8 15.016-15.097 22.928 2.619.675 5.428 1.071 8.505 1.071.698 0 1.386-.02 2.055-.06 1.448-2.014 2.957-3.997 4.537-5.939 34.216-42.045 51.277-76.065 52.711-118.18-.561.002-1.103.039-1.646.074-5.166 34.201-21.871 64.232-51.065 100.106z"/></g></g><path d="m380.827 256.174c-6.069-48.483-40.672-82.061-68.631-101.691-12.187-8.557-19.463-22.604-19.463-37.576v-13.282c11.189-1.108 19.959-10.572 19.959-22.048v-15.62c0-12.218-9.94-22.158-22.159-22.158h-8.891c2.397-4.256 3.771-9.162 3.771-14.385.001-16.219-13.194-29.414-29.413-29.414s-29.414 13.195-29.414 29.414c0 5.223 1.374 10.129 3.772 14.385h-8.891c-12.218 0-22.158 9.94-22.158 22.158v15.619c0 11.476 8.77 20.94 19.959 22.048v13.282c0 10.584-3.67 20.912-10.335 29.083-2.623 3.216-2.143 7.95 1.073 10.573 3.215 2.623 7.949 2.142 10.572-1.073 8.846-10.845 13.718-24.547 13.718-38.583v-13.172h43.407v13.172c0 19.864 9.665 38.509 25.856 49.876 17.904 12.57 30.836 25.546 40.154 38.109-.389.378-.788.758-1.172 1.132-8.219 7.994-15.318 14.898-27.015 14.898-11.69 0-18.787-6.898-27.004-14.885-8.333-8.099-17.777-17.278-32.522-17.278-14.746 0-24.19 9.18-32.522 17.278-8.217 7.987-15.314 14.885-27.004 14.885-11.696 0-18.792-6.899-27.01-14.887-.361-.351-.735-.708-1.1-1.062 8.818-11.857 18.945-21.599 28.09-29.096 3.209-2.631 3.678-7.366 1.047-10.575s-7.365-3.678-10.575-1.047c-22.493 18.44-50.424 49.357-55.753 91.919-7.162 57.222 7.165 99.377 52.867 155.536 12.919 15.875 21.162 34.999 28.435 51.873 11.198 25.981 20.869 48.418 43.525 48.418 18.198 0 28.185-15.483 35.554-30.63 1.816-3.732.262-8.229-3.47-10.045-3.733-1.816-8.23-.262-10.045 3.47-7.764 15.958-13.943 22.176-22.039 22.176-12.152 0-19.211-14.948-29.724-39.337-5.295-12.285-11.081-25.701-18.849-38.594 11.61-3.19 19.716-11.061 26.526-17.679 8.309-8.073 13.82-13.022 22.048-13.022 8.227 0 13.738 4.948 22.047 13.022 6.812 6.619 14.921 14.492 26.534 17.681-5.816 9.657-10.467 19.492-14.437 28.436-1.683 3.794.026 8.233 3.82 9.917.991.44 2.026.648 3.045.648 2.88 0 5.628-1.666 6.873-4.468 5.928-13.358 13.427-28.778 24.078-41.866 45.702-56.159 60.03-98.314 52.866-155.535zm-139.211-226.76c0-7.931 6.453-14.384 14.385-14.384 7.931 0 14.384 6.453 14.384 14.384 0 7.932-6.453 14.385-14.384 14.385-7.932 0-14.385-6.453-14.385-14.385zm-20.149 59.291c-3.932 0-7.129-3.198-7.129-7.129v-15.619c0-3.931 3.198-7.129 7.129-7.129h69.067c3.931 0 7.129 3.198 7.129 7.129v15.619c0 3.931-3.198 7.129-7.129 7.129zm5.255 216.797c2.845 3.023 7.602 3.166 10.622.322 6.568-6.181 11.726-9.759 18.656-9.759 8.23 0 13.741 4.95 22.051 13.025 8.772 8.523 19.688 19.131 37.474 19.131s28.704-10.608 37.474-19.131c5.267-5.117 9.41-8.973 13.832-11.116-3.365 34.571-18.797 65.257-50.527 104.249-.852 1.047-1.68 2.108-2.494 3.175-10.68-.643-17.483-7.232-25.288-14.817-8.333-8.096-17.777-17.272-32.521-17.272-14.745 0-24.189 9.176-32.522 17.273-7.804 7.583-14.606 14.171-25.283 14.816-.815-1.067-1.646-2.126-2.5-3.175-31.73-38.991-47.163-69.678-50.527-104.249 4.422 2.143 8.565 5.999 13.831 11.116 8.772 8.523 19.687 19.131 37.475 19.131 4.785 0 9.42-.78 13.774-2.319 3.913-1.383 5.964-5.676 4.581-9.589s-5.678-5.966-9.589-4.581c-2.781.983-5.648 1.46-8.766 1.46-11.688 0-18.784-6.896-27-14.88-6.827-6.634-14.406-13.986-25.031-16.429.046-7.65.606-15.558 1.643-23.842 1.881-15.028 7.046-28.484 13.863-40.297 8.611 8.349 19.372 18.208 36.526 18.208 17.79 0 28.708-10.611 37.48-19.137 8.309-8.076 13.82-13.027 22.047-13.027s13.737 4.95 22.046 13.026c8.772 8.526 19.689 19.137 37.479 19.137 17.186 0 27.958-9.901 36.578-18.265 8.603 15.024 12.387 28.991 13.809 40.354 1.037 8.284 1.597 16.192 1.643 23.842-10.625 2.443-18.204 9.794-25.032 16.429-8.216 7.985-15.312 14.88-27 14.88s-18.784-6.895-27-14.88c-8.333-8.097-17.778-17.276-32.525-17.276-12.52 0-21.315 6.654-28.955 13.844-3.023 2.845-3.168 7.6-.324 10.623z"/></g></svg>