<svg id="Capa_1" enable-background="new 0 0 512 512" height="512" viewBox="0 0 512 512" width="512" xmlns="http://www.w3.org/2000/svg"><g><path d="m429.049 504.5h-346.096c-41.671 0-75.452-33.781-75.452-75.452v-346.096c0-41.671 33.781-75.452 75.452-75.452h346.096c41.671 0 75.452 33.781 75.452 75.452v346.096c0 41.671-33.781 75.452-75.452 75.452z" fill="#dd636e"/><path d="m429.049 7.5h-25.5c41.671 0 75.452 33.781 75.452 75.452v346.096c0 41.671-33.781 75.452-75.452 75.452h25.5c41.671 0 75.452-33.781 75.452-75.452v-346.096c0-41.671-33.782-75.452-75.452-75.452z" fill="#da4a54"/><path d="m82.952 454.5c-14.034 0-25.452-11.418-25.452-25.452v-346.096c0-14.034 11.418-25.452 25.452-25.452h346.097c14.034 0 25.451 11.418 25.451 25.452v346.096c0 14.034-11.417 25.452-25.451 25.452z" fill="#f4fbff"/><path d="m429.049 57.5h-24.179c14.034 0 25.451 11.418 25.451 25.452v346.096c0 14.034-11.417 25.452-25.451 25.452h24.179c14.034 0 25.451-11.418 25.451-25.452v-346.096c0-14.034-11.417-25.452-25.451-25.452z" fill="#daf1f4"/><circle cx="256.001" cy="256" fill="#365e7d" r="17.568"/><g><path d="m256 103.164c4.143 0 7.5-3.358 7.5-7.5v-9.456c0-4.142-3.357-7.5-7.5-7.5s-7.5 3.358-7.5 7.5v9.456c0 4.142 3.358 7.5 7.5 7.5z"/><path d="m369.375 150.125c1.919 0 3.839-.732 5.303-2.196l6.687-6.686c2.93-2.929 2.93-7.678.001-10.607-2.929-2.928-7.678-2.929-10.606 0l-6.687 6.686c-2.93 2.929-2.93 7.678-.001 10.607 1.464 1.464 3.383 2.196 5.303 2.196z"/><path d="m425.792 263.5c4.143 0 7.5-3.358 7.5-7.5s-3.357-7.5-7.5-7.5h-9.455c-4.143 0-7.5 3.358-7.5 7.5s3.357 7.5 7.5 7.5z"/><path d="m364.073 374.679 6.687 6.686c1.465 1.464 3.384 2.196 5.303 2.196s3.839-.732 5.304-2.197c2.929-2.929 2.929-7.678-.001-10.606l-6.687-6.686c-2.93-2.928-7.677-2.929-10.606.001-2.93 2.928-2.93 7.677 0 10.606z"/><path d="m248.5 416.336v9.456c0 4.143 3.357 7.5 7.5 7.5s7.5-3.357 7.5-7.5v-9.456c0-4.143-3.357-7.5-7.5-7.5s-7.5 3.358-7.5 7.5z"/><path d="m130.636 381.365c1.465 1.464 3.385 2.196 5.304 2.196s3.839-.732 5.304-2.196l6.686-6.686c2.929-2.93 2.929-7.678 0-10.607-2.93-2.928-7.678-2.928-10.607 0l-6.686 6.686c-2.93 2.929-2.93 7.677-.001 10.607z"/><path d="m95.664 263.5c4.143 0 7.5-3.358 7.5-7.5s-3.357-7.5-7.5-7.5h-9.456c-4.143 0-7.5 3.358-7.5 7.5s3.357 7.5 7.5 7.5z"/><path d="m137.322 147.928c1.465 1.464 3.384 2.197 5.304 2.197 1.919 0 3.839-.732 5.303-2.196 2.93-2.929 2.93-7.678.001-10.607l-6.686-6.686c-2.929-2.928-7.678-2.929-10.606 0-2.93 2.929-2.93 7.678-.001 10.607z"/><path d="m248.5 232.079c-7.801 2.451-13.969 8.62-16.42 16.421h-56.718c-4.143 0-7.5 3.358-7.5 7.5s3.357 7.5 7.5 7.5h56.719c3.196 10.17 12.71 17.567 23.92 17.567 6.21 0 11.896-2.275 16.279-6.028l77.598 48.577c3.519 2.202 8.143 1.126 10.337-2.378 2.197-3.511 1.133-8.139-2.378-10.337l-77.58-48.566c.529-2.025.813-4.147.813-6.335 0-11.211-7.398-20.725-17.568-23.921v-96.14c0-4.142-3.357-7.5-7.5-7.5s-7.5 3.358-7.5 7.5v96.14zm7.5 33.989c-5.551 0-10.067-4.517-10.067-10.068s4.517-10.068 10.067-10.068c5.552 0 10.068 4.517 10.068 10.068s-4.516 10.068-10.068 10.068z"/><path d="m57.5 340.298c-4.143 0-7.5 3.357-7.5 7.5v81.25c0 18.17 14.782 32.952 32.952 32.952h346.097c18.169 0 32.951-14.782 32.951-32.952v-346.096c0-18.17-14.782-32.952-32.951-32.952h-346.097c-18.17 0-32.952 14.782-32.952 32.952v234.859c0 4.143 3.357 7.5 7.5 7.5s7.5-3.357 7.5-7.5v-234.859c0-9.899 8.054-17.952 17.952-17.952h346.097c9.899 0 17.951 8.053 17.951 17.952v346.096c0 9.898-8.053 17.952-17.951 17.952h-346.097c-9.898 0-17.952-8.053-17.952-17.952v-81.25c0-4.142-3.357-7.5-7.5-7.5z"/><path d="m357.725 497h-274.773c-37.468 0-67.952-30.483-67.952-67.952v-346.096c0-37.469 30.484-67.952 67.952-67.952h37.993c4.143 0 7.5-3.358 7.5-7.5s-3.357-7.5-7.5-7.5h-37.993c-45.74 0-82.952 37.212-82.952 82.952v346.096c0 45.741 37.212 82.952 82.952 82.952h274.772c4.143 0 7.5-3.357 7.5-7.5s-3.357-7.5-7.499-7.5z"/><path d="m429.048 0h-278.115c-4.143 0-7.5 3.358-7.5 7.5s3.357 7.5 7.5 7.5h278.115c37.469 0 67.952 30.483 67.952 67.952v346.096c0 37.469-30.483 67.952-67.952 67.952h-41.336c-4.143 0-7.5 3.357-7.5 7.5s3.357 7.5 7.5 7.5h41.336c45.74 0 82.952-37.212 82.952-82.952v-346.096c0-45.74-37.212-82.952-82.952-82.952z"/></g></g></svg>