<svg id="Capa_1" enable-background="new 0 0 512 512" height="512" viewBox="0 0 512 512" width="512" xmlns="http://www.w3.org/2000/svg"><g><g><path d="m283.965 276.36h-55.93v-29.19c0-15.444 12.52-27.965 27.965-27.965 15.445 0 27.965 12.52 27.965 27.965z" fill="#565e75"/><path d="m283.965 276.36s24.132 14.543 22.016 48.132c-2.024 32.137-33.402 73.384-49.981 73.384s-47.957-41.247-49.981-73.384c-2.116-33.589 22.016-48.132 22.016-48.132z" fill="#f7594e"/><path d="m128.455 255.132h-55.93v-29.189c0-15.445 12.52-27.965 27.965-27.965 15.445 0 27.965 12.52 27.965 27.965z" fill="#565e75"/><path d="m128.455 255.132s24.132 14.544 22.016 48.132c-2.024 32.137-33.402 73.384-49.981 73.384s-47.957-41.247-49.981-73.384c-2.116-33.589 22.016-48.132 22.016-48.132z" fill="#ffe08c"/><path d="m383.545 255.132h55.93v-29.189c0-15.445-12.52-27.965-27.965-27.965-15.445 0-27.965 12.52-27.965 27.965z" fill="#565e75"/><path d="m383.545 255.132s-24.132 14.544-22.016 48.132c2.024 32.137 33.402 73.384 49.981 73.384s47.957-41.247 49.981-73.384c2.116-33.589-22.016-48.132-22.016-48.132z" fill="#36ce94"/><path d="m256 379.876c-15.734 0-44.794-37.15-49.445-68.407-.598 3.978-.833 8.306-.536 13.023 2.024 32.137 33.402 73.384 49.981 73.384s47.957-41.247 49.981-73.384c.297-4.717.063-9.045-.536-13.023-4.651 31.257-33.711 68.407-49.445 68.407z" fill="#ea4642"/><path d="m100.49 358.649c-15.734 0-44.794-37.15-49.445-68.407-.599 3.978-.833 8.306-.536 13.023 2.024 32.137 33.402 73.384 49.981 73.384s47.957-41.247 49.981-73.384c.297-4.717.063-9.045-.536-13.023-4.651 31.257-33.711 68.407-49.445 68.407z" fill="#f9d375"/><path d="m411.51 358.649c-15.734 0-44.794-37.15-49.445-68.406-.599 3.978-.833 8.306-.536 13.023 2.024 32.137 33.402 73.384 49.981 73.384s47.957-41.247 49.981-73.384c.297-4.717.063-9.045-.536-13.023-4.651 31.256-33.711 68.406-49.445 68.406z" fill="#36bf84"/></g><path d="m510.179 108.948c-2.703-3.142-7.446-3.497-10.593-.798-.198.17-20.264 17.182-60.133 33.971-36.808 15.5-98.515 33.977-183.452 33.977s-146.643-18.477-183.451-33.977c-39.869-16.789-59.935-33.801-60.124-33.964-3.142-2.712-7.887-2.364-10.599.778-2.712 3.141-2.364 7.887.778 10.599.862.744 21.577 18.416 63.346 36.114 7.825 3.315 16.749 6.76 26.721 10.144v25.365c-15.996 3.458-28.02 17.712-28.02 34.727v25.422c-7.54 6.031-23.924 22.69-22.045 52.523.281 4.457 1.07 9.193 2.346 14.078 1.049 4.016 5.155 6.421 9.17 5.371 4.016-1.049 6.42-5.155 5.371-9.17-1.032-3.953-1.668-7.729-1.888-11.225-1.516-24.063 12.195-36.651 16.907-40.24h51.338c4.757 3.624 18.427 16.211 16.913 40.24-.836 13.276-7.639 30.084-18.199 44.962-11.129 15.68-20.86 21.524-24.38 21.524-5.067 0-18.195-10.31-29.669-29.669-2.115-3.57-6.724-4.75-10.296-2.634-3.57 2.116-4.75 6.726-2.634 10.296 10.126 17.085 27.358 37.036 42.598 37.036 5.071 0 18.794-2.714 36.637-27.854 12.29-17.316 19.923-36.53 20.942-52.716 1.879-29.833-14.505-46.493-22.045-52.524v-25.422c0-17.015-12.024-31.268-28.02-34.727v-20.576c35.855 10.705 82.964 19.766 140.785 20.495v21.35c-15.995 3.458-28.02 17.712-28.02 34.727v25.422c-7.54 6.03-23.924 22.69-22.045 52.524 1.02 16.185 8.653 35.4 20.943 52.715 17.843 25.14 31.565 27.854 36.636 27.854 21.801 0 53.985-43.901 57.394-78.29.409-4.13-2.607-7.81-6.737-8.219-4.123-.402-7.809 2.607-8.219 6.737-1.314 13.253-8.287 29.72-18.653 44.051-10.905 15.074-20.376 20.692-23.784 20.692-3.52 0-13.251-5.843-24.38-21.524-10.56-14.878-17.363-31.686-18.199-44.962-1.516-24.063 12.195-36.651 16.907-40.239h51.307c2.775 2.148 8.708 7.46 12.753 16.203 1.743 3.767 6.21 5.406 9.976 3.665 3.767-1.743 5.408-6.209 3.665-9.976-5.015-10.842-12.198-17.767-16.495-21.22v-25.434c0-17.015-12.024-31.269-28.02-34.727v-21.35c57.822-.729 104.931-9.79 140.785-20.495v20.576c-15.996 3.458-28.02 17.712-28.02 34.727v25.422c-7.54 6.031-23.924 22.69-22.045 52.523 1.02 16.186 8.653 35.4 20.942 52.716 17.843 25.139 31.565 27.854 36.637 27.854 5.102 0 18.902-2.739 36.815-28.107 2.394-3.391 1.587-8.079-1.804-10.473-3.39-2.393-8.08-1.587-10.473 1.804-11.188 15.843-20.988 21.747-24.538 21.747-3.52 0-13.252-5.844-24.38-21.524-10.559-14.878-17.363-31.686-18.199-44.962-1.516-24.063 12.195-36.651 16.907-40.24h51.338c4.757 3.624 18.427 16.211 16.913 40.24-.381 6.046-1.961 12.752-4.697 19.933-1.478 3.878.469 8.22 4.347 9.698 3.878 1.477 8.22-.469 9.698-4.347 3.274-8.595 5.176-16.783 5.652-24.338 1.879-29.833-14.505-46.493-22.045-52.524v-25.422c0-17.015-12.024-31.268-28.02-34.727v-25.365c9.972-3.384 18.897-6.829 26.721-10.144 41.769-17.698 62.485-35.371 63.346-36.114 3.144-2.706 3.492-7.441.787-10.583zm-389.488 116.936v21.732h-41.01v-21.732c0-11.306 9.199-20.505 20.505-20.505s20.505 9.199 20.505 20.505zm311.63 0v21.732h-41.01v-21.732c0-11.306 9.199-20.505 20.505-20.505s20.505 9.199 20.505 20.505zm-155.815 21.269v21.732h-41.01v-21.732c0-11.306 9.199-20.505 20.505-20.505s20.505 9.199 20.505 20.505z"/></g></svg>