<svg id="Capa_1" enable-background="new 0 0 512 512" height="512" viewBox="0 0 512 512" width="512" xmlns="http://www.w3.org/2000/svg"><g><circle cx="256" cy="256" fill="#eab14d" r="248.5"/><path d="m256 7.5c-4.836 0-9.636.153-14.403.426 130.537 7.462 234.096 115.667 234.096 248.074 0 132.406-103.559 240.612-234.097 248.074 4.768.272 9.567.426 14.403.426 137.243 0 248.5-111.257 248.5-248.5.001-137.243-111.257-248.5-248.499-248.5z" fill="#e49542"/><path d="m454.653 255.998c0 109.72-88.94 198.66-198.65 198.66-109.72 0-198.66-88.94-198.66-198.66 0-109.71 88.94-198.65 198.66-198.65 4.577 0 15.958 67.372 20.458 67.677 96.898 6.561 92.471 8.25 101.823 104.358.623 6.407 76.369 20.044 76.369 26.615z" fill="#f4fbff"/><path d="m378.283 229.383c-9.351-96.107-4.925-97.797-101.823-104.358-4.5-.305 55.206 8.25 64.558 104.358.624 6.407 76.369 20.044 76.369 26.615 0 103.435-79.047 188.389-180.018 197.783 6.136.571 12.349.876 18.634.876 109.71 0 198.65-88.94 198.65-198.66 0-6.57-75.746-20.207-76.37-26.614z" fill="#daf1f4"/><path d="m454.653 255.998h-198.65v-198.65c109.71 0 198.65 88.94 198.65 198.65z" fill="#dd636e"/><path d="m256.003 57.348v3.505c91.895 17.444 161.385 98.174 161.385 195.145h37.265c0-109.71-88.94-198.65-198.65-198.65z" fill="#da4a54"/><g><path d="m173.444 358.335c-13.806 0-25.564-10.164-27.476-23.858-.178-1.271-.268-2.574-.268-3.877 0-4.143-3.357-7.5-7.5-7.5s-7.5 3.357-7.5 7.5c0 1.995.139 3.998.412 5.951 2.945 21.114 21.059 36.786 42.327 36.784 22.705 0 41.505-17.962 42.673-40.472 1.271-24.508-18.18-44.999-42.677-44.999-5.892 0-10.472.481-14.498 1.378l5.449-32.889h36.926c4.143 0 7.5-3.357 7.5-7.5s-3.357-7.5-7.5-7.5h-43.285c-3.669 0-6.8 2.654-7.399 6.274l-8.575 51.756c-.997 6.028 5.319 10.704 10.825 7.897 6.924-3.553 12.887-4.417 20.558-4.417 15.767 0 28.529 13.175 27.696 29.222-.756 14.598-12.952 26.25-27.688 26.25z"/><path d="m174.096 445.23c25.918 11.232 53.476 16.928 81.907 16.928 113.671 0 206.149-92.483 206.149-206.16 0-113.672-92.479-206.15-206.149-206.15-113.677 0-206.16 92.479-206.16 206.15 0 72.78 37.936 137.827 96.697 174.715 3.506 2.2 8.136 1.146 10.339-2.364 2.203-3.508 1.145-8.137-2.364-10.339-54.275-34.076-89.672-94.256-89.672-162.012 0-102.888 81.718-187.035 183.66-190.99v84.354c0 4.143 3.357 7.5 7.5 7.5s7.5-3.357 7.5-7.5v-84.354c99.447 3.858 179.631 84.043 183.489 183.49h-183.489v-69.148c0-4.143-3.357-7.5-7.5-7.5s-7.5 3.357-7.5 7.5v76.648c0 4.143 3.357 7.5 7.5 7.5h190.989c-3.954 101.942-88.101 183.66-190.989 183.66-26.368 0-51.919-5.279-75.942-15.691-3.8-1.646-8.216.1-9.864 3.899-1.647 3.801.098 8.217 3.899 9.864z"/><path d="m481.849 135.393c-1.956-3.652-6.499-5.034-10.151-3.074-3.652 1.954-5.029 6.499-3.074 10.15 18.564 34.694 28.376 73.952 28.376 113.531 0 133.193-107.789 241-241 241-133.194 0-241-107.787-241-241 0-133.194 107.787-241 241-241 79.53 0 152.413 38.872 197.149 102.371 2.385 3.387 7.064 4.198 10.45 1.812 3.387-2.385 4.197-7.064 1.812-10.45-47.697-67.705-125.264-108.733-209.411-108.733-141.488 0-256 114.502-256 256 0 141.488 114.502 256 256 256 141.484 0 256-114.498 256-256 0-42.039-10.427-83.745-30.151-120.607z"/></g></g></svg>