<svg id="Capa_1" enable-background="new 0 0 512 512" height="512" viewBox="0 0 512 512" width="512" xmlns="http://www.w3.org/2000/svg"><g><path d="m469.475 199.955h-85.171c-4.379 0-7.928-3.55-7.928-7.928 0-66.481-53.894-120.375-120.375-120.375-66.481 0-120.375 53.894-120.375 120.375 0 4.379-3.55 7.928-7.928 7.928h-85.172c-19.344 0-35.026 15.682-35.026 35.026v170.342c0 19.344 15.682 35.026 35.026 35.026h426.949c19.344 0 35.026-15.681 35.026-35.026v-170.343c-.001-19.344-15.682-35.025-35.026-35.025z" fill="#ffe07d"/><g fill="#ffd064"><path d="m469.475 199.955h-28.837c19.344 0 35.025 15.681 35.025 35.025v170.343c0 19.344-15.681 35.026-35.026 35.026h28.837c19.344 0 35.026-15.682 35.026-35.026v-170.343c0-19.344-15.681-35.025-35.025-35.025z"/><path d="m347.538 192.026c0 4.379 3.55 7.928 7.928 7.928h28.837c-4.379 0-7.928-3.55-7.928-7.928 0-66.481-53.894-120.375-120.375-120.375-4.88 0-9.69.298-14.418.863 59.682 7.126 105.956 57.911 105.956 119.512z"/></g><path d="m57.5 377.356v-114.41c0-7.175 5.817-12.992 12.992-12.992h371.016c7.175 0 12.992 5.817 12.992 12.992v114.41c0 7.175-5.817 12.992-12.992 12.992h-371.016c-7.175 0-12.992-5.816-12.992-12.992z" fill="#f4fbff"/><path d="m441.508 249.955h-28.837c7.175 0 12.992 5.817 12.992 12.992v114.41c0 7.175-5.817 12.992-12.992 12.992h28.837c7.175 0 12.992-5.817 12.992-12.992v-114.41c0-7.176-5.817-12.992-12.992-12.992z" fill="#daf1f4"/><circle cx="256" cy="161.567" fill="#eab14d" r="38.304"/><path d="m256 123.263c-3.683 0-7.241.531-10.612 1.501 15.99 4.603 27.692 19.332 27.692 36.803s-11.702 32.2-27.692 36.803c3.371.97 6.929 1.501 10.612 1.501 21.155 0 38.304-17.149 38.304-38.304s-17.149-38.304-38.304-38.304z" fill="#e49542"/><g><path d="m208.095 283.334c-1.407-3.419-4.703-5.627-8.4-5.627h-.01c-3.7.005-6.997 2.22-8.397 5.645-.023.057-.046.113-.067.171l-26.242 68.903c-1.475 3.87.469 8.203 4.34 9.678 3.865 1.476 8.203-.469 9.678-4.34l4.696-12.329h31.811l4.645 12.309c1.133 3.003 3.987 4.854 7.018 4.854.88 0 1.775-.156 2.647-.485 3.875-1.462 5.831-5.789 4.368-9.665l-26.004-68.906c-.028-.071-.055-.139-.083-.208zm-18.691 47.101 10.265-26.953 10.172 26.953z"/><path d="m325.973 277.722c-4.131-.228-7.877 2.341-9.15 6.261-.027.087-.054.173-.079.261l-13.688 48.013-14.188-48.09c-.026-.089-.054-.177-.083-.265-1.312-3.908-5.086-6.432-9.214-6.169-4.113.275-7.529 3.295-8.324 7.428l-12.283 68.057c-.735 4.076 1.973 7.978 6.049 8.713 4.074.733 7.978-1.972 8.713-6.049l7.842-43.452 12.896 43.712c.026.089.054.178.084.266 1.244 3.706 4.698 6.188 8.604 6.188h.047c3.926-.021 7.378-2.543 8.59-6.276.027-.086.054-.173.079-.26l12.451-43.679 8.329 43.577c.778 4.069 4.71 6.744 8.774 5.958 4.068-.777 6.736-4.706 5.958-8.774l-13.027-68.164c-.821-4.039-4.267-7.022-8.38-7.256z"/><path d="m261.817 102.039v-4.596c0-4.143-3.357-7.5-7.5-7.5s-7.5 3.357-7.5 7.5v4.596c0 4.143 3.357 7.5 7.5 7.5s7.5-3.358 7.5-7.5z"/><path d="m294.85 109.731-3.249 3.249c-2.929 2.93-2.929 7.678 0 10.607 2.931 2.929 7.678 2.928 10.607 0l3.249-3.249c2.929-2.93 2.929-7.678 0-10.607-2.93-2.928-7.678-2.928-10.607 0z"/><path d="m315.529 167.384h4.596c4.143 0 7.5-3.357 7.5-7.5s-3.357-7.5-7.5-7.5h-4.596c-4.143 0-7.5 3.357-7.5 7.5s3.358 7.5 7.5 7.5z"/><path d="m304.587 197.167c-2.93-2.928-7.678-2.928-10.607 0-2.929 2.93-2.929 7.678 0 10.607l3.25 3.25c2.931 2.929 7.678 2.928 10.607 0 2.929-2.93 2.929-7.678 0-10.607z"/><path d="m250.183 221.096v4.595c0 4.143 3.357 7.5 7.5 7.5s7.5-3.357 7.5-7.5v-4.595c0-4.143-3.357-7.5-7.5-7.5s-7.5 3.358-7.5 7.5z"/><path d="m209.793 199.546-3.249 3.249c-2.929 2.93-2.929 7.678 0 10.607 2.931 2.929 7.678 2.928 10.607 0l3.249-3.249c2.929-2.93 2.929-7.678 0-10.607-2.929-2.927-7.677-2.927-10.607 0z"/><path d="m196.472 155.75h-4.596c-4.143 0-7.5 3.357-7.5 7.5s3.357 7.5 7.5 7.5h4.596c4.143 0 7.5-3.357 7.5-7.5s-3.358-7.5-7.5-7.5z"/><path d="m214.771 112.111c-2.93-2.928-7.678-2.928-10.607 0-2.929 2.93-2.929 7.678 0 10.607l3.249 3.249c2.931 2.929 7.678 2.928 10.607 0 2.929-2.93 2.929-7.678 0-10.607z"/><path d="m469.475 192.455h-85.171c-.236 0-.429-.192-.429-.429 0-70.51-57.364-127.874-127.875-127.874-70.51 0-127.874 57.364-127.874 127.875 0 .236-.192.428-.429.428h-85.171c-23.449 0-42.526 19.077-42.526 42.525v105.121c0 4.143 3.357 7.5 7.5 7.5s7.5-3.357 7.5-7.5v-105.121c0-15.178 12.349-27.525 27.526-27.525h85.171c8.508 0 15.429-6.921 15.429-15.429 0-62.239 50.636-112.874 112.875-112.874s112.874 50.636 112.874 112.875c0 8.507 6.921 15.428 15.429 15.428h85.171c15.178 0 27.525 12.348 27.525 27.525v170.343c0 15.178-12.348 27.525-27.525 27.525h-426.949c-15.177 0-27.526-12.348-27.526-27.525v-35.234c0-4.143-3.357-7.5-7.5-7.5s-7.5 3.357-7.5 7.5v35.234c0 23.448 19.077 42.525 42.526 42.525h426.948c23.448 0 42.525-19.077 42.525-42.525v-170.343c.001-23.448-19.076-42.525-42.524-42.525z"/><path d="m50 262.947v114.409c0 11.3 9.192 20.492 20.492 20.492h298.818c4.143 0 7.5-3.357 7.5-7.5s-3.357-7.5-7.5-7.5h-298.818c-3.028 0-5.492-2.464-5.492-5.492v-114.409c0-3.028 2.464-5.492 5.492-5.492h371.016c3.028 0 5.492 2.464 5.492 5.492v114.409c0 3.028-2.464 5.492-5.492 5.492h-42.211c-4.143 0-7.5 3.357-7.5 7.5s3.357 7.5 7.5 7.5h42.211c11.3 0 20.492-9.192 20.492-20.492v-114.409c0-11.3-9.192-20.492-20.492-20.492h-371.016c-11.3 0-20.492 9.192-20.492 20.492z"/><path d="m210.196 161.567c0 25.257 20.548 45.805 45.804 45.805 18.399 0 34.947-10.94 42.157-27.872 1.623-3.811-.151-8.216-3.962-9.839-3.813-1.623-8.217.151-9.839 3.962-4.851 11.39-15.98 18.749-28.356 18.749-16.985 0-30.804-13.819-30.804-30.805s13.818-30.804 30.804-30.804c12.376 0 23.507 7.359 28.356 18.749 1.623 3.81 6.022 5.584 9.839 3.962 3.811-1.623 5.585-6.027 3.962-9.839-7.21-16.932-23.758-27.872-42.157-27.872-25.256 0-45.804 20.548-45.804 45.804z"/></g></g></svg>