<svg id="Capa_1" enable-background="new 0 0 512 512" height="512" viewBox="0 0 512 512" width="512" xmlns="http://www.w3.org/2000/svg"><g><g><path d="m352.533 466.845c8.475.896 15.703-6.174 14.897-14.657-1.113-11.706-4.726-27.4-15.338-38.901-15.994-17.334-33.074-31.839-30.074-84.158 3.554-61.971-19.052-164.477-104.641-173.525s-129.129 86.465-138.612 147.809c-8.006 51.789-27.741 62.402-47.006 76.009-12.782 9.028-19.597 23.619-23.133 34.834-2.562 8.127 3.028 16.552 11.502 17.448z" fill="#ffe08c"/><g><path d="m367.239 450.4-358.052-37.853c-.193.575-.384 1.149-.56 1.709-2.562 8.127 3.028 16.552 11.502 17.448l332.404 35.141c8.475.896 15.703-6.174 14.897-14.657-.056-.584-.123-1.185-.191-1.788z" fill="#f9d375"/></g><g><path d="m503.374 414.256c-3.536-11.215-10.351-25.806-23.133-34.834-19.266-13.607-39.001-24.219-47.006-76.009-9.483-61.344-53.023-156.857-138.612-147.809-14.661 1.55-27.473 5.844-38.623 12.205 53.941 30.774 68.963 109.965 66.018 161.32-3 52.319 14.079 66.823 30.074 84.158 8.548 9.264 12.551 21.246 14.367 31.676l125.412-13.258c8.475-.897 14.065-9.322 11.503-17.449z" fill="#febd55"/></g><path d="m502.792 412.48-141.492 15.075c2.582 5.812 4.189 11.83 5.16 17.407l125.412-13.258c8.475-.896 14.065-9.321 11.502-17.448-.183-.582-.381-1.177-.582-1.776z" fill="#f9ab43"/><g><path d="m271.705 167.862h-31.346c-7.722 0-13.982-6.26-13.982-13.982v-31.346c0-7.722 6.26-13.982 13.982-13.982h31.346c7.722 0 13.982 6.26 13.982 13.982v31.346c.001 7.722-6.259 13.982-13.982 13.982z" fill="#cb3541"/><path d="m226.377 128.653v-6.119c0-5.109 2.749-9.565 6.84-12.005-24.494-27.453-64.278-65.451-96.847-65.451-32.926 0-42.415 34.499-39.264 69.729 35.089-10.301 93.876 3.477 129.271 13.846z" fill="#cb3541"/><path d="m226.377 153.88v-25.227c-42.8-12.539-119.819-30.073-147.757-3.973-29.432 27.495 22.581 102.856 48.595 96.613 19.975-4.794 69.51-42.24 103.499-57.305-2.667-2.547-4.337-6.129-4.337-10.108z" fill="#f7594e"/><path d="m285.688 128.653v-6.119c0-5.109-2.749-9.565-6.84-12.005 24.494-27.453 64.278-65.451 96.847-65.451 32.926 0 42.415 34.499 39.264 69.729-35.09-10.301-93.876 3.477-129.271 13.846z" fill="#cb3541"/><path d="m285.688 153.88v-25.227c42.8-12.539 119.819-30.073 147.757-3.973 29.432 27.495-22.581 102.856-48.595 96.613-19.975-4.794-69.51-42.24-103.499-57.305 2.667-2.547 4.337-6.129 4.337-10.108z" fill="#f7594e"/><g fill="#ba3243"><path d="m96.658 97.082c-.247 5.778-.087 11.739.448 17.725 35.089-10.301 93.876 3.477 129.271 13.846v-6.119c0-5.109 2.749-9.565 6.84-12.005-35.715-10.463-100.014-24.312-136.559-13.447z"/><path d="m285.688 122.534v6.119c35.395-10.369 94.182-24.147 129.271-13.846.535-5.986.695-11.946.448-17.725-36.545-10.865-100.844 2.984-136.559 13.447 4.091 2.439 6.84 6.895 6.84 12.005z"/><path d="m271.705 149.862h-31.346c-7.722 0-13.982-6.26-13.982-13.982v18c0 7.722 6.26 13.982 13.982 13.982h31.346c7.722 0 13.982-6.26 13.982-13.982v-18c.001 7.722-6.259 13.982-13.982 13.982z"/></g><path d="m226.377 147.997c-33.739 16.134-80.019 50.702-99.162 55.296-18.647 4.475-50.65-32.98-56.441-64.68-7.592 32.981 34.052 88.053 56.441 82.68 19.975-4.794 69.51-42.24 103.499-57.305-2.667-2.546-4.337-6.128-4.337-10.107z" fill="#ea4642"/><path d="m384.85 203.292c-19.142-4.594-65.423-39.161-99.162-55.296v5.883c0 3.979-1.67 7.561-4.337 10.107 33.989 15.066 83.524 52.512 103.499 57.305 22.389 5.373 64.033-49.699 56.441-82.68-5.791 31.701-37.794 69.157-56.441 64.681z" fill="#ea4642"/><path d="m271.706 167.862c3.744 0 7.136-1.48 9.645-3.876 13.424 5.95 29.271 15.392 44.766 24.934 30.59 32.738 35.662 82.359 35.662 82.359-4.167 22.886-39.396 84.314-39.396 84.314-2.601-112.379-66.351-187.731-66.351-187.731z" fill="#cb3541"/><path d="m240.36 167.862c-3.744 0-7.136-1.48-9.645-3.876-13.424 5.95-29.271 15.392-44.766 24.934-30.59 32.738-35.662 82.359-35.662 82.359 4.167 22.886 39.395 84.314 39.395 84.314 2.602-112.379 66.351-187.731 66.351-187.731z" fill="#cb3541"/><g><path d="m155.504 246.232c-4.141 14.535-5.217 25.047-5.217 25.047 4.167 22.886 39.395 84.314 39.395 84.314.255-11.013 1.104-21.665 2.416-31.931z" fill="#ba3243"/></g><g><path d="m356.561 246.232c4.141 14.535 5.217 25.047 5.217 25.047-4.167 22.886-39.395 84.314-39.395 84.314-.255-11.013-1.104-21.665-2.416-31.931z" fill="#ba3243"/></g></g></g><path d="m511.026 412.306c-3.776-11.978-11.355-28.43-26.01-38.78-1.232-.87-2.466-1.728-3.699-2.586-17.86-12.42-33.285-23.146-40.308-68.582-4.43-28.656-14.896-58.666-28.985-83.459.682-.548 1.365-1.11 2.051-1.701 9.337-8.042 18.149-19.294 24.814-31.685 14.932-27.762 14.944-52.652.034-66.582-4.236-3.957-9.5-7.158-15.76-9.608.853-17.009-.776-42.695-15.52-58.816-8.106-8.863-18.775-13.357-31.713-13.357-10.947 0-23.177 3.697-36.351 10.988-3.631 2.01-4.946 6.582-2.936 10.214 2.009 3.63 6.581 4.945 10.214 2.936 10.92-6.044 20.702-9.108 29.073-9.108 8.664 0 15.41 2.771 20.622 8.47 8.109 8.866 12.256 24.845 11.737 44.594-12.116-2.168-26.687-2.453-43.651-.829-25.074 2.399-51.521 8.565-71.713 14.136-.559-3.168-1.808-6.101-3.592-8.634 11.65-12.648 23.021-23.495 33.865-32.3 3.222-2.616 3.713-7.348 1.097-10.571-2.617-3.222-7.349-3.714-10.57-1.097-11.87 9.637-24.281 21.543-36.942 35.421-1.622-.392-3.306-.622-5.046-.622h-31.408c-1.74 0-3.424.23-5.046.622-27.538-30.184-65.95-64.22-99.147-64.22-12.938 0-23.608 4.494-31.713 13.357-14.742 16.12-16.373 41.802-15.52 58.811-6.262 2.451-11.524 5.655-15.76 9.613-14.91 13.929-14.898 38.82.034 66.582 6.664 12.391 15.476 23.643 24.814 31.685.671.578 1.34 1.129 2.007 1.666-14.099 24.801-24.573 54.823-29.005 83.494-7.023 45.436-22.448 56.162-40.308 68.581-1.233.858-2.467 1.716-3.699 2.586-14.654 10.35-22.233 26.802-26.01 38.781-1.897 6.019-.998 12.504 2.469 17.794 3.485 5.319 9.111 8.753 15.433 9.422l226.808 23.978c.269.028.535.042.799.042 3.796 0 7.056-2.866 7.464-6.725.436-4.127-2.556-7.827-6.683-8.263l-226.81-23.979c-1.819-.192-3.438-1.181-4.442-2.712-.578-.883-1.439-2.711-.706-5.038 3.082-9.774 9.114-23.09 20.346-31.024 1.202-.849 2.407-1.686 3.61-2.523 18.963-13.187 38.573-26.823 46.58-78.624 4.138-26.766 13.87-54.758 26.967-77.918 3.799 1.572 7.463 2.373 10.938 2.372 1.703 0 3.362-.192 4.967-.577 7.746-1.859 18.516-7.532 31.146-15.016-14.117 28.031-17.099 55.47-17.258 57.03-.072.704-.045 1.414.082 2.11 4.356 23.928 38.88 84.313 40.347 86.872 3.508 6.55 14.09 3.818 14.031-3.565 1.31-56.581 18.79-103.379 33.223-132.674 9.902-20.099 19.765-34.943 25.745-43.221 5.981 8.28 15.843 23.124 25.745 43.221 12.594 25.562 27.505 64.452 31.971 111.536.84 7.439.472 15.595 1.397 22.628 3.386 31.059 16.215 44.776 28.63 58.039.995 1.062 1.99 2.125 2.981 3.2 9.327 10.108 12.44 24.391 13.409 34.593.231 2.428-.993 4.036-1.744 4.778-1.302 1.288-3.095 1.915-4.91 1.724l-76.353-8.072c-4.126-.439-7.827 2.556-8.263 6.683s2.556 7.827 6.683 8.263l76.353 8.072c.75.079 1.499.118 2.243.118 5.531 0 10.835-2.163 14.819-6.105 4.464-4.417 6.696-10.515 6.143-16.75l117.986-12.473c6.322-.669 11.948-4.103 15.433-9.422 3.468-5.29 4.368-11.775 2.471-17.794zm-217.766-258.626v-19.623.001c68.27-19.358 117.462-20.904 135.402-4.144 11.319 10.574 5.867 31.977-3.01 48.48-13.232 24.602-31.512 37.275-38.797 35.523-9.417-2.26-28.913-14.342-47.767-26.027-15.908-9.859-32.274-20.003-46.948-27.319l-.039.02c.74-2.173 1.159-4.492 1.159-6.911zm-168.051 60.237c-7.276 1.749-25.565-10.921-38.797-35.523-8.877-16.503-14.329-37.906-3.01-48.48 10.257-9.582 31.207-13.291 60.586-10.722 4.133.353 7.779-2.698 8.141-6.832.361-4.134-2.698-7.779-6.832-8.141-16.053-1.403-29.916-1.059-41.522 1.017-.518-19.745 3.629-35.721 11.737-44.587 5.212-5.7 11.958-8.47 20.622-8.47 21.66 0 52.265 20.455 86.594 57.74-1.784 2.534-3.032 5.468-3.59 8.636-15.202-4.2-29.782-7.601-43.435-10.11-4.08-.749-7.999 1.95-8.749 6.033-.75 4.082 1.951 7.999 6.033 8.749 14.316 2.631 29.705 6.269 45.817 10.831v19.621c0 2.418.419 4.736 1.158 6.907l-.037-.016c-14.674 7.316-31.04 17.459-46.948 27.318-18.854 11.686-38.351 23.769-47.768 26.029zm91.825 2.266c-12.926 26.139-28.173 65.584-33.297 113.406-10.694-20.181-23.301-45.851-26.052-58.565.941-7.112 7.404-48.459 32.987-76.405 13.651-8.395 27.25-16.488 39.173-22.159 3.105 1.741 6.678 2.743 10.483 2.743h.709c-6.305 9.082-15.088 22.952-24.003 40.98zm23.294-56.008c-3.581 0-6.495-2.914-6.495-6.495v-31.408c0-3.581 2.913-6.495 6.495-6.495h31.408c3.581 0 6.495 2.914 6.495 6.495v31.408c0 3.581-2.913 6.495-6.495 6.495zm30.7 15.029h.708c3.806 0 7.378-1.002 10.484-2.743 11.923 5.671 25.524 13.765 39.175 22.16 25.588 27.953 32.048 69.313 32.986 76.403-2.751 12.714-15.359 38.384-26.052 58.565-5.124-47.822-20.371-87.267-33.297-113.406-8.916-18.028-17.699-31.898-24.004-40.979zm224.958 246.659c-1.004 1.531-2.623 2.52-4.442 2.712l-118.953 12.575c-2.474-9.685-6.904-20.108-14.788-28.652-1.016-1.101-2.036-2.19-3.054-3.279-11.471-12.253-21.422-22.888-24.487-47.856 6.439-11.385 35.169-63.022 39.117-84.709.127-.696.154-1.406.082-2.11-.159-1.56-3.148-29.002-17.267-57.034 12.633 7.486 23.406 13.161 31.154 15.02 1.606.386 3.264.577 4.967.577 3.459 0 7.106-.792 10.886-2.35 13.089 23.154 22.818 51.139 26.954 77.896 8.008 51.802 27.617 65.438 46.581 78.625 1.203.837 2.407 1.674 3.609 2.522 11.234 7.935 17.265 21.25 20.346 31.024.734 2.328-.127 4.156-.705 5.039z"/></g></svg>