<svg id="Capa_1" enable-background="new 0 0 512 512" height="512" viewBox="0 0 512 512" width="512" xmlns="http://www.w3.org/2000/svg"><g><g><path d="m489 81.682h-466c-8.284 0-15-6.716-15-15v-20.203c0-8.284 6.716-15 15-15h466c8.284 0 15 6.716 15 15v20.204c0 8.284-6.716 14.999-15 14.999z" fill="#ffe08c"/><path d="m489 63.682h-466c-8.284 0-15-6.716-15-15v18c0 8.284 6.716 15 15 15h466c8.284 0 15-6.716 15-15v-18c0 8.285-6.716 15-15 15z" fill="#f9d375"/><path d="m504 480.522h-496v-35.232c0-8.284 6.716-15 15-15h466c8.284 0 15 6.716 15 15z" fill="#ffe08c"/><path d="m8 462.522h496v18h-496z" fill="#f9d375"/><path d="m30.673 81.682h450.654v348.607h-450.654z" fill="#e4936b"/><path d="m30.673 412.289h450.654v18h-450.654z" fill="#db835d"/><path d="m374.701 430.289h-237.402v-69.65c0-65.557 53.144-118.701 118.701-118.701 65.557 0 118.701 53.144 118.701 118.701z" fill="#565e75"/><path d="m176.422 115.29h-71.488c-2.761 0-5-2.238-5-5v-23.608c0-2.761 2.239-5 5-5h71.488c2.762 0 5 2.239 5 5v23.607c0 2.762-2.238 5.001-5 5.001z" fill="#edf4fa"/><path d="m172.864 115.29v47.75c0 12.863-7.456 24.559-19.117 29.988l-33.833 15.751c-14.047 6.54-30.738.527-37.388-13.468-6.858-14.432-.373-31.673 14.296-38.008l12.415-5.362v-36.651z" fill="#f7594e"/><path d="m301.818 115.29h-71.488c-2.761 0-5-2.238-5-5v-23.608c0-2.761 2.239-5 5-5h71.488c2.762 0 5 2.239 5 5v23.607c0 2.762-2.239 5.001-5 5.001z" fill="#edf4fa"/><path d="m298.259 115.29v47.75c0 12.863-7.456 24.559-19.117 29.988l-33.833 15.751c-14.047 6.54-30.738.527-37.388-13.468-6.858-14.432-.373-31.673 14.296-38.008l12.415-5.362v-36.651z" fill="#f7594e"/><path d="m427.213 115.29h-71.488c-2.761 0-5-2.238-5-5v-23.608c0-2.761 2.239-5 5-5h71.488c2.762 0 5 2.239 5 5v23.607c0 2.762-2.239 5.001-5 5.001z" fill="#edf4fa"/><g fill="#d8e5ef"><path d="m176.422 97.29h-71.488c-2.761 0-5-2.238-5-5v18c0 2.762 2.239 5 5 5h71.488c2.762 0 5-2.238 5-5v-18c0 2.761-2.238 5-5 5z"/><path d="m301.818 97.29h-71.488c-2.761 0-5-2.238-5-5v18c0 2.762 2.239 5 5 5h71.488c2.762 0 5-2.238 5-5v-18c0 2.761-2.239 5-5 5z"/><path d="m427.213 97.29h-71.488c-2.761 0-5-2.238-5-5v18c0 2.762 2.239 5 5 5h71.488c2.762 0 5-2.238 5-5v-18c0 2.761-2.239 5-5 5z"/></g><path d="m423.655 115.29v47.75c0 12.863-7.456 24.559-19.117 29.988l-33.833 15.751c-14.046 6.54-30.738.527-37.388-13.468-6.858-14.432-.373-31.673 14.296-38.008l12.415-5.362v-36.651z" fill="#f7594e"/><path d="m153.747 175.027-33.833 15.751c-14.047 6.54-30.738.527-37.388-13.468-.486-1.022-.897-2.059-1.251-3.105-2.25 6.68-2.025 14.212 1.251 21.105 6.65 13.995 23.342 20.007 37.388 13.468l33.833-15.751c11.661-5.429 19.117-17.125 19.117-29.988v-18c0 12.863-7.456 24.559-19.117 29.988z" fill="#ea4642"/><path d="m279.142 175.027-33.833 15.751c-14.047 6.54-30.738.527-37.388-13.468-.486-1.022-.897-2.059-1.251-3.105-2.25 6.68-2.025 14.212 1.251 21.105 6.65 13.995 23.342 20.007 37.388 13.468l33.833-15.751c11.661-5.429 19.117-17.125 19.117-29.988v-18c0 12.863-7.456 24.559-19.117 29.988z" fill="#ea4642"/><path d="m404.537 175.027-33.833 15.751c-14.046 6.54-30.738.527-37.388-13.468-.486-1.022-.897-2.059-1.251-3.105-2.25 6.68-2.025 14.212 1.251 21.105 6.65 13.995 23.342 20.007 37.388 13.468l33.833-15.751c11.661-5.429 19.117-17.125 19.117-29.988v-18c.001 12.863-7.456 24.559-19.117 29.988z" fill="#ea4642"/><path d="m137.299 412.289h237.402v18h-237.402z" fill="#4b5165"/><path d="m289.208 430.289s30.14-11.302 34.047-43.674-12.465-46.511-12.465-46.511-10.419 13.395-17.223 16.393c0 0-5.989-13.962-18.126-25.882-10.419-10.233-6.698-29.209-6.698-29.209s-61.953 2.791-48.93 67.721c0 0-18.605-2.233-28.651-15.628 0 0-16.93 51.256 29.395 76.791h68.651z" fill="#febd55"/><path d="m199.56 412.289c4.857 6.627 11.634 12.839 20.997 18h68.651s13.407-5.042 23.497-18z" fill="#f9ab43"/></g><path d="m489.456 88.856c12.431 0 22.544-10.113 22.544-22.544v-20.243c0-12.431-10.113-22.544-22.544-22.544h-238.166c-4.15 0-7.515 3.364-7.515 7.515s3.364 7.515 7.515 7.515h238.166c4.144 0 7.515 3.371 7.515 7.515v20.244c0 4.144-3.371 7.515-7.515 7.515h-466.912c-4.144 0-7.515-3.371-7.515-7.515v-20.245c0-4.144 3.371-7.515 7.515-7.515h198.687c4.15 0 7.515-3.364 7.515-7.515s-3.365-7.515-7.515-7.515h-198.687c-12.431 0-22.544 10.114-22.544 22.545v20.244c0 12.431 10.113 22.544 22.544 22.544h.173v334.259h-.173c-12.431 0-22.544 10.112-22.544 22.543v35.301c0 4.15 3.364 7.515 7.515 7.515h83.744c4.15 0 7.515-3.364 7.515-7.515s-3.364-7.515-7.515-7.515h-76.23v-27.787c0-4.144 3.371-7.515 7.515-7.515h466.912c4.144 0 7.515 3.371 7.515 7.515v27.787h-375.654c-4.15 0-7.515 3.365-7.515 7.515s3.365 7.515 7.515 7.515h383.168c4.151 0 7.515-3.364 7.515-7.515v-35.301c0-12.431-10.113-22.544-22.544-22.544h-.173v-334.259zm-126.247 69.78c2.752-1.189 4.535-3.9 4.535-6.899v-29.208h48.723v40.328c0 9.925-5.814 19.045-14.811 23.234l-33.899 15.782c-10.296 4.791-22.631.346-27.503-9.907-2.44-5.134-2.681-10.892-.68-16.212 2.001-5.321 5.978-9.492 11.196-11.746zm61.834-69.78v18.643h-1.061-63.752-1.805v-18.643zm-187.474 69.78c2.753-1.189 4.535-3.9 4.535-6.899v-29.208h48.724v40.328c0 9.925-5.814 19.045-14.813 23.234l-33.898 15.782c-10.294 4.792-22.63.347-27.502-9.907-2.44-5.134-2.681-10.892-.68-16.212s5.977-9.492 11.196-11.746zm61.833-69.78v18.643h-1.06-63.753-1.806v-18.643zm-187.473 69.78c2.753-1.189 4.535-3.9 4.535-6.899v-29.208h48.723v40.328c0 9.925-5.814 19.045-14.812 23.234l-33.899 15.782c-10.294 4.792-22.63.347-27.502-9.907-2.44-5.134-2.681-10.892-.68-16.212s5.977-9.492 11.196-11.746zm61.833-69.78v18.643h-1.06-63.753-1.806v-18.643zm114 334.26h-65.287c-26.106-15.338-28.167-40.158-26.66-54.935 10.796 7.07 22.376 8.55 23.032 8.629 2.391.284 4.777-.591 6.413-2.361 1.636-1.769 2.324-4.216 1.85-6.579-3.536-17.628-1.389-31.631 6.38-41.621 7.596-9.767 19.236-14.04 27.125-15.884.014.769.044 1.565.094 2.382.604 9.778 3.89 17.861 9.505 23.376 10.878 10.683 16.471 23.419 16.521 23.533.791 1.843 2.286 3.294 4.152 4.029 1.864.734 3.948.693 5.784-.115 4.627-2.038 9.879-6.99 13.906-11.342.533.946 1.074 2.001 1.6 3.166 3.894 8.637 5.157 18.925 3.75 30.576-2.937 24.326-23.034 34.84-28.165 37.146zm186.491 0h-91.805v-62.272c0-34.453-13.608-66.656-38.317-90.675-2.975-2.893-7.733-2.825-10.626.151-2.892 2.975-2.826 7.733.151 10.626 21.772 21.165 33.763 49.54 33.763 79.898v62.272h-53.83c7.876-7.865 15.325-19.325 17.259-35.345 4.343-35.994-14.246-52.505-15.039-53.19-1.559-1.345-3.603-1.994-5.651-1.79-2.049.202-3.926 1.237-5.191 2.861-2.542 3.263-5.823 6.947-8.755 9.773-3.269-5.556-8.404-13.089-15.467-20.025-6.12-6.011-5.394-18.269-4.603-22.459.444-2.262-.175-4.603-1.68-6.35-1.506-1.747-3.74-2.705-6.032-2.602-1.218.055-30.025 1.589-46.712 22.917-8.701 11.121-12.391 25.27-11.021 42.173-4.653-1.898-9.964-4.982-13.65-9.897-1.679-2.24-4.463-3.359-7.226-2.907-2.762.452-5.044 2.402-5.922 5.059-.193.586-4.719 14.545-3.024 31.961 1.148 11.793 5.359 26.812 17.571 39.822h-53.865v-62.272c0-61.436 49.982-111.418 111.419-111.418 19.371 0 38.444 5.045 55.159 14.588 3.603 2.058 8.195.805 10.251-2.8 2.059-3.604.804-8.194-2.799-10.252-18.98-10.837-40.631-16.565-62.611-16.565-69.724 0-126.448 56.724-126.448 126.448v62.272h-91.805v-334.262h54.367v21.148c0 5.797 3.964 10.673 9.32 12.093v24.699l-7.904 3.414c-8.998 3.886-15.854 11.078-19.304 20.252-3.451 9.174-3.034 19.102 1.173 27.954 6.106 12.85 19.009 20.408 32.417 20.408 5.042 0 10.154-1.069 15.003-3.326l33.899-15.782c14.274-6.646 23.497-21.113 23.497-36.859v-40.976c4.975-1.659 8.575-6.351 8.575-11.876v-21.149h28.963v21.148c0 5.797 3.964 10.673 9.32 12.093v24.699l-7.904 3.414c-8.998 3.886-15.854 11.078-19.304 20.252-3.451 9.174-3.034 19.102 1.173 27.954 6.106 12.85 19.009 20.408 32.417 20.408 5.042 0 10.154-1.069 15.003-3.326l33.898-15.782c14.275-6.645 23.499-21.113 23.499-36.859v-40.977c4.974-1.659 8.574-6.351 8.574-11.876v-21.148h28.964v21.148c0 5.797 3.964 10.672 9.32 12.093v24.699l-7.904 3.414c-8.998 3.886-15.853 11.078-19.304 20.252-3.45 9.174-3.034 19.101 1.172 27.954 6.107 12.85 19.009 20.407 32.418 20.407 5.041 0 10.156-1.069 15.003-3.326l33.899-15.782c14.275-6.645 23.498-21.113 23.498-36.859v-40.976c4.975-1.659 8.575-6.351 8.575-11.876v-21.148h34.181v334.26z"/></g></svg>