<svg id="Capa_1" enable-background="new 0 0 512 512" height="512" viewBox="0 0 512 512" width="512" xmlns="http://www.w3.org/2000/svg"><g><path d="m475.769 227.269c0 121.375-98.394 277.231-219.769 277.231s-219.769-155.856-219.769-277.231 98.394-219.769 219.769-219.769 219.769 98.394 219.769 219.769z" fill="#5766cb"/><path d="m256 7.5c-6.324 0-12.581.283-18.769.806 112.587 9.524 201 103.912 201 218.963 0 115.053-88.411 261.081-201 275.983 6.187.819 12.446 1.248 18.769 1.248 121.375 0 219.769-155.856 219.769-277.231s-98.394-219.769-219.769-219.769z" fill="#3d4fc3"/><circle cx="256" cy="227.269" fill="#f4fbff" r="128.078"/><path d="m256 99.191c-4.659 0-9.258.255-13.789.741 64.25 6.878 114.289 61.261 114.289 127.337s-50.039 120.459-114.289 127.337c4.531.485 9.13.741 13.789.741 70.735 0 128.078-57.342 128.078-128.078s-57.343-128.078-128.078-128.078z" fill="#daf1f4"/><g><path d="m256 130.796c-4.143 0-7.5 3.357-7.5 7.5v8.897c0 4.143 3.357 7.5 7.5 7.5s7.5-3.357 7.5-7.5v-8.897c0-4.143-3.357-7.5-7.5-7.5z"/><path d="m317.926 175.95 6.291-6.291c2.929-2.93 2.929-7.678 0-10.607-2.93-2.928-7.678-2.928-10.607 0l-6.291 6.291c-2.929 2.93-2.929 7.678 0 10.607 2.931 2.929 7.677 2.928 10.607 0z"/><path d="m344.973 234.769c4.143 0 7.5-3.357 7.5-7.5s-3.357-7.5-7.5-7.5h-8.897c-4.143 0-7.5 3.357-7.5 7.5s3.357 7.5 7.5 7.5z"/><path d="m307.319 289.194 6.291 6.291c2.931 2.929 7.678 2.928 10.607 0 2.929-2.93 2.929-7.678 0-10.607l-6.291-6.291c-2.93-2.928-7.678-2.928-10.607 0-2.929 2.93-2.929 7.678 0 10.607z"/><path d="m248.5 316.241c0 4.143 3.357 7.5 7.5 7.5s7.5-3.357 7.5-7.5v-8.896c0-4.143-3.357-7.5-7.5-7.5s-7.5 3.357-7.5 7.5z"/><path d="m187.783 295.484c2.928 2.928 7.677 2.931 10.606.001l6.292-6.291c2.93-2.929 2.93-7.678.001-10.606-2.93-2.929-7.679-2.93-10.606-.001l-6.292 6.291c-2.93 2.929-2.93 7.678-.001 10.606z"/><path d="m167.028 219.769c-4.143 0-7.5 3.357-7.5 7.5s3.357 7.5 7.5 7.5h8.896c4.143 0 7.5-3.357 7.5-7.5s-3.357-7.5-7.5-7.5z"/><path d="m194.076 175.95c2.936 2.934 7.684 2.923 10.606-.001 2.929-2.929 2.929-7.678-.001-10.606l-6.292-6.291c-2.93-2.928-7.679-2.929-10.606.001-2.929 2.929-2.929 7.678.001 10.606z"/><path d="m257.967 181.514c-4.143 0-7.5 3.357-7.5 7.5v38.255c0 4.143 3.357 7.5 7.5 7.5h20.756c4.143 0 7.5-3.357 7.5-7.5s-3.357-7.5-7.5-7.5h-13.256v-30.755c0-4.143-3.357-7.5-7.5-7.5z"/><path d="m210.973 355.178c14.455 5.089 29.604 7.669 45.027 7.669 74.758 0 135.577-60.82 135.577-135.578s-60.819-135.578-135.577-135.578-135.578 60.819-135.578 135.577c0 46.205 23.196 88.792 62.049 113.92 3.48 2.252 8.121 1.255 10.371-2.225 2.249-3.479 1.253-8.121-2.225-10.371-34.562-22.352-55.195-60.23-55.195-101.324 0-66.486 54.091-120.577 120.578-120.577 66.486 0 120.577 54.091 120.577 120.577 0 66.487-54.091 120.578-120.577 120.578-13.722 0-27.195-2.294-40.047-6.817-3.91-1.376-8.189.677-9.564 4.584-1.376 3.908.677 8.19 4.584 9.565z"/><path d="m421.595 71.629c-2.836-3.017-7.583-3.162-10.602-.326-3.018 2.837-3.164 7.584-.326 10.602 37.145 39.505 57.602 91.13 57.602 145.364 0 89.77-54.914 197.038-130.713 244.631-26.527 16.655-53.967 25.1-81.556 25.1s-55.028-8.445-81.556-25.101c-75.89-47.65-130.713-154.906-130.713-244.63 0-117.045 95.224-212.269 212.269-212.269 48.328 0 95.627 16.688 133.182 46.989 3.225 2.6 7.946 2.095 10.547-1.127 2.601-3.224 2.097-7.946-1.127-10.547-40.214-32.446-90.857-50.315-142.602-50.315-125.605 0-227.269 101.646-227.269 227.269 0 94.58 57.255 206.802 137.737 257.334 28.955 18.179 59.078 27.397 89.532 27.397s60.577-9.218 89.532-27.397c80.422-50.494 137.736-162.681 137.736-257.334.001-58.068-21.901-113.342-61.673-155.64z"/></g></g></svg>