<svg id="Capa_1" enable-background="new 0 0 512 512" height="512" viewBox="0 0 512 512" width="512" xmlns="http://www.w3.org/2000/svg"><g><g><path d="m322.583 154.068v73.374c0 43.104-34.943 78.046-78.046 78.046-43.104 0-78.046-34.942-78.046-78.046v-73.374z" fill="#ffd6bd"/><path d="m244.537 287.489c-43.104 0-78.046-34.942-78.046-78.046v18c0 43.104 34.943 78.046 78.046 78.046 43.104 0 78.046-34.942 78.046-78.046v-18c0 43.104-34.943 78.046-78.046 78.046z" fill="#f9c6aa"/><path d="m369.229 504h-249.385v-102.35c0-53.108 43.053-96.161 96.161-96.161h57.062c53.108 0 96.161 43.053 96.161 96.161v102.35z" fill="#f7594e"/><path d="m166.49 227.443v-37.25c-8.965-7.375-23.54-14.32-46.646-14.32 0 0-9.3 61.528 48.519 68.547-1.213-5.468-1.873-11.144-1.873-16.977z" fill="#edbca4"/><path d="m322.583 227.443v-37.25c8.965-7.375 23.54-14.32 46.646-14.32 0 0 9.3 61.528-48.519 68.547 1.213-5.468 1.873-11.144 1.873-16.977z" fill="#edbca4"/><path d="m166.49 226.161c-35.493-5.168-44.703-31.445-46.704-49.854-.692 5.467-6.41 61.438 48.577 68.114-1.213-5.468-1.874-11.144-1.874-16.978v-1.282z" fill="#eaab92"/><path d="m322.583 226.161v1.282c0 5.833-.66 11.51-1.874 16.978 54.988-6.676 49.27-62.647 48.577-68.114-2 18.409-11.21 44.686-46.703 49.854z" fill="#eaab92"/><path d="m273.067 305.489h-57.061c-34.791 0-65.265 18.477-82.148 46.152l47.07-5.249v33.6c0 4.288 5.043 6.587 8.28 3.774l31.588-27.45 19.407 33.753c1.923 3.344 6.747 3.344 8.669 0l19.407-33.753 31.588 27.45c3.237 2.813 8.28.514 8.28-3.774v-33.6l47.07 5.249c-16.885-27.675-47.359-46.152-82.15-46.152z" fill="#36ce94"/><path d="m325.603 154.068h-162.132c-10.848 0-19.642-8.794-19.642-19.642 0-10.848 8.794-19.642 19.642-19.642h162.132c10.848 0 19.642 8.794 19.642 19.642 0 10.848-8.794 19.642-19.642 19.642z" fill="#edf4fa"/><path d="m325.603 154.068h-162.132c-10.848 0-19.642-8.794-19.642-19.642 0-10.848 8.794-19.642 19.642-19.642h162.132c10.848 0 19.642 8.794 19.642 19.642 0 10.848-8.794 19.642-19.642 19.642z" fill="#edf4fa"/><path d="m325.602 136.068h-162.131c-7.601 0-14.181-4.326-17.446-10.642-1.395 2.698-2.196 5.753-2.196 9 0 10.848 8.794 19.642 19.642 19.642h162.132c10.848 0 19.642-8.794 19.642-19.642 0-3.247-.801-6.302-2.196-9-3.266 6.317-9.845 10.642-17.447 10.642z" fill="#d8e5ef"/><path d="m166.49 190.192s29.116 0 42.32-36.124h-42.32z" fill="#e4936b"/><path d="m322.583 190.192s-29.116 0-42.32-36.124h42.32z" fill="#e4936b"/><path d="m119.844 486h249.384v18h-249.384z" fill="#ea4642"/><ellipse cx="372.107" cy="92.832" fill="#edf4fa" rx="20.599" ry="20.599" transform="matrix(.383 -.924 .924 .383 143.942 401.089)"/><path d="m372.107 95.431c-8.145 0-15.164-4.739-18.508-11.599-1.326 2.722-2.092 5.768-2.092 9 0 11.377 9.223 20.599 20.599 20.599s20.6-9.223 20.6-20.599c0-3.232-.765-6.278-2.092-9-3.342 6.86-10.362 11.599-18.507 11.599z" fill="#d8e5ef"/><path d="m258.292 8c-77.947 0-94.822 106.784-94.822 106.784h162.132s-3.125-17.035-12.009-35.197l.04.069 37.917 12.331c.345-8.483 5.805-15.628 13.391-18.448-10.83-19.538-43.075-65.539-106.649-65.539z" fill="#f7594e"/><path d="m163.47 114.784h162.132s-1.392-7.573-4.949-18h-152.953c-3.078 10.733-4.23 18-4.23 18z" fill="#ea4642"/><path d="m169.105 468.607h150.864v35.394h-150.864z" fill="#565e75"/><path d="m169.105 486h150.864v18h-150.864z" fill="#4b5165"/></g><g><path d="m372.338 120.667c15.523 0 28.154-12.63 28.154-28.154s-12.63-28.155-28.154-28.155c-1.183 0-2.347.082-3.493.224-13.847-22.748-47.853-64.582-110.545-64.582-17.246 0-33.068 4.821-47.028 14.331-3.43 2.337-4.316 7.011-1.979 10.441s7.013 4.317 10.441 1.98c11.419-7.778 24.394-11.723 38.566-11.723 53.566 0 83.53 34.905 96.526 55.462-3.769 3.004-6.752 6.951-8.589 11.483l-27.183-8.84c-2.059-3.971-4.385-7.967-7.006-11.847-2.323-3.439-6.993-4.345-10.434-2.021-3.439 2.323-4.343 6.994-2.021 10.434 8.827 13.068 13.982 28.031 16.585 37.293h-22.284c-4.151 0-7.515 3.364-7.515 7.515s3.364 7.515 7.515 7.515h31.846c6.708 0 12.167 5.458 12.167 12.166s-5.458 12.166-12.167 12.166h-162.447c-6.708 0-12.166-5.458-12.166-12.166 0-6.709 5.458-12.166 12.166-12.166h100.544c4.151 0 7.515-3.365 7.515-7.515s-3.364-7.515-7.515-7.515h-91.292c3.223-13.431 11.153-39.874 27.248-60.937 2.521-3.298 1.889-8.014-1.408-10.534-3.298-2.52-8.015-1.888-10.533 1.409-19.813 25.928-28.197 58.031-30.914 70.82-11.939 2.87-20.84 13.631-20.84 26.438 0 13.466 9.84 24.671 22.707 26.818v15.369c-10.988-5.422-24.112-8.174-39.222-8.174-3.716 0-6.875 2.717-7.43 6.391-.196 1.296-4.6 32.01 12.68 54.741 8.738 11.495 21.286 18.779 37.324 21.726 5.822 20.221 18.894 37.387 36.219 48.503-48.939 8.367-86.307 51.085-86.307 102.372v102.55c0 4.15 3.364 7.515 7.515 7.515h249.872c4.151 0 7.515-3.365 7.515-7.515v-102.55c0-51.288-37.368-94.005-86.307-102.372 17.325-11.115 30.397-28.282 36.219-48.503 16.038-2.948 28.586-10.232 37.324-21.726 17.28-22.731 12.876-53.445 12.68-54.741-.556-3.675-3.714-6.391-7.43-6.391-15.11 0-28.234 2.753-39.222 8.174v-15.369c12.866-2.147 22.706-13.352 22.706-26.818 0-12.867-8.985-23.668-21.008-26.477-.958-3.897-2.536-9.599-4.898-16.178l17.557 5.71c2.253 13.278 13.834 23.423 27.746 23.423zm0-41.28c7.237 0 13.124 5.888 13.124 13.125s-5.888 13.125-13.124 13.125-13.125-5.888-13.125-13.125c-.001-7.237 5.888-13.125 13.125-13.125zm-235.487 140.924c-9.25-12.109-10.446-28.019-10.281-36.846 12.979.896 23.779 4.363 32.233 10.328v33.594c0 2.55.134 5.068.353 7.562-9.477-2.735-16.956-7.634-22.305-14.638zm36.982-58.928h23.148c-7.224 12.445-16.645 17.574-23.148 19.686zm176.946 197.489c7.104 12.764 11.16 27.448 11.16 43.063v95.036h-34.327v-74.036c0-4.15-3.364-7.515-7.515-7.515s-7.515 3.365-7.515 7.515v38.573h-67.839c-4.151 0-7.515 3.365-7.515 7.515s3.364 7.515 7.515 7.515h67.839v20.433h-136.13v-20.433h38.233c4.151 0 7.515-3.365 7.515-7.515s-3.364-7.515-7.515-7.515h-38.233v-38.573c0-4.15-3.364-7.515-7.515-7.515s-7.515 3.365-7.515 7.515v74.036h-34.327v-95.036c0-15.615 4.055-30.299 11.16-43.063l35.014-3.904v25.267c0 4.969 2.808 9.336 7.33 11.396 4.521 2.06 9.66 1.316 13.41-1.943l24.757-21.514 14.892 25.903c2.228 3.875 6.387 6.282 10.857 6.283h.001c4.47 0 8.63-2.407 10.858-6.282l14.893-25.904 24.757 21.514c3.75 3.259 8.889 4.003 13.41 1.943 4.521-2.061 7.33-6.428 7.33-11.396v-25.267zm-11.766-16.434-29.93-3.337c-2.125-.241-4.251.442-5.844 1.868s-2.504 3.462-2.504 5.6v28.17l-27.501-23.899c-1.696-1.473-3.96-2.11-6.177-1.738-2.215.373-4.148 1.717-5.267 3.665l-17.273 30.043-17.274-30.043c-1.119-1.948-3.052-3.292-5.267-3.665-2.216-.372-4.481.265-6.177 1.738l-27.501 23.899v-28.17c0-2.138-.911-4.175-2.504-5.6-1.593-1.426-3.72-2.108-5.844-1.868l-29.93 3.337c16.269-18.005 39.79-29.338 65.909-29.338h57.173c26.121 0 49.642 11.333 65.911 29.338zm-23.811-115.051c0 38.975-31.71 70.684-70.685 70.684s-70.684-31.709-70.684-70.684v-30.782c10.346-2.277 28.887-9.88 39.966-35.221h61.437c11.079 25.341 29.62 32.945 39.966 35.221zm0-46.317c-6.484-2.108-15.912-7.23-23.145-19.687h23.145zm47.261 2.395c.165 8.834-1.033 24.74-10.28 36.846-5.349 7.003-12.828 11.903-22.305 14.638.219-2.494.353-5.012.353-7.562v-33.594c8.454-5.965 19.253-9.432 32.232-10.328z"/><path d="m206.625 195.839c-4.151 0-7.515 3.364-7.515 7.515v17.531c0 4.15 3.364 7.515 7.515 7.515s7.515-3.365 7.515-7.515v-17.531c0-4.151-3.364-7.515-7.515-7.515z"/><path d="m282.41 195.839c-4.151 0-7.515 3.364-7.515 7.515v17.531c0 4.15 3.364 7.515 7.515 7.515s7.515-3.365 7.515-7.515v-17.531c0-4.151-3.364-7.515-7.515-7.515z"/><path d="m261.658 247.384c-3.079 0-5.727 1.848-6.888 4.498 0-.001 0 .001 0 0-.235.475-2.517 4.646-10.253 4.646s-10.018-4.17-10.252-4.646c0 .001-.006.004-.006.005-1.161-2.65-3.804-4.504-6.883-4.504-4.15 0-7.515 3.364-7.515 7.515 0 1.233.303 2.394.83 3.422 2.365 5.148 9.763 13.238 23.827 13.238 14.103 0 21.504-8.135 23.847-13.281.513-1.017.809-2.162.809-3.379-.001-4.149-3.365-7.514-7.516-7.514z"/></g></g></svg>