<svg height="512pt" viewBox="0 0 512 512" width="512pt" xmlns="http://www.w3.org/2000/svg"><path d="m502 136v346c0 11.050781-8.949219 20-20 20h-452c-11.050781 0-20-8.949219-20-20v-346zm0 0" fill="#fff"/><path d="m482 50c11.050781 0 20 8.949219 20 20v66h-492v-66c0-11.050781 8.949219-20 20-20zm0 0" fill="#ff5d5d"/><path d="m347.921875 244.078125c11.71875 11.710937 11.71875 30.710937 0 42.421875l-14.140625 14.140625-42.421875-42.421875 14.140625-14.140625c11.710938-11.71875 30.710938-11.71875 42.421875 0zm0 0" fill="#ffcebf"/><path d="m178.621094 371.761719 41.617187 41.617187c-1.277343.78125-2.636719 1.410156-4.066406 1.890625l-59.160156 19.71875 19.71875-59.160156c.480469-1.429687 1.109375-2.789063 1.890625-4.066406zm0 0" fill="#ffcebf"/><path d="m333.78125 300.640625-109.800781 109.800781c-1.128907 1.128906-2.390625 2.117188-3.742188 2.9375l-41.617187-41.617187c.820312-1.351563 1.808594-2.613281 2.9375-3.742188l109.800781-109.800781zm0 0" fill="#ff5d5d"/><path d="m116 166c-5.519531 0-10 4.480469-10 10s4.480469 10 10 10 10-4.480469 10-10-4.480469-10-10-10zm0 0"/><path d="m30 512h452c16.542969 0 30-13.457031 30-30v-412c0-16.542969-13.457031-30-30-30h-16v-10c0-16.542969-13.457031-30-30-30s-30 13.457031-30 30v10h-60v-10c0-16.542969-13.457031-30-30-30s-30 13.457031-30 30v10h-60v-10c0-16.542969-13.457031-30-30-30s-30 13.457031-30 30v10h-60v-10c0-16.542969-13.457031-30-30-30s-30 13.457031-30 30v10h-16c-16.542969 0-30 13.457031-30 30v412c0 16.542969 13.457031 30 30 30zm452-20h-452c-5.515625 0-10-4.484375-10-10v-336h472v336c0 5.515625-4.484375 10-10 10zm-56-462c0-5.515625 4.484375-10 10-10s10 4.484375 10 10v10h-20zm-120 0c0-5.515625 4.484375-10 10-10s10 4.484375 10 10v10h-20zm-120 0c0-5.515625 4.484375-10 10-10s10 4.484375 10 10v10h-20zm-120 0c0-5.515625 4.484375-10 10-10s10 4.484375 10 10v10h-20zm-36 30h16v13c0 16.542969 13.457031 30 30 30 5.523438 0 10-4.476562 10-10s-4.476562-10-10-10c-5.515625 0-10-4.484375-10-10v-13h100v13c0 16.542969 13.457031 30 30 30 5.523438 0 10-4.476562 10-10s-4.476562-10-10-10c-5.515625 0-10-4.484375-10-10v-13h100v13c0 16.542969 13.457031 30 30 30 5.523438 0 10-4.476562 10-10s-4.476562-10-10-10c-5.515625 0-10-4.484375-10-10v-13h100v13c0 16.542969 13.457031 30 30 30 5.523438 0 10-4.476562 10-10s-4.476562-10-10-10c-5.515625 0-10-4.484375-10-10v-13h56c5.515625 0 10 4.484375 10 10v56h-472v-56c0-5.515625 4.484375-10 10-10zm0 0"/><path d="m396 166h-240c-5.523438 0-10 4.476562-10 10s4.476562 10 10 10h240c5.523438 0 10-4.476562 10-10s-4.476562-10-10-10zm0 0"/><path d="m298.429688 237.007812-123.941407 123.941407c-3.214843 3.214843-5.761719 7.296875-7.242187 11.71875l-19.722656 59.160156c-1.199219 3.59375-.261719 7.554687 2.414062 10.230469 2.683594 2.683594 6.648438 3.613281 10.234375 2.417968l59.179687-19.726562c4.523438-1.519531 8.566407-4.105469 11.699219-7.238281 3.953125-3.953125 116.335938-116.335938 123.9375-123.9375 15.632813-15.621094 15.648438-40.933594.007813-56.5625-15.625-15.636719-40.9375-15.644531-56.566406-.003907zm-115.839844 152.863282 19.539062 19.539062-29.308594 9.769532zm38.050781 9.765625-28.277344-28.277344 98.996094-98.996094 28.277344 28.277344zm120.207031-120.207031-7.066406 7.066406-28.277344-28.277344 7.070313-7.070312c7.742187-7.75 20.394531-7.886719 28.277343.003906 7.800782 7.796875 7.835938 20.445312-.003906 28.277344zm0 0"/></svg>