<svg id="Capa_1" enable-background="new 0 0 512 512" height="512" viewBox="0 0 512 512" width="512" xmlns="http://www.w3.org/2000/svg"><g><path d="m469.475 199.955h-85.171c-4.379 0-7.928-3.55-7.928-7.928 0-66.481-53.894-120.375-120.375-120.375-66.481 0-120.375 53.894-120.375 120.375 0 4.379-3.55 7.928-7.928 7.928h-85.172c-19.344 0-35.026 15.682-35.026 35.026v170.342c0 19.344 15.682 35.026 35.026 35.026h426.949c19.344 0 35.026-15.681 35.026-35.026v-170.343c-.001-19.344-15.682-35.025-35.026-35.025z" fill="#365e7d"/><g fill="#2b4d66"><path d="m469.475 199.955h-28.837c19.344 0 35.025 15.681 35.025 35.025v170.343c0 19.344-15.681 35.026-35.026 35.026h28.837c19.344 0 35.026-15.682 35.026-35.026v-170.343c0-19.344-15.681-35.025-35.025-35.025z"/><path d="m347.538 192.026c0 4.379 3.55 7.928 7.928 7.928h28.837c-4.379 0-7.928-3.55-7.928-7.928 0-66.481-53.894-120.375-120.375-120.375-4.88 0-9.69.298-14.418.863 59.682 7.126 105.956 57.911 105.956 119.512z"/></g><path d="m57.5 377.356v-114.41c0-7.175 5.817-12.992 12.992-12.992h371.016c7.175 0 12.992 5.817 12.992 12.992v114.41c0 7.175-5.817 12.992-12.992 12.992h-371.016c-7.175 0-12.992-5.816-12.992-12.992z" fill="#f4fbff"/><path d="m441.508 249.955h-28.837c7.175 0 12.992 5.817 12.992 12.992v114.41c0 7.175-5.817 12.992-12.992 12.992h28.837c7.175 0 12.992-5.817 12.992-12.992v-114.41c0-7.176-5.817-12.992-12.992-12.992z" fill="#daf1f4"/><path d="m279.419 169.893c-14.049-1.598-25.199-13.143-26.321-27.238-.51-6.41 1.007-12.433 3.975-17.505.485-.829-.089-1.886-1.05-1.887-.007 0-.015 0-.022 0-22.078 0-39.794 18.679-38.205 41.097 1.33 18.767 16.455 33.975 35.215 35.398 19.474 1.478 36.154-11.619 40.298-29.519.22-.949-.672-1.77-1.603-1.481-3.824 1.183-7.973 1.626-12.287 1.135z" fill="#b1e4f9" stroke="#b1e4f9" stroke-miterlimit="10"/><path d="m239.04 144.542c1.642 20.62 17.952 37.508 38.505 39.846 3.112.354 6.165.373 9.131.097 3.121-4.174 5.418-9.001 6.632-14.246.22-.949-.672-1.77-1.602-1.481-3.824 1.184-7.973 1.626-12.287 1.136-14.049-1.598-25.199-13.143-26.321-27.238-.51-6.409 1.007-12.433 3.975-17.505.485-.829-.089-1.886-1.05-1.887-.008 0-.015 0-.022 0-5.138 0-10.034 1.022-14.511 2.857-2.056 5.684-2.968 11.916-2.45 18.421z" fill="#90d8f9"/><g><path d="m469.475 192.455h-85.171c-.236 0-.429-.192-.429-.429 0-70.51-57.364-127.874-127.875-127.874-70.51 0-127.874 57.364-127.874 127.875 0 .236-.192.428-.429.428h-85.171c-23.449 0-42.526 19.077-42.526 42.525v105.121c0 4.143 3.357 7.5 7.5 7.5s7.5-3.357 7.5-7.5v-105.121c0-15.178 12.349-27.525 27.526-27.525h85.171c8.508 0 15.429-6.921 15.429-15.429 0-62.239 50.636-112.874 112.875-112.874s112.874 50.636 112.874 112.875c0 8.507 6.921 15.428 15.429 15.428h85.171c15.178 0 27.525 12.348 27.525 27.525v170.343c0 15.178-12.348 27.525-27.525 27.525h-426.949c-15.177 0-27.526-12.348-27.526-27.525v-35.234c0-4.143-3.357-7.5-7.5-7.5s-7.5 3.357-7.5 7.5v35.234c0 23.448 19.077 42.525 42.526 42.525h426.948c23.448 0 42.525-19.077 42.525-42.525v-170.343c.001-23.448-19.076-42.525-42.524-42.525z"/><path d="m50 262.947v114.409c0 11.3 9.192 20.492 20.492 20.492h298.818c4.143 0 7.5-3.357 7.5-7.5s-3.357-7.5-7.5-7.5h-298.818c-3.028 0-5.492-2.464-5.492-5.492v-114.409c0-3.028 2.464-5.492 5.492-5.492h371.016c3.028 0 5.492 2.464 5.492 5.492v114.409c0 3.028-2.464 5.492-5.492 5.492h-42.211c-4.143 0-7.5 3.357-7.5 7.5s3.357 7.5 7.5 7.5h42.211c11.3 0 20.492-9.192 20.492-20.492v-114.409c0-11.3-9.192-20.492-20.492-20.492h-371.016c-11.3 0-20.492 9.192-20.492 20.492z"/><path d="m316.664 277.722c-4.268-.236-8.073 2.527-9.227 6.521l-13.687 48.012-14.188-48.089c-1.155-3.934-4.996-6.729-9.3-6.434-4.111.276-7.526 3.296-8.321 7.428l-12.284 68.057c-.735 4.076 1.973 7.977 6.049 8.713 4.068.733 7.978-1.972 8.713-6.049l7.843-43.452 12.896 43.712c.026.089.054.178.084.266 1.244 3.706 4.698 6.188 8.604 6.188h.047c3.926-.021 7.378-2.543 8.59-6.276.027-.086.054-.173.079-.26l12.451-43.68 8.329 43.578c.777 4.069 4.716 6.744 8.774 5.958 4.068-.777 6.736-4.706 5.958-8.774l-13.028-68.169c-.821-4.036-4.269-7.017-8.382-7.25z"/><path d="m181.29 277.708c-4.109 0-7.5 3.332-7.5 7.5v69.888c0 4.143 3.357 7.5 7.5 7.5s7.5-3.357 7.5-7.5v-22.898c4.212-.022 9.2-.045 11.96-.045 15.224 0 27.608-12.212 27.608-27.222 0-15.011-12.385-27.223-27.608-27.223zm32.068 27.222c0 6.625-5.774 12.222-12.608 12.222-2.74 0-7.667.022-11.866.045-.062-11.942-.029-9.275-.071-24.489h11.938c6.833 0 12.607 5.597 12.607 12.222z"/><path d="m263.586 120.147c-1.549-2.701-4.443-4.382-7.585-4.385-12.666 0-24.884 5.317-33.521 14.588-8.758 9.401-13.079 21.667-12.167 34.541.151 2.118.456 4.25.906 6.338.875 4.05 4.867 6.624 8.913 5.749 4.049-.873 6.623-4.863 5.749-8.913-.302-1.397-.505-2.823-.605-4.236-.615-8.674 2.29-16.932 8.179-23.254 3.614-3.879 8.021-6.689 12.887-8.284-.77 3.561-1.017 7.244-.721 10.959 1.413 17.746 15.271 32.085 32.951 34.096 1.262.144 2.521.224 3.774.242-5.865 9.719-16.801 15.603-28.769 14.691-4.677-.354-9.115-1.76-13.19-4.177-3.563-2.113-8.164-.938-10.276 2.626-2.112 3.562-.938 8.163 2.626 10.276 5.992 3.553 12.806 5.708 19.706 6.231 1.205.092 2.403.137 3.592.137 21.286 0 39.715-14.431 44.577-35.436.709-3.046-.272-6.261-2.562-8.391-2.291-2.132-5.574-2.881-8.562-1.954-2.973.92-6.075 1.207-9.222.849-10.396-1.182-18.861-9.944-19.692-20.382-.369-4.631.658-9.168 2.975-13.126 1.58-2.703 1.594-6.069.037-8.785z"/></g></g></svg>