<svg id="Capa_1" enable-background="new 0 0 512 512" height="512" viewBox="0 0 512 512" width="512" xmlns="http://www.w3.org/2000/svg"><g><g><path d="m320.569 500.633c7.113 5.445 17.272 4.147 22.806-2.896 14.474-18.421 39.659-55.72 47.021-99.997 10.981-66.048-18.622-172.105-134.396-172.105s-145.377 106.057-134.395 172.105c7.362 44.277 32.547 81.576 47.021 99.997 5.534 7.043 15.693 8.341 22.806 2.896 6.794-5.201 8.425-14.752 3.741-21.911-14.843-22.683-42.672-73.57-35.212-127.01 8.19-58.671 59.467-82.376 96.04-82.376s87.85 23.705 96.04 82.376c7.46 53.44-20.369 104.327-35.212 127.01-4.685 7.159-3.054 16.71 3.74 21.911z" fill="#f7594e"/><g><path d="m352.04 351.712c.433 3.101.735 6.191.94 9.27.564-8.928.346-18.058-.94-27.27-8.19-58.671-59.466-82.376-96.04-82.376s-87.85 23.705-96.04 82.376c-1.286 9.211-1.504 18.341-.94 27.27.205-3.078.507-6.169.94-9.27 8.19-58.671 59.466-82.376 96.04-82.376s87.85 23.705 96.04 82.376z" fill="#ea4642"/></g><path d="m476.985 8.509c-47.237-6.897-29.544 58.226-34.851 78.386-4.101 15.579-19.107 27.587-27.068 7.958s-11.676-49.869-31.845-48.808c-20.168 1.061-32.376 32.362-18.576 57.297 13.799 24.935 31.314 37.667 26.538 58.358-4.777 20.69-16.984 24.935-20.699 18.038s-14.33-46.686-34.499-45.625c-17.256.908-27.599 29.179-16.453 45.625 9.973 14.715 37.357 37.926 11.077 65.45 8.736 5.461 16.412 11.883 23.125 19.008 21.272-11.102 62.361-36.986 99.546-86.05 51.912-68.498 70.941-162.74 23.705-169.637z" fill="#e4936b"/><path d="m181.392 245.187c-26.28-27.524 1.104-50.735 11.077-65.45 11.146-16.446.803-44.717-16.453-45.625-20.168-1.061-30.783 38.728-34.499 45.625-3.715 6.897-15.922 2.653-20.699-18.038s12.738-33.423 26.537-58.358 1.592-56.236-18.576-57.297-23.884 29.179-31.845 48.808-22.967 7.621-27.068-7.958c-5.307-20.159 12.386-85.282-34.85-78.385s-28.208 101.139 23.706 169.636c37.185 49.064 78.274 74.948 99.546 86.05 6.712-7.125 14.389-13.547 23.124-19.008z" fill="#e4936b"/><g fill="#db835d"><path d="m148.069 258.539c3.749 2.195 7.18 4.08 10.199 5.656 6.712-7.125 14.389-13.547 23.125-19.008-3.967-4.154-6.704-8.21-8.469-12.154-9.744 7.368-17.986 16.013-24.855 25.506z"/><path d="m339.077 233.033c-1.766 3.944-4.503 7.999-8.469 12.154 8.736 5.461 16.412 11.883 23.125 19.008 3.019-1.576 6.449-3.461 10.199-5.656-6.87-9.493-15.112-18.138-24.855-25.506z"/></g></g><path d="m507.468 23.729c-5.39-13.162-15.399-21.166-28.945-23.144-12.219-1.784-22.051.517-29.22 6.841-14.153 12.485-13.666 36.97-13.275 56.645.167 8.424.326 16.38-.781 20.582-2.085 7.922-6.987 12.485-8.919 12.609-.007 0-.013.001-.02.001-.548 0-2.257-1.368-3.951-5.546-1.678-4.138-3.173-8.832-4.757-13.802-5.668-17.791-12.687-39.826-32.985-39.826-.501 0-1.011.014-1.526.041-9.727.512-18.369 6.008-24.337 15.476-8.501 13.487-9.694 31.716-3.114 47.572 1.59 3.833 5.99 5.651 9.821 4.06 3.834-1.591 5.651-5.989 4.06-9.822-4.668-11.248-3.903-24.514 1.947-33.796 1.906-3.024 6.052-8.146 12.412-8.481 9.21-.516 13.655 11.304 19.4 29.338 1.6 5.022 3.255 10.215 5.15 14.889 5.538 13.657 14.2 15.193 18.859 14.896 7.953-.509 18.384-8.169 22.494-23.781 1.64-6.231 1.47-14.794 1.273-24.708-.33-16.573-.74-37.198 8.19-45.075 3.755-3.312 9.353-4.371 17.104-3.24 8.223 1.201 13.851 5.769 17.207 13.966 5.657 13.815 4.246 36.843-3.871 63.181-8.525 27.659-23.438 56.375-41.993 80.858-33.719 44.493-70.662 69.463-92.368 81.482-4.256-4.112-8.773-7.893-13.539-11.335 7.229-10.276 9.323-21.223 6.207-32.642-3.07-11.253-10.621-20.785-16.688-28.445-2.057-2.596-3.999-5.048-5.417-7.141-4.307-6.356-4.453-16.554-.355-24.8 2.755-5.541 6.872-8.979 11.014-9.197 11.038-.595 20.71 24.646 24.36 34.141 1.324 3.445 2.281 5.934 3.197 7.635 2.697 5.005 7.865 7.643 13.496 6.89 11.405-1.532 18.421-14.868 21.184-26.838 4.069-17.624-5.015-30.537-13.798-43.024-2.388-3.394-7.073-4.212-10.471-1.823-3.395 2.388-4.211 7.076-1.823 10.471 8.684 12.345 13.882 20.447 11.448 30.995-2.154 9.329-5.599 13.365-7.46 14.742-.493-1.191-1.125-2.833-1.743-4.441-6.033-15.696-17.304-44.904-39.178-43.759-9.774.514-18.406 6.899-23.684 17.516-6.602 13.281-6.064 28.951 1.371 39.922 1.732 2.556 3.844 5.221 6.079 8.042 12.539 15.83 20.671 28.547 9.547 43.699-20.843-11.515-45.5-17.48-73.062-17.48s-52.219 5.965-73.062 17.48c-11.124-15.151-2.992-27.868 9.547-43.699 2.235-2.822 4.347-5.486 6.079-8.042 7.435-10.971 7.973-26.641 1.371-39.922-5.278-10.618-13.91-17.002-23.684-17.516-.422-.022-.839-.033-1.254-.033-21.09 0-32.007 28.399-37.924 43.792-.617 1.607-1.25 3.25-1.743 4.441-1.861-1.376-5.307-5.412-7.46-14.741-2.45-10.617 2.571-18.399 12.411-32.365 4.219-5.988 9.002-12.775 13.433-20.782 8.815-15.931 9.111-35.964.753-51.035-5.874-10.59-15.186-16.976-25.546-17.521-.519-.027-1.025-.041-1.526-.041-20.297 0-27.318 22.037-32.986 39.826-1.583 4.97-3.078 9.664-4.757 13.802-1.695 4.178-3.403 5.546-3.951 5.546-.007 0-.013-.001-.02-.001-1.933-.123-6.834-4.686-8.919-12.608-1.107-4.202-.948-12.159-.781-20.582.391-19.675.879-44.16-13.275-56.645-7.167-6.323-16.991-8.624-29.22-6.841-12.882 1.88-22.623 9.264-28.166 21.351-13.853 30.208-.017 88.331 33.649 141.344 2.226 3.504 6.868 4.542 10.372 2.315 3.504-2.225 4.54-6.869 2.315-10.373-30.098-47.399-44.146-102.006-32.674-127.02 3.41-7.435 8.865-11.604 16.678-12.745 7.751-1.134 13.35-.073 17.105 3.239 8.93 7.878 8.52 28.503 8.19 45.075-.197 9.914-.367 18.477 1.273 24.708 4.111 15.613 14.542 23.272 22.494 23.781 4.673.305 13.321-1.24 18.859-14.896 1.895-4.674 3.55-9.866 5.15-14.889 5.747-18.036 10.18-29.817 19.401-29.338 6.951.366 11.249 6.298 13.193 9.802 4.484 8.085 6.976 22.488-.76 36.467-4.036 7.294-8.374 13.45-12.568 19.403-9.692 13.755-18.846 26.746-14.77 44.404 2.763 11.969 9.779 25.305 21.184 26.837 5.63.756 10.799-1.884 13.495-6.889.917-1.702 1.874-4.191 3.198-7.636 3.609-9.389 13.127-34.151 23.986-34.151.123 0 .249.003.374.01 4.142.218 8.26 3.656 11.014 9.197 4.098 8.246 3.952 18.444-.355 24.8-1.418 2.093-3.36 4.545-5.417 7.141-6.067 7.659-13.618 17.192-16.688 28.445-3.116 11.419-1.022 22.366 6.207 32.642-4.766 3.442-9.283 7.223-13.539 11.335-20.546-11.381-55.442-34.776-88.042-75.898-2.578-3.253-7.306-3.8-10.557-1.221-3.253 2.579-3.799 7.305-1.22 10.558 32.562 41.075 67.449 65.364 89.407 77.946-33.301 41.039-38.325 97.008-32.349 132.948 7.657 46.057 33.748 84.685 48.62 103.611 8.045 10.241 22.998 12.135 33.329 4.226 9.874-7.56 12.275-21.633 5.467-32.038-38.068-58.177-36.549-104.779-34.129-122.115 7.791-55.81 57.368-76.068 88.79-76.068s80.999 20.258 88.79 76.068c1.755 12.58 1.538 25.944-.647 39.723-.651 4.099 2.146 7.949 6.245 8.599 4.102.655 7.949-2.146 8.599-6.245 2.419-15.247 2.65-30.103.688-44.156-3.981-28.519-17.986-52.164-40.503-68.378-18.217-13.118-41.243-20.642-63.172-20.642-21.93 0-44.955 7.523-63.172 20.642-22.517 16.214-36.522 39.859-40.503 68.378-7.681 55.028 19.531 106.586 36.437 132.422 2.523 3.856 1.632 9.072-2.028 11.873-3.836 2.936-9.386 2.228-12.374-1.577-13.984-17.796-38.504-54.035-45.612-96.79-5.555-33.413-.828-85.664 30.778-122.96 22.913-27.038 55.372-40.747 96.474-40.747s73.56 13.71 96.473 40.747c31.606 37.296 36.333 89.547 30.778 122.96-7.108 42.754-31.628 78.993-45.612 96.79-2.99 3.804-8.54 4.513-12.373 1.578-3.661-2.802-4.551-8.018-2.028-11.873 8.398-12.833 20.123-33.309 28.291-57.98 1.304-3.94-.832-8.192-4.772-9.497-3.944-1.303-8.192.832-9.497 4.772-7.658 23.13-18.691 42.39-26.598 54.474-6.809 10.405-4.407 24.477 5.468 32.038 4.301 3.292 9.402 4.886 14.472 4.886 7.11 0 14.16-3.135 18.856-9.112 14.872-18.926 40.963-57.554 48.62-103.611 5.976-35.94.952-91.909-32.35-132.948 23.185-13.277 60.173-39.236 93.935-83.786 19.589-25.847 35.349-56.215 44.377-85.51 9.259-30.041 10.473-56.074 3.418-73.303z"/></g></svg>