<svg id="Capa_1" enable-background="new 0 0 512 512" height="512" viewBox="0 0 512 512" width="512" xmlns="http://www.w3.org/2000/svg"><g><path d="m376.282 353.446h-240.536c-6.181 0-11.193-5.011-11.193-11.193v-187.691l131.461-119.202 131.46 119.203v187.691c0 6.181-5.011 11.192-11.192 11.192z" fill="#664545"/><path d="m256.014 35.36-131.46 119.203v44.934c43.035-17.773 85.381-58.63 116.181-93.867 8.077-9.241 22.452-9.162 30.528.08 24.037 27.508 55.115 58.425 88.102 79.11 5.959 3.736 9.629 10.223 9.629 17.256v140.178c0 6.182-5.011 11.192-11.193 11.192h18.481c6.182 0 11.193-5.011 11.193-11.193v-142.732-44.958z" fill="#523838"/><g><path d="m403.948 184.268c-2.188 0-4.412-.396-6.576-1.231-55.001-21.23-110.745-86.342-138.522-122.429-1.452-1.887-4.293-1.888-5.746-.002-27.805 36.081-83.592 101.196-138.489 122.426-9.382 3.631-19.924-1.007-23.599-10.359-3.694-9.402 1.44-20.207 10.844-23.896 26.301-10.317 58.424-36.255 92.935-75.047 27.042-30.396 45.901-57.968 46.088-58.243 3.403-4.996 9.059-7.988 15.103-7.988h.013c6.05.004 11.706 3 15.106 8.005.729 1.073 73.813 107.723 138.946 133.248 8.961 3.512 14.172 13.157 11.436 22.385-2.399 8.094-9.733 13.131-17.539 13.131z" fill="#8b5e5e"/></g><g><path d="m410.052 148.753c-65.133-25.526-138.217-132.176-138.946-133.249-3.4-5.005-9.056-8-15.106-8.004-.004 0-.009 0-.013 0-4.583 0-8.941 1.723-12.264 4.733 2.929 1.374 5.488 3.516 7.36 6.271.729 1.073 73.813 107.723 138.946 133.249 8.961 3.512 14.172 13.158 11.436 22.385-1.007 3.396-2.889 6.244-5.304 8.417.403.16.807.326 1.211.482 2.164.835 4.388 1.231 6.576 1.231 7.806 0 15.141-5.037 17.54-13.13 2.736-9.228-2.475-18.873-11.436-22.385z" fill="#785252"/></g><path d="m277.037 159.774h-42.047v-26.279c0-11.611 9.412-21.023 21.023-21.023 11.611 0 21.023 9.412 21.023 21.023v26.279z" fill="#eab14d"/><path d="m256.014 112.472c-3.221 0-6.26.746-8.988 2.04 7.108 3.372 12.035 10.593 12.035 18.983v26.279h17.977v-26.279c-.001-11.611-9.413-21.023-21.024-21.023z" fill="#e49542"/><circle cx="256.014" cy="255.797" fill="#f4fbff" r="66.783"/><path d="m256.014 189.013c-3.577 0-7.086.289-10.512.831 31.888 5.043 56.272 32.647 56.272 65.953s-24.384 60.91-56.272 65.953c3.425.542 6.934.83 10.512.83 36.884 0 66.783-29.9 66.783-66.783.001-36.884-29.899-66.784-66.783-66.784z" fill="#daf1f4"/><path d="m275.763 388.673h-39.497c-4.439 0-8.285-3.08-9.254-7.412l-6.224-27.814h70.453l-6.224 27.814c-.969 4.332-4.815 7.412-9.254 7.412z" fill="#365e7d"/><path d="m274.026 353.446-6.224 27.814c-.969 4.332-4.815 7.412-9.254 7.412h17.215c4.44 0 8.285-3.08 9.254-7.412l6.224-27.814z" fill="#2b4d66"/><circle cx="256.014" cy="474.19" fill="#eab14d" r="30.309"/><path d="m256.014 443.881c-3.696 0-7.237.664-10.512 1.875 11.558 4.274 19.798 15.391 19.798 28.435s-8.24 24.16-19.798 28.435c3.275 1.211 6.816 1.875 10.512 1.875 16.74 0 30.309-13.57 30.309-30.31.001-16.74-13.569-30.31-30.309-30.31z" fill="#e49542"/><g><path d="m277.037 167.274c4.143 0 7.5-3.357 7.5-7.5v-26.279c0-15.728-12.796-28.523-28.523-28.523s-28.522 12.796-28.522 28.523v26.279c0 4.143 3.357 7.5 7.5 7.5zm-34.546-33.779c0-7.457 6.066-13.523 13.523-13.523 7.456 0 13.522 6.066 13.522 13.523v18.779h-27.046v-18.779z"/><path d="m263.515 211.649c0-4.143-3.357-7.5-7.5-7.5s-7.5 3.357-7.5 7.5v3.916c0 4.143 3.357 7.5 7.5 7.5s7.5-3.357 7.5-7.5z"/><path d="m296.245 248.297c-4.143 0-7.5 3.357-7.5 7.5s3.357 7.5 7.5 7.5h3.916c4.143 0 7.5-3.357 7.5-7.5s-3.357-7.5-7.5-7.5z"/><path d="m256.015 288.527c-4.143 0-7.5 3.357-7.5 7.5v3.916c0 4.143 3.357 7.5 7.5 7.5s7.5-3.357 7.5-7.5v-3.916c0-4.142-3.358-7.5-7.5-7.5z"/><path d="m211.867 248.297c-4.143 0-7.5 3.357-7.5 7.5s3.357 7.5 7.5 7.5h3.916c4.143 0 7.5-3.357 7.5-7.5s-3.357-7.5-7.5-7.5z"/><path d="m263.515 236.914c0-4.143-3.357-7.5-7.5-7.5s-7.5 3.357-7.5 7.5v11.383h-3.054c-4.143 0-7.5 3.357-7.5 7.5s3.357 7.5 7.5 7.5h10.554c4.143 0 7.5-3.357 7.5-7.5z"/><path d="m181.73 255.797c0 40.96 33.324 74.283 74.284 74.283s74.283-33.323 74.283-74.283c0-8.314-1.383-16.514-4.111-24.37-1.359-3.913-5.63-5.99-9.545-4.625-3.913 1.358-5.983 5.632-4.625 9.545 2.178 6.271 3.281 12.814 3.281 19.45 0 32.688-26.595 59.283-59.283 59.283-32.689 0-59.284-26.595-59.284-59.283 0-32.689 26.595-59.284 59.284-59.284 15.779 0 30.632 6.134 41.82 17.271 2.935 2.921 7.684 2.912 10.606-.024s2.911-7.685-.024-10.606c-14.02-13.954-32.629-21.64-52.402-21.64-40.959-.001-74.284 33.323-74.284 74.283z"/><path d="m412.788 141.771c-62.937-24.667-134.762-129.428-135.478-130.481-4.798-7.064-12.763-11.284-21.324-11.29-8.533 0-16.496 4.211-21.296 11.258-.05.073-5.08 7.422-13.555 18.573-2.506 3.298-1.864 8.003 1.434 10.51 3.299 2.506 8.004 1.864 10.51-1.434 8.724-11.48 13.947-19.115 14.003-19.197 2.009-2.949 5.338-4.71 8.913-4.71 3.571.002 6.901 1.766 8.907 4.72.185.271 18.758 27.49 45.905 58.206 35.88 40.596 68.35 66.774 96.508 77.811 5.483 2.148 8.551 7.978 6.982 13.27-1.831 6.174-8.402 9.283-14.225 7.033-22.8-8.8-70.691-36.093-135.28-120.006-2.123-2.758-5.335-4.341-8.814-4.342h-.003c-3.478 0-6.689 1.581-8.812 4.336-64.671 83.918-112.499 111.21-135.255 120.011-5.511 2.131-11.751-.607-13.912-6.106-2.179-5.549 1.068-12.002 6.604-14.172 27.394-10.746 60.521-37.388 95.798-77.044 4.546-5.107 9.193-10.517 13.815-16.075 2.647-3.186 2.212-7.914-.973-10.562-3.184-2.646-7.913-2.213-10.562.973-4.515 5.431-9.052 10.711-13.486 15.694-33.718 37.901-64.863 63.162-90.07 73.051-13.166 5.164-20.338 20.248-15.086 33.621 5.137 13.07 19.906 19.616 33.019 14.706v152.131c0 10.307 8.386 18.692 18.692 18.692h14.208c4.143 0 7.5-3.357 7.5-7.5s-3.357-7.5-7.5-7.5h-14.208c-2.036 0-3.692-1.656-3.692-3.692v-158.89c49.392-25.408 97.038-79.847 123.92-114.228 26.864 34.397 74.509 88.87 124.001 114.265v158.85c0 2.036-1.656 3.692-3.692 3.692h-196.344c-4.143 0-7.5 3.357-7.5 7.5s3.357 7.5 7.5 7.5h34.84l4.912 21.951c1.748 7.816 8.563 13.275 16.573 13.275h12.249v40.958c-17.268 3.489-30.31 18.778-30.31 37.06 0 20.849 16.961 37.81 37.81 37.81 20.848 0 37.809-16.961 37.809-37.81 0-18.281-13.042-33.57-30.309-37.06v-40.958h12.248c8.01 0 14.825-5.459 16.573-13.274l4.912-21.952h79.034c10.307 0 18.692-8.386 18.692-18.692v-152.118c13.89 5.171 29.383-2.284 33.704-16.865 3.765-12.697-3.214-26.533-15.889-31.499zm-133.965 332.419c0 12.577-10.231 22.81-22.809 22.81s-22.81-10.232-22.81-22.81 10.232-22.81 22.81-22.81 22.809 10.233 22.809 22.81zm-1.126-94.566c-.204.912-.999 1.549-1.935 1.549h-39.497c-.936 0-1.73-.637-1.935-1.55l-4.18-18.677h51.726z"/></g></g></svg>