<svg id="Capa_1" enable-background="new 0 0 512.286 512.286" height="512" viewBox="0 0 512.286 512.286" width="512" xmlns="http://www.w3.org/2000/svg"><g><g fill="#eab14d"><path d="m495.295 381.555h-28.515v-50.712h28.515c5.242 0 9.491 4.249 9.491 9.491v31.73c0 5.242-4.249 9.491-9.491 9.491z"/><path d="m159.957 381.555h28.515v-50.712h-28.515c-5.242 0-9.491 4.249-9.491 9.491v31.73c0 5.242 4.249 9.491 9.491 9.491z"/></g><path d="m14.939 402.941h-7.439v-395.297h7.439c15.035 0 27.223 12.188 27.223 27.223v340.85c0 15.035-12.188 27.224-27.223 27.224z" fill="#664545"/><path d="m14.939 7.644h-7.439v.914c11.639 3.092 20.218 13.697 20.218 26.309v340.85c0 12.613-8.579 23.218-20.218 26.309v.914h7.439c15.035 0 27.223-12.188 27.223-27.223v-340.85c0-15.035-12.188-27.223-27.223-27.223z" fill="#523838"/><circle cx="327.626" cy="356.199" fill="#365e7d" r="148.443"/><path d="m327.626 207.756c-3.178 0-6.33.112-9.458.309 77.574 4.879 138.984 69.33 138.984 148.134s-61.41 143.255-138.984 148.134c3.128.197 6.28.309 9.458.309 81.983 0 148.443-66.46 148.443-148.443s-66.46-148.443-148.443-148.443z" fill="#2b4d66"/><circle cx="327.626" cy="356.199" fill="#f4fbff" r="115.72"/><path d="m327.626 240.479c-3.355 0-6.675.151-9.958.431 59.247 5.051 105.761 54.734 105.761 115.289s-46.514 110.238-105.761 115.289c3.283.28 6.603.431 9.958.431 63.91 0 115.72-51.81 115.72-115.72s-51.81-115.72-115.72-115.72z" fill="#daf1f4"/><path d="m324.931 9.684-21.703 76.829c-.505 1.787.838 3.562 2.695 3.562h43.407c1.857 0 3.2-1.775 2.695-3.562l-21.703-76.829c-.769-2.72-4.623-2.72-5.391 0z" fill="#eab14d"/><g><path d="m327.626 283.185c4.143 0 7.5-3.357 7.5-7.5v-6.426c0-4.143-3.357-7.5-7.5-7.5s-7.5 3.357-7.5 7.5v6.426c0 4.143 3.357 7.5 7.5 7.5z"/><path d="m384.558 306.767c1.919 0 3.839-.732 5.304-2.196l4.544-4.544c2.929-2.93 2.929-7.678 0-10.607-2.93-2.928-7.678-2.928-10.607 0l-4.544 4.544c-2.929 2.93-2.929 7.678 0 10.607 1.464 1.464 3.384 2.196 5.303 2.196z"/><path d="m414.565 363.699c4.143 0 7.5-3.357 7.5-7.5s-3.357-7.5-7.5-7.5h-6.426c-4.143 0-7.5 3.357-7.5 7.5s3.357 7.5 7.5 7.5z"/><path d="m379.254 418.434 4.544 4.544c1.465 1.464 3.385 2.196 5.304 2.196s3.839-.732 5.304-2.196c2.929-2.93 2.929-7.678 0-10.607l-4.544-4.544c-2.93-2.928-7.678-2.928-10.607 0-2.93 2.929-2.93 7.677-.001 10.607z"/><path d="m320.126 443.138c0 4.143 3.357 7.5 7.5 7.5s7.5-3.357 7.5-7.5v-6.426c0-4.143-3.357-7.5-7.5-7.5s-7.5 3.357-7.5 7.5z"/><path d="m265.391 407.827-4.544 4.544c-2.929 2.93-2.929 7.678 0 10.607 1.465 1.464 3.385 2.196 5.304 2.196s3.839-.732 5.304-2.196l4.544-4.544c2.929-2.93 2.929-7.678 0-10.607-2.931-2.928-7.679-2.928-10.608 0z"/><path d="m240.687 348.699c-4.143 0-7.5 3.357-7.5 7.5s3.357 7.5 7.5 7.5h6.426c4.143 0 7.5-3.357 7.5-7.5s-3.357-7.5-7.5-7.5z"/><path d="m275.998 293.963-4.544-4.544c-2.93-2.928-7.678-2.928-10.607 0-2.929 2.93-2.929 7.678 0 10.607l4.544 4.544c1.465 1.464 3.385 2.196 5.304 2.196s3.839-.732 5.304-2.196c2.928-2.929 2.928-7.677-.001-10.607z"/><path d="m320.126 356.199c0 4.143 3.357 7.5 7.5 7.5h27.506c4.143 0 7.5-3.357 7.5-7.5s-3.357-7.5-7.5-7.5h-20.006v-38.767c0-4.143-3.357-7.5-7.5-7.5s-7.5 3.357-7.5 7.5z"/><path d="m342.609 478.454c.321 0 .646-.021.972-.062 61.151-7.911 107.265-60.442 107.265-122.192 0-67.943-55.276-123.22-123.22-123.22s-123.22 55.276-123.22 123.22c0 61.75 46.113 114.281 107.265 122.192 4.099.529 7.868-2.368 8.4-6.477.531-4.107-2.368-7.868-6.477-8.4-53.696-6.946-94.188-53.082-94.188-107.315 0-59.673 48.547-108.22 108.22-108.22s108.22 48.547 108.22 108.22c0 54.233-40.492 100.369-94.188 107.315-4.108.532-7.008 4.293-6.477 8.4.489 3.782 3.715 6.539 7.428 6.539z"/><path d="m495.295 323.343h-15.244c-5.198-24.064-16.045-46.762-31.784-65.957-2.628-3.202-7.354-3.668-10.556-1.044-3.203 2.627-3.67 7.353-1.044 10.556 20.572 25.088 31.902 56.803 31.902 89.301 0 77.717-63.227 140.943-140.943 140.943s-140.942-63.227-140.942-140.943 63.227-140.942 140.942-140.942c32.289 0 63.847 11.203 88.859 31.545 3.216 2.615 7.939 2.127 10.551-1.086 2.614-3.214 2.127-7.938-1.086-10.551-25.739-20.932-57.737-33.113-90.824-34.719v-16.291c2.594 1.041 5.385 1.595 8.264 1.595 5.926 0 11.498-2.309 15.689-6.499 2.929-2.93 2.929-7.678 0-10.607-2.93-2.928-7.678-2.928-10.607 0-1.357 1.358-3.162 2.106-5.082 2.106s-3.725-.748-5.082-2.106c-4.234-4.233-4.234-11.124 0-15.357 2.917-2.918 6.797-4.525 10.924-4.525s8.007 1.607 10.924 4.525c2.93 2.928 7.678 2.928 10.607 0 2.929-2.93 2.929-7.678 0-10.607-9.63-9.629-24.156-11.446-35.637-5.455v-11.937h73.643c4.143 0 7.5-3.357 7.5-7.5s-3.357-7.5-7.5-7.5h-73.643v-12.713h14.203c3.256 0 6.25-1.489 8.215-4.085 1.965-2.597 2.584-5.883 1.699-9.017l-21.704-76.828c-1.267-4.485-5.249-7.5-9.911-7.501-.001 0-.001 0-.002 0-4.66 0-8.645 3.014-9.912 7.499-.001 0-.001.001-.001.001l-21.703 76.83c-.885 3.134-.266 6.42 1.699 9.016 1.964 2.596 4.958 4.085 8.214 4.085h14.203v12.711h-157.519c-32.918-4.493-59.155-13.365-77.974-26.379-18.38-12.711-29.826-29.109-34.998-50.098-.563-18.658-15.904-33.665-34.696-33.665h-7.439c-4.143 0-7.5 3.357-7.5 7.5v53.688c0 4.143 3.357 7.5 7.5 7.5s7.5-3.357 7.5-7.5v-46.188c10.848.032 19.662 8.868 19.662 19.724v340.85c0 10.855-8.814 19.691-19.662 19.724v-304.122c0-4.143-3.357-7.5-7.5-7.5s-7.5 3.357-7.5 7.5v311.621c0 4.143 3.357 7.5 7.5 7.5h7.439c19.146 0 34.723-15.577 34.723-34.724v-30.646c30.49-53.64 69.946-101.414 114.211-138.243 47.932-39.881 100.457-66.659 156.253-79.704v10.099c-11.48-5.991-26.007-4.173-35.637 5.455-2.929 2.93-2.929 7.678 0 10.607 2.93 2.928 7.678 2.928 10.607 0 6.024-6.023 15.826-6.022 21.849 0 4.234 4.233 4.234 11.124 0 15.357-1.357 1.358-3.162 2.106-5.082 2.106-1.921 0-3.726-.748-5.083-2.106-2.93-2.928-7.678-2.928-10.607 0-2.929 2.93-2.929 7.678 0 10.607 4.326 4.325 10.008 6.488 15.689 6.488 2.81 0 5.618-.533 8.264-1.591v16.292c-71.378 3.397-130.33 55.006-144.948 122.903h-15.221c-9.369 0-16.991 7.622-16.991 16.99v31.73c0 9.368 7.622 16.99 16.991 16.99h15.221c15.128 70.262 77.73 123.088 152.448 123.088s137.321-52.826 152.449-123.088h15.22c9.369 0 16.991-7.622 16.991-16.99v-31.73c0-9.366-7.622-16.988-16.991-16.988zm-167.669-295.613 15.493 54.845h-30.985zm-225.282 82.556h-13.966c-.269 0-.535.016-.797.043-12.681.198-25.302 5.112-34.957 14.765-1.038 1.038-2.014 2.114-2.962 3.206v-58.143c11.834 17.082 29.422 30.484 52.682 40.129zm-52.682 98.332c.948 1.092 1.925 2.168 2.963 3.207 14.519 14.518 33.642 21.97 52.899 21.97 2.742 0 5.487-.154 8.222-.458-23.585 24.819-45.195 52.646-64.084 82.568zm104.617-13.321c-4.948 4.117-9.834 8.374-14.66 12.749-23.766 16.563-55.845 13.716-76.388-6.829-18.063-18.062-18.063-47.453-.001-65.516 13.867-13.864 36.428-13.865 50.293 0 10.508 10.507 10.508 27.604 0 38.111-3.788 3.789-8.826 5.876-14.185 5.876-5.357 0-10.396-2.087-14.184-5.876-2.748-2.747-4.262-6.4-4.262-10.286s1.514-7.539 4.262-10.286c2.929-2.93 2.929-7.678 0-10.607-2.93-2.928-7.678-2.928-10.607 0-11.521 11.521-11.521 30.267 0 41.787 13.671 13.67 35.914 13.67 49.583 0 16.293-16.294 16.35-42.763.181-59.135h149.709c-42.265 15.493-82.374 38.922-119.741 70.012zm5.678 178.757c-1.098 0-1.991-.893-1.991-1.99v-31.73c0-1.098.894-1.99 1.991-1.99h12.755c-.671 5.862-1.028 11.817-1.028 17.855s.357 11.994 1.028 17.855zm337.329-1.99c0 1.098-.894 1.99-1.991 1.99h-12.754c.671-5.862 1.028-11.817 1.028-17.855 0-5.986-.355-11.947-1.04-17.855h12.765c1.098 0 1.991.893 1.991 1.99v31.73z"/></g></g></svg>