<svg id="Capa_1" enable-background="new 0 0 512 512" height="512" viewBox="0 0 512 512" width="512" xmlns="http://www.w3.org/2000/svg"><g><g><path d="m375.681 370.935s36.319-5.039 41.9-32.574-30.098-49.531-44.013-60.908c-16.247-13.283-25.975-36.673-25.975-36.673h-183.186s-9.728 23.389-25.975 36.673c-13.915 11.377-49.595 33.374-44.013 60.908 5.581 27.535 41.9 32.574 41.9 32.574z" fill="#e4936b"/><path d="m367.457 352.935h-222.914s-41.183-4.664-49.307-29.506c-1.454 4.758-1.868 9.747-.817 14.932 5.581 27.535 41.9 32.574 41.9 32.574h239.362s36.319-5.039 41.9-32.574c1.051-5.185.638-10.174-.816-14.932-8.126 24.842-49.308 29.506-49.308 29.506z" fill="#db835d"/><g><path d="m334.047 154.068v73.374c0 43.104-34.943 78.046-78.046 78.046-43.104 0-78.046-34.942-78.046-78.046v-73.374z" fill="#ffd6bd"/><path d="m256 287.489c-43.104 0-78.047-34.942-78.047-78.046v18c0 43.104 34.943 78.046 78.046 78.046 43.104 0 78.046-34.942 78.046-78.046v-18c.002 43.104-34.941 78.046-78.045 78.046z" fill="#f9c6aa"/><path d="m380.692 504h-249.384v-102.35c0-53.108 43.053-96.161 96.161-96.161h57.061c53.108 0 96.161 43.053 96.161 96.161v102.35z" fill="#f7594e"/><path d="m177.954 227.443v-37.25c-8.965-7.375-23.54-14.32-46.646-14.32 0 0-9.3 61.528 48.519 68.547-1.213-5.468-1.873-11.144-1.873-16.977z" fill="#edbca4"/><path d="m334.047 227.443v-37.25c8.965-7.375 23.54-14.32 46.646-14.32 0 0 9.3 61.528-48.519 68.547 1.213-5.468 1.873-11.144 1.873-16.977z" fill="#edbca4"/><path d="m177.954 226.161c-35.493-5.168-44.703-31.445-46.704-49.854-.692 5.467-6.41 61.438 48.577 68.114-1.214-5.468-1.874-11.144-1.874-16.978v-1.282z" fill="#eaab92"/><path d="m334.047 226.161v1.282c0 5.833-.66 11.51-1.874 16.978 54.988-6.676 49.27-62.647 48.578-68.114-2.001 18.409-11.211 44.686-46.704 49.854z" fill="#eaab92"/><path d="m284.531 305.489h-57.062c-34.791 0-65.265 18.477-82.148 46.152l47.07-5.249v33.6c0 4.288 5.043 6.587 8.28 3.774l31.588-27.45 19.407 33.753c1.923 3.344 6.747 3.344 8.669 0l19.407-33.753 31.588 27.45c3.236 2.813 8.28.514 8.28-3.774v-33.6l47.07 5.249c-16.885-27.675-47.358-46.152-82.149-46.152z" fill="#36ce94"/><path d="m337.066 154.068h-162.132c-10.848 0-19.642-8.794-19.642-19.642 0-10.848 8.794-19.642 19.642-19.642h162.132c10.848 0 19.642 8.794 19.642 19.642 0 10.848-8.794 19.642-19.642 19.642z" fill="#edf4fa"/><path d="m180.568 468.607h150.864v35.394h-150.864z" fill="#565e75"/><path d="m131.308 486h249.384v18h-249.384z" fill="#ea4642"/><path d="m180.568 486h150.864v18h-150.864z" fill="#4b5165"/><ellipse cx="383.57" cy="92.832" fill="#edf4fa" rx="20.599" ry="20.599" transform="matrix(.707 -.707 .707 .707 46.703 298.415)"/><path d="m337.066 136.068h-162.132c-7.601 0-14.181-4.326-17.446-10.642-1.395 2.698-2.196 5.753-2.196 9 0 10.848 8.794 19.642 19.642 19.642h162.132c10.848 0 19.642-8.794 19.642-19.642 0-3.247-.801-6.302-2.196-9-3.265 6.317-9.845 10.642-17.446 10.642z" fill="#d8e5ef"/><path d="m383.57 95.431c-8.145 0-15.165-4.739-18.508-11.599-1.326 2.722-2.092 5.768-2.092 9 0 11.377 9.223 20.599 20.599 20.599s20.599-9.223 20.599-20.599c0-3.232-.765-6.278-2.092-9-3.341 6.86-10.361 11.599-18.506 11.599z" fill="#d8e5ef"/><path d="m269.756 8c-77.947 0-94.822 106.784-94.822 106.784h162.132s-3.125-17.035-12.009-35.197l.04.07 37.917 12.331c.345-8.483 5.805-15.628 13.39-18.448-10.829-19.539-43.074-65.54-106.648-65.54z" fill="#f7594e"/><path d="m174.934 114.784h162.132s-1.392-7.573-4.949-18h-152.954c-3.077 10.733-4.229 18-4.229 18z" fill="#ea4642"/><g fill="#e4936b"><path d="m177.954 195.173s36.239-6.862 62.937-41.105h-62.937z"/><path d="m334.046 195.173s-36.239-6.862-62.937-41.105h62.937z"/></g></g></g><g><path d="m218.101 195.839c-4.15 0-7.515 3.364-7.515 7.515v17.531c0 4.151 3.364 7.515 7.515 7.515 4.15 0 7.515-3.364 7.515-7.515v-17.531c0-4.152-3.365-7.515-7.515-7.515z"/><path d="m293.886 228.399c4.15 0 7.515-3.364 7.515-7.515v-17.531c0-4.151-3.364-7.515-7.515-7.515s-7.515 3.364-7.515 7.515v17.531c0 4.151 3.365 7.515 7.515 7.515z"/><path d="m279.928 258.255c.515-1.021.812-2.171.812-3.392 0-4.167-3.377-7.544-7.544-7.544-3.09 0-5.749 1.856-6.915 4.516-.236.477-2.526 4.665-10.294 4.665-7.766 0-10.057-4.187-10.293-4.664 0 .001-.006.004-.006.005-1.166-2.661-3.819-4.522-6.91-4.522-4.167 0-7.544 3.378-7.544 7.544 0 1.238.304 2.404.833 3.435 2.374 5.168 9.801 13.29 23.92 13.29 14.159 0 21.589-8.167 23.941-13.333z"/><path d="m385.186 276.822c-2.586-1.963-4.82-3.659-6.639-5.146-9.554-7.811-16.788-19.816-20.664-27.222 7.046-3.757 12.996-8.804 17.798-15.12 17.279-22.731 12.875-53.444 12.679-54.741-.555-3.674-3.713-6.391-7.43-6.391-15.111 0-28.235 2.753-39.223 8.174v-15.369c12.866-2.147 22.706-13.352 22.706-26.818 0-12.866-8.985-23.667-21.008-26.476-.958-3.898-2.534-9.596-4.897-16.179l17.556 5.709c2.257 13.28 13.837 23.425 27.749 23.425 15.524 0 28.155-12.63 28.155-28.155 0-15.524-12.63-28.155-28.155-28.155-1.183 0-2.347.082-3.492.224-13.847-22.748-47.853-64.582-110.545-64.582-34.91 0-63.766 19.893-83.45 57.528-10.703 20.466-15.881 40.71-17.908 50.221-11.941 2.869-20.845 13.63-20.845 26.438 0 13.467 9.84 24.672 22.706 26.818v15.369c-10.988-5.421-24.112-8.174-39.222-8.174-3.717 0-6.875 2.717-7.43 6.391-.196 1.296-4.6 32.01 12.68 54.741 4.802 6.316 10.752 11.363 17.798 15.12-3.878 7.408-11.111 19.412-20.664 27.222-1.817 1.485-4.048 3.178-6.631 5.139-2.072 1.572-4.42 3.355-6.812 5.232-3.265 2.563-3.834 7.287-1.272 10.552 1.482 1.889 3.688 2.875 5.916 2.875 1.623 0 3.259-.523 4.635-1.603 2.296-1.802 4.495-3.472 6.62-5.085 2.587-1.963 5.029-3.817 7.056-5.474 12.316-10.069 21.028-25.048 25.276-33.436 1.752.454 3.557.845 5.402 1.184 5.821 20.221 18.894 37.388 36.219 48.503-35.599 6.087-65.07 30.349-78.494 62.867-9.236-2.521-26.638-9.334-29.894-25.401-1.563-7.71 1.073-15.731 8.061-24.522 2.582-3.25 2.041-7.977-1.208-10.559-3.248-2.582-7.976-2.042-10.559 1.207-9.779 12.304-13.488 24.706-11.024 36.86 2.772 13.675 12.176 24.721 27.196 31.944 4.614 2.219 9.081 3.743 12.715 4.77-2.02 8.074-3.099 16.516-3.099 25.207v102.55c0 4.151 3.364 7.515 7.515 7.515h249.871c4.15 0 7.515-3.364 7.515-7.515v-102.55c0-8.691-1.079-17.133-3.1-25.207 3.633-1.026 8.1-2.551 12.714-4.769 15.02-7.223 24.424-18.269 27.196-31.944 5.759-28.406-22.928-50.181-40.069-63.192zm-11.246-93.356c.165 8.835-1.033 24.74-10.279 36.845-5.349 7.003-12.829 11.904-22.306 14.638.219-2.494.353-5.012.353-7.562v-33.593c8.453-5.966 19.252-9.433 32.232-10.328zm-47.262 1.557c-9.258-3.311-24.333-10.261-38.545-23.639h38.545zm70.261-92.51c0 7.237-5.888 13.125-13.125 13.125s-13.125-5.889-13.125-13.125c0-7.237 5.888-13.125 13.125-13.125 7.237-.001 13.125 5.888 13.125 13.125zm-234.336 41.675c0-6.708 5.457-12.165 12.166-12.165h89.058c4.15 0 7.515-3.364 7.515-7.515s-3.364-7.515-7.515-7.515h-79.817c2.312-9.68 7.072-26.127 15.635-42.499 17.166-32.823 40.762-49.465 70.132-49.465 53.565 0 83.529 34.904 96.525 55.462-3.77 3.004-6.752 6.951-8.589 11.484l-27.187-8.842c-2.06-3.971-4.38-7.966-7.001-11.847-2.323-3.439-6.994-4.343-10.433-2.021-3.439 2.323-4.344 6.994-2.021 10.433 8.828 13.069 13.982 28.032 16.585 37.294h-33.77c-4.15 0-7.515 3.364-7.515 7.515s3.365 7.515 7.515 7.515h43.301c.007 0 .015.001.022.001.005 0 .01-.001.015-.001 6.706.003 12.16 5.459 12.16 12.165 0 6.708-5.458 12.166-12.166 12.166h-162.449c-6.709.001-12.166-5.457-12.166-12.165zm22.706 27.196h38.545c-14.21 13.377-29.287 20.329-38.545 23.64zm-36.982 58.927c-9.249-12.11-10.445-28.019-10.28-36.845 12.979.895 23.779 4.362 32.233 10.327v33.594c0 2.55.133 5.068.353 7.562-9.477-2.735-16.957-7.634-22.306-14.638zm36.982 7.076v-26.512c11.667-3.476 37.734-13.673 59.135-39.491h23.099c21.401 25.818 47.467 36.015 59.135 39.491v26.512c0 38.975-31.709 70.685-70.684 70.685s-70.685-31.71-70.685-70.685zm42.098 85.714h57.173c26.119 0 49.64 11.333 65.909 29.337l-29.929-3.337c-2.127-.229-4.25.443-5.843 1.868-1.594 1.426-2.504 3.463-2.504 5.601v28.17l-27.502-23.899c-1.696-1.473-3.96-2.113-6.177-1.738-2.215.373-4.147 1.717-5.267 3.664l-17.274 30.043-17.273-30.043c-1.12-1.947-3.052-3.292-5.267-3.664-2.217-.376-4.481.265-6.177 1.738l-27.502 23.899v-28.17c0-2.138-.911-4.175-2.504-5.601s-3.72-2.099-5.843-1.868l-29.929 3.337c16.269-18.004 39.79-29.337 65.909-29.337zm146.008 183.87h-34.327v-74.035c0-4.151-3.365-7.515-7.515-7.515s-7.515 3.364-7.515 7.515v38.572h-79.325c-4.15 0-7.515 3.364-7.515 7.515s3.365 7.515 7.515 7.515h79.325v20.433h-136.13v-20.433h26.747c4.15 0 7.515-3.364 7.515-7.515s-3.365-7.515-7.515-7.515h-26.747v-38.572c0-4.151-3.365-7.515-7.515-7.515s-7.515 3.364-7.515 7.515v74.035h-34.327v-95.035c0-15.615 4.055-30.299 11.16-43.063l35.014-3.904v25.266c0 4.968 2.808 9.335 7.329 11.395 4.521 2.063 9.659 1.32 13.411-1.941l24.758-21.515 14.893 25.904c2.227 3.875 6.387 6.282 10.857 6.282 4.469 0 8.63-2.407 10.858-6.282l14.893-25.904 24.758 21.516c3.749 3.257 8.888 4.004 13.41 1.94 4.52-2.061 7.329-6.428 7.329-11.395v-25.266l35.014 3.904c7.104 12.764 11.16 27.448 11.16 43.063zm37.11-159.943c-1.807 8.916-8.082 16.058-18.65 21.226-4.114 2.012-8.135 3.337-11.241 4.182-13.423-32.521-42.896-56.787-78.497-62.874 17.325-11.115 30.397-28.282 36.219-48.503 1.846-.339 3.65-.73 5.402-1.184 4.248 8.388 12.961 23.367 25.276 33.436 2.029 1.659 4.475 3.516 7.065 5.481 15.256 11.581 38.309 29.08 34.426 48.236z"/></g></g></svg>