<svg id="Capa_1" enable-background="new 0 0 512 512" height="512" viewBox="0 0 512 512" width="512" xmlns="http://www.w3.org/2000/svg"><g><path d="m337.666 133.677-23.318 20h-120.114l-19.901-20v-114.711c0-6.333 5.134-11.466 11.466-11.466h140.401c6.333 0 11.466 5.134 11.466 11.466z" fill="#f4fbff"/><path d="m326.199 7.5h-21.493c6.333 0 11.466 5.134 11.466 11.467v68.354c0 14.058-11.396 25.454-25.454 25.454h-116.384v20.903h163.332v-20.903-93.809c0-6.332-5.134-11.466-11.467-11.466z" fill="#daf1f4"/><path d="m411.923 504.5h-311.847c-8.331 0-15.085-6.754-15.085-15.085v-298.249c0-31.75 25.739-57.489 57.489-57.489h227.039c31.75 0 57.489 25.739 57.489 57.489v298.248c0 8.332-6.753 15.086-15.085 15.086z" fill="#5766cb"/><path d="m369.519 133.678h-22.493c31.75 0 57.489 25.739 57.489 57.489v298.248c0 8.331-6.754 15.085-15.085 15.085h22.493c8.331 0 15.085-6.754 15.085-15.085v-298.248c0-31.751-25.738-57.489-57.489-57.489z" fill="#3d4fc3"/><path d="m353.884 447.919h-195.768c-8.37 0-15.156-6.786-15.156-15.156v-165.507c0-8.37 6.786-15.156 15.156-15.156h195.767c8.37 0 15.156 6.786 15.156 15.156v165.507c0 8.371-6.785 15.156-15.155 15.156z" fill="#f4fbff"/><path d="m353.884 252.1h-21.494c8.37 0 15.156 6.785 15.156 15.156v165.507c0 8.37-6.786 15.156-15.156 15.156h21.493c8.37 0 15.156-6.786 15.156-15.156v-165.507c0-8.37-6.785-15.156-15.155-15.156z" fill="#daf1f4"/><path d="m197.043 218.756h-49.046c-2.781 0-5.036-2.255-5.036-5.036v-31.517c0-2.781 2.255-5.036 5.036-5.036h49.046c2.781 0 5.036 2.255 5.036 5.036v31.517c0 2.781-2.255 5.036-5.036 5.036z" fill="#dd636e"/><path d="m197.043 177.167h-17.022c2.781 0 5.036 2.255 5.036 5.036v31.517c0 2.781-2.255 5.036-5.036 5.036h17.022c2.781 0 5.036-2.255 5.036-5.036v-31.517c0-2.782-2.255-5.036-5.036-5.036z" fill="#da4a54"/><g><path d="m196.46 50.84c0 4.143 3.357 7.5 7.5 7.5h22.634c4.143 0 7.5-3.357 7.5-7.5s-3.357-7.5-7.5-7.5h-22.634c-4.142 0-7.5 3.357-7.5 7.5z"/><path d="m255.406 58.34h52.634c4.143 0 7.5-3.357 7.5-7.5s-3.357-7.5-7.5-7.5h-52.634c-4.143 0-7.5 3.357-7.5 7.5s3.357 7.5 7.5 7.5z"/><path d="m226.594 82.759h-22.634c-4.143 0-7.5 3.357-7.5 7.5s3.357 7.5 7.5 7.5h22.634c4.143 0 7.5-3.357 7.5-7.5s-3.357-7.5-7.5-7.5z"/><path d="m255.406 97.759h52.634c4.143 0 7.5-3.357 7.5-7.5s-3.357-7.5-7.5-7.5h-52.634c-4.143 0-7.5 3.357-7.5 7.5s3.357 7.5 7.5 7.5z"/><path d="m197.042 226.256c6.912 0 12.536-5.624 12.536-12.536v-31.518c0-6.912-5.624-12.536-12.536-12.536h-49.046c-6.912 0-12.536 5.624-12.536 12.536v31.518c0 6.912 5.624 12.536 12.536 12.536zm-46.582-41.59h44.118v26.59h-44.118z"/><path d="m369.04 184.667c4.143 0 7.5-3.357 7.5-7.5s-3.357-7.5-7.5-7.5h-39.564c-4.143 0-7.5 3.357-7.5 7.5s3.357 7.5 7.5 7.5z"/><path d="m274.222 214.634c0 4.143 3.357 7.5 7.5 7.5h87.317c4.143 0 7.5-3.357 7.5-7.5s-3.357-7.5-7.5-7.5h-87.317c-4.142 0-7.5 3.357-7.5 7.5z"/><path d="m263.5 279.066c0-4.143-3.357-7.5-7.5-7.5s-7.5 3.357-7.5 7.5v7.569c0 4.143 3.357 7.5 7.5 7.5s7.5-3.357 7.5-7.5z"/><path d="m319.374 342.51c-4.143 0-7.5 3.357-7.5 7.5s3.357 7.5 7.5 7.5h7.569c4.143 0 7.5-3.357 7.5-7.5s-3.357-7.5-7.5-7.5z"/><path d="m256 405.884c-4.143 0-7.5 3.357-7.5 7.5v7.569c0 4.143 3.357 7.5 7.5 7.5s7.5-3.357 7.5-7.5v-7.569c0-4.143-3.358-7.5-7.5-7.5z"/><path d="m185.057 342.51c-4.143 0-7.5 3.357-7.5 7.5s3.357 7.5 7.5 7.5h7.569c4.143 0 7.5-3.357 7.5-7.5s-3.357-7.5-7.5-7.5z"/><path d="m263.5 315.845c0-4.143-3.357-7.5-7.5-7.5s-7.5 3.357-7.5 7.5v26.665h-13.993c-4.143 0-7.5 3.357-7.5 7.5s3.357 7.5 7.5 7.5h21.493c4.143 0 7.5-3.357 7.5-7.5z"/><path d="m369.519 126.178h-24.354v-107.211c.001-10.458-8.507-18.967-18.965-18.967h-84.612c-4.143 0-7.5 3.357-7.5 7.5s3.357 7.5 7.5 7.5h84.612c2.187 0 3.966 1.779 3.966 3.967v107.211h-148.333v-107.211c0-2.188 1.779-3.967 3.967-3.967h25.8c4.143 0 7.5-3.357 7.5-7.5s-3.357-7.5-7.5-7.5h-25.8c-10.458 0-18.967 8.509-18.967 18.967v107.211h-24.353c-35.835 0-64.988 29.154-64.988 64.989v219.181c0 4.143 3.357 7.5 7.5 7.5s7.5-3.357 7.5-7.5v-219.181c0-27.564 22.425-49.989 49.988-49.989h227.039c27.564 0 49.989 22.425 49.989 49.989v298.248c0 4.183-3.402 7.585-7.585 7.585h-311.846c-4.183 0-7.585-3.402-7.585-7.585v-49.081c0-4.143-3.357-7.5-7.5-7.5s-7.5 3.357-7.5 7.5v49.081c0 12.453 10.132 22.585 22.585 22.585h311.847c12.453 0 22.585-10.132 22.585-22.585v-298.248c-.001-35.835-29.155-64.989-64.99-64.989z"/><path d="m135.46 432.764c0 12.493 10.163 22.656 22.655 22.656h195.768c12.493 0 22.656-10.163 22.656-22.656v-107.76c0-4.143-3.357-7.5-7.5-7.5s-7.5 3.357-7.5 7.5v107.76c0 4.222-3.435 7.656-7.656 7.656h-195.767c-4.221 0-7.655-3.435-7.655-7.656v-165.507c0-4.222 3.435-7.656 7.655-7.656h195.768c4.222 0 7.656 3.435 7.656 7.656v27.76c0 4.143 3.357 7.5 7.5 7.5s7.5-3.357 7.5-7.5v-27.76c0-12.493-10.163-22.656-22.656-22.656h-195.768c-12.492 0-22.655 10.163-22.655 22.656v165.507z"/></g></g></svg>