<svg id="Capa_1" enable-background="new 0 0 512 512" height="512" viewBox="0 0 512 512" width="512" xmlns="http://www.w3.org/2000/svg"><g><g><path d="m206.322 119.425h138.25v274.03h-138.25z" fill="#ffe08c"/><path d="m206.322 119.425h138.25v18h-138.25z" fill="#f9d375"/><g fill="#36ce94"><path d="m206.321 253.536 134.11-134.111h-70.839l-63.271 63.262z"/><path d="m344.57 256.976-136.48 136.48-1.769-69.08 138.249-138.249z"/><path d="m278.93 393.456 65.64-65.64.002 65.64z"/></g><path d="m311.75 393.456h32.822v110.544h-32.822z" fill="#e4936b"/><path d="m311.75 393.456h32.822v18h-32.822z" fill="#db835d"/><path d="m366.91 111.423-79.11-97.943c-5.901-7.306-17.038-7.306-22.94 0l-79.11 97.943c-2.596 3.214-.308 8.003 3.823 8.003h173.513c4.132-.001 6.42-4.789 3.824-8.003z" fill="#f7594e"/><path d="m251.589 137.425h70.842l18-18h-70.839z" fill="#36bf84"/></g><g><path d="m372.993 106.357-79.276-98.15c-8.383-10.944-26.299-10.943-34.682 0l-79.276 98.15c-6.657 7.666-.467 20.62 9.678 20.258h9.268v267.091c0 4.151 3.365 7.516 7.516 7.516h55.971c-.457 8.243-2.915 22.606-13.579 34.497-12.239 13.647-32.167 20.567-59.23 20.567-4.151 0-7.516 3.365-7.516 7.516s3.365 7.516 7.516 7.516c31.516 0 55.209-8.6 70.42-25.563 13.934-15.538 16.952-34.039 17.43-44.533h27.122v103.262c0 4.151 3.365 7.516 7.516 7.516h32.891c4.151 0 7.516-3.365 7.516-7.516v-40.357c0-4.151-3.365-7.516-7.516-7.516s-7.516 3.365-7.516 7.516v32.842h-17.859v-95.745h17.859v32.841c0 4.151 3.365 7.516 7.516 7.516s7.516-3.364 7.516-7.516v-307.449h11.038c10.145.36 16.332-12.594 9.677-20.259zm-35.748 279.834h-40.118l40.118-40.119zm0-132.366-76.363 76.363c-2.935 2.936-2.935 7.694 0 10.63 2.935 2.934 7.694 2.934 10.629 0l65.734-65.734v49.73l-61.377 61.378h-49.73l24.115-24.115c2.935-2.936 2.935-7.694 0-10.63-2.935-2.934-7.694-2.934-10.629 0l-25.888 25.889v-49.74l123.509-123.51zm0-70.999-123.509 123.51v-49.73l76.191-76.192c2.935-2.936 2.935-7.694 0-10.63-2.935-2.934-7.694-2.934-10.629 0l-65.563 65.563v-49.74l59-58.99h49.731l-21.91 21.91c-2.935 2.936-2.935 7.694 0 10.63 2.935 2.935 7.694 2.935 10.629 0l26.06-26.06zm-123.509-18.476v-37.735h37.741zm-18.877-52.766 75.869-93.931c2.73-3.564 8.565-3.564 11.295 0l75.869 93.931z"/><path d="m165.535 463.802c0-4.151-3.365-7.516-7.516-7.516h-14.262c-4.151 0-7.516 3.365-7.516 7.516s3.365 7.516 7.516 7.516h14.262c4.151 0 7.516-3.365 7.516-7.516z"/><path d="m173.503 481.593c-3.096-2.764-7.848-2.495-10.612.603l-9.497 10.642c-2.764 3.097-2.493 7.849.603 10.612 3.086 2.757 7.84 2.502 10.612-.603l9.497-10.642c2.764-3.097 2.494-7.848-.603-10.612z"/><path d="m164.61 424.756c-2.764-3.097-7.515-3.366-10.612-.603-3.097 2.764-3.367 7.515-.603 10.612l9.497 10.642c2.771 3.104 7.526 3.359 10.612.603 3.097-2.764 3.367-7.515.603-10.612z"/></g></g></svg>