<svg id="Capa_1" enable-background="new 0 0 512 512" height="512" viewBox="0 0 512 512" width="512" xmlns="http://www.w3.org/2000/svg"><g><g><path d="m391.719 217.504-73.474-122.31c-2.675-4.453-7.489-7.177-12.683-7.177h-99.122c-5.195 0-10.008 2.724-12.683 7.177l-73.474 122.31c-1.382 2.301-2.112 4.935-2.112 7.619v264.081c0 8.172 6.624 14.796 14.796 14.796h246.07c8.172 0 14.796-6.624 14.796-14.796v-264.081c-.002-2.684-.732-5.318-2.114-7.619zm-135.719-51.849c-12.118 0-21.942-9.824-21.942-21.942s9.824-21.942 21.942-21.942 21.942 9.824 21.942 21.942-9.824 21.942-21.942 21.942z" fill="#f7594e"/><g><path d="m379.035 486h-246.07c-8.171 0-14.796-6.624-14.796-14.796v18c0 8.172 6.624 14.796 14.796 14.796h246.07c8.172 0 14.796-6.624 14.796-14.796v-18c0 8.172-6.624 14.796-14.796 14.796z" fill="#ea4642"/></g><path d="m327.701 407.845-26.281-54.034h9.254c3.692 0 6.075-3.908 4.384-7.191l-30.613-59.425h6.346c3.792 0 6.165-4.1 4.277-7.388l-34.79-60.588c-1.896-3.301-6.658-3.301-8.554 0l-34.79 60.588c-1.888 3.288.486 7.388 4.277 7.388h6.345l-30.613 59.425c-1.691 3.282.692 7.191 4.384 7.191h9.253l-26.281 54.034c-1.593 3.276.793 7.089 4.435 7.089h134.532c3.643 0 6.029-3.813 4.435-7.089z" fill="#36ce94"/><path d="m322.395 396.935h-132.79l-5.307 10.91c-1.593 3.276.792 7.089 4.435 7.089h134.532c3.643 0 6.028-3.813 4.435-7.089z" fill="#36bf84"/><path d="m267.672 450.807h-22.612c-2.724 0-4.932-2.208-4.932-4.932v-30.94h32.475v30.94c.001 2.724-2.207 4.932-4.931 4.932z" fill="#edbca4"/><path d="m240.129 414.934h32.475v18h-32.475z" fill="#eaab92"/></g><g><path d="m117.899 429.876c-4.15 0-7.515-3.364-7.515-7.515v-197.298c0-4.052 1.103-8.029 3.189-11.503l27.346-45.521c2.137-3.559 6.752-4.709 10.312-2.571 3.558 2.137 4.709 6.753 2.572 10.311l-27.345 45.521c-.682 1.136-1.044 2.438-1.044 3.764v197.299c0 4.149-3.365 7.513-7.515 7.513z"/><g><path d="m398.426 213.559-73.618-122.55c-4.016-6.684-11.352-10.836-19.149-10.836h-12.568c.044-1.554.074-3.111.074-4.669-.001-43.044-15.978-75.504-37.165-75.504s-37.165 32.46-37.165 75.504c0 1.573.028 3.126.07 4.669h-12.563c-7.797 0-15.135 4.152-19.15 10.836l-30.79 51.254c-2.137 3.558-.986 8.174 2.572 10.311 3.559 2.138 8.174.985 10.312-2.572l30.789-51.254c1.314-2.187 3.716-3.546 6.267-3.546h13.673c1.679 13.614 5.087 25.515 9.768 34.796-2.092 4.048-3.282 8.634-3.282 13.496 0 16.266 13.233 29.499 29.499 29.499s29.499-13.233 29.499-29.499-13.233-29.5-29.499-29.5c-5.49 0-10.631 1.512-15.037 4.134-2.456-6.236-4.512-13.954-5.768-22.926h70.464c2.551 0 4.952 1.359 6.266 3.546l73.617 122.549c.683 1.137 1.044 2.439 1.044 3.765v93.931c0 4.151 3.364 7.515 7.515 7.515s7.515-3.364 7.515-7.515v-93.931c0-4.051-1.103-8.029-3.19-11.503zm-142.426-55.595c-7.258 0-13.267-5.377-14.297-12.353 4.361 3.485 9.175 5.398 14.297 5.398 3.948 0 9.024-1.12 14.275-5.253-1.091 6.905-7.068 12.208-14.275 12.208zm0-28.941c2.832 0 5.469.83 7.703 2.242-2.614 3.042-5.297 4.714-7.703 4.714-2.378 0-5.039-1.65-7.669-4.734 2.226-1.399 4.851-2.222 7.669-2.222zm-22.136-53.519c0-36.916 13.11-60.474 22.136-60.474 9.025 0 22.135 23.559 22.135 60.474 0 1.56-.042 3.116-.091 4.669h-44.1c-.047-1.534-.08-3.085-.08-4.669z"/><path d="m394.101 341.537c-4.151 0-7.515 3.364-7.515 7.515v140.608c0 4.031-3.28 7.31-7.31 7.31h-246.552c-4.031 0-7.31-3.279-7.31-7.31v-37.24c0-4.151-3.364-7.515-7.515-7.515-4.15 0-7.515 3.364-7.515 7.515v37.241c0 12.318 10.022 22.34 22.34 22.34h246.552c12.318 0 22.34-10.022 22.34-22.34v-140.609c0-4.151-3.365-7.515-7.515-7.515z"/><path d="m188.602 422.76h43.981v23.486c0 6.868 5.587 12.456 12.456 12.456h22.656c6.869 0 12.457-5.588 12.457-12.456v-23.486h43.246c8.92.28 15.356-10.007 11.202-17.905l-21.21-43.609c3.317-.7 6.211-2.722 8.027-5.703 2.28-3.74 2.443-8.296.437-12.188l-25.641-49.774c2.232-1.056 4.125-2.78 5.426-5.026 2.253-3.891 2.262-8.544.023-12.444l-34.859-60.708c-4.396-8.218-17.21-8.217-21.603.002l-34.859 60.706c-2.239 3.9-2.23 8.552.023 12.444 1.3 2.247 3.193 3.971 5.426 5.026l-25.641 49.774c-2.005 3.893-1.841 8.45.438 12.189 1.817 2.979 4.71 5.002 8.026 5.702l-21.21 43.609c-4.156 7.899 2.281 18.185 11.199 17.905zm76.52 20.913h-17.51v-20.913h17.51zm-47.873-86.384c2.497-4.767-1.379-10.962-6.758-10.801h-5.051l28.74-55.79c2.644-4.772-1.229-11.121-6.681-10.956h-1.914l30.415-52.967 30.414 52.967h-1.914c-5.452-.165-9.324 6.185-6.68 10.956l28.741 55.79h-5.052c-5.379-.161-9.256 6.034-6.757 10.801l24.533 50.442h-126.57z"/></g></g></g></svg>