<svg id="Capa_1" enable-background="new 0 0 512 512" height="512" viewBox="0 0 512 512" width="512" xmlns="http://www.w3.org/2000/svg"><g><g><path d="m256 8c-131.32 0-237.775 106.456-237.775 237.775 0 77.892 37.455 147.033 95.335 190.403h284.881c57.88-43.37 95.335-112.512 95.335-190.403 0-131.319-106.456-237.775-237.776-237.775z" fill="#92e0ff"/><g><path d="m259.548 436.178h138.893c13.463-10.088 25.803-21.586 36.842-34.249l-52.557-114.181h12.862c5.132 0 8.445-5.432 6.094-9.995l-42.55-82.597h8.82c5.27 0 8.569-5.699 5.945-10.269l-48.357-84.214c-2.635-4.589-9.255-4.589-11.89 0l-48.356 84.214c-2.624 4.57.675 10.269 5.945 10.269h8.82l-20.51 39.813v201.209z" fill="#36ce94"/><path d="m227.575 250.012-49.479-86.169c-2.403-4.185-8.44-4.185-10.843 0l-44.101 76.804c-2.393 4.168.616 9.365 5.422 9.365h8.044l-38.806 75.33c-2.143 4.161.877 9.115 5.558 9.115h11.73l-33.475 72.933c9.755 10.52 20.433 20.17 31.935 28.788h114.015z" fill="#36ce94"/><path d="m113.557 436.179h284.886l12.998 48.974c2.526 9.519-4.65 18.848-14.498 18.848h-281.885c-9.848 0-17.024-9.329-14.498-18.848z" fill="#565e75"/><path d="m100.361 486c-1.898 9.217 5.141 18 14.696 18h281.885c9.555 0 16.594-8.783 14.696-18z" fill="#4b5165"/><path d="m374.738 361.203c-4.074 0-8.186-1.24-11.734-3.817l-107.004-77.7-107.004 77.699c-8.936 6.491-21.445 4.506-27.935-4.433-6.49-8.938-4.506-21.444 4.433-27.935l118.755-86.232c7.008-5.088 16.494-5.088 23.502 0l118.755 86.232c8.939 6.49 10.923 18.997 4.433 27.935-3.914 5.389-10.014 8.251-16.201 8.251z" fill="#edf4fa"/><path d="m352.145 300.068v-50.224c0-2.761-2.238-5-5-5h-23.86c-2.762 0-5 2.239-5 5v25.637z" fill="#edf4fa"/><path d="m318.285 275.48 33.86 24.588v-18l-33.86-24.588z" fill="#d8e5ef"/><path d="m92.288 418.179c6.729 6.401 13.825 12.42 21.271 18h114.015v-18z" fill="#36bf84"/><path d="m259.548 418.179v18h138.893c7.444-5.578 14.531-11.601 21.258-18z" fill="#36bf84"/><g><path d="m256 279.686-101.896 73.99v82.502h203.792v-82.502z" fill="#f7594e"/></g><path d="m363.004 357.385c3.549 2.577 7.66 3.817 11.734 3.817 4.435 0 8.822-1.478 12.394-4.297l-128.195-93.087c-1.752-1.272-4.124-1.272-5.876 0l-128.185 93.082c6.854 5.406 16.711 5.868 24.12.485l107.004-77.699z" fill="#d8e5ef"/><path d="m282.954 436.178h-53.908v-45.935c0-14.886 12.068-26.954 26.954-26.954 14.886 0 26.954 12.068 26.954 26.954z" fill="#ffe08c"/><path d="m154.104 418.179h203.792v18h-203.792z" fill="#ea4642"/><path d="m229.046 418.179h53.908v18h-53.908z" fill="#f9d375"/></g></g><g><path d="m234.894 129.455c-5.404 0-9.801-4.397-9.801-9.801s4.397-9.801 9.801-9.801c5.405 0 9.802 4.397 9.802 9.801.001 5.404-4.397 9.801-9.802 9.801z"/><path d="m153.905 95.168c-5.404 0-9.801-4.397-9.801-9.802 0-5.404 4.397-9.801 9.801-9.801s9.801 4.397 9.801 9.801c0 5.405-4.397 9.802-9.801 9.802z"/><path d="m274.69 63.86c-5.404 0-9.801-4.397-9.801-9.802 0-5.404 4.397-9.801 9.801-9.801 5.405 0 9.802 4.397 9.802 9.801 0 5.405-4.397 9.802-9.802 9.802z"/><path d="m73.833 254.623c-5.404 0-9.801-4.397-9.801-9.801 0-5.405 4.397-9.802 9.801-9.802s9.801 4.397 9.801 9.802c0 5.404-4.397 9.801-9.801 9.801z"/><path d="m99.745 168.032c-5.405 0-9.802-4.397-9.802-9.801s4.397-9.801 9.802-9.801c5.404 0 9.801 4.397 9.801 9.801s-4.397 9.801-9.801 9.801z"/><path d="m429.048 185.006c-5.404 0-9.801-4.397-9.801-9.801s4.397-9.801 9.801-9.801 9.801 4.397 9.801 9.801-4.397 9.801-9.801 9.801z"/><path d="m449.672 276.528c-5.404 0-9.801-4.397-9.801-9.801 0-5.405 4.397-9.802 9.801-9.802 5.405 0 9.802 4.397 9.802 9.802.001 5.404-4.397 9.801-9.802 9.801z"/><path d="m380.278 106.723c-5.404 0-9.801-4.397-9.801-9.801s4.397-9.801 9.801-9.801 9.801 4.397 9.801 9.801-4.397 9.801-9.801 9.801z"/><path d="m429.775 71.98c-46.417-46.417-108.131-71.98-173.775-71.98-58.658 0-115.452 21.004-159.917 59.143-3.151 2.701-3.514 7.445-.811 10.596 2.701 3.149 7.445 3.515 10.596.811 41.743-35.802 95.061-55.52 150.132-55.52 61.629 0 119.569 24 163.148 67.578 43.578 43.578 67.578 101.519 67.578 163.148 0 36.962-8.475 72.268-25.189 104.936-6.767 13.227-14.859 25.81-24.076 37.525l-42.756-92.891h1.155c5.058 0 9.649-2.578 12.282-6.896 2.632-4.318 2.821-9.579.505-14.073l-37.181-72.175c3.824-.881 7.116-3.289 9.152-6.805 2.602-4.494 2.612-9.866.026-14.368l-48.451-84.38c-2.596-4.521-7.258-7.221-12.472-7.221-.001 0-.001 0-.001 0-5.213 0-9.877 2.699-12.474 7.221l-48.451 84.379c-2.586 4.503-2.576 9.874.026 14.368 2.036 3.518 5.328 5.925 9.152 6.806l-13.011 25.258c-5.324.202-10.604 1.932-15.15 5.233l-9.581 6.957-45.769-79.709c-2.486-4.332-6.953-6.918-11.949-6.918-4.995 0-9.462 2.586-11.948 6.918l-44.188 76.953c-2.478 4.314-2.469 9.46.023 13.765 1.804 3.117 4.639 5.324 7.954 6.305l-33.531 65.091c-2.219 4.307-2.038 9.347.484 13.483 2.521 4.136 6.92 6.606 11.764 6.606h.036l-23.826 51.914c-11.2-13.333-20.913-27.899-28.817-43.347-16.714-32.668-25.189-67.975-25.189-104.936 0-57.403 21.214-112.419 59.735-154.911 2.788-3.074 2.555-7.827-.521-10.615-3.073-2.787-7.827-2.554-10.614.521-41.032 45.262-63.629 103.862-63.629 165.005 0 39.365 9.029 76.974 26.838 111.782 16.212 31.685 39.547 59.892 67.654 81.889l-11.743 44.247c-1.81 6.819-.381 13.936 3.921 19.528 4.3 5.591 10.814 8.798 17.869 8.798h210.165c4.151 0 7.515-3.364 7.515-7.515s-3.364-7.515-7.515-7.515h-210.168c-2.351 0-4.522-1.069-5.957-2.932-1.433-1.864-1.91-4.237-1.306-6.51l11.541-43.482h273.88l11.541 43.482c.604 2.273.127 4.646-1.306 6.51-1.434 1.863-3.606 2.932-5.957 2.932h-42.212c-4.151 0-7.515 3.364-7.515 7.515s3.364 7.515 7.515 7.515h42.212c7.055 0 13.569-3.207 17.869-8.798 4.301-5.592 5.731-12.709 3.921-19.528l-11.743-44.247c28.106-21.998 51.442-50.205 67.653-81.889 17.808-34.807 26.838-72.417 26.838-111.782-.001-65.644-25.563-127.358-71.981-173.775zm-110.056 33.108 47.335 82.435h-7.721c-2.62 0-5.052 1.365-6.416 3.603-1.364 2.237-1.465 5.023-.264 7.353l42.149 81.817h-11.828c-2.562 0-4.946 1.304-6.328 3.462-1.382 2.157-1.57 4.868-.498 7.195l11.897 25.845-28.197-20.475v-46.492c0-6.906-5.618-12.524-12.525-12.524h-23.906c-6.906 0-12.524 5.618-12.524 12.524v10.944l-38.704-28.104c-.734-.533-1.494-1.012-2.264-1.465l16.86-32.727c1.201-2.33 1.1-5.117-.264-7.353-1.364-2.238-3.796-3.603-6.416-3.603h-7.721zm25.099 147.249v33.073l-17.752-12.89-1.145-.831v-19.352zm-201.755 1.104c1.201-2.33 1.1-5.116-.264-7.353-1.364-2.238-3.796-3.603-6.416-3.603h-5.899l42.027-73.192 45.488 79.217-97.174 70.562c-3.022 2.195-5.516 4.921-7.393 8.023h-8.311zm3.327 175.576h-30.584c-9.072-6.954-17.613-14.608-25.565-22.832l23.201-50.553c.398.655.818 1.3 1.273 1.927 6.921 9.829 20.444 13.959 31.674 9.712v61.746zm129.102 0h-38.984v-38.511c0-10.748 8.745-19.492 19.492-19.492 10.748 0 19.492 8.745 19.492 19.492zm75.088 0h-60.059v-38.511c0-19.035-15.486-34.522-34.522-34.522s-34.521 15.486-34.521 34.522v38.511h-60.058v-71.319l33.176-24.091c3.358-2.438 4.104-7.137 1.664-10.496-2.438-3.358-7.138-4.103-10.496-1.664l-41.394 30.058c-5.363 4.07-13.651 2.752-17.492-2.777-4.069-5.366-2.752-13.649 2.777-17.493l118.986-86.4c4.403-3.196 10.318-3.195 14.717-.001l118.988 86.402c5.528 3.843 6.844 12.128 2.776 17.492-3.853 5.506-12.12 6.853-17.493 2.777l-107.213-77.851c-2.633-1.914-6.198-1.913-8.831 0l-41.492 30.127c-3.359 2.439-4.105 7.138-1.666 10.496 2.44 3.361 7.141 4.105 10.496 1.665l37.077-26.922 94.58 68.678zm45.614 0h-30.584v-61.75c11.234 4.25 24.724.084 31.673-9.708 2.321-3.196 3.891-6.775 4.677-10.528l24.78 53.835c-9.325 10.265-19.548 19.72-30.546 28.151z"/></g></g></svg>