<svg id="Capa_1" enable-background="new 0 0 512 512" height="512" viewBox="0 0 512 512" width="512" xmlns="http://www.w3.org/2000/svg"><g><path d="m165.81 504.5h180.4c14.327 0 28.225-4.874 39.428-13.804 47.846-38.136 78.515-96.906 78.515-162.846.001-114.96-93.193-320.35-208.153-320.35s-208.153 205.39-208.153 320.35c0 65.934 30.663 124.699 78.5 162.835 11.213 8.938 25.124 13.815 39.463 13.815z" fill="#f4fbff"/><path d="m256 7.5c-4.186 0-8.341.28-12.466.811 109.156 14.034 195.688 208.765 195.688 319.539 0 65.941-30.669 124.711-78.515 162.847-11.204 8.93-25.102 13.804-39.428 13.804h24.932c14.327 0 28.225-4.875 39.428-13.804 47.846-38.136 78.515-96.906 78.515-162.847 0-114.96-93.194-320.35-208.154-320.35z" fill="#daf1f4"/><path d="m248.54 316.561-14.305 24.777c-3.316 5.743.829 12.921 7.46 12.921h28.61c6.631 0 10.776-7.179 7.46-12.921l-14.305-24.777c-3.315-5.743-11.604-5.743-14.92 0z" fill="#dd636e"/><path d="m277.765 341.337-14.305-24.777c-3.316-5.743-11.605-5.743-14.92 0l-.737 1.277 13.568 23.5c3.316 5.743-.829 12.921-7.46 12.921h16.395c6.631.001 10.775-7.178 7.459-12.921z" fill="#da4a54"/><g><path d="m241.695 361.759h28.61c5.825 0 11.042-3.012 13.955-8.057s2.913-11.069 0-16.115l-14.305-24.777c-2.914-5.045-8.131-8.057-13.957-8.057-5.825.001-11.042 3.013-13.954 8.058l-14.305 24.776c-2.913 5.046-2.913 11.07 0 16.115s8.131 8.057 13.956 8.057zm-.965-16.672 14.305-24.776c.08-.138.322-.558.965-.558.644 0 .887.42.966.558l14.305 24.776c.079.138.321.558 0 1.115-.322.557-.806.557-.965.557h-28.61c-.159 0-.643 0-.965-.557s-.08-.977-.001-1.115z"/><path d="m248.5 238.306v13.694c0 4.143 3.357 7.5 7.5 7.5s7.5-3.357 7.5-7.5v-13.694c0-4.143-3.357-7.5-7.5-7.5s-7.5 3.357-7.5 7.5z"/><path d="m114.019 228.548v9.694c0 4.143 3.357 7.5 7.5 7.5s7.5-3.357 7.5-7.5v-9.694c0-4.143-3.357-7.5-7.5-7.5s-7.5 3.357-7.5 7.5z"/><path d="m397.981 238.242v-9.694c0-4.143-3.357-7.5-7.5-7.5s-7.5 3.357-7.5 7.5v9.694c0 4.143 3.357 7.5 7.5 7.5s7.5-3.357 7.5-7.5z"/><path d="m173.556 240.395v4.848c0 4.143 3.357 7.5 7.5 7.5s7.5-3.357 7.5-7.5v-4.848c0-4.143-3.357-7.5-7.5-7.5s-7.5 3.357-7.5 7.5z"/><path d="m323.444 240.395v4.848c0 4.143 3.357 7.5 7.5 7.5s7.5-3.357 7.5-7.5v-4.848c0-4.143-3.357-7.5-7.5-7.5s-7.5 3.357-7.5 7.5z"/><path d="m384.121 81.562c-2.469-3.325-7.168-4.021-10.492-1.551-3.326 2.47-4.021 7.167-1.551 10.492 29.237 39.377 56.46 94.901 72.176 153.926-33.55 16.282-107.638 27.036-188.254 27.036-81.42 0-154.456-10.563-188.323-27.068 25.041-94.015 97.632-229.397 188.323-229.397 32.385 0 66.107 18.274 97.522 52.847 2.787 3.067 7.53 3.294 10.595.507 3.065-2.785 3.292-7.529.507-10.595-34.335-37.786-71.896-57.759-108.624-57.759-120.587 0-215.653 209.892-215.653 327.85 0 66.009 29.643 127.497 81.326 168.699 12.497 9.964 28.172 15.451 44.137 15.451h34.793c4.143 0 7.5-3.357 7.5-7.5s-3.357-7.5-7.5-7.5h-34.793c-12.58 0-24.935-4.325-34.787-12.18-48.093-38.341-75.676-95.553-75.676-156.97 0-20.747 3.062-44.175 8.661-68.622 37.077 16.661 110.804 27.238 191.993 27.238 81.586 0 154.818-10.532 191.932-27.211 5.69 24.812 8.721 48.257 8.721 68.595 0 61.425-27.588 118.643-75.69 156.981-9.846 7.848-22.188 12.169-34.754 12.169h-115.621c-4.143 0-7.5 3.357-7.5 7.5s3.357 7.5 7.5 7.5h115.621c15.949 0 31.612-5.483 44.103-15.438 51.693-41.202 81.341-102.695 81.341-168.712-.001-74.401-36.813-177.98-87.533-246.288z"/></g></g></svg>