<svg id="Capa_1" enable-background="new 0 0 512 512" height="512" viewBox="0 0 512 512" width="512" xmlns="http://www.w3.org/2000/svg"><g><path d="m283.663 504.5h-55.325c-12.168 0-21.965-9.884-21.976-22.052-.023-27.634-9.187-56.96-28.681-86.49h156.637c-19.493 29.53-28.658 58.856-28.681 86.49-.009 12.168-9.806 22.052-21.974 22.052z" fill="#365e7d"/><path d="m334.319 395.958h-19.752-136.885c15.815 23.959 24.831 47.782 27.682 70.678 4.048 1.04 8.291 1.593 12.663 1.593h53.956c7.747 0 13.919 6.331 13.904 14.078v.141c-.01 12.168-9.807 22.052-21.976 22.052h19.752c12.155 0 21.969-9.864 21.976-22.019.017-31.016 11.535-60.547 28.68-86.523z" fill="#2b4d66"/><path d="m283.663 7.5h-55.325c-12.168 0-21.965 9.884-21.976 22.052-.023 27.634-9.187 56.96-28.681 86.49h156.637c-19.493-29.53-28.658-58.856-28.681-86.49-.009-12.168-9.806-22.052-21.974-22.052z" fill="#365e7d"/><path d="m305.638 29.514c-.006-12.153-9.822-22.014-21.975-22.014h-19.752c12.168 0 21.965 9.884 21.976 22.052v.141c.015 7.747-6.157 14.078-13.904 14.078h-53.956c-4.372 0-8.615.553-12.663 1.593-2.852 22.895-11.867 46.719-27.682 70.678h136.885 19.752c-17.114-25.928-28.664-55.468-28.681-86.528z" fill="#2b4d66"/><path d="m293.974 450.229h-75.948c-28.022 0-50.739-22.717-50.739-50.739v-286.98c0-28.022 22.717-50.739 50.739-50.739h75.948c28.022 0 50.739 22.717 50.739 50.739v286.98c0 28.022-22.716 50.739-50.739 50.739z" fill="#b1e4f9" stroke="#b1e4f9" stroke-miterlimit="10"/><path d="m293.974 61.771h-21.752c28.022 0 50.739 22.717 50.739 50.739v286.98c0 28.022-22.717 50.739-50.739 50.739h21.752c28.022 0 50.739-22.717 50.739-50.739v-286.98c0-28.022-22.716-50.739-50.739-50.739z" fill="#90d8f9"/><path d="m275.753 368.987s4.024-11.219 15.614-11.219c9.243 0 15.614 7.462 15.614 16.152 0 10.059-8.684 21.96-31.227 32.304-22.544-10.344-31.227-22.246-31.227-32.304 0-8.69 6.37-16.152 15.614-16.152 11.587.001 15.612 11.219 15.612 11.219z" fill="#dd636e"/><g><path d="m244.56 190.897c4.143 0 7.5-3.357 7.5-7.5v-77.767c0-4.143-3.357-7.5-7.5-7.5h-16.622c-4.143 0-7.5 3.357-7.5 7.5s3.357 7.5 7.5 7.5h9.122v70.267c0 4.143 3.357 7.5 7.5 7.5z"/><path d="m284.063 98.131h-16.622c-4.143 0-7.5 3.357-7.5 7.5s3.357 7.5 7.5 7.5h9.122v70.267c0 4.143 3.357 7.5 7.5 7.5s7.5-3.357 7.5-7.5v-77.767c0-4.143-3.357-7.5-7.5-7.5z"/><path d="m292.084 208.029h-16.622c-4.143 0-7.5 3.357-7.5 7.5s3.357 7.5 7.5 7.5h9.122v70.267c0 4.143 3.357 7.5 7.5 7.5s7.5-3.357 7.5-7.5v-77.767c0-4.142-3.357-7.5-7.5-7.5z"/><path d="m212.417 272.396c0 16.535 13.453 29.987 29.988 29.987s29.988-13.452 29.988-29.987v-35.965c0-16.535-13.453-29.988-29.988-29.988s-29.988 13.453-29.988 29.988zm15-35.965c0-8.265 6.724-14.988 14.988-14.988s14.988 6.724 14.988 14.988v35.965c0 8.264-6.724 14.987-14.988 14.987s-14.988-6.724-14.988-14.987z"/><path d="m275.753 356.189c-3.742-3.335-8.901-5.921-15.614-5.921-12.961 0-23.113 10.39-23.113 23.652 0 19.825 22.305 33.021 35.6 39.121.993.456 2.061.684 3.128.684s2.135-.228 3.128-.684c13.295-6.101 35.599-19.296 35.599-39.121 0-13.263-10.152-23.652-23.113-23.652-6.714.001-11.873 2.586-15.615 5.921zm23.726 17.732c0 7.719-8.802 16.563-23.727 23.993-14.926-7.43-23.728-16.274-23.728-23.993 0-4.3 2.787-8.652 8.113-8.652 5.819 0 8.229 5.443 8.567 6.289 1.024 3.053 3.808 5.155 7.031 5.155 3.236 0 6.029-2.032 7.043-5.105.252-.649 2.637-6.339 8.586-6.339 5.328 0 8.115 4.352 8.115 8.652z"/><path d="m316.738 58.908c-2.377-9.872-3.592-19.733-3.6-29.363-.014-16.291-13.237-29.545-29.475-29.545h-24.11c-4.143 0-7.5 3.357-7.5 7.5s3.357 7.5 7.5 7.5h24.11c7.975 0 14.469 6.531 14.476 14.559.007 8.267.816 16.667 2.374 25.09-2.148-.241-4.327-.377-6.538-.377h-75.948c-2.211 0-4.39.136-6.538.377 1.558-8.423 2.367-16.823 2.374-25.091.006-8.028 6.499-14.558 14.475-14.558h1.228c4.143 0 7.5-3.357 7.5-7.5s-3.357-7.5-7.5-7.5h-1.228c-16.24 0-29.463 13.254-29.476 29.545-.008 9.63-1.223 19.491-3.6 29.363-20.833 8.881-35.476 29.563-35.476 53.602v74.052c0 4.143 3.357 7.5 7.5 7.5s7.5-3.357 7.5-7.5v-74.052c0-23.842 19.397-43.238 43.239-43.238h75.948c23.842 0 43.238 19.396 43.238 43.238v286.98c0 23.842-19.396 43.239-43.238 43.239h-75.948c-23.842 0-43.239-19.397-43.239-43.239v-182.941c0-4.143-3.357-7.5-7.5-7.5s-7.5 3.357-7.5 7.5v182.941c0 24.04 14.642 44.722 35.476 53.603 2.377 9.872 3.592 19.732 3.6 29.361.013 16.292 13.236 29.546 29.476 29.546h12.669c4.143 0 7.5-3.357 7.5-7.5s-3.357-7.5-7.5-7.5h-12.669c-7.976 0-14.469-6.53-14.476-14.559-.007-8.266-.816-16.666-2.374-25.089 2.148.241 4.327.377 6.538.377h75.948c2.211 0 4.39-.135 6.538-.377-1.558 8.422-2.367 16.822-2.374 25.089-.007 8.027-6.501 14.559-14.476 14.559h-12.669c-4.143 0-7.5 3.357-7.5 7.5s3.357 7.5 7.5 7.5h12.669c16.238 0 29.461-13.254 29.476-29.545.008-9.63 1.223-19.491 3.6-29.362 20.833-8.881 35.475-29.563 35.475-53.603v-286.98c0-24.039-14.642-44.721-35.475-53.602z"/></g></g></svg>