<svg id="Capa_1" enable-background="new 0 0 512 512" height="512" viewBox="0 0 512 512" width="512" xmlns="http://www.w3.org/2000/svg"><g><g><ellipse cx="256" cy="163.867" fill="#ffd6bd" rx="60.716" ry="60.881"/><path d="m256 206.747c-30.482 0-55.712-22.526-60.051-51.881-.434 2.938-.665 5.941-.665 9 0 33.624 27.183 60.881 60.716 60.881s60.716-27.257 60.716-60.881c0-3.059-.231-6.063-.665-9-4.339 29.355-29.569 51.881-60.051 51.881z" fill="#f9c6aa"/><path d="m359.834 311.159c-23.325-55.182-49.491-88.057-62.724-102.501-10.815 9.986-25.25 16.09-41.111 16.09s-30.296-6.104-41.111-16.09c-13.233 14.444-39.398 47.319-62.724 102.501-26.395 62.444-36.563 128.354-39.545 151.904-.754 5.957 2.099 11.78 7.256 14.833 15.555 9.211 55.12 26.104 136.125 26.104 81.007 0 120.571-16.893 136.124-26.104 5.156-3.054 8.01-8.876 7.255-14.833-2.982-23.55-13.15-89.46-39.545-151.904z" fill="#edf4fa"/><path d="m398.057 453.368c-1.257 2.666-3.289 4.962-5.933 6.528-15.553 9.211-55.117 26.104-136.124 26.104-81.005 0-120.57-16.893-136.124-26.104-2.644-1.566-4.676-3.862-5.933-6.528-.544 3.739-.981 6.997-1.322 9.694-.754 5.957 2.099 11.78 7.256 14.833 15.552 9.212 55.118 26.105 136.123 26.105 81.007 0 120.571-16.893 136.124-26.104 5.156-3.054 8.009-8.876 7.255-14.833-.341-2.697-.778-5.956-1.322-9.695z" fill="#d8e5ef"/><path d="m164.702 284.003c8.947-17.801 17.898-32.557 26.027-44.469-12.321-25.404-48.443-90.364-93.293-84.646-42.399 5.406-70.468 46.948-86.023 158.078-15.555 111.13 25.925 117.629 46.665 95.533 18.959-20.2 57.402-103.649 106.624-124.496z" fill="#ffe08c"/><path d="m164.702 284.003c8.947-17.801 17.898-32.557 26.027-44.469-12.321-25.404-48.443-90.364-93.293-84.646-42.399 5.406-70.468 46.948-86.023 158.078-15.555 111.13 25.925 117.629 46.665 95.533 18.959-20.2 57.402-103.649 106.624-124.496z" fill="#ffe08c"/><path d="m55.307 389.866c-16.804 17.902-44.447 17.658-47.115-42.419-3.002 77.753 31.546 80.59 49.886 61.051 18.959-20.199 57.402-103.649 106.624-124.495 3.031-6.031 6.062-11.703 9.062-17.043-50.308 10.432-100.555 103.834-118.457 122.906z" fill="#f9d375"/><path d="m500.587 312.966c-15.555-111.13-43.623-152.672-86.023-158.078-44.851-5.718-80.972 59.242-93.293 84.646 8.128 11.913 17.079 26.669 26.026 44.469 49.222 20.846 87.665 104.296 106.625 124.495 20.74 22.096 62.22 15.597 46.665-95.532z" fill="#ffe08c"/><path d="m456.693 389.866c16.804 17.902 44.447 17.658 47.115-42.419 3.002 77.753-31.546 80.59-49.886 61.051-18.96-20.199-57.402-103.649-106.624-124.495-3.031-6.031-6.062-11.703-9.062-17.043 50.308 10.432 100.555 103.834 118.457 122.906z" fill="#f9d375"/></g><g><path d="m508.508 312.035c-7.764-55.468-18.861-95.245-33.927-121.605-14.811-25.913-34.03-40.042-58.756-43.195-43.678-5.574-78.395 45.918-95.478 77.802-4.784-6.472-9.165-11.887-12.939-16.275 10.536-12.058 16.942-27.827 16.942-45.077 0-29.968-19.302-55.486-46.092-64.764 20.989-46.234 13.247-71.277 6.414-82.343-6.504-10.536-16.954-16.578-28.672-16.578s-22.168 6.042-28.671 16.578c-6.832 11.067-14.575 36.11 6.414 82.343-26.79 9.278-46.092 34.796-46.092 64.764 0 17.25 6.407 33.02 16.942 45.077-3.774 4.388-8.155 9.802-12.939 16.274-17.081-31.886-51.788-83.384-95.479-77.802-24.726 3.153-43.945 17.282-58.756 43.195-2.059 3.603-.808 8.194 2.795 10.254 3.603 2.061 8.194.807 10.253-2.796 12.48-21.837 27.609-33.194 47.608-35.745 38.444-4.896 71.947 53.205 83.855 76.783-7.277 10.957-15.093 24.036-22.922 39.38-35.901 16.746-64.947 62.267-86.287 95.729-8.293 13.002-15.453 24.231-20.51 29.617-5.155 5.492-13.272 10.113-20.59 6.609-6.205-2.97-11.143-11.549-13.903-24.158-3.812-17.411-3.59-41.63.658-71.986 5.214-37.255 11.778-66.548 20.067-89.549 1.407-3.904-.617-8.21-4.521-9.617-3.903-1.408-8.21.616-9.617 4.521-8.645 23.992-15.453 54.269-20.813 92.564-4.496 32.125-4.65 58.127-.455 77.284 4.836 22.088 14.685 30.953 22.096 34.5 3.709 1.776 7.69 2.638 11.747 2.637 9.129 0 18.64-4.366 26.291-12.517 6.016-6.409 13.167-17.623 22.222-31.822 16.342-25.624 37.432-58.683 61.635-78.408-.664 1.526-1.326 3.07-1.986 4.631-9.296 21.99-17.48 46.473-24.326 72.766-2.585 9.374 12.174 13.292 14.544 3.787 6.663-25.592 14.613-49.38 23.625-70.702 20.373-48.199 42.824-78.968 56.773-95.245 11.316 8.324 25.263 13.254 40.342 13.254s29.027-4.931 40.342-13.254c13.949 16.277 36.4 47.046 56.773 95.245 25.857 61.171 35.95 125.431 39.09 150.219.379 2.992-1.052 5.918-3.645 7.453-15.831 9.377-54.103 25.107-132.561 25.107-78.456 0-116.729-15.73-132.561-25.107-2.593-1.535-4.023-4.461-3.645-7.452 1.398-11.039 4.031-28.764 8.634-50.517.859-4.061-1.736-8.049-5.797-8.908-4.06-.856-8.048 1.737-8.908 5.797-4.708 22.254-7.406 40.42-8.84 51.741-1.131 8.939 3.146 17.681 10.895 22.271 17.157 10.161 58.186 27.205 140.223 27.205 82.04 0 123.066-17.045 140.22-27.204 7.749-4.59 12.026-13.332 10.895-22.272-3.217-25.407-13.572-91.29-40.157-154.183-.653-1.545-1.309-3.073-1.966-4.584 7.818 6.393 15.859 14.615 24.251 24.809 2.648 3.218 7.393 3.651 10.577 1.025 3.204-2.638 3.663-7.374 1.026-10.577-16.538-20.088-32.223-33.431-47.86-40.717-7.827-15.34-15.641-28.416-22.917-39.37 11.904-23.578 45.383-81.682 83.855-76.782 20 2.551 35.127 13.908 47.608 35.745 14.1 24.67 24.597 62.69 32.091 116.231 4.249 30.355 4.471 54.574.659 71.985-2.76 12.609-7.699 21.188-13.903 24.158-7.321 3.504-15.435-1.115-20.59-6.609-5.057-5.387-12.217-16.615-20.508-29.616-5.947-9.324-12.687-19.893-20.034-30.487-2.365-3.409-7.046-4.258-10.457-1.893s-4.258 7.047-1.893 10.457c7.181 10.356 13.839 20.796 19.712 30.006 9.054 14.197 16.205 25.411 22.221 31.82 7.651 8.151 17.16 12.517 26.291 12.517 4.056 0 8.037-.862 11.747-2.637 7.411-3.547 17.26-12.412 22.096-34.5 4.193-19.16 4.04-45.162-.456-77.287zm-268.391-287.562c3.759-6.09 9.399-9.443 15.883-9.443s12.123 3.353 15.883 9.443c4.335 7.023 11.852 27.725-8.626 71.09-2.385-.254-4.805-.39-7.257-.39s-4.871.136-7.257.39c-20.478-43.365-12.961-64.067-8.626-71.09zm15.883 192.698c-29.401 0-53.32-23.993-53.32-53.485 0-29.491 23.919-53.484 53.32-53.484s53.32 23.993 53.32 53.484c0 29.492-23.919 53.485-53.32 53.485z"/><path d="m256 306.338c4.151 0 7.515-3.364 7.515-7.515v-15.979c0-4.151-3.364-7.515-7.515-7.515s-7.515 3.364-7.515 7.515v15.979c0 4.151 3.364 7.515 7.515 7.515z"/><path d="m248.485 359.576c0 4.151 3.364 7.515 7.515 7.515s7.515-3.364 7.515-7.515v-15.979c0-4.151-3.364-7.515-7.515-7.515s-7.515 3.364-7.515 7.515z"/><path d="m248.485 420.33c0 4.151 3.364 7.515 7.515 7.515s7.515-3.364 7.515-7.515v-15.98c0-4.151-3.364-7.515-7.515-7.515s-7.515 3.364-7.515 7.515z"/><path d="m230.722 152.204c-4.151 0-7.515 3.364-7.515 7.515v7.934c0 4.151 3.364 7.515 7.515 7.515s7.515-3.364 7.515-7.515v-7.934c0-4.151-3.364-7.515-7.515-7.515z"/><path d="m281.278 152.204c-4.151 0-7.515 3.364-7.515 7.515v7.934c0 4.151 3.364 7.515 7.515 7.515s7.515-3.364 7.515-7.515v-7.934c0-4.151-3.364-7.515-7.515-7.515z"/></g></g></svg>