<svg id="Capa_1" enable-background="new 0 0 512 512" height="512" viewBox="0 0 512 512" width="512" xmlns="http://www.w3.org/2000/svg"><g><path d="m169.253 468.452c-28.514 0-51.63-23.115-51.63-51.63v-9.495l12.149-20h73.246l17.865 20v9.495c0 28.515-23.116 51.63-51.63 51.63z" fill="#365e7d"/><path d="m220.883 407.328h-23.765-79.495v9.494c0 2.532.191 5.019.543 7.454h55.442c13.001 0 20.107 15.099 11.884 25.168-7.066 8.653-16.884 14.97-28.121 17.618 3.817.899 7.791 1.39 11.882 1.39 25.982 0 47.473-19.195 51.087-44.176.827-5.721.448-9.463.543-16.948z" fill="#2b4d66"/><path d="m74.791 105.749c0 66.842-8.061 133.441-24.008 198.353l-15.992 65.096 32.684 20h147.551l88.689-20-15.992-65.096c-15.947-64.912-24.008-131.51-24.008-198.352 0-21.152-17.147-38.299-38.299-38.299h-112.326c-21.152-.001-38.299 17.146-38.299 38.298z" fill="#eab14d"/><path d="m263.715 105.749c0-21.152-17.147-38.299-38.299-38.299h-25.765c21.152 0 38.299 17.147 38.299 38.299 0 36.477 2.414 72.88 7.193 108.977 2.62 19.785-1.385 39.856-11.18 57.245-12.856 22.822-20.194 49.165-20.194 77.227 0 6.775.428 13.45 1.258 20h62.924 25.765c-8.706-42.54-40.001-130.456-40.001-263.449z" fill="#e49542"/><path d="m205.635 67.45h-72.763v-22.502c0-8.403 6.812-15.215 15.215-15.215h42.333c8.403 0 15.215 6.812 15.215 15.215z" fill="#365e7d"/><path d="m190.419 29.733h-20.071c8.403 0 15.215 6.812 15.215 15.215v22.502h20.071v-22.502c.001-8.403-6.812-15.215-15.215-15.215z" fill="#2b4d66"/><path d="m316.9 407.328h-295.294c-7.791 0-14.106-6.315-14.106-14.106v-9.919c0-7.791 6.315-14.106 14.106-14.106h295.294c7.791 0 14.106 6.315 14.106 14.106v9.919c0 7.791-6.316 14.106-14.106 14.106z" fill="#ffe07d"/><path d="m316.9 369.198h-101.874c1.683 13.298 5.026 26.079 9.809 38.131h92.065c7.791 0 14.106-6.316 14.106-14.106v-9.918c0-7.792-6.316-14.107-14.106-14.107z" fill="#ffd064"/><circle cx="371.431" cy="349.197" fill="#dd636e" r="133.069"/><path d="m371.431 216.129c-3.528 0-7.023.14-10.482.41 68.592 5.345 122.587 62.695 122.587 132.659s-53.995 127.314-122.587 132.659c3.459.27 6.954.41 10.482.41 73.492 0 133.069-59.577 133.069-133.069s-59.577-133.069-133.069-133.069z" fill="#da4a54"/><circle cx="371.431" cy="349.197" fill="#f4fbff" r="99.255"/><path d="m371.431 249.942c-4.599 0-9.123.32-13.556.925 48.403 6.611 85.7 48.112 85.7 98.33s-37.297 91.719-85.7 98.33c4.433.605 8.957.925 13.556.925 54.817 0 99.255-44.438 99.255-99.255s-44.438-99.255-99.255-99.255z" fill="#daf1f4"/><g><path d="m371.431 242.443c-58.865 0-106.755 47.89-106.755 106.755s47.89 106.755 106.755 106.755 106.755-47.89 106.755-106.755-47.89-106.755-106.755-106.755zm0 198.509c-50.594 0-91.755-41.161-91.755-91.755s41.161-91.755 91.755-91.755 91.755 41.161 91.755 91.755-41.161 91.755-91.755 91.755z"/><path d="m371.431 287.989c4.143 0 7.5-3.357 7.5-7.5v-3.436c0-4.143-3.357-7.5-7.5-7.5s-7.5 3.357-7.5 7.5v3.436c0 4.142 3.358 7.5 7.5 7.5z"/><path d="m420.015 308.113c1.919 0 3.838-.732 5.302-2.195l2.43-2.429c2.93-2.929 2.931-7.678.003-10.606-2.93-2.931-7.679-2.93-10.606-.003l-2.43 2.429c-2.93 2.929-2.931 7.678-.003 10.606 1.464 1.465 3.384 2.198 5.304 2.198z"/><path d="m432.639 349.198c0 4.143 3.357 7.5 7.5 7.5h3.436c4.143 0 7.5-3.357 7.5-7.5s-3.357-7.5-7.5-7.5h-3.436c-4.142 0-7.5 3.357-7.5 7.5z"/><path d="m302.722 341.698h-3.436c-4.143 0-7.5 3.357-7.5 7.5s3.357 7.5 7.5 7.5h3.436c4.143 0 7.5-3.357 7.5-7.5s-3.357-7.5-7.5-7.5z"/><path d="m425.319 392.478c-2.93-2.928-7.678-2.928-10.607 0-2.929 2.93-2.929 7.678 0 10.607l2.43 2.43c1.465 1.464 3.385 2.196 5.304 2.196s3.839-.732 5.304-2.196c2.929-2.93 2.929-7.678 0-10.607z"/><path d="m371.431 410.406c-4.143 0-7.5 3.357-7.5 7.5v3.435c0 4.143 3.357 7.5 7.5 7.5s7.5-3.357 7.5-7.5v-3.435c0-4.142-3.357-7.5-7.5-7.5z"/><path d="m317.542 392.48-2.429 2.43c-2.928 2.929-2.927 7.678.003 10.606 1.464 1.464 3.383 2.195 5.302 2.195 1.92 0 3.84-.732 5.305-2.198l2.429-2.43c2.928-2.929 2.927-7.678-.003-10.606-2.93-2.93-7.679-2.929-10.607.003z"/><path d="m325.721 292.88c-2.93-2.928-7.678-2.928-10.607 0-2.929 2.93-2.929 7.678 0 10.607l2.429 2.429c1.465 1.464 3.385 2.196 5.304 2.196s3.839-.732 5.304-2.196c2.929-2.93 2.929-7.678 0-10.607z"/><path d="m391.874 341.698h-12.942v-32.085c0-4.143-3.357-7.5-7.5-7.5s-7.5 3.357-7.5 7.5v39.585c0 4.143 3.357 7.5 7.5 7.5h20.442c4.143 0 7.5-3.357 7.5-7.5s-3.358-7.5-7.5-7.5z"/><path d="m485.521 267.076c-2.424-3.36-7.11-4.118-10.471-1.697-3.359 2.423-4.119 7.11-1.697 10.471 15.47 21.455 23.647 46.818 23.647 73.348 0 69.239-56.33 125.569-125.568 125.569-69.239 0-125.569-56.33-125.569-125.569s56.33-125.569 125.569-125.569c30.53 0 59.962 11.095 82.873 31.24 3.107 2.734 7.848 2.432 10.584-.68 2.735-3.11 2.432-7.85-.68-10.584-25.649-22.555-58.599-34.977-92.777-34.977-33.789 0-64.829 11.986-89.099 31.926-7.372-44.484-11.118-89.765-11.118-134.806 0-2.752-.258-5.551-.766-8.317-.748-4.073-4.665-6.769-8.731-6.022-4.074.749-6.771 4.658-6.022 8.731.344 1.876.519 3.764.519 5.609 0 49.171 4.382 98.623 13.003 147.054-23.765 25.186-38.356 59.116-38.356 96.394 0 4.213.197 8.38.562 12.5h-187.067l13.71-55.807c16.074-65.428 24.225-132.766 24.225-200.143 0-16.982 13.816-30.799 30.799-30.799 3.881 0 20.054.001 112.325 0 6.037 0 11.886 1.752 16.915 5.065 3.458 2.279 8.109 1.322 10.389-2.136 2.279-3.459 1.323-8.11-2.136-10.39-7.486-4.933-16.189-7.54-25.168-7.54h-12.281v-14.999c0-12.525-10.19-22.716-22.715-22.716h-42.333c-12.525 0-22.715 10.19-22.715 22.716v15.001h-12.282c-25.254 0-45.799 20.546-45.799 45.8 0 66.171-8.004 132.305-23.791 196.563l-14.589 59.385h-7.305c-11.914.001-21.606 9.693-21.606 21.606v9.919c0 11.914 9.692 21.606 21.606 21.606h13.185c4.142 0 7.5-3.357 7.5-7.5s-3.358-7.5-7.5-7.5h-13.185c-3.643 0-6.606-2.964-6.606-6.606v-9.919c0-3.643 2.963-6.605 6.606-6.605h211.964c1.588 7.972 3.852 15.703 6.73 23.131h-175.522c-4.142 0-7.5 3.357-7.5 7.5s3.358 7.5 7.5 7.5h45.345v1.994c0 32.604 26.525 59.13 59.13 59.13s59.13-26.525 59.13-59.13v-1.994h18.774c23.613 44.531 70.456 74.938 124.274 74.938 77.51 0 140.568-63.06 140.568-140.569.001-29.699-9.156-58.095-26.478-82.122zm-345.15-222.128c0-4.255 3.461-7.716 7.715-7.716h42.333c4.254 0 7.715 3.461 7.715 7.716v15.001h-57.763zm73.012 371.875c0 24.333-19.796 44.13-44.13 44.13s-44.13-19.797-44.13-44.13v-1.994h88.26z"/><path d="m191.95 162.174c-4.1.591-6.945 4.393-6.355 8.492l10 69.484c.538 3.738 3.745 6.433 7.414 6.433.355 0 .715-.025 1.078-.077 4.1-.591 6.945-4.393 6.355-8.492l-10-69.484c-.59-4.101-4.392-6.946-8.492-6.356z"/><path d="m138.064 168.53-10 69.484c-.59 4.1 2.255 7.901 6.355 8.492.362.052.722.077 1.078.077 3.669 0 6.876-2.695 7.414-6.433l10-69.484c.59-4.1-2.255-7.901-6.355-8.492-4.1-.588-7.902 2.257-8.492 6.356z"/></g></g></svg>