<svg id="Capa_1" enable-background="new 0 0 512 512" height="512" viewBox="0 0 512 512" width="512" xmlns="http://www.w3.org/2000/svg"><g><g><path d="m294.917 96.406h-77.835c-8.06 0-14.594-6.534-14.594-14.594v-15.567c0-8.06 6.534-14.594 14.594-14.594h77.835c8.06 0 14.594 6.534 14.594 14.594v15.567c0 8.06-6.534 14.594-14.594 14.594z" fill="#ffe08c"/><path d="m294.917 78.406h-77.835c-7.649 0-13.913-5.888-14.533-13.378-.033.402-.061.806-.061 1.217v15.567c0 8.06 6.534 14.594 14.594 14.594h77.835c8.06 0 14.594-6.534 14.594-14.594v-15.567c0-.411-.028-.814-.061-1.217-.62 7.49-6.883 13.378-14.533 13.378z" fill="#f9d375"/><path d="m294.917 126.077v-29.671h-77.835v29.671c-86.794 17.973-152.031 94.853-152.031 186.975 0 105.457 85.491 190.948 190.949 190.948s190.948-85.491 190.948-190.948c0-92.122-65.236-169.002-152.031-186.975z" fill="#f7594e"/><path d="m256 486c-102.457 0-186.058-80.697-190.733-181.998-.14 2.999-.215 6.015-.215 9.049-.001 105.458 85.49 190.949 190.948 190.949s190.948-85.491 190.948-190.948c0-3.034-.075-6.05-.215-9.049-4.675 101.3-88.276 181.997-190.733 181.997z" fill="#ea4642"/><path d="m420.04 215.256c-40.23 20.99-98.82 34.2-164.04 34.2s-123.81-13.21-164.04-34.2c6.4-10.71 13.81-20.73 22.11-29.94 38.29 15.09 87.82 24.18 141.93 24.18s103.64-9.09 141.93-24.18c8.3 9.21 15.71 19.23 22.11 29.94z" fill="#ffe08c"/><path d="m435.46 378.426c-7.66 21.04-18.92 40.35-33.03 57.18-38.86 16.17-90.18 26-146.43 26s-107.57-9.83-146.43-26c-14.11-16.83-25.37-36.14-33.03-57.18 39.78 26.15 105.33 43.22 179.46 43.22s139.68-17.07 179.46-43.22z" fill="#ffe08c"/><path d="m420.032 215.26c-40.23 20.988-98.816 34.196-164.032 34.196s-123.802-13.208-164.032-34.196c-17.09 28.604-26.916 62.049-26.916 97.792 0 22.964 4.057 44.98 11.488 65.374h.001c39.78 26.15 105.33 43.22 179.46 43.22s139.68-17.07 179.46-43.22c7.431-20.394 11.488-42.41 11.488-65.374-.001-35.743-9.826-69.189-26.917-97.792z" fill="#36ce94"/><g fill="#36bf84"><path d="m65.267 304.019c-.14 2.994-.216 6.004-.216 9.033 0 22.964 4.057 44.98 11.488 65.374h.001c3.48 2.288 7.168 4.501 11.031 6.644-13.038-24.343-20.953-51.839-22.304-81.051z"/><path d="m424.429 385.07c3.863-2.143 7.551-4.357 11.031-6.644 7.431-20.394 11.488-42.41 11.488-65.374 0-3.028-.076-6.039-.216-9.033-1.35 29.212-9.265 56.708-22.303 81.051z"/></g><g fill="#f9d375"><path d="m87.571 385.07c-3.863-2.143-7.551-4.357-11.031-6.644 7.66 21.04 18.92 40.35 33.03 57.18 9.129 3.799 18.954 7.242 29.361 10.296-21.095-16.395-38.658-37.115-51.36-60.832z"/><path d="m373.069 445.902c10.407-3.054 20.232-6.497 29.361-10.296 14.11-16.83 25.37-36.14 33.03-57.18-3.48 2.288-7.168 4.501-11.031 6.644-12.703 23.717-30.265 44.437-51.36 60.832z"/></g></g><path d="m409.57 186.856c-27.486-33.38-65.318-57.027-107.062-67.053v-17.51c8.518-3.084 14.622-11.252 14.622-20.822v-15.597c0-12.207-9.931-22.137-22.137-22.137h-13.369c2.389-4.248 3.758-9.142 3.758-14.353.001-16.203-13.18-29.384-29.382-29.384s-29.383 13.181-29.383 29.384c0 5.211 1.37 10.105 3.758 14.353h-13.369c-12.206 0-22.137 9.931-22.137 22.137v15.598c0 9.569 6.104 17.738 14.622 20.822v17.51c-41.744 10.025-79.576 33.673-107.062 67.053-29.191 35.45-45.267 80.306-45.267 126.307 0 38.182 10.853 75.272 31.384 107.261 19.988 31.142 48.145 56.057 81.428 72.052 3.742 1.799 8.23.223 10.028-3.518s.223-8.231-3.518-10.028c-14.027-6.741-27.055-15.214-38.847-25.147 35.352 10.232 76.249 15.74 118.361 15.74 42.03 0 82.85-5.487 118.154-15.68-31.971 26.896-73.199 43.127-118.152 43.127-17.689 0-35.178-2.507-51.979-7.451-3.977-1.169-8.158 1.108-9.33 5.088-1.172 3.981 1.106 8.159 5.088 9.331 18.179 5.349 37.095 8.061 56.221 8.061 109.639 0 198.837-89.198 198.837-198.837 0-46.001-16.076-90.857-45.267-126.307zm-153.57-171.827c7.915 0 14.354 6.439 14.354 14.354s-6.439 14.353-14.354 14.353-14.354-6.438-14.354-14.353c0-7.914 6.439-14.354 14.354-14.354zm-46.101 50.845c0-3.919 3.188-7.108 7.108-7.108h77.987c3.919 0 7.108 3.189 7.108 7.108v15.598c0 3.919-3.188 7.108-7.108 7.108h-77.987c-3.919 0-7.108-3.189-7.108-7.108zm-95.867 130.536c.652-.792 1.315-1.573 1.98-2.353 15.88 5.909 33.3 10.783 51.9 14.49.496.099.989.146 1.476.146 3.511 0 6.65-2.473 7.362-6.047.811-4.07-1.831-8.027-5.902-8.839-15.531-3.094-30.165-7.032-43.69-11.717 25.103-24.642 56.934-41.777 91.373-48.909 3.489-.722 5.991-3.796 5.991-7.358v-22.214h62.958v22.214c0 3.563 2.502 6.636 5.991 7.358 34.443 7.132 66.277 24.271 91.382 48.918-37.013 12.802-82.261 19.791-128.853 19.791-18.984 0-37.811-1.141-55.956-3.392-4.124-.5-7.872 2.415-8.383 6.533s2.414 7.871 6.532 8.383c18.757 2.326 38.206 3.506 57.807 3.506 50.841 0 100.294-8.098 139.994-22.855.662.777 1.324 1.556 1.974 2.346 4.155 5.046 8.021 10.301 11.591 15.732-40.247 18.987-95.613 29.787-153.56 29.787s-113.313-10.8-153.56-29.787c3.572-5.432 7.437-10.687 11.593-15.733zm-19.35 28.675c42.351 20.305 100.604 31.873 161.318 31.873s118.966-11.568 161.319-31.872c10.077 18.481 16.936 38.614 20.233 59.446-9.06-4.168-16.748-5.306-23.28-3.479-13.529 3.789-19.1 15.99-24.016 26.755-5.486 12.016-9.332 19.453-18.855 20.892-7.928 1.201-14.502-4.443-24.385-13.878-9.668-9.229-20.622-19.688-35.601-17.214-15.603 2.58-23.354 14.356-30.193 24.745-7.806 11.858-13.2 19.125-25.221 19.125s-17.415-7.267-25.221-19.125c-6.839-10.388-14.59-22.164-30.193-24.745-14.976-2.483-25.933 7.984-35.601 17.214-9.883 9.435-16.459 15.078-24.385 13.878-9.523-1.439-13.368-8.877-18.855-20.892-4.915-10.765-10.486-22.967-24.015-26.755-6.535-1.827-14.222-.688-23.281 3.479 3.296-20.833 10.155-40.966 20.232-59.447zm19.209 204.634c-4.544-5.538-8.798-11.339-12.696-17.413-3.335-5.197-6.388-10.542-9.164-16.01 42.409 20.99 101.721 33.189 163.969 33.189 17.23 0 34.399-.915 51.03-2.72 4.126-.447 7.108-4.156 6.66-8.282-.448-4.125-4.152-7.107-8.281-6.659-16.095 1.747-32.719 2.632-49.409 2.632-68.739 0-133.346-15.202-173.588-40.737-6.737-19.329-10.219-39.766-10.219-60.556 0-3.498.115-6.988.314-10.467 12.984-8.115 19.075-7.761 21.171-7.171 6.35 1.778 9.675 8.184 14.396 18.523 5.448 11.933 12.229 26.783 30.28 29.512 15.785 2.384 27.065-8.374 37.01-17.868 9.456-9.027 15.709-14.418 22.771-13.257 9.116 1.508 14.202 9.235 20.092 18.181 7.594 11.535 17.044 25.89 37.775 25.89s30.181-14.355 37.775-25.89c5.889-8.946 10.976-16.673 20.092-18.181 7.061-1.162 13.314 4.229 22.771 13.257 9.945 9.495 21.213 20.246 37.01 17.868 18.051-2.729 24.832-17.579 30.28-29.512 4.721-10.339 8.046-16.746 14.396-18.523 2.096-.588 8.188-.942 21.17 7.17.2 3.48.314 6.969.314 10.468 0 21.217-3.626 41.601-10.27 60.579-24.025 15.241-56.722 26.934-94.825 33.855-4.083.742-6.793 4.653-6.051 8.736.659 3.63 3.822 6.173 7.385 6.173.446 0 .898-.039 1.352-.122 31.397-5.702 59.441-14.583 82.467-26.009-6.089 11.942-13.443 23.134-21.888 33.397-39.222 15.948-89.535 24.722-141.98 24.722-52.504 0-102.871-8.793-142.109-24.775z"/></g></svg>