<svg id="Capa_1" enable-background="new 0 0 512 512" height="512" viewBox="0 0 512 512" width="512" xmlns="http://www.w3.org/2000/svg"><g><g><path d="m355.906 119.851h-199.812c-8.396 0-15.203-6.807-15.203-15.203 0-8.396 6.807-15.203 15.203-15.203h199.812c8.396 0 15.203 6.807 15.203 15.203 0 8.396-6.807 15.203-15.203 15.203z" fill="#ffe08c"/><path d="m355.906 101.851h-199.812c-5.024 0-9.465-2.447-12.233-6.203-1.859 2.522-2.97 5.627-2.97 9 0 8.396 6.807 15.203 15.203 15.203h199.812c8.396 0 15.203-6.807 15.203-15.203 0-3.373-1.112-6.478-2.97-9-2.768 3.756-7.209 6.203-12.233 6.203z" fill="#f9d375"/><path d="m163.696 119.851c-62.829 65.612-131.127 155.289-134.385 235.919-3.29 81.444 49.41 148.23 226.689 148.23s229.979-66.786 226.689-148.23c-3.258-80.63-71.556-170.307-134.384-235.919z" fill="#f7594e"/><path d="m482.58 353.708c-4.119 74.04-61.018 132.292-226.58 132.292s-222.461-58.252-226.58-132.292c-.037.687-.081 1.376-.109 2.061-3.29 81.445 49.41 148.231 226.689 148.231s229.979-66.786 226.689-148.23c-.028-.686-.072-1.374-.109-2.062z" fill="#ea4642"/><path d="m130.619 30.622 34.705 58.823h181.351l34.706-58.823c5.899-9.999-1.309-22.622-12.919-22.622h-224.924c-11.61 0-18.819 12.623-12.919 22.622z" fill="#f7594e"/><path d="m154.705 71.445 10.62 18h181.35l10.62-18z" fill="#ea4642"/><g><path d="m334.797 119.851h-31.967l35.999 110.958c2.591 7.987 11.166 12.36 19.153 9.769 7.987-2.591 12.36-11.166 9.769-19.153z" fill="#febd55"/></g><g><path d="m270.783 119.851-22.442 67.346c-2.655 7.966 1.651 16.575 9.617 19.23 7.966 2.654 16.575-1.651 19.23-9.617l25.645-76.958h-32.05z" fill="#febd55"/></g><path d="m260.484 261.569 14.999 30.392c.825 1.671 2.419 2.829 4.263 3.097l33.54 4.874c4.101.596 5.739 5.636 2.771 8.528l-24.27 23.657c-1.335 1.301-1.943 3.175-1.628 5.011l5.729 33.404c.701 4.085-3.587 7.199-7.255 5.271l-29.999-15.771c-1.649-.867-3.62-.867-5.269 0l-29.999 15.771c-3.668 1.928-7.955-1.186-7.255-5.271l5.729-33.404c.315-1.837-.294-3.711-1.628-5.011l-24.27-23.657c-2.968-2.893-1.33-7.932 2.771-8.528l33.54-4.874c1.844-.268 3.438-1.426 4.263-3.097l14.999-30.392c1.835-3.716 7.135-3.716 8.969 0z" fill="#ffe08c"/><g><path d="m294.208 360.734-35.573-18.702c-1.649-.867-3.62-.867-5.269 0l-35.573 18.702-1.681 9.799c-.701 4.084 3.587 7.199 7.255 5.271l29.999-15.771c1.649-.867 3.62-.867 5.269 0l29.999 15.771c3.668 1.928 7.955-1.187 7.255-5.271z" fill="#f9d375"/></g><g fill="#f9ab43"><path d="m264.784 137.851h32.05l5.999-18h-32.05z"/><path d="m334.797 119.851h-31.967l5.84 18h31.967z"/></g></g><g><path d="m415.216 466.36c-36.683 20.312-90.251 30.611-159.216 30.611-91.735 0-155.616-18.083-189.868-53.747-21.181-22.054-31.191-51.309-29.751-86.951 1.305-32.292 13.765-68.936 37.035-108.916 2.088-3.586.872-8.187-2.714-10.275-3.586-2.086-8.187-.873-10.275 2.715-24.515 42.119-37.659 81.104-39.063 115.869-1.612 39.887 9.803 72.849 33.928 97.968 37.196 38.728 104.723 58.366 200.708 58.366 71.542 0 127.56-10.932 166.496-32.491 3.631-2.011 4.944-6.584 2.934-10.214-2.011-3.631-6.582-4.947-10.214-2.935z"/><path d="m490.635 355.666c-3.238-80.123-68.138-167.475-126.233-230.133 8.447-3.324 14.444-11.558 14.444-21.171 0-11.273-8.245-20.652-19.02-22.436l28.269-47.914c9.099-14.278-2.496-34.581-19.416-33.999h-225.359c-16.922-.582-28.515 19.722-19.416 33.999l28.269 47.914c-10.775 1.784-19.02 11.163-19.02 22.437 0 9.615 5.999 17.849 14.447 21.172-28.051 30.239-51.893 59.924-70.964 88.394-2.31 3.448-1.387 8.115 2.061 10.425 3.449 2.31 8.116 1.387 10.425-2.062 20.442-30.516 46.542-62.525 77.609-95.183h93.653l-19.189 57.585c-3.966 11.899 2.489 24.806 14.389 28.772 11.495 4.108 25.156-2.711 28.771-14.389l18.469-55.424 29.016 89.432c3.523 11.708 17.131 18.632 28.657 14.617 11.929-3.872 18.486-16.727 14.616-28.656l-29.817-91.904c58.229 61.216 127.119 149.858 130.322 229.131 1.594 39.439-10.836 70.999-36.943 93.805-3.126 2.73-3.446 7.477-.716 10.603 2.738 3.136 7.49 3.438 10.603.716 29.703-25.947 43.858-61.521 42.073-105.731zm-220.536-161.34c-1.23 3.962-5.854 6.278-9.762 4.883-4.038-1.346-6.228-5.726-4.882-9.763l20.772-62.336h16.272zm90.721 29.358c1.313 4.048-.912 8.409-4.96 9.723-4.053 1.313-8.409-.913-9.723-4.96l-32.878-101.338h16.228zm-4.721-111.604h-200.198c-4.256 0-7.718-3.463-7.718-7.718s3.462-7.718 7.718-7.718h66.659c4.15 0 7.514-3.364 7.514-7.514 0-4.151-3.364-7.515-7.514-7.515h-53.12l-32.592-55.241c-2.712-5.822.072-10.709 6.472-11.332h225.359c6.393.622 9.188 5.504 6.471 11.332l-32.592 55.241h-89.94c-4.15 0-7.515 3.364-7.515 7.515s3.364 7.514 7.515 7.514h103.481c4.255 0 7.718 3.463 7.718 7.718s-3.463 7.718-7.718 7.718z"/><path d="m324.587 301.112c-1.483-4.567-5.356-7.833-10.11-8.525l-32.646-4.744-14.6-29.582c-2.125-4.306-6.428-6.981-11.23-6.982-4.802 0-9.105 2.676-11.231 6.982l-14.599 29.582-32.648 4.744c-4.752.692-8.626 3.958-10.11 8.525-1.483 4.566-.269 9.486 3.17 12.837l23.623 23.027-5.577 32.514c-.812 4.733 1.097 9.427 4.982 12.249 3.885 2.824 8.94 3.187 13.19.954l29.199-15.352 29.2 15.352c4.233 2.227 9.295 1.879 13.19-.954 3.885-2.823 5.794-7.516 4.982-12.248l-5.576-32.515 23.622-23.027c3.438-3.351 4.652-8.271 3.169-12.837zm-37.978 25.778c-3.109 3.031-4.525 7.395-3.79 11.672l4.882 28.466-25.564-13.44c-3.843-2.02-8.431-2.02-12.274 0l-25.564 13.44 4.882-28.466c.733-4.278-.684-8.642-3.792-11.673l-20.682-20.16 28.584-4.153c4.295-.625 8.006-3.323 9.927-7.214l12.782-25.899 12.781 25.898c1.921 3.892 5.631 6.589 9.93 7.215l28.582 4.153z"/></g></g></svg>