<svg id="Capa_1" enable-background="new 0 0 512 512" height="512" viewBox="0 0 512 512" width="512" xmlns="http://www.w3.org/2000/svg"><g><path d="m426.415 504.5h-340.829c-43.126 0-78.086-34.96-78.086-78.086v-340.829c0-43.125 34.96-78.085 78.086-78.085h340.829c43.125 0 78.085 34.96 78.085 78.085v340.829c0 43.126-34.96 78.086-78.085 78.086z" fill="#f4fbff"/><path d="m426.415 7.5h-26.5c43.125 0 78.085 34.96 78.085 78.085v340.829c0 43.125-34.96 78.085-78.086 78.085h26.5c43.125 0 78.086-34.96 78.086-78.085v-340.829c0-43.125-34.96-78.085-78.085-78.085z" fill="#daf1f4"/><path d="m414.16 255.999c0 87.35-70.81 158.16-158.16 158.16-32.14 0-62.03-9.58-86.99-26.05-17.92-11.82-33.29-27.19-45.12-45.12-16.47-24.96-26.05-54.86-26.05-86.99 0-87.35 70.81-158.16 158.16-158.16s158.16 70.81 158.16 158.16z" fill="#b1e4f9" stroke="#b1e4f9" stroke-miterlimit="10"/><path d="m256 97.839c-4.33 0-8.617.181-12.859.522 81.335 6.545 145.301 74.617 145.301 157.638 0 83.007-63.946 151.071-145.263 157.634 4.23.339 8.503.526 12.821.526 87.35 0 158.16-70.81 158.16-158.16s-70.81-158.16-158.16-158.16z" fill="#90d8f9"/><path d="m274.44 282.679-105.43 105.43c-17.92-11.82-33.29-27.19-45.12-45.12l105.43-105.43c5.29-5.29 13.86-5.29 19.15 0l25.97 25.97c5.29 5.29 5.29 13.86 0 19.15z" fill="#dd636e"/><path d="m274.44 263.529-4.228-4.228c-.768 1.664-1.836 3.229-3.239 4.597l-114.511 111.657c5.229 4.532 10.753 8.731 16.548 12.554l105.43-105.43c5.29-5.29 5.29-13.86 0-19.15z" fill="#da4a54"/><path d="m334.142 172.366-62.191 16.664c-3.334.893-4.451 5.061-2.01 7.502l45.527 45.527c2.441 2.441 6.609 1.324 7.502-2.01l16.664-62.191c.893-3.334-2.158-6.385-5.492-5.492z" fill="#dd636e"/><path d="m334.142 172.366-11.679 3.129-14.169 52.879c-.461 1.72-1.795 2.844-3.312 3.199l10.486 10.486c2.441 2.441 6.609 1.324 7.502-2.01l16.664-62.191c.893-3.334-2.158-6.385-5.492-5.492z" fill="#da4a54"/><g><path d="m263.5 62.649v-22.627c0-4.143-3.357-7.5-7.5-7.5s-7.5 3.357-7.5 7.5v22.627c0 4.143 3.357 7.5 7.5 7.5s7.5-3.357 7.5-7.5z"/><path d="m398.023 124.584 15.999-15.999c2.929-2.93 2.929-7.678 0-10.607-2.93-2.928-7.678-2.928-10.607 0l-15.999 15.999c-2.929 2.93-2.929 7.678 0 10.607 1.465 1.464 3.385 2.196 5.304 2.196s3.839-.732 5.303-2.196z"/><path d="m471.978 263.5c4.143 0 7.5-3.357 7.5-7.5s-3.357-7.5-7.5-7.5h-22.627c-4.143 0-7.5 3.357-7.5 7.5s3.357 7.5 7.5 7.5z"/><path d="m387.416 387.416c-2.929 2.93-2.929 7.678 0 10.607l15.999 15.999c1.465 1.464 3.385 2.196 5.304 2.196s3.839-.732 5.304-2.196c2.929-2.93 2.929-7.678 0-10.607l-15.999-15.999c-2.93-2.928-7.678-2.928-10.608 0z"/><path d="m248.5 449.351v22.626c0 4.143 3.357 7.5 7.5 7.5s7.5-3.357 7.5-7.5v-22.626c0-4.143-3.357-7.5-7.5-7.5s-7.5 3.357-7.5 7.5z"/><path d="m113.979 387.416-16 15.999c-2.93 2.929-2.93 7.678-.001 10.606 1.465 1.465 3.384 2.197 5.304 2.197 1.919 0 3.839-.732 5.303-2.196l16-15.999c2.93-2.929 2.93-7.678.001-10.606-2.93-2.93-7.679-2.929-10.607-.001z"/><path d="m40.023 248.5c-4.143 0-7.5 3.357-7.5 7.5s3.357 7.5 7.5 7.5h22.626c4.143 0 7.5-3.357 7.5-7.5s-3.357-7.5-7.5-7.5z"/><path d="m97.978 97.979c-2.929 2.929-2.929 7.678.001 10.606l16 15.999c1.464 1.464 3.384 2.196 5.303 2.196s3.839-.732 5.304-2.197c2.929-2.929 2.929-7.678-.001-10.606l-16-15.999c-2.929-2.928-7.678-2.929-10.607.001z"/><path d="m332.2 165.122-62.191 16.664c-4.123 1.104-7.37 4.353-8.474 8.476-1.104 4.122.085 8.558 3.102 11.574l45.526 45.525c6.488 6.491 17.657 3.564 20.051-5.37l16.664-62.191c1.104-4.123-.084-8.559-3.102-11.576-3.017-3.017-7.451-4.209-11.576-3.102zm-15.123 67.94-38.14-38.14 52.1-13.96z"/><path d="m90.34 255.999c0 91.312 74.015 165.66 165.66 165.66 75.289 0 141.188-50.808 160.253-123.554 1.05-4.007-1.347-8.106-5.354-9.156-4.004-1.052-8.106 1.347-9.156 5.354-17.338 66.154-77.269 112.356-145.743 112.356-26.497 0-52.218-6.89-74.964-19.967l98.708-98.708c8.204-8.204 8.204-21.554 0-29.758l-25.97-25.97c-3.976-3.975-9.26-6.164-14.879-6.164s-10.903 2.189-14.879 6.164l-43.757 43.757c-2.929 2.93-2.929 7.678 0 10.607 2.93 2.928 7.678 2.928 10.607 0l43.757-43.757c2.355-2.355 6.188-2.355 8.543 0l25.97 25.97c2.355 2.355 2.355 6.188 0 8.543l-101.008 101.009c-13.347-9.584-24.92-21.157-34.512-34.514l36.047-36.047c2.929-2.93 2.929-7.678 0-10.607-2.93-2.928-7.678-2.928-10.607 0l-33.748 33.748c-13.078-22.744-19.968-48.466-19.968-74.965 0-83.074 67.586-150.659 150.66-150.659s150.66 67.585 150.66 150.659c0 3.188-.113 6.54-.337 9.961-.27 4.133 2.862 7.702 6.996 7.973 4.122.264 7.702-2.862 7.973-6.996.244-3.744.368-7.425.368-10.938 0-91.345-74.314-165.659-165.66-165.659s-165.66 74.313-165.66 165.658z"/><path d="m426.415 0h-287.531c-4.143 0-7.5 3.357-7.5 7.5s3.357 7.5 7.5 7.5h287.531c38.921 0 70.585 31.664 70.585 70.585v340.829c0 38.921-31.664 70.586-70.585 70.586h-340.829c-38.921 0-70.586-31.665-70.586-70.586v-340.829c0-38.921 31.665-70.585 70.586-70.585h23.311c4.143 0 7.5-3.357 7.5-7.5s-3.357-7.5-7.5-7.5h-23.311c-47.192 0-85.586 38.394-85.586 85.585v340.829c0 47.192 38.394 85.586 85.586 85.586h340.829c47.191 0 85.585-38.394 85.585-85.586v-340.829c0-47.191-38.394-85.585-85.585-85.585z"/></g></g></svg>