<svg id="Capa_1" enable-background="new 0 0 512 512" height="512" viewBox="0 0 512 512" width="512" xmlns="http://www.w3.org/2000/svg"><g><g><g fill="#f7594e"><path d="m91.278 105.985h-41.031c-8.284 0-15 6.716-15 15v243.542h71.031v-243.542c0-8.284-6.715-15-15-15z"/><path d="m461.753 105.985h-41.031c-8.284 0-15 6.716-15 15v243.542h71.031v-243.542c0-8.284-6.716-15-15-15z"/><path d="m276.516 162.877h-41.031c-8.284 0-15 6.716-15 15v186.65h71.031v-186.65c0-8.284-6.716-15-15-15z"/></g><path d="m35.247 346.527h71.031v18h-71.031z" fill="#ea4642"/><path d="m405.722 346.527h71.031v18h-71.031z" fill="#ea4642"/><path d="m220.485 346.527h71.031v18h-71.031z" fill="#ea4642"/><path d="m118.532 414.249h-95.539c-8.28 0-14.993-6.712-14.993-14.993v-34.729h125.526v34.729c0 8.281-6.713 14.993-14.994 14.993z" fill="#ffe08c"/><path d="m22.993 463.274h95.539c8.281 0 14.993 6.713 14.993 14.993v25.733h-125.525v-25.733c0-8.28 6.713-14.993 14.993-14.993z" fill="#ffe08c"/><path d="m41.752 414.249h58.021v49.025h-58.021z" fill="#febd55"/><path d="m70.763 83.233c15.941 0 28.864-12.923 28.864-28.864 0-26.991-28.864-46.369-28.864-46.369s-28.864 19.378-28.864 46.37c0 15.941 12.923 28.863 28.864 28.863z" fill="#ffe08c"/><path d="m35.247 177.875v64.19l71.028-71.027.003-.005v-50.047c0-3.923-1.519-7.484-3.984-10.157z" fill="#36ce94"/><path d="m106.275 299.437-65.09 65.09h-5.938l-.002-58.26 71.03-71.03z" fill="#36ce94"/><path d="m489.007 414.249h-95.539c-8.281 0-14.993-6.713-14.993-14.993v-34.729h125.525v34.729c0 8.281-6.713 14.993-14.993 14.993z" fill="#ffe08c"/><path d="m393.468 463.274h95.539c8.281 0 14.993 6.713 14.993 14.993v25.733h-125.525v-25.733c0-8.28 6.712-14.993 14.993-14.993z" fill="#ffe08c"/><path d="m412.227 414.249h58.021v49.025h-58.021z" fill="#febd55"/><path d="m441.237 83.233c15.941 0 28.864-12.923 28.864-28.864 0-26.991-28.864-46.37-28.864-46.37s-28.864 19.378-28.864 46.37c.001 15.942 12.923 28.864 28.864 28.864z" fill="#ffe08c"/><path d="m405.722 177.875v64.19l71.027-71.027.003-.004v-50.048c0-3.923-1.519-7.484-3.984-10.157z" fill="#36ce94"/><path d="m476.749 299.437-65.09 65.09h-5.937l-.003-58.26 71.03-71.03z" fill="#36ce94"/><path d="m303.77 414.249h-95.539c-8.281 0-14.993-6.713-14.993-14.993v-34.729h125.525v34.729c0 8.281-6.713 14.993-14.993 14.993z" fill="#ffe08c"/><path d="m118.532 396.249h-95.539c-8.28 0-14.993-6.713-14.993-14.993v18c0 8.281 6.713 14.993 14.993 14.993h95.539c8.281 0 14.993-6.713 14.993-14.993v-18c.001 8.281-6.712 14.993-14.993 14.993z" fill="#f9d375"/><path d="m489.007 396.249h-95.539c-8.281 0-14.993-6.713-14.993-14.993v18c0 8.281 6.713 14.993 14.993 14.993h95.539c8.28 0 14.993-6.713 14.993-14.993v-18c0 8.281-6.713 14.993-14.993 14.993z" fill="#f9d375"/><path d="m303.77 396.249h-95.539c-8.281 0-14.993-6.713-14.993-14.993v18c0 8.281 6.713 14.993 14.993 14.993h95.539c8.281 0 14.993-6.713 14.993-14.993v-18c0 8.281-6.713 14.993-14.993 14.993z" fill="#f9d375"/><path d="m208.231 463.274h95.539c8.281 0 14.993 6.713 14.993 14.993v25.733h-125.526v-25.733c0-8.28 6.713-14.993 14.994-14.993z" fill="#ffe08c"/><path d="m8 486h125.525v18h-125.525z" fill="#f9d375"/><path d="m378.475 486h125.525v18h-125.525z" fill="#f9d375"/><path d="m193.237 486h125.525v18h-125.525z" fill="#f9d375"/><path d="m226.99 414.249h58.021v49.025h-58.021z" fill="#febd55"/><path d="m41.752 414.249h58.021v18h-58.021z" fill="#f9ab43"/><path d="m412.227 414.249h58.021v18h-58.021z" fill="#f9ab43"/><path d="m226.99 414.249h58.021v18h-58.021z" fill="#f9ab43"/><path d="m256 140.126c15.941 0 28.864-12.923 28.864-28.864 0-26.991-28.864-46.37-28.864-46.37s-28.864 19.378-28.864 46.37c0 15.941 12.923 28.864 28.864 28.864z" fill="#ffe08c"/><path d="m70.763 65.233c-13.045 0-24.064-8.656-27.639-20.537-.779 3.092-1.225 6.324-1.225 9.673 0 15.941 12.923 28.864 28.864 28.864s28.864-12.922 28.864-28.863c0-3.349-.446-6.581-1.225-9.673-3.575 11.88-14.594 20.536-27.639 20.536z" fill="#f9d375"/><path d="m441.237 65.233c-13.045 0-24.064-8.656-27.639-20.537-.779 3.092-1.225 6.324-1.225 9.673 0 15.941 12.923 28.864 28.864 28.864s28.864-12.923 28.864-28.864c0-3.349-.446-6.581-1.225-9.673-3.574 11.881-14.593 20.537-27.639 20.537z" fill="#f9d375"/><path d="m256 122.126c-13.045 0-24.064-8.656-27.639-20.537-.779 3.092-1.225 6.324-1.225 9.673 0 15.941 12.923 28.864 28.864 28.864s28.864-12.923 28.864-28.864c0-3.349-.446-6.581-1.225-9.673-3.575 11.88-14.594 20.537-27.639 20.537z" fill="#f9d375"/><path d="m290.383 172.166c-2.247-5.45-7.607-9.289-13.868-9.289h-41.031c-8.284 0-15 6.716-15 15v64.187z" fill="#36ce94"/><path d="m291.512 299.437-65.09 65.09h-5.937l-.003-58.26 71.03-71.03z" fill="#36ce94"/><path d="m35.247 346.527v-40.262l-.002.002.002 58.26h5.938l18-18z" fill="#36bf84"/><path d="m405.722 346.527v-40.262l-.003.002.003 58.26h5.937l18-18z" fill="#36bf84"/><path d="m220.485 346.527v-40.263l-.003.003.003 58.26h5.937l18-18z" fill="#36bf84"/></g><g><path d="m133.286 357.225h-19.786v-236.504c0-12.431-10.114-22.544-22.544-22.544h-13.041v-8.55c16.497-3.473 28.921-18.137 28.921-35.652 0-30.698-30.931-51.815-32.247-52.699-2.534-1.701-5.843-1.701-8.378 0-1.316.884-32.245 22.002-32.245 52.699 0 17.515 12.423 32.179 28.92 35.652v8.551h-13.041c-12.431 0-22.544 10.114-22.544 22.544v236.504h-19.786c-4.151 0-7.515 3.364-7.515 7.515v34.797c0 12.427 10.111 22.537 22.537 22.537h11.281v34.092h-11.281c-12.426-.001-22.537 10.109-22.537 22.536v25.783c0 4.15 3.364 7.514 7.515 7.514h125.771c4.151 0 7.515-3.364 7.515-7.515v-25.783c0-12.427-10.111-22.537-22.537-22.537h-11.281v-34.092h11.281c12.427 0 22.537-10.111 22.537-22.537v-34.796c0-4.151-3.365-7.515-7.515-7.515zm-84.291-303.25c0-16.906 14.146-30.906 21.405-36.977 7.265 6.075 21.406 20.073 21.406 36.977 0 11.803-9.603 21.406-21.406 21.406-11.802 0-21.405-9.603-21.405-21.406zm-6.665 66.746c0-4.144 3.371-7.515 7.515-7.515h38.858l-46.373 46.373zm0 124.431 21.431-21.43c2.934-2.936 2.934-7.693 0-10.628-2.935-2.934-7.693-2.934-10.628 0l-10.803 10.801v-43.06l56.141-56.141v43.06l-24.084 24.086c-2.934 2.934-2.934 7.693.001 10.627s7.692 2.934 10.627-.001l13.456-13.456v43.07l-56.141 56.141zm0 64.326 56.141-56.142v43.069l-56.141 56.141zm56.141 8.184v39.564h-39.564zm19.792 153.533c4.14 0 7.508 3.368 7.508 7.508v18.268h-110.741v-18.268c0-4.14 3.368-7.508 7.508-7.508zm-69.416-15.029v-34.092h43.106v34.092zm76.924-56.63c0 4.14-3.368 7.508-7.508 7.508h-95.726c-4.14 0-7.508-3.368-7.508-7.508v-27.282h110.742z"/><path d="m489.463 422.074c12.427 0 22.537-10.111 22.537-22.537v-34.797c0-4.151-3.364-7.515-7.515-7.515h-19.785v-236.504c0-12.431-10.113-22.544-22.544-22.544h-13.041v-8.551c16.496-3.473 28.92-18.137 28.92-35.652 0-30.697-30.93-51.815-32.246-52.699-2.534-1.703-5.843-1.701-8.378 0-1.316.884-32.247 22.001-32.247 52.699 0 17.515 12.424 32.179 28.921 35.652v8.55h-13.041c-12.431 0-22.544 10.114-22.544 22.544v236.504h-19.786c-4.151 0-7.515 3.364-7.515 7.515v34.797c0 12.427 10.111 22.537 22.537 22.537h11.281v34.092h-11.281c-12.427 0-22.537 10.111-22.537 22.537v25.783c0 4.151 3.364 7.515 7.515 7.515h125.771c4.151 0 7.515-3.364 7.515-7.515v-25.783c0-12.427-10.111-22.537-22.537-22.537h-11.281v-34.092h11.281zm-69.269-368.099c0-16.906 14.146-30.906 21.405-36.977 7.266 6.075 21.406 20.073 21.406 36.977 0 11.803-9.603 21.406-21.405 21.406-11.803 0-21.406-9.603-21.406-21.406zm49.476 178.104-56.141 56.142v-43.069l56.141-56.142zm-56.14 77.399 56.141-56.142v43.069l-56.141 56.141zm56.14 8.184v39.564h-39.564zm-48.626-204.455h38.859l-14.981 14.98c-2.935 2.934-2.935 7.693-.001 10.627 2.934 2.935 7.693 2.935 10.627.001l14.122-14.122v43.06l-56.141 56.142v-43.059l20.765-20.765c2.935-2.935 2.935-7.693 0-10.628-2.935-2.934-7.693-2.934-10.628 0l-10.137 10.137v-38.858c.001-4.145 3.371-7.515 7.515-7.515zm-34.815 286.329v-27.282h110.742v27.282c0 4.14-3.368 7.508-7.508 7.508h-95.726c-4.14 0-7.508-3.368-7.508-7.508zm110.742 79.167v18.268h-110.742v-18.268c0-4.14 3.368-7.508 7.508-7.508h95.726c4.14 0 7.508 3.368 7.508 7.508zm-33.818-22.537h-43.106v-34.092h43.106z"/><path d="m318.886 357.225h-19.786v-179.501c0-12.431-10.114-22.544-22.544-22.544h-13.041v-8.551c16.496-3.473 28.92-18.137 28.92-35.651 0-30.697-30.93-51.815-32.246-52.699-2.534-1.701-5.843-1.701-8.378 0-1.316.883-32.246 22.002-32.246 52.699 0 17.514 12.423 32.178 28.92 35.651v8.551h-13.041c-12.431 0-22.544 10.113-22.544 22.544v179.501h-19.786c-4.151 0-7.515 3.364-7.515 7.515v34.797c0 12.427 10.111 22.537 22.537 22.537h11.281v34.092h-11.281c-12.427 0-22.537 10.111-22.537 22.537v25.783c0 4.151 3.364 7.515 7.515 7.515h125.771c4.151 0 7.515-3.364 7.515-7.515v-25.783c0-12.427-10.111-22.537-22.537-22.537h-11.281v-34.092h11.281c12.427 0 22.537-10.111 22.537-22.537v-34.797c0-4.151-3.364-7.515-7.514-7.515zm-84.291-246.246c0-16.906 14.146-30.906 21.404-36.977 7.266 6.075 21.406 20.073 21.406 36.977 0 11.802-9.603 21.405-21.405 21.405s-21.405-9.603-21.405-21.405zm-6.665 66.745c0-4.144 3.371-7.515 7.515-7.515h41.112c1.443 0 2.788.416 3.934 1.124l-52.561 52.561zm0 131.754 22.473-22.473c2.934-2.935 2.934-7.693 0-10.628-2.936-2.933-7.693-2.933-10.628 0l-11.844 11.845v-43.07l56.141-56.142v43.069l-23.042 23.042c-2.935 2.935-2.935 7.693 0 10.628 2.936 2.934 7.692 2.934 10.628 0l12.414-12.414v43.07l-56.141 56.141v-43.068zm56.141 8.184v39.564h-39.564zm19.792 153.533c4.14 0 7.508 3.368 7.508 7.508v18.268h-110.742v-18.268c0-4.14 3.368-7.508 7.508-7.508zm-69.416-15.029v-34.092h43.106v34.092zm76.924-56.63c0 4.14-3.368 7.508-7.508 7.508h-95.726c-4.14 0-7.508-3.368-7.508-7.508v-27.282h110.742z"/></g></g></svg>