<svg id="Capa_1" enable-background="new 0 0 511.827 511.827" height="512" viewBox="0 0 511.827 511.827" width="512" xmlns="http://www.w3.org/2000/svg"><g><path d="m322.443 504.327h-133.059c-16.081 0-31.217-7.599-40.824-20.495l-34.229-45.947 30.124-20h220.248l32.793 20-34.229 45.947c-9.607 12.897-24.743 20.495-40.824 20.495z" fill="#8b5e5e"/><path d="m364.703 417.885h-31.337l32.793 20-34.229 45.947c-9.607 12.896-24.743 20.495-40.824 20.495h31.337c16.082 0 31.217-7.599 40.824-20.495l34.229-45.947z" fill="#785252"/><path d="m364.703 66.766-31.835 20h-155.026l-30.719-20v-3.71c0-30.683 24.873-55.556 55.556-55.556h106.467c30.683 0 55.556 24.873 55.556 55.556v3.71z" fill="#8b5e5e"/><path d="m309.147 7.5h-26.312c30.683 0 55.556 24.873 55.556 55.556v3.71l-31.834 20h26.312l31.834-20v-3.71c0-30.683-24.873-55.556-55.556-55.556z" fill="#785252"/><path d="m147.124 99.559h217.579v305.533h-217.579z" fill="#664545"/><path d="m364.703 118.114v-18.555h-18.555-180.469-18.555v305.533h217.579v-17.049zm-27.99 269.929h-161.6c-5.21 0-9.434-4.224-9.434-9.434v-251.06c0-5.21 4.224-9.434 9.434-9.434h161.599c5.21 0 9.434 4.224 9.434 9.434v251.061c.001 5.21-4.223 9.433-9.433 9.433z" fill="#523838"/><path d="m424.013 66.766h-336.199l26.517 32.793h283.165z" fill="#eab14d"/><path d="m397.496 66.766-26.518 32.793h26.518l26.517-32.793z" fill="#e49542"/><path d="m424.013 437.885h-336.199l26.517-32.793h283.165z" fill="#eab14d"/><path d="m397.496 405.092h-26.518l26.518 32.793h26.517z" fill="#e49542"/><path d="m-22.039 235.929h305.533v32.793h-305.533z" fill="#8b5e5e" transform="matrix(0 1 -1 0 383.053 121.598)"/><path d="m114.331 388.043h32.793v17.049h-32.793z" fill="#785252"/><path d="m114.331 99.559h32.793v18.555h-32.793z" fill="#785252"/><path d="m228.333 235.929h305.533v32.793h-305.533z" fill="#8b5e5e" transform="matrix(0 1 -1 0 633.425 -128.774)"/><path d="m364.703 388.043h32.792v17.049h-32.792z" fill="#785252"/><path d="m364.703 99.559h32.792v18.555h-32.792z" fill="#785252"/><circle cx="255.913" cy="187.676" fill="#f4fbff" r="56.305"/><path d="m255.914 131.372c-3.61 0-7.135.354-10.556 1.002 26.048 4.943 45.748 27.816 45.748 55.302s-19.7 50.359-45.748 55.302c3.421.649 6.947 1.002 10.556 1.002 31.096 0 56.305-25.208 56.305-56.305s-25.209-56.303-56.305-56.303z" fill="#daf1f4"/><path d="m309.511 258.348c-7.659 22.242-28.755 38.229-53.597 38.229-24.843 0-45.938-15.987-53.598-38.229h-12.073v123.8h131.342v-123.8z" fill="#f4fbff"/><g fill="#daf1f4"><path d="m236.169 296.577c3.369 0 6.666-.303 9.872-.867-20.442-3.593-37.105-18.136-43.725-37.362h-12.073v14.74c10.295 14.225 27.022 23.489 45.926 23.489z"/><path d="m309.511 258.348c-1.831 5.317-4.437 10.271-7.671 14.74v109.061h19.744v-123.8h-12.073z"/></g><circle cx="255.914" cy="342.131" fill="#eab14d" r="14.627"/><g><path d="m404.996 402.438v-300.226l24.85-30.729c1.817-2.247 2.182-5.339.937-7.947-1.245-2.607-3.878-4.269-6.769-4.269h-51.935c-1.968-33.01-29.436-59.267-62.933-59.267h-76.011c-4.143 0-7.5 3.357-7.5 7.5s3.357 7.5 7.5 7.5h76.011c25.224 0 45.972 19.532 47.909 44.267h-202.284c1.938-24.735 22.685-44.267 47.909-44.267h.469c4.143 0 7.5-3.357 7.5-7.5s-3.357-7.5-7.5-7.5h-.469c-33.495 0-60.964 26.257-62.932 59.267h-51.935c-2.891 0-5.523 1.661-6.769 4.269-1.245 2.608-.881 5.7.937 7.947l24.85 30.729v234.261c0 4.143 3.357 7.5 7.5 7.5s7.5-3.357 7.5-7.5v-229.414h17.793v290.533h-17.793v-31.132c0-4.143-3.357-7.5-7.5-7.5s-7.5 3.357-7.5 7.5v35.979l-24.85 30.73c-1.817 2.247-2.182 5.339-.937 7.947 1.245 2.607 3.879 4.269 6.769 4.269h22.752l31.979 42.928c10.969 14.725 28.479 23.515 46.84 23.515h133.058c18.361 0 35.871-8.791 46.839-23.515l31.98-42.928h22.752c2.891 0 5.523-1.661 6.769-4.269 1.245-2.608.881-5.7-.937-7.947zm-32.793-295.379h17.793v290.533h-17.793zm-254.292-15-14.388-17.792h304.78l-14.388 17.792zm36.713 15h202.579v290.533h-202.579zm202.628 372.293c-8.151 10.942-21.164 17.476-34.81 17.476h-133.057c-13.646 0-26.659-6.533-34.811-17.476l-25.304-33.967h253.286zm-253.729-48.967 14.387-17.792c12.688 0 264.741-.001 276.006-.001l14.388 17.793z"/><path d="m321.584 250.848h-12.073c-3.201 0-6.049 2.031-7.092 5.058-6.832 19.842-25.521 33.172-46.506 33.172s-39.673-13.33-46.505-33.172c-1.043-3.026-3.891-5.058-7.092-5.058h-12.074c-4.143 0-7.5 3.357-7.5 7.5v123.8c0 4.143 3.357 7.5 7.5 7.5h131.342c4.143 0 7.5-3.357 7.5-7.5v-123.8c0-4.143-3.357-7.5-7.5-7.5zm-65.67 84.156c3.93 0 7.126 3.197 7.126 7.127s-3.196 7.127-7.126 7.127-7.127-3.197-7.127-7.127 3.197-7.127 7.127-7.127zm58.17 39.643h-116.342v-107.625c9.394 20.157 28.622 34.021 50.672 36.609v17.683c-8.521 3.08-14.627 11.247-14.627 20.816 0 12.201 9.926 22.127 22.127 22.127 12.2 0 22.126-9.926 22.126-22.127 0-9.569-6.106-17.737-14.626-20.816v-17.683c22.049-2.589 41.275-16.453 50.67-36.607z"/><path d="m255.913 163.839c4.143 0 7.5-3.357 7.5-7.5v-2.192c0-4.143-3.357-7.5-7.5-7.5s-7.5 3.357-7.5 7.5v2.192c0 4.142 3.358 7.5 7.5 7.5z"/><path d="m287.251 180.176c-4.143 0-7.5 3.357-7.5 7.5s3.357 7.5 7.5 7.5h2.192c4.143 0 7.5-3.357 7.5-7.5s-3.357-7.5-7.5-7.5z"/><path d="m255.913 211.514c-4.143 0-7.5 3.357-7.5 7.5v2.192c0 4.143 3.357 7.5 7.5 7.5s7.5-3.357 7.5-7.5v-2.192c0-4.143-3.357-7.5-7.5-7.5z"/><path d="m222.384 180.176c-4.143 0-7.5 3.357-7.5 7.5s3.357 7.5 7.5 7.5h2.192c4.143 0 7.5-3.357 7.5-7.5s-3.357-7.5-7.5-7.5z"/><path d="m269.426 187.676c0-3.633-2.583-6.662-6.013-7.353v-5.354c0-4.143-3.357-7.5-7.5-7.5s-7.5 3.357-7.5 7.5v12.707c0 4.143 3.357 7.5 7.5 7.5h6.013c4.142 0 7.5-3.358 7.5-7.5z"/><path d="m276.324 44.633c4.143 0 7.5-3.357 7.5-7.5s-3.357-7.5-7.5-7.5h-40.822c-4.143 0-7.5 3.357-7.5 7.5s3.357 7.5 7.5 7.5z"/><path d="m255.914 251.481c15.33 0 30.149-5.519 41.729-15.538 11.458-9.915 19.031-23.582 21.327-38.485.63-4.094-2.178-7.924-6.271-8.555-4.101-.635-7.924 2.179-8.555 6.271-3.626 23.549-24.361 41.307-48.23 41.307-26.911 0-48.805-21.894-48.805-48.805s21.894-48.805 48.805-48.805c19.887 0 37.614 11.895 45.164 30.303 1.572 3.833 5.953 5.668 9.785 4.094 3.833-1.572 5.665-5.953 4.094-9.785-9.869-24.063-33.045-39.611-59.043-39.611-35.182 0-63.805 28.623-63.805 63.805s28.623 63.804 63.805 63.804z"/></g></g></svg>