<svg id="Capa_1" enable-background="new 0 0 512 512" height="512" viewBox="0 0 512 512" width="512" xmlns="http://www.w3.org/2000/svg"><g><g><path d="m406.007 121.306h-300.014c-8.277 0-14.987-6.71-14.987-14.987v-21.051c0-8.277 6.71-14.987 14.987-14.987h300.015c8.277 0 14.987 6.71 14.987 14.987v21.051c-.001 8.277-6.711 14.987-14.988 14.987z" fill="#ffe08c"/><path d="m406.007 103.306h-300.014c-8.277 0-14.987-6.71-14.987-14.987v18c0 8.277 6.71 14.987 14.987 14.987h300.015c8.277 0 14.987-6.71 14.987-14.987v-18c-.001 8.277-6.711 14.987-14.988 14.987z" fill="#f9d375"/><path d="m111.081 121.306h289.838v156.831h-289.838z" fill="#ffe08c"/><path d="m111.081 260.137h289.838v18h-289.838z" fill="#f9d375"/><path d="m235.506 121.306h40.987v156.831h-40.987z" fill="#f7594e"/><path d="m235.506 260.137h40.987v18h-40.987z" fill="#ea4642"/><path d="m229.91 70.281h52.179v51.025h-52.179z" fill="#f7594e"/><path d="m229.91 103.306h52.179v18h-52.179z" fill="#ea4642"/><path d="m441.96 329.162h-371.92c-8.277 0-14.987-6.71-14.987-14.987v-21.051c0-8.277 6.71-14.987 14.987-14.987h371.92c8.277 0 14.987 6.71 14.987 14.987v21.051c0 8.277-6.71 14.987-14.987 14.987z" fill="#f7594e"/><path d="m441.96 311.161h-371.92c-8.277 0-14.987-6.71-14.987-14.987v18c0 8.277 6.71 14.987 14.987 14.987h371.92c8.277 0 14.987-6.71 14.987-14.987v-18c0 8.278-6.71 14.987-14.987 14.987z" fill="#ea4642"/><path d="m421.884 503.992h-331.769c-8.277 0-14.987-6.71-14.987-14.987v-159.843h361.743v159.844c0 8.276-6.71 14.986-14.987 14.986z" fill="#f7594e"/><path d="m235.506 329.162h40.987v174.831h-40.987z" fill="#ffe08c"/><path d="m421.884 485.992h-331.769c-8.277 0-14.987-6.71-14.987-14.987v18c0 8.277 6.71 14.987 14.987 14.987h331.769c8.277 0 14.987-6.71 14.987-14.987v-18c0 8.277-6.709 14.987-14.987 14.987z" fill="#ea4642"/><path d="m235.506 485.992h40.987v18h-40.987z" fill="#f9d375"/><path d="m229.91 278.137h52.179v51.025h-52.179z" fill="#ffe08c"/><path d="m229.91 311.161h52.179v18h-52.179z" fill="#f9d375"/><path d="m238.138 35.232h35.724v35.049h-35.724z" fill="#cb3541"/><path d="m238.138 35.232s-31.155-35.258-56.328-25.549c-26.024 10.038-7.807 60.598-7.807 60.598h64.135z" fill="#f7594e"/><path d="m273.862 35.232s31.155-35.258 56.328-25.549c26.024 10.038 7.807 60.598 7.807 60.598h-64.135z" fill="#f7594e"/><path d="m238.138 52.281h35.724v18h-35.724z" fill="#ba3243"/><g fill="#ea4642"><path d="m174.002 70.281h64.135v-18h-68.802c1.836 10.138 4.667 18 4.667 18z"/><path d="m273.862 52.282v-17.05 35.049h64.135s2.831-7.862 4.667-18h-68.802z"/></g></g><path d="m442.33 270.666h-33.608v-142.244c11.291-1.21 20.115-10.793 20.115-22.401v-21.092c0-12.424-10.108-22.532-22.532-22.532h-58.079c1.289-5.057 2.644-11.549 3.284-18.371 2.593-27.696-8.611-38.041-18.467-41.843-25.608-9.885-54.058 16.515-62.4 25.096h-29.284c-8.343-8.58-36.794-34.977-62.4-25.096-9.856 3.802-21.06 14.147-18.467 41.843.639 6.823 1.995 13.315 3.284 18.371h-58.079c-12.424 0-22.532 10.108-22.532 22.532v21.093c0 11.607 8.824 21.19 20.115 22.401v142.243h-33.61c-12.424 0-22.531 10.108-22.531 22.532v21.093c0 11.608 8.823 21.191 20.115 22.401v152.778c0 12.424 10.107 22.531 22.531 22.531h44.777c4.151 0 7.515-3.364 7.515-7.515s-3.364-7.515-7.515-7.515h-44.777c-4.136 0-7.501-3.365-7.501-7.501v-152.648h145.667v160.148h-63.329c-4.151 0-7.515 3.364-7.515 7.515s3.364 7.515 7.515 7.515h257.592c12.424 0 22.531-10.107 22.531-22.531v-152.778c11.292-1.209 20.115-10.793 20.115-22.401v-21.093c.001-12.423-10.106-22.531-22.53-22.531zm-204.228-193.239h35.796.729v36.097h-37.254v-36.097zm4.879 51.127h26.038v142.112h-26.038zm-5.608 157.142h37.254v36.097h-37.254zm46.676-15.03v-142.112h109.643v142.112zm129.758-185.737v21.093c0 4.137-3.365 7.502-7.502 7.502h-116.648v-36.097h116.648c4.137 0 7.502 3.365 7.502 7.502zm-86.174-68.724c13.756 5.306 9.129 32.102 5.048 46.192h-50.54-.729v-24.662c9.2-9.574 30.78-27.486 46.221-21.53zm-61.25 46.192h-20.766v-20.089h20.766zm-82.016-46.192c15.436-5.953 37.021 11.954 46.221 21.53v24.662h-.729-50.539c-4.084-14.094-8.708-40.887 5.047-46.192zm-66.059 112.349h34.291c4.151 0 7.515-3.364 7.515-7.515s-3.364-7.515-7.515-7.515h-46.904c-4.137 0-7.502-3.365-7.502-7.502v-21.093c0-4.137 3.365-7.502 7.502-7.502h116.649v36.097h-39.685c-4.151 0-7.515 3.364-7.515 7.515s3.364 7.515 7.515 7.515h45.293v142.112h-109.644zm-56.139 185.736v-21.093c0-4.137 3.365-7.502 7.501-7.502h152.673v36.097h-152.673c-4.136.001-7.501-3.365-7.501-7.502zm180.812 182.68v-160.148h26.038v160.148zm206.85-182.68c0 4.137-3.365 7.502-7.501 7.502h-67.898c-4.151 0-7.515 3.364-7.515 7.515s3.364 7.515 7.515 7.515h55.284v152.647c0 4.136-3.365 7.501-7.501 7.501h-138.166v-160.148h60.323c4.151 0 7.515-3.364 7.515-7.515s-3.364-7.515-7.515-7.515h-54.715v-36.097h152.673c4.136 0 7.501 3.365 7.501 7.502z"/></g></svg>