<svg id="Capa_1" enable-background="new 0 0 512 512" height="512" viewBox="0 0 512 512" width="512" xmlns="http://www.w3.org/2000/svg"><g><circle cx="213.045" cy="218.355" fill="#365e7d" r="205.544"/><path d="m418.589 218.355c0-113.519-92.025-205.544-205.545-205.544-4.622 0-9.204.168-13.75.469 102.32 6.76 184.171 88.382 191.282 190.605.483 6.946-5.209 12.689-12.17 12.541-1.067-.023-2.137-.034-3.21-.034-84.773 0-153.496 68.722-153.496 153.496 0 7.961.608 15.779 1.779 23.411 2.314 15.087-8.645 29.083-23.874 30.113-.104.007-.208.014-.312.021 4.546.3 9.128.469 13.75.469 114.192-.003 205.546-92.786 205.546-205.547z" fill="#2b4d66"/><circle cx="213.045" cy="218.355" fill="#f4fbff" r="157.782"/><path d="m370.827 218.355c0-87.14-70.641-157.782-157.782-157.782-4.275 0-8.508.176-12.697.51 81.505 6.491 145.56 74.913 145.082 158.198-.003.004-.005.006-.009.01-66.577 13.089-116.233 68.597-122.944 134.833-1.154 11.386-10.071 20.493-21.476 21.45-.218.018-.435.036-.653.053 91.876 7.32 170.479-65.064 170.479-157.272z" fill="#daf1f4"/><circle cx="375.197" cy="369.886" fill="#dd636e" r="129.303"/><path d="m375.197 240.583c-5.034 0-9.998.298-14.882.858 64.401 7.382 114.421 62.068 114.421 128.446s-50.02 121.064-114.421 128.446c4.884.56 9.848.858 14.882.858 71.412 0 129.303-57.891 129.303-129.303 0-71.414-57.891-129.305-129.303-129.305z" fill="#da4a54"/><path d="m396.41 369.886 38.096-38.097c5.858-5.857 5.858-15.355 0-21.213-5.857-5.857-15.355-5.857-21.213 0l-38.096 38.097-38.096-38.097c-5.857-5.859-15.355-5.857-21.213 0s-5.858 15.355 0 21.213l38.096 38.097-38.096 38.097c-5.858 5.857-5.858 15.355 0 21.213 2.929 2.929 6.768 4.394 10.606 4.394s7.678-1.465 10.606-4.394l38.096-38.097 38.096 38.097c2.929 2.93 6.768 4.394 10.606 4.394s7.678-1.465 10.606-4.394c5.858-5.857 5.858-15.355 0-21.213z" fill="#f4fbff"/><g><path d="m396.41 369.886 38.096-38.097c5.858-5.857 5.858-15.355 0-21.213-5.712-5.712-14.878-5.837-20.762-.408.149.138.306.263.451.408 5.858 5.857 5.858 15.355 0 21.213l-31.816 31.817c-3.468 3.468-3.468 9.092 0 12.56l31.816 31.817c5.858 5.857 5.858 15.355 0 21.213-.145.146-.302.271-.451.408 2.867 2.646 6.506 3.985 10.155 3.985 3.839 0 7.678-1.465 10.606-4.394 5.858-5.857 5.858-15.355 0-21.213z" fill="#daf1f4"/></g><g><path d="m213.045 83.786c-4.143 0-7.5 3.357-7.5 7.5v10.602c0 4.143 3.357 7.5 7.5 7.5s7.5-3.357 7.5-7.5v-10.602c0-4.142-3.357-7.5-7.5-7.5z"/><path d="m300.702 141.304 7.497-7.496c2.93-2.929 2.93-7.678.001-10.606s-7.678-2.93-10.606-.001l-7.497 7.496c-2.93 2.929-2.93 7.678-.001 10.606 2.928 2.928 7.676 2.93 10.606.001z"/><path d="m340.114 225.854c4.143 0 7.5-3.357 7.5-7.5s-3.357-7.5-7.5-7.5h-10.603c-4.143 0-7.5 3.357-7.5 7.5s3.357 7.5 7.5 7.5z"/><path d="m208.629 337.906v10.603c0 4.143 3.357 7.5 7.5 7.5s7.5-3.357 7.5-7.5v-10.603c0-4.143-3.357-7.5-7.5-7.5s-7.5 3.358-7.5 7.5z"/><path d="m117.89 313.51c2.931 2.929 7.678 2.928 10.607 0l7.497-7.497c2.929-2.93 2.929-7.678 0-10.607-2.93-2.928-7.678-2.928-10.607 0l-7.497 7.497c-2.929 2.929-2.929 7.677 0 10.607z"/><path d="m96.578 225.854c4.143 0 7.5-3.357 7.5-7.5s-3.357-7.5-7.5-7.5h-10.602c-4.143 0-7.5 3.357-7.5 7.5s3.357 7.5 7.5 7.5z"/><path d="m125.388 141.304c2.928 2.928 7.677 2.929 10.606-.001 2.929-2.929 2.929-7.678-.001-10.606l-7.497-7.496c-2.928-2.928-7.677-2.929-10.606.001-2.929 2.929-2.929 7.678.001 10.606z"/><path d="m205.545 213.939h-28.945c-4.143 0-7.5 3.357-7.5 7.5s3.357 7.5 7.5 7.5h36.445c4.143 0 7.5-3.357 7.5-7.5v-70.977c0-4.143-3.357-7.5-7.5-7.5s-7.5 3.357-7.5 7.5z"/><path d="m424.728 242.365c.899-7.993 1.361-16.043 1.361-24.009 0-54.785-20.758-106.842-58.449-146.582-2.852-3.007-7.599-3.13-10.603-.28-3.006 2.851-3.131 7.598-.28 10.603 35.036 36.941 54.332 85.332 54.332 136.26 0 6.388-.322 12.835-.945 19.257-10.405-2.751-21.291-4.302-32.503-4.5.439-4.922.686-9.858.686-14.758 0-91.137-74.145-165.282-165.281-165.282s-165.283 74.145-165.283 165.281c0 18.364 3 36.42 8.917 53.664 1.067 3.112 3.978 5.068 7.093 5.068.808 0 1.629-.131 2.435-.408 3.918-1.344 6.005-5.609 4.66-9.527-5.378-15.675-8.104-32.093-8.104-48.797 0-82.866 67.416-150.282 150.282-150.282 82.865 0 150.281 67.416 150.281 150.282 0 5.083-.272 10.214-.791 15.318-68.406 6.309-122.388 63.185-124.098 132.806-8.373 1.424-16.887 2.158-25.392 2.158-53.52 0-103.418-28.824-130.223-75.226-2.072-3.587-6.66-4.813-10.246-2.742-3.586 2.072-4.814 6.659-2.742 10.246 28.624 49.55 82.145 82.722 143.211 82.722 8.652 0 17.316-.68 25.857-2.022.949 11.128 3.227 21.884 6.691 32.099-10.734 1.775-21.644 2.687-32.547 2.687-109.204-.002-198.047-88.843-198.047-198.046s88.843-198.044 198.045-198.044c44.857 0 87.16 14.624 122.335 42.291 3.254 2.563 7.971 1.997 10.531-1.258 2.562-3.256 1.998-7.971-1.258-10.531-37.844-29.768-83.354-45.502-131.608-45.502-117.474 0-213.045 95.571-213.045 213.044s95.571 213.044 213.045 213.044c12.841 0 25.696-1.164 38.3-3.453 21.879 46.484 69.166 78.743 123.852 78.743 28.344 0 55.542-8.599 78.653-24.866 3.388-2.384 4.201-7.062 1.816-10.449-2.383-3.387-7.062-4.202-10.449-1.816-20.571 14.479-44.783 22.132-70.021 22.132-66.339 0-121.804-53.76-121.804-121.804 0-67.163 54.641-121.804 121.804-121.804 67.162 0 121.803 54.641 121.803 121.804 0 29.821-10.896 58.521-30.68 80.812-2.75 3.098-2.467 7.838.631 10.588 3.098 2.748 7.838 2.467 10.588-.631 22.224-25.039 34.462-57.274 34.462-90.769 0-57.974-36.25-107.635-87.272-127.521z"/><path d="m439.81 305.272c-8.773-8.771-23.047-8.772-31.82.001l-32.792 32.793-32.793-32.793c-8.79-8.794-23.025-8.796-31.819-.001-8.794 8.792-8.795 23.027-.001 31.82l32.794 32.793-32.793 32.793c-8.794 8.792-8.795 23.027-.001 31.82 8.795 8.793 23.026 8.793 31.82 0l32.793-32.794 32.792 32.793c8.791 8.795 23.027 8.794 31.819.001 8.793-8.791 8.796-23.027.001-31.819l-32.793-32.794 32.792-32.793c8.794-8.791 8.794-23.026.001-31.82zm-10.608 21.214-38.096 38.097c-2.929 2.929-2.929 7.677 0 10.606l38.097 38.097c2.93 2.93 2.931 7.675-.001 10.605-2.929 2.931-7.674 2.932-10.605.001l-38.096-38.097c-1.407-1.407-3.314-2.197-5.304-2.197s-3.896.79-5.304 2.196l-38.097 38.097c-2.93 2.932-7.674 2.932-10.606 0-2.93-2.93-2.931-7.675.001-10.605l38.097-38.097c2.929-2.93 2.929-7.678 0-10.607l-38.098-38.097c-2.93-2.93-2.931-7.675.001-10.605 2.927-2.929 7.675-2.934 10.605 0l38.097 38.097c1.407 1.406 3.314 2.196 5.304 2.196s3.896-.79 5.304-2.196l38.096-38.097c2.924-2.926 7.681-2.924 10.606 0 2.93 2.93 2.931 7.674-.001 10.606z"/></g></g></svg>