<svg id="Capa_1" enable-background="new 0 0 512 512" height="512" viewBox="0 0 512 512" width="512" xmlns="http://www.w3.org/2000/svg"><g><g><path d="m415.427 504h-318.854v-481c0-8.284 6.716-15 15-15h288.854c8.284 0 15 6.716 15 15z" fill="#e4936b"/><path d="m96.573 486h318.854v18h-318.854z" fill="#db835d"/><path d="m133.872 43.342h244.255v460.658h-244.255z" fill="#ffe08c"/><path d="m133.872 486h244.255v18h-244.255z" fill="#f9d375"/><ellipse cx="321.797" cy="315.911" fill="#e4936b" rx="18.604" ry="18.604" transform="matrix(.707 -.707 .707 .707 -129.131 320.073)"/><path d="m321.797 316.515c-7.008 0-13.106-3.879-16.278-9.604-1.478 2.668-2.326 5.734-2.326 9 0 10.275 8.329 18.604 18.604 18.604s18.604-8.329 18.604-18.604c0-3.266-.847-6.332-2.326-9-3.172 5.725-9.269 9.604-16.278 9.604z" fill="#db835d"/><path d="m255.997 118.218c-42.155 0-76.329 34.174-76.329 76.329s34.173 76.329 76.329 76.329c42.155 0 76.329-34.173 76.329-76.329 0-42.155-34.174-76.329-76.329-76.329zm0 119.004c-23.569 0-42.675-19.106-42.675-42.675s19.107-42.675 42.675-42.675c23.569 0 42.675 19.106 42.675 42.675 0 23.568-19.106 42.675-42.675 42.675z" fill="#36ce94"/><g><path d="m255.997 252.875c-39.108 0-71.326-29.418-75.783-67.329-.347 2.954-.546 5.953-.546 9 0 42.155 34.173 76.329 76.329 76.329 42.155 0 76.329-34.173 76.329-76.329 0-3.047-.199-6.046-.546-9-4.457 37.911-36.675 67.329-75.783 67.329z" fill="#36bf84"/></g><path d="m236.672 118.026h38.649v37.594h-38.649z" fill="#cb3541"/><path d="m236.672 155.619s-54.399 47.775-54.399-18.797 54.399-18.797 54.399-18.797z" fill="#f7594e"/><path d="m275.321 155.619s54.399 47.775 54.399-18.797-54.399-18.797-54.399-18.797z" fill="#f7594e"/><path d="m236.672 137.619h38.649v18h-38.649z" fill="#ba3243"/><g fill="#ea4642"><path d="m182.659 127.823c-.25 2.74-.386 5.727-.386 9 0 66.572 54.399 18.797 54.399 18.797v-18c0-.001-49.177 43.182-54.013-9.797z"/><path d="m275.321 137.619v18s54.399 47.775 54.399-18.797c0-3.273-.136-6.26-.386-9-4.836 52.98-54.013 9.797-54.013 9.797z"/></g></g><g><g><path d="m400.709 0h-289.418c-12.431 0-22.544 10.113-22.544 22.544v481.941c0 4.151 3.365 7.515 7.515 7.515h114.881c4.15 0 7.515-3.364 7.515-7.515s-3.365-7.515-7.515-7.515h-69.994v-446.53h157.515c4.15 0 7.515-3.364 7.515-7.515s-3.365-7.515-7.515-7.515h-165.03c-4.15 0-7.515 3.364-7.515 7.515v454.045h-22.343v-474.426c0-4.144 3.371-7.515 7.515-7.515h289.419c4.143 0 7.515 3.371 7.515 7.515v474.427h-22.343v-454.045c0-4.151-3.365-7.515-7.515-7.515h-49.645c-4.15 0-7.515 3.364-7.515 7.515s3.365 7.515 7.515 7.515h42.13v446.53h-129.651c-4.15 0-7.515 3.364-7.515 7.515s3.364 7.514 7.515 7.514h174.538c4.15 0 7.515-3.364 7.515-7.515v-481.941c-.001-12.431-10.114-22.544-22.545-22.544z"/><path d="m348.081 316.028c0-14.422-11.733-26.155-26.155-26.155s-26.155 11.733-26.155 26.155 11.733 26.155 26.155 26.155c14.421 0 26.155-11.733 26.155-26.155zm-37.281 0c0-6.134 4.991-11.125 11.125-11.125 6.135 0 11.126 4.991 11.126 11.125s-4.991 11.125-11.126 11.125c-6.134.001-11.125-4.991-11.125-11.125z"/></g><path d="m333.512 162.09c2.562-6.661 3.868-15.159 3.868-25.501 0-21.931-5.797-35.675-17.23-40.85-17.421-7.884-40.065 8.476-47.521 14.502h-33.264c-7.456-6.026-30.099-22.389-47.521-14.502-11.433 5.175-17.23 18.92-17.23 40.85 0 10.343 1.306 18.84 3.868 25.501-4.295 10.26-6.477 21.121-6.477 32.336 0 22.173 8.562 43.09 24.11 58.896 2.911 2.96 7.669 2.996 10.627.087 2.959-2.91 2.998-7.668.088-10.627-12.765-12.977-19.794-30.151-19.794-48.356 0-6.237.826-12.338 2.449-18.243 5.594 3.456 12.357 3.979 18.683 2.771-1.592 4.933-2.442 10.138-2.442 15.472 0 27.72 22.552 50.273 50.273 50.273s50.273-22.553 50.273-50.273c0-5.334-.851-10.538-2.442-15.471 6.325 1.207 13.09.684 18.683-2.772 1.624 5.905 2.45 12.006 2.45 18.243 0 38.026-30.937 68.963-68.963 68.963-9.314 0-18.344-1.822-26.842-5.416-3.822-1.617-8.231.171-9.848 3.993-1.616 3.823.172 8.232 3.994 9.848 10.36 4.382 21.36 6.604 32.696 6.604 46.314 0 83.993-37.679 83.993-83.992-.003-11.215-2.186-22.075-6.481-32.336zm-65.668-14.182h-23.695v-22.638h23.695zm-69.809 15.837c-5.411-2.457-8.391-12.101-8.391-27.156s2.98-24.699 8.391-27.156c1.236-.561 2.646-.811 4.179-.811 8.237 0 19.994 7.253 26.906 12.671v30.591c-8.205 6.43-23.214 15.432-31.085 11.861zm93.206 30.682c0 19.434-15.81 35.244-35.244 35.244s-35.244-15.81-35.244-35.244c0-10.506 4.624-20.329 12.692-27.059 2.447-1.699 4.472-3.259 5.92-4.43h33.263c1.449 1.171 3.473 2.732 5.92 4.43 8.069 6.729 12.693 16.553 12.693 27.059zm22.718-30.682c-7.874 3.57-22.881-5.43-31.085-11.86v-30.591c8.204-6.43 23.212-15.435 31.085-11.86 5.411 2.457 8.391 12.101 8.391 27.156s-2.98 24.698-8.391 27.155z"/></g></g></svg>