<svg id="Capa_1" enable-background="new 0 0 512 512" height="512" viewBox="0 0 512 512" width="512" xmlns="http://www.w3.org/2000/svg"><g><g><g><g><path d="m446.321 288.242c8.86-8.636 3.971-23.683-8.273-25.462l-107.266-15.587c-5.807-.844-10.828-4.492-13.425-9.754l-40.003-81.054c18.701-8.479 31.477-27.732 30.367-49.847-1.299-25.86-21.93-47.046-47.751-48.971-30.395-2.265-55.759 21.725-55.759 51.64 0 20.985 12.489 39.042 30.434 47.178l-40.003 81.054c-2.597 5.263-7.618 8.91-13.425 9.754l-107.265 15.588c-12.244 1.779-17.133 16.826-8.273 25.462l77.618 75.659c4.202 4.096 6.12 9.998 5.128 15.782l-18.323 106.832c-2.092 12.194 10.708 21.494 21.659 15.736l95.941-50.439c5.194-2.731 11.4-2.731 16.594 0l95.941 50.439c10.951 5.757 23.75-3.542 21.659-15.736l-18.323-106.832c-.992-5.784.926-11.686 5.128-15.782zm-190.321-199.569c11.341 0 20.536 9.194 20.536 20.535s-9.194 20.536-20.536 20.536-20.536-9.194-20.536-20.536c0-11.341 9.195-20.535 20.536-20.535z" fill="#ffe08c"/></g></g><g><path d="m264.297 433.813c-5.194-2.731-11.4-2.731-16.594 0l-116.561 61.28c3.295 7.385 12.467 11.446 20.62 7.16l95.941-50.439c5.194-2.731 11.4-2.731 16.594 0l95.941 50.439c8.152 4.286 17.324.225 20.62-7.16z" fill="#f9d375"/></g></g><g><path d="m387.679 335.235-24.059 23.452c-5.982 5.831-8.71 14.227-7.298 22.461l18.357 107.028c1.243 5.861-5.606 10.837-10.796 7.844l-96.117-50.532c-7.394-3.886-16.223-3.886-23.618 0l-35.152 18.481c-3.673 1.931-5.085 6.475-3.154 10.147 1.932 3.674 6.475 5.086 10.147 3.154l35.151-18.481c3.016-1.585 6.617-1.585 9.632 0l96.117 50.532c15.658 8.96 36.285-5.99 32.601-23.686l-18.357-107.028c-.576-3.358.537-6.783 2.976-9.16l24.059-23.451c2.972-2.897 3.032-7.654.136-10.626-2.897-2.972-7.655-3.031-10.625-.135z"/><path d="m182.336 477.984-34.306 18.036c-5.191 2.992-12.039-1.984-10.797-7.844l18.357-107.028c1.412-8.234-1.317-16.63-7.299-22.462l-77.76-75.798c-4.45-4.01-1.833-12.063 4.124-12.692l30.716-4.463c4.107-.597 6.952-4.409 6.355-8.516s-4.403-6.961-8.516-6.355l-30.716 4.463c-17.964 1.978-25.821 26.168-12.453 38.325l77.76 75.797c2.44 2.378 3.553 5.804 2.977 9.161l-18.357 107.028c-3.684 17.7 16.945 32.645 32.601 23.686l34.306-18.036c3.673-1.931 5.085-6.475 3.154-10.148-1.929-3.673-6.471-5.082-10.146-3.154z"/><path d="m457.555 270.617c-2.663-8.193-9.612-14.053-18.138-15.292l-107.462-15.614c-3.371-.49-6.284-2.606-7.792-5.662l-36.859-74.685c18.28-11.305 29.075-31.554 27.973-53.507-1.447-28.807-23.491-52.324-51.807-55.875v-42.468c0-4.15-3.364-7.514-7.514-7.514s-7.514 3.364-7.514 7.514v42.46c-12.242 1.523-23.628 6.798-32.887 15.394-12.072 11.206-18.996 27.076-18.996 43.54 0 20.647 10.797 39.703 28.055 50.446l-36.865 74.696c-1.508 3.055-4.421 5.171-7.792 5.662l-47.762 6.94c-4.107.597-6.952 4.409-6.355 8.516s4.401 6.962 8.516 6.355l47.763-6.94c8.266-1.2 15.409-6.391 19.107-13.882l40.076-81.203c1.903-3.664.16-8.542-3.636-10.169-15.842-7.181-26.078-23.047-26.078-40.421 0-12.299 5.173-24.154 14.192-32.526 6.43-5.969 14.242-9.786 22.664-11.209v16.677c-11.849 3.295-20.573 14.173-20.573 27.058 0 15.487 12.6 28.087 28.087 28.087s28.087-12.6 28.087-28.087c0-12.885-8.724-23.763-20.573-27.058v-16.686c20.228 3.422 35.75 20.576 36.798 41.446.922 18.366-9.291 35.133-26.021 42.718-3.795 1.627-5.538 6.504-3.635 10.169l40.076 81.204c3.698 7.491 10.841 12.68 19.107 13.881l107.462 15.615c5.958.629 8.574 8.682 4.124 12.692l-32.178 31.368c-2.971 2.896-3.032 7.653-.135 10.625 2.899 2.973 7.656 3.03 10.625.135l32.178-31.366c6.166-6.015 8.344-14.841 5.682-23.034zm-188.539-161.71c0 7.202-5.858 13.06-13.059 13.06s-13.06-5.858-13.06-13.06c0-4.403 2.197-8.297 5.546-10.663v5.362c0 4.15 3.364 7.514 7.514 7.514s7.514-3.364 7.514-7.514v-5.362c3.348 2.366 5.545 6.26 5.545 10.663z"/></g></g></svg>