<svg id="Capa_1" enable-background="new 0 0 512 512" height="512" viewBox="0 0 512 512" width="512" xmlns="http://www.w3.org/2000/svg"><g><path d="m489.775 379.787h-467.549c-8.133 0-14.726-6.593-14.726-14.725v-253.335c0-8.133 6.593-14.726 14.726-14.726h467.549c8.133 0 14.725 6.593 14.725 14.726v253.334c0 8.133-6.592 14.726-14.725 14.726z" fill="#eab14d"/><path d="m489.775 97.002h-24.32c8.133 0 14.725 6.593 14.725 14.726v253.334c0 8.133-6.593 14.726-14.725 14.726h24.32c8.133 0 14.725-6.593 14.725-14.726v-253.335c0-8.133-6.593-14.725-14.725-14.725z" fill="#e49542"/><path d="m480.18 379.787h-448.359v21.792c0 7.411 6.008 13.42 13.42 13.42h421.52c7.411 0 13.42-6.008 13.42-13.42v-21.792z" fill="#365e7d"/><path d="m456.213 379.787v21.792c0 7.412-6.008 13.419-13.42 13.419h23.967c7.411 0 13.42-6.008 13.42-13.419v-21.792z" fill="#2b4d66"/><circle cx="132.113" cy="210.293" fill="#f4fbff" r="82.107"/><path d="m132.113 128.187c-4.483 0-8.878.373-13.166 1.064 39.085 6.302 68.94 40.179 68.94 81.042s-29.856 74.74-68.94 81.042c4.288.691 8.683 1.064 13.166 1.064 45.346 0 82.107-36.76 82.107-82.106s-36.76-82.106-82.107-82.106z" fill="#daf1f4"/><circle cx="379.887" cy="210.293" fill="#f4fbff" r="82.107"/><path d="m379.887 128.187c-4.483 0-8.878.373-13.166 1.064 39.085 6.302 68.94 40.179 68.94 81.042s-29.856 74.74-68.94 81.042c4.288.691 8.683 1.064 13.166 1.064 45.346 0 82.107-36.76 82.107-82.106s-36.761-82.106-82.107-82.106z" fill="#daf1f4"/><g><path d="m145.781 350.619h-66.456c-3.59 0-6.501-2.911-6.501-6.501v-19.335c0-3.59 2.911-6.501 6.501-6.501h66.456c3.59 0 6.501 2.911 6.501 6.501v19.335c0 3.59-2.911 6.501-6.501 6.501z" fill="#dd636e"/><path d="m145.781 318.281h-16.301c3.59 0 6.501 2.911 6.501 6.501v19.335c0 3.591-2.911 6.501-6.501 6.501h16.301c3.59 0 6.501-2.91 6.501-6.501v-19.335c0-3.591-2.911-6.501-6.501-6.501z" fill="#da4a54"/></g><g><path d="m289.228 350.619h-66.456c-3.59 0-6.501-2.911-6.501-6.501v-19.335c0-3.59 2.911-6.501 6.501-6.501h66.456c3.59 0 6.501 2.911 6.501 6.501v19.335c.001 3.59-2.91 6.501-6.501 6.501z" fill="#dd636e"/><path d="m289.228 318.281h-16.301c3.59 0 6.501 2.911 6.501 6.501v19.335c0 3.591-2.911 6.501-6.501 6.501h16.301c3.59 0 6.501-2.91 6.501-6.501v-19.335c.001-3.591-2.91-6.501-6.501-6.501z" fill="#da4a54"/></g><g><path d="m432.676 350.619h-66.456c-3.59 0-6.501-2.911-6.501-6.501v-19.335c0-3.59 2.911-6.501 6.501-6.501h66.456c3.59 0 6.501 2.911 6.501 6.501v19.335c0 3.59-2.911 6.501-6.501 6.501z" fill="#dd636e"/><path d="m432.676 318.281h-16.301c3.59 0 6.501 2.911 6.501 6.501v19.335c0 3.591-2.911 6.501-6.501 6.501h16.301c3.59 0 6.501-2.91 6.501-6.501v-19.335c0-3.591-2.911-6.501-6.501-6.501z" fill="#da4a54"/></g><g><path d="m132.113 120.687c-49.409 0-89.606 40.197-89.606 89.606s40.197 89.607 89.606 89.607 89.606-40.197 89.606-89.606-40.197-89.607-89.606-89.607zm0 164.213c-41.138 0-74.606-33.469-74.606-74.606s33.469-74.606 74.606-74.606 74.606 33.469 74.606 74.606-33.468 74.606-74.606 74.606z"/><path d="m132.113 147.019c-4.143 0-7.5 3.357-7.5 7.5v5.956c0 4.143 3.357 7.5 7.5 7.5s7.5-3.357 7.5-7.5v-5.956c0-4.143-3.357-7.5-7.5-7.5z"/><path d="m174.432 210.293c0 4.143 3.357 7.5 7.5 7.5h5.956c4.143 0 7.5-3.357 7.5-7.5s-3.357-7.5-7.5-7.5h-5.956c-4.143 0-7.5 3.358-7.5 7.5z"/><path d="m132.113 252.612c-4.143 0-7.5 3.357-7.5 7.5v5.955c0 4.143 3.357 7.5 7.5 7.5s7.5-3.357 7.5-7.5v-5.955c0-4.143-3.357-7.5-7.5-7.5z"/><path d="m82.295 202.793h-5.956c-4.143 0-7.5 3.357-7.5 7.5s3.357 7.5 7.5 7.5h5.956c4.143 0 7.5-3.357 7.5-7.5s-3.357-7.5-7.5-7.5z"/><path d="m132.113 174.294c-4.143 0-7.5 3.357-7.5 7.5v20.999h-6.364c-4.143 0-7.5 3.357-7.5 7.5s3.357 7.5 7.5 7.5h13.864c4.143 0 7.5-3.357 7.5-7.5v-28.499c0-4.142-3.357-7.5-7.5-7.5z"/><path d="m379.888 167.975c4.143 0 7.5-3.357 7.5-7.5v-5.956c0-4.143-3.357-7.5-7.5-7.5s-7.5 3.357-7.5 7.5v5.956c0 4.143 3.357 7.5 7.5 7.5z"/><path d="m435.661 217.793c4.143 0 7.5-3.357 7.5-7.5s-3.357-7.5-7.5-7.5h-5.956c-4.143 0-7.5 3.357-7.5 7.5s3.357 7.5 7.5 7.5z"/><path d="m372.388 260.112v5.955c0 4.143 3.357 7.5 7.5 7.5s7.5-3.357 7.5-7.5v-5.955c0-4.143-3.357-7.5-7.5-7.5s-7.5 3.357-7.5 7.5z"/><path d="m316.613 210.293c0 4.143 3.357 7.5 7.5 7.5h5.956c4.143 0 7.5-3.357 7.5-7.5s-3.357-7.5-7.5-7.5h-5.956c-4.142 0-7.5 3.358-7.5 7.5z"/><path d="m372.388 194.819-1.021-.805c-3.25-2.567-7.968-2.011-10.533 1.24-2.566 3.251-2.012 7.968 1.24 10.533l13.167 10.393c4.886 3.857 12.146.4 12.146-5.887v-28.499c0-4.143-3.357-7.5-7.5-7.5s-7.5 3.357-7.5 7.5v13.025z"/><path d="m263.5 224.542v-28.499c0-4.143-3.357-7.5-7.5-7.5s-7.5 3.357-7.5 7.5v28.499c0 4.143 3.357 7.5 7.5 7.5s7.5-3.357 7.5-7.5z"/><path d="m79.325 310.781c-7.721 0-14.002 6.281-14.002 14.001v19.336c0 7.72 6.281 14.001 14.002 14.001h66.456c7.72 0 14.001-6.281 14.001-14.001v-19.336c0-7.72-6.281-14.001-14.001-14.001zm65.457 32.338h-64.459v-17.338h64.459z"/><path d="m208.771 324.782v19.336c0 7.72 6.281 14.001 14.001 14.001h66.456c7.72 0 14.001-6.281 14.001-14.001v-19.336c0-7.72-6.281-14.001-14.001-14.001h-66.456c-7.719 0-14.001 6.281-14.001 14.001zm15 .999h64.458v17.338h-64.458z"/><path d="m432.676 310.781h-66.456c-7.72 0-14.001 6.281-14.001 14.001v19.336c0 7.72 6.281 14.001 14.001 14.001h66.456c7.72 0 14.001-6.281 14.001-14.001v-19.336c0-7.72-6.281-14.001-14.001-14.001zm-.999 32.338h-64.458v-17.338h64.458z"/><path d="m478.269 133.366c4.143 0 7.5-3.357 7.5-7.5v-.334c0-4.143-3.357-7.5-7.5-7.5s-7.5 3.357-7.5 7.5v.334c0 4.142 3.357 7.5 7.5 7.5z"/><path d="m470.769 351.256c0 4.143 3.357 7.5 7.5 7.5s7.5-3.357 7.5-7.5v-.333c0-4.143-3.357-7.5-7.5-7.5s-7.5 3.357-7.5 7.5z"/><path d="m33.732 133.366c4.143 0 7.5-3.357 7.5-7.5v-.334c0-4.143-3.357-7.5-7.5-7.5s-7.5 3.357-7.5 7.5v.334c0 4.142 3.358 7.5 7.5 7.5z"/><path d="m26.232 351.256c0 4.143 3.357 7.5 7.5 7.5s7.5-3.357 7.5-7.5v-.333c0-4.143-3.357-7.5-7.5-7.5s-7.5 3.357-7.5 7.5z"/><path d="m489.774 89.501h-467.548c-12.255 0-22.226 9.971-22.226 22.226v139.347c0 4.143 3.357 7.5 7.5 7.5s7.5-3.357 7.5-7.5v-139.347c0-3.984 3.241-7.226 7.226-7.226h467.549c3.984 0 7.226 3.241 7.226 7.226v253.335c0 3.984-3.241 7.226-7.226 7.226h-467.549c-3.984 0-7.226-3.241-7.226-7.226v-84.001c0-4.143-3.357-7.5-7.5-7.5s-7.5 3.357-7.5 7.5v84.001c0 12.255 9.971 22.226 22.226 22.226h2.095v14.291c0 11.535 9.385 20.92 20.92 20.92h328.063c4.143 0 7.5-3.357 7.5-7.5s-3.357-7.5-7.5-7.5h-328.064c-3.265 0-5.92-2.655-5.92-5.92v-14.291h433.36v14.291c0 3.265-2.655 5.92-5.919 5.92h-63.47c-4.143 0-7.5 3.357-7.5 7.5s3.357 7.5 7.5 7.5h63.47c11.535 0 20.919-9.385 20.919-20.92v-14.291h2.095c12.255 0 22.226-9.971 22.226-22.226v-253.335c-.001-12.255-9.972-22.226-22.227-22.226z"/><path d="m319.956 153.708c-3.26-2.561-7.973-1.996-10.532 1.261-12.523 15.931-19.144 35.062-19.144 55.325 0 49.409 40.197 89.606 89.606 89.606 49.41 0 89.607-40.197 89.607-89.606s-40.197-89.606-89.607-89.606c-16.186 0-32.061 4.375-45.908 12.653-3.556 2.125-4.715 6.73-2.59 10.285 2.125 3.558 6.733 4.715 10.285 2.59 11.523-6.888 24.737-10.528 38.213-10.528 41.139 0 74.607 33.469 74.607 74.606s-33.468 74.606-74.606 74.606-74.606-33.469-74.606-74.606c0-16.867 5.511-32.793 15.937-46.054 2.558-3.257 1.994-7.972-1.262-10.532z"/></g></g></svg>