<svg id="Capa_1" enable-background="new 0 0 512 512" height="512" viewBox="0 0 512 512" width="512" xmlns="http://www.w3.org/2000/svg"><g><g><path d="m342.195 276.453h-172.39c-26.927 23.836-43.908 58.654-43.908 97.443 0 71.855 58.249 130.104 130.103 130.104s130.103-58.249 130.103-130.103c0-38.789-16.981-73.607-43.908-97.444z" fill="#edf4fa"/><path d="m256 486c-68.819 0-125.15-53.435-129.786-121.077-.202 2.966-.317 5.957-.317 8.974 0 71.854 58.249 130.103 130.103 130.103s130.103-58.249 130.103-130.103c0-3.017-.115-6.008-.317-8.974-4.636 67.642-60.967 121.077-129.786 121.077z" fill="#d8e5ef"/><path d="m173.429 127.293c-6.793 12.933-10.642 27.655-10.642 43.277 0 28.273 12.59 53.604 32.468 70.699h121.49c19.877-17.095 32.468-42.425 32.468-70.699 0-15.622-3.849-30.344-10.642-43.277z" fill="#edf4fa"/><path d="m179.111 223.269c4.587 6.678 10.018 12.731 16.144 18h121.49c6.126-5.269 11.557-11.322 16.144-18z" fill="#d8e5ef"/><path d="m344.21 276.454h-176.42c-2.763 0-5.003-2.24-5.003-5.003 0-16.669 13.513-30.181 30.181-30.181h126.063c16.669 0 30.181 13.513 30.181 30.181.001 2.763-2.239 5.003-5.002 5.003z" fill="#f7594e"/><path d="m344.21 258.454h-176.42c-.666 0-1.3-.136-1.881-.373-1.995 4.031-3.122 8.567-3.122 13.369 0 2.763 2.24 5.003 5.003 5.003h176.42c2.763 0 5.003-2.24 5.003-5.003 0-4.802-1.127-9.339-3.122-13.369-.582.237-1.215.373-1.881.373z" fill="#ea4642"/><path d="m291.184 368.894v-92.44h35.184v92.44c0 2.763-2.24 5.003-5.003 5.003h-25.178c-2.763 0-5.003-2.24-5.003-5.003z" fill="#cb3541"/><path d="m291.184 276.454h35.184v18h-35.184z" fill="#ba3243"/><path d="m353.004 127.293h-194.008c-8.541 0-15.466-6.924-15.466-15.466 0-8.541 6.924-15.466 15.466-15.466h194.008c8.541 0 15.466 6.924 15.466 15.466-.001 8.542-6.925 15.466-15.466 15.466z" fill="#565e75"/><path d="m353.004 109.293h-194.008c-5.18 0-9.754-2.556-12.56-6.466-1.821 2.537-2.905 5.639-2.905 9 0 8.542 6.924 15.466 15.466 15.466h194.008c8.541 0 15.466-6.924 15.466-15.466 0-3.361-1.084-6.463-2.905-9-2.809 3.91-7.382 6.466-12.562 6.466z" fill="#4b5165"/><path d="m340.279 96.362h-167.442v-73.362c0-8.284 6.716-15 15-15h137.442c8.284 0 15 6.716 15 15z" fill="#565e75"/><path d="m172.837 78.362h167.442v18h-167.442z" fill="#4b5165"/></g><g><path d="m263.515 325.31c0-4.151-3.364-7.515-7.515-7.515-4.15 0-7.515 3.364-7.515 7.515v10.172c0 4.151 3.364 7.515 7.515 7.515s7.515-3.364 7.515-7.515z"/><path d="m263.515 374.127c0-4.151-3.364-7.515-7.515-7.515-4.15 0-7.515 3.364-7.515 7.515v10.172c0 4.151 3.364 7.515 7.515 7.515s7.515-3.364 7.515-7.515z"/><path d="m256 415.43c-4.15 0-7.515 3.364-7.515 7.515v10.172c0 4.151 3.364 7.515 7.515 7.515s7.515-3.364 7.515-7.515v-10.172c0-4.152-3.364-7.515-7.515-7.515z"/><path d="m459.56 239.002h-22.844l4.51-24.394c.754-4.081-1.942-8.001-6.023-8.755-4.075-.755-8.001 1.941-8.755 6.023l-5.662 30.628-56.89 45.83c-2.8-3.523-5.775-6.922-8.93-10.177 1.226-1.935 1.946-4.221 1.946-6.677 0-16.115-10.153-29.897-24.395-35.305 15.641-18.188 24.395-41.454 24.395-65.772 0-12.252-2.253-24.449-6.573-35.847h2.857c12.688 0 23.011-10.322 23.011-23.01s-10.323-23.011-23.011-23.011h-5.235v-65.991c-.002-12.431-10.115-22.544-22.546-22.544h-137.711c-12.431 0-22.544 10.113-22.544 22.544v65.991h-6.354c-12.688 0-23.01 10.323-23.01 23.011s10.322 23.01 23.01 23.01h2.858c-4.321 11.399-6.574 23.596-6.574 35.847 0 24.319 8.754 47.584 24.395 65.772-14.242 5.408-24.395 19.19-24.395 35.305 0 2.456.721 4.741 1.946 6.677-3.154 3.255-6.13 6.654-8.93 10.177l-56.89-45.83-5.662-30.628c-.755-4.08-4.675-6.777-8.755-6.023-4.081.754-6.778 4.674-6.023 8.755l4.509 24.394h-22.845c-4.15 0-7.515 3.364-7.515 7.515s3.364 7.515 7.515 7.515h29.128l57.826 46.584c-13.744 21.806-21.265 47.255-21.265 73.512-.001 76.023 61.848 137.872 137.871 137.872 33.592 0 65.955-12.219 91.127-34.408 3.113-2.744 3.413-7.492.668-10.606-2.744-3.115-7.493-3.413-10.606-.668-22.426 19.766-51.259 30.653-81.19 30.653-67.736 0-122.843-55.108-122.843-122.843 0-34.211 14.322-66.891 39.383-90.119h36.222c4.15 0 7.515-3.364 7.515-7.515s-3.364-7.515-7.515-7.515h-38.506c1.249-11.358 10.903-20.223 22.589-20.223h126.31c11.686 0 21.341 8.865 22.589 20.223h-102.921c-4.15 0-7.515 3.364-7.515 7.515s3.364 7.515 7.515 7.515h44.917v85.107c0 6.908 5.619 12.527 12.527 12.527h25.227c6.908 0 12.527-5.619 12.527-12.527v-85.107h5.439c25.063 23.228 39.384 55.908 39.384 90.119 0 25.518-7.749 49.982-22.408 70.751-2.393 3.39-1.585 8.079 1.805 10.473 3.352 2.378 8.065 1.608 10.473-1.805 16.46-23.319 25.159-50.781 25.159-79.419 0-26.257-7.522-51.706-21.266-73.513l57.825-46.583h29.128c4.151 0 7.515-3.364 7.515-7.515s-3.363-7.515-7.514-7.515zm-300.754-119.476c-4.401 0-7.981-3.58-7.981-7.98 0-4.401 3.58-7.981 7.981-7.981h120.015c4.151 0 7.515-3.364 7.515-7.515s-3.364-7.515-7.515-7.515h-98.631v-65.991c0-4.144 3.371-7.515 7.515-7.515h137.711c4.144 0 7.515 3.371 7.515 7.515v65.991h-24.05c-4.151 0-7.515 3.364-7.515 7.515s3.364 7.515 7.515 7.515h44.314c4.401 0 7.981 3.58 7.981 7.981 0 4.4-3.58 7.98-7.981 7.98zm155.205 114.2h-116.022c-17.747-16.266-27.87-39.189-27.87-63.323 0-12.371 2.695-24.672 7.824-35.847h156.113c5.129 11.174 7.824 23.477 7.824 35.847.001 24.134-10.122 47.057-27.869 63.323zm4.98 132.886h-20.223v-82.605h20.223z"/><path d="m213.472 159.349c-4.15 0-7.515 3.364-7.515 7.515v10.269c0 4.151 3.365 7.515 7.515 7.515s7.515-3.364 7.515-7.515v-10.269c0-4.151-3.364-7.515-7.515-7.515z"/><path d="m299.647 159.349c-4.151 0-7.515 3.364-7.515 7.515v10.269c0 4.151 3.364 7.515 7.515 7.515s7.515-3.364 7.515-7.515v-10.269c0-4.151-3.364-7.515-7.515-7.515z"/><path d="m273.712 187.459c-3.075 0-5.715 1.849-6.878 4.495-.002-.002-.011-.008-.011-.009-.235.476-2.52 4.652-10.264 4.652s-10.028-4.175-10.263-4.652l-.013.006c-1.164-2.643-3.803-4.491-6.877-4.491-5.585-.152-9.368 6.336-6.594 11.12 2.463 5.157 9.856 13.047 23.746 13.047s21.283-7.89 23.746-13.047c.586-1.07.921-2.298.921-3.605.002-4.152-3.363-7.516-7.513-7.516z"/></g></g></svg>