<svg id="Capa_1" enable-background="new 0 0 512 512" height="512" viewBox="0 0 512 512" width="512" xmlns="http://www.w3.org/2000/svg"><g><circle cx="256" cy="256" fill="#95d6a4" r="248.5"/><path d="m256 7.5c-4.436 0-8.844.121-13.223.351 131.096 6.874 235.278 115.343 235.278 248.149s-104.182 241.276-235.277 248.15c4.379.23 8.786.351 13.223.351 137.243 0 248.5-111.257 248.5-248.5s-111.258-248.501-248.501-248.501z" fill="#78c2a4"/><circle cx="256" cy="256" fill="#f4fbff" r="193.643"/><path d="m256 62.357c-5.363 0-10.672.228-15.924.656 99.496 8.1 177.719 91.404 177.719 192.987s-78.223 184.887-177.719 192.987c5.253.428 10.562.656 15.924.656 106.946 0 193.643-86.697 193.643-193.643s-86.697-193.643-193.643-193.643z" fill="#daf1f4"/><g><path d="m441.592 241.58c.316 4.129 3.911 7.22 8.051 6.906 4.13-.316 7.222-3.921 6.906-8.051-8.01-104.582-95.462-185.578-200.549-185.578-110.91 0-201.143 90.233-201.143 201.143 0 110.911 90.232 201.144 201.143 201.144 104.886 0 192.524-80.797 200.549-185.576.315-4.13-2.775-7.734-6.906-8.051-4.122-.311-7.734 2.775-8.051 6.906-7.402 96.663-88.246 171.721-185.592 171.721-102.64 0-186.143-83.504-186.143-186.144s83.503-186.143 186.143-186.143c97.056 0 178.169 74.77 185.592 171.723z"/><path d="m256 0c-49.143 0-96.884 13.965-138.06 40.384-3.486 2.237-4.499 6.876-2.263 10.362 2.236 3.487 6.878 4.497 10.362 2.263 38.756-24.865 83.695-38.009 129.961-38.009 133.193 0 241 107.789 241 241 0 133.194-107.787 241-241 241-23.806 0-47.348-3.476-69.971-10.329-3.966-1.204-8.151 1.038-9.353 5.003s1.039 8.151 5.003 9.353c24.036 7.281 49.041 10.973 74.321 10.973 141.488 0 256-114.502 256-256 0-141.483-114.497-256-256-256z"/><path d="m158.756 476.56c-87.328-38.562-143.756-125.137-143.756-220.56 0-72.107 31.911-139.843 87.55-185.839 3.192-2.639 3.642-7.366 1.002-10.559s-7.366-3.642-10.559-1.002c-59.098 48.855-92.993 120.804-92.993 197.4 0 101.36 59.938 193.321 152.697 234.282.985.435 2.014.641 3.025.641 2.88 0 5.627-1.668 6.865-4.473 1.674-3.789-.042-8.217-3.831-9.89z"/><path d="m359.476 306.129c4.143 0 7.5-3.357 7.5-7.5v-84.602c0-4.143-3.357-7.5-7.5-7.5s-7.5 3.357-7.5 7.5v33.351h-43.545v-33.351c0-4.143-3.357-7.5-7.5-7.5s-7.5 3.357-7.5 7.5v84.602c0 4.143 3.357 7.5 7.5 7.5s7.5-3.357 7.5-7.5v-36.251h43.545v36.251c0 4.142 3.357 7.5 7.5 7.5z"/><path d="m247.114 306.129h.065c4.112 0 7.463-3.315 7.499-7.436.026-3.127.08-9.461.137-17.244h3.242c4.143 0 7.5-3.357 7.5-7.5s-3.357-7.5-7.5-7.5h-3.142c.124-20.545.198-43.244-.054-46.268-1.011-12.126-14.031-17.677-22.738-6.995-4.774 5.856-28.447 48.626-33.145 57.14-2.752 4.99.863 11.123 6.567 11.123h34.267c-.043 6.065-.09 11.901-.135 17.115-.033 4.142 3.295 7.529 7.437 7.565zm-28.831-39.68c8.502-15.245 16.918-30.006 21.738-37.986.035 8.38-.02 22.926-.109 37.986z"/><path d="m154.024 286.759c-5.102 6.679-7.011 9.178-5.694 13.459.76 2.468 2.635 4.364 5.146 5.202 3.495 1.164 34.812.644 45.079.515 4.142-.052 7.457-3.451 7.404-7.594-.052-4.142-3.424-7.484-7.594-7.404-10.047.126-20.78.211-28.819.19 4.714-6.238 11.862-15.882 22.211-30.67 4.612-6.589 10.659-17.271 10.659-25.688 0-15.934-12.963-28.896-28.896-28.896-13.777 0-25.703 9.801-28.355 23.305-.799 4.064 1.85 8.006 5.914 8.805 4.066.795 8.007-1.85 8.805-5.914 1.274-6.487 7.01-11.195 13.637-11.195 7.52 0 13.664 6.004 13.89 13.471-1.736 5.183 4.809 2.401-33.387 52.414z"/><path d="m192.808 140.276c-2.929 2.93-2.929 7.678 0 10.607 2.93 2.928 7.678 2.928 10.607 0 25.976-25.976 66.813-28.233 95.388-6.792l-25.475 7.511c-3.973 1.171-6.244 5.342-5.072 9.314.962 3.266 3.95 5.381 7.19 5.381.702 0 1.416-.1 2.124-.309l38.44-11.334c3.576-1.054 5.835-4.575 5.302-8.265l-5.727-39.666c-.592-4.101-4.404-6.947-8.494-6.352-4.1.592-6.943 4.395-6.352 8.494l2.929 20.291c-34.159-22.663-80.777-18.96-110.86 11.12z"/><path d="m319.193 371.725c2.929-2.93 2.929-7.678 0-10.607-2.93-2.928-7.678-2.928-10.607 0-25.977 25.978-66.814 28.232-95.388 6.792l25.475-7.511c3.973-1.171 6.244-5.342 5.072-9.314-1.17-3.973-5.338-6.246-9.314-5.072l-38.44 11.334c-3.576 1.054-5.835 4.575-5.302 8.265l5.727 39.666c.539 3.736 3.746 6.43 7.413 6.43.357 0 .718-.025 1.081-.078 4.1-.592 6.943-4.395 6.352-8.494l-2.929-20.291c14.679 9.74 31.656 14.615 48.636 14.615 22.533-.002 45.068-8.58 62.224-25.735z"/></g></g></svg>