<svg id="Capa_1" enable-background="new 0 0 512 512" height="512" viewBox="0 0 512 512" width="512" xmlns="http://www.w3.org/2000/svg"><g><g><path d="m61.583 328.287c9.377 93.727 84.988 167.93 179.34 175.131v-69.333c-9.437-5.288-15.82-15.379-15.82-26.966 0-17.064 13.833-30.896 30.897-30.896s30.896 13.833 30.896 30.896c0 11.587-6.382 21.679-15.82 26.966v69.333c94.352-7.201 169.962-81.404 179.34-175.131z" fill="#ffe08c"/><path d="m461.112 328.287h-410.225c-10.872 0-19.686-8.814-19.686-19.686 0-10.872 8.814-19.686 19.686-19.686h410.225c10.872 0 19.686 8.814 19.686 19.686 0 10.872-8.813 19.686-19.686 19.686z" fill="#febd55"/><path d="m461.112 310.287h-410.225c-7.626 0-14.225-4.344-17.494-10.686-1.392 2.699-2.191 5.754-2.191 9 0 10.872 8.814 19.686 19.686 19.686h410.225c10.872 0 19.686-8.814 19.686-19.686 0-3.246-.8-6.301-2.191-9-3.27 6.341-9.87 10.686-17.496 10.686z" fill="#f9ab43"/><path d="m450.416 288.915c-9.871-98.671-93.145-175.713-194.416-175.713s-184.545 77.042-194.417 175.714h388.833z" fill="#ffe08c"/><g fill="#f9d375"><path d="m240.923 485.415c-88.224-6.734-160.061-72.046-176.685-157.128h-2.654c9.377 93.727 84.988 167.93 179.34 175.131v-18.003z"/><path d="m447.762 328.287c-16.624 85.083-88.461 150.395-176.685 157.128v18.003c94.352-7.201 169.962-81.404 179.34-175.131z"/></g><path d="m144.362 164.12c-33.449-11.185-52.973-80.943-38.894-123.371-14.951-2.071-29.829.316-40.153 12.627-22.831 27.226-21.486 141.083 42.192 159.883 58.632 17.311 120.598-87.435 120.598-87.435-20.669 22.485-52.779 48.65-83.743 38.296z" fill="#cb3541"/><path d="m229.723 103.363v-32.845c0-3.45 1.177-6.619 3.134-9.154-24.915-26.439-66.296-62.243-99.663-51.363-53.727 17.52-33.919 139.042 11.168 154.119 35.654 11.922 72.827-24.571 92.302-48.115-4.169-2.667-6.941-7.326-6.941-12.642z" fill="#f7594e"/><path d="m374.423 164.12c33.449-11.185 52.973-80.943 38.894-123.371 14.951-2.071 29.829.316 40.153 12.627 22.831 27.226 21.486 141.083-42.192 159.883-58.632 17.311-120.598-87.435-120.598-87.435 20.669 22.485 52.778 48.65 83.743 38.296z" fill="#cb3541"/><g><path d="m190.964 156.785c-22.955 24.505-53.634 47.279-83.457 38.474-37.487-11.067-53.365-55.076-55.433-94.961-2.314 43.548 12.171 100.189 55.433 112.961 58.632 17.311 120.598-87.436 120.598-87.436-10.126 11.017-23.002 22.906-37.141 30.962z" fill="#ba3243"/></g><g><path d="m411.277 195.259c-29.823 8.805-60.502-13.969-83.457-38.474-14.139-8.055-27.015-19.945-37.141-30.961 0 0 61.966 104.746 120.598 87.436 43.261-12.772 57.746-69.413 55.433-112.961-2.067 39.885-17.946 83.893-55.433 94.96z" fill="#ba3243"/></g><path d="m289.062 103.363v-32.845c0-3.45-1.177-6.619-3.134-9.154 24.914-26.439 66.296-62.243 99.663-51.363 53.727 17.52 33.919 139.042-11.168 154.119-35.654 11.922-72.827-24.571-92.302-48.115 4.169-2.667 6.941-7.326 6.941-12.642z" fill="#f7594e"/><path d="m274.055 118.37h-29.325c-8.288 0-15.007-6.719-15.007-15.007v-32.845c0-8.288 6.719-15.007 15.007-15.007h29.325c8.288 0 15.007 6.719 15.007 15.007v32.845c0 8.288-6.719 15.007-15.007 15.007z" fill="#cb3541"/><g><path d="m229.931 105.816c-20.57 22.894-53.676 50.969-85.569 40.304-23.929-8.002-40.736-45.984-43.211-82.491-2.928 41 15.289 91.154 43.211 100.491 35.654 11.922 72.827-24.571 92.302-48.116-3.513-2.246-6.027-5.911-6.733-10.188z" fill="#ea4642"/></g><g><path d="m374.423 146.12c-31.893 10.665-65-17.41-85.569-40.304-.706 4.278-3.22 7.942-6.733 10.189 19.475 23.545 56.648 60.038 92.302 48.116 27.921-9.337 46.138-59.49 43.211-100.49-2.475 36.505-19.282 74.487-43.211 82.489z" fill="#ea4642"/></g><path d="m274.055 100.37h-29.325c-8.288 0-15.007-6.719-15.007-15.007v18c0 8.288 6.719 15.007 15.007 15.007h29.325c8.288 0 15.007-6.719 15.007-15.007v-18c0 8.288-6.719 15.007-15.007 15.007z" fill="#ba3243"/></g><path d="m461.741 281.783h-4.046c-3.346-25.092-11.232-48.938-23.49-71.073 15.261-10.919 26.801-28.524 33.879-51.995 5.868-19.455 8.182-41.901 6.515-63.205-1.652-21.122-6.895-37.919-14.76-47.3-9.604-11.451-23.684-16.87-40.951-15.87-6.335-15.035-16.749-25.45-30.568-29.957-34.254-11.163-73.961 18.922-102.83 48.369-3.344-1.961-7.232-3.091-11.381-3.091h-29.415c-4.149 0-8.036 1.13-11.38 3.09-28.867-29.448-68.574-59.54-102.83-48.369-13.733 4.479-24.129 14.743-30.515 29.962-17.288-1.01-31.39 4.402-41.003 15.865-7.865 9.38-13.107 26.178-14.76 47.3-1.667 21.303.646 43.75 6.514 63.206 6.332 20.991 16.233 37.287 29.172 48.309-13.284 22.922-22.045 48.513-25.582 74.757h-4.051c-15.036 0-27.269 12.233-27.269 27.269s12.233 27.269 27.269 27.269h4.049c5.7 42.277 24.889 82.276 54.495 113.273 2.874 3.007 7.635 3.11 10.637.244 3.004-2.87 3.113-7.632.244-10.637-26.95-28.215-44.584-64.479-50.188-102.88h373.014c-5.915 40.651-25.161 78.552-54.739 107.48-29.677 29.023-68.163 47.438-109.124 52.369v-57.15c9.887-7.197 15.868-18.759 15.868-31.147 0-21.237-17.277-38.514-38.514-38.514s-38.514 17.277-38.514 38.514c0 12.388 5.981 23.95 15.868 31.147v57.153c-33.527-4.015-65.232-16.936-92.137-37.624-3.294-2.534-8.018-1.915-10.549 1.378-2.533 3.293-1.916 8.017 1.378 10.549 31.387 24.134 68.822 38.482 108.258 41.492 4.236.413 8.187-3.244 8.095-7.501v-69.546c0-2.722-1.471-5.233-3.846-6.563-7.415-4.154-12.022-12.003-12.022-20.485 0-12.94 10.527-23.468 23.468-23.468 12.94 0 23.468 10.528 23.468 23.468 0 8.482-4.607 16.331-12.022 20.485-2.374 1.33-3.846 3.841-3.846 6.563v69.546c-.095 4.255 3.867 7.919 8.095 7.501 47.487-3.624 92.446-24.013 126.596-57.411 32.461-31.747 53.386-73.513 59.4-118.236h4.05c15.036 0 27.269-12.233 27.269-27.269-.001-15.034-12.233-27.267-27.269-27.267zm-13.431-223.904c5.699 6.796 9.92 21.303 11.289 38.805 1.525 19.488-.577 39.975-5.919 57.687-5.865 19.443-18.269 44.219-44.057 51.832-26.673 7.875-55.392-14.757-74.785-35.131-1.429-1.501-2.824-3.014-4.194-4.529 9.518 4.574 19.549 7.44 29.762 7.44 5.553 0 11.162-.845 16.767-2.719 14.238-4.762 27.082-18.55 36.167-38.826 8.104-18.086 12.707-40.248 12.63-60.804-.033-8.817-.876-16.976-2.466-24.397 10.718.079 18.888 3.584 24.806 10.642zm-153.072 4.415c.001 0 .007.001.007.001 47.632-49.078 75.744-49.736 88.411-45.605 24.455 7.975 27.216 41.12 27.268 55.001.147 39.207-17.495 78.271-38.523 85.302-13.093 4.378-40.529 4.602-79.937-40.658h-.02c2.666-3.706 4.242-8.246 4.242-13.15v-32.945c0-2.796-.515-5.473-1.448-7.946zm-58.073 7.946c0-4.152 3.378-7.531 7.53-7.531h29.415c4.152 0 7.53 3.378 7.53 7.531v32.945c0 4.152-3.378 7.53-7.53 7.53h-29.415c-4.152 0-7.53-3.378-7.53-7.53zm-172.039 84.131c-11.255-37.314-6.355-82.51 5.37-96.492 5.927-7.068 14.109-10.574 24.852-10.643-3.754 17.306-3.324 37.831 1.266 58.238.912 4.054 4.941 6.599 8.99 5.689 4.053-.912 6.601-4.937 5.689-8.99-10.69-47.527 3.909-78.979 23.856-85.484 12.666-4.133 40.78-3.474 88.411 45.605l.007-.002c-.934 2.474-1.448 5.151-1.448 7.947v32.945c0 4.907 1.579 9.45 4.248 13.158l-.026-.007c-39.408 45.26-66.85 45.035-79.936 40.657-9.553-3.193-18.76-13.123-25.929-27.959-1.807-3.741-6.302-5.309-10.046-3.501-3.741 1.807-5.308 6.305-3.501 10.046 9.077 18.788 21.078 31.127 34.705 35.684 5.607 1.875 11.211 2.719 16.766 2.719 10.214 0 20.246-2.867 29.766-7.442-1.371 1.516-2.767 3.03-4.197 4.532-19.393 20.373-48.109 43.008-74.786 35.131-25.788-7.612-38.192-32.388-44.057-51.831zm396.615 166.904h-411.482c-6.739 0-12.223-5.483-12.223-12.223 0-6.739 5.484-12.223 12.223-12.223h275.991c4.155 0 7.523-3.368 7.523-7.523s-3.368-7.523-7.523-7.523h-256.748c3.38-23.462 11.048-45.689 22.86-66.271 3.98 2.108 8.167 3.826 12.559 5.123 5.21 1.538 10.413 2.245 15.583 2.244 56.219-.004 108.17-83.668 113.608-92.693 1.622-1.773 3.179-3.522 4.648-5.221 1.892.516 3.881.797 5.934.797h29.415c2.054 0 4.043-.281 5.935-.797 1.469 1.7 3.026 3.448 4.648 5.221 5.439 9.028 57.386 92.701 113.607 92.693 5.167 0 10.376-.707 15.583-2.244 2.463-.727 4.861-1.587 7.195-2.57 10.997 19.88 18.182 41.251 21.421 63.719h-86.157c-4.155 0-7.523 3.368-7.523 7.523s3.368 7.523 7.523 7.523h105.398c6.739 0 12.223 5.484 12.223 12.223.002 6.738-5.482 12.222-12.221 12.222z"/></g></svg>