<svg id="Capa_1" enable-background="new 0 0 512 512" height="512" viewBox="0 0 512 512" width="512" xmlns="http://www.w3.org/2000/svg"><g><path d="m158.822 119.207 19.888 20h138.938l17.392-20-19.767-92.2c-2.441-11.379-12.496-19.507-24.133-19.507h-88.418c-11.637 0-21.693 8.128-24.132 19.507z" fill="#eab14d"/><path d="m315.272 27.006c-2.44-11.378-12.495-19.506-24.132-19.506h-16.888c11.637 0 21.693 8.128 24.132 19.507l19.767 112.2 16.888-20z" fill="#e49542"/><path d="m158.822 392.793 16.888-20h138.938l20.392 20-19.767 92.2c-2.439 11.378-12.495 19.507-24.132 19.507h-88.418c-11.637 0-21.693-8.128-24.132-19.507z" fill="#eab14d"/><path d="m318.152 372.793-19.767 112.2c-2.44 11.378-12.495 19.507-24.132 19.507h16.888c11.637 0 21.693-8.129 24.132-19.507l19.768-92.2z" fill="#e49542"/><path d="m390.411 219.985-26.593 8.93-11.476-34.175 26.593-8.93c4.188-1.406 8.723.849 10.129 5.036l6.384 19.01c1.406 4.188-.849 8.723-5.037 10.129z" fill="#eab14d"/><path d="m335.039 119.207h-176.217l-39.646 118.063c-4.081 12.153-4.081 25.307 0 37.46l39.646 118.063h176.218l39.646-118.063c4.081-12.153 4.081-25.307 0-37.46z" fill="#ffe07d"/><path d="m374.686 237.27-39.646-118.063h-20.392l39.646 118.063c4.081 12.153 4.081 25.307 0 37.46l-39.646 118.063h20.392l39.646-118.063c4.081-12.154 4.081-25.307 0-37.46z" fill="#ffd064"/><path d="m193.673 362.793c-7.934 0-14.981-5.067-17.507-12.588l-28.552-85.025c-1.988-5.92-1.988-12.44 0-18.36l28.552-85.024c2.526-7.521 9.573-12.588 17.507-12.588h106.515c7.934 0 14.981 5.067 17.507 12.589l28.551 85.024c1.988 5.92 1.988 12.44 0 18.36l-28.551 85.025c-2.526 7.521-9.573 12.589-17.507 12.589h-106.515z" fill="#f4fbff"/><path d="m346.246 246.819-28.551-85.024c-2.526-7.521-9.573-12.589-17.507-12.589h-20.392c7.934 0 14.981 5.067 17.507 12.589l28.551 85.024c1.988 5.92 1.988 12.44 0 18.36l-28.551 85.025c-2.526 7.521-9.573 12.589-17.507 12.589h20.392c7.934 0 14.981-5.068 17.507-12.589l28.551-85.025c1.988-5.919 1.988-12.44 0-18.36z" fill="#daf1f4"/><g><path d="m246.931 190.646c4.142 0 7.5-3.357 7.5-7.5v-4.783c0-4.143-3.358-7.5-7.5-7.5s-7.5 3.357-7.5 7.5v4.783c0 4.142 3.358 7.5 7.5 7.5z"/><path d="m324.568 263.5c4.143 0 7.5-3.357 7.5-7.5s-3.357-7.5-7.5-7.5h-4.783c-4.143 0-7.5 3.357-7.5 7.5s3.357 7.5 7.5 7.5z"/><path d="m246.93 321.354c-4.142 0-7.5 3.357-7.5 7.5v4.783c0 4.143 3.358 7.5 7.5 7.5s7.5-3.357 7.5-7.5v-4.783c0-4.143-3.358-7.5-7.5-7.5z"/><path d="m169.293 248.5c-4.142 0-7.5 3.357-7.5 7.5s3.358 7.5 7.5 7.5h4.784c4.142 0 7.5-3.357 7.5-7.5s-3.358-7.5-7.5-7.5z"/><path d="m239.431 248.5h-17.499c-4.142 0-7.5 3.357-7.5 7.5s3.358 7.5 7.5 7.5h24.999c4.142 0 7.5-3.357 7.5-7.5v-46.404c0-4.143-3.358-7.5-7.5-7.5s-7.5 3.357-7.5 7.5z"/><path d="m293.041 240.298c4.143 0 7.5-3.357 7.5-7.5s-3.357-7.5-7.5-7.5h-11.14c-4.143 0-7.5 3.357-7.5 7.5s3.357 7.5 7.5 7.5z"/><path d="m402.556 207.469-6.384-19.011c-1.317-3.924-4.084-7.101-7.791-8.943-3.708-1.844-7.91-2.133-11.834-.815l-12.239 4.11-22.025-65.59c-4.226-19.711-15.452-72.072-19.678-91.784-3.159-14.739-16.393-25.436-31.465-25.436h-88.419c-15.073 0-28.306 10.697-31.466 25.435-3.708 17.296-15.47 72.155-19.678 91.784l-39.512 117.663c-4.573 13.618-4.573 28.617 0 42.235l39.511 117.661c1.921 8.962 15.052 70.209 16.782 78.274.003.016.007.031.01.047 2.759 12.128 2.733 14.689 4.891 19.621 1.661 3.794 6.085 5.525 9.878 3.862 3.795-1.66 5.524-6.083 3.863-9.878-1.127-2.575-1.14-3.909-2.013-7.645h29.445v17.941h-8.051c-4.142 0-7.5 3.357-7.5 7.5s3.358 7.5 7.5 7.5h84.759c15.072 0 28.306-10.696 31.465-25.435 2.524-11.774 17.486-81.558 19.679-91.787l16.214-48.281c1.318-3.927-.796-8.179-4.723-9.497-3.927-1.322-8.179.795-9.497 4.722l-14.631 43.57h-165.432l-37.929-112.951c-3.54-10.538-3.54-22.146 0-32.685l37.929-112.95h165.432l37.929 112.95c3.538 10.538 3.538 22.146-.001 32.685l-13.752 40.954c-1.318 3.927.796 8.179 4.723 9.497 3.925 1.321 8.18-.795 9.497-4.722l13.752-40.954c4.573-13.618 4.573-28.617 0-42.235l-1.235-3.677 12.239-4.11c8.101-2.719 12.478-11.524 9.757-19.625zm-220.784 256.592-5.022-23.423h37.682v23.423zm47.66 32.939v-37.119h34.997v37.119zm82.658-32.939h-32.661v-23.423h37.682zm-20.95 32.939h-11.711v-17.939h29.445l-.935 4.36c-1.687 7.868-8.752 13.579-16.799 13.579zm29.188-71.362h-40.898v-25.345h46.332zm-55.899-25.345v44.588h-34.997v-44.588zm-49.997 0v25.345h-40.898l-5.434-25.345zm-40.898-313.931h40.898v25.344h-46.332zm8.238-38.423h32.661v23.423h-37.683zm135.34 23.423h-37.682v-23.423h32.661zm-52.683 40.344h-34.997v-44.588h34.997zm15 0v-25.344h40.898l5.434 25.344zm28.51-83.127.935 4.36h-29.445v-17.939h11.711c8.047 0 15.112 5.711 16.799 13.579zm-43.51-13.579v37.118h-34.997v-37.118zm-61.708 0h11.711v17.939h-29.445l.935-4.36c1.687-7.868 8.752-13.579 16.799-13.579zm185.302 197.876-12.237 4.109c-.418-1.243-1.609-4.792-6.702-19.956l12.239-4.11c.257-.087.543.054.631.314l6.384 19.011c.086.261-.054.544-.315.632z"/><path d="m212.28 141.707h-18.606c-11.168 0-21.061 7.113-24.617 17.7l-28.551 85.024c-2.505 7.46-2.505 15.676 0 23.136l28.552 85.024c3.555 10.588 13.447 17.701 24.616 17.701h106.515c11.168 0 21.061-7.113 24.616-17.701l28.551-85.024c2.506-7.46 2.506-15.676 0-23.136l-28.551-85.023c-3.556-10.588-13.448-17.701-24.616-17.701h-57.921c-4.142 0-7.5 3.357-7.5 7.5s3.358 7.5 7.5 7.5h57.921c4.717 0 8.896 3.005 10.397 7.477l28.551 85.023c1.471 4.38 1.471 9.205 0 13.585l-28.551 85.024c-1.502 4.472-5.681 7.477-10.397 7.477h-106.516c-4.717 0-8.895-3.005-10.396-7.477l-28.552-85.024c-1.471-4.38-1.471-9.205 0-13.585l28.551-85.024c1.501-4.472 5.68-7.476 10.397-7.476h18.606c4.142 0 7.5-3.357 7.5-7.5s-3.357-7.5-7.499-7.5z"/></g></g></svg>