<svg id="Capa_1" enable-background="new 0 0 512 512" height="512" viewBox="0 0 512 512" width="512" xmlns="http://www.w3.org/2000/svg"><g><g><g fill="#36ce94"><path d="m253.468 260.152s77.242 22.364 128.011-60.87 16.055-175.32 16.055-175.32-97.763 11.281-148.532 94.515c-50.77 83.233 4.466 141.675 4.466 141.675z"/><path d="m258.532 251.849s55.235 58.442 4.466 141.676-148.532 94.515-148.532 94.515-34.714-92.086 16.055-175.32c50.77-83.235 128.011-60.871 128.011-60.871z"/><path d="m253.468 251.849s77.242-22.364 128.011 60.87 16.055 175.32 16.055 175.32-97.763-11.281-148.532-94.515c-50.77-83.233 4.466-141.675 4.466-141.675z"/></g><path d="m262.998 375.524c-45.159 74.036-134.617 91.142-153.837 94.019 2.724 11.641 5.304 18.496 5.304 18.496s97.763-11.281 148.533-94.515c18.417-30.193 22.878-57.119 21.094-79.182-1.447 18.161-7.423 38.771-21.094 61.182z" fill="#36bf84"/><path d="m249.002 375.524c-13.67-22.412-19.647-43.022-21.094-61.182-1.785 22.062 2.677 48.988 21.094 79.182 50.769 83.234 148.532 94.515 148.532 94.515s2.58-6.855 5.304-18.496c-19.22-2.876-108.677-19.982-153.836-94.019z" fill="#36bf84"/><path d="m258.532 260.152s55.235-58.442 4.466-141.676-148.532-94.515-148.532-94.515-34.714 92.086 16.055 175.32c50.77 83.234 128.011 60.871 128.011 60.871z" fill="#36ce94"/><g fill="#36ce94"><path d="m260.437 255.999s-19.267 70.798-108.226 70.815-144.211-70.768-144.211-70.768 55.226-70.805 144.185-70.821c88.959-.017 108.252 70.774 108.252 70.774z"/><path d="m251.563 256.001s19.293 70.791 108.252 70.775c88.96-.017 144.185-70.822 144.185-70.822s-55.252-70.785-144.211-70.768-108.226 70.815-108.226 70.815z"/></g><path d="m152.211 308.814c-69.12.013-117.883-42.712-136.199-61.771-5.257 5.474-8.012 9.003-8.012 9.003s55.252 70.785 144.211 70.768 108.226-70.815 108.226-70.815-.964-3.526-3.441-8.996c-8.628 19.068-35.671 61.798-104.785 61.811z" fill="#36bf84"/><path d="m359.815 308.776c-69.122.013-96.179-42.719-104.811-61.779-2.478 5.475-3.441 9.004-3.441 9.004s19.293 70.791 108.252 70.775c88.959-.017 144.185-70.822 144.185-70.822s-2.755-3.526-8.012-8.997c-18.311 19.069-67.057 61.806-136.173 61.819z" fill="#36bf84"/><g><path d="m256 251.563s-56.636 19.28-56.636 108.239 56.636 144.198 56.636 144.198 56.636-55.238 56.636-144.198-56.636-108.239-56.636-108.239z" fill="#cb3541"/><path d="m259.723 482.027c-1.986 2.226-5.461 2.226-7.447 0-12.092-13.558-49.662-61.079-52.709-131.161-.13 2.9-.203 5.873-.203 8.936 0 88.96 56.636 144.198 56.636 144.198s56.636-55.238 56.636-144.198c0-3.063-.073-6.035-.203-8.936-3.047 70.082-40.617 117.604-52.71 131.161z" fill="#ba3243"/><path d="m252.54 257.108s-10.205-58.951 67.884-101.563c78.089-42.613 153.707-19.357 153.707-19.357s-21.359 76.175-99.449 118.788c-78.088 42.612-122.142 2.132-122.142 2.132z" fill="#cb3541"/><path d="m259.46 257.108s10.205-58.951-67.884-101.563c-78.089-42.613-153.707-19.357-153.707-19.357s21.36 76.175 99.449 118.788c78.088 42.612 122.142 2.132 122.142 2.132z" fill="#cb3541"/><g fill="#ba3243"><path d="m374.683 236.976c-74.034 40.4-117.468 6.118-121.78 2.448-1.555 10.783-.362 17.684-.362 17.684s44.053 40.48 122.142-2.133 99.449-118.788 99.449-118.788-2.19-.673-6.201-1.579c-10.871 24.783-37.708 72.06-93.248 102.368z"/><path d="m137.317 236.976c-55.54-30.308-82.377-77.585-93.248-102.367-4.011.906-6.201 1.579-6.201 1.579s21.36 76.175 99.449 118.788 122.142 2.133 122.142 2.133 1.193-6.901-.362-17.684c-4.312 3.669-47.746 37.95-121.78-2.449z"/></g></g><g><path d="m256 260.437s56.636-19.28 56.636-108.239-56.636-144.198-56.636-144.198-56.636 55.239-56.636 144.198 56.636 108.239 56.636 108.239z" fill="#f7594e"/><path d="m259.46 254.892s10.205 58.951-67.884 101.563c-78.089 42.613-153.707 19.357-153.707 19.357s21.36-76.175 99.449-118.788c78.088-42.612 122.142-2.132 122.142-2.132z" fill="#f7594e"/><path d="m259.098 254.576c-2.99 20.739-16.146 55.844-67.522 83.879-64.815 35.369-127.923 25.361-147.507 20.936-4.414 10.061-6.201 16.421-6.201 16.421s75.618 23.255 153.707-19.357c78.089-42.613 67.884-101.563 67.884-101.563s-.125-.115-.361-.316z" fill="#ea4642"/><path d="m252.54 254.892s-10.205 58.951 67.884 101.563c78.089 42.613 153.707 19.357 153.707 19.357s-21.359-76.175-99.449-118.788c-78.088-42.612-122.142-2.132-122.142-2.132z" fill="#f7594e"/><path d="m320.424 338.455c-51.376-28.035-64.532-63.14-67.522-83.879-.236.201-.362.316-.362.316s-10.205 58.951 67.884 101.563c78.089 42.613 153.707 19.357 153.707 19.357s-1.787-6.36-6.201-16.421c-19.583 4.425-82.691 14.433-147.506-20.936z" fill="#ea4642"/></g><g fill="#ffe08c"><ellipse cx="229.731" cy="238.895" rx="26.269" ry="26.269" transform="matrix(.16 -.987 .987 .16 -42.878 427.394)"/><circle cx="256" cy="284.444" r="26.269"/><ellipse cx="282.269" cy="238.895" rx="26.269" ry="26.269" transform="matrix(.23 -.973 .973 .23 -15.088 458.726)"/></g><path d="m229.731 247.164c-11.346 0-21.011-7.194-24.685-17.269-1.024 2.808-1.583 5.838-1.583 9 0 14.508 11.761 26.268 26.269 26.268s26.269-11.761 26.269-26.268c0-3.162-.559-6.193-1.583-9-3.675 10.075-13.341 17.269-24.687 17.269z" fill="#f9d375"/><path d="m256 292.712c-11.346 0-21.011-7.194-24.685-17.269-1.024 2.807-1.583 5.838-1.583 9 0 14.508 11.761 26.269 26.269 26.269s26.269-11.761 26.269-26.269c0-3.162-.559-6.193-1.583-9-3.676 10.076-13.341 17.269-24.687 17.269z" fill="#f9d375"/><path d="m282.269 247.164c-11.346 0-21.011-7.194-24.685-17.269-1.024 2.808-1.583 5.838-1.583 9 0 14.508 11.761 26.268 26.269 26.268s26.269-11.761 26.269-26.268c0-3.162-.559-6.193-1.583-9-3.676 10.075-13.341 17.269-24.687 17.269z" fill="#f9d375"/></g><path d="m510.409 251.33c-.983-1.259-23.094-29.229-61.937-50.452 4.665-6.167 8.649-12.072 11.993-17.467 15.513-25.035 21.099-44.609 21.329-45.43 1.101-3.926-1.13-8.013-5.026-9.211-.815-.251-20.297-6.144-49.745-6.644-3.614-.063-7.482-.039-11.559.098 6.367-55.388-9.888-99.422-10.621-101.367-1.216-3.226-4.475-5.226-7.895-4.815-2.183.252-51.506 6.296-99.111 39.781-2.324-4.799-4.663-9.215-6.929-13.205-14.545-25.609-29.051-39.888-29.661-40.482-2.918-2.847-7.575-2.847-10.493 0-.61.595-15.116 14.874-29.661 40.483-2.266 3.99-4.605 8.406-6.929 13.205-47.605-33.485-96.928-39.529-99.111-39.781-3.427-.4-6.68 1.59-7.895 4.815-.732 1.944-16.982 45.963-10.624 101.336-35.424-1.186-59.907 6.149-61.3 6.577-3.896 1.199-6.127 5.286-5.026 9.211.23.821 5.816 20.394 21.329 45.43 3.351 5.408 7.346 11.327 12.025 17.51-38.869 21.241-60.988 49.243-61.971 50.503-2.119 2.718-2.118 6.529.002 9.247.983 1.259 23.093 29.229 61.937 50.452-4.665 6.167-8.649 12.072-11.993 17.467-15.513 25.035-21.099 44.609-21.329 45.43-1.101 3.926 1.13 8.013 5.026 9.211.815.251 20.297 6.144 49.745 6.644 1.245.022 2.515.032 3.817.032 2.483 0 5.072-.042 7.752-.133-1.217 10.642-1.685 21.576-1.373 32.625.116 4.076 3.456 7.302 7.508 7.302.072 0 .144-.001.216-.003 4.149-.117 7.417-3.575 7.299-7.724-.319-11.293.229-22.442 1.614-33.232 23.331-2.354 51.404-8.796 79.991-23.762.704 30.177 7.715 56.332 16.136 77.163-35.866 25.998-74.13 35.196-88.607 37.905-1.785-5.935-4.479-16.116-6.484-29.108-.633-4.101-4.461-6.904-8.573-6.28-4.102.633-6.913 4.472-6.28 8.573 3.512 22.752 8.934 37.3 9.163 37.908 1.113 2.953 3.933 4.866 7.028 4.866.287 0 .576-.016.867-.05 2.183-.252 51.506-6.295 99.111-39.781 2.324 4.799 4.663 9.215 6.929 13.205 14.545 25.61 29.051 39.888 29.661 40.483 1.459 1.424 3.353 2.135 5.247 2.135 1.893 0 3.788-.711 5.247-2.135.611-.595 15.116-14.874 29.661-40.483 2.266-3.99 4.605-8.406 6.929-13.205 47.605 33.486 96.928 39.529 99.111 39.781.291.034.58.05.867.05 3.096 0 5.916-1.913 7.028-4.865.732-1.944 16.982-45.963 10.623-101.337 2.643.089 5.231.134 7.747.134 31.207 0 52.266-6.314 53.553-6.709 3.897-1.199 6.128-5.286 5.027-9.211-.23-.821-5.816-20.394-21.329-45.43-3.351-5.408-7.346-11.327-12.025-17.509 38.869-21.241 60.988-49.244 61.971-50.504 2.12-2.719 2.119-6.53-.002-9.247zm-84.179-114.185c17.059.247 30.653 2.478 38.545 4.147-2.869 7.542-8.348 20.18-17.369 34.658-13.126 21.066-36.663 50.435-74.502 71.539-19.131-9.703-37.851-15.424-55.825-17.039l57.115-31.167c3.643-1.988 4.984-6.554 2.997-10.197-1.988-3.643-6.553-4.984-10.197-2.997l-58.19 31.754c-.315-.396-.639-.785-.972-1.167 6.829-15.267 10.863-32.802 12.046-52.321 1.422-.825 2.839-1.629 4.271-2.409 38.776-21.161 76.889-25.173 102.081-24.801zm-196.55 120.523c-10.369 0-18.805-8.436-18.805-18.805s8.436-18.805 18.805-18.805 18.805 8.436 18.805 18.805c0 10.368-8.436 18.805-18.805 18.805zm26.32 7.995c10.369 0 18.805 8.436 18.805 18.805s-8.436 18.805-18.805 18.805-18.805-8.436-18.805-18.805 8.436-18.805 18.805-18.805zm26.32-7.995c-10.369 0-18.805-8.436-18.805-18.805s8.436-18.805 18.805-18.805 18.805 8.436 18.805 18.805c0 10.368-8.436 18.805-18.805 18.805zm110.348-225.714c4.075 13.573 12.889 49.449 7.522 91.299-23.336 2.352-51.398 8.801-79.991 23.771-.703-30.178-7.715-56.334-16.137-77.166 35.867-25.997 74.13-35.196 88.606-37.904zm-136.668-13.295c5.247 6.132 13.715 16.995 22.104 31.849 12.376 21.916 27.128 57.313 27.128 101.487 0 21.106-3.32 39.779-9.868 55.651-4.016-1.685-8.423-2.618-13.044-2.618-6.958 0-13.423 2.124-18.805 5.74v-84.813c0-4.151-3.364-7.515-7.515-7.515s-7.515 3.364-7.515 7.515v84.813c-5.382-3.617-11.847-5.74-18.805-5.74-4.621 0-9.028.934-13.045 2.619-6.546-15.873-9.867-34.546-9.867-55.651 0-44.174 14.752-79.571 27.128-101.487 8.39-14.856 16.859-25.72 22.104-31.85zm-208.771 122.643c14.762-3.096 49.468-8.136 89.957 1.326 4.039.947 8.082-1.566 9.027-5.607s-1.566-8.083-5.607-9.027c-10.019-2.342-19.674-3.865-28.801-4.781-5.334-41.715 3.471-77.663 7.535-91.257 14.491 2.713 52.743 11.913 88.597 37.902-8.423 20.837-15.437 47.001-16.137 77.188-6.942-3.636-14.105-6.935-21.368-9.782-3.865-1.515-8.224.389-9.739 4.253s.389 8.224 4.253 9.739c7.812 3.063 15.518 6.66 22.903 10.689 1.432.781 2.849 1.585 4.27 2.41 1.183 19.52 5.218 37.055 12.046 52.322-.332.382-.656.77-.971 1.166l-58.19-31.754c-3.643-1.987-8.207-.646-10.197 2.997-1.987 3.643-.646 8.208 2.997 10.197l57.115 31.167c-17.974 1.615-36.694 7.336-55.825 17.039-37.838-21.102-61.376-50.472-74.503-71.538-9.015-14.473-14.493-27.107-17.362-34.649zm-29.81 114.735c7.906-8.751 27.323-28.183 55.777-43.229 12.808 14.764 29.477 30.133 50.706 43.191-21.249 13.071-37.929 28.456-50.741 43.232-28.343-14.991-47.815-34.445-55.742-43.194zm68.351 118.818c-17.059-.247-30.653-2.479-38.545-4.147 2.869-7.542 8.348-20.18 17.369-34.658 13.31-21.362 37.315-51.267 76.091-72.427 19.342-10.555 38.076-16.662 55.802-18.218 2.044 10.387 8.853 19.084 18.053 23.707l-76.843 43.667c-3.609 2.05-4.872 6.638-2.821 10.246 2.062 3.642 6.703 4.853 10.246 2.821l77.143-43.837c-.059.813-.099 1.631-.099 2.459 0 10.696 4.994 20.242 12.767 26.446-10.978 14.917-26.777 28.061-47.082 39.141-38.777 21.159-76.902 25.158-102.081 24.8zm170.233 118.483c-13.656-15.996-49.235-64.31-49.235-133.333 0-1.227.013-2.464.037-3.701 17.541-11.161 31.509-24.067 41.68-38.521v68.261c0 4.151 3.364 7.515 7.515 7.515s7.515-3.364 7.515-7.515v-68.261c10.172 14.454 24.139 27.36 41.68 38.521.023 1.237.037 2.474.037 3.701 0 44.174-14.752 79.571-27.128 101.487-8.388 14.853-16.856 25.716-22.101 31.846zm208.768-122.639c-14.742 3.091-49.366 8.123-89.777-1.284-4.037-.938-8.082 1.572-9.023 5.616-.941 4.042 1.573 8.081 5.615 9.022 9.952 2.316 19.537 3.821 28.606 4.731 5.336 41.717-3.47 77.667-7.533 91.261-14.491-2.712-52.743-11.912-88.597-37.902 8.423-20.837 15.437-47.001 16.137-77.188 7.017 3.675 14.255 7.004 21.594 9.871 3.766 1.501 8.226-.36 9.734-4.264 1.511-3.866-.398-8.224-4.264-9.734-7.882-3.08-15.659-6.704-23.114-10.773-20.305-11.08-36.104-24.223-47.082-39.141 7.773-6.205 12.767-15.75 12.767-26.446 0-.831-.04-1.653-.099-2.469l77.142 43.847c3.543 2.031 8.184.821 10.247-2.82 2.051-3.608.789-8.196-2.82-10.246l-76.834-43.672c9.194-4.624 15.999-13.318 18.042-23.702 17.727 1.555 36.461 7.663 55.802 18.218 38.776 21.16 62.781 51.065 76.091 72.427 9.019 14.472 14.497 27.106 17.366 34.648zm-25.966-71.506c-12.808-14.764-29.477-30.133-50.706-43.192 21.248-13.071 37.928-28.455 50.741-43.232 28.342 14.992 47.814 34.446 55.742 43.195-7.907 8.751-27.324 28.183-55.777 43.229z"/></g></svg>