<svg id="Capa_1" enable-background="new 0 0 512 512" height="512" viewBox="0 0 512 512" width="512" xmlns="http://www.w3.org/2000/svg"><g><g><g><path d="m256 183.026c-27.837 0-50.403-22.566-50.403-50.403v-50.403h100.806v50.403c0 27.837-22.566 50.403-50.403 50.403z" fill="#ffd6bd"/></g><path d="m256 165.026c-27.837 0-50.403-22.566-50.403-50.403v18c0 27.837 22.566 50.403 50.403 50.403 27.837 0 50.403-22.566 50.403-50.403v-18c0 27.837-22.566 50.403-50.403 50.403z" fill="#f9c6aa"/><path d="m359.299 218.344h-38.964v-35.318h24.079c8.221 0 14.886 6.665 14.886 14.886v20.432z" fill="#cb3541"/><path d="m191.665 218.344h-38.964v-20.432c0-8.221 6.665-14.886 14.886-14.886h24.079v35.318z" fill="#cb3541"/><path d="m191.665 183.026h128.669v35.318h-128.669z" fill="#f7594e"/><path d="m191.665 218.344h128.669v103.81h-128.669z" fill="#ffe08c"/><path d="m191.665 322.154h128.669v32.825h-128.669z" fill="#565e75"/><path d="m191.665 336.979h128.669v18h-128.669z" fill="#4b5165"/><path d="m191.665 354.979h128.669v36.866h-128.669z" fill="#ffe08c"/><path d="m191.665 373.846h128.669v18h-128.669z" fill="#f9d375"/><path d="m172.183 351.96c-10.76 0-19.482-8.722-19.482-19.482v-114.134h38.964v114.134c0 10.759-8.722 19.482-19.482 19.482z" fill="#febd55"/><path d="m339.817 351.96c10.76 0 19.482-8.722 19.482-19.482v-114.134h-38.964v114.134c0 10.759 8.722 19.482 19.482 19.482z" fill="#febd55"/><path d="m213.538 504c-12.08 0-21.873-9.793-21.873-21.873v-56.132h43.746v56.132c0 12.08-9.793 21.873-21.873 21.873z" fill="#565e75"/><path d="m191.665 391.846h43.746v34.15h-43.746z" fill="#f7594e"/><path d="m298.462 504c-12.08 0-21.873-9.793-21.873-21.873v-56.132h43.746v56.132c-.001 12.08-9.793 21.873-21.873 21.873z" fill="#565e75"/><path d="m172.183 333.96c-10.76 0-19.482-8.722-19.482-19.482v18c0 10.76 8.722 19.482 19.482 19.482s19.482-8.722 19.482-19.482v-18c0 10.759-8.722 19.482-19.482 19.482z" fill="#f9ab43"/><path d="m339.817 333.96c-10.76 0-19.482-8.722-19.482-19.482v18c0 10.76 8.722 19.482 19.482 19.482s19.482-8.722 19.482-19.482v-18c0 10.759-8.723 19.482-19.482 19.482z" fill="#f9ab43"/><path d="m213.538 486c-12.08 0-21.873-9.793-21.873-21.873v18c0 12.08 9.793 21.873 21.873 21.873s21.873-9.793 21.873-21.873v-18c0 12.08-9.793 21.873-21.873 21.873z" fill="#4b5165"/><path d="m298.462 486c-12.08 0-21.873-9.793-21.873-21.873v18c0 12.08 9.793 21.873 21.873 21.873s21.873-9.793 21.873-21.873v-18c-.001 12.08-9.793 21.873-21.873 21.873z" fill="#4b5165"/><path d="m276.589 391.846h43.746v34.15h-43.746z" fill="#f7594e"/><path d="m191.665 391.846h43.746v18h-43.746z" fill="#ea4642"/><path d="m276.589 391.846h43.746v18h-43.746z" fill="#ea4642"/><path d="m306.403 82.22h-100.806l-6.902-57.36c-1.08-8.966 5.921-16.86 14.952-16.86h84.706c9.031 0 16.032 7.894 14.953 16.86z" fill="#f7594e"/><path d="m203.431 64.22 2.166 18h100.806l2.166-18z" fill="#ea4642"/></g><g><path d="m276.672 137.928c-2.867.141-11.094-.502-14.797-5.145-1.426-1.788-3.588-2.829-5.875-2.829s-4.449 1.041-5.875 2.829c-3.702 4.644-11.941 5.288-14.759 5.147-4.138-.279-7.704 2.903-7.955 7.046s2.904 7.704 7.046 7.956c1.489.087 12.518.529 21.543-5.434 7.416 4.9 16.184 5.477 19.901 5.477 4.806.416 8.924-3.099 8.67-7.958-.228-4.13-3.784-7.305-7.899-7.089z"/><path d="m235.836 124.08c4.15 0 7.515-3.364 7.515-7.515v-5.365c0-4.151-3.365-7.515-7.515-7.515s-7.515 3.364-7.515 7.515v5.365c0 4.151 3.365 7.515 7.515 7.515z"/><path d="m276.164 124.08c4.15 0 7.515-3.364 7.515-7.515v-5.365c0-4.151-3.365-7.515-7.515-7.515s-7.515 3.364-7.515 7.515v5.365c0 4.151 3.365 7.515 7.515 7.515z"/><path d="m344.586 175.369h-49.667c11.722-10.623 19.097-25.959 19.097-42.987v-42.988h12.741c4.15 0 7.515-3.364 7.515-7.515s-3.365-7.515-7.515-7.515h-11.783l5.904-49.059c.772-6.415-1.244-12.866-5.531-17.7-4.286-4.833-10.451-7.605-16.912-7.605h-84.871c-6.461 0-12.625 2.772-16.912 7.606s-6.303 11.286-5.531 17.701l5.904 49.059h-11.783c-4.15 0-7.515 3.364-7.515 7.515s3.365 7.515 7.515 7.515h12.741v42.987c0 17.028 7.375 32.364 19.097 42.987h-49.667c-12.368 0-22.43 10.062-22.43 22.43v134.829c0 14.907 12.128 27.035 27.035 27.035 4.311 0 8.386-1.019 12.006-2.822v125.729c0 16.228 13.202 29.431 29.43 29.431s29.43-13.203 29.43-29.431v-82.943h26.229v82.943c0 16.228 13.202 29.431 29.43 29.431s29.43-13.203 29.43-29.431v-125.73c3.62 1.802 7.695 2.822 12.006 2.822 14.907 0 27.035-12.128 27.035-27.035v-37.313c0-4.151-3.365-7.515-7.515-7.515s-7.515 3.364-7.515 7.515v37.313c0 6.62-5.385 12.006-12.005 12.006s-12.006-5.385-12.006-12.006v-106.843h24.011v39.471c0 4.151 3.364 7.515 7.515 7.515 4.15 0 7.515-3.364 7.515-7.515v-67.457c.002-12.369-10.06-22.43-22.428-22.43zm-145.532 209.228v-21.909h21.287c4.15 0 7.515-3.364 7.515-7.515s-3.365-7.515-7.515-7.515h-21.287v-15.031-2.829h113.891v2.829 15.031h-62.545c-4.15 0-7.515 3.364-7.515 7.515s3.365 7.515 7.515 7.515h62.545v21.909zm8.843-367.019c1.457-1.644 3.47-2.549 5.667-2.549h84.871c4.416-.111 8.159 4.11 7.521 8.48l-6.119 50.855h-87.675l-6.119-50.855c-.263-2.18.396-4.287 1.854-5.931zm5.116 114.804v-42.988h85.975v42.987c0 23.703-19.284 42.987-42.987 42.987s-42.988-19.283-42.988-42.986zm99.933 58.016v20.357h-21.753c-4.15 0-7.515 3.364-7.515 7.515s3.365 7.515 7.515 7.515h21.753v88.984h-113.892v-88.984h62.08c4.15 0 7.515-3.364 7.515-7.515s-3.365-7.515-7.515-7.515h-62.08v-20.357zm-152.932 7.4c0-4.08 3.32-7.4 7.4-7.4h16.611v20.357h-24.011zm12.005 146.835c-6.62 0-12.005-5.385-12.005-12.006v-106.842h24.011v106.842c0 6.621-5.386 12.006-12.006 12.006zm55.837 137.936c0 7.941-6.46 14.401-14.401 14.401s-14.401-6.46-14.401-14.401v-48.727h28.802zm0-63.756h-28.802v-19.187h28.802zm85.09-19.187v19.187h-28.802v-19.187zm0 82.943c0 7.941-6.46 14.401-14.401 14.401s-14.401-6.46-14.401-14.401v-48.727h28.802zm15.029-271.814v-20.357h16.611c4.081 0 7.4 3.32 7.4 7.4v12.957z"/><path d="m224.182 239.361c-4.15 0-7.515 3.364-7.515 7.515v7.299c0 4.151 3.365 7.515 7.515 7.515s7.515-3.364 7.515-7.515v-7.299c0-4.151-3.365-7.515-7.515-7.515z"/><path d="m224.182 272.77c-4.15 0-7.515 3.364-7.515 7.515v7.299c0 4.151 3.365 7.515 7.515 7.515s7.515-3.364 7.515-7.515v-7.299c0-4.151-3.365-7.515-7.515-7.515z"/><path d="m287.818 261.69c4.15 0 7.515-3.364 7.515-7.515v-7.299c0-4.151-3.365-7.515-7.515-7.515s-7.515 3.364-7.515 7.515v7.299c0 4.151 3.365 7.515 7.515 7.515z"/><path d="m287.818 295.099c4.15 0 7.515-3.364 7.515-7.515v-7.299c0-4.151-3.365-7.515-7.515-7.515s-7.515 3.364-7.515 7.515v7.299c0 4.151 3.365 7.515 7.515 7.515z"/></g></g></svg>