<svg id="Capa_1" enable-background="new 0 0 512.002 512.002" height="512" viewBox="0 0 512.002 512.002" width="512" xmlns="http://www.w3.org/2000/svg"><g><path d="m386.908 344.88h-324.454c-15.757 0-28.53-12.773-28.53-28.53v-167.039h352.984z" fill="#664545"/><path d="m33.924 235.349c4.667 4.787 11.153 7.704 18.209 7.704h334.774v-93.742h-352.983z" fill="#523838"/><path d="m389.371 91.449h-357.91c-15.42 0-26.822 14.361-23.325 29.379l19.219 82.552c2.682 11.52 12.95 19.673 24.779 19.673h336.764l23.799-102.224c3.496-15.019-7.906-29.38-23.326-29.38z" fill="#8b5e5e"/><path d="m389.371 91.449h-25.5c15.42 0 26.822 14.361 23.325 29.379l-23.799 102.224h25.5l23.799-102.224c3.497-15.018-7.904-29.379-23.325-29.379z" fill="#785252"/><circle cx="371.433" cy="336.572" fill="#5766cb" r="133.069"/><path d="m371.433 203.503c-3.528 0-7.023.14-10.482.41 68.592 5.345 122.587 62.695 122.587 132.659s-53.995 127.314-122.587 132.659c3.459.27 6.954.41 10.482.41 73.492 0 133.069-59.577 133.069-133.069s-59.577-133.069-133.069-133.069z" fill="#3d4fc3"/><circle cx="371.433" cy="336.572" fill="#f4fbff" r="99.255"/><path d="m371.433 237.317c-4.599 0-9.123.32-13.556.925 48.403 6.611 85.7 48.112 85.7 98.33s-37.297 91.719-85.7 98.33c4.433.605 8.957.925 13.556.925 54.817 0 99.255-44.438 99.255-99.255s-44.438-99.255-99.255-99.255z" fill="#daf1f4"/><path d="m231.161 250.287h-41.489c-6.143 0-11.123-4.98-11.123-11.123v-32.31c0-6.143 4.98-11.123 11.123-11.123h41.489c6.143 0 11.123 4.98 11.123 11.123v32.31c-.001 6.143-4.98 11.123-11.123 11.123z" fill="#eab14d"/><path d="m231.161 195.731h-19.069c6.143 0 11.123 4.98 11.123 11.123v32.31c0 6.143-4.98 11.123-11.123 11.123h19.069c6.143 0 11.123-4.98 11.123-11.123v-32.31c-.001-6.143-4.98-11.123-11.123-11.123z" fill="#e49542"/><g><path d="m371.433 229.817c-58.865 0-106.755 47.89-106.755 106.755s47.89 106.755 106.755 106.755 106.755-47.89 106.755-106.755-47.89-106.755-106.755-106.755zm0 198.51c-50.594 0-91.755-41.161-91.755-91.755s41.161-91.755 91.755-91.755 91.755 41.161 91.755 91.755-41.161 91.755-91.755 91.755z"/><path d="m371.433 275.363c4.143 0 7.5-3.357 7.5-7.5v-3.435c0-4.143-3.357-7.5-7.5-7.5s-7.5 3.357-7.5 7.5v3.435c0 4.143 3.358 7.5 7.5 7.5z"/><path d="m417.143 280.255-2.43 2.43c-2.929 2.93-2.929 7.678 0 10.607 1.465 1.464 3.385 2.196 5.304 2.196s3.839-.732 5.304-2.196l2.43-2.43c2.929-2.93 2.929-7.678 0-10.607-2.93-2.928-7.678-2.928-10.608 0z"/><path d="m432.641 336.572c0 4.143 3.357 7.5 7.5 7.5h3.436c4.143 0 7.5-3.357 7.5-7.5s-3.357-7.5-7.5-7.5h-3.436c-4.142 0-7.5 3.357-7.5 7.5z"/><path d="m302.724 329.072h-3.436c-4.143 0-7.5 3.357-7.5 7.5s3.357 7.5 7.5 7.5h3.436c4.143 0 7.5-3.357 7.5-7.5s-3.357-7.5-7.5-7.5z"/><path d="m425.319 379.852c-2.929-2.929-7.678-2.929-10.606.003-2.928 2.929-2.927 7.678.003 10.606l2.43 2.429c1.464 1.464 3.383 2.195 5.302 2.195 1.92 0 3.84-.732 5.305-2.198 2.928-2.929 2.927-7.678-.003-10.606z"/><path d="m371.433 397.781c-4.143 0-7.5 3.357-7.5 7.5v3.436c0 4.143 3.357 7.5 7.5 7.5s7.5-3.357 7.5-7.5v-3.436c0-4.143-3.357-7.5-7.5-7.5z"/><path d="m317.544 379.853-2.429 2.429c-2.929 2.93-2.929 7.678 0 10.607 1.465 1.464 3.385 2.196 5.304 2.196s3.839-.732 5.304-2.196l2.429-2.429c2.929-2.93 2.929-7.678 0-10.607-2.93-2.927-7.678-2.927-10.608 0z"/><path d="m317.544 293.29c1.465 1.466 3.385 2.198 5.305 2.198 1.919 0 3.838-.732 5.302-2.195 2.93-2.929 2.931-7.678.003-10.606l-2.429-2.43c-2.93-2.932-7.679-2.929-10.606-.003-2.93 2.929-2.931 7.678-.003 10.606z"/><path d="m391.876 329.072h-12.942v-32.084c0-4.143-3.357-7.5-7.5-7.5s-7.5 3.357-7.5 7.5v39.584c0 4.143 3.357 7.5 7.5 7.5h20.442c4.143 0 7.5-3.357 7.5-7.5s-3.358-7.5-7.5-7.5z"/><path d="m485.523 254.452c-2.424-3.36-7.109-4.118-10.471-1.697-3.359 2.423-4.119 7.11-1.697 10.471 15.47 21.454 23.646 46.817 23.646 73.347 0 69.239-56.33 125.569-125.568 125.569-69.239 0-125.569-56.33-125.569-125.569 0-69.238 56.33-125.568 125.569-125.568 30.53 0 59.962 11.095 82.873 31.24 3.11 2.732 7.849 2.431 10.585-.681 2.734-3.11 2.431-7.85-.681-10.585-17.849-15.694-39.233-26.475-62.104-31.585l17.894-76.864c4.588-19.709-10.361-38.58-30.629-38.58h-98.896v-19.944c0-16.071-13.075-29.146-29.146-29.146h-101.826c-16.071 0-29.146 13.074-29.146 29.146v19.943h-45.288c-4.143 0-7.5 3.357-7.5 7.5s3.357 7.5 7.5 7.5h304.303c10.583 0 18.423 9.853 16.02 20.179l-18.105 77.771c-5.239-.594-10.531-.895-15.853-.895-26.062 0-50.485 7.138-71.432 19.549h-50.218v-8.698c0-10.269-8.354-18.623-18.623-18.623h-41.488c-10.269 0-18.623 8.354-18.623 18.623v8.698h-118.916c-8.406 0-15.585-5.755-17.475-13.873l-19.219-82.553c-2.399-10.306 5.418-20.178 16.021-20.178h23.62c4.143 0 7.5-3.357 7.5-7.5s-3.357-7.5-7.5-7.5h-23.62c-20.31 0-35.208 18.915-30.63 38.579l19.219 82.552c1.154 4.956 3.372 9.414 6.374 13.167v98.104c0 19.866 16.163 36.029 36.029 36.029h46.663c4.143 0 7.5-3.357 7.5-7.5s-3.357-7.5-7.5-7.5h-46.662c-11.596 0-21.029-9.434-21.029-21.029v-87.567c3.369 1.148 6.974 1.77 10.71 1.77h118.915v8.611c0 10.269 8.355 18.623 18.623 18.623h41.488c10.269 0 18.623-8.354 18.623-18.623v-8.611h29.45c-30.507 26.564-48.596 65.118-48.359 106.827h-91.77c-4.143 0-7.5 3.357-7.5 7.5s3.357 7.5 7.5 7.5h92.654c7.881 70.095 67.51 124.762 139.675 124.762 77.51 0 140.568-63.06 140.568-140.569 0-29.7-9.157-58.097-26.479-82.122zm-340.166-190.446c0-7.8 6.346-14.146 14.146-14.146h101.825c7.801 0 14.146 6.346 14.146 14.146v19.943h-130.117zm89.427 175.158c0 1.998-1.625 3.623-3.623 3.623h-41.488c-1.998 0-3.623-1.625-3.623-3.623v-32.31c0-1.998 1.625-3.623 3.623-3.623h41.488c1.998 0 3.623 1.625 3.623 3.623z"/></g></g></svg>