<svg id="Capa_1" enable-background="new 0 0 512 512" height="512" viewBox="0 0 512 512" width="512" xmlns="http://www.w3.org/2000/svg"><g><g><path d="m499 443.507c2.761 0 5-2.239 5-5v-88.906h-400.637v93.906z" fill="#c3d0d8"/><path d="m499 425.507h-395.637v18h395.637c2.761 0 5-2.239 5-5v-18c0 2.762-2.239 5-5 5z" fill="#b0c2cc"/><path d="m103.363 179.691h159.634v135.269h-159.634z" fill="#e4936b"/><path d="m69.087 349.601h34.277v-176.324c0-9.465-7.673-17.138-17.138-17.138-9.465 0-17.138 7.673-17.138 17.138v176.324z" fill="#ffe08c"/><path d="m103.363 314.96v34.641h400.637v-29.641c0-2.761-2.239-5-5-5z" fill="#565e75"/><path d="m69.087 331.601h34.277v18h-34.277z" fill="#f9d375"/><path d="m103.363 331.601h400.637v18h-400.637z" fill="#4b5165"/><path d="m151.397 132.586h52.97v47.106h-52.97z" fill="#ffe08c"/><path d="m151.397 161.691h52.97v18h-52.97z" fill="#f9d375"/><path d="m202.174 132.586h-48.583c-10.008 0-18.121-8.113-18.121-18.121 0-10.008 8.113-18.121 18.121-18.121h48.583c10.008 0 18.121 8.113 18.121 18.121 0 10.008-8.113 18.121-18.121 18.121z" fill="#f7594e"/><path d="m202.174 114.586h-48.583c-6.729 0-12.588-3.676-15.714-9.121-1.523 2.654-2.407 5.721-2.407 9 0 10.008 8.113 18.121 18.121 18.121h48.583c10.008 0 18.121-8.113 18.121-18.121 0-3.279-.884-6.346-2.407-9-3.126 5.445-8.985 9.121-15.714 9.121z" fill="#ea4642"/><path d="m262.997 61.988h213.169v252.972h-213.169z" fill="#ffe08c"/><path d="m103.363 296.96h159.634v18h-159.634z" fill="#db835d"/><path d="m262.997 296.96h213.169v18h-213.169z" fill="#f9d375"/><path d="m488.727 8h-238.291c-8.435 0-15.273 6.838-15.273 15.273v23.442c0 8.435 6.838 15.273 15.273 15.273h238.291c8.435 0 15.273-6.838 15.273-15.273v-23.442c0-8.435-6.838-15.273-15.273-15.273z" fill="#f7594e"/><path d="m488.727 43.988h-238.291c-8.435 0-15.273-6.838-15.273-15.273v18c0 8.435 6.838 15.273 15.273 15.273h238.291c8.435 0 15.273-6.838 15.273-15.273v-18c0 8.435-6.838 15.273-15.273 15.273z" fill="#ea4642"/><path d="m399.987 202.58h-60.811c-2.761 0-5-2.238-5-5v-48.017c0-19.554 15.852-35.405 35.406-35.405 19.554 0 35.406 15.852 35.406 35.405v48.017c-.001 2.762-2.239 5-5.001 5z" fill="#92e0ff"/><path d="m399.987 184.58h-60.811c-2.761 0-5-2.238-5-5v18c0 2.762 2.239 5 5 5h60.811c2.761 0 5-2.238 5-5v-18c0 2.762-2.238 5-5 5z" fill="#75d5f2"/><g><path d="m69.087 186.256c-30.417 14.596-51.421 45.68-51.421 81.673s21.004 67.077 51.421 81.672z" fill="#f7594e"/></g><path d="m18.12 258.928c-.292 2.962-.454 5.961-.454 9 0 35.992 21.004 67.077 51.421 81.672v-18c-27.85-13.362-47.796-40.552-50.967-72.672z" fill="#ea4642"/><path d="m103.363 349.601v130.075c0 2.761-2.239 5-5 5h-75.299c-10.169 0-17.412-9.875-14.358-19.574l33.053-104.968c1.974-6.269 7.786-10.532 14.358-10.532h47.246z" fill="#febd55"/><path d="m98.363 466.676h-75.299c-5.436 0-10.034-2.823-12.672-6.931l-1.687 5.357c-3.054 9.7 4.189 19.574 14.358 19.574h75.299c2.761 0 5-2.238 5-5v-18c.001 2.761-2.237 5-4.999 5z" fill="#f9ab43"/><circle cx="250.08" cy="443.507" fill="#565e75" r="60.493"/><circle cx="415.673" cy="443.507" fill="#565e75" r="60.493"/><path d="m250.08 486c-30.35 0-55.476-22.353-59.823-51.493-.438 2.937-.67 5.941-.67 9 0 33.409 27.084 60.493 60.493 60.493s60.493-27.083 60.493-60.493c0-3.059-.232-6.063-.67-9-4.348 29.14-29.473 51.493-59.823 51.493z" fill="#4b5165"/><path d="m415.673 486c-30.35 0-55.476-22.353-59.823-51.493-.438 2.937-.67 5.941-.67 9 0 33.409 27.084 60.493 60.493 60.493s60.493-27.083 60.493-60.493c0-3.059-.232-6.063-.67-9-4.348 29.14-29.473 51.493-59.823 51.493z" fill="#4b5165"/><path d="m135.47 441.679c0 9.465 7.673 17.138 17.138 17.138h261.16c9.465 0 17.138-7.673 17.138-17.138 0-9.465-7.673-17.138-17.138-17.138h-261.16c-9.465 0-17.138 7.673-17.138 17.138z" fill="#ffe08c"/><path d="m413.769 440.817h-261.16c-6.16 0-11.544-3.26-14.565-8.138-1.621 2.618-2.573 5.694-2.573 9 0 9.465 7.673 17.138 17.138 17.138h261.16c9.465 0 17.138-7.673 17.138-17.138 0-3.306-.952-6.382-2.573-9-3.021 4.878-8.406 8.138-14.565 8.138z" fill="#f9d375"/></g><g><path d="m489.183 69.123c12.581 0 22.817-10.236 22.817-22.818v-23.487c0-12.582-10.236-22.818-22.817-22.818h-238.753c-12.581 0-22.818 10.236-22.818 22.818v23.487c0 12.582 10.236 22.818 22.818 22.818h5.071v102.904h-43.714v-34.082c9.352-3.838 15.958-13.038 15.958-23.757 0-14.156-11.516-25.672-25.671-25.672h-48.677c-14.155 0-25.671 11.517-25.671 25.672 0 10.719 6.606 19.919 15.958 23.757v34.082h-33.124c-.571-13.109-11.411-23.599-24.658-23.599-13.612 0-24.686 11.074-24.686 24.686v8.421c-14.596 7.9-26.981 19.362-35.997 33.399-10.156 15.812-15.524 34.145-15.524 53.018 0 18.872 5.368 37.205 15.524 53.017 5.734 8.928 12.836 16.809 20.996 23.403-5.631 2.607-10.07 7.476-12.032 13.707l-33.119 105.174c-2.185 6.94-.97 14.286 3.333 20.153s10.944 9.232 18.221 9.232h75.445c6.906 0 12.524-5.618 12.524-12.524v-28.725h18.982c3.692 8.991 12.538 15.34 22.844 15.34h33.47c9.563 26.927 35.17 45.271 64.19 45.271s54.627-18.344 64.19-45.271h37.535c9.563 26.927 35.17 45.271 64.19 45.271 35.024 0 63.948-26.571 67.701-60.611h15.787c6.906 0 12.524-5.618 12.524-12.525v-118.779c0-6.906-5.618-12.524-12.524-12.524h-15.364v-238.438zm-335.785 34.422h48.677c5.868 0 10.642 4.774 10.642 10.643 0 5.868-4.774 10.642-10.642 10.642h-48.677c-5.868 0-10.642-4.774-10.642-10.642 0-5.869 4.774-10.643 10.642-10.643zm5.316 36.314h38.044v32.168h-38.044zm-82.47 33.256c0-5.325 4.332-9.657 9.657-9.657s9.657 4.332 9.657 9.657v6.428 162.727h-19.314v-156.15zm-51.521 94.837c0-27.641 13.999-53.503 36.492-68.849v137.697c-22.493-15.346-36.492-41.208-36.492-68.848zm70.835 209.657h-72.94c-2.437 0-4.661-1.127-6.102-3.092s-1.848-4.425-1.116-6.748l33.117-105.175c.997-3.166 3.898-5.295 7.218-5.295h39.824v120.31zm47.198-35.567c0-5.325 4.332-9.657 9.657-9.657h39.957c.023.001.045 0 .068 0h115.162c.008 0 .017.002.025.002s.016-.002.025-.002h50.637c.019.001.038 0 .056 0h55.736c5.325 0 9.657 4.333 9.657 9.658s-4.332 9.656-9.657 9.656h-261.666c-5.325.001-9.657-4.332-9.657-9.657zm61.311-24.686c9.331-16.235 26.714-26.578 46.006-26.578 19.293 0 36.676 10.343 46.007 26.578zm46.006 79.615c-20.758 0-39.267-12.044-47.933-30.242h95.865c-8.665 18.198-27.174 30.242-47.932 30.242zm165.914 0c-20.758 0-39.267-12.044-47.933-30.242h46.025c13.612 0 24.686-11.074 24.686-24.687 0-13.612-11.074-24.686-24.686-24.686h-44.099c9.332-16.235 26.714-26.578 46.007-26.578 29.277 0 53.096 23.819 53.096 53.096 0 29.278-23.819 53.097-53.096 53.097zm80.984-154.702h-61.632c-4.15 0-7.515 3.364-7.515 7.515s3.364 7.515 7.515 7.515h61.632v79.061h-13.282c-3.754-34.04-32.677-60.611-67.701-60.611-27.61 0-52.178 16.508-62.754 41.608h-40.405c-10.576-25.1-35.144-41.608-62.755-41.608s-52.178 16.508-62.754 41.608h-34.906c-11.656 0-21.444 8.123-24.019 19.003h-17.807v-79.061h294.693c4.15 0 7.514-3.364 7.514-7.515s-3.364-7.515-7.514-7.515h-294.694v-19.679h40.612c4.15 0 7.514-3.364 7.514-7.515s-3.364-7.515-7.514-7.515h-40.612v-120.503h144.914v120.504h-74.244c-4.15 0-7.514 3.364-7.514 7.515s3.364 7.515 7.514 7.515h315.713v19.678zm-27.888-34.708h-198.553v-238.438h134.75c4.15 0 7.514-3.364 7.514-7.515s-3.364-7.515-7.514-7.515h-154.85c-4.294 0-7.788-3.494-7.788-7.789v-23.486c0-4.295 3.494-7.789 7.788-7.789h238.753c4.294 0 7.788 3.494 7.788 7.789v23.487c0 4.294-3.493 7.789-7.788 7.789h-53.844c-4.15 0-7.515 3.364-7.515 7.515s3.364 7.515 7.515 7.515h33.744z"/><path d="m369.807 106.365c-23.704 0-42.989 19.286-42.989 42.99v48.111c0 6.906 5.618 12.524 12.524 12.524h60.929c6.906 0 12.524-5.618 12.524-12.524v-48.111c0-23.704-19.284-42.99-42.988-42.99zm27.959 88.596h-55.919v-45.606c0-15.418 12.543-27.961 27.96-27.961s27.959 12.543 27.959 27.961z"/></g></g></svg>