<svg id="Capa_1" enable-background="new 0 0 512.008 512.008" height="512" viewBox="0 0 512.008 512.008" width="512" xmlns="http://www.w3.org/2000/svg"><g><path d="m412.63 230.602c-.02 86.502-70.124 156.626-156.626 156.626s-156.626-70.124-156.626-156.626c0-114.483 96.947-192.778 138.295-220.965 7.644-5.211 18.028-.326 18.979 8.875 11.629 112.551 156.006 89.579 155.978 212.09z" fill="#eab14d"/><path d="m412.63 230.602c.028-122.511-144.349-99.54-155.978-212.09-.951-9.202-11.335-14.086-18.979-8.875-3.071 2.094-6.455 4.47-10.077 7.111 4.956.996 9.192 5.046 9.783 10.765 9.356 90.559 104.648 93.386 141.516 154.849 5.92 9.869-6.006 20.718-15.23 13.837-30.042-22.41-67.297-35.683-107.661-35.683-66.249 0-124.143 35.733-155.489 88.969 9.326 77.596 75.379 137.742 155.489 137.742 86.005.001 156.606-69.581 156.626-156.625z" fill="#e49542"/><path d="m256.004 342.227c-61.551 0-111.626-50.075-111.626-111.625 0-39.172 14.811-77.875 44.02-115.034 10.908-13.876 22.736-26.112 34.028-36.487 2.07-1.902 5.353-1.316 6.7 1.152 20.556 37.656 54.64 59.046 81.687 76.017 39.404 24.725 56.825 37.22 56.816 74.342-.013 61.556-50.088 111.635-111.625 111.635z" fill="#ffe07d"/><path d="m355.214 190.253c-9.235-11.5-23.811-21.084-44.401-34.003-27.048-16.971-61.131-38.361-81.687-76.017-1.346-2.465-4.629-3.055-6.697-1.155-4.139 3.803-8.35 7.861-12.562 12.154.654.385 1.223.945 1.621 1.673 12.829 23.501 30.926 40.666 49.294 54.375 5.691 4.247 2.599 13.247-4.502 13.237-.092 0-.184 0-.276 0-40.419 0-77.731 13.299-107.802 35.759-2.539 11.384-3.824 22.835-3.824 34.327 0 61.55 50.075 111.625 111.626 111.625 20.329 0 39.405-5.469 55.841-15.008h.001c46.65-27.085 73.72-99.173 43.368-136.967z" fill="#ffd064"/><circle cx="256.004" cy="340.841" fill="#dd636e" r="163.667"/><path d="m256.004 177.174c-4.339 0-8.638.172-12.892.504 84.364 6.574 150.775 77.111 150.775 163.163s-66.411 156.589-150.775 163.163c4.254.332 8.553.504 12.892.504 90.391 0 163.667-73.276 163.667-163.667s-73.276-163.667-163.667-163.667z" fill="#da4a54"/><circle cx="256.004" cy="340.841" fill="#f4fbff" r="122.078"/><path d="m256.004 218.763c-5.656 0-11.22.393-16.673 1.138 59.533 8.131 105.405 59.174 105.405 120.94s-45.872 112.808-105.405 120.94c5.452.745 11.016 1.138 16.673 1.138 67.422 0 122.078-54.656 122.078-122.078s-54.656-122.078-122.078-122.078z" fill="#daf1f4"/><g><path d="m256.004 244.608c-4.142 0-7.5 3.357-7.5 7.5v4.225c0 4.143 3.358 7.5 7.5 7.5s7.5-3.357 7.5-7.5v-4.225c.001-4.142-3.358-7.5-7.5-7.5z"/><path d="m315.759 288.585c1.919 0 3.838-.732 5.303-2.196l2.988-2.987c2.929-2.928 2.93-7.677.001-10.606-2.928-2.929-7.677-2.93-10.606-.001l-2.988 2.987c-2.929 2.928-2.93 7.677-.001 10.606 1.464 1.464 3.384 2.197 5.303 2.197z"/><path d="m344.737 348.341c4.143 0 7.5-3.357 7.5-7.5s-3.357-7.5-7.5-7.5h-4.226c-4.143 0-7.5 3.357-7.5 7.5s3.357 7.5 7.5 7.5z"/><path d="m167.271 333.341c-4.142 0-7.5 3.357-7.5 7.5s3.358 7.5 7.5 7.5h4.225c4.142 0 7.5-3.357 7.5-7.5s-3.358-7.5-7.5-7.5z"/><path d="m310.456 405.9 2.988 2.988c1.465 1.464 3.385 2.196 5.304 2.196s3.839-.732 5.304-2.196c2.929-2.93 2.929-7.678 0-10.607l-2.988-2.988c-2.93-2.928-7.678-2.928-10.607 0-2.93 2.93-2.93 7.678-.001 10.607z"/><path d="m248.504 425.348v4.226c0 4.143 3.358 7.5 7.5 7.5s7.5-3.357 7.5-7.5v-4.226c0-4.143-3.358-7.5-7.5-7.5s-7.5 3.358-7.5 7.5z"/><path d="m190.945 395.294-2.988 2.988c-2.929 2.929-2.928 7.678.001 10.606 1.464 1.465 3.383 2.196 5.303 2.196s3.839-.732 5.304-2.197l2.988-2.988c2.929-2.929 2.928-7.678-.001-10.606-2.93-2.93-7.679-2.929-10.607.001z"/><path d="m201.551 275.781-2.988-2.987c-2.929-2.93-7.678-2.929-10.606.001-2.929 2.929-2.928 7.678.001 10.606l2.988 2.987c1.464 1.465 3.383 2.196 5.303 2.196s3.839-.732 5.304-2.197c2.928-2.928 2.927-7.677-.002-10.606z"/><path d="m288.647 340.841c0-4.143-3.357-7.5-7.5-7.5h-17.643v-41.187c0-4.143-3.358-7.5-7.5-7.5s-7.5 3.357-7.5 7.5v48.687c0 4.143 3.358 7.5 7.5 7.5h25.143c4.143 0 7.5-3.358 7.5-7.5z"/><path d="m373.559 113.232c-2.3 3.445-1.37 8.102 2.075 10.401 3.453 2.304 8.106 1.364 10.401-2.075.541-.811 13.128-20.117 2.568-43.178-3.893-8.501-3.598-14.885-2.655-18.761.702-2.886-.291-5.915-2.624-7.754-4.235-3.34-10.57-1.281-11.905 3.945-.115.449-.224.913-.325 1.391-1.254 5.918-1.601 15.479 3.87 27.424 7.002 15.29-1.087 28.114-1.405 28.607z"/><path d="m92.968 129.522c-2.299 3.445-1.37 8.103 2.075 10.401 3.453 2.304 8.106 1.364 10.401-2.075.427-.64 10.357-15.871 2.059-33.99-2.413-5.27-2.502-9.261-2.067-11.827.398-2.348-.579-4.717-2.449-6.192l-1.532-1.208c-3.818-3.011-9.531-1.041-10.567 3.709-.012.053-.023.107-.034.16-.993 4.686-1.276 12.237 3.012 21.603 4.745 10.363-.705 19.115-.898 19.419z"/><path d="m305.75 57.498c-1.909 3.676-.476 8.203 3.2 10.112 3.683 1.912 8.207.47 10.112-3.2.186-.356 1.834-3.611 2.668-7.973 1.254-6.552.127-12.476-3.259-17.13-.586-.805-.835-1.584-.883-2.297-.153-2.291-1.169-4.435-3.01-5.807-4.931-3.674-12.041-.169-11.967 5.979.042 3.465 1.042 7.253 3.729 10.947 2.013 2.767.026 8.133-.59 9.369z"/><path d="m414 275.017c4.047-14.418 6.126-29.341 6.129-44.413.016-67.731-41.38-93.706-81.413-118.825-35.683-22.39-69.387-43.538-74.604-94.037-.723-6.996-4.954-12.937-11.32-15.894-6.336-2.94-13.566-2.346-19.343 1.591-9.925 6.766-25.233 17.926-41.794 32.67-3.094 2.754-3.369 7.495-.615 10.589 2.754 3.093 7.495 3.369 10.589.614 15.963-14.211 30.71-24.962 40.27-31.479 1.973-1.347 3.857-.714 4.576-.38.733.34 2.466 1.395 2.717 3.829 5.97 57.776 44.394 81.886 81.552 105.202 38.261 24.007 74.399 46.683 74.386 106.115-.002 7.786-.625 15.526-1.82 23.165-7.989-13.463-17.763-25.748-29.006-36.514-4.134-31.235-23.529-44.781-59.504-67.354-26.495-16.624-59.469-37.313-79.091-73.26-1.764-3.23-4.853-5.427-8.475-6.025-3.597-.592-7.198.48-9.882 2.946-13.069 12.009-24.794 24.583-34.85 37.375-26.999 34.347-42.153 70.195-45.083 106.596-11.124 10.701-20.803 22.891-28.724 36.242-1.195-7.64-1.816-15.381-1.816-23.169 0-31.326 7.632-62.416 22.685-92.406 12.211-24.329 29.329-48.048 50.876-70.498 2.868-2.988 2.771-7.736-.218-10.604s-7.736-2.771-10.604.218c-22.588 23.534-40.574 48.484-53.46 74.156-16.11 32.098-24.278 65.451-24.278 99.135 0 15.074 2.077 30.001 6.125 44.424-8.476 20.271-13.167 42.504-13.167 65.814 0 94.382 76.785 171.167 171.167 171.167 38.705 0 75.219-12.603 105.598-36.449 3.258-2.558 3.826-7.271 1.269-10.53s-7.272-3.828-10.53-1.269c-27.711 21.751-61.023 33.248-96.336 33.248-86.111 0-156.167-70.057-156.167-156.167s70.056-156.166 156.167-156.166 156.167 70.056 156.167 156.166c0 38.061-13.856 74.73-39.018 103.255-2.74 3.105-2.443 7.846.663 10.585 3.106 2.74 7.847 2.443 10.585-.663 27.58-31.267 42.77-71.46 42.77-113.177-.002-23.313-4.695-45.549-13.173-65.823zm-259.539-71.879c5.266-28.115 18.611-55.936 39.834-82.935 8.794-11.187 18.955-22.22 30.241-32.842 21.611 37.168 55.168 58.223 82.292 75.241 23.372 14.666 38.012 24.334 45.909 37.106-27.538-18.934-60.861-30.034-96.732-30.034-37.987.001-73.118 12.446-101.544 33.464z"/><path d="m253.436 211.295c-34.071.664-65.997 14.434-89.896 38.772-23.933 24.373-37.113 56.61-37.113 90.773 0 71.449 58.128 129.578 129.578 129.578s129.578-58.129 129.578-129.578c0-60.811-42.237-112.852-100.326-126.26-4.036-.932-8.063 1.584-8.994 5.621-.932 4.036 1.585 8.062 5.621 8.994 49.652 11.461 88.699 56.074 88.699 111.645 0 63.179-51.399 114.578-114.578 114.578s-114.578-51.399-114.578-114.578c0-30.208 11.654-58.713 32.815-80.264 21.133-21.522 49.362-33.698 79.486-34.284 4.141-.081 7.433-3.504 7.353-7.646-.081-4.14-3.519-7.438-7.645-7.351z"/><path d="m147.382 60.278c3.795-1.659 5.527-6.081 3.868-9.877-4.971-11.369-2.649-17.431-.47-21.001 2.158-3.536 1.041-8.151-2.495-10.31-3.536-2.156-8.151-1.04-10.309 2.495-6.068 9.943-6.226 21.66-.47 34.825 1.668 3.815 6.101 5.52 9.876 3.868z"/></g></g></svg>