<svg id="Capa_1" enable-background="new 0 0 512 512" height="512" viewBox="0 0 512 512" width="512" xmlns="http://www.w3.org/2000/svg"><g><g><path d="m171.901 240.615h168.197v197.385h-168.197z" fill="#92e0ff"/><path d="m171.901 420h168.197v18h-168.197z" fill="#75d5f2"/><path d="m378.948 240.615h-245.896c-9.113 0-16.5-7.387-16.5-16.5 0-9.113 7.387-16.5 16.5-16.5h245.895c9.113 0 16.5 7.387 16.5 16.5.001 9.113-7.387 16.5-16.499 16.5z" fill="#f7594e"/><path d="m378.948 222.615h-245.896c-5.79 0-10.874-2.988-13.819-7.5-1.69 2.589-2.681 5.677-2.681 9 0 9.113 7.387 16.5 16.5 16.5h245.895c9.113 0 16.5-7.387 16.5-16.5 0-3.323-.991-6.411-2.681-9-2.944 4.512-8.029 7.5-13.818 7.5z" fill="#ea4642"/><path d="m395.448 471h-278.896v-17.913c0-8.332 6.755-15.087 15.087-15.087h248.722c8.332 0 15.086 6.755 15.086 15.087v17.913z" fill="#f7594e"/><path d="m116.557 453c0 .029-.004.057-.004.087v17.913h278.895v-17.913c0-.029-.004-.058-.004-.087z" fill="#ea4642"/><path d="m406.486 504h-300.972c-2.761 0-5-2.239-5-5v-23c0-2.761 2.239-5 5-5h300.971c2.761 0 5 2.239 5 5v23c.001 2.761-2.238 5-4.999 5z" fill="#36ce94"/><path d="m406.486 486h-300.972c-2.761 0-5-2.238-5-5v18c0 2.762 2.239 5 5 5h300.971c2.761 0 5-2.238 5-5v-18c.001 2.762-2.238 5-4.999 5z" fill="#36bf84"/><path d="m141.202 240.615h30.699v197.385h-30.699z" fill="#ffe08c"/><path d="m340.099 240.615h30.699v197.385h-30.699z" fill="#ffe08c"/><path d="m277.92 358.662h-43.84c-8.332 0-15.086 6.754-15.086 15.087v64.251h74.013v-64.252c0-8.332-6.755-15.086-15.087-15.086z" fill="#edf4fa"/><path d="m277.92 358.662h-43.84c-8.332 0-15.086 6.754-15.086 15.087v64.251h74.013v-64.252c0-8.332-6.755-15.086-15.087-15.086z" fill="#edf4fa"/><path d="m218.993 420h74.013v18h-74.013z" fill="#d8e5ef"/><path d="m256 335.9c12.273 0 22.222-9.949 22.222-22.222 0-20.78-22.222-35.699-22.222-35.699s-22.222 14.919-22.222 35.699c0 12.273 9.949 22.222 22.222 22.222z" fill="#ffe08c"/><path d="m256 317.9c-9.341 0-17.33-5.766-20.617-13.93-1 3.053-1.605 6.299-1.605 9.708 0 12.273 9.949 22.222 22.222 22.222s22.222-9.949 22.222-22.222c0-3.408-.606-6.655-1.605-9.708-3.288 8.164-11.277 13.93-20.617 13.93z" fill="#f9d375"/><path d="m370.798 207.615s-2.213-57.03-64.523-78.923h-100.549c-62.311 21.893-64.523 78.923-64.523 78.923z" fill="#36ce94"/><path d="m144.804 189.615c-3.311 10.548-3.602 18-3.602 18h229.596s-.291-7.452-3.602-18z" fill="#36bf84"/><path d="m306.274 128.692s-.918-47.715-50.274-47.715-50.274 47.715-50.274 47.715z" fill="#f7594e"/><path d="m209.664 110.692c-3.775 9.686-3.938 18-3.938 18h100.549s-.163-8.314-3.938-18z" fill="#ea4642"/><g fill="#f9d375"><path d="m340.099 420h30.699v18h-30.699z"/><path d="m141.202 420h30.699v18h-30.699z"/></g></g><path d="m406.78 463.906h-3.545v-10.434c0-12.478-10.152-22.63-22.63-22.63h-2.068v-182.742h.651c13.259 0 24.047-10.788 24.047-24.047s-10.788-24.047-24.047-24.047h-1.513c-1.075-6.342-3.477-16.225-8.82-27.11-7.874-16.041-23.84-37.349-55.446-49.837-.202-1.46-.491-3.172-.899-5.064 8.387-3.188 17.98-11.069 17.98-28.388 0-14.59-8.681-36.633-21.601-54.85-9.206-12.981-28.319-34.757-52.889-34.757s-43.683 21.776-52.889 34.757c-12.92 18.217-21.601 40.26-21.601 54.85 0 17.319 9.593 25.2 17.98 28.389-.408 1.891-.697 3.603-.898 5.063-31.607 12.488-47.574 33.796-55.447 49.837-5.343 10.884-7.745 20.767-8.819 27.11h-1.514c-13.26 0-24.047 10.788-24.047 24.047s10.787 24.047 24.047 24.047h.651v182.743h-2.067c-12.479 0-22.631 10.152-22.631 22.63v10.434h-3.545c-6.906 0-12.524 5.618-12.524 12.524v23.045c0 6.906 5.618 12.525 12.524 12.525h221.76c4.151 0 7.515-3.364 7.515-7.515s-3.364-7.515-7.515-7.515h-219.255v-18.035h51.241c4.15 0 7.515-3.364 7.515-7.515s-3.364-7.515-7.515-7.515h-35.172v-10.434c0-4.191 3.41-7.601 7.602-7.601h249.209c4.191 0 7.601 3.41 7.601 7.601v10.434h-199.181c-4.15 0-7.515 3.364-7.515 7.515s3.364 7.515 7.515 7.515h215.251v18.035h-47.237c-4.151 0-7.515 3.364-7.515 7.515s3.364 7.515 7.515 7.515h49.742c6.906 0 12.524-5.618 12.524-12.525v-23.045c0-6.906-5.619-12.525-12.525-12.525zm-204.102-360.898c-4.131-2.372-6.138-6.754-6.138-13.4 0-9.743 6.468-28.725 18.831-46.156 12.811-18.063 27.62-28.422 40.63-28.422 13.011 0 27.819 10.359 40.63 28.423 12.362 17.431 18.831 36.413 18.831 46.155 0 9.059-4.05 12.758-7.669 14.254-.447-.955-.924-1.915-1.439-2.876-6.819-12.712-21.092-27.867-50.354-27.867s-43.534 15.155-50.353 27.867c-.499.93-.961 1.859-1.396 2.784-.519-.211-1.048-.461-1.573-.762zm95.091 17.921h-83.637c2.493-11.749 11.234-32.78 41.867-32.78 17.332 0 29.738 6.565 36.875 19.512 2.587 4.689 4.059 9.463 4.895 13.268zm-173.975 103.124c0-4.973 4.046-9.018 9.018-9.018h149.08c4.151 0 7.515-3.364 7.515-7.515s-3.364-7.515-7.515-7.515h-132.271c1.092-5.334 3.211-12.887 7.297-21.058 10.066-20.125 26.889-34.584 50.011-42.99h98.141c23.122 8.406 39.945 22.865 50.011 42.99 4.086 8.17 6.206 15.724 7.298 21.058h-50.43c-4.151 0-7.515 3.364-7.515 7.515s3.364 7.515 7.515 7.515h67.238c4.973 0 9.018 4.045 9.018 9.018s-4.045 9.018-9.018 9.018h-246.375c-4.972-.001-9.018-4.046-9.018-9.018zm154.169 127.295h-14.448v-8.739c12.794-3.339 22.265-14.993 22.265-28.819 0-24.544-24.546-41.306-25.591-42.008-2.534-1.701-5.844-1.701-8.378 0-1.045.702-25.591 17.464-25.591 42.008 0 13.826 9.471 25.48 22.265 28.819v8.739h-14.448c-12.479 0-22.631 10.152-22.631 22.63v56.864h-32.155v-182.742h153.497v182.743h-32.155v-56.864c.001-12.479-10.152-22.631-22.63-22.631zm-21.963-22.806c-8.133 0-14.75-6.617-14.75-14.752 0-11.523 9.171-21.309 14.75-26.196 5.585 4.891 14.751 14.675 14.751 26.196 0 8.135-6.618 14.752-14.751 14.752zm-107.508 102.3v-182.742h15.73v182.743h-15.73zm77.944 0v-56.864c0-4.191 3.41-7.601 7.602-7.601h43.926c4.192 0 7.602 3.41 7.602 7.601v56.864zm121.342 0v-182.742h15.73v182.743h-15.73z"/></g></svg>