<svg id="Capa_1" enable-background="new 0 0 512 512" height="512" viewBox="0 0 512 512" width="512" xmlns="http://www.w3.org/2000/svg"><g><circle cx="149.971" cy="178.165" fill="#5766cb" r="142.471"/><path d="m149.971 35.694c-3.777 0-7.519.15-11.222.438 73.438 5.723 131.249 67.125 131.249 142.032s-57.81 136.31-131.249 142.033c3.703.289 7.445.438 11.222.438 78.685 0 142.471-63.786 142.471-142.471s-63.786-142.47-142.471-142.47z" fill="#3d4fc3"/><circle cx="149.971" cy="178.165" fill="#f4fbff" r="106.268"/><path d="m149.971 71.897c-4.924 0-9.767.342-14.513.991 51.823 7.078 91.755 51.511 91.755 105.277s-39.932 98.199-91.755 105.277c4.746.648 9.589.991 14.513.991 58.69 0 106.268-47.578 106.268-106.268s-47.577-106.268-106.268-106.268z" fill="#daf1f4"/><path d="m368.111 378.134h-241.169v-130.998c0-12.779 10.36-23.139 23.139-23.139h218.03z" fill="#eab14d"/><path d="m347.798 223.997h20.314v154.137h-20.314z" fill="#e49542"/><path d="m368.111 413.348h-251.23c-9.724 0-17.607-7.883-17.607-17.607 0-9.724 7.883-17.607 17.607-17.607h251.23z" fill="#f4fbff"/><path d="m347.798 378.134h20.314v35.214h-20.314z" fill="#daf1f4"/><path d="m504.5 308.642v96.521c0 4.522-3.665 8.187-8.187 8.187h-128.203v-165.7h85.37l22.4 25.42 26.576 30.16c1.317 1.495 2.044 3.419 2.044 5.412z" fill="#f4fbff"/><path d="m502.456 303.229-26.576-30.16-22.4-25.42h-20.206l22.4 25.42 26.576 30.16c1.317 1.495 2.044 3.42 2.044 5.413v96.521c0 4.522-3.666 8.187-8.187 8.187h20.207c4.521 0 8.187-3.665 8.187-8.187v-96.521c-.001-1.993-.728-3.917-2.045-5.413z" fill="#daf1f4"/><g fill="#365e7d"><path d="m478.164 247.646h-110.053v-23.649h91.799c10.082 0 18.254 8.173 18.254 18.254z"/><circle cx="197.593" cy="436.023" r="40.282"/><circle cx="426.306" cy="436.023" r="40.282"/></g><path d="m197.593 395.741c-3.196 0-6.3.383-9.281 1.087 17.771 4.193 31.002 20.144 31.002 39.196s-13.23 35.003-31.002 39.196c2.981.703 6.085 1.086 9.281 1.086 22.247 0 40.282-18.035 40.282-40.282s-18.035-40.283-40.282-40.283z" fill="#2b4d66"/><path d="m426.306 395.741c-3.196 0-6.3.383-9.281 1.087 17.771 4.193 31.002 20.144 31.002 39.196s-13.23 35.003-31.002 39.196c2.981.703 6.085 1.086 9.281 1.086 22.247 0 40.282-18.035 40.282-40.282s-18.035-40.283-40.282-40.283z" fill="#2b4d66"/><path d="m339.937 439.678h-67.529c-4.4 0-7.967-3.567-7.967-7.967v-18.363h83.463v18.363c0 4.4-3.567 7.967-7.967 7.967z" fill="#365e7d"/><path d="m329.704 413.348v18.363c0 4.4-3.567 7.967-7.967 7.967h18.199c4.4 0 7.967-3.567 7.967-7.967v-18.363z" fill="#2b4d66"/><path d="m504.5 308.642v32.368h-97.235c-4.283 0-7.755-3.472-7.755-7.755v-52.43c0-4.283 3.472-7.755 7.755-7.755h68.615l26.576 30.16c1.317 1.495 2.044 3.419 2.044 5.412z" fill="#b1e4f9" stroke="#b1e4f9" stroke-miterlimit="10"/><path d="m502.456 303.229-26.576-30.16h-20.207l26.576 30.16c1.317 1.495 2.044 3.42 2.044 5.413v32.368h20.207v-32.368c0-1.988-.723-3.913-2.044-5.413z" fill="#90d8f9"/><g><path d="m149.972 112.102c4.143 0 7.5-3.357 7.5-7.5v-3.678c0-4.143-3.357-7.5-7.5-7.5s-7.5 3.357-7.5 7.5v3.678c0 4.142 3.357 7.5 7.5 7.5z"/><path d="m207.292 131.452 2.601-2.601c2.929-2.93 2.929-7.678 0-10.607-2.93-2.928-7.678-2.928-10.607 0l-2.601 2.601c-2.929 2.93-2.929 7.678 0 10.607 2.93 2.929 7.677 2.928 10.607 0z"/><path d="m223.535 185.665h3.678c4.143 0 7.5-3.357 7.5-7.5s-3.357-7.5-7.5-7.5h-3.678c-4.143 0-7.5 3.357-7.5 7.5s3.358 7.5 7.5 7.5z"/><path d="m76.408 170.665h-3.679c-4.143 0-7.5 3.357-7.5 7.5s3.357 7.5 7.5 7.5h3.679c4.143 0 7.5-3.357 7.5-7.5s-3.357-7.5-7.5-7.5z"/><path d="m92.65 224.879-2.601 2.601c-2.929 2.93-2.929 7.678 0 10.607 2.931 2.929 7.678 2.928 10.607 0l2.601-2.601c2.929-2.93 2.929-7.678 0-10.607-2.929-2.928-7.677-2.928-10.607 0z"/><path d="m100.657 118.244c-2.93-2.928-7.678-2.928-10.607 0-2.929 2.93-2.929 7.678 0 10.607l2.601 2.601c2.931 2.929 7.678 2.928 10.607 0 2.929-2.93 2.929-7.678 0-10.607z"/><path d="m149.972 185.665h21.887c4.143 0 7.5-3.357 7.5-7.5s-3.357-7.5-7.5-7.5h-14.387v-34.881c0-4.143-3.357-7.5-7.5-7.5s-7.5 3.357-7.5 7.5v42.381c0 4.143 3.357 7.5 7.5 7.5z"/><path d="m205.093 439.679v-7.311c0-4.143-3.357-7.5-7.5-7.5s-7.5 3.357-7.5 7.5v7.311c0 4.143 3.357 7.5 7.5 7.5s7.5-3.358 7.5-7.5z"/><path d="m508.083 298.271-38.002-43.126h8.083c4.143 0 7.5-3.357 7.5-7.5v-5.394c0-14.201-11.553-25.755-25.754-25.755h-164.922c3.286-12.456 4.954-25.306 4.954-38.331 0-82.694-67.276-149.972-149.971-149.972-32.903 0-64.14 10.463-90.334 30.257-3.305 2.497-3.959 7.2-1.462 10.505 2.497 3.306 7.199 3.961 10.505 1.462 23.568-17.81 51.679-27.224 81.291-27.224 74.423 0 134.971 60.548 134.971 134.972 0 13.068-1.856 25.937-5.522 38.331h-22.307c4.395-12.242 6.625-25.087 6.625-38.331 0-62.732-51.036-113.769-113.768-113.769s-113.769 51.036-113.769 113.769c0 51.399 34.398 95.973 83.238 109.591v21.899c-60.295-13.973-104.439-67.931-104.439-131.489 0-32.459 11.688-63.828 32.913-88.328 2.712-3.131 2.372-7.868-.758-10.58-3.13-2.71-7.867-2.374-10.58.758-23.586 27.227-36.575 62.085-36.575 98.15 0 71.855 50.771 132.61 119.441 146.844v45.624h-2.56c-13.845 0-25.107 11.263-25.107 25.107s11.263 25.107 25.107 25.107h11.076v4.02h-38.181c-4.143 0-7.5 3.357-7.5 7.5s3.357 7.5 7.5 7.5h45.682c4.143 0 7.5-3.357 7.5-7.5v-11.52h9.337c-1.603 4.771-2.484 9.871-2.484 15.175 0 7.093 1.526 13.931 4.535 20.324 1.765 3.749 6.234 5.354 9.98 3.592 3.747-1.765 5.355-6.232 3.592-9.98-2.062-4.38-3.107-9.068-3.107-13.936 0-18.076 14.706-32.782 32.782-32.782s32.782 14.706 32.782 32.782-14.706 32.782-32.782 32.782c-4.056 0-8.025-.739-11.8-2.198-3.864-1.489-8.207.43-9.699 4.293-1.493 3.863.429 8.206 4.293 9.699 5.506 2.127 11.295 3.206 17.206 3.206 26.348 0 47.782-21.435 47.782-47.782 0-5.304-.882-10.404-2.484-15.175h14.05v10.862c0 8.529 6.938 15.468 15.468 15.468h67.528c8.529 0 15.468-6.938 15.468-15.468v-10.862c2.628 0-9.484 0 25.603.001-1.602 4.771-2.484 9.87-2.484 15.174 0 26.348 21.435 47.782 47.782 47.782s47.782-21.435 47.782-47.782c0-5.304-.882-10.403-2.484-15.174h24.71c8.649 0 15.687-7.037 15.687-15.687v-96.521c-.001-3.82-1.392-7.503-3.918-10.37zm-37.626-58.125h-94.846v-8.648h84.299c5.209-.001 9.566 3.722 10.547 8.648zm-419.254-61.98c0-54.461 44.308-98.769 98.769-98.769s98.768 44.308 98.768 98.769c0 13.34-2.6 26.21-7.721 38.331h-90.937c-16.895 0-30.64 13.744-30.64 30.639v24.958c-40.753-13.283-68.239-51.216-68.239-93.928zm83.238 68.97c0-8.623 7.016-15.639 15.64-15.639h210.53c0 10.185-.001 133.489-.001 139.137h-226.169c0-12.151 0-111.481 0-123.498zm63.152 141.105c-14.913 0-28.247 6.87-37.016 17.607h-43.695c-5.573 0-10.107-4.534-10.107-10.107s4.534-10.107 10.107-10.107h243.728v20.215h-126.001c-8.769-10.738-22.104-17.608-37.016-17.608zm142.811 43.47c0 .258-.21.468-.468.468h-67.528c-.258 0-.468-.21-.468-.468v-10.862h68.464zm85.902 37.095c-18.076 0-32.782-14.706-32.782-32.782s14.706-32.782 32.782-32.782 32.782 14.706 32.782 32.782-14.706 32.782-32.782 32.782zm70.007-62.956h-32.991c-8.769-10.738-22.104-17.608-37.017-17.608s-28.248 6.87-37.017 17.608h-13.677v-150.7h74.481l9.181 10.419h-52.008c-8.411 0-15.255 6.844-15.255 15.256v52.43c0 8.411 6.844 15.255 15.255 15.255h29.746c4.143 0 7.5-3.357 7.5-7.5s-3.357-7.5-7.5-7.5h-29.746c-.141 0-.255-.114-.255-.255v-52.43c0-.141.114-.256.255-.256h65.226l24.337 27.618c.11.126.171.287.171.455v24.867h-30.001c-4.143 0-7.5 3.357-7.5 7.5s3.357 7.5 7.5 7.5h30.002v56.653c0 .38-.308.688-.687.688z"/><path d="m426.306 424.868c-4.143 0-7.5 3.357-7.5 7.5v7.311c0 4.143 3.357 7.5 7.5 7.5s7.5-3.357 7.5-7.5v-7.311c0-4.142-3.358-7.5-7.5-7.5z"/><path d="m427.025 353.517h-7.946c-4.143 0-7.5 3.357-7.5 7.5s3.357 7.5 7.5 7.5h7.946c4.143 0 7.5-3.357 7.5-7.5s-3.357-7.5-7.5-7.5z"/></g></g></svg>