<svg id="Capa_1" enable-background="new 0 0 512 512" height="512" viewBox="0 0 512 512" width="512" xmlns="http://www.w3.org/2000/svg"><g><g><path d="m314.012 329.107v139.92c0 4.16-4.79 6.5-8.08 3.94l-49.93-38.92-49.94 38.92c-3.28 2.56-8.07.22-8.07-3.94v-139.92c18.02 1.86 37.36 2.92 58.01 2.92 20.649 0 39.99-1.06 58.01-2.92z" fill="#36ce94"/><path d="m305.932 454.967-46.857-36.524c-1.807-1.409-4.34-1.409-6.147 0l-46.866 36.525c-3.28 2.56-8.07.22-8.07-3.94v18c0 4.16 4.79 6.5 8.07 3.94l49.94-38.92 49.93 38.92c3.29 2.56 8.08.22 8.08-3.94v-18c0 4.159-4.791 6.499-8.08 3.939z" fill="#36bf84"/><path d="m471.822 283.267v153.11c0 4.16-4.79 6.5-8.07 3.94l-49.94-38.92-49.93 38.92c-3.29 2.56-8.08.22-8.08-3.94v-113.33c53.03-10 91.56-26.51 116.02-39.78z" fill="#ffe08c"/><path d="m156.192 323.047v113.33c0 4.16-4.79 6.5-8.07 3.94l-49.94-38.92-49.93 38.92c-3.28 2.56-8.07.22-8.07-3.94v-153.11c24.459 13.27 62.99 29.78 116.01 39.78z" fill="#f7594e"/><path d="m463.752 422.317-46.866-36.524c-1.807-1.408-4.34-1.408-6.147 0l-46.856 36.524c-3.29 2.56-8.08.22-8.08-3.94v18c0 4.16 4.79 6.5 8.08 3.94l49.93-38.92 49.94 38.92c3.28 2.56 8.07.22 8.07-3.94v-18c-.001 4.16-4.791 6.5-8.071 3.94z" fill="#f9d375"/><path d="m148.121 422.317-46.866-36.524c-1.807-1.408-4.34-1.408-6.148 0l-46.856 36.524c-3.28 2.56-8.07.22-8.07-3.94v18c0 4.16 4.79 6.5 8.07 3.94l49.93-38.92 49.94 38.92c3.28 2.56 8.07.22 8.07-3.94v-18c.001 4.16-4.79 6.5-8.07 3.94z" fill="#ea4642"/><path d="m314.012 104.674v139.92c0 4.16-4.79 6.5-8.08 3.94l-49.93-38.92-49.94 38.92c-3.28 2.56-8.07.22-8.07-3.94v-139.92c18.02 1.86 37.36 2.92 58.01 2.92 20.649 0 39.99-1.06 58.01-2.92z" fill="#f7594e"/><path d="m471.822 58.834v153.11c0 4.16-4.79 6.5-8.07 3.94l-49.94-38.92-49.93 38.92c-3.29 2.56-8.08.22-8.08-3.94v-113.33c53.03-10 91.56-26.51 116.02-39.78z" fill="#36ce94"/><path d="m156.192 98.614v113.33c0 4.16-4.79 6.5-8.07 3.94l-49.94-38.92-49.93 38.92c-3.28 2.56-8.07.22-8.07-3.94v-153.11c24.459 13.27 62.99 29.78 116.01 39.78z" fill="#ffe08c"/><path d="m305.932 230.534-46.857-36.524c-1.807-1.409-4.34-1.409-6.147 0l-46.866 36.524c-3.28 2.56-8.07.22-8.07-3.94v18c0 4.16 4.79 6.5 8.07 3.94l49.94-38.92 49.93 38.92c3.29 2.56 8.08.22 8.08-3.94v-18c0 4.16-4.791 6.5-8.08 3.94z" fill="#ea4642"/><path d="m463.752 197.884-46.866-36.525c-1.807-1.408-4.34-1.408-6.147 0l-46.856 36.524c-3.29 2.56-8.08.22-8.08-3.94v18c0 4.16 4.79 6.5 8.08 3.94l49.93-38.92 49.94 38.92c3.28 2.56 8.07.22 8.07-3.94v-18c-.001 4.161-4.791 6.501-8.071 3.941z" fill="#36bf84"/><path d="m148.121 197.884-46.866-36.525c-1.807-1.408-4.34-1.408-6.148 0l-46.856 36.524c-3.28 2.56-8.07.22-8.07-3.94v18c0 4.16 4.79 6.5 8.07 3.94l49.93-38.92 49.94 38.92c3.28 2.56 8.07.22 8.07-3.94v-18c.001 4.161-4.79 6.501-8.07 3.941z" fill="#f9d375"/></g><g><path d="m2.604 43.229c.586.505 10.349 8.828 29.641 19.662v87.605c0 4.151 3.364 7.515 7.515 7.515s7.515-3.364 7.515-7.515v-79.699c5.677 2.8 11.894 5.672 18.676 8.545 20.313 8.607 47.919 18.093 82.532 25.089v102.293l-45.989-35.843c-2.716-2.116-6.523-2.116-9.24.001l-45.979 35.842v-26.17c0-4.151-3.364-7.515-7.515-7.515s-7.515 3.364-7.515 7.515v31.304c-.345 10.107 12.438 16.376 20.221 9.875l45.407-35.396 45.414 35.395c7.756 6.501 20.578.239 20.224-9.873v-104.64c8.57 1.46 17.521 2.754 26.852 3.845v133.509c-.346 10.107 12.439 16.375 20.22 9.875l45.419-35.396 45.412 35.399c7.762 6.49 20.578.234 20.226-9.878v-133.51c9.327-1.091 18.276-2.385 26.842-3.844v22.444c0 4.151 3.364 7.515 7.515 7.515s7.515-3.364 7.515-7.515v-25.231c34.615-6.996 62.224-16.483 82.538-25.091 6.783-2.874 13.001-5.746 18.679-8.547v135.928l-45.989-35.842c-2.716-2.116-6.523-2.116-9.24.001l-45.988 35.849v-47.009c0-4.151-3.364-7.515-7.515-7.515s-7.515 3.364-7.515 7.515v52.136c-.35 10.117 12.464 16.368 20.231 9.875l45.407-35.396 45.415 35.394c7.783 6.507 20.569.234 20.223-9.872v-148.969c19.29-10.833 29.052-19.154 29.638-19.66 3.138-2.709 3.484-7.444.781-10.587-2.704-3.14-7.447-3.498-10.593-.798-.199.169-20.264 17.181-60.134 33.971-36.808 15.5-98.514 33.977-183.451 33.977s-146.643-18.477-183.451-33.977c-39.87-16.79-59.936-33.802-60.125-33.964-3.142-2.71-7.888-2.363-10.6.778-2.708 3.142-2.36 7.887.781 10.6zm304.008 69.376v126.84l-45.988-35.848c-2.715-2.116-6.523-2.117-9.24-.001l-45.99 35.842v-126.833c15.877 1.407 32.739 2.216 50.608 2.216s34.733-.809 50.61-2.216z"/><path d="m499.587 256.717c-.199.169-20.264 17.182-60.134 33.971-36.808 15.5-98.514 33.978-183.451 33.978s-146.643-18.478-183.451-33.978c-39.87-16.789-59.936-33.801-60.125-33.963-3.142-2.711-7.888-2.365-10.6.777-2.711 3.142-2.363 7.888.778 10.6.586.505 10.349 8.828 29.641 19.662v148.968c-.345 10.107 12.438 16.376 20.221 9.875l45.407-35.396 45.414 35.395c7.756 6.501 20.578.239 20.224-9.873v-104.641c8.57 1.459 17.521 2.754 26.852 3.845v55.956c0 4.151 3.364 7.515 7.515 7.515s7.515-3.364 7.515-7.515v-54.415c15.877 1.407 32.739 2.216 50.608 2.216 17.87 0 34.733-.809 50.611-2.216v126.839l-45.988-35.848c-2.715-2.116-6.523-2.117-9.24-.001l-45.99 35.842v-42.358c0-4.151-3.364-7.515-7.515-7.515s-7.515 3.364-7.515 7.515v47.493c-.345 10.106 12.438 16.376 20.22 9.875l45.419-35.396 45.412 35.399c7.763 6.49 20.578.234 20.226-9.878v-133.508c9.327-1.091 18.276-2.385 26.842-3.844v104.638c-.349 10.117 12.464 16.369 20.231 9.875l45.408-35.396 45.414 35.394c7.783 6.507 20.569.234 20.223-9.872v-148.97c19.29-10.833 29.052-19.155 29.638-19.66 3.138-2.709 3.484-7.444.781-10.587-2.702-3.14-7.446-3.499-10.591-.798zm-351.105 174.88-45.989-35.843c-2.716-2.115-6.523-2.116-9.24.001l-45.979 35.842v-135.927c5.677 2.8 11.894 5.671 18.676 8.545 20.313 8.608 47.919 18.094 82.532 25.09zm316.249-.001-45.989-35.842c-2.716-2.115-6.523-2.116-9.24.001l-45.988 35.848v-102.296c34.615-6.996 62.224-16.483 82.538-25.091 6.783-2.874 13.001-5.746 18.679-8.546z"/></g></g></svg>