<svg id="Capa_1" enable-background="new 0 0 512 512" height="512" viewBox="0 0 512 512" width="512" xmlns="http://www.w3.org/2000/svg"><g><path d="m482.647 412.798h-453.294c-12.069 0-21.853-9.784-21.853-21.853v-236.028c0-12.069 9.784-21.853 21.853-21.853h453.294c12.069 0 21.853 9.784 21.853 21.853v236.028c0 12.069-9.784 21.853-21.853 21.853z" fill="#5766cb"/><path d="m482.647 133.064h-20.088c12.069 0 21.853 9.784 21.853 21.853v236.028c0 12.069-9.784 21.853-21.853 21.853h20.088c12.069 0 21.853-9.784 21.853-21.853v-236.028c0-12.069-9.784-21.853-21.853-21.853z" fill="#3d4fc3"/><path d="m217.317 312.506h-166.796c-4.61 0-8.347-3.737-8.347-8.347v-85.112c0-4.61 3.737-8.347 8.347-8.347h166.796c4.61 0 8.347 3.737 8.347 8.347v85.112c0 4.61-3.737 8.347-8.347 8.347z" fill="#f4fbff"/><path d="m217.317 210.699h-20.14c4.61 0 8.347 3.737 8.347 8.348v85.112c0 4.61-3.737 8.347-8.347 8.347h20.14c4.61 0 8.347-3.737 8.347-8.347v-85.112c0-4.61-3.737-8.348-8.347-8.348z" fill="#daf1f4"/><path d="m461.479 312.506h-166.796c-4.61 0-8.347-3.737-8.347-8.347v-85.112c0-4.61 3.737-8.347 8.347-8.347h166.796c4.61 0 8.347 3.737 8.347 8.347v85.112c0 4.61-3.737 8.347-8.347 8.347z" fill="#f4fbff"/><path d="m461.479 210.699h-18.891c4.61 0 8.347 3.737 8.347 8.348v85.112c0 4.61-3.737 8.347-8.347 8.347h18.891c4.61 0 8.347-3.737 8.347-8.347v-85.112c0-4.61-3.737-8.348-8.347-8.348z" fill="#daf1f4"/><g fill="#dd636e"><path d="m142.384 379.994h-45.589c-5.199 0-9.413-4.215-9.413-9.413v-13.209c0-5.199 4.215-9.413 9.413-9.413h45.589c5.199 0 9.413 4.215 9.413 9.413v13.209c.001 5.199-4.214 9.413-9.413 9.413z"/><path d="m278.794 379.994h-45.589c-5.199 0-9.413-4.215-9.413-9.413v-13.209c0-5.199 4.215-9.413 9.413-9.413h45.589c5.199 0 9.413 4.215 9.413 9.413v13.209c.001 5.199-4.214 9.413-9.413 9.413z"/><path d="m415.204 379.994h-45.589c-5.199 0-9.413-4.215-9.413-9.413v-13.209c0-5.199 4.215-9.413 9.413-9.413h45.589c5.199 0 9.413 4.215 9.413 9.413v13.209c.001 5.199-4.214 9.413-9.413 9.413z"/></g><path d="m142.385 347.959h-19.825c5.199 0 9.413 4.215 9.413 9.413v13.208c0 5.199-4.214 9.413-9.413 9.413h19.825c5.199 0 9.413-4.214 9.413-9.413v-13.208c0-5.198-4.215-9.413-9.413-9.413z" fill="#da4a54"/><path d="m278.794 347.959h-19.825c5.199 0 9.413 4.215 9.413 9.413v13.208c0 5.199-4.215 9.413-9.413 9.413h19.825c5.199 0 9.413-4.215 9.413-9.413v-13.208c.001-5.199-4.214-9.413-9.413-9.413z" fill="#da4a54"/><path d="m415.204 347.959h-19.825c5.199 0 9.413 4.215 9.413 9.413v13.208c0 5.199-4.215 9.413-9.413 9.413h19.825c5.199 0 9.413-4.214 9.413-9.413v-13.208c.001-5.198-4.214-9.413-9.413-9.413z" fill="#da4a54"/><g fill="#365e7d"><path d="m177.033 443.32h-92.582c-5.816 0-10.53-4.715-10.53-10.53v-19.992h113.642v19.992c0 5.816-4.714 10.53-10.53 10.53z"/><path d="m427.549 443.32h-92.582c-5.816 0-10.53-4.715-10.53-10.53v-19.992h113.642v19.992c0 5.816-4.715 10.53-10.53 10.53z"/></g><path d="m167.738 412.798v19.992c0 5.816-4.715 10.53-10.53 10.53h19.825c5.816 0 10.53-4.715 10.53-10.53v-19.992z" fill="#2b4d66"/><path d="m418.253 412.798v19.992c0 5.816-4.715 10.53-10.53 10.53h19.825c5.816 0 10.53-4.715 10.53-10.53v-19.992z" fill="#2b4d66"/><path d="m256 133.064h-170.86v-25.856c0-5.818 4.716-10.534 10.534-10.534h160.326z" fill="#f4fbff"/><path d="m235.912 96.674h20.088v36.39h-20.088z" fill="#daf1f4"/><path d="m426.86 133.064h-170.86v-36.39l158.504-27.831c6.448-1.132 12.356 3.829 12.356 10.376z" fill="#f4fbff"/><path d="m414.504 68.843-14.431 2.534c2.14 1.914 3.519 4.689 3.519 7.842v53.845h23.268v-53.845c0-6.547-5.908-11.508-12.356-10.376z" fill="#daf1f4"/><g><path d="m195.455 291.159c4.142 0 7.5-3.357 7.5-7.5v-44.113c0-4.143-3.358-7.5-7.5-7.5h-9.429c-4.142 0-7.5 3.357-7.5 7.5s3.358 7.5 7.5 7.5h1.929v36.613c0 4.143 3.357 7.5 7.5 7.5z"/><path d="m64.883 251.403v20.4c0 11.17 9.087 20.257 20.256 20.257s20.257-9.087 20.257-20.257v-20.4c0-11.17-9.087-20.257-20.257-20.257s-20.256 9.087-20.256 20.257zm25.513 0v20.4c0 2.898-2.358 5.257-5.257 5.257s-5.256-2.358-5.256-5.257v-20.4c0-2.898 2.358-5.257 5.256-5.257s5.257 2.358 5.257 5.257z"/><path d="m174.811 271.803v-20.4c0-11.17-9.087-20.257-20.256-20.257s-20.257 9.087-20.257 20.257v20.4c0 11.17 9.087 20.257 20.257 20.257s20.256-9.087 20.256-20.257zm-25.513 0v-20.4c0-2.898 2.358-5.257 5.257-5.257s5.256 2.358 5.256 5.257v20.4c0 2.898-2.358 5.257-5.256 5.257s-5.257-2.359-5.257-5.257z"/><path d="m121.267 258.998c4.142 0 7.5-3.357 7.5-7.5v-2.697c0-4.143-3.358-7.5-7.5-7.5s-7.5 3.357-7.5 7.5v2.697c0 4.143 3.358 7.5 7.5 7.5z"/><path d="m113.767 274.405c0 4.143 3.358 7.5 7.5 7.5s7.5-3.357 7.5-7.5v-2.698c0-4.143-3.358-7.5-7.5-7.5s-7.5 3.357-7.5 7.5z"/><path d="m477.326 304.158v-85.111c0-8.738-7.108-15.848-15.847-15.848h-166.796c-8.738 0-15.848 7.109-15.848 15.848v85.111c0 8.738 7.109 15.848 15.848 15.848h166.796c8.738 0 15.847-7.109 15.847-15.848zm-183.491 0v-85.111c0-.468.38-.848.848-.848h166.796c.467 0 .847.38.847.848v85.111c0 .468-.38.848-.847.848h-166.796c-.468 0-.848-.38-.848-.848z"/><path d="m323.062 231.146c-11.17 0-20.257 9.087-20.257 20.257v20.4c0 11.17 9.087 20.257 20.257 20.257s20.257-9.087 20.257-20.257v-20.4c0-11.17-9.087-20.257-20.257-20.257zm5.257 40.657c0 2.898-2.358 5.257-5.257 5.257s-5.257-2.358-5.257-5.257v-20.4c0-2.898 2.358-5.257 5.257-5.257s5.257 2.358 5.257 5.257z"/><path d="m392.477 231.146c-11.17 0-20.257 9.087-20.257 20.257v20.4c0 11.17 9.087 20.257 20.257 20.257s20.257-9.087 20.257-20.257v-20.4c0-11.17-9.087-20.257-20.257-20.257zm5.257 40.657c0 2.898-2.358 5.257-5.257 5.257s-5.257-2.358-5.257-5.257v-20.4c0-2.898 2.358-5.257 5.257-5.257s5.257 2.358 5.257 5.257z"/><path d="m359.189 241.301c-4.143 0-7.5 3.357-7.5 7.5v2.697c0 4.143 3.357 7.5 7.5 7.5s7.5-3.357 7.5-7.5v-2.697c0-4.143-3.357-7.5-7.5-7.5z"/><path d="m359.189 264.206c-4.143 0-7.5 3.357-7.5 7.5v2.698c0 4.143 3.357 7.5 7.5 7.5s7.5-3.357 7.5-7.5v-2.698c0-4.142-3.357-7.5-7.5-7.5z"/><path d="m445.858 273.59c-.032 0-.064 0-.096.001-2.226.027-4.533.051-6.761.067 1.837-2.522 4.025-5.579 6.614-9.277 2.896-4.138 5.979-9.898 5.979-14.929 0-9.998-8.135-18.133-18.133-18.133-8.645 0-16.128 6.15-17.793 14.625-.799 4.064 1.849 8.007 5.913 8.806 4.07.796 8.007-1.85 8.806-5.913.286-1.459 1.579-2.518 3.074-2.518 1.613 0 2.945 1.226 3.114 2.795-.037.114-.165 2.258-3.25 6.665-6.547 9.355-10.452 14.468-12.55 17.215-2.708 3.545-4.664 6.106-3.438 10.091.729 2.37 2.588 4.26 4.971 5.055 1.002.334 1.678.56 9.982.56 3.236 0 7.634-.034 13.658-.11 4.143-.052 7.458-3.451 7.405-7.593-.049-4.111-3.396-7.407-7.495-7.407z"/><path d="m79.882 357.372v13.209c0 9.326 7.587 16.913 16.914 16.913h45.589c9.326 0 16.914-7.587 16.914-16.913v-13.209c0-9.326-7.587-16.913-16.914-16.913h-45.59c-9.326 0-16.913 7.587-16.913 16.913zm64.416 0v13.209c0 1.055-.858 1.913-1.914 1.913h-45.589c-1.055 0-1.914-.858-1.914-1.913v-13.209c0-1.055.858-1.913 1.914-1.913h45.589c1.055 0 1.914.859 1.914 1.913z"/><path d="m233.205 387.494h45.589c9.326 0 16.913-7.587 16.913-16.913v-13.209c0-9.326-7.587-16.913-16.913-16.913h-45.589c-9.326 0-16.913 7.587-16.913 16.913v13.209c0 9.326 7.587 16.913 16.913 16.913zm-1.913-30.122c0-1.055.858-1.913 1.913-1.913h45.589c1.055 0 1.913.858 1.913 1.913v13.209c0 1.055-.858 1.913-1.913 1.913h-45.589c-1.055 0-1.913-.858-1.913-1.913z"/><path d="m369.615 340.459c-9.326 0-16.913 7.587-16.913 16.913v13.209c0 9.326 7.587 16.913 16.913 16.913h45.59c9.326 0 16.913-7.587 16.913-16.913v-13.209c0-9.326-7.587-16.913-16.913-16.913zm47.503 16.913v13.209c0 1.055-.858 1.913-1.913 1.913h-45.59c-1.055 0-1.913-.858-1.913-1.913v-13.209c0-1.055.858-1.913 1.913-1.913h45.59c1.054 0 1.913.859 1.913 1.913z"/><path d="m275.826 179.793c4.143 0 7.5-3.357 7.5-7.5s-3.357-7.5-7.5-7.5h-39.651c-4.142 0-7.5 3.357-7.5 7.5s3.358 7.5 7.5 7.5z"/><path d="m504.5 340.466c4.143 0 7.5-3.357 7.5-7.5v-178.049c0-16.186-13.168-29.354-29.353-29.354h-48.287v-46.344c0-11.23-10.146-19.701-21.153-17.763l-64.461 11.318c-4.08.716-6.807 4.604-6.09 8.684.716 4.08 4.607 6.812 8.684 6.09l64.46-11.318c1.852-.323 3.56 1.094 3.56 2.989v46.345h-155.86v-22.592l57.852-10.158c4.08-.716 6.807-4.604 6.09-8.684-.716-4.08-4.606-6.811-8.684-6.09l-63.41 11.134h-159.674c-9.944 0-18.035 8.09-18.035 18.034v18.355h-48.286c-16.186.001-29.353 13.169-29.353 29.354v236.027c0 16.186 13.167 29.354 29.353 29.354h37.068v12.492c0 9.942 8.088 18.03 18.03 18.03h92.582c9.942 0 18.031-8.088 18.031-18.03v-12.492h121.873v12.492c0 9.942 8.089 18.03 18.031 18.03h92.581c9.942 0 18.03-8.088 18.03-18.03v-12.492h37.068c16.185 0 29.353-13.168 29.353-29.354v-27.992c0-4.143-3.357-7.5-7.5-7.5s-7.5 3.357-7.5 7.5v27.992c0 7.915-6.438 14.354-14.353 14.354h-453.294c-7.914 0-14.353-6.438-14.353-14.354v-236.027c0-7.915 6.439-14.354 14.353-14.354h453.294c7.914 0 14.353 6.438 14.353 14.354v178.049c0 4.143 3.357 7.5 7.5 7.5zm-73.921 79.832v12.492c0 1.671-1.359 3.03-3.03 3.03h-92.581c-1.672 0-3.031-1.359-3.031-3.03v-12.492zm-250.516 0v12.492c0 1.671-1.359 3.03-3.031 3.03h-92.581c-1.671 0-3.03-1.359-3.03-3.03v-12.492zm-87.423-313.09c0-1.673 1.361-3.034 3.035-3.034h152.825v21.39h-155.86z"/><path d="m233.164 304.158v-85.111c0-8.738-7.109-15.848-15.847-15.848h-166.796c-8.738 0-15.847 7.109-15.847 15.848v85.111c0 8.738 7.109 15.848 15.847 15.848h50.61c4.142 0 7.5-3.357 7.5-7.5s-3.358-7.5-7.5-7.5h-50.61c-.467 0-.847-.38-.847-.848v-85.111c0-.468.38-.848.847-.848h166.796c.467 0 .847.38.847.848v85.111c0 .468-.38.848-.847.848h-86.199c-4.142 0-7.5 3.357-7.5 7.5s3.358 7.5 7.5 7.5h86.199c8.738 0 15.847-7.109 15.847-15.848z"/></g></g></svg>