<svg id="Capa_1" enable-background="new 0 0 512 512" height="512" viewBox="0 0 512 512" width="512" xmlns="http://www.w3.org/2000/svg"><g><g><path d="m463.903 386.012h-415.806v-262.627c0-16.86 13.668-30.528 30.528-30.528h354.749c16.86 0 30.528 13.668 30.528 30.528v262.627z" fill="#365e7d"/><path d="m433.374 92.857h-20.905c16.86 0 30.528 13.668 30.528 30.528v189.414c0 18.49-14.989 33.479-33.479 33.479h-361.421v39.734h394.9 20.905v-39.734-222.893c.001-16.86-13.667-30.528-30.528-30.528z" fill="#2b4d66"/></g><path d="m423.903 366.012h-335.806v-224.596c0-4.727 3.832-8.559 8.559-8.559h318.687c4.727 0 8.559 3.832 8.559 8.559v224.596z" fill="#b1e4f9" stroke="#b1e4f9" stroke-miterlimit="10"/><path d="m415.344 132.857h-21.154c4.727 0 8.559 3.832 8.559 8.559v189.2c0 8.65-7.012 15.663-15.663 15.663h-298.989v19.734h314.652 21.154v-22.977-201.62c0-4.727-3.832-8.559-8.559-8.559z" fill="#90d8f9"/><path d="m494.43 419.145h-476.86c-5.562 0-10.07-4.509-10.07-10.07v-32.992c0-5.562 4.509-10.07 10.07-10.07h476.86c5.562 0 10.07 4.509 10.07 10.07v32.992c0 5.561-4.509 10.07-10.07 10.07z" fill="#365e7d"/><path d="m494.43 366.012h-19.853c5.562 0 10.07 4.508 10.07 10.07v32.992c0 5.562-4.509 10.07-10.07 10.07h19.853c5.562 0 10.07-4.509 10.07-10.07v-32.992c0-5.561-4.509-10.07-10.07-10.07z" fill="#2b4d66"/><path d="m290.853 392.578h-69.707c-3.807 0-7.246-2.275-8.735-5.779l-8.836-20.788h104.849l-8.836 20.788c-1.489 3.505-4.928 5.779-8.735 5.779z" fill="#4a80aa"/><g><path d="m155.289 294.15c4.142 0 7.5-3.357 7.5-7.5v-74.432c0-4.143-3.358-7.5-7.5-7.5h-15.909c-4.142 0-7.5 3.357-7.5 7.5s3.358 7.5 7.5 7.5h8.409v66.932c0 4.143 3.358 7.5 7.5 7.5z"/><path d="m190.134 276.31c-4.596 6.018-6.498 8.508-5.202 12.725.755 2.454 2.616 4.338 5.111 5.171 1.024.341 2.07.689 16.251.689 5.669 0 13.438-.056 24.142-.19 4.142-.052 7.457-3.451 7.405-7.594-.052-4.141-3.414-7.438-7.594-7.404-8.26.104-17.056.168-23.99.17 16.248-21.602 28.429-37.314 28.429-49.341 0-14.637-11.908-26.545-26.545-26.545-12.656 0-23.61 9.003-26.047 21.408-.798 4.064 1.849 8.006 5.914 8.805 4.063.799 8.006-1.85 8.805-5.914 1.059-5.388 5.823-9.299 11.329-9.299 6.226 0 11.317 4.953 11.538 11.127-1.63 4.827 3.913 2.383-29.546 46.192z"/><path d="m296.487 294.15c4.143 0 7.5-3.357 7.5-7.5v-74.432c0-4.143-3.357-7.5-7.5-7.5h-15.908c-4.143 0-7.5 3.357-7.5 7.5s3.357 7.5 7.5 7.5h8.408v66.932c0 4.143 3.357 7.5 7.5 7.5z"/><path d="m322.073 232.223v34.422c0 16.004 13.02 29.023 29.023 29.023s29.023-13.02 29.023-29.023v-34.422c0-16.004-13.02-29.023-29.023-29.023s-29.023 13.019-29.023 29.023zm43.047 0v34.422c0 7.732-6.291 14.023-14.023 14.023s-14.023-6.291-14.023-14.023v-34.422c0-7.732 6.291-14.023 14.023-14.023s14.023 6.291 14.023 14.023z"/><path d="m265.941 231.222c0-4.143-3.357-7.5-7.5-7.5-4.142 0-7.5 3.357-7.5 7.5v4.39c0 4.143 3.358 7.5 7.5 7.5 4.143 0 7.5-3.357 7.5-7.5z"/><path d="m258.441 255.757c-4.142 0-7.5 3.357-7.5 7.5v4.39c0 4.143 3.358 7.5 7.5 7.5 4.143 0 7.5-3.357 7.5-7.5v-4.39c0-4.143-3.358-7.5-7.5-7.5z"/><path d="m494.43 358.512h-23.027v-235.127c0-20.969-17.06-38.028-38.028-38.028h-271.047c-4.142 0-7.5 3.357-7.5 7.5s3.358 7.5 7.5 7.5h271.046c12.698 0 23.028 10.33 23.028 23.028v235.128h-25v-33.887c0-4.143-3.357-7.5-7.5-7.5s-7.5 3.357-7.5 7.5v33.887h-320.805v-217.097c0-.584.475-1.06 1.06-1.06h318.687c.584 0 1.06.476 1.06 1.06v153.224c0 4.143 3.357 7.5 7.5 7.5s7.5-3.357 7.5-7.5v-153.224c0-8.855-7.204-16.06-16.06-16.06h-318.687c-8.855 0-16.06 7.204-16.06 16.06v217.097h-25v-235.128c0-12.698 10.331-23.028 23.029-23.028h53.715c4.142 0 7.5-3.357 7.5-7.5s-3.358-7.5-7.5-7.5h-53.715c-20.969 0-38.029 17.06-38.029 38.028v235.128h-23.027c-9.688 0-17.57 7.882-17.57 17.569v32.992c0 9.688 7.882 17.57 17.57 17.57h225.877c4.142 0 7.5-3.357 7.5-7.5s-3.358-7.5-7.5-7.5h-225.877c-1.417 0-2.57-1.153-2.57-2.57v-32.992c0-1.417 1.153-2.569 2.57-2.569h181.044l6.895 16.221c2.671 6.285 8.809 10.346 15.637 10.346h69.707c6.828 0 12.967-4.061 15.638-10.346l6.895-16.221h181.044c1.417 0 2.57 1.152 2.57 2.569v32.992c0 1.417-1.153 2.57-2.57 2.57h-220.995c-4.143 0-7.5 3.357-7.5 7.5s3.357 7.5 7.5 7.5h220.995c9.688 0 17.57-7.882 17.57-17.57v-32.992c0-9.688-7.881-17.57-17.57-17.57zm-201.744 25.354c-.313.736-1.033 1.213-1.833 1.213h-69.707c-.8 0-1.519-.477-1.833-1.214l-4.401-10.353h82.173z"/></g></g></svg>