<svg id="Capa_1" enable-background="new 0 0 512 512" height="512" viewBox="0 0 512 512" width="512" xmlns="http://www.w3.org/2000/svg"><g><g><path d="m422.103 427.93h-399.103c-8.284 0-15-6.716-15-15v-33.721c0-8.284 6.716-15 15-15h399.103c8.284 0 15 6.716 15 15v33.721c0 8.284-6.715 15-15 15z" fill="#edf4fa"/><path d="m422.103 409.93h-399.103c-8.284 0-15-6.716-15-15v18c0 8.284 6.716 15 15 15h399.103c8.284 0 15-6.716 15-15v-18c0 8.284-6.715 15-15 15z" fill="#d8e5ef"/><ellipse cx="469.818" cy="282.462" fill="#edf4fa" rx="34.182" ry="34.182" transform="matrix(.235 -.972 .972 .235 84.75 672.636)"/><path d="m469.818 298.645c-15.762 0-29.025-10.672-32.976-25.182-.781 2.868-1.206 5.884-1.206 9 0 18.878 15.304 34.182 34.182 34.182s34.182-15.304 34.182-34.182c0-3.116-.425-6.132-1.206-9-3.952 14.509-17.214 25.182-32.976 25.182z" fill="#d8e5ef"/><path d="m437.48 271.387c4.195-12.25 15.146-21.358 28.412-22.876-37.502-88.744-146.727-177.775-239.699-162.778-129.411 20.876-194.945 278.476-194.945 278.476h381.487c-5.092-48.759-26.248-95.726-44.225-128.084 28.81 7.607 54.532 24.445 68.97 35.262z" fill="#f7594e"/><path d="m31.248 364.209h381.487c-.63-6.036-1.508-12.044-2.594-18h-373.794c-3.395 11.305-5.099 18-5.099 18z" fill="#ea4642"/></g><g><path d="m316.949 420.746h-294.405c-4.144 0-7.515-3.371-7.515-7.515v-33.787c0-4.144 3.371-7.515 7.515-7.515h66.328c4.15 0 7.515-3.364 7.515-7.515s-3.364-7.515-7.515-7.515h-48.199c5.788-20.199 21.27-70.159 46.037-121.08 18.629-38.3 38.771-69.612 59.868-93.066 25.773-28.653 52.943-45.455 80.753-49.941 40.965-6.608 88.772 7.856 134.615 40.728 3.372 2.418 8.068 1.645 10.486-1.728 2.419-3.372 1.645-8.068-1.728-10.485-49.09-35.202-100.86-50.597-145.767-43.352-31.314 5.052-61.464 23.494-89.615 54.817-22.048 24.532-42.987 57.058-62.235 96.671-27.03 55.631-43.208 110.114-48.031 127.437h-2.512c-12.431 0-22.544 10.114-22.544 22.544v33.787c0 12.431 10.113 22.544 22.544 22.544h294.405c4.15 0 7.515-3.364 7.515-7.515 0-4.15-3.365-7.514-7.515-7.514z"/><path d="m471.122 240.767c-16.059-35.665-42.988-71.104-76.305-100.288-3.122-2.735-7.869-2.423-10.604.702-2.735 3.121-2.421 7.869.701 10.604 30.603 26.807 55.491 59.036 70.844 91.551-8.604 3.191-15.872 9.144-20.741 16.772-15.796-11.027-37.426-23.598-61.459-30.466l-20.19-32.068c-2.211-3.513-6.849-4.567-10.363-2.355-3.512 2.211-4.566 6.85-2.355 10.363l21.605 34.315c16.029 28.88 35.847 71.894 42.282 117.004h-285.607c-4.15 0-7.515 3.364-7.515 7.515s3.364 7.515 7.515 7.515h303.498c4.144 0 7.515 3.371 7.515 7.515v33.787c0 4.144-3.371 7.515-7.515 7.515h-75.421c-4.15 0-7.515 3.364-7.515 7.515s3.364 7.515 7.515 7.515h75.421c12.431 0 22.544-10.113 22.544-22.544v-33.787c0-12.43-10.113-22.544-22.544-22.544h-2.723c-5.361-40.077-20.778-78.44-35.545-107.739 18.477 7.446 34.629 17.778 45.1 25.284-.513 2.611-.789 5.305-.789 8.064 0 23.028 18.735 41.763 41.764 41.763 23.028 0 41.764-18.735 41.764-41.763.001-22.735-18.257-41.27-40.877-41.745zm-.886 68.476c-14.742 0-26.735-11.993-26.735-26.734 0-14.742 11.993-26.735 26.735-26.735 14.741 0 26.734 11.993 26.734 26.735.001 14.741-11.992 26.734-26.734 26.734z"/></g></g></svg>