<svg id="Capa_1" enable-background="new 0 0 512 512" height="512" viewBox="0 0 512 512" width="512" xmlns="http://www.w3.org/2000/svg"><g><g><path d="m487.184 450.164h-399.084c-44.167 0-80.1-35.932-80.1-80.1 0-44.167 35.933-80.101 80.1-80.101 9.287 0 16.816 7.529 16.816 16.816s-7.529 16.816-16.816 16.816c-25.623 0-46.469 20.846-46.469 46.468 0 25.623 20.846 46.469 46.469 46.469h399.084c9.287 0 16.816 7.529 16.816 16.816 0 9.288-7.529 16.816-16.816 16.816z" fill="#edf4fa"/><g><path d="m487.184 432.164h-399.084c-41.124 0-75.093-31.155-79.581-71.1-.332 2.956-.519 5.956-.519 9 0 44.167 35.933 80.1 80.1 80.1h399.084c9.287 0 16.816-7.529 16.816-16.815 0-3.314-.972-6.396-2.628-9-2.983 4.692-8.215 7.815-14.188 7.815z" fill="#d8e5ef"/></g><path d="m172.964 374.761h49.912v33.631h-49.912z" fill="#c3d0d8" transform="matrix(0 1 -1 0 589.497 193.657)"/><path d="m383.379 374.761h49.912v33.631h-49.912z" fill="#c3d0d8" transform="matrix(0 1 -1 0 799.912 -16.758)"/><path d="m181.105 366.621h33.631v18h-33.631z" fill="#b0c2cc"/><path d="m391.52 366.621h33.631v18h-33.631z" fill="#b0c2cc"/><path d="m132.965 262.487v74.134c0 16.568 13.432 30 30 30h291.627c16.569 0 30-13.432 30-30v-167.902c-75.367 0-136.465 61.097-136.465 136.465v5.861h-153.394c0-26.818-21.74-48.558-48.558-48.558z" fill="#f7594e"/><path d="m454.592 348.621h-291.627c-16.568 0-30-13.431-30-30v18c0 16.569 13.432 30 30 30h291.627c16.569 0 30-13.431 30-30v-18c0 16.569-13.431 30-30 30z" fill="#ea4642"/><path d="m243.8 311.045h104.327v-5.861c0-46.509 23.273-87.576 58.801-112.212-20.032-32.909-49.004-49.368-49.004-49.368h-76.664s-57.498 32.651-66.496 97.953c-6.187 44.902 29.036 69.488 29.036 69.488z" fill="#e4936b"/><path d="m278.221 143.603h82.744c8.785 0 15.907-7.122 15.907-15.907 0-8.785-7.122-15.907-15.907-15.907h-82.744c-8.785 0-15.907 7.122-15.907 15.907 0 8.785 7.122 15.907 15.907 15.907z" fill="#ffe08c"/><path d="m360.965 125.603h-82.744c-5.443 0-10.243-2.738-13.111-6.907-1.761 2.56-2.796 5.658-2.796 9 0 8.785 7.122 15.907 15.907 15.907h82.744c8.785 0 15.907-7.122 15.907-15.907 0-3.342-1.035-6.44-2.796-9-2.868 4.17-7.668 6.907-13.111 6.907z" fill="#f9d375"/><path d="m365.642 82.698-12.352 29.091h-67.395l-12.352-29.091c-4.2-9.892 3.06-20.862 13.807-20.862h64.484c10.748 0 18.008 10.97 13.808 20.862z" fill="#e4936b"/><g fill="#db835d"><path d="m278.253 93.789 7.642 18h67.396l7.642-18z"/><path d="m226.898 293.044c8.049 11.82 16.902 18 16.902 18s90.931 0 104.327 0v-5.86c0-4.092.19-8.139.543-12.14z"/></g></g><path d="m487.636 409.333h-54.64v-34.98h21.984c20.718 0 37.573-16.855 37.573-37.573v-160.716h11.931c4.15 0 7.515-3.364 7.515-7.515s-3.365-7.515-7.515-7.515h-19.444c-27.693 0-53.582 7.853-75.574 21.436-11.414-16.732-24.577-28.8-34.179-36.31 5.667-4.285 9.336-11.079 9.336-18.715 0-11.725-8.649-21.468-19.902-23.184l8.052-18.965c2.965-6.981 2.235-14.927-1.951-21.252s-11.214-10.102-18.8-10.102h-64.611c-7.586 0-14.613 3.777-18.8 10.102-4.186 6.326-4.916 14.271-1.951 21.252l8.052 18.965c-11.253 1.716-19.902 11.459-19.902 23.184 0 7.639 3.672 14.434 9.343 18.719-6.874 5.38-15.579 13.097-24.168 23.19-2.69 3.16-2.308 7.903.852 10.593 3.145 2.68 7.893 2.319 10.593-.853 13.432-15.782 27.362-25.265 31.992-28.196h72.594c5.662 3.574 25.328 17.002 41.087 40.119-33.819 26.088-55.788 66.823-56.301 112.62h-94.474c-6.629-5.408-28.972-26.452-24.2-61.084 1.914-13.892 6.349-27.358 13.181-40.023 1.971-3.653.607-8.21-3.046-10.181-3.652-1.971-8.211-.608-10.182 3.046-7.688 14.252-12.682 29.428-14.842 45.108-4.022 29.187 7.627 50.466 18.038 63.135h-23.651c-3.684-27.43-27.244-48.653-55.667-48.653h-29.174c-4.15 0-7.515 3.364-7.515 7.515s3.365 7.515 7.515 7.515h8.424v66.764c0 20.718 16.855 37.573 37.573 37.573h10.66v34.98h-85.67c-21.53 0-39.046-17.516-39.046-39.046 0-21.529 17.516-39.044 39.046-39.044 13.434 0 24.363-10.93 24.363-24.363 0-13.434-10.929-24.364-24.363-24.364-48.398.001-87.772 39.375-87.772 87.773 0 48.397 39.374 87.771 87.772 87.771h50.887c4.15 0 7.515-3.364 7.515-7.515s-3.365-7.515-7.515-7.515h-50.887c-40.111 0-72.743-32.632-72.743-72.742 0-40.111 32.632-72.743 72.743-72.743 5.147 0 9.334 4.188 9.334 9.335s-4.187 9.334-9.334 9.334c-29.817 0-54.075 24.257-54.075 54.073 0 29.817 24.258 54.075 54.075 54.075h399.864c5.147 0 9.334 4.187 9.334 9.334s-4.187 9.334-9.334 9.334h-318.918c-4.15 0-7.515 3.364-7.515 7.515s3.365 7.515 7.515 7.515h318.918c13.434 0 24.364-10.929 24.364-24.363s-10.93-24.363-24.364-24.363zm-206.491-336.995c1.416-2.14 3.7-3.367 6.267-3.367h64.611c2.566 0 4.85 1.227 6.267 3.367 1.416 2.14 1.654 4.722.651 7.085l-10.432 24.57h-57.58l-10.432-24.57c-1.005-2.363-.768-4.945.648-7.085zm-2.88 46.683h82.906c4.644 0 8.423 3.779 8.423 8.424s-3.779 8.424-8.423 8.424h-82.906c-4.645 0-8.424-3.779-8.424-8.424s3.779-8.424 8.424-8.424zm-71.124 290.312h-18.668v-34.98h18.668zm177.129 0h-162.1v-34.98h82.518c4.15 0 7.515-3.364 7.515-7.515s-3.364-7.515-7.515-7.515h-141.905c-12.431 0-22.544-10.113-22.544-22.544v-66.764h5.721c22.683 0 41.138 18.454 41.138 41.138 0 4.151 3.365 7.515 7.515 7.515h153.695c4.15 0 7.515-3.364 7.515-7.515v-5.872c0-68.728 53.935-125.097 121.703-129.001v160.499c0 12.431-10.113 22.544-22.544 22.544h-120.235c-4.15 0-7.515 3.364-7.515 7.515s3.365 7.515 7.515 7.515h49.523zm33.697 0h-18.668v-34.98h18.668z"/></g></svg>