<svg id="Capa_1" enable-background="new 0 0 512 512" height="512" viewBox="0 0 512 512" width="512" xmlns="http://www.w3.org/2000/svg"><g><path d="m461.841 329.672h-397.682c-7.606 0-13.771-6.166-13.771-13.771v-204.219c0-7.606 6.166-13.771 13.771-13.771h397.682c7.606 0 13.771 6.166 13.771 13.771v204.218c.001 7.606-6.165 13.772-13.771 13.772z" fill="#66b394"/><path d="m461.841 97.911h-27.5c7.606 0 13.771 6.166 13.771 13.771v204.218c0 7.606-6.166 13.771-13.771 13.771h27.5c7.606 0 13.771-6.166 13.771-13.771v-204.218c.001-7.605-6.165-13.771-13.771-13.771z" fill="#5aa687"/><path d="m418.954 287.672h-397.682c-7.606 0-13.771-6.166-13.771-13.771v-204.219c0-7.606 6.166-13.771 13.771-13.771h397.682c7.606 0 13.771 6.166 13.771 13.771v204.218c0 7.606-6.166 13.772-13.771 13.772z" fill="#95d6a4"/><path d="m418.954 55.911h-27.5c7.606 0 13.771 6.166 13.771 13.771v204.218c0 7.606-6.166 13.771-13.771 13.771h27.5c7.606 0 13.771-6.166 13.771-13.771v-204.218c0-7.605-6.166-13.771-13.771-13.771z" fill="#78c2a4"/><path d="m47.5 171.792c0-41.908 33.973-75.88 75.88-75.88h193.464c41.908 0 75.88 33.973 75.88 75.88 0 41.908-33.973 75.88-75.88 75.88h-193.464c-41.907 0-75.88-33.973-75.88-75.88z" fill="#ffe07d"/><path d="m316.844 95.911h-31.774c41.907 0 75.88 33.973 75.88 75.88 0 41.908-33.973 75.88-75.88 75.88h31.775c41.908 0 75.88-33.973 75.88-75.88 0-41.907-33.973-75.88-75.881-75.88z" fill="#ffd064"/><g><circle cx="371.431" cy="323.021" fill="#dd636e" r="133.069"/><path d="m371.431 189.952c-3.528 0-7.023.14-10.482.41 68.592 5.345 122.587 62.695 122.587 132.659s-53.994 127.314-122.586 132.659c3.459.27 6.954.41 10.482.41 73.492 0 133.069-59.577 133.069-133.069s-59.578-133.069-133.07-133.069z" fill="#da4a54"/><circle cx="371.431" cy="323.021" fill="#f4fbff" r="99.255"/><path d="m371.431 223.766c-4.599 0-9.123.32-13.556.925 48.403 6.611 85.7 48.112 85.7 98.33s-37.297 91.719-85.7 98.33c4.433.605 8.957.925 13.556.925 54.817 0 99.255-44.438 99.255-99.255s-44.438-99.255-99.255-99.255z" fill="#daf1f4"/></g><g><path d="m371.432 216.265c-58.865 0-106.755 47.891-106.755 106.756s47.89 106.755 106.755 106.755 106.755-47.89 106.755-106.755-47.89-106.756-106.755-106.756zm0 198.511c-50.594 0-91.755-41.161-91.755-91.755 0-50.595 41.161-91.756 91.755-91.756s91.755 41.161 91.755 91.756c0 50.594-41.162 91.755-91.755 91.755z"/><path d="m371.432 261.812c4.143 0 7.5-3.357 7.5-7.5v-3.436c0-4.143-3.357-7.5-7.5-7.5s-7.5 3.357-7.5 7.5v3.436c0 4.143 3.357 7.5 7.5 7.5z"/><path d="m417.144 266.703-2.43 2.429c-2.93 2.929-2.931 7.678-.003 10.606 2.926 2.928 7.675 2.933 10.606.003l2.43-2.429c2.93-2.929 2.931-7.678.003-10.606-2.929-2.931-7.678-2.93-10.606-.003z"/><path d="m443.575 315.521h-3.436c-4.143 0-7.5 3.357-7.5 7.5s3.357 7.5 7.5 7.5h3.436c4.143 0 7.5-3.357 7.5-7.5s-3.357-7.5-7.5-7.5z"/><path d="m302.723 315.521h-3.436c-4.143 0-7.5 3.357-7.5 7.5s3.357 7.5 7.5 7.5h3.436c4.143 0 7.5-3.357 7.5-7.5s-3.358-7.5-7.5-7.5z"/><path d="m425.317 366.3c-2.93-2.93-7.679-2.929-10.606.003-2.928 2.929-2.927 7.678.003 10.606l2.43 2.429c2.926 2.926 7.677 2.929 10.606-.003 2.928-2.929 2.927-7.678-.003-10.606z"/><path d="m371.432 384.229c-4.143 0-7.5 3.357-7.5 7.5v3.436c0 4.143 3.357 7.5 7.5 7.5s7.5-3.357 7.5-7.5v-3.436c0-4.143-3.358-7.5-7.5-7.5z"/><path d="m317.543 366.301-2.429 2.429c-2.929 2.93-2.929 7.678 0 10.607 2.931 2.929 7.678 2.928 10.607 0l2.429-2.429c2.929-2.93 2.929-7.678 0-10.607-2.929-2.927-7.677-2.927-10.607 0z"/><path d="m325.722 266.704c-2.93-2.928-7.678-2.928-10.607 0-2.929 2.93-2.929 7.678 0 10.607l2.429 2.429c2.931 2.929 7.678 2.928 10.607 0 2.929-2.93 2.929-7.678 0-10.607z"/><path d="m391.874 315.521h-12.942v-32.085c0-4.143-3.357-7.5-7.5-7.5s-7.5 3.357-7.5 7.5v39.585c0 4.143 3.357 7.5 7.5 7.5h20.442c4.143 0 7.5-3.357 7.5-7.5s-3.357-7.5-7.5-7.5z"/><path d="m483.112 237.763v-126.081c0-11.729-9.542-21.271-21.271-21.271h-21.615v-20.729c0-11.729-9.542-21.271-21.271-21.271h-397.684c-11.729 0-21.271 9.542-21.271 21.271v204.219c0 11.729 9.542 21.271 21.271 21.271h21.616v20.729c0 11.729 9.542 21.271 21.271 21.271h48.095c4.143 0 7.5-3.357 7.5-7.5s-3.357-7.5-7.5-7.5h-48.094c-3.458 0-6.271-2.813-6.271-6.271v-20.729h175.75c-1.763 8.737-2.71 17.764-2.765 27h-88.632c-4.143 0-7.5 3.357-7.5 7.5s3.357 7.5 7.5 7.5h89.33c7.119 70.889 67.126 126.417 139.86 126.417 29.698 0 58.095-9.156 82.12-26.479 3.359-2.423 4.119-7.11 1.697-10.471-2.425-3.36-7.109-4.118-10.471-1.697-21.454 15.47-46.817 23.646-73.347 23.646-69.239 0-125.569-56.33-125.569-125.568 0-69.239 56.33-125.569 125.569-125.569 69.238 0 125.568 56.33 125.568 125.569 0 30.53-11.095 59.962-31.24 82.873-2.734 3.11-2.431 7.85.681 10.585 3.11 2.732 7.85 2.431 10.585-.681 22.554-25.65 34.975-58.6 34.975-92.777.001-32.032-10.777-61.591-28.887-85.257zm-225.165 2.409h-134.567c-37.705 0-68.38-30.676-68.38-68.381s30.675-68.381 68.38-68.381h26.804c4.143 0 7.5-3.357 7.5-7.5s-3.357-7.5-7.5-7.5h-26.804c-45.976 0-83.38 37.404-83.38 83.381s37.404 83.381 83.38 83.381h124.977c-4.373 7.902-8.007 16.266-10.809 25h-216.277c-3.458 0-6.271-2.813-6.271-6.271v-204.219c0-3.458 2.813-6.271 6.271-6.271h397.683c3.458 0 6.271 2.813 6.271 6.271v123.478c-8.324-3.461-17.048-6.146-26.084-7.959.72-4.429 1.083-8.914 1.083-13.409 0-45.977-37.404-83.381-83.38-83.381h-136.674c-4.143 0-7.5 3.357-7.5 7.5s3.357 7.5 7.5 7.5h136.675c37.705 0 68.38 30.676 68.38 68.381 0 3.773-.315 7.539-.933 11.254-4.237-.386-8.524-.594-12.86-.594-46.555 0-87.889 22.755-113.485 57.72zm182.279-39.696v-95.065h21.615c3.458 0 6.271 2.813 6.271 6.271v109.393c-8.384-7.956-17.749-14.886-27.886-20.599z"/><path d="m230.11 164.303c-.975-.344-1.965-.701-2.957-1.065v-19.191c.048.019.101.036.148.055 2.94 1.187 6.308.327 8.359-2.091 3.23-3.808 1.839-9.654-2.759-11.602-1.75-.741-3.682-1.395-5.747-1.879v-3.322c0-4.143-3.357-7.5-7.5-7.5s-7.5 3.357-7.5 7.5v3.508c-8.931 2.463-14.972 9.764-16.6 18.398-1.523 8.078 1.116 15.908 6.89 20.437 2.554 2.003 5.643 3.842 9.71 5.738v26.567c-2.437-.493-4.494-1.502-7.548-3.501-3.718-2.43-8.791-1.139-10.835 2.962-1.711 3.432-.384 7.639 2.832 9.726 5.871 3.811 10.244 5.371 15.551 5.946v3.385c0 4.143 3.357 7.5 7.5 7.5s7.5-3.357 7.5-7.5v-4.122c11.041-3.088 18.114-12.64 19.698-22.067 2.085-12.399-4.643-23.605-16.742-27.882zm-18.41-8.554c-1.308-1.025-1.873-3.379-1.406-5.855.14-.745.597-2.541 1.859-4.129v10.322c-.152-.114-.309-.225-.453-.338zm20.36 33.951c-.496 2.952-2.159 6.035-4.906 8.11v-18.448c5.434 2.952 5.283 8.094 4.906 10.338z"/><path d="m327.971 164.292h-43.311c-4.143 0-7.5 3.357-7.5 7.5s3.357 7.5 7.5 7.5h43.311c4.143 0 7.5-3.357 7.5-7.5s-3.358-7.5-7.5-7.5z"/><path d="m155.564 164.292h-43.311c-4.143 0-7.5 3.357-7.5 7.5s3.357 7.5 7.5 7.5h43.311c4.143 0 7.5-3.357 7.5-7.5s-3.357-7.5-7.5-7.5z"/></g></g></svg>