<svg id="Capa_1" enable-background="new 0 0 512 512" height="512" viewBox="0 0 512 512" width="512" xmlns="http://www.w3.org/2000/svg"><g><g><path d="m274.272 220.905c0-90.144 8.006-132.264 12.425-155.462s4.488-57.443-30.697-57.443-35.116 34.245-30.698 57.443 12.425 65.318 12.425 155.462z" fill="#e4936b"/><path d="m237.727 202.905h36.545v18h-36.545z" fill="#db835d"/><path d="m396.042 504c7.141 0 12.541-6.528 11.122-13.526-1.958-9.657-6.352-22.416-16.208-31.065-14.855-13.035-30.365-23.617-32.474-67.478-2.497-51.953-30.365-135.379-102.482-135.379s-99.985 83.426-102.483 135.378c-2.109 43.861-17.619 54.443-32.474 67.478-9.856 8.649-14.249 21.408-16.208 31.065-1.419 6.998 3.981 13.526 11.122 13.526h280.085z" fill="#ffe08c"/><path d="m406.117 486h-300.234c-.406 1.542-.757 3.044-1.047 4.474-1.419 6.998 3.981 13.526 11.122 13.526h280.085c7.141 0 12.541-6.528 11.122-13.526-.291-1.429-.642-2.932-1.048-4.474z" fill="#f9d375"/><path d="m237.727 220.905h36.321v35.562h-36.321z" fill="#cb3541"/><path d="m237.727 220.905s-43.608-45.01-74.406-38.077c-34.93 7.864-23.43 84.951 2.827 92.227 22.989 6.37 71.578-18.588 71.578-18.588v-35.562z" fill="#f7594e"/><path d="m274.049 220.905s43.608-45.01 74.406-38.077c34.93 7.864 23.43 84.951-2.827 92.227-22.989 6.37-71.578-18.588-71.578-18.588v-35.562z" fill="#f7594e"/><path d="m237.727 238.467h36.321v18h-36.321z" fill="#ba3243"/><path d="m166.149 257.056c-12.707-3.521-21.957-23.392-24.162-43.854-2.989 25.197 7.676 57.285 24.162 61.854 22.989 6.37 71.578-18.588 71.578-18.588v-18c0-.001-48.589 24.958-71.578 18.588z" fill="#ea4642"/><path d="m345.627 257.056c-22.989 6.37-71.578-18.588-71.578-18.588v18s48.59 24.959 71.578 18.588c16.486-4.568 27.151-36.657 24.162-61.854-2.205 20.462-11.455 40.333-24.162 43.854z" fill="#ea4642"/><path d="m237.727 256.467s-9.523 4.89-22.129 9.789c-19.433 57.937-18.811 96.345-18.811 96.345l30.655 35.35c1.105-64.071 28.558-141.399 28.558-141.399l-.146-.085z" fill="#cb3541"/><path d="m197.779 345.741c-1.083 10.838-.991 16.861-.991 16.861l30.655 35.35c.097-5.617.4-11.338.866-17.098z" fill="#ba3243"/><path d="m273.981 256.467s9.523 4.89 22.129 9.789c19.432 57.937 18.811 96.345 18.811 96.345l-30.655 35.35c-1.105-64.071-28.557-141.399-28.557-141.399l.145-.085z" fill="#cb3541"/><path d="m314.221 345.741c1.083 10.838.991 16.861.991 16.861l-30.655 35.35c-.097-5.617-.4-11.338-.866-17.098z" fill="#ba3243"/></g><path d="m414.823 489.435c-2.129-10.498-7.092-25.141-18.648-35.281-.953-.836-1.908-1.661-2.862-2.486-13.576-11.74-25.301-21.878-27.126-59.836-1.767-36.782-14.591-79.994-39.364-109.042 3.565.525 7.052.831 10.368.83 3.806 0 7.39-.393 10.617-1.288 9.302-2.577 17.514-11.275 23.123-24.491 4.81-11.334 7.388-25.216 7.073-38.087-.587-24.027-10.95-40.626-27.721-44.402-5.379-1.21-11.294-1.209-17.581.002-4.075.785-6.743 4.725-5.957 8.8.785 4.074 4.718 6.752 8.8 5.957 4.242-.818 8.091-.85 11.437-.097 4.614 1.039 15.409 6.052 15.997 30.106.529 21.653-8.794 44.848-19.186 47.727-15.032 4.169-46.882-8.724-62.197-16.051v-27.827c4.512-4.355 15.743-14.675 28.941-22.953 3.516-2.204 4.578-6.842 2.373-10.359-2.204-3.516-6.84-4.578-10.359-2.373-7.84 4.917-14.953 10.411-20.626 15.183.951-77.87 8.194-115.908 12.211-136.993 3.156-16.563 4.414-39.332-7.507-53.738-6.991-8.45-17.298-12.736-30.629-12.736s-23.637 4.286-30.631 12.738c-11.921 14.406-10.663 37.175-7.508 53.741l.629 3.308c.77 4.078 4.695 6.749 8.779 5.989 4.078-.771 6.759-4.701 5.989-8.78l-.633-3.333c-2.088-10.966-4.304-30.918 4.323-41.345 4.059-4.905 10.291-7.29 19.052-7.29s14.993 2.385 19.053 7.29c8.627 10.427 6.411 30.379 4.323 41.345-4.274 22.438-12.127 63.672-12.562 149.656h-21.629c-.225-45.616-2.513-83.749-6.983-116.343-.564-4.111-4.352-6.975-8.466-6.424-4.112.565-6.988 4.354-6.424 8.467 4.061 29.606 6.286 63.975 6.766 104.643-3.954-3.334-8.621-7.033-13.763-10.653-21.423-15.083-39.866-21.021-54.823-17.657-16.771 3.776-27.134 20.375-27.721 44.401-.315 12.872 2.264 26.754 7.074 38.088 5.609 13.216 13.82 21.914 23.122 24.491 3.228.894 6.809 1.288 10.617 1.288 3.371 0 6.917-.311 10.544-.853-8.912 10.409-16.644 23.041-22.898 37.613-9.292 21.651-15.276 47.694-16.419 71.452-1.825 37.958-13.55 48.097-27.126 59.836-.954.825-1.909 1.651-2.862 2.486-11.555 10.14-16.519 24.783-18.648 35.281-2.583 11.272 6.96 22.856 18.509 22.559h56.939c4.15 0 7.515-3.364 7.515-7.515s-3.365-7.515-7.515-7.515h-56.939c-2.927-.435-3.923-1.613-3.779-4.544 1.669-8.232 5.424-19.594 13.831-26.97.925-.812 1.852-1.613 2.779-2.415 14.143-12.229 30.173-26.091 32.307-70.483 1.06-22.035 6.607-46.181 15.218-66.247 6.753-15.735 15.299-28.867 25.198-38.905-12.384 45.264-12.103 74.131-12.081 75.526.028 1.767.679 3.467 1.837 4.802l30.714 35.418c4.242 5.207 13.291 1.887 13.191-4.794.714-41.394 12.842-89.05 20.953-116.522 8.112 27.472 20.24 75.127 20.954 116.523-.099 6.683 8.95 9.998 13.191 4.793l30.714-35.418c1.158-1.336 1.808-3.035 1.836-4.802.023-1.399.302-30.442-12.197-75.943 10.035 10.05 18.691 23.268 25.526 39.138 8.659 20.108 14.236 44.321 15.298 66.431 2.134 44.392 18.164 58.253 32.307 70.482.927.801 1.854 1.604 2.78 2.416 8.407 7.377 12.161 18.738 13.831 26.971.144 2.93-.852 4.108-3.778 4.543h-193.632c-4.15 0-7.515 3.364-7.515 7.515s3.364 7.515 7.515 7.515h193.633c11.548.297 21.093-11.289 18.508-22.559zm-246.843-221.587c-10.391-2.88-19.715-26.074-19.185-47.727.588-24.054 11.383-29.067 15.997-30.106 1.674-.377 3.418-.553 5.221-.553 20.449 0 48.182 22.763 60.164 34.479v27.832c-4.714 2.237-13.033 5.995-22.416 9.387-17.884 6.466-32.013 8.84-39.781 6.688zm52.879 111.379-16.633-19.18c.114-3.878.535-11.885 2.074-23.163 1.966-14.409 6.211-37.159 15.239-64.85 8.206-3.322 14.752-6.465 17.94-8.053h6.108c-6.57 20.387-20.801 68.654-24.728 115.246zm24.347-130.276v-20.602h21.363v20.602zm45.644 130.276c-3.928-46.592-18.159-94.859-24.729-115.246h6.176c3.178 1.584 9.693 4.712 17.863 8.022 9.035 27.705 13.281 50.466 15.248 64.881 1.54 11.28 1.962 19.288 2.074 23.162z"/></g></svg>