<svg id="Capa_1" enable-background="new 0 0 512 512" height="512" viewBox="0 0 512 512" width="512" xmlns="http://www.w3.org/2000/svg"><g><circle cx="213.045" cy="218.355" fill="#5766cb" r="205.544"/><path d="m418.589 218.355c0-113.519-92.025-205.544-205.545-205.544-4.622 0-9.204.168-13.75.469 102.32 6.76 184.171 88.382 191.282 190.605.483 6.946-5.209 12.689-12.17 12.541-1.067-.023-2.137-.034-3.21-.034-84.773 0-153.496 68.722-153.496 153.496 0 7.961.608 15.779 1.779 23.411 2.314 15.087-8.645 29.083-23.874 30.113-.104.007-.208.014-.312.021 4.546.3 9.128.469 13.75.469 114.192-.002 205.546-92.786 205.546-205.547z" fill="#3d4fc3"/><circle cx="213.045" cy="218.355" fill="#f4fbff" r="157.782"/><path d="m370.827 218.355c0-87.14-70.641-157.782-157.782-157.782-4.275 0-8.508.176-12.697.51 81.505 6.491 145.56 74.913 145.082 158.198-.003.004-.005.006-.009.01-66.577 13.089-116.233 68.597-122.944 134.833-1.154 11.386-10.071 20.493-21.476 21.45-.218.018-.435.036-.653.053 91.876 7.32 170.479-65.064 170.479-157.272z" fill="#daf1f4"/><circle cx="375.197" cy="369.886" fill="#365e7d" r="129.303"/><path d="m375.197 240.583c-5.034 0-9.998.298-14.882.858 64.401 7.382 114.421 62.068 114.421 128.446s-50.02 121.064-114.421 128.446c4.884.56 9.848.858 14.882.858 71.412 0 129.303-57.891 129.303-129.303 0-71.414-57.891-129.305-129.303-129.305z" fill="#2b4d66"/><path d="m378.605 343.208c0-20.684 7.694-39.561 20.356-53.963-4.421-.74-8.956-1.145-13.587-1.145-45.169 0-81.786 36.617-81.786 81.787s36.617 81.786 81.786 81.786c24.485 0 46.442-10.774 61.43-27.823-38.698-6.474-68.199-40.104-68.199-80.642z" fill="#b1e4f9" stroke="#b1e4f9" stroke-miterlimit="10"/><path d="m378.605 343.208c0-20.684 7.694-39.561 20.356-53.963-4.421-.74-8.956-1.145-13.587-1.145-5.131 0-10.144.495-15.014 1.399-11.035 16.207-17.506 35.767-17.506 56.853 0 44.983 29.354 83.073 69.942 96.256 9.139-4.718 17.278-11.103 24.008-18.758-38.698-6.474-68.199-40.104-68.199-80.642z" fill="#90d8f9"/><g><path d="m213.045 109.389c4.143 0 7.5-3.357 7.5-7.5v-10.603c0-4.143-3.357-7.5-7.5-7.5s-7.5 3.357-7.5 7.5v10.603c0 4.142 3.357 7.5 7.5 7.5z"/><path d="m300.703 141.305 7.497-7.497c2.929-2.93 2.929-7.678 0-10.607-2.93-2.928-7.678-2.928-10.607 0l-7.497 7.497c-2.929 2.93-2.929 7.678 0 10.607 1.465 1.464 3.385 2.196 5.304 2.196s3.838-.732 5.303-2.196z"/><path d="m340.114 225.855c4.143 0 7.5-3.357 7.5-7.5s-3.357-7.5-7.5-7.5h-10.603c-4.143 0-7.5 3.357-7.5 7.5s3.357 7.5 7.5 7.5z"/><path d="m208.629 337.906v10.603c0 4.143 3.357 7.5 7.5 7.5s7.5-3.357 7.5-7.5v-10.603c0-4.143-3.357-7.5-7.5-7.5s-7.5 3.358-7.5 7.5z"/><path d="m117.89 313.511c1.465 1.464 3.385 2.196 5.304 2.196s3.839-.732 5.304-2.196l7.497-7.497c2.929-2.93 2.929-7.678 0-10.607-2.93-2.928-7.678-2.928-10.607 0l-7.497 7.497c-2.93 2.929-2.93 7.677-.001 10.607z"/><path d="m96.578 225.855c4.143 0 7.5-3.357 7.5-7.5s-3.357-7.5-7.5-7.5h-10.602c-4.143 0-7.5 3.357-7.5 7.5s3.357 7.5 7.5 7.5z"/><path d="m125.387 141.305c1.465 1.464 3.385 2.196 5.304 2.196s3.839-.732 5.304-2.196c2.929-2.93 2.929-7.678 0-10.607l-7.497-7.497c-2.93-2.928-7.678-2.928-10.607 0-2.929 2.93-2.929 7.678 0 10.607z"/><path d="m205.545 221.439c0 7.001 8.709 10.129 13.203 4.871l27.103-31.729c2.689-3.149 2.317-7.884-.832-10.574-3.15-2.688-7.884-2.316-10.574.832l-13.899 16.272v-50.649c0-4.143-3.357-7.5-7.5-7.5s-7.5 3.357-7.5 7.5v70.977z"/><path d="m406.027 286.729c-.912-2.565-3.144-4.434-5.828-4.883-4.949-.827-9.938-1.247-14.824-1.247-49.232 0-89.286 40.054-89.286 89.287 0 49.232 40.054 89.286 89.286 89.286 25.65 0 50.094-11.07 67.063-30.371 1.797-2.044 2.346-4.902 1.433-7.467-.912-2.564-3.144-4.434-5.828-4.883-58.161-9.728-81.314-79.186-43.448-122.256 1.797-2.044 2.345-4.901 1.432-7.466zm25.829 141.078c-13.097 10.512-29.471 16.366-46.481 16.366-40.962 0-74.286-33.324-74.286-74.286 0-40.795 33.051-74.015 73.782-74.285-30.636 48.54-8.043 113.615 46.985 132.205z"/><path d="m424.728 242.366c.899-7.993 1.361-16.043 1.361-24.01 0-54.785-20.758-106.842-58.449-146.582-2.851-3.006-7.599-3.131-10.603-.28-3.006 2.851-3.131 7.598-.28 10.603 35.036 36.941 54.332 85.332 54.332 136.26 0 6.388-.322 12.836-.945 19.258-10.405-2.751-21.291-4.302-32.503-4.5.439-4.922.686-9.859.686-14.759 0-91.137-74.145-165.282-165.281-165.282s-165.283 74.145-165.283 165.281c0 18.364 3 36.42 8.917 53.665 1.067 3.112 3.978 5.068 7.093 5.068.808 0 1.629-.131 2.435-.408 3.918-1.344 6.005-5.609 4.66-9.527-5.378-15.676-8.104-32.094-8.104-48.798 0-82.866 67.416-150.282 150.282-150.282 82.865 0 150.281 67.416 150.281 150.282 0 5.084-.272 10.214-.791 15.319-68.406 6.309-122.387 63.185-124.098 132.805-8.37 1.425-16.884 2.157-25.392 2.157-53.52 0-103.418-28.824-130.223-75.226-2.072-3.587-6.66-4.812-10.246-2.742-3.586 2.072-4.814 6.659-2.742 10.246 28.624 49.55 82.145 82.722 143.211 82.722 8.655 0 17.318-.679 25.857-2.022.949 11.128 3.227 21.884 6.69 32.098-10.734 1.775-21.644 2.687-32.547 2.687-109.203 0-198.046-88.841-198.046-198.044s88.843-198.044 198.045-198.044c44.857 0 87.16 14.624 122.335 42.292 3.254 2.56 7.97 1.997 10.531-1.258 2.562-3.256 1.998-7.971-1.258-10.531-37.844-29.769-83.354-45.503-131.608-45.503-117.474 0-213.045 95.571-213.045 213.044s95.571 213.044 213.045 213.044c12.841 0 25.696-1.164 38.3-3.453 21.879 46.484 69.166 78.743 123.853 78.743 28.346 0 55.544-8.599 78.654-24.866 3.387-2.384 4.2-7.062 1.815-10.45-2.384-3.386-7.062-4.201-10.45-1.815-20.569 14.479-44.781 22.132-70.02 22.132-65.629 0-121.804-53.064-121.804-121.803 0-67.163 54.641-121.804 121.804-121.804 67.162 0 121.803 54.641 121.803 121.804 0 29.821-10.896 58.521-30.68 80.812-2.75 3.098-2.467 7.838.631 10.588 3.098 2.749 7.838 2.467 10.588-.631 22.223-25.039 34.461-57.274 34.461-90.769 0-57.974-36.25-107.635-87.272-127.521z"/></g></g></svg>