<svg id="Capa_1" enable-background="new 0 0 512 512" height="512" viewBox="0 0 512 512" width="512" xmlns="http://www.w3.org/2000/svg"><g><g><path d="m451.819 326.615c-13.056-7.538-28.798-6.182-40.236 2.174l-25.829-14.913 20.058-9.656c7.464-3.594 10.602-12.558 7.009-20.022-3.594-7.464-12.558-10.604-20.022-7.009l-38.492 18.531-68.303-39.435 68.022-39.273 38.267 18.422c2.099 1.01 4.314 1.488 6.496 1.488 5.582 0 10.942-3.13 13.526-8.497 3.593-7.464.455-16.428-7.009-20.022l-19.833-9.547 37.187-21.47c11.422 8.241 27.069 9.545 40.058 2.046 17.649-10.19 23.697-32.758 13.507-50.407s-32.758-23.696-50.407-13.507c-13.056 7.538-19.753 21.849-18.235 35.932l-37.231 21.495 1.667-22.198c.62-8.261-5.574-15.461-13.835-16.081-8.257-.622-15.461 5.574-16.081 13.835l-3.198 42.6-67.905 39.204v-66.801l35.087-23.928c6.845-4.668 8.609-14 3.941-20.844-4.668-6.845-13.999-8.609-20.844-3.941l-18.184 12.402v-48.625c12.848-5.771 21.801-18.67 21.801-33.668 0-20.379-16.521-36.9-36.901-36.9s-36.901 16.521-36.901 36.901c0 15.076 9.045 28.031 22.001 33.758v48.675l-18.391-12.542c-6.843-4.668-16.176-2.903-20.844 3.941-4.667 6.844-2.903 16.176 3.941 20.844l35.294 24.069v66.657l-67.903-39.204-3.198-42.6c-.62-8.262-7.825-14.465-16.081-13.835-8.261.62-14.455 7.82-13.835 16.081l1.666 22.198-37.231-21.495c1.518-14.083-5.179-28.394-18.235-35.932-17.649-10.19-40.217-4.143-50.407 13.507-10.19 17.649-4.143 40.217 13.507 50.407 12.988 7.499 28.635 6.195 40.057-2.046l37.187 21.47-19.832 9.547c-7.464 3.594-10.603 12.558-7.009 20.022 2.584 5.367 7.943 8.497 13.526 8.497 2.182 0 4.398-.478 6.496-1.488l38.266-18.422 68.028 39.276-68.309 39.438-38.492-18.531c-7.465-3.594-16.429-.455-20.021 7.009-3.594 7.464-.456 16.428 7.009 20.022l20.058 9.656-25.829 14.912c-11.437-8.356-27.18-9.712-40.236-2.174-17.65 10.19-23.697 32.758-13.507 50.407s32.758 23.697 50.407 13.507c12.988-7.499 19.682-21.701 18.257-35.714l25.785-14.887-1.647 21.948c-.62 8.261 5.574 15.461 13.835 16.081.382.029.762.043 1.139.043 7.774 0 14.351-5.999 14.942-13.878l3.179-42.35 68.428-39.508v66.087l-35.294 24.069c-6.844 4.667-8.609 14-3.941 20.844 2.904 4.259 7.613 6.551 12.406 6.55 2.91 0 5.852-.846 8.438-2.609l18.391-12.542v48.675c-12.955 5.727-22.001 18.682-22.001 33.758 0 20.38 16.521 36.901 36.901 36.901s36.9-16.521 36.9-36.901c0-14.998-8.952-27.896-21.801-33.668v-48.624l18.185 12.401c6.845 4.668 16.176 2.902 20.844-3.941 4.668-6.844 2.903-16.176-3.941-20.844l-35.087-23.928v-66.231l68.428 39.507 3.179 42.351c.592 7.879 7.167 13.877 14.942 13.877.376 0 .757-.014 1.139-.042 8.261-.62 14.455-7.82 13.835-16.081l-1.648-21.949 25.786 14.888c-1.426 14.012 5.268 28.215 18.257 35.714 17.649 10.19 40.217 4.143 50.407-13.507 10.19-17.649 4.143-40.218-13.506-50.407z" fill="#92e0ff"/><g><path d="m255.9 486c-17.262 0-31.752-11.855-35.782-27.866-.718 2.872-1.118 5.871-1.118 8.966 0 20.38 16.521 36.901 36.901 36.901s36.9-16.521 36.9-36.901c0-3.095-.401-6.093-1.119-8.965-4.031 16.011-18.52 27.865-35.782 27.865z" fill="#75d5f2"/></g><g fill="#75d5f2"><path d="m255.9 63.801c-17.274 0-31.772-11.872-35.79-27.901-.722 2.881-1.111 5.895-1.111 9 0 20.38 16.521 36.901 36.901 36.901s36.9-16.521 36.9-36.901c0-3.105-.388-6.119-1.11-9-4.018 16.029-18.515 27.901-35.79 27.901z"/><path d="m462.717 161.432c-17.649 10.19-40.217 4.143-50.407-13.507-1.749-3.029-3.008-6.204-3.824-9.435-2.254 8.971-1.167 18.792 3.824 27.435 10.19 17.649 32.758 23.697 50.407 13.507 14.621-8.441 21.268-25.375 17.33-40.972-2.348 9.347-8.324 17.772-17.33 22.972z"/><path d="m97.082 372.531c-17.649 10.19-40.217 4.143-50.407-13.507-1.749-3.029-3.008-6.204-3.824-9.435-2.254 8.971-1.167 18.792 3.824 27.435 10.19 17.649 32.758 23.697 50.407 13.507 14.62-8.441 21.268-25.375 17.33-40.972-2.348 9.348-8.324 17.773-17.33 22.972z"/><path d="m99.691 147.922c-10.19 17.649-32.758 23.696-50.407 13.507-9.006-5.2-14.982-13.625-17.33-22.972-3.938 15.597 2.71 32.531 17.33 40.972 17.649 10.19 40.217 4.143 50.407-13.507 4.99-8.643 6.077-18.464 3.824-27.435-.816 3.232-2.076 6.407-3.824 9.435z"/><path d="m465.325 359.022c-10.19 17.649-32.758 23.697-50.407 13.507-9.006-5.2-14.982-13.624-17.33-22.972-3.938 15.597 2.71 32.531 17.33 40.972 17.649 10.19 40.217 4.143 50.407-13.507 4.99-8.643 6.077-18.464 3.824-27.435-.815 3.231-2.075 6.406-3.824 9.435z"/></g></g><g><path d="m309.381 277.266c-1.275 0-2.568-.325-3.75-1.008l-23.321-13.465c-2.325-1.342-3.757-3.823-3.757-6.508s1.432-5.165 3.757-6.508l68.161-39.353c2.151-1.243 4.777-1.342 7.017-.263l38.34 18.459c1.029.495 2.122.746 3.25.746 2.919 0 5.518-1.632 6.782-4.258 1.798-3.734.222-8.233-3.512-10.03l-19.87-9.567c-2.511-1.208-4.146-3.706-4.251-6.489-.104-2.784 1.341-5.397 3.753-6.79l37.259-21.512c2.564-1.479 5.756-1.317 8.155.414 9.4 6.784 21.954 7.426 31.981 1.637 6.814-3.934 11.689-10.287 13.725-17.887s.991-15.539-2.943-22.353c-3.935-6.814-10.287-11.689-17.888-13.725-7.599-2.037-15.539-.992-22.353 2.942-10.093 5.828-15.807 17.089-14.556 28.69.319 2.958-1.138 5.826-3.714 7.313l-37.303 21.537c-2.412 1.392-5.397 1.339-7.755-.145-2.359-1.482-3.704-4.148-3.495-6.926l1.669-22.242c.31-4.132-2.799-7.747-6.931-8.057-2.003-.153-3.936.482-5.457 1.79-1.525 1.311-2.449 3.137-2.6 5.142l-3.204 42.684c-.186 2.477-1.584 4.703-3.736 5.945l-68.035 39.28c-2.325 1.342-5.19 1.342-7.515 0s-3.757-3.823-3.757-6.508v-66.787c0-2.484 1.228-4.808 3.281-6.209l35.363-24.116c3.423-2.335 4.309-7.02 1.975-10.442-1.131-1.659-2.84-2.777-4.813-3.151-1.971-.373-3.971.045-5.629 1.176l-18.428 12.567c-2.299 1.568-5.281 1.74-7.745.435-2.463-1.301-4.004-3.858-4.004-6.644v-48.77c0-2.976 1.755-5.67 4.477-6.873 10.672-4.717 17.568-15.296 17.568-26.951 0-16.244-13.215-29.459-29.459-29.459s-29.458 13.215-29.458 29.459c0 11.577 6.833 22.127 17.408 26.878 2.7 1.213 4.435 3.896 4.435 6.855v48.72c0 2.786-1.541 5.342-4.004 6.644-2.463 1.3-5.444 1.134-7.745-.435l-18.22-12.426c-1.659-1.13-3.656-1.548-5.63-1.176-1.972.373-3.681 1.492-4.812 3.151s-1.549 3.658-1.176 5.63c.374 1.972 1.492 3.681 3.151 4.812l35.156 23.975c2.053 1.4 3.281 3.724 3.281 6.208v66.932c0 2.685-1.433 5.165-3.757 6.508-2.325 1.342-5.19 1.342-7.515 0l-68.035-39.28c-2.152-1.242-3.55-3.468-3.736-5.945l-3.205-42.684c-.151-2.001-1.071-3.825-2.595-5.134-1.521-1.31-3.466-1.949-5.46-1.798-4.134.31-7.244 3.925-6.934 8.057l1.67 22.242c.209 2.778-1.136 5.443-3.495 6.926-2.358 1.481-5.342 1.538-7.755.145l-37.304-21.538c-2.576-1.487-4.033-4.355-3.714-7.313 1.251-11.6-4.463-22.861-14.556-28.689-14.069-8.121-32.119-3.285-40.241 10.783-5.154 8.926-5.302 19.677-.396 28.76 1.972 3.652.611 8.21-3.042 10.182-3.651 1.975-8.21.611-10.183-3.041-7.403-13.707-7.176-29.938.606-43.416 5.941-10.291 15.534-17.653 27.013-20.728 11.479-3.074 23.467-1.498 33.758 4.444 13.781 7.957 22.156 22.616 22.241 38.295l21.018 12.135-.605-8.061c-.93-12.396 8.397-23.238 20.793-24.168 5.997-.455 11.823 1.462 16.389 5.389 4.566 3.929 7.329 9.398 7.779 15.403l2.908 38.724 53.324 30.787v-49.945l-31.875-21.737c-4.976-3.393-8.332-8.52-9.45-14.437-1.119-5.917.133-11.915 3.526-16.891 3.392-4.974 8.52-8.331 14.436-9.45 5.918-1.115 11.916.135 16.89 3.527l6.472 4.414v-29.944c-13.413-7.943-21.843-22.48-21.843-38.288-.003-24.531 19.954-44.488 44.485-44.488s44.488 19.957 44.488 44.488c0 15.912-8.507 30.495-22.044 38.409v29.964l6.678-4.554c4.975-3.392 10.97-4.646 16.89-3.526 5.917 1.118 11.044 4.475 14.437 9.45 7.003 10.269 4.345 24.322-5.923 31.327l-32.083 21.879v49.8l53.324-30.787 2.908-38.724c.451-6.011 3.218-11.486 7.791-15.416 4.569-3.925 10.391-5.832 16.387-5.377 12.387.93 21.714 11.772 20.784 24.168l-.605 8.061 21.018-12.134c.085-15.68 8.46-30.339 22.241-38.295 21.243-12.265 48.506-4.96 60.771 16.284 5.942 10.291 7.521 22.28 4.445 33.757-3.075 11.478-10.436 21.071-20.728 27.014-13.689 7.903-30.496 7.872-44.08.227l-21 12.123 7.058 3.398c11.2 5.392 15.926 18.891 10.534 30.091-3.735 7.757-11.712 12.769-20.324 12.769-3.402 0-6.689-.751-9.768-2.234l-34.763-16.737-53.45 30.86 12.049 6.957c3.594 2.075 4.826 6.671 2.75 10.265-1.392 2.412-3.919 3.759-6.515 3.759z"/><path d="m222.172 460.335c-.999 0-2.014-.201-2.988-.623-3.807-1.653-5.554-6.078-3.901-9.886 3.764-8.671 10.127-15.845 18.184-20.605v-29.941l-6.472 4.414c-10.267 7.002-24.321 4.345-31.326-5.923-3.394-4.977-4.647-10.974-3.527-16.891 1.118-5.917 4.476-11.044 9.45-14.436l31.875-21.738v-49.375l-53.85 31.091-2.889 38.475c-.92 12.253-11.724 21.719-24.161 20.793-12.403-.931-21.73-11.773-20.799-24.169l.586-7.811-9.576 5.529c-.172 15.587-8.547 30.157-22.237 38.061-10.291 5.943-22.281 7.519-33.758 4.445-11.479-3.075-21.072-10.437-27.013-20.728-5.942-10.291-7.521-22.28-4.445-33.758 3.076-11.479 10.437-21.071 20.729-27.013 13.78-7.956 30.661-7.881 44.285-.115l9.593-5.539-7.283-3.506c-11.2-5.392-15.925-18.891-10.534-30.092 2.613-5.427 7.181-9.51 12.864-11.5 5.685-1.99 11.804-1.648 17.23.967l34.988 16.843 53.726-31.019-53.444-30.856-34.764 16.736c-3.081 1.482-6.367 2.234-9.768 2.234-8.612 0-16.589-5.012-20.324-12.769-5.391-11.2-.665-24.699 10.533-30.091l7.059-3.398-20.998-12.122c-9.634 5.43-20.994 7.113-31.866 4.596-4.044-.935-6.564-4.972-5.627-9.015.935-4.044 4.982-6.56 9.015-5.627 8.277 1.916 16.981.153 23.892-4.835 2.399-1.73 5.592-1.892 8.155-.414l37.259 21.512c2.412 1.392 3.856 4.006 3.753 6.79-.105 2.783-1.74 5.281-4.251 6.489l-19.871 9.567c-3.733 1.797-5.308 6.297-3.511 10.03 1.264 2.626 3.863 4.258 6.782 4.258 1.126 0 2.22-.252 3.25-.748l38.341-18.457c2.238-1.078 4.865-.98 7.017.263l68.156 39.349c2.325 1.343 3.757 3.823 3.757 6.508s-1.432 5.165-3.757 6.508l-68.437 39.512c-2.152 1.241-4.778 1.341-7.017.263l-38.568-18.566c-1.808-.872-3.848-.986-5.743-.323-1.894.663-3.418 2.025-4.289 3.835-1.797 3.733-.222 8.233 3.512 10.03l20.096 9.674c2.51 1.208 4.146 3.706 4.251 6.489.104 2.784-1.34 5.397-3.753 6.79l-25.88 14.942c-2.575 1.488-5.788 1.316-8.191-.44-9.421-6.883-22.029-7.565-32.123-1.738-6.815 3.934-11.69 10.287-13.726 17.887s-.991 15.538 2.943 22.353c3.934 6.814 10.287 11.689 17.888 13.725 7.599 2.037 15.538.992 22.353-2.943 10.026-5.79 15.747-16.982 14.573-28.516-.299-2.943 1.157-5.789 3.719-7.268l25.836-14.917c2.41-1.393 5.396-1.338 7.755.145 2.359 1.482 3.705 4.148 3.495 6.926l-1.651 21.992c-.31 4.132 2.799 7.747 6.932 8.057.19.014.385.021.578.021 3.9 0 7.185-3.054 7.478-6.952l3.186-42.434c.186-2.478 1.584-4.703 3.736-5.945l68.562-39.584c2.325-1.342 5.19-1.342 7.515 0s3.757 3.823 3.757 6.508v66.361c0 2.484-1.228 4.808-3.281 6.208l-35.157 23.975c-1.659 1.131-2.777 2.839-3.151 4.812-.373 1.972.045 3.972 1.176 5.63 2.334 3.423 7.02 4.309 10.442 1.975l18.22-12.426c2.3-1.568 5.283-1.739 7.745-.435 2.463 1.301 4.004 3.858 4.004 6.644v48.719c0 2.959-1.737 5.643-4.435 6.855-6.732 3.023-12.056 8.413-14.991 15.176-1.23 2.833-3.995 4.525-6.898 4.525z"/><path d="m256.111 512c-17.336 0-33.212-10.183-40.448-25.943-1.731-3.771-.077-8.233 3.695-9.965 3.771-1.73 8.232-.077 9.965 3.695 4.792 10.438 15.307 17.184 26.789 17.184 16.244 0 29.459-13.214 29.459-29.458 0-11.655-6.895-22.234-17.568-26.951-2.721-1.203-4.477-3.897-4.477-6.873v-48.77c0-2.786 1.541-5.342 4.004-6.644 2.463-1.301 5.444-1.133 7.745.435l18.427 12.566c1.254.855 2.714 1.307 4.22 1.307h.002c2.494 0 4.82-1.227 6.221-3.282 2.335-3.424 1.449-8.108-1.975-10.442l-35.363-24.117c-2.053-1.4-3.281-3.724-3.281-6.208v-66.216c0-2.685 1.432-5.165 3.757-6.508 2.325-1.342 5.19-1.342 7.515 0l68.563 39.584c2.152 1.243 3.55 3.468 3.736 5.945l3.185 42.432c.307 4.094 3.925 7.239 8.064 6.931 1.995-.15 3.818-1.07 5.127-2.592 1.309-1.521 1.947-3.463 1.797-5.464l-1.651-21.991c-.209-2.778 1.136-5.443 3.495-6.926 2.359-1.48 5.344-1.537 7.755-.145l25.836 14.917c2.563 1.479 4.019 4.325 3.719 7.268-1.174 11.533 4.546 22.726 14.573 28.515 6.814 3.934 14.753 4.98 22.353 2.943 7.601-2.036 13.953-6.911 17.887-13.725 3.934-6.815 4.98-14.753 2.943-22.353-2.036-7.601-6.911-13.953-13.726-17.888-10.092-5.828-22.702-5.145-32.123 1.738-2.403 1.755-5.612 1.929-8.191.44l-25.881-14.941c-2.412-1.392-3.856-4.006-3.752-6.79.105-2.783 1.741-5.281 4.25-6.489l20.097-9.675c1.808-.871 3.17-2.393 3.834-4.289.662-1.894.549-3.933-.323-5.742-.871-1.81-2.392-3.17-4.287-3.834-1.897-.664-3.936-.548-5.744.322l-38.567 18.567c-2.237 1.077-4.865.978-7.017-.263l-19.108-11.031c-3.594-2.075-4.826-6.671-2.75-10.265 2.074-3.595 6.669-4.825 10.265-2.75l15.668 9.046 34.989-16.845c5.427-2.612 11.545-2.955 17.228-.965 5.684 1.989 10.253 6.073 12.863 11.5 2.612 5.424 2.956 11.543.966 17.227-1.989 5.683-6.073 10.251-11.5 12.864l-7.283 3.506 9.594 5.539c13.621-7.764 30.505-7.842 44.285.114 10.292 5.941 17.653 15.534 20.729 27.013 3.075 11.478 1.497 23.468-4.445 33.758-5.941 10.291-15.534 17.653-27.013 20.728-11.479 3.074-23.468 1.496-33.758-4.445-13.69-7.903-22.065-22.473-22.237-38.061l-9.576-5.528.586 7.81c.451 6.005-1.464 11.826-5.39 16.39-3.928 4.566-9.397 7.328-15.402 7.778-.575.043-1.142.064-1.704.064-11.72 0-21.587-9.161-22.465-20.858l-2.888-38.472-53.851-31.091v49.23l32.082 21.879c4.975 3.392 8.331 8.52 9.449 14.436 1.119 5.917-.133 11.916-3.525 16.891-4.203 6.163-11.17 9.843-18.637 9.843-.002 0-.003 0-.005 0-4.536 0-8.924-1.355-12.685-3.919l-6.679-4.555v29.964c13.536 7.914 22.044 22.497 22.044 38.409.002 24.534-19.955 44.491-44.486 44.491z"/></g></g></svg>