<svg id="Capa_1" enable-background="new 0 0 512.002 512.002" height="512" viewBox="0 0 512.002 512.002" width="512" xmlns="http://www.w3.org/2000/svg"><g><circle cx="213.045" cy="224.93" fill="#5766cb" r="205.544"/><path d="m365.391 363.513c1.884-.91 3.323-2.514 3.886-4.529.968-3.465 18.717-17.896 36.133-61.524 8.509-22.557 13.179-46.997 13.179-72.531 0-113.519-92.025-205.544-205.544-205.544-4.622 0-9.204.168-13.75.469 107.105 7.077 191.793 96.179 191.793 205.076 0 9.524-.651 18.894-1.908 28.072-1.463 10.679-14.445 15.179-22.241 7.737-4.57-4.363-10.567-6.767-16.886-6.767s-12.315 2.403-16.885 6.766l-44.747 42.711-81.88-26.318c-2.429-.78-4.948-1.176-7.489-1.176-7.914 0-15.3 3.791-19.947 10.325-3.978 5.593-5.269 12.667-3.927 19.397l19.532 97.909c1.727 8.658 2.597 17.465 2.597 26.294 108.406 8.207 163.704-64.251 168.084-66.367z" fill="#3d4fc3"/><circle cx="213.045" cy="224.93" fill="#f4fbff" r="157.782"/><path d="m366.777 260.6c2.649-11.462 4.049-23.402 4.049-35.67 0-87.14-70.641-157.782-157.782-157.782-4.115 0-8.192.159-12.228.468 81.426 6.241 145.554 74.288 145.554 157.313 0 10.237-.979 20.245-2.841 29.938-3.85 1.062-7.406 3.049-10.361 5.87l-44.747 42.711-81.88-26.318c-2.429-.78-4.948-1.176-7.489-1.176-7.345 0-14.234 3.265-18.902 8.957-4.659 5.681-6.506 13.074-5.067 20.285l15.134 75.864c3.526.511 7.092.898 10.688 1.174-.029.002-.058.005-.088.008 79.039 5.987 148.656-46.78 165.96-121.642z" fill="#daf1f4"/><path d="m481.799 492.616h-263.493v-78.086l20.609-20h219.177l23.707 20z" fill="#ffe07d"/><path d="m458.092 394.53v98.086h23.707v-78.086z" fill="#ffd064"/><path d="m403.176 324.358-50.739-48.43c-1.334-1.274-3.434-1.274-4.769 0l-50.739 48.43c-1.876 1.791-4.582 2.412-7.052 1.618l-89.758-28.851c-2.508-.806-4.959 1.38-4.443 3.963l22.63 113.442h263.493l22.63-113.442c.515-2.583-1.935-4.769-4.443-3.963l-89.758 28.851c-2.47.794-5.176.173-7.052-1.618z" fill="#eab14d"/><g fill="#e49542"><path d="m379.469 324.358c1.876 1.791 4.582 2.412 7.052 1.618l13.728-4.412-47.811-45.635c-1.334-1.274-3.434-1.274-4.769 0l-9.469 9.038z"/><path d="m499.986 297.125-19.739 6.344-22.155 111.061h23.707l22.63-113.442c.515-2.583-1.935-4.769-4.443-3.963z"/></g><path d="m346.966 382.641-16.668-23.888c-.903-1.294-.903-3.014 0-4.308l16.668-23.888c1.498-2.147 4.676-2.147 6.174 0l16.667 23.888c.903 1.294.903 3.014 0 4.308l-16.667 23.888c-1.498 2.147-4.676 2.147-6.174 0z" fill="#dd636e"/><path d="m369.807 354.445-16.667-23.888c-1.498-2.147-4.676-2.147-6.174 0l-5.45 7.81 11.218 16.078c.903 1.294.903 3.014 0 4.308l-11.218 16.078 5.45 7.81c1.498 2.147 4.676 2.147 6.174 0l16.667-23.888c.903-1.294.903-3.013 0-4.308z" fill="#da4a54"/><g><path d="m213.045 115.963c4.143 0 7.5-3.357 7.5-7.5v-10.603c0-4.143-3.357-7.5-7.5-7.5s-7.5 3.357-7.5 7.5v10.603c0 4.142 3.357 7.5 7.5 7.5z"/><path d="m300.703 147.879 7.497-7.497c2.929-2.93 2.929-7.678 0-10.607-2.93-2.928-7.678-2.928-10.607 0l-7.497 7.497c-2.929 2.93-2.929 7.678 0 10.607 2.93 2.929 7.677 2.928 10.607 0z"/><path d="m340.114 232.43c4.143 0 7.5-3.357 7.5-7.5s-3.357-7.5-7.5-7.5h-10.603c-4.143 0-7.5 3.357-7.5 7.5s3.357 7.5 7.5 7.5z"/><path d="m117.89 320.085c2.931 2.929 7.678 2.928 10.607 0l7.497-7.497c2.929-2.93 2.929-7.678 0-10.607-2.93-2.928-7.678-2.928-10.607 0l-7.497 7.497c-2.929 2.929-2.929 7.677 0 10.607z"/><path d="m96.578 232.43c4.143 0 7.5-3.357 7.5-7.5s-3.357-7.5-7.5-7.5h-10.602c-4.143 0-7.5 3.357-7.5 7.5s3.357 7.5 7.5 7.5z"/><path d="m125.387 147.879c2.931 2.929 7.678 2.928 10.607 0 2.929-2.93 2.929-7.678 0-10.607l-7.497-7.497c-2.93-2.928-7.678-2.928-10.607 0-2.929 2.93-2.929 7.678 0 10.607z"/><path d="m205.545 220.515h-28.945c-4.143 0-7.5 3.357-7.5 7.5s3.357 7.5 7.5 7.5h36.445c4.143 0 7.5-3.357 7.5-7.5v-70.977c0-4.143-3.357-7.5-7.5-7.5s-7.5 3.357-7.5 7.5z"/><path d="m350.053 321.448c-3.679 0-7.132 1.801-9.237 4.817l-16.67 23.89c-2.688 3.854-2.688 9.033.002 12.89l16.668 23.888c2.104 3.018 5.559 4.818 9.237 4.818 3.68 0 7.133-1.802 9.237-4.818l16.666-23.887c2.692-3.855 2.692-9.038.001-12.893l-16.667-23.888c-2.105-3.016-5.559-4.817-9.237-4.817zm0 52.51-12.112-17.359 12.112-17.358 12.111 17.358z"/><path d="m491.454 366.136c4.066.808 8.012-1.825 8.822-5.889l11.508-57.69c.768-3.849-.522-7.705-3.45-10.317-2.929-2.612-6.906-3.453-10.644-2.255l-89.519 28.774-2.615-2.496c13.623-28.617 20.533-59.312 20.533-91.333 0-54.783-20.758-106.841-58.45-146.581-2.851-3.005-7.598-3.131-10.603-.28-3.006 2.851-3.131 7.598-.28 10.603 35.037 36.941 54.333 85.333 54.333 136.259 0 28.093-5.727 55.081-17.009 80.379l-25.508-24.347c6.468-17.937 9.753-36.759 9.753-56.032 0-91.137-74.145-165.281-165.281-165.281s-165.28 74.143-165.28 165.28c0 18.367 3 36.423 8.916 53.665 1.345 3.919 5.615 6.01 9.527 4.66 3.918-1.344 6.005-5.609 4.66-9.527-5.377-15.673-8.104-32.091-8.104-48.798 0-82.865 67.416-150.281 150.281-150.281s150.281 67.416 150.281 150.281c0 15.305-2.275 30.292-6.763 44.7-4.229-3.14-10.169-2.854-14.074.874l-50.556 48.256-89.521-28.774c-3.736-1.2-7.715-.356-10.643 2.256-2.927 2.611-4.217 6.469-3.449 10.315l14.419 72.28c-51.081-3.495-95.398-32.403-119.918-74.849-2.072-3.588-6.661-4.812-10.246-2.742-3.586 2.072-4.814 6.659-2.742 10.246 27.323 47.298 77.543 79.977 135.937 82.539l5.036 25.244v7.674c-108.172-1.209-195.805-89.565-195.805-198.019 0-109.202 88.843-198.044 198.045-198.044 44.858 0 87.161 14.624 122.335 42.291 3.254 2.561 7.971 1.998 10.531-1.258 2.562-3.256 1.998-7.971-1.258-10.531-37.843-29.768-83.353-45.502-131.608-45.502-117.474 0-213.045 95.571-213.045 213.044 0 116.726 94.362 211.81 210.807 213.017v10.295h-3.671c-4.143 0-7.5 3.357-7.5 7.5s3.357 7.5 7.5 7.5h3.671v21.875h-3.671c-4.143 0-7.5 3.357-7.5 7.5s3.357 7.5 7.5 7.5h285.834c4.143 0 7.5-3.357 7.5-7.5s-3.357-7.5-7.5-7.5h-3.671v-21.875h3.671c4.143 0 7.5-3.357 7.5-7.5s-3.357-7.5-7.5-7.5h-3.671v-32.969l5.079-25.461c.81-4.062-1.826-8.012-5.889-8.822-4.063-.805-8.012 1.826-8.822 5.889l-4.02 20.152h-251.189c-2.251-11.285-17.981-90.136-20.08-100.658l83.204 26.743c5.089 1.635 10.655.36 14.526-3.332l47.944-45.763c43.773 41.78-10.927-10.43 47.944 45.762 3.868 3.694 9.436 4.969 14.525 3.334l83.205-26.744-10.162 50.941c-.808 4.061 1.828 8.011 5.89 8.822zm-17.155 118.98h-248.492v-21.875h248.492zm0-63.086v26.211h-248.492v-26.211z"/></g></g></svg>