<svg id="Capa_1" enable-background="new 0 0 512 512" height="512" viewBox="0 0 512 512" width="512" xmlns="http://www.w3.org/2000/svg"><g><g><path d="m447.358 281.416h-390.825c-8.26 0-14.956-6.696-14.956-14.956v-36.724c0-8.26 6.696-14.956 14.956-14.956h390.825c8.26 0 14.956 6.696 14.956 14.956v36.724c0 8.26-6.696 14.956-14.956 14.956z" fill="#edf4fa"/><path d="m447.358 263.416h-390.825c-8.26 0-14.956-6.696-14.956-14.956v18c0 8.26 6.696 14.956 14.956 14.956h390.825c8.26 0 14.956-6.696 14.956-14.956v-18c0 8.26-6.696 14.956-14.956 14.956z" fill="#d8e5ef"/><path d="m433.096 281.416s25.044 35.016 25.044 79.805c0 44.788 5.281 62.906 24.766 83.062 20.061 20.752 18.366 57.003-15.583 48.86-44.519-10.679-51.943-25.335-95.352-9.048-43.41 16.286-79.399 19.905-120.025 19.905s-76.616-3.619-120.025-19.906-50.833-1.631-95.352 9.048c-33.948 8.143-35.644-28.108-15.583-48.86 19.485-20.156 24.766-38.274 24.766-83.062s25.044-79.805 25.044-79.805h362.3z" fill="#f7594e"/><path d="m467.323 475.142c-44.519-10.679-51.943-25.335-95.352-9.048-43.41 16.287-79.399 19.906-120.025 19.906-40.627 0-76.616-3.619-120.025-19.906-43.409-16.286-50.833-1.631-95.352 9.048-15.324 3.676-24.075-1.695-27.221-10.602-4.796 17.631 3.005 34.411 27.221 28.602 44.519-10.679 51.943-25.335 95.352-9.048s79.398 19.906 120.025 19.906 76.616-3.619 120.025-19.906c43.409-16.286 50.833-1.631 95.352 9.048 24.216 5.809 32.017-10.972 27.22-28.602-3.146 8.907-11.896 14.278-27.22 10.602z" fill="#ea4642"/><g><path d="m293.713 146.556h-211.38c-8.284 0-14.999-6.715-14.999-14.999v-14.615c0-8.284 6.715-14.999 14.999-14.999h211.379c8.284 0 14.999 6.715 14.999 14.999v14.615c.001 8.283-6.715 14.999-14.998 14.999z" fill="#ffe08c"/><path d="m293.713 128.556h-211.38c-7.711 0-14.056-5.82-14.897-13.306-.063.556-.102 1.12-.102 1.693v14.615c0 8.284 6.715 14.999 14.999 14.999h211.379c8.284 0 14.999-6.715 14.999-14.999v-14.615c0-.573-.039-1.136-.102-1.693-.841 7.485-7.186 13.306-14.896 13.306z" fill="#f9d375"/><path d="m84.889 146.556h206.268v68.224h-206.268z" fill="#ffe08c"/><path d="m170.103 146.556h35.841v68.224h-35.841z" fill="#f7594e"/><path d="m84.889 196.78h206.268v18h-206.268z" fill="#f9d375"/><path d="m170.103 196.78h35.841v18h-35.841z" fill="#ea4642"/><path d="m165.209 101.943h45.628v44.613h-45.628z" fill="#f7594e"/><path d="m165.209 128.556h45.628v18h-45.628z" fill="#ea4642"/><path d="m172.404 71.299h31.239v30.645h-31.239z" fill="#cb3541"/><path d="m172.404 71.299s-27.243-30.828-49.256-22.338c-22.756 8.776-6.827 52.983-6.827 52.983h56.083z" fill="#f7594e"/><path d="m203.642 71.299s27.243-30.828 49.256-22.338c22.756 8.776 6.827 52.983 6.827 52.983h-56.083z" fill="#f7594e"/><path d="m172.404 83.943h31.239v18h-31.239z" fill="#ba3243"/><g fill="#ea4642"><path d="m116.321 101.943h56.083v-18h-60.545c1.555 9.929 4.462 18 4.462 18z"/><path d="m203.643 83.943v18h56.083s2.907-8.071 4.463-18z"/></g></g><g><path d="m440.896 9.433c-42.186-8.178-83.16 19.484-91.339 61.664l-27.862 143.683h37.499l26.504-136.677c4.316-22.255 25.934-36.849 48.191-32.535 22.257 4.315 36.854 25.931 32.539 48.185l-4.338 22.373c-1.935 9.978 4.587 19.636 14.566 21.571s19.639-4.586 21.574-14.565l4.338-22.373c8.178-42.179-19.487-83.148-61.672-91.326z" fill="#edf4fa"/></g><g><path d="m466.669 92.31 3.211-16.556c4.315-22.255-10.281-43.87-32.539-48.185-22.257-4.315-43.876 10.28-48.191 32.534l-3.453 18c4.316-22.255 25.934-36.849 48.191-32.534 21.776 4.221 36.207 25.003 32.781 46.741z" fill="#d8e5ef"/></g><path d="m325.185 196.78-3.49 18h37.498l3.491-18z" fill="#d8e5ef"/><g fill="#f7594e"><path d="m348.964 74.164-8.04 41.602 29.13 43.137 8.038-41.595z"/><path d="m461.86 121.677c.87 7.792 6.695 14.451 14.796 16.021 9.979 1.935 19.637-4.585 21.572-14.563l4.338-22.373c.472-2.435.821-4.856 1.056-7.279z"/><path d="m370.415 31.412 20.072 33.898c5.31-9.146 13.971-15.865 23.997-18.822l-11.537-34.96c-12.326 3.85-23.517 10.713-32.532 19.884z"/><path d="m466.741 19.476-22.145 29.758c-.001.001-.002.003-.002.004 9.5 4.802 16.677 13.097 20.189 22.912.001-.001.002-.002.003-.003l29.622-23.578c-6.478-11.823-15.976-21.921-27.667-29.093z"/><path d="m359.191 214.78 1.72-8.868-29.13-43.137-10.086 52.005z"/></g><path d="m321.695 214.78h37.496l1.72-8.867-6.167-9.133h-29.558z" fill="#ea4642"/><path d="m454.796 35.527-10.2 13.707c-.001.001-.002.003-.002.004 9.5 4.802 16.677 13.097 20.189 22.912.001-.001.002-.002.003-.003l5.847-4.654c-.13-12.649-6.143-24.378-15.837-31.966z" fill="#ea4642"/><path d="m389.149 60.103-.431 2.221 1.768 2.986c5.31-9.146 13.971-15.865 23.997-18.822l-4.801-14.547c-10.306 5.689-18.121 15.728-20.533 28.162z" fill="#ea4642"/></g><path d="m497.293 37.724c-12.807-18.967-32.202-31.804-54.613-36.15-46.333-8.983-91.337 21.4-100.322 67.731l-26.736 137.88h-16.884v-53.884c10.054-2.264 17.588-11.259 17.588-21.987v-14.644c0-12.431-10.112-22.543-22.542-22.543h-23.944c4.789-19.289 5.455-44.986-14.243-52.583-11.45-4.417-25.262-1.359-39.938 8.842-6.868 4.773-12.38 10.01-15.351 13.036h-24.828c-2.971-3.026-8.483-8.263-15.351-13.036-14.676-10.2-28.482-13.257-39.938-8.842-19.697 7.597-19.031 33.293-14.242 52.583h-23.947c-12.43 0-22.542 10.112-22.542 22.543v14.644c0 10.727 7.534 19.722 17.588 21.987v53.884h-20.895c-12.405 0-22.499 10.093-22.499 22.499v36.796c0 12.406 10.093 22.5 22.499 22.5h.973c-7.855 14.539-19.29 41.08-19.29 72.446 0 43.309-4.667 59.346-22.701 78.001-14.389 14.886-19.274 36.557-11.364 50.41 4.649 8.141 12.892 12.435 23.354 12.435 3.377 0 6.985-.447 10.776-1.357 12.797-3.069 22.436-6.395 30.94-9.329 20.889-7.208 31.377-10.825 60.204-.008 3.393 1.273 6.813 2.495 10.165 3.635 3.926 1.332 8.196-.766 9.533-4.698 1.335-3.93-.768-8.198-4.697-9.533-3.204-1.088-6.475-2.258-9.722-3.477-33.893-12.715-48.409-7.707-70.383-.127-8.182 2.823-17.455 6.022-29.544 8.922-6.157 1.475-14.201 1.995-17.574-3.916-4.002-7.006-1.293-21.742 9.117-32.51 20.886-21.605 26.924-41.443 26.924-88.447 0-34.427 15.91-63.19 21.649-72.446h263.322c4.151 0 7.514-3.364 7.514-7.515s-3.364-7.515-7.514-7.515h-281.682c-4.119 0-7.47-3.351-7.47-7.471v-36.796c0-4.118 3.351-7.47 7.47-7.47h391.572c4.118 0 7.469 3.351 7.469 7.47v36.796c0 4.119-3.351 7.471-7.469 7.471h-79.832c-4.151 0-7.514 3.364-7.514 7.515s3.364 7.515 7.514 7.515h61.47c5.745 9.266 21.65 38.025 21.65 72.446 0 47.003 6.039 66.841 26.924 88.447 10.41 10.768 13.119 25.504 9.118 32.51-3.374 5.912-11.42 5.393-17.576 3.916-12.089-2.9-21.361-6.099-29.543-8.922-21.974-7.582-36.491-12.589-70.383.127-43.058 16.156-78.159 19.466-117.615 19.466-31.935 0-55.762-2.366-79.675-7.912-4.04-.941-8.081 1.579-9.017 5.622-.938 4.043 1.579 8.08 5.622 9.018 25.087 5.819 49.93 8.301 83.07 8.301 41.093 0 77.718-3.473 122.895-20.423 28.823-10.816 39.311-7.199 60.203.008 8.503 2.934 18.142 6.259 30.939 9.329 7.352 1.762 25.398 4.215 34.132-11.077 7.911-13.853 3.025-35.524-11.363-50.409-18.034-18.655-22.701-34.693-22.701-78.001 0-31.366-11.435-57.907-19.29-72.446h.974c12.406 0 22.498-10.094 22.498-22.5v-36.796c0-12.406-10.092-22.499-22.498-22.499h-79.222l24.82-127.999c3.533-18.231 21.239-30.188 39.476-26.652 8.815 1.708 16.445 6.761 21.487 14.227 5.041 7.466 6.875 16.43 5.166 25.245l-4.345 22.417c-1.321 6.806.089 13.719 3.969 19.465s9.765 9.636 16.572 10.957c14.049 2.717 27.697-6.49 30.422-20.541l4.346-22.416c4.342-22.412-.317-45.199-13.125-64.165zm-203.508 71.433c4.143 0 7.513 3.371 7.513 7.514v14.644c0 4.143-3.371 7.513-7.513 7.513h-75.52v-29.67h75.52zm-82.728-35.266c8.04-8.288 26.25-23.297 39.131-18.323 11.179 4.311 7.499 26.358 4.046 38.56h-43.177zm-31.299 4.562h16.27v15.675h-16.27zm-7.208 30.704h30.686v29.67h-30.686zm-46.953-53.589c12.887-4.97 31.094 10.037 39.132 18.323v20.237h-43.144c-1.153-4.105-2.624-10.273-3.201-16.663-1.105-12.258 1.322-19.625 7.213-21.897zm-33.52 151.617v-53.329h15.017c4.15 0 7.514-3.364 7.514-7.515s-3.364-7.515-7.514-7.515h-25.092c-4.143 0-7.513-3.37-7.513-7.513v-14.644c0-4.143 3.371-7.514 7.513-7.514h75.52v29.67h-20.371c-4.15 0-7.514 3.364-7.514 7.515s3.364 7.515 7.514 7.515h25.274v53.329h-70.348zm85.376 0v-53.329h20.881v53.329zm35.909 0v-53.329h70.348v53.329zm117.57 0 4.916-25.354 17.121 25.354zm26.257-20.607-17.295-25.612 5.093-26.268 17.295 25.613zm9.139-47.132-17.295-25.613 4.031-20.786 17.294 25.616zm12.24-63.121-4.164 21.473-17.294-25.616.003-.016c2.054-10.591 6.398-20.165 12.408-28.323l12.641 21.35c-1.606 3.482-2.832 7.204-3.594 11.132zm12.996-24.751-11.389-19.235c5.489-4.752 11.679-8.657 18.358-11.539l6.883 20.858c-5.153 2.468-9.846 5.828-13.852 9.916zm50.887-11.963c-2.199-.764-4.466-1.38-6.793-1.831-5.368-1.042-10.701-1.14-15.841-.435l-6.925-20.986c8.651-1.697 17.755-1.808 26.927-.028 5.627 1.091 11.02 2.84 16.104 5.176zm24.289 18.74c-3.032-4.49-6.721-8.366-10.905-11.552l13.044-17.53c6.128 4.64 11.528 10.3 15.96 16.866.077.114.145.231.221.345l-17.204 13.613c-.361-.586-.728-1.168-1.116-1.742zm24.575 63.092c-1.148 5.914-6.898 9.799-12.808 8.647-2.866-.556-5.344-2.194-6.977-4.612-.196-.291-.376-.589-.542-.893l22.687-15.317zm5.558-32.467-24.766 16.72 2.099-10.828c1.326-6.84 1.164-13.739-.382-20.333l18.31-14.488c3.605 9.198 5.229 19.015 4.739 28.929z"/></g></svg>