<svg id="Capa_1" enable-background="new 0 0 512.472 512.472" height="512" viewBox="0 0 512.472 512.472" width="512" xmlns="http://www.w3.org/2000/svg"><g><circle cx="207.666" cy="304.57" fill="#eab14d" r="200.166"/><path d="m207.666 104.404c-4.107 0-8.181.139-12.226.382 104.854 6.32 187.94 93.342 187.94 199.784s-83.087 193.464-187.94 199.784c4.045.244 8.119.382 12.226.382 110.549 0 200.166-89.617 200.166-200.166s-89.617-200.166-200.166-200.166z" fill="#e49542"/><circle cx="207.666" cy="304.57" fill="#f4fbff" r="153.384"/><path d="m207.666 151.186c-4.544 0-9.038.209-13.481.596 78.397 6.828 139.904 72.62 139.904 152.788s-61.507 145.96-139.904 152.788c4.443.387 8.937.596 13.481.596 84.712 0 153.384-68.673 153.384-153.384s-68.672-153.384-153.384-153.384z" fill="#daf1f4"/><g><path d="m511.729 245.409c-1.993-9.061-7.739-16.742-16.15-21.206 1.583-2.082 2.92-4.373 3.969-6.843 3.311-7.79 3.39-16.404.222-24.254-3.47-8.599-10.413-15.224-19.45-18.226 1.181-2.25 2.099-4.658 2.723-7.188 2.028-8.219.734-16.735-3.643-23.98-4.377-7.246-11.314-12.353-19.533-14.381-.857-.211-1.718-.378-2.579-.518 4.113-12.239.448-26.297-10.192-34.839-7.554-6.064-17.061-8.087-25.898-6.372-.619-23.166-25.092-38.027-46.006-27.46-3.437-10.943-12.705-19.656-24.761-21.772-9.542-1.678-18.849 1.131-25.767 6.895-5.504-9.402-15.705-15.735-27.365-15.735-9.729 0-18.445 4.411-24.263 11.333-11.938-24.051-36.749-40.628-65.37-40.628-40.221 0-72.942 32.722-72.942 72.941 0 11.965 2.883 23.52 8.383 33.934-20.459 6.685-39.854 16.591-57.618 29.537-3.348 2.44-4.084 7.132-1.645 10.479 2.439 3.348 7.131 4.081 10.479 1.645 33.105-24.126 72.362-36.868 113.344-36.868 106.236 0 192.666 86.43 192.666 192.667 0 106.236-86.43 192.666-192.666 192.666s-192.667-86.429-192.667-192.666c0-51.753 20.241-100.332 56.995-136.787 2.941-2.917 2.961-7.666.044-10.606-2.918-2.941-7.667-2.96-10.606-.044-39.616 39.294-61.433 91.654-61.433 147.437 0 114.508 93.158 207.666 207.666 207.666s207.666-93.158 207.666-207.666c0-91.99-60.128-170.188-143.142-197.392 3.325-6.281 5.703-12.975 7.061-19.928 5.126 3.565 11.345 5.663 18.048 5.663 7.716 0 14.794-2.775 20.296-7.375 4.542 7.776 12.337 13.586 21.88 15.26 6.875 1.208 13.768.109 19.818-2.972 2.687 8.594 8.985 16.001 17.911 19.769 5.864 2.476 12.216 3.136 18.394 1.917.241 8.993 4.272 17.829 11.82 23.888 4.451 3.573 9.58 5.741 14.85 6.572-2.872 8.532-2.126 18.223 2.883 26.515 4.068 6.733 10.262 11.408 17.208 13.692-4.444 8.457-4.83 18.059-1.365 26.646 2.835 7.024 7.971 12.678 14.601 16.163-5.782 7.599-7.757 16.995-5.768 26.038 3.729 16.954 20.497 27.935 37.761 24.143 17.065-3.755 27.895-20.695 24.141-37.76zm-296.563-148.356v-16.374h7.715c4.143 0 7.5-3.357 7.5-7.5s-3.357-7.5-7.5-7.5h-30.43c-4.143 0-7.5 3.357-7.5 7.5s3.357 7.5 7.5 7.5h7.715v16.363c-14.373.507-28.504 2.472-42.236 5.842-5.379-8.964-8.207-19.134-8.207-29.705 0-31.949 25.993-57.941 57.942-57.941s57.942 25.992 57.942 57.941c0 10.59-2.837 20.778-8.235 29.754-13.595-3.354-27.713-5.363-42.206-5.88zm82.133-19.14c-9.203 0-16.69-7.487-16.69-16.691 0-9.203 7.487-16.69 16.69-16.69 9.204 0 16.691 7.487 16.691 16.69 0 9.204-7.487 16.691-16.691 16.691zm44.769 8.112c-9.065-1.592-15.146-10.261-13.556-19.325 1.596-9.092 10.284-15.138 19.325-13.556 9.065 1.592 15.146 10.261 13.556 19.325-1.595 9.084-10.233 15.151-19.325 13.556zm40.968 17.751c-8.464-3.572-12.449-13.355-8.902-21.824.012-.029.024-.057.036-.086 2.739-6.439 8.973-10.167 15.359-10.167 11.869 0 20.024 12.177 15.375 23.191-3.585 8.495-13.367 12.479-21.868 8.886zm31.13 4.566c.044-.054.087-.11.13-.165 3.292-4.059 8.112-6.173 12.976-6.173 3.667 0 7.357 1.199 10.433 3.668 7.178 5.762 8.329 16.288 2.567 23.465-5.763 7.177-16.289 8.328-23.465 2.567-7.143-5.735-8.311-16.188-2.641-23.362zm23.823 60.389c-4.76-7.878-2.223-18.159 5.654-22.918 7.913-4.779 18.156-2.226 22.918 5.655 4.771 7.895 2.24 18.147-5.655 22.918-7.879 4.755-18.158 2.221-22.917-5.655zm26.146 20.757c8.566-3.459 18.28.692 21.725 9.231 3.452 8.552-.674 18.273-9.231 21.725-8.549 3.454-18.273-.675-21.725-9.231-3.452-8.552.674-18.273 9.231-21.725zm20.229 79.031c-9.005 1.983-17.907-3.701-19.888-12.715-1.982-9.007 3.703-17.906 12.714-19.887 9.002-1.986 17.907 3.703 19.888 12.714 1.979 8.989-3.725 17.911-12.714 19.888z"/><path d="m207.666 213.474c-4.143 0-7.5 3.357-7.5 7.5v76.096h-41.403c-4.143 0-7.5 3.357-7.5 7.5s3.357 7.5 7.5 7.5h48.903c4.143 0 7.5-3.357 7.5-7.5v-83.596c0-4.142-3.357-7.5-7.5-7.5z"/><path d="m278.262 440.975c2.085 3.58 6.674 4.79 10.256 2.707 49.542-28.852 80.021-81.664 80.032-139.083 0-.01.001-.019.001-.029 0-.009-.001-.017-.001-.026-.014-88.681-72.191-160.859-160.884-160.859-89.103 0-160.884 72.492-160.884 160.885 0 88.704 72.194 160.884 160.884 160.884 17.754 0 35.208-2.878 51.877-8.553 3.921-1.335 6.018-5.596 4.683-9.517-1.335-3.922-5.6-6.017-9.517-4.683-12.757 4.343-26.027 6.871-39.543 7.555v-14.633c0-4.143-3.357-7.5-7.5-7.5s-7.5 3.357-7.5 7.5v14.64c-34.583-1.76-66.022-15.623-90.165-37.421l10.299-10.299c2.929-2.93 2.929-7.678 0-10.607-2.93-2.928-7.678-2.928-10.607 0l-10.299 10.299c-21.799-24.143-35.662-55.582-37.421-90.165h14.64c4.143 0 7.5-3.357 7.5-7.5s-3.357-7.5-7.5-7.5h-14.64c1.76-34.583 15.623-66.022 37.421-90.165l10.3 10.3c1.465 1.464 3.385 2.196 5.304 2.196s3.839-.732 5.304-2.196c2.929-2.93 2.929-7.678 0-10.607l-10.3-10.3c24.143-21.799 55.582-35.662 90.165-37.422v14.641c0 4.143 3.357 7.5 7.5 7.5s7.5-3.357 7.5-7.5v-14.641c34.583 1.76 66.022 15.623 90.165 37.422l-10.3 10.3c-2.929 2.93-2.929 7.678 0 10.607 1.465 1.464 3.385 2.196 5.304 2.196s3.839-.732 5.304-2.196l10.3-10.3c21.798 24.143 35.661 55.582 37.421 90.165h-14.64c-4.143 0-7.5 3.357-7.5 7.5s3.357 7.5 7.5 7.5h14.618c-1.656 32.278-13.926 64.237-37.366 90.198l-10.333-10.332c-2.93-2.928-7.678-2.928-10.607 0-2.929 2.93-2.929 7.678 0 10.607l10.33 10.33c-7.479 6.751-15.644 12.752-24.393 17.846-3.58 2.086-4.792 6.677-2.708 10.256z"/></g></g></svg>