<svg height="512" viewBox="0 0 60 60" width="512" xmlns="http://www.w3.org/2000/svg"><g id="Page-1" fill="none" fill-rule="evenodd"><g id="068---Wedding-Date" fill-rule="nonzero"><path id="Shape" d="m59 7v10h-58v-10c0-1.65685425 1.34314575-3 3-3h52c1.6568542 0 3 1.34314575 3 3z" fill="#f44335"/><path id="Shape" d="m56 4h-3c1.6568542 0 3 1.34314575 3 3v10h3v-10c0-1.65685425-1.3431458-3-3-3z" fill="#c81e1e"/><path id="Shape" d="m59 17v33l-9 9h-46c-1.65685425 0-3-1.3431458-3-3v-39z" fill="#f5f5f5"/><path id="Rectangle-path" d="m56 17h3v33h-3z" fill="#cfd8dc"/><path id="Shape" d="m48 4c1.7799916.69615377 2.9644585 2.39704811 3 4.308-.1669773 2.638824-2.3558984 4.6936142-5 4.6936142s-4.8330227-2.0547902-5-4.6936142c.0355415-1.91095189 1.2200084-3.61184623 3-4.308z" fill="#c81e1e"/><path id="Shape" d="m16 4c1.7799916.69615377 2.9644585 2.39704811 3 4.308-.0886126 2.6747612-2.3250095 4.773396-5 4.692-2.6749905.081396-4.91138737-2.0172388-5-4.692.03554154-1.91095189 1.2200084-3.61184623 3-4.308z" fill="#c81e1e"/><path id="Shape" d="m59 50h-6c-1.6568542 0-3 1.3431458-3 3v6z" fill="#cfd8dc"/><path id="Shape" d="m20.77 24.3-1.27 2.92-2.13 4.9-5.23-1.06-3.13-.63c-.25905095-.0486572-.48688031-.2012655-.63046245-.4223064-.14358214-.221041-.19039295-.491234-.12953755-.7476936l1.11-4.94c.07651935-.308359.27996448-.5699313.56-.72l4.73-2.46c.2809493-.1506483.614237-.1689608.91-.05l4.69 1.91c.2444756.0996968.4379405.2944631.5359959.5396016.0980554.2451386.0922818.5196003-.0159959.7603984z" fill="#02a9f4"/><path id="Shape" d="m30.74 45.86c2.1216988-3.8101565 1.5222808-8.5568989-1.48-11.72-1.8833768-2.0031408-4.5105126-3.1393952-7.26-3.14-4.370191-.0035648-8.2365016 2.8311104-9.5475534 7.0000101-1.3110519 4.1688998.2368709 8.7062642 3.8224749 11.2046688 3.5856041 2.4984047 8.3782548 2.3790735 11.8350785-.2946789.974231.9753002 2.0901428 1.7979059 3.31 2.44-5.638023 5.068654-14.2863255 4.7283941-19.5086936-.7675524-5.22236806-5.4959464-5.12098703-14.1503463.2286936-19.5224476l5.23 1.06 2.13-4.9c.8255453-.1444116 1.6619214-.2180126 2.5-.22 2.2959429-.0018691 4.5565972.5650123 6.58 1.65 1.2198572.6420941 2.335769 1.4646998 3.31 2.44 4.542722 4.5312606 5.4207346 11.5718505 2.13 17.08-1.2414827-.5345893-2.3584029-1.3212008-3.28-2.31z" fill="#ffdc00"/><path id="Shape" d="m52 39c.0038687 4.9173815-2.5744171 9.4756858-6.7908574 12.0059598-4.2164404 2.530274-9.451766 2.6608958-13.7891426.3440402-1.2198572-.6420941-2.335769-1.4646998-3.31-2.44-4.542722-4.5312606-5.4207346-11.5718505-2.13-17.08 1.2414827.5345893 2.3584029 1.3212008 3.28 2.31-2.1216988 3.8101565-1.5222808 8.5568989 1.48 11.72 1.8833768 2.0031408 4.5105126 3.1393952 7.26 3.14 4.370191.0035648 8.2365016-2.8311104 9.5475534-7.0000101 1.3110519-4.1688998-.2368709-8.7062642-3.8224749-11.2046688-3.5856041-2.4984047-8.3782548-2.3790735-11.8350785.2946789-.974231-.9753002-2.0901428-1.7979059-3.31-2.44 4.0975171-3.7329369 10.0120723-4.6957703 15.0820182-2.4552093 5.0699459 2.2405611 8.3397638 7.2622442 8.3379818 12.8052093z" fill="#ff9801"/><path id="Shape" d="m38 25c-.4971533.0020264-.9938499.0303995-1.488.085 7.081946.7874363 12.4426263 6.768545 12.4528701 13.8941264.0102437 7.1255814-5.3332174 13.1220784-12.4128701 13.9298736.4807443.0556217.9640745.0859967 1.448.091 7.7319865 0 14-6.2680135 14-14s-6.2680135-14-14-14z" fill="#f57c00"/><rect id="Rectangle-path" fill="#7f8e94" height="8" rx="2" width="4" x="44" y="1"/><rect id="Rectangle-path" fill="#7f8e94" height="8" rx="2" width="4" x="12" y="1"/><g fill="#000"><path id="Shape" d="m56 3h-7c0-1.65685425-1.3431458-3-3-3s-3 1.34314575-3 3h-26c0-1.65685422-1.3431458-2.99999994-3-2.99999994s-3 1.34314572-3 2.99999994h-7c-2.209139 0-4 1.790861-4 4v49c0 2.209139 1.790861 4 4 4h46c.2651948-.0000566.5195073-.1054506.707-.293l9-9c.1875494-.1874927.2929434-.4418052.293-.707v-43c0-2.209139-1.790861-4-4-4zm-13 2.87v1.13c0 1.65685425 1.3431458 3 3 3s3-1.34314575 3-3v-1.13c.634739.65364205.9929279 1.5269064 1 2.438-.1681855 2.0843921-1.9088336 3.6902478-4 3.6902478s-3.8318145-1.6058557-4-3.6902478c.0070721-.9110936.365261-1.78435795 1-2.438zm2-2.87c0-.55228475.4477153-1 1-1s1 .44771525 1 1v4c0 .55228475-.4477153 1-1 1s-1-.44771525-1-1zm-34 2.87v1.13c0 1.65685422 1.3431458 2.99999994 3 2.99999994s3-1.34314572 3-2.99999994v-1.13c.634739.65364205.9929279 1.5269064 1 2.438-.0904077 2.121609-1.8779548 3.771515-4 3.692-2.1220452.079515-3.9095923-1.570391-4-3.692.0070721-.9110936.365261-1.78435795 1-2.438zm2-2.87c0-.55228475.4477153-1 1-1s1 .44771525 1 1v4c0 .55228475-.4477153 1-1 1s-1-.44771525-1-1zm-9 2h5.134c-.72872851.94944373-1.12696914 2.11115448-1.134 3.308.09102178 3.2259942 2.7736878 5.77095 6 5.692 3.2263122.07895 5.9089782-2.4660058 6-5.692-.0070309-1.19684552-.4052715-2.35855627-1.134-3.308h22.268c-.7287285.94944373-1.1269691 2.11115448-1.134 3.308.1649621 3.1934124 2.8023297 5.6980581 6 5.6980581s5.8350379-2.5046457 6-5.6980581c-.0070309-1.19684552-.4052715-2.35855627-1.134-3.308h5.134c1.1045695 0 2 .8954305 2 2v9h-56v-9c0-1.1045695.8954305-2 2-2zm-2 51v-38h56v31h-5c-2.209139 0-4 1.790861-4 4v5h-45c-1.1045695 0-2-.8954305-2-2zm54.586-5-5.586 5.586v-3.586c0-1.1045695.8954305-2 2-2z"/><path id="Shape" d="m53 39c.0087346-5.8151601-3.3494301-11.1097275-8.6136197-13.5804506-5.2641895-2.470723-11.4827139-1.6709305-15.9503803 2.0514506-2.2835021-1.0940074-4.8088258-1.5859223-7.336-1.429l.585-1.349c.2154242-.4859487.2244551-1.0385096.0250262-1.5312386s-.5902485-.8834529-1.0830262-1.0827614l-4.691-1.915c-.5675929-.2306499-1.2080825-.1988084-1.75.087l-4.727 2.466c-.54345025.2805408-.93537415.7866386-1.071 1.383l-1.116 4.945c-.11835366.518351-.02126598 1.0625415.26903592 1.5079853.2903019.4454437.74895797.7539951 1.27096408.8550147l1.431.291c-4.77797247 6.0131803-4.23494413 14.6655937 1.2573536 20.0342085 5.4922977 5.3686147 14.1548336 5.7144621 20.0576464.8007915 4.6445517 2.2214099 10.1044655 1.9018717 14.4581838-.8461566s6.9910505-7.5393999 6.9838162-12.6878434zm-2 0c.0042254 4.5673741-2.3909214 8.8012767-6.307866 11.1504189s-8.7799151 2.4682114-12.807134.3135811c-1.1310821-.5954797-2.1654739-1.3587988-3.068-2.264-3.9739789-3.9668975-4.9490261-10.0382511-2.417-15.05.596984.3378605 1.1527072.7439143 1.656 1.21-1.9329141 4.0738477-1.154713 8.9176223 1.957 12.181 2.0714518 2.2050347 4.9615934 3.4566936 7.987 3.459 6.0751322-.0000001 10.9999998-4.9248678 10.9999998-11s-4.9248676-10.9999999-10.9999998-11c-2.1425502-.0074968-4.2394727.6187618-6.027 1.8-.5214696-.4647054-1.0755538-.8914639-1.658-1.277 3.9473056-2.905127 9.1938983-3.3406198 13.5661631-1.1260577 4.3722647 2.2145622 7.1254115 6.7019414 7.1188369 11.6030577zm-35.052-11.772 3.178-1.658-1.836 4.23zm-.248-2.128.167-2.808 2.947 1.183zm-2-.019-2.04-1.249 2.181-1.127zm-1.13 1.653-3.08 1.606.711-3.057zm1.605 1.419 1.347 2.584-4.562-.907zm7.825 3.847c.8637359.0000215 1.7228259.1263583 2.55.375-2.6550887 5.3693443-1.8482967 11.8051833 2.05 16.353-1.3887505.8353086-2.9793956 1.2751566-4.6 1.272-4.9705627 0-9-4.0294373-9-9s4.0294373-9 9-9zm8.489 11.937c-.9719986-1.4629784-1.4900211-3.1805587-1.489-4.937.0060495-1.0005844.1787467-1.9931708.511-2.937.9719986 1.4629784 1.4900211 3.1805587 1.489 4.937-.0060495 1.0005844-.1787467 1.9931708-.511 2.937zm4.961 3.688c2.6550887-5.3693443 1.8482967-11.8051833-2.05-16.353 1.3887505-.8353086 2.9793956-1.2751566 4.6-1.272 4.9705627 0 9 4.0294373 9 9s-4.0294373 9-9 9c-.8637359-.0000215-1.7228259-.1263583-2.55-.375zm-7.335-18.089c1.1310821.5954797 2.1654739 1.3587988 3.068 2.264 3.9739789 3.9668975 4.9490261 10.0382511 2.417 15.05-.596984-.3378605-1.1527072-.7439143-1.656-1.21 1.9329141-4.0738477 1.154713-8.9176223-1.957-12.181-2.7428968-2.9401299-6.8834454-4.1283073-10.768-3.09l.968-2.233c2.7243214-.3893182 5.5017904.1011532 7.928 1.4zm-19.115 11.464c-.00481708-3.2854402 1.2441233-6.4489218 3.492-8.845l2.38.483c-3.5117936 2.9849784-4.7877319 7.844241-3.1954352 12.1694441 1.5922966 4.3252031 5.7144474 7.1971928 10.3234352 7.1925559 2.1425502.0074968 4.2394727-.6187618 6.027-1.8.5214696.4647054 1.0755538.8914639 1.658 1.277-3.9473056 2.905127-9.1938983 3.3406198-13.5661631 1.1260577-4.3722647-2.2145622-7.12541149-6.7019414-7.1188369-11.6030577z"/><path id="Shape" d="m50 25h1v1c0 .5522847.4477153 1 1 1s1-.4477153 1-1v-1h1c.5522847 0 1-.4477153 1-1s-.4477153-1-1-1h-1v-1c0-.5522847-.4477153-1-1-1s-1 .4477153-1 1v1h-1c-.5522847 0-1 .4477153-1 1s.4477153 1 1 1z"/><path id="Shape" d="m9 52h-1v-1c0-.5522847-.44771525-1-1-1s-1 .4477153-1 1v1h-1c-.55228475 0-1 .4477153-1 1s.44771525 1 1 1h1v1c0 .5522847.44771525 1 1 1s1-.4477153 1-1v-1h1c.55228475 0 1-.4477153 1-1s-.44771525-1-1-1z"/></g></g></g></svg>