<svg id="Capa_1" enable-background="new 0 0 512 512" height="512" viewBox="0 0 512 512" width="512" xmlns="http://www.w3.org/2000/svg"><g><g><path d="m468.992 393.683c-17.753 0-17.753-12.122-35.506-12.122-17.751 0-17.751 12.122-35.501 12.122-17.751 0-17.751-12.122-35.502-12.122-13.597 0-16.785 7.108-25.509 10.437l167.524 83.508v-93.945c-17.753 0-17.753 12.122-35.506 12.122z" fill="#9dc6fb"/></g><g><path d="m504.498 452.931-143.138-71.352c-12.656.381-15.909 7.184-24.386 10.418l167.524 83.508z" fill="#80b4fb"/></g><g><path d="m306.488 376.801c-85.414-42.577-184.994-46.448-273.455-10.629l-25.531 10.338v98.995h496.996z" fill="#f1d59d"/></g><g><path d="m159.557 475.505h344.941l-198.01-98.704c-10.783-5.375-21.793-10.132-32.977-14.271-14.118 52.174-57.4 94.468-113.954 112.975z" fill="#ecc373"/></g><g><g><g><path d="m368.437 218.287c-7.584-70.535-74.956-143.321-151.459-162.177s-169.982 14.285-209.476 73.216z" fill="#e28086"/></g><g><path d="m274.715 104.673c-8.523 34.578-39.575 59.605-81.061 70.534l174.783 43.079c-5.5-51.15-42.445-103.478-91.509-135.571.281 7.35-.424 14.698-2.213 21.958z" fill="#dd636e"/></g><g><path d="m216.979 56.11c21.62 5.329 31.295 63.894 21.993 130.267l76.502 18.856c-.676-68.832-44.444-135.801-98.495-149.123s-123.928 25.636-156.513 86.27l76.503 18.856c22.607-63.093 58.39-110.455 80.01-105.126z" fill="#f9f6f9"/></g><g><path d="m276.295 96.333c-.374 2.79-.898 5.572-1.58 8.341-4.693 19.042-16.224 35.183-32.561 47.674-.501 10.938-1.547 22.363-3.182 34.03l76.502 18.856c-.397-40.449-15.679-80.248-39.179-108.901z" fill="#dfdde2"/></g></g></g><g><path d="m490.974 393.816c4.043-2.76 6.964-4.755 13.524-4.755 4.142 0 7.5-3.358 7.5-7.5s-3.358-7.5-7.5-7.5c-11.193 0-17.176 4.085-21.982 7.367-4.043 2.76-6.964 4.755-13.524 4.755-6.561 0-9.481-1.995-13.524-4.755-4.807-3.282-10.789-7.367-21.982-7.367-11.192 0-17.174 4.085-21.98 7.368-4.042 2.76-6.962 4.754-13.521 4.754s-9.48-1.994-13.522-4.755c-4.807-3.282-10.788-7.367-21.98-7.367s-17.177 4.083-21.985 7.364c-1.205.822-2.321 1.57-3.456 2.226l-27.207-13.562c-47.794-23.824-100.684-35.916-153.725-35.676l37.348-151.529 63.939 15.759c4.024.992 8.086-1.465 9.077-5.487s-1.466-8.086-5.487-9.077l-13.709-3.379c3.738-30.537 3.648-59.994-.309-83.588-1.428-8.516-3.317-15.975-5.631-22.343 35.694 22.556 62.676 70.314 66.241 120.793l-12.407-3.058c-4.023-.991-8.085 1.465-9.077 5.487-.991 4.022 1.466 8.086 5.487 9.077l75.061 18.501c.594.146 1.196.218 1.794.218 1.795 0 3.554-.645 4.936-1.852 1.842-1.61 2.784-4.017 2.522-6.45-3.849-35.797-22.264-73.007-51.854-104.778-27.703-29.745-62.265-51.534-98.022-61.932l3.077-12.486c.991-4.022-1.466-8.086-5.487-9.077-4.021-.988-8.086 1.465-9.077 5.487l-3.078 12.486c-36.494-7.41-77.223-4.178-115.576 9.286-40.964 14.381-74.563 38.772-94.606 68.68-1.362 2.032-1.647 4.601-.764 6.883s2.824 3.989 5.199 4.575l173.186 42.685-38.338 155.546c-17.763.891-35.489 3.156-52.992 6.857-4.053.857-6.643 4.837-5.787 8.889s4.831 6.641 8.889 5.787c15.246-3.224 30.67-5.312 46.136-6.304l-7.497 30.419c-7.463 1.215-13.93 5.423-18.134 11.348-1.864-.39-3.77-.602-5.683-.602-15.275 0-27.703 12.428-27.703 27.703 0 4.142 3.358 7.5 7.5 7.5s7.5-3.358 7.5-7.5c0-7.004 5.699-12.703 12.703-12.703.212 0 .418.026.628.036-.029.515-.046 1.033-.046 1.555 0 4.142 3.358 7.5 7.5 7.5s7.5-3.358 7.5-7.5c0-7.004 5.699-12.703 12.703-12.703s12.703 5.699 12.703 12.703c0 4.142 3.358 7.5 7.5 7.5s7.5-3.358 7.5-7.5c0-.522-.018-1.04-.046-1.555.21-.01.416-.036.628-.036 7.004 0 12.703 5.699 12.703 12.703 0 4.142 3.358 7.5 7.5 7.5s7.5-3.358 7.5-7.5c0-15.275-12.428-27.703-27.703-27.703-1.913 0-3.819.212-5.683.602-3.01-4.242-7.179-7.605-12.045-9.619l8.079-32.778c51.969-.838 103.911 10.732 150.737 34.075l118.803 59.222c1.075.536 2.216.789 3.34.789 2.754 0 5.406-1.523 6.718-4.155 1.848-3.707.341-8.21-3.366-10.059l-75.979-37.874c2.591-1.454 5.368-2.375 9.823-2.375 6.559 0 9.479 1.994 13.521 4.754 4.807 3.283 10.789 7.368 21.981 7.368s17.173-4.085 21.98-7.367c4.042-2.761 6.962-4.755 13.521-4.755 6.56 0 9.481 1.995 13.524 4.755 4.807 3.282 10.789 7.367 21.982 7.367 11.192-.001 17.174-4.086 21.981-7.368zm-344.052-237.851c23.782-62.145 55.293-95.783 68.262-92.572 12.969 3.196 25.245 47.613 17.424 113.692zm-74.97-18.478c26.615-43.041 72.702-72.79 114.789-76.174-5.009 4.563-10.148 10.289-15.37 17.167-14.468 19.052-28.236 45.093-39.118 73.87zm287.392 70.834-36.53-9.004c-1.423-32.883-12.081-65.902-30.307-93.586-1.124-1.707-2.277-3.371-3.443-5.015 35.689 28.375 62.493 67.844 70.28 107.605zm-226.922-146.212c-1.796.914-3.591 1.851-5.379 2.84-29.003 16.043-53.779 40.33-70.32 68.784l-36.537-9.005c25.371-31.588 67.447-54.08 112.236-62.619z"/><path d="m507.844 468.793-47.698-23.777c-3.708-1.849-8.21-.34-10.059 3.366-1.848 3.708-.341 8.21 3.366 10.059l47.698 23.777c1.075.536 2.216.789 3.34.789 2.754 0 5.406-1.523 6.718-4.155 1.849-3.708.342-8.211-3.365-10.059z"/><path d="m52.996 350.928c-7.654 2.482-15.317 5.272-22.778 8.293l-25.531 10.338c-3.839 1.555-5.691 5.927-4.137 9.767 1.181 2.917 3.989 4.687 6.954 4.687.937 0 1.89-.177 2.812-.55l25.532-10.338c7.132-2.888 14.458-5.555 21.775-7.928 3.94-1.278 6.099-5.508 4.821-9.448-1.277-3.94-5.506-6.098-9.448-4.821z"/><path d="m252.388 396.713c0-4.142-3.358-7.5-7.5-7.5h-10.101c-4.142 0-7.5 3.358-7.5 7.5s3.358 7.5 7.5 7.5h10.101c4.142 0 7.5-3.358 7.5-7.5z"/><path d="m267.112 441.742h-10.102c-4.142 0-7.5 3.358-7.5 7.5s3.358 7.5 7.5 7.5h10.101c4.142 0 7.5-3.358 7.5-7.5s-3.357-7.5-7.499-7.5z"/><path d="m368.127 439.721h-10.101c-4.142 0-7.5 3.358-7.5 7.5s3.358 7.5 7.5 7.5h10.101c4.142 0 7.5-3.358 7.5-7.5s-3.358-7.5-7.5-7.5z"/><path d="m44.878 432.65h-10.102c-4.142 0-7.5 3.358-7.5 7.5s3.358 7.5 7.5 7.5h10.101c4.142 0 7.5-3.358 7.5-7.5s-3.357-7.5-7.499-7.5z"/><path d="m157.005 443.762h-10.101c-4.142 0-7.5 3.358-7.5 7.5s3.358 7.5 7.5 7.5h10.101c4.142 0 7.5-3.358 7.5-7.5s-3.358-7.5-7.5-7.5z"/></g></g></svg>