<svg id="Capa_1" enable-background="new 0 0 512 512" height="512" viewBox="0 0 512 512" width="512" xmlns="http://www.w3.org/2000/svg"><g><g><g><g><g><g><path d="m7.501 233.349h496.998v268.15h-496.998z" fill="#8dcafc"/><path d="m7.5 233.353h497v29.117h-497z" fill="#64b9fc"/><path d="m368.024 266.97c-6.48 19.121-89.163 6.98-79.823 39.201s-70.813 19.301-87.843 37.421c-17.031 18.121 43.132 22.471 24.281 44.942-18.841 22.471-2.17 42.042 9.36 75.383 11.53 33.351-33.641 37.581-33.641 37.581h-192.857v-268.15h322.982c20.91 9.031 41.741 21.231 37.541 33.622z" fill="#c4e1ff"/><path d="m368.484 262.47h-360.983v-29.121h322.982c18.37 7.93 36.671 18.31 38.001 29.121z" fill="#b5dbfd"/></g></g></g></g><path d="m132.647 501.494s66.183.337 66.183-57.501c0-52.412-87.911-72.003-87.911-98.482 0-48.389 188.591-21.315 188.591-112.158 0 0-44.503-25.605-292.011-25.605v293.751z" fill="#fee7c9"/><path d="m110.915 345.513c0 26.481 87.913 46.072 87.913 98.484 0 57.832-66.182 57.502-66.182 57.502h-14.891c18.561-7.11 38.661-22.611 38.661-56.432 0-56.912-92.093-78.183-92.093-106.934 0-51.302 188.387-24.481 197.247-115.034 29.591 5.45 37.941 10.25 37.941 10.25.001 90.843-188.596 63.772-188.596 112.164z" fill="#ffd496"/><ellipse cx="119.457" cy="261.628" fill="#ffd496" rx="64.04" ry="18.419"/><g><g><g><path d="m126.795 111.064s40.129-69.892 118.701-53.305c2.771.585 4.518 3.379 3.823 6.124-2.341 9.239-10.733 28.334-40.364 32.524l2.742 7.285c.899 2.39-.121 5.074-2.389 6.249-10.932 5.665-43.6 19.009-82.513 1.123z" fill="#a3e440"/><path d="m249.32 63.882c-2.34 9.24-10.73 28.331-40.361 32.521l2.74 7.29c.9 2.39-.12 5.07-2.39 6.25-10.93 5.66-43.602 19.011-82.513 1.12 0 0 1.06-1.85 3.18-4.88 29.231 6.09 52.422-3.57 61.292-8.16 2.27-1.18 3.29-3.86 2.39-6.25l-.002-.005c-1.394-3.71.791-7.748 4.632-8.728 20.678-5.273 28.762-18.597 31.912-27.499 4.92.38 10.02 1.11 15.301 2.22 2.769.581 4.519 3.381 3.819 6.121z" fill="#99d53b"/></g><g><path d="m156.729 123.493s8.218-80.173-65.259-112.573c-2.592-1.143-5.641.106-6.679 2.741-3.492 8.868-7.826 29.271 13.787 49.97l-6.478 4.314c-2.126 1.415-2.863 4.19-1.708 6.468 5.568 10.982 24.302 40.886 66.337 49.08z" fill="#bcea73"/><path d="m156.726 123.495c-7.17-1.4-13.671-3.43-19.541-5.89-1.18-22.671-9.47-68.182-54.962-93.763.51-4.16 1.58-7.65 2.57-10.18 1.04-2.63 4.08-3.88 6.68-2.74 73.474 32.4 65.253 112.573 65.253 112.573z" fill="#a3e440"/><g><path d="m147.586 118.133s-55.534-58.407-127.947-23.691c-2.553 1.224-3.589 4.351-2.264 6.853 4.461 8.422 17.134 24.989 46.917 22.046l-.939 7.727c-.309 2.545 1.34 4.907 3.831 5.513 11.991 2.917 46.857 8.117 80.402-18.448z" fill="#a3e440"/><path d="m17.376 101.293c1.448 2.736 3.765 6.331 7.258 9.842 50.6-22.84 92.64-.594 112.692 14.157 3.413-2.081 6.842-4.457 10.256-7.158 0 0-55.53-58.403-127.944-23.691-2.555 1.222-3.587 4.35-2.262 6.85z" fill="#99d53b"/></g></g></g><path d="m156.609 119.37s-14.584 34.411-14.584 135.688h-53.286s-5.751-95.51 29.445-134.718c8.116-9.041 21.523-11.028 31.964-4.815z" fill="#c76d3d"/><path d="m156.606 119.375s-14.58 34.411-14.58 135.685h-19.221c0-89.963 10.62-131.205 14.441-143.135 4.42.03 8.88 1.21 12.9 3.6z" fill="#aa5e33"/><g><g><path d="m141.351 112.307s80.302-6.843 111.438 67.179c1.098 2.611-.202 5.638-2.855 6.631-8.927 3.34-29.4 7.323-49.726-14.641l-4.424 6.404c-1.452 2.101-4.239 2.791-6.496 1.597-10.886-5.757-40.465-25.001-47.937-67.17z" fill="#99d53b"/><path d="m249.93 186.117c-3.77 1.41-9.61 2.94-16.631 2.58-20.991-48.712-63.442-61.872-89.333-65.232-1.04-3.53-1.93-7.25-2.62-11.16 0 0 80.303-6.84 111.444 67.182 1.1 2.61-.2 5.64-2.86 6.63z" fill="#8dc637"/></g></g></g></g><g><path d="m456.746 240.853h47.754c4.143 0 7.5-3.358 7.5-7.5s-3.357-7.5-7.5-7.5h-47.754c-4.143 0-7.5 3.358-7.5 7.5s3.358 7.5 7.5 7.5z"/><path d="m504.5 493.998h-322.682c2.669-1.894 5.249-4.015 7.665-6.418 11.18-11.122 16.848-25.787 16.848-43.587 0-34.718-32.394-55.664-58.423-72.495-13.822-8.938-29.488-19.067-29.488-25.987 0-13.05 27.341-19.901 57.801-26.329 4.053-.855 6.645-4.834 5.789-8.887-.855-4.054-4.838-6.646-8.887-5.79-32.672 6.895-69.703 14.71-69.703 41.006 0 15.083 16.842 25.974 36.343 38.583 24.172 15.63 51.568 33.345 51.568 59.899 0 13.631-4.162 24.7-12.371 32.897-16.949 16.927-45.926 17.104-46.312 17.104h-.001l-125.147.004c-4.143 0-7.5 3.358-7.5 7.5 0 .777.118 1.526.337 2.23.007.023.017.045.025.068.82 2.55 2.965 4.505 5.627 5.05.083.017.17.024.254.039.41.069.828.114 1.258.114h497c4.143 0 7.5-3.358 7.5-7.5s-3.358-7.501-7.501-7.501z"/><path d="m7.5 215.247c25.946 0 50.822.291 74.077.857-1.325 21.535-.421 37.789-.324 39.404.238 3.96 3.52 7.049 7.486 7.049h53.285c4.143 0 7.5-3.358 7.5-7.5 0-13.221.253-25.264.688-36.232 60.288 3.463 96.302 8.848 116.05 12.813 13.357 2.682 21.294 5.096 25.538 6.615-1.361 15.393-9.329 27.298-24.774 37.178-17.311 11.074-41.557 17.565-60.745 21.983-4.037.929-6.556 4.955-5.626 8.991.799 3.471 3.887 5.819 7.302 5.819.558 0 1.123-.063 1.689-.193 20.367-4.689 46.214-11.65 65.464-23.965 18.791-12.021 29.352-27.881 31.488-47.216h116.148c4.143 0 7.5-3.358 7.5-7.5s-3.357-7.5-7.5-7.5h-121.565c-8.257-3.608-43.453-15.886-150.231-22.009 1.046-17.529 2.56-31.771 4.17-43.132 11.137 13.739 23.591 21.655 30.661 25.394 5.308 2.809 11.82 1.432 15.565-3.154 12.229 10.355 24.306 13.274 34.039 13.273 7.406 0 13.455-1.691 17.177-3.083 3.164-1.184 5.748-3.646 7.091-6.756 1.343-3.113 1.361-6.687.05-9.807-3.086-7.338-6.801-14.279-11.039-20.627-2.3-3.445-6.957-4.375-10.401-2.074-3.445 2.3-4.373 6.957-2.073 10.402 3.233 4.844 6.124 10.096 8.612 15.642-8.817 2.546-23.747 3.04-39.089-13.54-1.547-1.671-3.782-2.55-6.037-2.387-2.271.162-4.345 1.345-5.639 3.218l-3.164 4.58c-10.864-6.169-31.79-21.592-40.169-52.05 13.609.537 40.723 3.993 63.931 21.582 3.304 2.502 8.007 1.853 10.508-1.448 2.502-3.301 1.854-8.005-1.447-10.507-5.319-4.031-10.782-7.41-16.244-10.247 2.031-.887 3.812-1.747 5.309-2.523 5.334-2.764 7.913-8.901 6.275-14.589 27.254-7.307 35.296-27.371 37.556-36.285.829-3.275.277-6.802-1.514-9.677-1.793-2.877-4.72-4.928-8.03-5.627-40.027-8.448-70.604 4.344-90.921 18.847-8.714-23.583-26.313-49.637-61.629-65.209-3.097-1.365-6.67-1.408-9.805-.119-3.133 1.289-5.641 3.83-6.879 6.974-3.369 8.556-8.552 29.54 9.312 51.383-4.499 3.545-6.026 9.73-3.662 14.979-22.595-3.609-45.09-.133-67.066 10.403-3.051 1.462-5.408 4.148-6.47 7.369-1.06 3.217-.761 6.774.82 9.758 4.305 8.126 16.867 25.716 45.077 26.364-.241 5.919 3.732 11.274 9.585 12.697 4.867 1.185 12.966 2.665 23.056 2.664 2.024 0 4.132-.064 6.305-.197-6.543 17.397-10.084 37.021-11.952 54.796-23.628-.583-48.926-.883-75.318-.883-4.143 0-7.5 3.358-7.5 7.5s3.356 7.502 7.499 7.502zm130.777-84.973c-4.47-1.787-9.077-4.043-12.667-6.699 2.735-2.29 6.063-3.686 9.583-4.049.876 3.762 1.909 7.346 3.084 10.748zm-21.844 5.133c8.162 6.121 18.735 10.002 25.58 12.065-.55 3.181-1.103 6.65-1.646 10.442-8.695-.093-22.433-1.298-31.766-5.918 2.212-5.947 4.804-11.545 7.832-16.589zm20.474 54.23c-3.1.232-7.886.422-13.271.022-6.933-.515-16.135-2.125-23.135-6.679.981-5.564 2.166-11.129 3.588-16.565 11.568 5.034 25.635 6.246 34.397 6.454-.565 5.162-1.098 10.746-1.579 16.768zm-6.711 15.257c2.101 0 4.012-.063 5.681-.153-.225 3.93-.427 8.014-.601 12.258-13.959 4.549-30.466 2.94-38.76 1.645.352-6.231.891-12.944 1.695-19.87 10.774 4.974 23.046 6.12 31.985 6.12zm-34.213 42.664c-.074-3.536-.114-8.257-.02-13.814 4.59.654 10.748 1.274 17.604 1.274 6.679 0 14.018-.596 21.207-2.316-.109 4.777-.185 9.726-.222 14.856zm145.321-182.988c-2.931 8.697-11.032 21.249-33.398 24.411-2.254.319-4.24 1.644-5.401 3.601-1.161 1.958-1.37 4.337-.568 6.467l1.96 5.208c-3.847 1.837-10.097 4.4-17.976 6.178-7.902-2.374-15.351-3.805-21.839-4.651-.474-5.929-1.443-13.219-3.347-21.237 23.895-18.811 50.973-25.526 80.569-19.977zm-150.406-45.672c21.308 9.99 37.134 25.377 47.065 45.771 7.033 14.44 9.896 28.839 10.966 39.978-2.118-.036-3.881-.012-5.228.031-7.943-6.335-21.654-15.74-39.344-22.028-2.774-3.722-4.83-7.091-6.255-9.691l4.633-3.085c1.895-1.261 3.113-3.315 3.313-5.582s-.64-4.502-2.283-6.077c-16.314-15.626-15.564-30.545-12.867-39.317zm-19.834 110.873.672-5.525c.274-2.259-.491-4.521-2.083-6.148-1.592-1.628-3.848-2.441-6.1-2.221-22.483 2.224-33.32-8.053-38.228-15.81 41.035-18.514 76.022-5.264 97.005 7.825-3.619 1.816-6.925 4.314-9.729 7.438-1.002 1.116-1.967 2.28-2.908 3.473-.294.317-.554.655-.784 1.01-2.519 3.308-4.819 6.88-6.912 10.667-13.251 2.087-24.367.676-30.933-.709z"/><path d="m36.629 299.556h12.497c4.143 0 7.5-3.358 7.5-7.5s-3.357-7.5-7.5-7.5h-12.497c-4.143 0-7.5 3.358-7.5 7.5s3.357 7.5 7.5 7.5z"/><path d="m194.383 241.289h-12.496c-4.143 0-7.5 3.358-7.5 7.5s3.357 7.5 7.5 7.5h12.496c4.143 0 7.5-3.358 7.5-7.5s-3.358-7.5-7.5-7.5z"/><path d="m75.831 321.504c0-4.142-3.357-7.5-7.5-7.5h-12.497c-4.143 0-7.5 3.358-7.5 7.5s3.357 7.5 7.5 7.5h12.497c4.143 0 7.5-3.358 7.5-7.5z"/><path d="m36.629 465.622h12.497c4.143 0 7.5-3.358 7.5-7.5s-3.357-7.5-7.5-7.5h-12.497c-4.143 0-7.5 3.358-7.5 7.5s3.357 7.5 7.5 7.5z"/><path d="m420.779 336.882c-3.435-2.198-8.137-5.207-16.619-5.207s-13.185 3.009-16.619 5.207c-2.769 1.772-4.439 2.841-8.534 2.841-4.093 0-5.763-1.069-8.531-2.841-3.434-2.198-8.136-5.208-16.617-5.208s-13.184 3.01-16.617 5.207c-2.769 1.772-4.439 2.841-8.532 2.841-4.094 0-5.765-1.069-8.533-2.841-3.434-2.197-8.137-5.207-16.619-5.207s-13.185 3.009-16.619 5.207c-2.769 1.772-4.439 2.841-8.534 2.841-4.143 0-7.5 3.358-7.5 7.5s3.357 7.5 7.5 7.5c8.483 0 13.186-3.01 16.62-5.207 2.769-1.772 4.439-2.841 8.533-2.841s5.765 1.069 8.533 2.841c3.434 2.197 8.137 5.207 16.619 5.207s13.185-3.01 16.618-5.208c2.769-1.771 4.438-2.841 8.531-2.841s5.763 1.069 8.531 2.841c3.434 2.198 8.136 5.208 16.617 5.208 8.483 0 13.186-3.01 16.62-5.207 2.769-1.772 4.439-2.841 8.533-2.841s5.765 1.069 8.533 2.841c3.435 2.197 8.137 5.207 16.62 5.207 8.481 0 13.184-3.01 16.617-5.207 2.769-1.772 4.439-2.841 8.532-2.841s5.763 1.069 8.531 2.841c3.433 2.198 8.135 5.208 16.616 5.208 4.143 0 7.5-3.358 7.5-7.5s-3.357-7.5-7.5-7.5c-4.092 0-5.763-1.069-8.53-2.841-3.433-2.198-8.135-5.208-16.617-5.208s-13.185 3.01-16.618 5.208c-2.769 1.771-4.438 2.841-8.531 2.841-4.094 0-5.765-1.069-8.534-2.841z"/><path d="m321.229 394.891c-4.092 0-5.763-1.069-8.53-2.841-3.433-2.198-8.135-5.208-16.617-5.208s-13.185 3.01-16.618 5.208c-2.769 1.771-4.438 2.841-8.531 2.841-4.095 0-5.766-1.069-8.534-2.841-3.435-2.198-8.137-5.207-16.619-5.207s-13.185 3.009-16.619 5.207c-2.769 1.772-4.439 2.841-8.534 2.841-4.143 0-7.5 3.358-7.5 7.5s3.357 7.5 7.5 7.5c8.483 0 13.186-3.01 16.62-5.207 2.769-1.772 4.439-2.841 8.533-2.841s5.765 1.069 8.533 2.841c3.435 2.197 8.137 5.207 16.62 5.207 8.481 0 13.184-3.01 16.617-5.207 2.769-1.772 4.439-2.841 8.532-2.841s5.763 1.069 8.531 2.841c3.433 2.198 8.135 5.208 16.616 5.208 4.143 0 7.5-3.358 7.5-7.5s-3.357-7.501-7.5-7.501z"/><path d="m458.05 428.238c-3.434-2.198-8.136-5.208-16.617-5.208s-13.184 3.01-16.617 5.207c-2.769 1.772-4.439 2.841-8.532 2.841-4.094 0-5.765-1.069-8.533-2.841-3.434-2.197-8.137-5.207-16.619-5.207-8.483 0-13.186 3.01-16.62 5.207-2.769 1.772-4.439 2.841-8.533 2.841-4.143 0-7.5 3.358-7.5 7.5s3.357 7.5 7.5 7.5c8.482 0 13.185-3.009 16.619-5.207 2.769-1.772 4.439-2.841 8.534-2.841 4.094 0 5.765 1.069 8.533 2.841 3.434 2.197 8.137 5.207 16.619 5.207s13.185-3.01 16.618-5.208c2.769-1.771 4.438-2.841 8.531-2.841s5.763 1.069 8.531 2.841c3.434 2.198 8.136 5.208 16.617 5.208 4.143 0 7.5-3.358 7.5-7.5s-3.357-7.5-7.5-7.5c-4.093.001-5.763-1.068-8.531-2.84z"/><path d="m420.777 276.267c-3.433-2.197-8.135-5.207-16.616-5.207-8.482 0-13.185 3.01-16.618 5.207-2.769 1.772-4.439 2.841-8.532 2.841-4.094 0-5.765-1.069-8.533-2.841-3.434-2.197-8.137-5.207-16.619-5.207s-13.185 3.009-16.619 5.207c-2.769 1.772-4.439 2.841-8.534 2.841-4.143 0-7.5 3.358-7.5 7.5s3.357 7.5 7.5 7.5c8.483 0 13.186-3.01 16.62-5.207 2.769-1.772 4.439-2.841 8.533-2.841s5.765 1.069 8.533 2.841c3.434 2.197 8.137 5.207 16.619 5.207s13.185-3.01 16.618-5.207c2.769-1.772 4.439-2.841 8.532-2.841 4.092 0 5.763 1.069 8.53 2.841 3.433 2.198 8.135 5.208 16.617 5.208 4.143 0 7.5-3.358 7.5-7.5s-3.357-7.5-7.5-7.5c-4.092-.001-5.762-1.07-8.531-2.842z"/></g></g></svg>