<svg id="Capa_1" enable-background="new 0 0 512 512" height="512" viewBox="0 0 512 512" width="512" xmlns="http://www.w3.org/2000/svg"><g><path d="m122.083 129.725h60v70h-60z" fill="#fcd1e8"/><path d="m122.08 129.728h30v70h-30z" fill="#f6c2e0"/><path d="m226 129.725h60v70h-60z" fill="#fcd1e8"/><path d="m226 129.728h30v70h-30z" fill="#f6c2e0"/><path d="m359.917 11.892-27.545 54.547c-8.475 16.783 6.03 35.453 27.545 35.453 21.514 0 36.02-18.67 27.545-35.453z" fill="#fee97d"/><path d="m47 241.467h423v198.638h-423z" fill="#ffefd2"/><path d="m470 241.468v123.24c-.33.02-.67.02-1 .02-27.85 0-50.5-22.66-50.5-50.5v-9c0-11.31-9.2-20.5-20.5-20.5s-20.5 9.19-20.5 20.5v9c0 27.84-22.65 50.5-50.5 50.5s-50.5-22.66-50.5-50.5v-9c0-11.31-9.2-20.5-20.5-20.5s-20.5 9.19-20.5 20.5v9c0 27.84-22.65 50.5-50.5 50.5s-50.5-22.66-50.5-50.5v-9c0-11.31-9.2-20.5-20.5-20.5s-20.5 9.19-20.5 20.5v9c0 26.49-20.51 48.3-46.5 50.34v-123.1z" fill="#fae2c0"/><path d="m329.917 129.725h60v70h-60z" fill="#fcd1e8"/><path d="m329.92 129.728h30v70h-30z" fill="#f6c2e0"/><path d="m256 11.892-27.545 54.547c-8.475 16.783 6.03 35.453 27.545 35.453 21.514 0 36.02-18.67 27.545-35.453z" fill="#fee97d"/><path d="m152.083 11.892-27.545 54.547c-8.475 16.783 6.03 35.453 27.545 35.453 21.514 0 36.02-18.67 27.545-35.453z" fill="#fee97d"/><path d="m489.5 440.105h-466.576c-8.077 0-15.027 6.207-15.406 14.275-.406 8.614 6.458 15.725 14.983 15.725h5.424c10.536 0 19.076 8.541 19.076 19.076v10.924h423v-10.924c0-10.536 8.541-19.076 19.076-19.076 8.077 0 15.027-6.207 15.406-14.275.405-8.613-6.458-15.725-14.983-15.725z" fill="#fcd1e8"/><path d="m97 489.178v10.93h-50v-10.93c0-10.53-8.54-19.07-19.08-19.07h-5.42c-8.52 0-15.39-7.11-14.98-15.73.38-8.07 7.33-14.27 15.4-14.27h50c-8.07 0-15.02 6.2-15.4 14.27-.41 8.62 6.46 15.73 14.98 15.73h5.42c10.54 0 19.08 8.541 19.08 19.07z" fill="#f6c2e0"/><path d="m470 241.468v123.24c-.33.02-.67.02-1 .02-27.85 0-50.5-22.66-50.5-50.5v-9c0-11.31-9.2-20.5-20.5-20.5s-20.5 9.19-20.5 20.5v9c0 27.84-22.65 50.5-50.5 50.5s-50.5-22.66-50.5-50.5v-9c0-11.31-9.2-20.5-20.5-20.5s-20.5 9.19-20.5 20.5v9c0 27.84-22.65 50.5-50.5 50.5s-50.5-22.66-50.5-50.5v-9c0-11.31-9.2-20.5-20.5-20.5s-20.5 9.19-20.5 20.5v9c0 26.49-20.51 48.3-46.5 50.34v-123.1z" fill="#fedba6"/><circle cx="256" cy="380.786" fill="#f07281" r="20"/><circle cx="113.451" cy="380.786" fill="#f07281" r="20"/><path d="m504.5 229.725v84.5c0 19.606-15.894 35.5-35.5 35.5-19.606 0-35.5-15.894-35.5-35.5v-9c0-19.606-15.894-35.5-35.5-35.5-19.606 0-35.5 15.894-35.5 35.5v9c0 19.606-15.894 35.5-35.5 35.5-19.606 0-35.5-15.894-35.5-35.5v-9c0-19.606-15.894-35.5-35.5-35.5-19.606 0-35.5 15.894-35.5 35.5v9c0 19.606-15.894 35.5-35.5 35.5-19.606 0-35.5-15.894-35.5-35.5v-9c0-19.606-15.894-35.5-35.5-35.5-19.606 0-35.5 15.894-35.5 35.5v9c0 19.606-15.894 35.5-35.5 35.5-19.606 0-35.5-15.894-35.5-35.5v-84.5c0-16.569 13.431-30 30-30h437c16.569 0 30 13.431 30 30z" fill="#dc8758"/><g><g fill="#c86d36"><path d="m47.5 229.728v84.5c0 9.8 3.97 18.67 10.4 25.1 1.56 1.56 3.27 2.98 5.1 4.24-5.7 3.89-12.58 6.16-20 6.16-9.8 0-18.68-3.97-25.1-10.4-6.43-6.43-10.4-15.3-10.4-25.1v-84.5c0-16.57 13.43-30 30-30h40c-16.57 0-30 13.43-30 30z"/><path d="m199.9 339.329c1.56 1.56 3.27 2.98 5.1 4.24-5.7 3.89-12.58 6.16-20 6.16-9.8 0-18.68-3.97-25.1-10.4-6.43-6.43-10.4-15.3-10.4-25.1v-9c0-12.19-6.14-22.94-15.5-29.33 5.7-3.9 12.58-6.17 20-6.17 19.61 0 35.5 15.89 35.5 35.5v9c0 9.8 3.97 18.67 10.4 25.1z"/><path d="m341.9 339.329c1.56 1.56 3.27 2.98 5.1 4.24-5.7 3.89-12.58 6.16-20 6.16-9.8 0-18.68-3.97-25.1-10.4-6.43-6.43-10.4-15.3-10.4-25.1v-9c0-12.19-6.14-22.94-15.5-29.33 5.7-3.9 12.58-6.17 20-6.17 19.61 0 35.5 15.89 35.5 35.5v9c0 9.8 3.97 18.67 10.4 25.1z"/></g><path d="m489 343.569c-5.7 3.89-12.58 6.16-20 6.16-9.8 0-18.68-3.97-25.1-10.4-6.43-6.43-10.4-15.3-10.4-25.1v-9c0-12.19-6.14-22.94-15.5-29.33 5.7-3.9 12.58-6.17 20-6.17 19.61 0 35.5 15.89 35.5 35.5v9c0 9.8 3.97 18.67 10.4 25.1 1.56 1.56 3.27 2.98 5.1 4.24z" fill="#dc8758"/></g><circle cx="398.552" cy="380.786" fill="#f07281" r="20"/><g><path d="m470 385.958c4.142 0 7.5-3.358 7.5-7.5v-22.077c19.653-3.957 34.5-21.352 34.5-42.153v-84.5c0-20.678-16.822-37.5-37.5-37.5h-77.083v-62.504c0-4.142-3.358-7.5-7.5-7.5h-22.5v-13.499c10.753-1.923 20.135-7.92 25.476-16.6 5.565-9.044 6.025-19.639 1.264-29.068l-27.546-54.546c-1.276-2.526-3.865-4.119-6.695-4.119s-5.419 1.593-6.695 4.119l-27.544 54.547c-4.762 9.429-4.301 20.024 1.264 29.068 5.341 8.68 14.723 14.677 25.476 16.6v13.499h-22.5c-4.142 0-7.5 3.358-7.5 7.5v62.504h-28.917v-62.504c0-4.142-3.358-7.5-7.5-7.5h-22.5v-13.499c10.753-1.923 20.135-7.92 25.476-16.6 5.565-9.044 6.025-19.639 1.264-29.068l-27.545-54.547c-1.276-2.526-3.865-4.119-6.695-4.119s-5.419 1.593-6.695 4.119l-27.545 54.547c-4.761 9.429-4.301 20.024 1.264 29.068 5.341 8.68 14.723 14.677 25.476 16.6v13.499h-22.5c-4.142 0-7.5 3.358-7.5 7.5v62.504h-28.917v-62.504c0-4.142-3.358-7.5-7.5-7.5h-22.5v-13.499c10.753-1.923 20.135-7.92 25.476-16.6 5.564-9.044 6.025-19.639 1.264-29.068l-27.545-54.547c-1.276-2.526-3.865-4.119-6.695-4.119s-5.419 1.593-6.695 4.119l-27.545 54.547c-4.761 9.43-4.301 20.024 1.264 29.068 5.341 8.68 14.723 14.677 25.476 16.6v13.499h-22.5c-4.142 0-7.5 3.358-7.5 7.5v62.504h-32.283c-4.142 0-7.5 3.358-7.5 7.5s3.358 7.5 7.5 7.5h392.2c12.407 0 22.5 10.093 22.5 22.5v84.5c0 15.439-12.561 28-28 28-7.484 0-14.514-2.912-19.796-8.203-5.29-5.291-8.204-12.321-8.204-19.797v-9c0-23.71-19.29-43-43-43-11.495 0-22.294 4.475-30.399 12.593-8.126 8.113-12.601 18.911-12.601 30.407v9c0 15.439-12.561 28-28 28-7.484 0-14.514-2.912-19.796-8.203-5.29-5.291-8.204-12.321-8.204-19.797v-9c0-23.71-19.29-43-43-43-11.495 0-22.294 4.475-30.399 12.593-8.126 8.113-12.601 18.911-12.601 30.407v9c0 15.439-12.561 28-28 28-7.484 0-14.514-2.912-19.796-8.203-5.29-5.291-8.204-12.321-8.204-19.797v-9c0-23.71-19.29-43-43-43-11.495 0-22.294 4.475-30.399 12.593-8.126 8.113-12.601 18.911-12.601 30.407v9c0 15.439-12.561 28-28 28-7.484 0-14.514-2.912-19.796-8.203-5.29-5.291-8.204-12.321-8.204-19.797v-84.5c0-12.407 10.093-22.5 22.5-22.5h12.12c4.142 0 7.5-3.358 7.5-7.5s-3.358-7.5-7.5-7.5h-12.12c-20.678 0-37.5 16.822-37.5 37.5v84.5c0 11.482 4.474 22.28 12.593 30.399 7.284 7.295 16.734 11.635 26.907 12.449v75.531h-16.58c-12.271 0-22.326 9.408-22.892 21.414-.295 6.217 1.902 12.117 6.188 16.612 4.227 4.433 10.162 6.975 16.284 6.975h5.42c6.385 0 11.58 5.19 11.58 11.57v10.93c0 4.142 3.358 7.5 7.5 7.5h120.16c4.142 0 7.5-3.358 7.5-7.5s-3.358-7.5-7.5-7.5h-112.66v-3.43c0-14.651-11.924-26.57-26.58-26.57h-5.42c-2.07 0-3.998-.826-5.428-2.326-1.428-1.497-2.16-3.467-2.061-5.551.185-3.927 3.732-7.123 7.908-7.123h466.581c2.071 0 3.999.827 5.43 2.327 1.426 1.496 2.157 3.462 2.058 5.54-.089 1.889-.938 3.661-2.399 4.997-1.501 1.377-3.458 2.136-5.509 2.136-14.656 0-26.58 11.919-26.58 26.57v3.43h-262.66c-4.142 0-7.5 3.358-7.5 7.5s3.358 7.5 7.5 7.5h270.16c4.142 0 7.5-3.358 7.5-7.5v-10.93c0-6.38 5.195-11.57 11.58-11.57 5.817 0 11.375-2.161 15.641-6.075 4.398-4.022 6.974-9.474 7.25-15.348.296-6.212-1.901-12.107-6.186-16.601-4.227-4.434-10.163-6.976-16.286-6.976h-12v-21.46c0-4.142-3.358-7.5-7.5-7.5s-7.5 3.358-7.5 7.5v21.46h-408v-76.954c18.142-5.043 31.5-21.698 31.5-41.426v-9c0-7.484 2.912-14.514 8.207-19.801 5.279-5.288 12.309-8.199 19.793-8.199 15.439 0 28 12.561 28 28v9c0 11.482 4.474 22.28 12.593 30.399 8.113 8.125 18.912 12.601 30.407 12.601 23.71 0 43-19.29 43-43v-9c0-7.484 2.912-14.514 8.207-19.801 5.279-5.288 12.309-8.199 19.793-8.199 15.439 0 28 12.561 28 28v9c0 11.482 4.474 22.28 12.593 30.399 8.113 8.125 18.912 12.601 30.407 12.601 23.71 0 43-19.29 43-43v-9c0-7.484 2.912-14.514 8.207-19.801 5.279-5.288 12.309-8.199 19.793-8.199 15.439 0 28 12.561 28 28v9c0 11.482 4.474 22.28 12.593 30.399 6.563 6.573 14.883 10.754 23.907 12.113v21.717c.001 4.143 3.359 7.5 7.501 7.5zm-130.284-301.692c-2.813-4.573-3.044-9.703-.649-14.446l20.85-41.29 20.85 41.29c2.395 4.743 2.164 9.873-.65 14.446-2.679 4.354-7.256 7.554-12.7 9.095v-10.922c0-4.142-3.358-7.5-7.5-7.5s-7.5 3.358-7.5 7.5v10.922c-5.445-1.541-10.021-4.741-12.701-9.095zm-2.299 52.959h45v55h-45zm-101.617-52.959c-2.814-4.573-3.045-9.704-.65-14.446l20.85-41.29 20.85 41.29c2.395 4.742 2.164 9.873-.65 14.446-2.68 4.355-7.256 7.554-12.7 9.095v-10.922c0-4.142-3.358-7.5-7.5-7.5s-7.5 3.358-7.5 7.5v10.922c-5.444-1.541-10.021-4.741-12.7-9.095zm-103.917 0c-2.814-4.573-3.045-9.704-.65-14.446l20.85-41.29 20.85 41.29c2.395 4.743 2.164 9.873-.649 14.446-2.679 4.355-7.256 7.554-12.7 9.095v-10.922c0-4.142-3.358-7.5-7.5-7.5s-7.5 3.358-7.5 7.5v10.922c-5.445-1.541-10.022-4.74-12.701-9.095zm101.617 52.959h45v55.004h-45zm-103.917 0h45v55.004h-45z"/><path d="m113.451 353.286c-15.164 0-27.5 12.336-27.5 27.5s12.336 27.5 27.5 27.5 27.5-12.336 27.5-27.5-12.336-27.5-27.5-27.5zm0 40c-6.893 0-12.5-5.607-12.5-12.5s5.607-12.5 12.5-12.5 12.5 5.607 12.5 12.5-5.607 12.5-12.5 12.5z"/><path d="m256 353.286c-15.164 0-27.5 12.336-27.5 27.5s12.336 27.5 27.5 27.5 27.5-12.336 27.5-27.5-12.336-27.5-27.5-27.5zm0 40c-6.893 0-12.5-5.607-12.5-12.5s5.607-12.5 12.5-12.5 12.5 5.607 12.5 12.5-5.607 12.5-12.5 12.5z"/><path d="m398.552 353.286c-15.164 0-27.5 12.336-27.5 27.5s12.336 27.5 27.5 27.5 27.5-12.336 27.5-27.5-12.336-27.5-27.5-27.5zm0 40c-6.893 0-12.5-5.607-12.5-12.5s5.607-12.5 12.5-12.5 12.5 5.607 12.5 12.5-5.607 12.5-12.5 12.5z"/></g></g></svg>