<svg id="Layer_5" enable-background="new 0 0 64 64" height="512" viewBox="0 0 64 64" width="512" xmlns="http://www.w3.org/2000/svg"><g><g><g><path d="m15.31 15.72c-.69 1.44-1.83 2.55-3.29 3.03-.08.03-.17.06-.26.08-3.17.85-6.53-1.52-7.5-5.29-.97-3.78.82-7.52 3.98-8.37 1.21-.32 2.44-.17 3.56.34-.51 1.02-.8 2.21-.8 3.49 0 3.19 1.82 5.87 4.31 6.72z" fill="#ff826e"/></g><g><path d="m25.76 5.17c3.16.85 4.95 4.59 3.98 8.37-.97 3.77-4.33 6.14-7.5 5.29-.09-.02-.18-.05-.26-.08-1.46-.48-2.6-1.59-3.29-3.03 2.49-.85 4.31-3.53 4.31-6.72 0-1.28-.29-2.47-.8-3.49 1.12-.51 2.35-.66 3.56-.34z" fill="#ff826e"/></g><g><path d="m22.2 5.51c.51 1.02.8 2.21.8 3.49 0 3.19-1.82 5.87-4.31 6.72-.54.18-1.1.28-1.69.28s-1.15-.1-1.69-.28c-2.49-.85-4.31-3.53-4.31-6.72 0-1.28.29-2.47.8-3.49 1.04-2.1 2.98-3.51 5.2-3.51s4.16 1.41 5.2 3.51z" fill="#fc6e51"/></g><g><path d="m55.76 5.17c3.16.85 4.95 4.59 3.98 8.37-.97 3.77-4.33 6.14-7.5 5.29-.09-.02-.18-.05-.26-.08-1.46-.48-2.6-1.59-3.29-3.03 2.49-.85 4.31-3.53 4.31-6.72 0-1.28-.29-2.47-.8-3.49 1.12-.51 2.35-.66 3.56-.34z" fill="#fcd770"/></g><g><path d="m48.69 15.72c-.54.18-1.1.28-1.69.28s-1.15-.1-1.69-.28c-2.49-.85-4.31-3.53-4.31-6.72 0-1.28.29-2.47.8-3.49 1.04-2.1 2.98-3.51 5.2-3.51s4.16 1.41 5.2 3.51c.51 1.02.8 2.21.8 3.49 0 3.19-1.82 5.87-4.31 6.72z" fill="#ffc729"/></g><g><path d="m45.31 15.72c-.69 1.44-1.83 2.55-3.29 3.03-.08.03-.17.06-.26.08-3.17.85-6.53-1.52-7.5-5.29-.97-3.78.82-7.52 3.98-8.37 1.21-.32 2.44-.17 3.56.34-.51 1.02-.8 2.21-.8 3.49 0 3.19 1.82 5.87 4.31 6.72z" fill="#fcd770"/></g><g><path d="m9 52.9v9.1h-1l-6-7z" fill="#e6e9ed"/></g><g><path d="m62 55-6 7h-1v-9.1z" fill="#e6e9ed"/></g><g><path d="m48 32h12c.55 0 1.05.22 1.41.59.37.36.59.86.59 1.41 0 1.1-.9 2-2 2h-1.53c-.87 0-1.65.57-1.91 1.4l-4.56 14.6h-40l-4.56-14.6c-.26-.83-1.04-1.4-1.91-1.4h-1.53c-.55 0-1.05-.22-1.41-.59-.37-.36-.59-.86-.59-1.41 0-1.1.9-2 2-2h12 1 1 28 1z" fill="#e6e9ed"/></g><g><path d="m4 36h1.53c.87 0 1.65.57 1.91 1.4l4.56 14.6-3 .9-7 2.1v-21c0 .55.22 1.05.59 1.41.36.37.86.59 1.41.59z" fill="#ccd1d9"/></g><g><path d="m62 34v21l-7-2.1-3-.9 4.56-14.6c.26-.83 1.04-1.4 1.91-1.4h1.53c1.1 0 2-.9 2-2z" fill="#ccd1d9"/></g></g><g><path d="m20 41h-4v-4h-2v10h2v-4h4v4h2v-10h-2z"/><path d="m33 37h-5v10h5c1.654 0 3-1.346 3-3 0-.768-.29-1.469-.766-2 .476-.531.766-1.232.766-2 0-1.654-1.346-3-3-3zm0 8h-3v-2h3c.552 0 1 .449 1 1s-.448 1-1 1zm0-4h-3v-2h3c.552 0 1 .449 1 1s-.448 1-1 1z"/><path d="m45 37h-3v10h3c2.757 0 5-2.243 5-5s-2.243-5-5-5zm0 8h-1v-6h1c1.654 0 3 1.346 3 3s-1.346 3-3 3z"/><path d="m24 45h2v2h-2z"/><path d="m38 45h2v2h-2z"/><path d="m60 31h-10.656l3.322-11.071c.292.043.585.07.88.07 1.128 0 2.265-.312 3.308-.922 1.862-1.088 3.266-3.017 3.851-5.292 1.104-4.294-1-8.591-4.689-9.579-1.106-.296-2.256-.258-3.374.079-1.274-1.987-3.326-3.285-5.642-3.285s-4.367 1.298-5.642 3.285c-1.117-.337-2.266-.375-3.372-.079-3.689.988-5.793 5.285-4.689 9.579.585 2.275 1.988 4.204 3.851 5.292 1.043.61 2.18.922 3.308.922.295 0 .588-.027.88-.07l3.32 11.071h-25.312l3.322-11.071c.292.043.585.07.88.07 1.128 0 2.265-.312 3.308-.922 1.862-1.088 3.266-3.017 3.851-5.292 1.104-4.294-1-8.591-4.689-9.579-1.105-.296-2.255-.258-3.372.079-1.277-1.987-3.328-3.285-5.644-3.285s-4.367 1.298-5.642 3.285c-1.117-.337-2.267-.375-3.373-.079-3.689.988-5.793 5.285-4.689 9.579.585 2.275 1.988 4.204 3.851 5.292 1.043.61 2.18.922 3.308.922.295 0 .588-.027.88-.07l3.321 11.071h-10.656c-1.654 0-3 1.346-3 3v21.37l6.54 7.63h2.46v-9.356l2.147-.644h39.706l2.147.644v9.356h2.46l6.54-7.63v-21.37c0-1.654-1.346-3-3-3zm-9.239-11.684-2.761 9.203v-11.61c.062-.01.124-.02.186-.032.654 1.07 1.535 1.902 2.575 2.439zm-4.947-2.44c.062.012.124.022.186.032v11.611l-2.761-9.203c1.04-.537 1.921-1.369 2.575-2.44zm9.683-10.738c2.636.706 4.102 3.913 3.27 7.149-.453 1.762-1.518 3.243-2.922 4.063-1.081.631-2.238.808-3.342.512-.955-.256-1.778-.852-2.393-1.706 2.301-1.312 3.89-4.023 3.89-7.156 0-1.016-.173-1.986-.477-2.881.662-.15 1.332-.154 1.974.019zm-8.497-3.138c2.757 0 5 2.691 5 6s-2.243 6-5 6-5-2.691-5-6 2.243-6 5-6zm-8.845 14.35c-1.404-.821-2.469-2.302-2.922-4.063-.832-3.236.634-6.443 3.27-7.149.64-.172 1.31-.169 1.974-.019-.304.895-.477 1.865-.477 2.881 0 3.134 1.589 5.845 3.89 7.156-.615.854-1.439 1.45-2.393 1.706-1.103.297-2.261.119-3.342-.512zm-17.394 1.966-2.761 9.203v-11.61c.062-.01.124-.02.186-.032.654 1.07 1.535 1.902 2.575 2.439zm-4.947-2.44c.062.012.124.022.186.032v11.611l-2.761-9.203c1.04-.537 1.921-1.369 2.575-2.44zm9.683-10.738c2.636.706 4.102 3.913 3.27 7.149-.453 1.762-1.518 3.243-2.922 4.063-1.081.631-2.238.808-3.342.512-.955-.256-1.778-.852-2.393-1.706 2.301-1.312 3.89-4.023 3.89-7.156 0-1.016-.173-1.986-.477-2.881.663-.15 1.332-.154 1.974.019zm-8.497-3.138c2.757 0 5 2.691 5 6s-2.243 6-5 6-5-2.691-5-6 2.243-6 5-6zm-8.845 14.35c-1.404-.821-2.469-2.302-2.922-4.063-.832-3.236.634-6.443 3.27-7.149.641-.172 1.31-.169 1.974-.019-.304.895-.477 1.865-.477 2.881 0 3.134 1.589 5.845 3.89 7.156-.615.854-1.439 1.45-2.393 1.706-1.103.297-2.261.119-3.342-.512zm-5.155 19.466c.314.112.648.184 1 .184h1.529c.44 0 .823.282.955.702l4.259 13.631-7.743 2.323zm5 23.647-4.24-4.947 4.24-1.272zm4.735-9.463-4.342-13.895c-.393-1.259-1.544-2.105-2.864-2.105h-1.529c-.552 0-1-.449-1-1s.448-1 1-1h56c.552 0 1 .449 1 1s-.448 1-1 1h-1.529c-1.319 0-2.471.846-2.863 2.105l-4.343 13.895zm40.521.333 4.259-13.632c.132-.419.515-.701.956-.701h1.529c.352 0 .686-.072 1-.184v16.84zm2.744 9.13v-6.219l4.24 1.272z"/></g></g></svg>