<svg id="Capa_1" enable-background="new 0 0 511.996 511.996" height="512" viewBox="0 0 511.996 511.996" width="512" xmlns="http://www.w3.org/2000/svg"><g><g><path d="m392.274 260.006c0-8.855 7.178-16.032 16.032-16.032v-168.339c0-13.282-10.767-24.048-24.048-24.048h-352.71c-13.281 0-24.048 10.767-24.048 24.048v320.645c0 13.282 10.767 18.718 24.048 18.718h352.709c13.282 0 24.048-5.436 24.048-18.718v-120.241c-8.853 0-16.031-7.178-16.031-16.033z" fill="#eceaec"/><path d="m31.548 115.716h-24.048v280.564c0 13.282 10.767 24.048 24.048 24.048h352.709c13.282 0 24.048-10.767 24.048-24.048h-368.741c-4.427 0-8.016-3.589-8.016-8.016z" fill="#dad8db"/><path d="m384.258 51.587h-352.71c-13.281 0-24.048 10.767-24.048 24.048v40.081h400.806v-40.081c0-13.281-10.767-24.048-24.048-24.048z" fill="#ffe07d"/><path d="m63.613 83.651c-8.854 0-16.032-7.178-16.032-16.032v-32.064c0-8.854 7.178-16.032 16.032-16.032 8.854 0 16.032 7.178 16.032 16.032v32.065c0 8.854-7.178 16.031-16.032 16.031z" fill="#eceaec"/><path d="m63.613 83.652c-8.854 0-16.032-7.178-16.032-16.032v-16.033h32.064v16.032c0 8.855-7.178 16.033-16.032 16.033z" fill="#dad8db"/><path d="m352.193 83.651c-8.854 0-16.032-7.178-16.032-16.032v-32.064c0-8.854 7.178-16.032 16.032-16.032 8.854 0 16.032 7.178 16.032 16.032v32.065c.001 8.854-7.177 16.031-16.032 16.031z" fill="#eceaec"/><path d="m352.193 83.652c-8.854 0-16.032-7.178-16.032-16.032v-16.033h32.064v16.032c.001 8.855-7.177 16.033-16.032 16.033z" fill="#dad8db"/><path d="m31.548 75.635v-24.048c-13.281 0-24.048 10.767-24.048 24.048v40.081h400.806v-24.048h-360.725c-8.855 0-16.033-7.178-16.033-16.033z" fill="#ffd064"/><circle cx="408.306" cy="460.409" fill="#ffc250" r="32.064"/><circle cx="207.903" cy="268.022" fill="#fff" r="112.226"/><circle cx="207.903" cy="268.022" fill="#eceaec" r="88.177"/><circle cx="207.903" cy="268.022" fill="#fff" r="40.081"/><path d="m487.609 428.345c-8.38 0-15.174-6.794-15.174-15.174v-48.955c0-35.417-28.711-64.129-64.129-64.129-35.417 0-64.129 28.711-64.129 64.129v48.955c0 8.38-6.794 15.174-15.174 15.174-7.986 0-15.388 5.457-16.671 13.34-1.634 10.044 6.076 18.725 15.813 18.725h160.323c9.737 0 17.447-8.681 15.813-18.725-1.283-7.883-8.685-13.34-16.672-13.34z" fill="#ffe07d"/><path d="m502.3 435.798h-102.01c-13.282 0-24.048-10.767-24.048-24.048v-103.014c-19.15 11.093-32.065 31.757-32.065 55.48v48.955c0 8.339-6.715 15.232-15.053 15.175-8.032-.055-15.503 5.417-16.792 13.339-1.634 10.045 6.077 18.725 15.813 18.725h160.323c9.736 0 17.447-8.681 15.813-18.725-.316-1.938-1.008-4.287-1.981-5.887z" fill="#ffd064"/></g><g><path d="m207.903 148.297c-66.017 0-119.726 53.709-119.726 119.726s53.709 119.726 119.726 119.726 119.726-53.709 119.726-119.726-53.709-119.726-119.726-119.726zm0 224.451c-57.746 0-104.726-46.98-104.726-104.726s46.98-104.726 104.726-104.726 104.726 46.98 104.726 104.726-46.98 104.726-104.726 104.726z"/><path d="m287.164 241.602c-1.311-3.93-5.558-6.054-9.487-4.744l-50.996 16.999c-4.3-5.686-11.116-9.367-18.777-9.367-3.757 0-7.309.89-10.463 2.463l-40.346-40.346c-2.929-2.929-7.678-2.929-10.606 0-2.929 2.929-2.929 7.677 0 10.606l40.346 40.346c-1.573 3.154-2.463 6.706-2.463 10.463 0 12.976 10.557 23.532 23.532 23.532 12.955 0 23.497-10.523 23.531-23.47l50.986-16.995c3.929-1.31 6.052-5.557 4.743-9.487zm-79.261 34.953c-4.705 0-8.532-3.828-8.532-8.532s3.828-8.532 8.532-8.532 8.532 3.828 8.532 8.532-3.827 8.532-8.532 8.532z"/><path d="m280.048 412.829h-248.5c-9.125 0-16.548-7.424-16.548-16.548v-273.065h385.807v88.694c0 4.142 3.358 7.5 7.5 7.5s7.5-3.358 7.5-7.5v-136.275c0-17.396-14.152-31.549-31.548-31.549h-8.533v-8.532c0-12.976-10.557-23.532-23.532-23.532s-23.532 10.556-23.532 23.532v8.532h-216.953c-4.142 0-7.5 3.358-7.5 7.5s3.358 7.5 7.5 7.5h216.952v8.532c0 12.976 10.557 23.532 23.532 23.532s23.532-10.556 23.532-23.532v-8.532h8.533c9.125 0 16.548 7.424 16.548 16.549v32.581h-385.806v-32.581c0-9.125 7.423-16.549 16.548-16.549h8.532v8.532c0 12.976 10.557 23.532 23.532 23.532s23.532-10.556 23.532-23.532v-32.063c0-12.976-10.557-23.532-23.532-23.532s-23.531 10.556-23.531 23.532v8.532h-8.532c-17.397 0-31.549 14.152-31.549 31.548v320.645c0 17.396 14.152 31.548 31.548 31.548h248.5c4.142 0 7.5-3.358 7.5-7.5s-3.358-7.499-7.5-7.499zm72.145-336.678c-4.705 0-8.532-3.828-8.532-8.532v-32.064c0-4.705 3.828-8.532 8.532-8.532s8.532 3.828 8.532 8.532v32.065c.001 4.704-3.827 8.531-8.532 8.531zm-297.112-40.596c0-4.705 3.828-8.532 8.532-8.532s8.532 3.828 8.532 8.532v32.065c0 4.705-3.828 8.532-8.532 8.532s-8.532-3.828-8.532-8.532z"/><path d="m511.684 440.48c-1.822-11.194-12.171-19.635-24.074-19.635-4.231 0-7.674-3.443-7.674-7.674v-48.955c0-36.963-28.145-67.473-64.129-71.235v-10.675c9.308-3.139 16.032-11.946 16.032-22.3 0-12.976-10.557-23.532-23.532-23.532s-23.532 10.557-23.532 23.532c0 10.354 6.724 19.16 16.032 22.3v10.675c-35.984 3.761-64.129 34.271-64.129 71.235v48.955c0 4.231-3.442 7.674-7.674 7.674-11.903 0-22.253 8.441-24.074 19.635-1.122 6.894.804 13.869 5.284 19.137 4.482 5.27 11.018 8.292 17.932 8.292h41.319c3.516 18.24 19.591 32.064 38.843 32.064 19.251 0 35.327-13.824 38.842-32.064h41.319c6.914 0 13.449-3.022 17.931-8.292 4.479-5.267 6.405-12.242 5.284-19.137zm-103.377-189.006c4.705 0 8.532 3.828 8.532 8.532 0 4.705-3.828 8.532-8.532 8.532s-8.532-3.828-8.532-8.532c-.001-4.704 3.827-8.532 8.532-8.532zm0 233.5c-10.93 0-20.212-7.177-23.39-17.064h46.779c-3.178 9.887-12.46 17.064-23.389 17.064zm86.666-35.075c-1.627 1.913-3.998 3.01-6.505 3.01h-160.323c-2.507 0-4.878-1.097-6.505-3.01-1.648-1.938-2.325-4.428-1.905-7.01.643-3.95 4.713-7.044 9.268-7.044 12.502 0 22.674-10.172 22.674-22.674v-48.955c0-31.225 25.404-56.629 56.629-56.629s56.629 25.404 56.629 56.629v48.955c0 12.502 10.172 22.674 22.674 22.674 4.554 0 8.625 3.094 9.268 7.044.421 2.582-.255 5.072-1.904 7.01z"/></g></g></svg>