<svg id="Capa_1" enable-background="new 0 0 511.986 511.986" height="512" viewBox="0 0 511.986 511.986" width="512" xmlns="http://www.w3.org/2000/svg"><g><g><path d="m268.995 148.239c-6.081-9.766-20.296-9.766-26.376 0l-214.098 343.851h227.286 227.286z" fill="#f4dd45"/><path d="m255.807 140.915c-5.074 0-10.148 2.441-13.188 7.324l-214.098 343.851h40.562l186.724-299.887z" fill="#fcc101"/><path d="m307.066 305.905h-53.259v186.185h69.614v-169.831c0-8.995-7.36-16.354-16.355-16.354z" fill="#f87c68"/><path d="m363.592 61.591c1.009-2.857-1.947-5.467-4.637-4.073-19.599 10.159-32.778 30.98-31.833 54.791 1.214 30.588 26.116 55.418 56.707 56.55 20.696.766 39.114-9.14 50.216-24.645 1.734-2.422-.405-5.728-3.326-5.147-44.879 8.916-82.254-34.665-67.127-77.476z" fill="#f4dd45"/><path d="m399.829 154.815c-30.591-1.132-55.493-25.962-56.707-56.55-.585-14.748 4.252-28.345 12.673-38.976-17.838 10.685-29.566 30.514-28.673 53.019 1.214 30.588 26.116 55.418 56.707 56.55 19.652.727 37.245-8.172 48.475-22.345-9.435 5.65-20.577 8.743-32.475 8.302z" fill="#fcc101"/><path d="m204.548 305.905c-8.995 0-16.355 7.36-16.355 16.355v169.83h67.614v-186.185z" fill="#ec625e"/><path d="m236.355 305.905h-31.807c-8.995 0-16.355 7.36-16.355 16.355v169.83h31.807v-169.831c0-8.995 7.36-16.354 16.355-16.354z" fill="#df4854"/></g><g><path d="m2.967 465.514c1.355 1.028 2.948 1.524 4.527 1.524.911 0 1.815-.173 2.67-.497l7.571 18.752c-3.023.968-5.212 3.798-5.212 7.142 0 4.143 3.357 7.5 7.5 7.5h471.94c4.143 0 7.5-3.357 7.5-7.5 0-3.345-2.19-6.175-5.213-7.142l7.571-18.752c.855.324 1.759.497 2.671.497 1.579 0 3.172-.497 4.527-1.524 3.3-2.504 3.945-7.209 1.442-10.509l-2.625-3.46c1.091-3.664-.764-7.625-4.381-9.085-.96-.388-1.953-.563-2.926-.547l-222.437-293.208c-2.828-4.541-5.921-10.731-14.6-13.699v-7.603-28.086c0-4.142-3.357-7.5-7.5-7.5s-7.5 3.358-7.5 7.5v28.086 7.604c-8.575 2.933-11.659 8.978-14.598 13.698l-222.437 293.209c-.974-.016-1.966.159-2.926.546-3.617 1.46-5.472 5.422-4.381 9.086l-2.625 3.459c-2.503 3.3-1.858 8.005 1.442 10.509zm245.526-166.764h-43.759c-13.153 0-23.854 10.701-23.854 23.854v162.331h-138.668l206.28-331.295c.001 2.032.001 123.156.001 145.11zm-52.614 23.854c0-4.883 3.972-8.854 8.854-8.854h43.759v171.186h-52.613zm135.228 162.331v-63.061c0-4.143-3.357-7.5-7.5-7.5s-7.5 3.357-7.5 7.5v63.061h-52.614v-171.185h43.76c4.883 0 8.854 3.972 8.854 8.854v64.271c0 4.143 3.357 7.5 7.5 7.5s7.5-3.357 7.5-7.5v-64.271c0-13.153-10.701-23.854-23.854-23.854h-43.76c0-5.231 0-136.058 0-145.111l206.281 331.297h-138.667zm159.658-31.073-8.917 22.085-117.544-188.781zm-460.626 22.086-8.917-22.087 126.462-166.698z"/><path d="m436.468 57.934c-4.143 0-7.5 3.358-7.5 7.5v1.47h-1.47c-4.143 0-7.5 3.358-7.5 7.5s3.357 7.5 7.5 7.5h1.47v1.47c0 4.142 3.357 7.5 7.5 7.5s7.5-3.358 7.5-7.5v-1.47h1.47c4.143 0 7.5-3.358 7.5-7.5s-3.357-7.5-7.5-7.5h-1.47v-1.47c0-4.142-3.357-7.5-7.5-7.5z"/><path d="m401.71 12.051c-4.143 0-7.5 3.358-7.5 7.5v5.782h-5.782c-4.143 0-7.5 3.358-7.5 7.5s3.357 7.5 7.5 7.5h5.782v5.782c0 4.142 3.357 7.5 7.5 7.5s7.5-3.358 7.5-7.5v-5.782h5.782c4.143 0 7.5-3.358 7.5-7.5s-3.357-7.5-7.5-7.5h-5.782v-5.782c0-4.142-3.357-7.5-7.5-7.5z"/><path d="m355.69 51.204c-22.813 11.825-36.896 36.062-35.876 61.747 1.368 34.471 29.446 62.472 63.924 63.747 22.275.836 43.493-9.482 56.59-27.772 5.68-7.931-1.306-18.779-10.884-16.871-12.356 2.456-24.556.506-35.286-5.631-3.597-2.058-8.178-.809-10.234 2.787-2.056 3.595-.809 8.177 2.787 10.234 10.653 6.094 22.407 9.001 34.487 8.616-9.907 9.17-23.098 14.166-36.905 13.648-26.692-.987-48.432-22.666-49.49-49.352-.65-16.372 6.618-31.983 19.059-42.104-2.414 13.734-.427 27.787 5.863 40.498 1.836 3.712 6.334 5.232 10.048 3.396 3.713-1.837 5.233-6.336 3.396-10.048-6.145-12.417-6.968-26.503-2.318-39.662 3.268-9.25-6.445-17.754-15.161-13.233z"/></g></g></svg>