<svg height="512pt" viewBox="-83 0 512 512" width="512pt" xmlns="http://www.w3.org/2000/svg"><path d="m302.664062 282.496094-91.804687-35.554688-38.3125 42.296875-38.117187-42.410156-92 35.664063s-34.9375 14.363281-34.9375 54.191406l.003906 156.246094c0 6.429687 5.210937 11.644531 11.640625 11.644531h306.824219c6.425781 0 11.640624-5.214844 11.640624-11.644531 0-31.898438 0-120.152344 0-156.246094 0-39.824219-34.9375-54.1875-34.9375-54.1875zm0 0" fill="#e4eaf8"/><path d="m42.910156 492.933594v-178.457032c0-16.558593 6.042969-28.695312 13.101563-37.246093l-13.582031 5.265625s-34.9375 14.363281-34.9375 54.191406v156.246094c0 6.425781 5.214843 11.640625 11.640624 11.640625h35.417969c-6.429687 0-11.640625-5.214844-11.640625-11.640625zm0 0" fill="#d8dce5"/><path d="m210.859375 246.941406-2.65625-1.027344v-32.601562c-10.113281 6.980469-22.359375 11.074219-35.550781 11.074219-13.808594 0-25.941406-3.789063-35.863282-10.128907v31.652344l-2.359374.917969 38.117187 42.410156zm0 0" fill="#f0a479"/><path d="m182.527344 223.609375c-3.21875.511719-6.515625.78125-9.875.78125-13.804688 0-25.9375-3.789063-35.859375-10.128906v31.652343l-2.363281.914063 38.117187 42.414063 9.976563-11.019532v-54.613281zm0 0" fill="#e5966e"/><path d="m206.632812 467.582031-22.515624-146.289062c-5.101563 0-18.128907 0-23.1875 0l-22.46875 146.289062c-.476563 2.742188.53125 5.546875 2.515624 7l28.132813 28.832031c2.113281 1.546876 4.765625 1.546876 6.875 0l28.136719-28.832031c1.980468-1.453125 2.988281-4.257812 2.511718-7zm0 0" fill="#f25c5c"/><path d="m164.34375 474.582031c-1.984375-1.453125-2.992188-4.257812-2.515625-7l22.378906-145.699219-.089843-.589843c-5.101563 0-18.128907 0-23.1875 0l-22.46875 146.289062c-.476563 2.742188.53125 5.546875 2.515624 7l28.132813 28.828125c2.113281 1.550782 4.765625 1.550782 6.875 0l8.246094-8.449218zm0 0" fill="#e54a4a"/><path d="m195.914062 301.769531-23.367187-16.5625-23.367187 16.5625 11.746093 19.691407h23.246094zm0 0" fill="#e54a4a"/><path d="m178.429688 297.601562 5.800781-4.113281-11.683594-8.28125-23.367187 16.5625 11.746093 19.691407h23.246094l.058594-.101563-7.988281-13.394531c-2.085938-3.5-1.132813-8.011719 2.1875-10.363282zm0 0" fill="#d83f3f"/><path d="m136.792969 245.914062-28.695313 11.125 31.25 45.4375c2.449219 3.070313 7.015625 3.355469 9.832032.617188l23.367187-17.882812zm0 0" fill="#d8dce5"/><path d="m208.300781 245.914062 28.695313 11.125-31.25 45.4375c-2.449219 3.070313-7.015625 3.355469-9.832032.617188l-23.367187-17.882812zm0 0" fill="#d8dce5"/><path d="m284.910156 119.9375c0 62.054688-50.308594 112.359375-112.363281 112.359375s-112.359375-50.304687-112.359375-112.359375c0-62.058594 50.304688-112.363281 112.359375-112.363281s112.363281 50.304687 112.363281 112.363281zm0 0" fill="#e4eaf8"/><path d="m95.1875 119.9375c0-56.105469 41.117188-102.597656 94.859375-111.003906-5.703125-.890625-11.546875-1.359375-17.5-1.359375-62.054687 0-112.359375 50.304687-112.359375 112.363281 0 62.054688 50.304688 112.359375 112.359375 112.359375 5.953125 0 11.796875-.464844 17.5-1.359375-53.742187-8.402344-94.859375-54.898438-94.859375-111zm0 0" fill="#d8dce5"/><path d="m194.871094 117.445312c-11.773438 9.203126-11.988282 15.625-11.988282 26.757813 0 4.066406-2.140624 8.773437-12.628906 8.773437-8.777344 0-11.773437-3.207031-11.773437-14.339843 0-37.761719 33.390625-35.394531 33.390625-56.726563 0-9.847656-8.5625-14.554687-19.261719-14.554687-21.835937 0-17.125 16.484375-28.6875 16.484375-5.777344 0-12.84375-3.855469-12.84375-12.203125 0-11.558594 13.273437-28.683594 42.171875-28.683594 44.421875 0 65.132812 40.648437 21.621094 74.492187zm0 0" fill="#f25c5c"/><path d="m186.949219 184.230469c0 8.777343-7.277344 16.484375-16.480469 16.484375s-16.269531-7.707032-16.269531-16.484375c0-8.988281 7.28125-16.480469 16.269531-16.480469s16.480469 7.492188 16.480469 16.480469zm0 0" fill="#f25c5c"/><g fill="#e54a4a"><path d="m170.253906 152.976562c6.21875 0 9.492188-1.660156 11.132813-3.855468-1.394531-2.230469-1.972657-5.59375-1.972657-10.484375 0-37.761719 33.394532-35.390625 33.394532-56.726563 0-9.84375-8.5625-14.554687-19.265625-14.554687-4.542969 0-7.921875.71875-10.550781 1.847656 5.351562 2.203125 8.882812 6.394531 8.882812 12.707031 0 21.332032-33.394531 18.964844-33.394531 56.726563 0 11.132812 2.996093 14.339843 11.773437 14.339843zm0 0"/><path d="m152.015625 71.636719c0-10.066407 10.066406-24.34375 31.75-27.867188-3.328125-.53125-6.839844-.816406-10.515625-.816406-28.898438 0-42.167969 17.125-42.167969 28.683594 0 8.351562 7.0625 12.203125 12.84375 12.203125 5.019531 0 6.972657-3.109375 9.363281-6.628906-.796874-1.570313-1.273437-3.417969-1.273437-5.574219zm0 0"/><path d="m175.132812 184.230469c0-5.023438 2.273438-9.574219 5.84375-12.613281-2.867187-2.40625-6.539062-3.867188-10.507812-3.867188-8.992188 0-16.269531 7.492188-16.269531 16.480469 0 8.777343 7.0625 16.484375 16.269531 16.484375 4.019531 0 7.667969-1.472656 10.507812-3.859375-3.601562-3.078125-5.84375-7.679688-5.84375-12.625zm0 0"/></g><path d="m146.707031 184.15625c0 13.226562 10.664063 23.984375 23.769531 23.984375 13.222657 0 23.980469-10.757813 23.980469-23.984375 0-12.378906-9.429687-22.597656-21.484375-23.851562 12.777344-.96875 17.417969-8.808594 17.417969-16.175782 0-10.269531 0-13.730468 9.09375-20.839844 41.445313-32.238281 31.066406-72.949218-4.660156-84.640624-3.9375-1.289063-8.175781.859374-9.460938 4.796874-1.289062 3.9375.859375 8.171876 4.796875 9.457032 25.640625 8.394531 30.75 34.71875.097656 58.558594-13.863281 10.839843-14.867187 19.574218-14.867187 32.667968 0 .207032-.015625.347656-.027344.433594-1.734375 1.046875-7.191406 1.027344-8.578125.445312-.179687-.339843-.796875-1.832031-.796875-6.445312 0-34.207031 33.394531-29.574219 33.394531-56.726562 0-13.191407-10.753906-22.054688-26.765624-22.054688-16.613282 0-22.328126 8.429688-25.746094 13.464844-2.042969 3.015625-2.199219 3.015625-2.9375 3.015625-10.570313 0-5.3125-18.605469 15.496094-24.175781 4.003906-1.070313 6.378906-5.183594 5.308593-9.1875-1.074219-4-5.191406-6.375-9.1875-5.304688-21.957031 5.878906-31.960937 21.726562-31.960937 33.964844 0 12.796875 10.480468 19.703125 20.34375 19.703125 8.84375 0 12.761718-5.777344 15.355468-9.597657 2.8125-4.144531 4.667969-6.882812 13.328126-6.882812 4.394531 0 11.765624.914062 11.765624 7.054688 0 14.5-33.394531 16.589843-33.394531 56.726562 0 8.929688 1.824219 20.660156 16.9375 21.75-11.914062 1.292969-21.21875 11.492188-21.21875 23.84375zm23.769531-8.980469c4.867188 0 8.980469 4.113281 8.980469 8.980469 0 4.871094-4.113281 8.984375-8.980469 8.984375-4.753906 0-8.769531-4.113281-8.769531-8.984375 0-4.867188 4.015625-8.980469 8.769531-8.980469zm0 0"/><path d="m39.726562 275.425781c-.046874.019531-.09375.039063-.140624.058594-1.617188.664063-39.585938 16.785156-39.585938 61.128906v156.242188c0 10.558593 8.585938 19.144531 19.140625 19.144531h306.824219c10.558594 0 19.144531-8.585938 19.144531-19.144531v-77.320313c0-4.144531-3.355469-7.5-7.5-7.5s-7.5 3.355469-7.5 7.5v77.320313c0 2.285156-1.859375 4.144531-4.144531 4.144531h-40.316406v-113.859375c0-4.144531-3.355469-7.5-7.5-7.5-4.144532 0-7.5 3.355469-7.5 7.5v113.859375h-77.988282l16.492188-16.902344c3.875-3.199218 5.78125-8.515625 4.890625-13.789062l-22.082031-143.667969c1.378906-2.234375 4-6.230469 6.769531-10.371094 5.535156.722657 10.667969-1.9375 13.203125-5.617187l27.875-40.535156 60.058594 23.261718c1.34375.578125 30.242187 13.460938 30.242187 47.234375v43.917969c0 4.144531 3.355469 7.5 7.5 7.5s7.5-3.355469 7.5-7.5v-43.917969c0-44.34375-37.96875-60.464843-39.585937-61.128906-.046876-.019531-.09375-.039063-.144532-.058594-43.535156-16.859375-85.496094-33.144531-89.667968-34.761719v-8.980468c44.832031-17.363282 76.707031-60.9375 76.707031-111.820313 0-66.09375-53.773438-119.863281-119.863281-119.863281-66.09375 0-119.863282 53.769531-119.863282 119.863281 0 50.847657 31.828125 94.394531 76.609375 111.78125v9.058594zm140.015626 38.460938h-14.378907c-1.753906-2.796875-4.191406-6.476563-6.011719-9.203125 7.136719-5.460938 4.074219-3.117188 13.203126-10.105469l13.203124 10.105469c-1.816406 2.71875-4.285156 6.449218-6.015624 9.203125zm-35.007813-16.90625-25.070313-36.453125 15.050782-5.835938 26.796875 29.449219c-2.378907 1.820313-14.546875 11.132813-16.777344 12.839844zm-70.273437 200.019531v-113.859375c0-4.144531-3.355469-7.5-7.5-7.5-4.140626 0-7.5 3.355469-7.5 7.5v113.859375h-40.320313c-2.28125 0-4.140625-1.859375-4.140625-4.144531v-156.242188c0-33.769531 28.492188-46.488281 30.246094-47.234375l60.042968-23.277344 27.886719 40.550782c2.550781 3.699218 7.6875 6.339844 13.203125 5.617187 2.769532 4.140625 5.386719 8.136719 6.769532 10.371094l-22.082032 143.667969c-.886718 5.273437 1.019532 10.589844 4.890625 13.789062l16.492188 16.902344zm124.789062-28.203125c0 .003906 0 .007813.003906.011719-.175781.144531-.335937.300781-.496094.460937l-26.203124 26.851563-26.203126-26.851563c-.15625-.160156-.320312-.316406-.492187-.460937 0-.007813 0-.011719 0-.015625.007813-.046875.015625-.097657.023437-.144531l21.484376-139.761719h10.375l21.484374 139.761719c.007813.046874.015626.097656.023438.148437zm1.128906-171.816406-16.78125-12.839844 26.773438-29.421875 15.0625 5.832031zm-132.6875-177.117188c0-57.820312 47.042969-104.863281 104.863282-104.863281 57.820312 0 104.859374 47.042969 104.859374 104.863281 0 64.972657-58.953124 114.847657-123.542968 103.191407-48.9375-8.835938-86.179688-51.746094-86.179688-103.191407zm104.863282 119.859375c9.277343 0 19.003906-1.121094 28.15625-3.332031v6.65625l-28.15625 30.945313-28.257813-31.054688v-6.570312c9.09375 2.207031 18.78125 3.355468 28.257813 3.355468zm0 0"/></svg>