<svg id="Capa_1" enable-background="new 0 0 511.276 511.276" height="512" viewBox="0 0 511.276 511.276" width="512" xmlns="http://www.w3.org/2000/svg"><g><g><path d="m255.638 36.213-27.545 54.547c-8.475 16.783 6.03 35.453 27.545 35.453 21.514 0 36.02-18.67 27.545-35.453z" fill="#fee97d"/><path d="m225.638 154.047h60v70h-60z" fill="#f07281"/><path d="m225.638 154.048h30v70h-30z" fill="#eb5569"/><path d="m374.723 503.774h-238.17l-30.915-115.712h300z" fill="#fcd1e8"/><path d="m176.558 503.778h-40l-30.92-115.72h40z" fill="#f6c2e0"/><path d="m255.638 503.774v-115.712h-75.227l10.305 115.712z" fill="#f07281"/><path d="m330.865 388.062-10.305 115.712h54.163l30.915-115.712z" fill="#f07281"/><path d="m306.454 224.047h-101.632c-54.778 0-99.184 44.406-99.184 99.184h300c0-54.778-44.406-99.184-99.184-99.184z" fill="#fbc56d"/><path d="m254.818 224.048c-54.77 0-99.18 44.4-99.18 99.18h-50c0-54.78 44.41-99.18 99.18-99.18z" fill="#e9b665"/><path d="m396.222 388.062h-281.168c-17.903 0-32.416-14.513-32.416-32.416 0-17.903 14.513-32.416 32.416-32.416h281.169c17.903 0 32.416 14.513 32.416 32.416-.001 17.903-14.514 32.416-32.417 32.416z" fill="#dc8758"/><path d="m165.058 388.058h-50c-17.91 0-32.42-14.51-32.42-32.41 0-8.95 3.63-17.05 9.49-22.92 5.87-5.87 13.97-9.5 22.93-9.5h50c-8.96 0-17.06 3.63-22.93 9.5-5.86 5.87-9.49 13.97-9.49 22.92 0 17.9 14.51 32.41 32.42 32.41z" fill="#c86d36"/></g><g><path d="m333.046 79.486c1.464 1.464 3.384 2.197 5.303 2.197s3.839-.732 5.303-2.197c2.929-2.929 2.929-7.678 0-10.606l-13.67-13.67c-2.929-2.929-7.678-2.929-10.606 0-2.929 2.929-2.929 7.678 0 10.606z"/><path d="m172.927 81.683c1.919 0 3.839-.732 5.303-2.197l13.67-13.67c2.929-2.929 2.929-7.678 0-10.606-2.929-2.929-7.678-2.929-10.606 0l-13.67 13.67c-2.929 2.929-2.929 7.678 0 10.606 1.464 1.464 3.384 2.197 5.303 2.197z"/><path d="m324.679 28.67c1.919 0 3.839-.732 5.303-2.197l13.67-13.67c2.929-2.929 2.929-7.678 0-10.606-2.929-2.929-7.678-2.929-10.606 0l-13.67 13.67c-2.929 2.929-2.929 7.678 0 10.606 1.464 1.465 3.383 2.197 5.303 2.197z"/><path d="m181.294 26.473c1.464 1.464 3.384 2.197 5.303 2.197s3.839-.732 5.303-2.197c2.929-2.929 2.929-7.678 0-10.606l-13.67-13.67c-2.929-2.929-7.678-2.929-10.606 0-2.929 2.929-2.929 7.678 0 10.606z"/><path d="m436.138 355.646c0-15.993-9.458-29.812-23.071-36.178-.601-17.061-5.279-33.775-13.629-48.56-2.036-3.606-6.612-4.878-10.218-2.842-3.607 2.037-4.879 6.612-2.842 10.218 6.477 11.469 10.372 24.298 11.445 37.483-.533-.021-1.067-.041-1.605-.041h-154.24c-4.142 0-7.5 3.358-7.5 7.5s3.358 7.5 7.5 7.5h154.24c13.741 0 24.92 11.179 24.92 24.92 0 6.649-2.592 12.908-7.289 17.613-4.714 4.706-10.975 7.297-17.631 7.297h-281.16c-13.741 0-24.92-11.175-24.92-24.91 0-6.649 2.592-12.907 7.293-17.617 4.709-4.709 10.97-7.303 17.626-7.303h94.24c4.142 0 7.5-3.358 7.5-7.5s-3.358-7.5-7.5-7.5h-94.24c-.54 0-1.078.018-1.615.039 3.81-47.076 43.334-84.219 91.375-84.219h101.64c19.111 0 37.411 5.815 52.921 16.817 3.378 2.396 8.061 1.601 10.457-1.778s1.601-8.06-1.778-10.457c-18.061-12.811-39.362-19.583-61.6-19.583h-13.32v-62.501c0-4.142-3.358-7.5-7.5-7.5h-22.5v-13.499c10.753-1.922 20.135-7.919 25.476-16.599 5.565-9.044 6.025-19.639 1.264-29.069l-27.544-54.547c-1.276-2.526-3.865-4.119-6.695-4.119s-5.419 1.593-6.695 4.119l-27.545 54.548c-4.761 9.429-4.301 20.024 1.264 29.068 5.341 8.68 14.723 14.677 25.476 16.599v13.499h-22.5c-4.142 0-7.5 3.358-7.5 7.5v62.501h-13.32c-57.555 0-104.603 45.816-106.606 102.891-4.18 1.948-8.032 4.63-11.392 7.99-7.534 7.546-11.683 17.568-11.683 28.219 0 16.286 9.813 30.316 23.833 36.514l10.711 40.092c.896 3.354 3.928 5.566 7.241 5.566.641 0 1.292-.083 1.94-.256 4.002-1.069 6.379-5.18 5.311-9.182l-8.769-32.825h58.144l8.97 100.72h-40.201l-9.404-35.206c-1.069-4.002-5.179-6.378-9.182-5.311-4.002 1.069-6.379 5.18-5.311 9.182l10.89 40.77c.877 3.282 3.849 5.564 7.246 5.564h238.16c3.396 0 6.369-2.283 7.246-5.564l30.334-113.527c4.473-1.968 8.593-4.761 12.158-8.32 7.535-7.543 11.684-17.565 11.684-28.216zm-200.7-247.06c-2.814-4.573-3.045-9.704-.65-14.446l20.85-41.29 20.85 41.289c2.395 4.743 2.164 9.874-.65 14.447-2.679 4.354-7.256 7.554-12.7 9.095v-10.922c0-4.142-3.358-7.5-7.5-7.5s-7.5 3.358-7.5 7.5v10.922c-5.444-1.542-10.021-4.741-12.7-9.095zm-2.3 52.959h45v55h-45zm30 334.731v-100.72h59.53l-8.97 100.72zm-74.53-100.72h59.53v100.72h-50.56zm180.351 100.72h-40.202l8.97-100.72h58.144z"/></g></g></svg>