<svg id="Capa_1" enable-background="new 0 0 512 512" height="512" viewBox="0 0 512 512" width="512" xmlns="http://www.w3.org/2000/svg"><path d="m352.2 320.262s37.241-32.683 89.783-11.4l-70.525 35.661-13.417-2.477z" fill="#da4a54"/><circle cx="475.69" cy="475.682" fill="#665e66" r="28.81"/><circle cx="322.722" cy="475.682" fill="#665e66" r="28.81"/><path d="m279.469 282.394s46.845-2.831 46.845 19.93c0 22.762-27.714 19.081-45.188 1.607" fill="#f1d0a5"/><path d="m196.018 259.918c40.387 13.86 83.451 22.475 83.451 22.475l1.657 21.537c-25.513 15.352-93.774 8.124-93.774 8.124s14.805 23.574 18.002 55.235l1.308 16.375s4.97 56.671-10.934 97.426h-49.701s12.463-57.778-12.238-82.48c-24.701 24.701-12.238 82.48-12.238 82.48h-49.701c-15.904-40.755-10.934-97.426-10.934-97.426h-32.068c0-89.667 36.407-119.283 42.714-123.745" fill="#b9e4ef"/><path d="m195.732 481.087h-49.7s12.455-57.771-12.246-82.481c-24.7 24.71-12.236 82.481-12.236 82.481h-49.7c-15.902-40.752-10.93-97.427-10.93-97.427 0-5.61.528-11.189 1.305-16.371h143.131l1.305 16.371c.001 0 4.973 56.674-10.929 97.427z" fill="#665e66"/><path d="m60.487 413.541s-23.557 7.02-31.639-1.062 0-28.815 0-28.815l40.02-16.377z" fill="#f1d0a5"/><path d="m88.568 259.918c-14.816 19.998-41.808 64.646-41.101 123.742h-18.622c0-89.665 36.408-119.278 42.715-123.741h17.008z" fill="#7ad0df"/><path d="m86.555 481.087h-14.716c-15.902-40.752-10.93-97.427-10.93-97.427 0-5.61.528-11.189 1.305-16.371h23.585c-5.003 18.712-11.19 57.561.756 113.798z" fill="#454045"/><path d="m158.993 481.087h-12.973s12.465-57.771-12.236-82.481c25.209 0 38.172 43.402 25.209 82.481z" fill="#454045"/><path d="m149.802 290.129h-32.026l-5.669-38.456h43.365z" fill="#da4a54"/><path d="m237.382 189.307h.145c12.457 0 22.551-10.102 22.551-22.551 0-12.457-10.094-22.56-22.551-22.56-.162 0-.324 0-.486.009h-206.503c-.162-.009-.324-.009-.486-.009-12.457 0-22.551 10.102-22.551 22.56 0 12.449 10.094 22.551 22.551 22.551h.145" fill="#f1b986"/><path d="m247.517 146.534-153.172.656-76.061.32c-5.798-52.941-22.627-121.694 39.204-133.948 14.845-2.944 28.213-4.691 40.228-5.511 80.482-5.462 100.502 30.879 100.502 30.879s14.566-12.794 30.403-11.49c5.725.467 11.622 2.789 17.051 8.218 28.64 28.639 1.845 110.876 1.845 110.876z" fill="#aa593d"/><path d="m228.621 27.439c-18.814 12.926-31.125 51.604-36.825 73.65-5.577-22.456 1.238-47.175 6.422-62.159 0 0 14.566-12.795 30.403-11.491z" fill="#934d36"/><path d="m85.865 90.132 8.48 57.058-76.061.32c-5.798-52.941-22.627-121.694 39.204-133.948 14.845-2.944 28.213-4.691 40.228-5.511 0 .008-.008.008-.008.008-30.961 19.044-21.398 52.966-11.843 82.073z" fill="#934d36"/><path d="m237.602 172.04c0 11.876-.303 23.76-.91 35.636-1.517 29.69-25.277 53.326-54.983 54.729-20.766.984-41.541 1.32-62.307 1.025h-.008c-11.179-.156-22.349-.5-33.528-1.025-29.698-1.402-53.458-25.039-54.983-54.729-1.083-21.16-1.197-42.312-.353-63.472h.008c11.581-4.289 18.47-17.625 22.562-32.453 4.199-15.214 18.773-23.53 32.765-21.619 5.454.746 10.826 3.051 15.452 7.103 9.292 8.136 20.881 12.204 32.47 12.204s23.186-4.068 32.478-12.204c5.757-5.044 12.655-7.373 19.446-7.373 12.671 0 24.965 8.119 28.771 21.89 4.084 14.828 10.974 28.164 22.562 32.453.377 9.284.558 18.56.558 27.835z" fill="#f1d0a5"/><path d="m119.393 263.43c-11.179-.156-22.349-.5-33.528-1.025-29.698-1.402-53.458-25.039-54.983-54.729-1.083-21.16-1.197-42.312-.353-63.472h.008c11.581-4.289 18.47-17.625 22.562-32.453 4.199-15.214 18.773-23.53 32.765-21.619-10.62 94.834.001 172.256 33.529 173.298z" fill="#f1b986"/><path d="m117.776 290.129h32.026l5.67 38.455-21.683 15.546-21.682-15.546z" fill="#da4a54"/><path d="m56.94 504.492h64.611v-23.402h-41.21c-12.924 0-23.401 10.477-23.401 23.402z" fill="#aa593d"/><path d="m442.86 434.322c-9.74 15.53-32.4 22.46-53.56 12.81-37.56-17.14-50.04-66.6-43.73-104.44 1.35-8.16 3.58-15.79 6.63-22.43l79.81 100.41z" fill="#f6e266"/><path d="m442.86 434.322c-9.74 15.53-32.4 22.46-53.56 12.81-37.56-17.14-50.04-66.6-43.73-104.44 0 16.31 33.07 94.73 86.44 77.98z" fill="#eab14d"/><path d="m95.261 481.087c-12.923 0-23.405 10.482-23.405 23.405h-14.916c0-12.923 10.472-23.405 23.395-23.405z" fill="#934d36"/><g fill="#aa593d"><path d="m210.639 504.492h-64.611v-23.402h41.21c12.923 0 23.401 10.477 23.401 23.402z"/><path d="m83.241 226.255h25.102c14.053 0 25.445-11.392 25.445-25.445v-9.805h-25.102c-14.053 0-25.445 11.392-25.445 25.445z"/><path d="m184.333 226.255h-25.102c-14.053 0-25.445-11.392-25.445-25.445v-9.805h25.102c14.053 0 25.445 11.392 25.445 25.445z"/></g><path d="m85.771 172.844c5.196 0 9.424-6.285 9.424-14.01s-4.228-14.01-9.424-14.01c-5.195 0-9.423 6.285-9.423 14.01 0 7.726 4.227 14.01 9.423 14.01z"/><path d="m181.809 172.844c5.195 0 9.423-6.285 9.423-14.01s-4.228-14.01-9.423-14.01c-5.196 0-9.424 6.285-9.424 14.01 0 7.726 4.227 14.01 9.424 14.01z"/><path d="m475.69 439.373c-5.822 0-11.323 1.385-16.205 3.831l-76.345-96.184 62.226-31.465c2.624-1.327 4.23-4.065 4.108-7.003-.121-2.938-1.948-5.534-4.674-6.64-11.492-4.662-23.236-7.248-34.909-7.685-4.137-.155-7.62 3.075-7.775 7.214-.154 4.139 3.075 7.62 7.214 7.776 4.153.156 8.325.634 12.497 1.432l-48.207 24.377-10.583-13.333c4.304-2.711 10.849-6.207 19.251-8.833 3.954-1.236 6.157-5.442 4.921-9.396-1.235-3.953-5.443-6.156-9.396-4.921-10.667 3.334-18.912 7.927-24.139 11.354l-2.393-3.015c-4.722-5.95-11.267-9.918-18.535-11.4-1.125-3.452-3.125-6.577-5.947-9.234-12.895-12.138-40.379-11.678-46.752-11.395-5.317-1.098-33.583-7.089-63.983-16.343 16.204-11.135 27.042-29.411 28.117-50.452.206-4.032.366-8.075.503-12.12 13.125-3.22 22.893-15.079 22.893-29.183 0-9.468-4.403-17.922-11.262-23.436 2.249-7.863 6.222-23.217 8.459-40.526 4.452-34.461-.189-58.833-13.796-72.439-16.941-16.94-38.362-10.219-51.369-1.814-12.535-13.509-50.5-40.77-143.578-22.331-27.436 5.435-44.12 22.019-49.588 49.291-4.53 22.598-1.124 49.082 2.17 74.695.617 4.797 1.207 9.391 1.737 13.891-6.334 5.515-10.35 13.63-10.35 22.67 0 14.102 9.767 25.96 22.889 29.182.136 4.049.296 8.093.502 12.123 1.215 23.639 14.756 43.774 34.374 54.227-4.388 4.711-9.583 11.38-14.68 20.549-2.013 3.62-.71 8.187 2.91 10.199 1.154.642 2.404.946 3.638.946 2.635 0 5.191-1.391 6.563-3.857 6.606-11.885 13.201-18.663 17.029-21.967 3.963.947 8.071 1.539 12.288 1.738 7.253.342 14.532.597 21.821.784l2.864 19.442-5.51 37.367c-.409 2.778.768 5.553 3.05 7.189l18.558 13.305v11.803h-55.063c2.103-9.661 4.631-16.497 4.664-16.584 1.45-3.877-.515-8.197-4.391-9.65-3.882-1.456-8.202.51-9.656 4.389-.19.509-4.698 12.636-7.041 28.234-.513 3.421-.87 6.751-1.099 9.985h-17.272c.537-22.356 3.494-42.452 8.813-59.824 1.212-3.961-1.016-8.155-4.977-9.367-3.957-1.213-8.153 1.015-9.367 4.976-6.233 20.362-9.439 44.023-9.548 70.335-2.253 6.279-7.927 25.389 2.184 35.501 4.672 4.672 11.827 6.09 18.795 6.09 3.811 0 7.561-.426 10.823-.975.978 17.298 3.627 37.717 9.904 55.984-8.216 5.56-13.626 14.965-13.626 25.61 0 4.142 3.357 7.5 7.5 7.5h64.611c4.143 0 7.5-3.358 7.5-7.5v-23.4c0-.538-.059-1.063-.167-1.569 0-.002 0-.004-.001-.006-2.841-13.258-6.632-48.296 4.907-68.544 11.528 20.228 7.755 55.216 4.917 68.499-.115.522-.18 1.063-.18 1.62v23.402c0 4.142 3.357 7.5 7.5 7.5h64.611c4.143 0 7.5-3.358 7.5-7.5 0-10.642-5.408-20.045-13.619-25.605 14.184-41.277 9.814-93.585 9.617-95.824 0 0-1.319-16.472-1.325-16.523-1.934-19.2-7.86-35.492-12.609-45.97 6.659.391 15.233.732 24.509.678 24.532-.135 43.048-2.919 55.196-8.28 9.698 8.105 21.241 12.724 31.148 12.724 3.531 0 6.855-.587 9.813-1.812 5.711-2.366 9.727-6.878 11.652-12.858 2.713 1.072 5.138 2.825 7.012 5.186l4.075 5.134c-9.544 24.398-9.427 57.71.573 84.563 3.07 8.245 6.945 15.671 11.528 22.218l-14.696 16.213c-5.376-3.149-11.624-4.963-18.291-4.963-20.021 0-36.31 16.288-36.31 36.31s16.288 36.31 36.31 36.31 36.31-16.288 36.31-36.31c0-7.94-2.569-15.287-6.908-21.269l13.362-14.741c6.108 5.969 13.033 10.784 20.703 14.284 7.572 3.453 15.505 5.105 23.194 5.105 12.688 0 24.699-4.514 33.354-12.832l5.004 6.304c-5.218 6.289-8.359 14.359-8.359 23.15 0 20.021 16.288 36.31 36.31 36.31s36.31-16.291 36.31-36.312-16.288-36.309-36.31-36.309zm-230.643-259.599c.096-8.739.034-17.472-.194-26.162 4.603 2.579 7.726 7.501 7.726 13.144-.001 5.559-3.038 10.412-7.532 13.018zm-230.047-13.018c0-5.642 3.121-10.563 7.723-13.142-.227 8.703-.289 17.435-.194 26.159-4.493-2.607-7.529-7.459-7.529-13.017zm13.939-30.032c-1.468.054-2.908.214-4.315.472-.363-2.915-.742-5.873-1.134-8.914-3.139-24.411-6.386-49.652-2.339-69.833 4.278-21.341 16.288-33.265 37.794-37.525 30.925-6.126 74.646-10.561 107.324 3.094 19.033 7.954 25.364 18.507 25.381 18.533 1.097 1.991 3.038 3.376 5.277 3.768 2.238.392 4.534-.254 6.242-1.754.057-.05 5.903-5.076 13.663-7.89 9.504-3.447 17.207-2.046 23.538 4.287 18.835 18.834 9.339 70.495 2.148 96.157-1.269-.213-2.564-.346-3.881-.394-8.923-4.068-14.123-16.791-16.93-26.968-3.436-12.454-12.865-22.102-25.226-25.808-12.328-3.696-25.472-.84-35.161 7.641-15.695 13.742-39.371 13.74-55.066 0-9.688-8.482-22.834-11.338-35.159-7.642-12.36 3.706-21.791 13.354-25.226 25.808-2.806 10.176-8.007 22.899-16.93 26.968zm9.433 70.569c-.987-19.308-1.159-38.888-.514-58.274 10.064-5.82 17.611-17.655 22.472-35.274 2.054-7.447 7.688-13.214 15.073-15.428 7.353-2.205 15.192-.5 20.971 4.56 10.666 9.337 24.038 14.005 37.414 14.003 13.373-.001 26.75-4.669 37.413-14.003 5.782-5.06 13.626-6.763 20.973-4.56 7.385 2.214 13.02 7.982 15.074 15.429 4.859 17.618 12.405 29.452 22.469 35.272.648 19.313.476 38.895-.516 58.276-1.325 25.922-21.895 46.395-47.847 47.62-31.562 1.491-63.568 1.491-95.136 0-25.945-1.226-46.514-21.699-47.846-47.621zm95.418 63.738c3.752 0 7.504-.025 11.255-.066l-1.717 11.661h-19.074l-1.718-11.661c3.751.041 7.502.066 11.254.066zm-9.538 26.598h19.074l4.059 27.525-13.596 9.748-13.596-9.748zm-90.101 109.547c-2.102-2.102-1.643-9.296.148-16.015h18.651c-.186 4.245-.337 9.942-.279 16.592-8.857 1.766-16.6 1.343-18.52-.577zm32.171 89.816c2.676-4.984 7.933-8.382 13.971-8.4h33.758v8.4zm87.205 0v-8.4h33.759c6.037.018 11.293 3.416 13.97 8.4zm1.376-23.402c.857-6.127 1.755-14.828 1.77-24.464.039-25.333-5.875-44.113-17.579-55.817-2.93-2.929-7.678-2.929-10.607 0-11.704 11.704-17.618 30.484-17.579 55.817.016 9.636.913 18.337 1.77 24.464l-35.578.002c-12.958-38.195-8.514-95.725-8.224-98.804h129.551s5.039 60.549-7.944 98.804zm33.236-168.997c-2.85-.301-5.633 1.053-7.152 3.49-1.52 2.436-1.515 5.526.012 7.958.125.2 11.404 18.393 15.761 43.747h-55.465v-11.81l18.548-13.298c2.282-1.636 3.459-4.411 3.05-7.189l-5.508-37.354 2.865-19.455c7.287-.187 14.563-.442 21.813-.784 4.742-.224 9.339-.959 13.755-2.124 31.231 10.545 63.849 18.031 76.607 20.797l.844 10.951c-21.539 9.185-67.986 6.882-85.13 5.071zm100.244-4.151-.821-10.649c8.939.259 19.807 1.743 26.155 5.364-3.061.945-5.286 3.796-5.286 7.167 0 4.033 3.185 7.313 7.176 7.484-.182.09-.346.159-.479.214-6.749 2.796-18.691-2.502-26.745-9.58zm69.854 100.228c-7.645-20.529-8.778-45.198-3.502-65.153l10.851 13.668c.238.3.502.569.775.823l28.083 35.38-28.347 31.273c-3.474-5.485-6.018-11.045-7.86-15.991zm-14.206 75.012c0 11.75-9.56 21.31-21.31 21.31s-21.31-9.559-21.31-21.31 9.56-21.31 21.31-21.31c2.765 0 5.4.546 7.826 1.508l-13.383 14.764c-2.782 3.069-2.549 7.812.52 10.594 1.437 1.302 3.238 1.943 5.035 1.943 2.043 0 4.079-.83 5.559-2.463l13.381-14.763c1.506 2.921 2.372 6.222 2.372 9.727zm48.382-35.374c-6.685-3.05-12.221-7.163-16.838-11.769l28.32-31.244 29.446 37.097c-8.449 8.875-24.213 13.539-40.928 5.916zm83.277 56.684c-11.75 0-21.31-9.559-21.31-21.31 0-4.001 1.129-7.734 3.054-10.936l12.381 15.599c1.48 1.865 3.669 2.837 5.879 2.837 1.634 0 3.279-.531 4.658-1.626 3.244-2.575 3.786-7.293 1.211-10.537l-12.396-15.617c2.057-.663 4.247-1.03 6.522-1.03 11.75 0 21.31 9.559 21.31 21.31s-9.559 21.31-21.309 21.31z"/><path d="m159.231 233.755h25.102c4.143 0 7.5-3.358 7.5-7.5v-9.805c0-18.166-14.778-32.945-32.944-32.945h-25.102-25.102c-18.166 0-32.945 14.779-32.945 32.945v9.805c0 4.142 3.357 7.5 7.5 7.5h25.103c10.237 0 19.397-4.694 25.444-12.042 6.047 7.348 15.207 12.042 25.444 12.042zm17.602-17.305v2.305h-17.602c-9.895 0-17.944-8.05-17.944-17.945v-2.305h17.602c9.894.001 17.944 8.051 17.944 17.945zm-68.49 2.305h-17.603v-2.305c0-9.895 8.05-17.945 17.945-17.945h17.602v2.305c0 9.895-8.05 17.945-17.944 17.945z"/></svg>