<svg id="Layer_1" enable-background="new 0 0 512 512" height="512" viewBox="0 0 512 512" width="512" xmlns="http://www.w3.org/2000/svg"><g><g><path clip-rule="evenodd" d="m501.207 34.514v221.472 221.5c0 14.854-12.132 27.014-26.985 27.014h-98.445c-31.35-.539-49.747-19.247-49.832-30.359v-.057-.113c.057-11.14 9.241-10.318 20.437-10.318h89.204c3.061 0 5.556-2.523 5.556-5.584v-35.943-41.528-41.528-41.528-41.528-.028-41.499-41.528-41.528-41.528-36c0-3.061-2.494-5.556-5.556-5.556h-89.204c-11.197 0-20.381.794-20.437-10.318v-.113-.085c.085-11.197 18.935-30.246 50.937-30.331h.227 2.466 94.647c14.853 0 26.985 12.161 26.985 27.014z" fill="#ffbc85" fill-rule="evenodd"/></g><g><path clip-rule="evenodd" d="m470.622 34.486v221.5 221.5c0 14.854-12.16 26.986-27.014 26.986h-68.398c.198.028.368.028.567.028h98.445c14.768 0 26.872-12.047 26.985-26.788v-.227-221.5-221.471-.227c-.113-14.74-12.217-26.787-26.985-26.787h-29.99c14.57.34 26.39 12.359 26.39 26.986z" fill="#f5a96c" fill-rule="evenodd"/></g><path d="m501.207 213.284c4.142 0 7.5-3.358 7.5-7.5v-171.27c0-19.031-15.47-34.514-34.485-34.514h-97.113c-36.346 0-58.664 22.083-58.664 37.916 0 5.349 1.566 9.62 4.655 12.694 5.345 5.319 13.033 5.281 21.163 5.244.697-.003 1.404-.007 2.12-.007h87.26v26.556h-107.698c-4.142 0-7.5 3.358-7.5 7.5s3.358 7.5 7.5 7.5h107.697v26.528h-107.697c-4.142 0-7.5 3.358-7.5 7.5s3.358 7.5 7.5 7.5h107.697v26.528h-107.697c-4.142 0-7.5 3.358-7.5 7.5s3.358 7.5 7.5 7.5h107.697v26.527h-107.697c-4.142 0-7.5 3.358-7.5 7.5s3.358 7.5 7.5 7.5h107.697v26.528h-107.697c-4.142 0-7.5 3.358-7.5 7.5s3.358 7.5 7.5 7.5h107.697v26.528h-107.697c-4.142 0-7.5 3.358-7.5 7.5s3.358 7.5 7.5 7.5h107.697v26.527h-107.697c-4.142 0-7.5 3.358-7.5 7.5s3.358 7.5 7.5 7.5h107.697v26.528h-107.697c-4.142 0-7.5 3.358-7.5 7.5s3.358 7.5 7.5 7.5h107.697v26.528h-107.697c-4.142 0-7.5 3.358-7.5 7.5s3.358 7.5 7.5 7.5h107.697v26.528h-87.26c-.716 0-1.423-.003-2.12-.007-8.132-.039-15.818-.076-21.163 5.244-3.088 3.074-4.655 7.345-4.655 12.694 0 15.833 22.318 37.916 58.664 37.916h97.113c20.731 0 34.485-26.097 34.485-43.358v-228.247c0-4.142-3.358-7.5-7.5-7.5s-7.5 3.358-7.5 7.5v228.247c0 11.714-10.078 28.358-19.485 28.358h-97.113c-12.73 0-24.569-3.417-33.335-9.621-7.524-5.325-10.329-10.981-10.329-13.295 0-1.219.175-1.869.268-2.081 1.324-.901 6.824-.875 10.478-.857.721.003 1.452.007 2.192.007h89.204c7.199 0 13.056-5.87 13.056-13.084v-404.166c0-7.199-5.857-13.056-13.056-13.056h-89.204c-.74 0-1.471.003-2.192.007-3.653.019-9.153.044-10.478-.857-.093-.212-.268-.862-.268-2.081 0-2.314 2.804-7.971 10.329-13.295 8.767-6.204 20.606-9.621 33.336-9.621h97.113c10.744 0 19.485 8.754 19.485 19.514v171.27c0 4.142 3.358 7.5 7.5 7.5z"/><g><path clip-rule="evenodd" d="m149.606 260.096-13.606 20.904 13.606 21.559 63.863-4.791-34.383-260.788c-2.098-16.072-13.266-29.48-29.48-29.48l-13.606 131 13.606 73.209c13.351 0 24.179 10.828 24.179 24.18 0 13.379-10.828 24.207-24.179 24.207z" fill="#dddaec" fill-rule="evenodd"/></g><g><path clip-rule="evenodd" d="m85.743 297.769 63.863 4.791v-42.463c-13.379 0-24.207-10.828-24.207-24.208 0-13.351 10.828-24.18 24.207-24.18v-204.209c-16.242 0-27.382 13.408-29.508 29.48z" fill="#f9f6f6" fill-rule="evenodd"/></g><g><path clip-rule="evenodd" d="m45.067 434.399c-.255-43.824 16.752-59.584 53.715-64.035 9.212-1.134 16.582 2.863 16.554 13.947l-.085 42.945c-.085 57.855-69.901 54.312-70.184 7.143zm-34.27.198c.17 33.052 21.146 61.257 53.857 68.344 20.409 4.394 42.008-.652 58.137-13.947 18.566-15.307 26.73-38.098 26.758-61.682l.057-119.963v-4.791c0-2.636-2.154-4.791-4.79-4.791h-59.073-5.329c-2.636 0-4.79 2.154-4.79 4.791v37.304c-44.56 11.623-65.139 43.712-64.827 94.735z" fill="#9dc6fb" fill-rule="evenodd"/></g><g><path clip-rule="evenodd" d="m149.606 307.35.028 119.963c.028 23.584 8.22 46.375 26.787 61.682 16.129 13.295 37.728 18.34 58.109 13.947 32.739-7.087 53.687-35.291 53.885-68.344.283-51.024-20.267-83.112-64.855-94.734v-37.304c0-2.636-2.154-4.791-4.79-4.791h-5.301-59.073c-2.636 0-4.79 2.154-4.79 4.791zm34.242 76.961c0-11.083 7.342-15.08 16.554-13.947 36.963 4.45 53.97 20.211 53.715 64.035-.255 47.169-70.071 50.712-70.184-7.143z" fill="#9dc6fb" fill-rule="evenodd"/></g><g><path clip-rule="evenodd" d="m213.469 297.769h-11.565v49.21c52.638 10.885 65.139 36.595 64.855 87.619-.198 33.052-21.146 61.257-53.885 68.344-1.247.255-2.494.51-3.742.709 8.362 1.304 16.979 1.106 25.398-.709 32.739-7.087 53.687-35.291 53.885-68.344.283-51.024-20.267-83.112-64.855-94.734v-37.304c0-2.636-2.154-4.791-4.79-4.791z" fill="#80b4fb" fill-rule="evenodd"/></g><g><path clip-rule="evenodd" d="m129.509 297.769-.028 124.016c-.028 23.584-8.192 46.375-26.758 61.682-16.129 13.295-37.757 11.225-58.166 6.803-3.997-.85-7.795-2.013-11.423-3.487 8.504 7.795 19.19 13.493 31.521 16.158 20.409 4.394 42.008-.652 58.137-13.947 18.566-15.307 26.73-38.098 26.758-61.682l.057-119.963v-4.791c0-2.636-2.154-4.791-4.79-4.791h-15.308z" fill="#80b4fb" fill-rule="evenodd"/></g><g><path d="m231.06 334.207v-31.647c0-6.343-4.831-11.578-11.006-12.222l-33.531-254.328c-2.768-21.202-17.948-36.01-36.917-36.01-19.061 0-34.254 14.818-36.949 36.039l-12.019 95.018c-.52 4.109 2.39 7.862 6.5 8.382 4.111.515 7.862-2.391 8.382-6.5l12.019-95.014c1.109-8.735 6.04-17.991 14.567-21.48v188.666c-13.874 3.376-24.208 15.89-24.208 30.776 0 14.9 10.333 27.425 24.208 30.804v23.576h-47.811l16.061-121.915c.541-4.106-2.349-7.874-6.456-8.415-4.106-.541-7.874 2.35-8.415 6.456l-16.327 123.939c-6.189.631-11.034 5.874-11.034 12.227v31.648c-43.349 13.494-65.152 47.253-64.828 100.429.194 37.537 24.213 67.932 59.779 75.637 5.299 1.141 10.674 1.699 16.029 1.699 17.568 0 34.897-6.013 48.458-17.19 9.613-7.925 17.038-17.984 22.036-29.598 5.002 11.609 12.434 21.668 22.053 29.598 13.562 11.178 30.88 17.19 48.438 17.19 5.353 0 10.73-.559 16.027-1.701 35.542-7.693 59.574-38.085 59.799-75.632.296-53.19-21.515-86.948-64.855-100.432zm-59.41-296.246 33.265 252.308h-47.809v-23.578c13.859-3.381 24.179-15.905 24.179-30.802 0-14.884-10.32-27.397-24.179-30.775v-188.652c8.472 3.504 13.403 12.759 14.544 21.499zm-38.751 197.927c0-9.197 7.495-16.68 16.708-16.68 9.197 0 16.679 7.482 16.679 16.68 0 9.213-7.482 16.708-16.679 16.708-9.213 0-16.708-7.495-16.708-16.708zm9.15 191.416c-.028 23.298-8.562 43.152-24.029 55.904-14.186 11.693-33.547 16.327-51.778 12.403-28.521-6.179-47.789-30.713-47.945-61.059-.295-48.362 19.076-76.961 59.22-87.431 3.302-.861 5.607-3.844 5.607-7.257v-34.595h58.981zm90.9 68.305c-18.224 3.928-37.571-.708-51.757-12.402-15.486-12.767-24.03-32.621-24.058-55.896l-.028-122.042h56.332c.007 0 .014.001.021.001.005 0 .01-.001.015-.001h2.586v34.595c0 3.414 2.305 6.396 5.608 7.257 40.136 10.462 59.516 39.062 59.247 87.432-.182 30.349-19.46 54.886-47.966 61.056z"/><path d="m201.301 362.918c-7.401-.909-13.72.741-18.272 4.768-3.048 2.696-6.681 7.769-6.681 16.639l.085 42.945c.068 34.613 22.527 50.417 43.367 50.452h.069c20.138 0 41.597-15.156 41.749-43.28.264-45.612-17.211-66.334-60.317-71.524zm18.572 99.805c-.016 0-.032 0-.048 0-14.098-.024-28.345-11.005-28.393-35.481l-.085-42.931c0-1.805.281-4.205 1.619-5.389.919-.813 2.515-1.243 4.517-1.243.629 0 1.3.042 2.002.129.006.001.013.001.02.002 35.445 4.268 47.333 18.536 47.112 56.548-.106 19.496-13.927 28.365-26.744 28.365z"/><path d="m37.566 434.444c.169 28.131 21.629 43.28 41.771 43.279h.091c20.83-.047 43.271-15.856 43.322-50.452l.085-42.941c.022-8.848-3.603-13.924-6.648-16.624-4.558-4.041-10.895-5.698-18.303-4.788-43.107 5.19-60.583 25.912-60.318 71.526zm62.132-56.636c.704-.086 1.375-.129 2.005-.129 2.01 0 3.611.432 4.533 1.249 1.331 1.181 1.604 3.568 1.6 5.368l-.085 42.949c-.036 24.464-14.268 35.446-28.356 35.478-.021 0-.042 0-.063 0-12.821 0-26.648-8.868-26.765-28.367-.221-38.009 11.667-52.277 47.112-56.545.006-.001.012-.002.019-.003z"/></g></g></svg>