<svg id="Filled" height="512" viewBox="0 0 512 512" width="512" xmlns="http://www.w3.org/2000/svg"><path d="m376 392.62v32s32 63.38 64 63.38c32.985 0 24-39.38 24-39.38s24-8 24-40-24-40-24-40 8.985-40.62-24-40.62c-32 0-64 64.62-64 64.62z" fill="#ff8e26"/><path d="m136 384.62v32s-32 63.38-64 63.38c-32.985 0-24-39.38-24-39.38s-24-8-24-40 24-40 24-40-8.985-40.62 24-40.62c32 0 64 64.62 64 64.62z" fill="#ff8e26"/><circle cx="144" cy="168" fill="#dadcde" r="112"/><path d="m392.064 280.21h-.62c-95.25-.52-87.28-72-87.28-72 3.736-102.854 45.936-184.545 88-184.21 41.8.333 83.467 82.024 87.18 184.21 0 0 7.97 71.48-87.28 72z" fill="#dadcde"/><path d="m478.88 198.53c-19.05 8.36-49.06 17.47-86.72 17.47-38.2 0-68.51-9.01-87.54-17.47 2.85-47.06 13.71-89.16 28.73-120.21a177.024 177.024 0 0 0 58.81 9.68 177.136 177.136 0 0 0 58.17-9.46c14.93 31.06 25.71 73.1 28.55 119.99z" fill="#ff8e26"/><path d="m392.06 280.21h-.62c-95.25-.52-87.28-72-87.28-72q.18-4.875.46-9.68c19.03 8.46 49.34 17.47 87.54 17.47 37.66 0 67.67-9.11 86.72-17.47q.285 4.8.46 9.68s7.97 71.48-87.28 72z" fill="#f7b030"/><path d="m160 120c0 17.78-5.33 37.33-16 56-5.66-20.74-15.71-38.34-28.28-50.91-20.81-20.8-45.91-30.41-53.96-33.12a111.7 111.7 0 0 1 82.24-35.97s16 28.44 16 64z" fill="none"/><path d="m144 176c-20.74 5.66-38.34 15.71-50.91 28.28-14.5 14.51-23.56 31.1-28.65 42.55a111.59 111.59 0 0 1 -32.35-74.72c10.9-4.73 31.77-12.11 55.91-12.11 17.78 0 37.33 5.33 56 16z" fill="none"/><path d="m115.72 125.09c12.57 12.57 22.62 30.17 28.28 50.91-18.67-10.67-38.22-16-56-16-24.14 0-45.01 7.38-55.91 12.11-.07-1.36-.09-2.73-.09-4.11a111.642 111.642 0 0 1 29.75-76.03h.01c8.05 2.71 33.15 12.32 53.96 33.12z" fill="#ff8e26"/><path d="m214.2 255.27a111.506 111.506 0 0 1 -70.2 24.73q-3.6 0-7.14-.24c-4.26-11.69-8.86-28.7-8.86-47.76 0-17.78 5.33-37.33 16-56 5.66 20.74 15.71 38.34 28.28 50.91 14.24 14.24 30.5 23.23 41.92 28.36z" fill="none"/><path d="m93.09 204.28c12.57-12.57 30.17-22.62 50.91-28.28-10.67 18.67-16 38.22-16 56 0 19.06 4.6 36.07 8.86 47.76a111.559 111.559 0 0 1 -72.42-32.92v-.01c5.09-11.45 14.15-28.04 28.65-42.55z" fill="#ff8e26"/><path d="m256 168a110.723 110.723 0 0 1 -.66 12.14c-11.05 4.74-31.61 11.86-55.34 11.86-17.78 0-37.33-5.33-56-16 20.74-5.66 38.34-15.71 50.91-28.28 20.69-20.69 30.31-45.63 33.07-53.82a111.53 111.53 0 0 1 28.02 74.1z" fill="none"/><g fill="#ff8e26"><path d="m194.91 147.72c-12.57 12.57-30.17 22.62-50.91 28.28 10.67-18.67 16-38.22 16-56 0-35.56-16-64-16-64a111.728 111.728 0 0 1 83.98 37.9c-2.76 8.19-12.38 33.13-33.07 53.82z"/><path d="m255.34 180.14a111.766 111.766 0 0 1 -41.14 75.13c-11.42-5.13-27.68-14.12-41.92-28.36-12.57-12.57-22.62-30.17-28.28-50.91 18.67 10.67 38.22 16 56 16 23.73 0 44.29-7.12 55.34-11.86z"/><rect height="176" rx="48" width="240" x="136" y="312"/></g><path d="m192 312h128v176h-128z" fill="#f7b030"/><path d="m392.228 16h-.328c-23.829 0-47 20.543-65.293 57.892-17.778 36.31-28.581 83.816-30.426 133.785-.323 3.544-2.03 30.427 17.567 52.451 16.411 18.443 42.537 27.891 77.7 28.083h.663c35.119-.192 61.245-9.64 77.655-28.083 19.6-22.024 17.89-48.907 17.568-52.451-1.834-49.667-12.52-96.984-30.1-133.255-18.164-37.485-41.251-58.233-65.006-58.422zm-.315 16h.187c15.4.122 32.564 15.568 46.8 41.74a172.107 172.107 0 0 1 -46.736 6.26 171.9 171.9 0 0 1 -47.37-6.439c14.338-26.191 31.622-41.561 47.119-41.561zm-54.294 56.131a187.01 187.01 0 0 0 54.545 7.869 187.18 187.18 0 0 0 53.875-7.668c13.055 29.568 21.561 66.109 24.461 104.939-17.506 7.163-44.1 14.729-78.336 14.729-34.659 0-61.5-7.74-79.13-15.057 2.937-38.836 11.479-75.321 24.585-104.812zm120.19 161.36c-13.264 14.906-35.392 22.551-65.771 22.719h-.551c-30.274-.165-52.359-7.754-65.642-22.555-14.332-15.97-13.994-35.989-13.778-39.882 18.982 7.245 46.092 14.227 80.1 14.227 33.607 0 60.465-6.832 79.3-13.925.233 4.491.345 23.679-13.658 39.416z"/><path d="m144 48a120 120 0 1 0 120 120 120.136 120.136 0 0 0 -120-120zm74.779 47.8c-3.847 9.942-12.947 29.683-29.526 46.262a98.257 98.257 0 0 1 -29.653 19.93 114.783 114.783 0 0 0 8.4-41.992c0-22.958-6.211-42.953-11.136-55.2a103.8 103.8 0 0 1 61.915 31zm-76.129 176.183a131.86 131.86 0 0 1 -6.65-39.983 98.282 98.282 0 0 1 6.877-35.071 114.785 114.785 0 0 0 23.746 35.638 144.963 144.963 0 0 0 32.055 23.861 103.373 103.373 0 0 1 -54.678 15.572c-.451 0-.9-.011-1.35-.017zm9.35-151.983a98.29 98.29 0 0 1 -6.877 35.071 114.777 114.777 0 0 0 -23.748-35.639c-15.366-15.359-32.715-24.907-45.038-30.345a103.544 103.544 0 0 1 62.788-24.969c4.119 8.787 12.875 30.452 12.875 55.882zm-89.463 112.575a103.491 103.491 0 0 1 -22.113-55.234c10.818-4.176 28.127-9.341 47.576-9.341a98.282 98.282 0 0 1 35.071 6.877 114.793 114.793 0 0 0 -35.64 23.748 145.969 145.969 0 0 0 -24.894 33.95zm36.21-22.638a98.253 98.253 0 0 1 29.653-19.929 114.773 114.773 0 0 0 -8.4 41.992 144.773 144.773 0 0 0 5.458 38.343 103.762 103.762 0 0 1 -51.315-25.363 132.435 132.435 0 0 1 24.604-35.043zm-34.547-108.556c10.125 3.96 29.515 13.029 45.859 29.366a98.253 98.253 0 0 1 19.933 29.653 114.773 114.773 0 0 0 -41.992-8.4 149.1 149.1 0 0 0 -47.719 8.371 103.524 103.524 0 0 1 23.919-58.99zm148.71 144.44a132.49 132.49 0 0 1 -34.973-24.568 98.253 98.253 0 0 1 -19.929-29.653 114.773 114.773 0 0 0 41.992 8.4 148.036 148.036 0 0 0 45.073-7.483 104.1 104.1 0 0 1 -32.163 53.304zm34.876-71.239c-10.66 4.134-28.128 9.418-47.786 9.418a98.282 98.282 0 0 1 -35.071-6.877 114.785 114.785 0 0 0 35.638-23.746c14.731-14.731 24.117-31.3 29.65-43.479a103.406 103.406 0 0 1 17.783 58.102c0 2.211-.078 4.4-.214 6.582z"/><path d="m39.2 445.188c-.838 8.032-.775 21.789 7.2 31.789 4.008 5.028 11.705 11.023 25.6 11.023 15.91 0 32.859-11.729 50.377-34.86 2.079-2.744 4.035-5.481 5.858-8.139a56.068 56.068 0 0 0 55.765 50.999h144a56.092 56.092 0 0 0 54.791-44.43c2.093 3.1 4.378 6.33 6.832 9.57 17.518 23.131 34.467 34.86 50.377 34.86 13.895 0 21.592-6 25.6-11.023 7.975-10 8.038-23.757 7.2-31.789 8.669-5.159 23.2-17.8 23.2-44.567 0-26.784-14.545-39.424-23.212-44.578.862-8.3.849-22.767-7.44-33.089-4.012-4.997-11.667-10.954-25.348-10.954-22.13 0-42.668 23.522-56 43.242v-3.242a56.064 56.064 0 0 0 -56-56h-144a56.063 56.063 0 0 0 -55.8 51.53c-13.331-19.778-33.962-43.53-56.2-43.53-13.681 0-21.336 5.957-25.348 10.954-8.289 10.322-8.3 24.794-7.44 33.089-8.667 5.157-23.212 17.794-23.212 44.578 0 26.767 14.528 39.408 23.2 44.567zm160.8 34.812v-160h112v160zm240-144c5.962 0 10.166 1.618 12.853 4.946 5.784 7.167 4.366 21.174 3.336 25.947a8 8 0 0 0 5.281 9.317c.185.062 18.53 6.477 18.53 32.411 0 25.5-17.847 32.165-18.53 32.41a8.022 8.022 0 0 0 -5.274 9.348c1 4.52 2.4 17.759-3.124 24.648-2.684 3.347-6.96 4.973-13.072 4.973-17.751 0-40.339-29.418-53.066-51.923l34.536 11.512a8 8 0 1 0 5.06-15.178l-42.53-14.177v-4.468l42.53-14.177a8 8 0 0 0 -5.06-15.178l-33.679 11.226a229.129 229.129 0 0 1 14.631-22.556c13.93-18.753 27.278-29.081 37.578-29.081zm-72 24v80a40.045 40.045 0 0 1 -40 40v-160a40.045 40.045 0 0 1 40 40zm-184-40v160a40.045 40.045 0 0 1 -40-40v-80a40.045 40.045 0 0 1 40-40zm-133.47 48.21a8 8 0 0 0 5.281-9.317c-.98-4.433-2.476-18.709 3.316-25.922 2.686-3.345 6.897-4.971 12.873-4.971 17.393 0 39.462 28.9 52.31 51.671l-33.78-11.26a8 8 0 1 0 -5.06 15.178l42.53 14.177v4.468l-42.53 14.177a8 8 0 1 0 5.06 15.178l34.444-11.481a225.679 225.679 0 0 1 -15.351 23.372c-13.929 18.392-27.29 28.52-37.623 28.52-6.112 0-10.388-1.626-13.072-4.973-5.528-6.889-4.128-20.127-3.128-24.627a8 8 0 0 0 -5.269-9.369c-.185-.062-18.53-6.476-18.53-32.41-.001-25.5 17.846-32.166 18.529-32.411z"/></svg>