<?xml version="1.0" encoding="iso-8859-1"?>
<!-- Generator: Adobe Illustrator 19.0.0, SVG Export Plug-In . SVG Version: 6.00 Build 0)  -->
<svg version="1.1" id="Capa_1" xmlns="http://www.w3.org/2000/svg" xmlns:xlink="http://www.w3.org/1999/xlink" x="0px" y="0px"
	 viewBox="0 0 512.001 512.001" style="enable-background:new 0 0 512.001 512.001;" xml:space="preserve">
<path style="fill:#FE5578;" d="M203.907,374.081c-105.89-20.301-108.576,82.295-44.302,114.027s136.279,7.324,136.279,7.324
	s42.959-62.728,29.779-133.186S212.98,266.645,203.907,374.081z M267.979,365.742c-7.054,5.347-17.108,3.963-22.456-3.091
	c-5.347-7.054-3.963-17.108,3.091-22.456c7.054-5.347,17.108-3.963,22.456,3.091C276.417,350.342,275.033,360.396,267.979,365.742z"
	/>
<path style="fill:#FE3F67;" d="M181.187,466.737c-36.875-18.204-51.697-59.727-37.649-87.992
	c-42.715,21.652-32.236,85.516,16.067,109.362c64.274,31.731,136.279,7.324,136.279,7.324s4.619-6.745,10.364-18.296
	C283.544,482.512,230.129,490.899,181.187,466.737z"/>
<path style="fill:#FF97A4;" d="M104.946,179.551C6.065,136.569-19.008,236.09,36.765,281.118s131.372,36.969,131.372,36.969
	s55.645-51.807,58.203-123.441S137.31,76.704,104.946,179.551z M169.289,185.435c-8.054,3.673-17.561,0.122-21.234-7.931
	c-3.673-8.054-0.123-17.561,7.931-21.234c8.054-3.673,17.561-0.122,21.234,7.931C180.893,172.255,177.342,181.762,169.289,185.435z"
	/>
<path style="fill:#FF7D8D;" d="M60.138,265.47c-31.895-25.75-37.337-69.312-17.668-93.861
	c-43.989,13.465-46.838,76.301-5.706,109.51c55.772,45.028,131.372,36.969,131.372,36.969s5.806-5.41,13.75-15.138
	C159.773,303.443,103.865,300.772,60.138,265.47z"/>
<path style="fill:#FFCBD1;" d="M307.691,134.265c-27.215,66.313,2.108,136.459,2.108,136.459s65.546,38.523,134.925,20.507
	s87.587-119.018-20.22-120.647C437.443,63.544,334.907,67.952,307.691,134.265z M364.996,126.791
	c6.669-5.821,16.794-5.135,22.616,1.534c5.821,6.669,5.135,16.794-1.534,22.616c-6.669,5.821-16.794,5.135-22.616-1.534
	C357.641,142.738,358.329,132.612,364.996,126.791z"/>
<path style="fill:#FFA4AF;" d="M496.213,204.015c-2.058,26.317-23.398,53.332-56.163,61.839
	c-69.379,18.016-134.925-20.507-134.925-20.507s-3.793-9.075-7.385-23.78c3.621,28.96,12.059,49.158,12.059,49.158
	s65.546,38.523,134.925,20.507C488.416,279.887,511.798,235.638,496.213,204.015z"/>
<path d="M400.996,46.494c47.274-7.607,83.367-18.536,107.276-32.483c3.584-2.091,4.795-6.692,2.705-10.276
	c-2.092-3.584-6.693-4.795-10.275-2.704c-24.921,14.538-64.547,25.209-111.058,32.017l8.898-13.346
	c2.302-3.452,1.369-8.117-2.084-10.418c-3.452-2.302-8.117-1.369-10.418,2.084l-10.944,16.417l-9.548-9.548
	c-2.934-2.933-7.692-2.933-10.625,0c-2.934,2.935-2.934,7.692,0,10.626l7.633,7.633c-29.058,3.181-60.028,4.994-91.269,5.438
	l7.512-15.024c1.856-3.712,0.352-8.224-3.36-10.081c-3.71-1.857-8.223-0.352-10.08,3.36l-8.695,17.391l-19.343-19.343
	c-2.934-2.933-7.692-2.933-10.625,0c-2.934,2.935-2.934,7.692,0,10.626l13.055,13.055c-21.37-0.326-42.603-1.291-63.177-2.897
	l6.056-12.111c1.856-3.712,0.352-8.224-3.36-10.081c-3.709-1.857-8.223-0.352-10.08,3.36l-8.014,16.028
	c-0.06,0.12-0.107,0.243-0.16,0.365L141.85,11.025c-2.49-3.32-7.199-3.992-10.519-1.503c-3.319,2.489-3.992,7.2-1.503,10.519
	l11.645,15.527C86.81,29.025,39.652,17.513,11.397,1.031C7.816-1.06,3.213,0.15,1.122,3.735c-2.091,3.584-0.88,8.185,2.705,10.276
	c23.909,13.948,60.002,24.876,107.276,32.483c13.155,2.117,26.966,3.925,41.264,5.423v61.834
	c-7.624,1.879-14.925,5.45-21.673,10.681c-12.713,9.853-22.883,25.023-30.291,45.159c-20.061-7.605-38.184-9.871-53.96-6.731
	c-16.255,3.236-29.183,12.106-37.388,25.651c-18.223,30.085-8.125,73.33,22.99,98.45c8.508,6.869,17.967,12.955,28.112,18.086
	c3.702,1.872,8.222,0.39,10.096-3.314c1.872-3.703,0.389-8.222-3.314-10.095c-9.204-4.655-17.768-10.163-25.455-16.369
	c-12.697-10.251-21.538-24.352-24.892-39.703c-3.111-14.245-1.175-28.558,5.314-39.271c13.405-22.132,43.327-25.816,80.043-9.856
	c4.036,1.756,8.845-0.449,10.162-4.635c8.802-27.971,23.172-46.265,40.255-52.337v20.225c-5.469,2.651-9.649,7.209-11.783,12.923
	c-2.2,5.89-1.974,12.286,0.635,18.007c3.947,8.653,12.511,13.77,21.454,13.77c8.63,0,16.778-4.915,20.788-12.551
	c4.204-8.005,3.42-17.903-2.001-25.142c-2.685-3.585-6.392-6.335-10.586-7.901c-1.144-0.428-2.307-0.76-3.481-1.005v-20.498
	c1.533,0.086,3.077,0.259,4.634,0.527c12.344,2.123,24.423,10.043,33.14,21.73c9.395,12.596,14.247,28.516,13.665,44.825
	c-2.159,60.422-44.689,106.934-54.02,116.432c-8.248,0.522-35.55,1.38-66.131-7.038c-3.998-1.096-8.137,1.25-9.237,5.25
	c-1.102,4,1.249,8.136,5.25,9.238c23.912,6.582,45.634,7.917,59.326,7.917c8.862,0,14.36-0.56,14.912-0.618
	c1.617-0.172,3.134-0.865,4.323-1.972c2.365-2.202,57.954-54.776,60.593-128.671c1.428-39.965-24.609-75.941-59.274-81.901
	c-2.406-0.415-4.801-0.651-7.181-0.751V53.353c25.948,2.267,53.274,3.53,81.143,3.723V295.05
	c-12.21,2.578-23.001,9.252-31.567,19.614c-10.248,12.398-16.852,29.426-19.675,50.694c-21.239-3.032-39.42-1.274-54.124,5.241
	c-15.153,6.715-25.826,18.199-30.868,33.211c-11.199,33.344,8.118,73.33,43.977,91.034c26.66,13.161,54.337,17.151,78.113,17.15
	c35.354-0.002,62.073-8.829,63.903-9.449c1.54-0.522,2.868-1.529,3.787-2.871c1.826-2.666,44.56-66.131,30.966-138.812
	c-6.913-36.958-36.753-65.159-69.486-66.926V57.38l0.152-0.306c36.578-0.257,72.232-2.354,105.033-6.152v28.522
	c-28.124,1.89-55.718,22.026-68.007,51.967c-28.073,68.405,0.881,139.227,2.127,142.209c0.627,1.5,1.724,2.756,3.125,3.579
	c2.244,1.318,45.655,26.383,99.863,26.383c13.096,0,26.833-1.465,40.76-5.081c38.706-10.051,65.743-45.281,61.55-80.204
	c-1.887-15.723-10.007-29.136-23.479-38.789c-13.075-9.367-30.519-14.779-51.931-16.125c1.556-21.399-1.452-39.414-8.969-53.633
	c-7.746-14.653-19.94-24.508-35.265-28.5c-1.573-0.41-3.158-0.731-4.746-1.011V49.039C389.623,48.247,395.371,47.399,400.996,46.494
	z M170.384,167.318c1.941,4.254-0.012,9.325-4.213,11.282c-4.273,1.945-9.332,0.058-11.281-4.213
	c-0.944-2.07-1.026-4.383-0.229-6.513c1.621-4.341,6.605-6.626,10.956-4.997C167.747,163.672,169.44,165.249,170.384,167.318z
	 M253.154,346.183c3.699-2.805,9.129-2.053,11.93,1.643c2.836,3.742,2.1,9.093-1.643,11.929c-3.743,2.835-9.093,2.101-11.93-1.643
	C248.675,354.37,249.412,349.019,253.154,346.183z M295.135,322.879c11.923,10.236,20.141,24.706,23.143,40.748
	c11.118,59.435-20.208,114.13-27.232,125.434c-12.791,3.731-73.766,19.142-128.115-7.689c-14.634-7.225-26.344-19.05-32.977-33.294
	c-6.154-13.218-7.396-27.61-3.408-39.482c6.445-19.193,25.226-29.577,51.93-29.577c7.424,0,15.464,0.804,24.016,2.443
	c4.321,0.824,8.531-2.368,8.902-6.747c2.937-34.779,16.571-57.924,37.141-64.15v20.981c-1.561,0.715-3.057,1.601-4.46,2.663
	c-10.344,7.841-12.382,22.637-4.541,32.981c7.745,10.218,22.752,12.274,32.981,4.542c10.345-7.842,12.382-22.637,4.541-32.982
	c-3.374-4.452-8.113-7.49-13.496-8.716v-21.006C274.436,309.891,285.683,314.766,295.135,322.879z M384.731,95.792
	c25.039,6.523,37.119,34.146,32.316,73.891c-0.528,4.364,2.951,8.347,7.346,8.413c40.029,0.605,65.769,16.304,68.852,41.994
	c1.493,12.436-2.647,26.275-11.356,37.967c-9.388,12.602-23.256,21.801-39.051,25.903c-58.512,15.192-115.231-12.266-127.009-18.499
	c-4.591-12.528-24.134-72.425-1.186-128.344c6.196-15.098,17.182-27.598,30.936-35.198c7.451-4.118,15.416-6.581,23.169-7.299
	v21.695c-3.168,0.953-6.125,2.575-8.691,4.814c-9.666,8.438-10.694,23.546-2.253,33.216c8.426,9.649,23.559,10.683,33.216,2.252
	c9.666-8.438,10.695-23.546,2.253-33.216c-2.616-2.996-5.872-5.228-9.499-6.577V95.572C384.092,95.647,384.416,95.71,384.731,95.792
	z M369.938,132.452c2.424-2.107,5.95-2.637,8.909-1.412c5.714,2.364,6.923,10.196,2.291,14.24
	c-3.537,3.085-8.927,2.722-12.014-0.814C366.07,140.969,366.442,135.502,369.938,132.452z"/>
<g>
</g>
<g>
</g>
<g>
</g>
<g>
</g>
<g>
</g>
<g>
</g>
<g>
</g>
<g>
</g>
<g>
</g>
<g>
</g>
<g>
</g>
<g>
</g>
<g>
</g>
<g>
</g>
<g>
</g>
</svg>
