<svg id="Capa_1" enable-background="new 0 0 512 512" height="512" viewBox="0 0 512 512" width="512" xmlns="http://www.w3.org/2000/svg"><g><g><path d="m355.4 154.17h115.968c18.299 0 33.133 14.834 33.133 33.133v198.802c0 18.298-14.834 33.132-33.133 33.132h-41.417c-4.575 0-8.283 3.708-8.283 8.283v37.986c0 7.38-8.922 11.075-14.141 5.857l-49.7-49.701c-1.553-1.553-3.66-2.426-5.857-2.426h-162.237c-18.298 0-33.132-14.834-33.132-33.132v-86.958z" fill="#89dd8e"/><path d="m322.267 38.202h-281.634c-18.299 0-33.133 14.834-33.133 33.133v198.802c0 18.298 14.834 33.132 33.132 33.132h41.417c4.575 0 8.283 3.709 8.283 8.283v37.986c0 7.38 8.922 11.075 14.141 5.857l49.7-49.701c1.553-1.553 3.66-2.426 5.857-2.426h162.237c18.298 0 33.132-14.834 33.132-33.132v-198.801c.001-18.299-14.833-33.133-33.132-33.133z" fill="#f9f5f3"/><ellipse cx="256" cy="352.97" fill="#f9f5f3" rx="16.567" ry="16.567" transform="matrix(.16 -.987 .987 .16 -133.419 549.125)"/><g><g><ellipse cx="181.45" cy="253.57" fill="#868eaf" rx="16.567" ry="16.567" transform="matrix(.707 -.707 .707 .707 -126.156 202.573)"/><g><path d="m181.45 203.87c-9.15 0-16.567-7.417-16.567-16.567v-16.567c0-15.174 8.971-28.663 22.853-34.364 6.619-2.718 10.733-9.367 10.238-16.545-.554-8.035-7.28-14.762-15.314-15.316-4.66-.315-9.117 1.244-12.509 4.41-3.397 3.17-5.268 7.473-5.268 12.116 0 9.15-7.417 16.567-16.567 16.567s-16.567-7.417-16.567-16.567c0-13.725 5.757-26.969 15.793-36.338 10.032-9.363 23.654-14.194 37.398-13.242 24.579 1.696 44.393 21.51 46.087 46.09 1.48 21.443-10.86 41.326-30.706 49.476-1.379.566-2.307 2.059-2.307 3.714v16.567c.002 9.149-7.414 16.566-16.564 16.566z" fill="#868eaf"/></g></g></g><ellipse cx="405.101" cy="352.97" fill="#f9f5f3" rx="16.567" ry="16.567" transform="matrix(.23 -.973 .973 .23 -31.5 666.138)"/><ellipse cx="330.55" cy="352.97" fill="#f9f5f3" rx="16.567" ry="16.567" transform="matrix(.16 -.987 .987 .16 -70.81 622.713)"/><g fill="#f9eae0"><path d="m130.359 305.696-40.026 40.026v3.817c0 7.38 8.922 11.075 14.141 5.857l49.7-49.701c1.554-1.553 3.66-2.426 5.857-2.426h-23.815c-2.197.001-4.304.873-5.857 2.427z"/><path d="m322.267 38.202h-23.815c18.299 0 33.133 14.834 33.133 33.133v198.802c0 18.299-14.834 33.133-33.132 33.133h23.815c18.299 0 33.132-14.834 33.132-33.133v-198.802c0-18.299-14.834-33.133-33.133-33.133z"/></g><g><g><g><path d="m397.853 427.52v34.169l9.674 9.674c5.218 5.218 14.141 1.522 14.141-5.857v-37.986c0-4.575 3.709-8.283 8.283-8.283h-23.815c-4.575 0-8.283 3.709-8.283 8.283z" fill="#79d191"/></g><g><path d="m471.367 154.17h-23.815c18.299 0 33.133 14.834 33.133 33.133v198.802c0 18.299-14.834 33.132-33.132 33.132h23.815c18.298 0 33.132-14.834 33.132-33.132v-198.803c0-18.298-14.834-33.132-33.133-33.132z" fill="#79d191"/></g></g></g></g><g><path d="m471.367 146.669h-108.468v-75.333c0-22.405-18.228-40.633-40.633-40.633h-281.633c-22.405 0-40.633 18.227-40.633 40.633v111.684c0 4.143 3.357 7.5 7.5 7.5s7.5-3.357 7.5-7.5v-111.684c0-14.134 11.499-25.633 25.633-25.633h281.634c14.134 0 25.633 11.499 25.633 25.633v198.802c0 14.134-11.498 25.633-25.632 25.633h-162.238c-4.218 0-8.182 1.643-11.16 4.622l-49.7 49.7c-.139.141-.372.37-.854.171-.483-.2-.483-.528-.483-.724v-37.986c0-8.703-7.081-15.783-15.784-15.783h-41.416c-14.134-.001-25.633-11.5-25.633-25.634v-57.117c0-4.143-3.357-7.5-7.5-7.5s-7.5 3.357-7.5 7.5v57.117c0 22.405 18.228 40.633 40.633 40.633h41.416c.433 0 .784.352.784.783v37.986c0 6.406 3.824 12.13 9.743 14.581 1.965.814 4.02 1.21 6.056 1.21 4.1-.001 8.118-1.604 11.146-4.631l39.323-39.324v64.729c0 22.404 18.227 40.632 40.632 40.632h90.834c4.143 0 7.5-3.357 7.5-7.5s-3.357-7.5-7.5-7.5h-90.834c-14.134 0-25.632-11.498-25.632-25.632v-75.334h158.167c22.404 0 40.632-18.227 40.632-40.633v-108.468h108.468c14.134 0 25.633 11.499 25.633 25.633v198.803c0 14.134-11.499 25.632-25.633 25.632h-41.416c-8.703 0-15.784 7.08-15.784 15.783v37.986c0 .195 0 .523-.483.724-.487.199-.716-.033-.853-.17l-49.699-49.698c-2.98-2.982-6.944-4.625-11.161-4.625h-41.402c-4.143 0-7.5 3.357-7.5 7.5s3.357 7.5 7.5 7.5h41.402c.205 0 .406.083.553.23l49.701 49.7c3.027 3.026 7.045 4.63 11.144 4.63 2.036 0 4.094-.396 6.058-1.209 5.918-2.452 9.742-8.176 9.742-14.582v-37.986c0-.432.352-.783.784-.783h41.416c22.405 0 40.633-18.227 40.633-40.632v-198.803c-.003-22.405-18.231-40.633-40.636-40.633z"/><path d="m231.934 352.97c0 13.27 10.796 24.066 24.066 24.066 13.271 0 24.066-10.796 24.066-24.066 0-13.271-10.796-24.066-24.066-24.066s-24.066 10.796-24.066 24.066zm33.132 0c0 4.999-4.067 9.066-9.066 9.066s-9.066-4.067-9.066-9.066 4.067-9.066 9.066-9.066 9.066 4.067 9.066 9.066z"/><path d="m157.383 253.57c0 13.271 10.797 24.066 24.067 24.066 13.271 0 24.066-10.796 24.066-24.066s-10.796-24.066-24.066-24.066c-13.27-.001-24.067 10.795-24.067 24.066zm33.134 0c0 4.999-4.067 9.066-9.066 9.066-5 0-9.067-4.067-9.067-9.066s4.067-9.066 9.067-9.066c4.998-.001 9.066 4.067 9.066 9.066z"/><path d="m205.517 172.937c21.462-9.945 34.639-32.09 32.994-55.905-1.95-28.296-24.759-51.105-53.052-53.058-15.796-1.094-31.485 4.463-43.033 15.242-11.552 10.781-18.177 26.024-18.177 41.82 0 13.271 10.797 24.066 24.067 24.066s24.066-10.796 24.066-24.066c0-2.578.998-4.871 2.885-6.632 1.854-1.729 4.302-2.58 6.877-2.411 4.306.297 8.05 4.042 8.347 8.352.273 3.948-1.979 7.602-5.604 9.09-16.709 6.861-27.505 23.073-27.505 41.302v16.566c0 13.27 10.796 24.067 24.066 24.067s24.067-10.797 24.067-24.067v-14.366zm-8.041-12.852c-4.228 1.735-6.959 5.917-6.959 10.652v16.566c0 5-4.067 9.067-9.067 9.067-4.999 0-9.066-4.067-9.066-9.067v-16.566c0-12.12 7.145-22.886 18.202-27.427 9.614-3.947 15.59-13.592 14.871-23.998-.806-11.689-10.592-21.477-22.289-22.283-.572-.039-1.141-.059-1.706-.059-6.142 0-11.921 2.263-16.426 6.467-4.935 4.604-7.652 10.854-7.652 17.6 0 4.999-4.067 9.066-9.066 9.066-5 0-9.067-4.067-9.067-9.066 0-11.653 4.889-22.9 13.411-30.855 8.518-7.952 20.078-12.059 31.766-11.242 20.863 1.438 37.682 18.259 39.12 39.125 1.256 18.212-9.222 35.1-26.072 42.02z"/><path d="m429.167 352.97c0-13.271-10.796-24.066-24.066-24.066s-24.066 10.796-24.066 24.066 10.796 24.066 24.066 24.066c13.27.001 24.066-10.795 24.066-24.066zm-33.133 0c0-4.999 4.067-9.066 9.066-9.066s9.066 4.067 9.066 9.066-4.067 9.066-9.066 9.066c-4.998.001-9.066-4.067-9.066-9.066z"/><path d="m330.551 377.037c13.27 0 24.066-10.796 24.066-24.066 0-13.271-10.796-24.066-24.066-24.066-13.271 0-24.067 10.796-24.067 24.066-.001 13.27 10.796 24.066 24.067 24.066zm0-33.133c4.999 0 9.066 4.067 9.066 9.066s-4.067 9.066-9.066 9.066c-5 0-9.067-4.067-9.067-9.066-.001-4.999 4.067-9.066 9.067-9.066z"/></g></g></svg>