<svg id="Capa_1" enable-background="new 0 0 512 512" height="512" viewBox="0 0 512 512" width="512" xmlns="http://www.w3.org/2000/svg"><g><path d="m256 76.73c-94.877 0-171.789 76.913-171.789 171.789 0 49.769 21.173 94.587 54.992 125.961v-54.096c-4.965-3.639-8.203-9.497-8.203-16.125v-21.001c0-6.628 3.238-12.485 8.203-16.125v-57.188c0-42.32 34.625-76.945 76.945-76.945h16.345c14.328 0 27.528 5.049 37.931 13.443 7.971-2.814 16.525-4.363 25.427-4.363 42.32 0 76.945 34.625 76.945 76.945v48.108c4.965 3.639 8.203 9.497 8.203 16.125v21.001c0 6.628-3.238 12.485-8.203 16.125v54.096c33.819-31.374 54.992-76.191 54.992-125.961.001-94.876-76.912-171.789-171.788-171.789z" fill="#fed402"/><path d="m256 76.73c-94.877 0-171.789 76.913-171.789 171.789 0 49.769 21.173 94.587 54.992 125.961v-54.096c-4.965-3.639-8.203-9.497-8.203-16.125v-21.001c0-6.628 3.238-12.485 8.203-16.125v-57.188c0-31.191 18.819-58.182 45.655-70.232 25.303-30.875 61.145-52.781 102.037-60.207-10.023-1.82-20.347-2.776-30.895-2.776z" fill="#fac600"/><g fill="#a44f3e"><path d="m293.093 205.319h4.96c26.535 0 48.045 21.51 48.045 48.045v9.894h14.902c4.418 0 8.487 1.45 11.797 3.875v-48.108c0-42.32-34.625-76.945-76.945-76.945-8.902 0-17.457 1.549-25.427 4.363 13.797 11.132 22.669 28.155 22.669 47.157v11.719z"/><path d="m361 324.259h-14.902v9.046c0 33.188-23.212 60.937-54.283 67.947v17.748h74.685c2.137 0 4.236.157 6.297.436v-99.052c-3.31 2.426-7.379 3.875-11.797 3.875z"/></g><g fill="#bb5d4c"><path d="m232.493 133h-16.345c-42.32 0-76.945 34.625-76.945 76.945v57.188c3.31-2.426 7.379-3.875 11.797-3.875h14.902v-9.894c0-26.535 21.511-48.045 48.045-48.045h79.146v-11.719c0-33.33-27.27-60.6-60.6-60.6z"/><path d="m165.902 333.305v-9.046h-14.902c-4.418 0-8.487-1.45-11.797-3.875v99.052c2.061-.279 4.16-.436 6.297-.436h74.685v-17.748c-31.071-7.009-54.283-34.758-54.283-67.947z"/></g><g fill="#a44f3e"><path d="m232.493 133h-16.345c-42.32 0-76.945 34.625-76.945 76.945v57.188c3.31-2.426 7.379-3.875 11.797-3.875h14.902v-9.894c0-16.107 7.934-30.352 20.098-39.069v-4.35c0-36.783 26.163-67.74 60.796-75.214-4.592-1.122-9.379-1.731-14.303-1.731z"/><path d="m165.902 324.259h-14.902c-4.418 0-8.487-1.45-11.797-3.875v99.052c2.061-.279 4.16-.436 6.297-.436h40.5v-36.752c-12.423-12.583-20.098-29.864-20.098-48.943z"/></g><path d="m366.5 419h-74.685l-21.442 38.043h-40.189c-5.523 0-10-4.477-10-10v-28.043h-74.684c-25.681 0-46.5 20.819-46.5 46.5v34c0 2.761 2.239 5 5 5h304c2.761 0 5-2.239 5-5v-34c0-25.681-20.819-46.5-46.5-46.5z" fill="#c8effe"/><g><path d="m144 499.5v-34c0-25.681 20.819-46.5 46.5-46.5h-45c-25.681 0-46.5 20.819-46.5 46.5v34c0 2.761 2.239 5 5 5h45c-2.761 0-5-2.239-5-5z" fill="#99e6fc"/></g><g fill="#ffbd86"><path d="m165.902 263.258h-14.902c-11.046 0-20 8.954-20 20v21.001c0 11.046 8.954 20 20 20h14.902z"/><path d="m361 263.258h-14.902v61.001h14.902c11.046 0 20-8.954 20-20v-21.001c0-11.046-8.954-20-20-20z"/></g><path d="m291.815 419v-17.748c-4.954 1.118-10.1 1.727-15.391 1.727h-40.849c-5.291 0-10.437-.609-15.391-1.727v45.791c0 5.523 4.477 10 10 10h40.189z" fill="#f6a96c"/><path d="m251 447.043v-44.064h-15.425c-5.291 0-10.437-.609-15.391-1.727v45.791c0 5.523 4.477 10 10 10h30.816c-5.523 0-10-4.477-10-10z" fill="#ea9b58"/><path d="m208.598 352.242c2.583 1.086 5.58-.385 6.235-3.11 3.139-13.057 14.888-22.76 28.907-22.76h24.518c14.02 0 25.769 9.703 28.907 22.76.655 2.725 3.652 4.196 6.235 3.11 25.08-10.543 42.696-35.33 42.696-64.242v.002-34.638c0-26.535-21.51-48.045-48.045-48.045h-84.106c-26.535 0-48.045 21.51-48.045 48.045v34.636c.002 28.912 17.618 53.699 42.698 64.242z" fill="#ffbd86"/><path d="m208.598 352.242c.391.165.792.264 1.193.315-3.206-8.005-4.988-16.734-4.988-25.884v-73.309c0-26.535 21.511-48.045 48.045-48.045h-38.902c-26.535 0-48.045 21.51-48.045 48.045v34.636c.001 28.912 17.617 53.699 42.697 64.242z" fill="#f6a96c"/><g><path d="m291.815 419-48.189 85.5h122.874v-85.5z" fill="#925cb4"/></g><g><path d="m291.815 419-48.189 85.5h30.5l48.189-85.5z" fill="#814ba2"/></g><g><g><path d="m303.402 352.242c-2.583 1.086-5.58-.385-6.235-3.11-3.139-13.057-14.888-22.76-28.907-22.76h-24.518c-14.02 0-25.769 9.703-28.907 22.76-.655 2.725-3.652 4.196-6.235 3.11-25.08-10.543-42.696-35.33-42.696-64.242v45.305c0 38.48 31.194 69.674 69.674 69.674h40.849c38.48 0 69.674-31.194 69.674-69.674v-45.305c-.003 28.912-17.619 53.699-42.699 64.242z" fill="#883f2e"/></g><g><g><path d="m198.108 346.724c-19.362-12.374-32.206-34.041-32.206-58.724v45.305c0 38.48 31.194 69.674 69.674 69.674h30.902c-33.888 0-62.113-24.198-68.37-56.255z" fill="#6d3326"/></g></g></g><g><path d="m380.297 413.293v-35.701c33.878-32.635 54.992-78.431 54.992-129.073 0-41.185-14.312-81.408-40.298-113.261-2.617-3.209-7.342-3.689-10.553-1.07-3.209 2.619-3.688 7.343-1.07 10.553 23.809 29.184 36.921 66.04 36.921 103.779 0 40.977-15.09 78.489-39.992 107.295v-31.986c5.06-4.99 8.203-11.918 8.203-19.569v-21.001c0-7.651-3.143-14.579-8.203-19.569v-44.663c0-46.563-37.882-84.445-84.445-84.445-8.337 0-16.387 1.235-24 3.497-11.123-7.908-24.702-12.578-39.358-12.578h-16.345c-46.563 0-84.445 37.882-84.445 84.445v53.743c-5.06 4.99-8.203 11.918-8.203 19.569v21.001c0 7.651 3.143 14.579 8.203 19.569v31.986c-24.902-28.807-39.992-66.318-39.992-107.295 0-90.589 73.7-164.289 164.289-164.289 37.509 0 74.188 12.969 103.281 36.517 3.22 2.607 7.942 2.109 10.549-1.111 2.605-3.22 2.108-7.942-1.111-10.548-31.757-25.703-71.787-39.858-112.72-39.858-98.86 0-179.289 80.429-179.289 179.289 0 50.642 21.115 96.439 54.992 129.073v35.7c-23.113 6.115-40.203 27.2-40.203 52.208v34c0 6.893 5.607 12.5 12.5 12.5h54c4.142 0 7.5-3.358 7.5-7.5s-3.358-7.5-7.5-7.5h-51.5v-31.5c0-21.505 17.495-39 39-39h67.185v20.543c0 9.665 7.835 17.5 17.5 17.5h27.353l-18.294 32.457h-45.244c-4.142 0-7.5 3.358-7.5 7.5s3.358 7.5 7.5 7.5h214c6.893 0 12.5-5.607 12.5-12.5v-34c0-25.008-17.091-46.093-40.203-52.207zm-6.797-130.035v21.001c0 6.893-5.607 12.5-12.5 12.5h-7.402v-46.001h7.402c6.893 0 12.5 5.607 12.5 12.5zm-19.902 50.047v-1.546h7.402c1.462 0 2.896-.117 4.297-.338v80.079h-65.981v-4.487c31.411-9.776 54.282-39.121 54.282-73.708zm-15-45.305c0 24.001-13.683 45.632-35.125 55.984-5.111-14.949-19.126-25.113-35.214-25.113h-24.518c-16.089 0-30.103 10.163-35.214 25.113-21.443-10.353-35.125-31.983-35.125-55.984v-34.636c0-22.357 18.188-40.545 40.545-40.545h84.105c22.357 0 40.546 18.188 40.546 40.545zm-42.746-138.419c38.292 0 69.445 31.153 69.445 69.445v37.07c-1.401-.221-2.835-.338-4.297-.338h-7.401v-2.394c0-29.776-23.552-54.147-53.005-55.481v-4.283c0-16.372-5.81-31.411-15.473-43.169 3.498-.551 7.079-.85 10.731-.85zm-149.149 60.364c0-38.292 31.153-69.445 69.445-69.445h16.345c29.279 0 53.101 23.821 53.101 53.1v4.219h-71.646c-30.628 0-55.545 24.917-55.545 55.545v2.394h-7.403c-1.462 0-2.896.117-4.297.338zm-8.203 94.314v-21.001c0-6.893 5.607-12.5 12.5-12.5h7.402v46.001h-7.402c-6.893 0-12.5-5.607-12.5-12.5zm74.185 107.241h-65.981v-80.079c1.401.221 2.835.338 4.297.338h7.402v1.546c0 34.587 22.871 63.932 54.283 73.708v4.487zm-39.281-77.727c8.087 10.98 19.12 19.847 32.288 25.383 3.279 1.378 6.985 1.245 10.166-.364 3.16-1.599 5.445-4.48 6.269-7.907 2.408-10.017 11.296-17.013 21.615-17.013h24.518c10.318 0 19.207 6.996 21.615 17.014.824 3.426 3.108 6.307 6.269 7.906 3.181 1.61 6.887 1.743 10.165.364 13.168-5.536 24.2-14.402 32.288-25.383-.254 34.067-28.046 61.707-62.172 61.707h-40.849c-34.126-.001-61.919-27.64-62.172-61.707zm56.781 115.77c-1.381 0-2.5-1.119-2.5-2.5v-36.965c2.595.265 5.227.401 7.891.401h40.849c2.664 0 5.297-.136 7.892-.401v6.954l-18.324 32.511zm175.315 47.457h-31.5v-13.686c0-4.107-3.165-7.688-7.27-7.811-4.248-.127-7.73 3.278-7.73 7.497v14h-102.538l39.735-70.5h62.803v21.5c0 4.218 3.482 7.623 7.73 7.497 4.105-.123 7.27-3.704 7.27-7.811v-20.455c17.928 3.507 31.5 19.329 31.5 38.269z"/><path d="m201.781 267v15.573c0 4.142 3.358 7.5 7.5 7.5s7.5-3.358 7.5-7.5v-15.573c0-4.142-3.358-7.5-7.5-7.5s-7.5 3.358-7.5 7.5z"/><path d="m302.719 290.073c4.143 0 7.5-3.358 7.5-7.5v-15.573c0-4.142-3.357-7.5-7.5-7.5s-7.5 3.358-7.5 7.5v15.573c0 4.142 3.357 7.5 7.5 7.5z"/><path d="m250.809 308.76h15.573c4.143 0 7.5-3.358 7.5-7.5s-3.357-7.5-7.5-7.5h-13.264v-19.493c0-4.142-3.358-7.5-7.5-7.5s-7.5 3.358-7.5 7.5v21.802c0 6.998 5.694 12.691 12.691 12.691z"/><path d="m261.643 46.036c4.143 0 7.5-3.358 7.5-7.5v-31.036c0-4.142-3.357-7.5-7.5-7.5s-7.5 3.358-7.5 7.5v31.036c0 4.142 3.357 7.5 7.5 7.5z"/><path d="m424.265 76.429-21.945 21.945c-2.929 2.929-2.929 7.678 0 10.606 1.465 1.464 3.385 2.197 5.304 2.197s3.839-.732 5.304-2.197l21.945-21.945c2.929-2.929 2.929-7.678 0-10.606-2.931-2.929-7.679-2.929-10.608 0z"/><path d="m495.82 245.463h-31.035c-4.143 0-7.5 3.358-7.5 7.5s3.357 7.5 7.5 7.5h31.035c4.143 0 7.5-3.358 7.5-7.5s-3.357-7.5-7.5-7.5z"/><path d="m54.715 241.678c0-4.142-3.358-7.5-7.5-7.5h-31.035c-4.142 0-7.5 3.358-7.5 7.5s3.358 7.5 7.5 7.5h31.035c4.142 0 7.5-3.358 7.5-7.5z"/><path d="m107.054 101c1.464 1.464 3.384 2.197 5.303 2.197s3.839-.732 5.303-2.197c2.929-2.929 2.929-7.678 0-10.606l-21.946-21.945c-2.929-2.929-7.678-2.929-10.606 0-2.929 2.929-2.929 7.678 0 10.606z"/><path d="m338.242 63.517c.938.389 1.911.573 2.867.573 2.943 0 5.735-1.744 6.932-4.632l11.876-28.673c1.586-3.827-.231-8.214-4.059-9.799-3.828-1.586-8.214.232-9.799 4.059l-11.876 28.673c-1.585 3.827.232 8.214 4.059 9.799z"/><path d="m451.055 180.137c.956 0 1.929-.184 2.867-.573l28.673-11.877c3.827-1.585 5.645-5.973 4.059-9.799s-5.972-5.644-9.799-4.059l-28.673 11.877c-3.827 1.585-5.645 5.973-4.059 9.799 1.196 2.889 3.988 4.632 6.932 4.632z"/><path d="m478.276 337.38-28.674-11.877c-3.825-1.583-8.213.232-9.799 4.059s.231 8.214 4.059 9.799l28.674 11.877c.938.389 1.91.573 2.867.573 2.943 0 5.735-1.744 6.932-4.632 1.586-3.826-.231-8.214-4.059-9.799z"/><path d="m58.078 315.077-28.673 11.877c-3.827 1.585-5.644 5.973-4.059 9.799 1.197 2.888 3.989 4.632 6.932 4.632.957 0 1.929-.184 2.867-.573l28.673-11.877c3.827-1.585 5.644-5.973 4.059-9.799-1.585-3.827-5.971-5.644-9.799-4.059z"/><path d="m68.137 155.279-28.673-11.876c-3.828-1.585-8.214.232-9.799 4.059s.232 8.214 4.059 9.799l28.673 11.876c.939.389 1.911.573 2.867.573 2.943 0 5.736-1.744 6.932-4.632 1.585-3.826-.232-8.214-4.059-9.799z"/><path d="m174.386 55.139c1.196 2.888 3.989 4.632 6.932 4.632.957 0 1.929-.184 2.867-.573 3.827-1.585 5.644-5.973 4.059-9.799l-11.877-28.673c-1.585-3.826-5.973-5.643-9.799-4.059-3.827 1.585-5.644 5.973-4.059 9.799z"/><path d="m281.43 361.303c2.93-2.929 2.93-7.677.001-10.606-2.93-2.929-7.679-2.93-10.606 0-8.176 8.173-21.474 8.173-29.648 0-2.929-2.929-7.678-2.929-10.606 0-2.929 2.929-2.929 7.678 0 10.606 7.012 7.012 16.219 10.517 25.43 10.517 9.207 0 18.419-3.507 25.429-10.517z"/></g></g></svg>