<svg id="Layer_1" height="512" viewBox="0 0 128 128" width="512" xmlns="http://www.w3.org/2000/svg" data-name="Layer 1"><path d="m24.192 38.084h6v83.416h-6z" fill="#a5a5a4"/><path d="m58.025 38.084h6v83.416h-6z" fill="#a5a5a4" transform="matrix(-1 0 0 -1 122.051 159.584)"/><path d="m60.919 7.149-50.612 22.6a5.879 5.879 0 0 0 0 11l50.612 22.6a7.631 7.631 0 0 0 6.161 0l50.612-22.6a5.879 5.879 0 0 0 0-11l-50.611-22.6a7.631 7.631 0 0 0 -6.162 0z" fill="#3979b6"/><path d="m64 58a1.562 1.562 0 0 1 -.634-.128l-50.666-22.622 50.666-22.622a1.636 1.636 0 0 1 1.269 0l50.665 22.622-50.665 22.622a1.566 1.566 0 0 1 -.635.128z" fill="#fb503c"/><g fill="#f3d55b"><circle cx="64" cy="19.192" r="5"/><circle cx="78.583" cy="19.192" r="5"/><circle cx="93.167" cy="19.192" r="5"/><circle cx="107.75" cy="19.192" r="5"/><circle cx="49.417" cy="19.192" r="5"/><circle cx="34.833" cy="19.192" r="5"/><circle cx="20.25" cy="19.192" r="5"/></g><path d="m30.19 79.25a1.75 1.75 0 0 0 -1.75 1.75v4.25a1.75 1.75 0 0 0 3.5 0v-4.25a1.75 1.75 0 0 0 -1.75-1.75z" fill="#26180d"/><path d="m85.142 53.368-2.928 1.308a1.75 1.75 0 1 0 1.428 3.2l2.928-1.308a1.75 1.75 0 0 0 -1.428-3.2z" fill="#26180d"/><path d="m118.4 28.152-7.16-3.2a6.756 6.756 0 1 0 -10.123-4.518l-1.239-.553a6.741 6.741 0 0 0 -11.7-5.23l-20.378-9.097a9.289 9.289 0 0 0 -7.589 0l-20.389 9.1a6.744 6.744 0 0 0 -11.7 5.23l-1.239.553a6.749 6.749 0 1 0 -10.123 4.518l-7.16 3.196a7.621 7.621 0 0 0 0 14.2l12.84 5.732v73.417a1.75 1.75 0 0 0 1.75 1.75h6a1.75 1.75 0 0 0 1.75-1.75v-29.062a1.75 1.75 0 0 0 -3.5 0v27.312h-2.5v-70.1l2.5 1.116v24.3a1.75 1.75 0 0 0 3.5 0v-22.741l24.34 10.869v58.306a1.75 1.75 0 0 0 1.75 1.75h6a1.75 1.75 0 0 0 1.75-1.75v-55.921a9.25 9.25 0 0 0 2.015-.632l9.4-4.2a1.75 1.75 0 1 0 -1.428-3.2l-9.406 4.2a5.87 5.87 0 0 1 -4.731 0l-50.612-22.6a4.132 4.132 0 0 1 0-7.8l18.358-8.193a6.791 6.791 0 0 0 2.007 1.831l-3.3 1.474c-16.383 7.318-16.383 7.318-16.62 7.554a1.75 1.75 0 0 0 .387 2.767c.074.041.074.041 13.917 6.221l8.351 3.728a1.75 1.75 0 1 0 1.427-3.2l-8.351-3.729-10.2-4.555c2.989-1.336 7.559-3.376 12.526-5.594l14.476-6.464a6.745 6.745 0 0 0 12.036-5.366l1.546-.69a6.75 6.75 0 1 0 12.854 0l1.546.69a6.743 6.743 0 0 0 12.036 5.366l14.477 6.464 12.525 5.594-47.016 20.99-21.4-9.55a1.75 1.75 0 1 0 -1.427 3.2l21.413 9.556a3.127 3.127 0 0 0 1.414.309 3.036 3.036 0 0 0 1.343-.282c50.686-22.626 50.691-22.628 50.739-22.652a1.75 1.75 0 0 0 .455-2.8c-.234-.235-.234-.235-16.625-7.553l-3.3-1.474a6.793 6.793 0 0 0 2.007-1.831l18.36 8.194a4.132 4.132 0 0 1 0 7.8l-25.314 11.3a1.75 1.75 0 1 0 1.428 3.2l25.312-11.3a7.621 7.621 0 0 0 0-14.2zm-10.65-12.21a3.25 3.25 0 1 1 -3.25 3.25 3.254 3.254 0 0 1 3.25-3.25zm-87.5 0a3.25 3.25 0 1 1 -3.25 3.25 3.254 3.254 0 0 1 3.25-3.25zm42.03 49.646v54.162h-2.5v-54.993l.424.189a9.25 9.25 0 0 0 2.076.642zm30.887-49.646a3.25 3.25 0 1 1 -3.25 3.25 3.254 3.254 0 0 1 3.25-3.25zm-58.333 0a3.25 3.25 0 1 1 -3.25 3.25 3.254 3.254 0 0 1 3.249-3.25zm6.622 4.549a6.647 6.647 0 0 0 -.026-2.722l1.588-.709a6.712 6.712 0 0 0 -.351 2.132 6.787 6.787 0 0 0 .042.739zm7.961 1.951a3.25 3.25 0 1 1 3.25-3.25 3.254 3.254 0 0 1 -3.25 3.25zm14.583 0a3.25 3.25 0 1 1 3.25-3.25 3.254 3.254 0 0 1 -3.25 3.25zm1.412-11.378a3.431 3.431 0 0 0 -2.757-.032s-3.3 1.477-8.215 3.668a6.774 6.774 0 0 0 -2.34-1.7l9.533-4.256a5.86 5.86 0 0 1 4.73 0l9.537 4.256a6.775 6.775 0 0 0 -2.337 1.7c-4.87-2.169-8.148-3.636-8.151-3.636zm13.171 11.378a3.25 3.25 0 1 1 3.25-3.25 3.254 3.254 0 0 1 -3.25 3.25zm6.708-2.512a6.783 6.783 0 0 0 .042-.738 6.711 6.711 0 0 0 -.351-2.133l1.589.709a6.646 6.646 0 0 0 -.026 2.722z" fill="#26180d"/></svg>