<svg id="Capa_1" enable-background="new 0 0 512.01 512.01" height="512" viewBox="0 0 512.01 512.01" width="512" xmlns="http://www.w3.org/2000/svg"><g id="XMLID_235_"><g id="XMLID_205_"><g id="XMLID_1826_"><path id="XMLID_1883_" d="m131.59 177.897c-23.518-48.475-19.243-103.367 15.265-137.876 45.784-45.784 127.448-38.349 182.403 16.606 52.119 52.119 61.495 128.263 23.268 175.038z" fill="#ffd88e"/></g><g id="XMLID_1823_"><path id="XMLID_1882_" d="m283.329 213.521-149.985-12.63c-49.317 81.015-49.965 174.761 4.992 229.718 13.613 13.613 29.607 23.811 47.197 30.706-1.465 16.118 9.08 32.029 26.315 35.613 15.937 3.314 32.708 5.082 50.022 5.082 104.781 0 189.723-64.785 189.723-144.702 0-74.383-73.586-135.658-168.264-143.787z" fill="#ff7a7a"/></g><g id="XMLID_1822_"><path d="m189.898 447.647c-11.355 19.616-.241 44.667 21.95 49.281 7.819 1.626 15.841 2.874 24.027 3.73l9.831-65.4-.027-.019c-6.591-.695-13.006-1.792-19.183-3.285-14.326-3.463-29.215 2.938-36.598 15.693z" fill="#f4c6af"/></g><g id="XMLID_1821_"><path id="XMLID_1829_" d="m248.819 317.945 18.394-7.205c22.105-8.659 40.61-24.887 51.284-46.093 6.364-12.643 9.728-26.284 9.814-40.417.005-.727-.029-1.448-.094-2.162l-.152-.413c.037.011.074.022.112.033-1.214-11.255-10.812-20.629-22.305-20.796-12.736-.185-23.118 10.083-23.118 22.777 0 28.282-28.252 53.038-66.224 61.672-20.783 4.726-45.949 12.361-65.92 19.718l-.003-.016c-7.603 3.084-15.909 4.798-24.619 4.798-10.127 0-19.717-2.3-28.279-6.401-4.854 48.836 8.209 94.75 40.626 127.167 13.613 13.613 29.607 23.811 47.197 30.706.421-4.635 1.829-9.287 4.365-13.668 7.383-12.755 22.272-19.156 36.597-15.693 11.136 2.692 23.026 4.147 35.374 4.147 17.502 0 34.081-2.927 48.9-8.152l-3.285-5.168c0-30.832-23.081-56.274-52.907-59.989-5.194-.647-10.04-2.957-13.741-6.658-11.882-11.883-7.666-32.056 7.984-38.187z" fill="#cbf4fb"/></g><g id="XMLID_1819_"><path d="m166.859 182.783 3.032-3.026c16.841-16.811 23.443-41.325 17.322-64.32h23.752c7.323 0 14.525-1.864 20.928-5.417 16.833-9.34 37.817-6.395 51.429 7.217l2.72 2.72c25.13 25.13 25.13 65.874 0 91.004-25.13 25.13-65.874 25.13-91.004 0z" fill="#f4c6af"/></g><g id="XMLID_1810_"><circle cx="125.988" cy="244.299" fill="#ffd0c6" r="65.544"/></g><g id="XMLID_295_"><circle cx="114.381" cy="405.087" fill="#f4c6af" r="32.923"/></g></g><g id="XMLID_43_"><path id="XMLID_46_" d="m247.029 166.755c-5.522 0-10 4.478-10 10 0 1.134-.922 2.056-2.056 2.056-5.522 0-10 4.478-10 10s4.478 10 10 10c12.161 0 22.056-9.895 22.056-22.056 0-5.522-4.477-10-10-10z"/><g id="XMLID_80_"><path id="XMLID_1818_" d="m446.59 391.866c-5.104-2.123-10.953.295-13.073 5.394-23.566 56.674-92.546 94.751-171.647 94.751-4.833 0-9.649-.162-14.445-.449l7.162-45.638c2.42.106 4.847.177 7.283.177 32.582 0 63.326-9.489 86.569-26.719 24.141-17.896 37.436-41.971 37.436-67.791 0-5.522-4.478-10-10-10s-10 4.478-10 10c0 26.585-19.539 49.958-48.865 63.148-3.654-31.883-28.729-57.825-61.194-61.871-3.021-.375-5.827-1.727-7.906-3.806-3.233-3.234-4.552-7.656-3.616-12.134s3.915-8.003 8.175-9.671l18.393-7.205c24.856-9.737 44.946-27.816 56.568-50.908 5.452-10.831 8.869-22.211 10.219-33.949 45.174 15.867 80.421 45.694 95.581 81.476 1.615 3.812 5.317 6.102 9.213 6.102 1.301 0 2.623-.256 3.896-.795 5.085-2.155 7.461-8.024 5.307-13.109-9.389-22.157-25.49-42.733-46.565-59.503-10.951-8.714-23.286-16.411-36.577-22.912 14.573-23.509 20.244-52.51 16.008-82.919-4.781-34.314-21.893-67.69-48.182-93.979-28.23-28.229-64.029-45.62-100.806-48.968-37.456-3.41-71.461 8.082-95.74 32.361-33.75 33.75-42.125 86.096-22.792 136.359-37.427 4.464-66.548 36.381-66.548 74.991 0 27.484 14.758 51.58 36.761 64.799-1.416 20.74.287 40.597 5.075 59.208-12.467 7.519-20.823 21.192-20.823 36.781 0 23.668 19.255 42.923 42.923 42.923 7.867 0 15.24-2.137 21.586-5.846 11.631 10.635 24.893 19.286 39.565 25.803.413 4.776 1.619 9.529 3.659 14.091 5.733 12.818 16.894 21.808 30.621 24.662 16.887 3.511 34.401 5.291 52.057 5.291 42.832 0 83.648-10.311 118.038-29.815 34.204-19.4 59.127-46.115 72.076-77.256 2.122-5.101-.293-10.954-5.392-13.074zm-292.663-344.774c20.007-20.007 48.341-29.443 79.784-26.587 32.127 2.925 63.548 18.264 88.476 43.192 45.701 45.699 56.985 110.953 27.727 154.692-4.366-1.664-8.805-3.207-13.309-4.614-3.913-11.629-14.162-20.648-26.359-22.518 9.72-26.387 4.023-57.217-17.131-78.372l-2.721-2.721c-16.679-16.677-42.73-20.332-63.354-8.89-4.905 2.723-10.464 4.161-16.075 4.161h-23.752c-3.106 0-6.036 1.443-7.929 3.906s-2.534 5.665-1.734 8.666c5.186 19.48-.455 40.429-14.723 54.67 0 0-3.484 3.501-3.692 3.753-6.307-3.093-13.108-5.32-20.247-6.554-20.441-45.201-14.707-93.039 15.039-122.784zm45.713 180.466c12.357 8.143 26.628 12.216 40.899 12.216 10.532 0 21.06-2.228 30.822-6.663-5.559 19.019-27.459 35.752-57.047 42.481-6.998 1.591-14.648 3.555-22.528 5.757 6.194-10.956 9.748-23.592 9.748-37.05-.001-5.754-.669-11.352-1.894-16.741zm2.468-23.668-21.253-21.253c13.623-15.819 20.166-36.582 18.258-57.2h11.851c8.998 0 17.912-2.308 25.78-6.673 12.86-7.138 29.106-4.856 39.506 5.544l2.721 2.721c10.266 10.265 15.919 23.913 15.919 38.431s-5.653 28.166-15.919 38.431c-21.19 21.191-55.671 21.191-76.863-.001zm-131.664 40.409c0-30.628 24.917-55.545 55.544-55.545 30.266 0 54.938 24.335 55.518 54.464-1.223 2.326-3.959 3.553-6.571 2.788-5.301-1.546-10.854 1.491-12.405 6.792-1.55 5.301 1.491 10.854 6.792 12.405 2.385.696 4.814 1.042 7.23 1.042.153 0 .306-.012.459-.014-8.522 19.75-28.181 33.612-51.022 33.612-30.628 0-55.545-24.917-55.545-55.544zm43.937 183.711c-12.64 0-22.923-10.283-22.923-22.923 0-12.641 10.283-22.924 22.923-22.924s22.923 10.283 22.923 22.924c0 12.64-10.284 22.923-22.923 22.923zm66.862 14.627c-.906 1.565-1.704 3.167-2.401 4.795-10.385-5.124-19.888-11.522-28.388-19.127 4.327-6.699 6.85-14.667 6.85-23.218 0-23.668-19.255-42.924-42.923-42.924-1.011 0-2.011.048-3.006.117-3.536-14.171-5.062-29.21-4.568-44.912 6.128 1.61 12.555 2.475 19.181 2.475 9.701 0 18.97-1.858 27.499-5.204 20.43-7.525 45.704-15.099 65.261-19.545 20.284-4.612 38.71-13.79 51.883-25.841 14.474-13.239 22.123-29.002 22.123-45.582 0-3.449 1.353-6.683 3.81-9.104 2.455-2.42 5.664-3.707 9.163-3.675 6.747.098 12.627 6.302 12.584 13.277-.076 12.497-3.019 24.603-8.747 35.981-9.403 18.683-25.739 33.342-45.999 41.277l-18.393 7.205c-10.502 4.114-18.15 13.162-20.457 24.203-2.308 11.04 1.077 22.393 9.051 30.366 5.21 5.21 12.162 8.588 19.577 9.511 24.775 3.087 43.539 24 44.115 48.891-11.108 2.907-23.094 4.495-35.589 4.495-11.297 0-22.408-1.301-33.024-3.866-18.485-4.466-38.061 3.923-47.602 20.405zm46.257 46.886c-4.58-.667-9.125-1.452-13.616-2.385-7.365-1.531-13.354-6.358-16.435-13.245-3.1-6.931-2.697-14.671 1.103-21.235 5.134-8.869 15.657-13.382 25.595-10.983 3.466.838 6.98 1.544 10.526 2.145z"/><path id="XMLID_1867_" d="m153.487 314.639c-.144.053.145-.046 0 0z"/></g><path id="XMLID_1869_" d="m451.54 347.308c-5.522 0-10 4.478-10 10s4.478 10 10 10h.053c5.522 0 9.974-4.478 9.974-10s-4.505-10-10.027-10z"/></g></g></svg>