<svg height="512" viewBox="0 0 64 64" width="512" xmlns="http://www.w3.org/2000/svg"><path d="m60.935 23.621a14.5 14.5 0 1 0 -29 0 14.5 14.5 0 1 0 -29 0 14.633 14.633 0 0 0 9.121 13.6 9.464 9.464 0 0 0 -.507 3.159c0 8.092 9.12 14.62 20.386 14.62s20.387-6.528 20.387-14.621a9.464 9.464 0 0 0 -.507-3.159 14.634 14.634 0 0 0 9.12-13.599z" fill="#4370ff"/><path d="m31.935 48.786c-8.478 0-14.386-4.472-14.386-8.485a2 2 0 0 1 4 0c0 1.152 3.571 4.485 10.386 4.485s10.387-3.333 10.387-4.486a2 2 0 0 1 4 0c0 4.014-5.908 8.486-14.387 8.486z"/><path d="m63 23.621a16.517 16.517 0 0 0 -31.065-7.921 16.5 16.5 0 0 0 -30.935 5.921h4.051a12.512 12.512 0 0 1 24.88 2 2 2 0 0 0 4.008 0 12.527 12.527 0 1 1 17.173 11.742 2 2 0 0 0 -1.147 2.517 7.453 7.453 0 0 1 .395 2.5c0 6.958-8.26 12.62-18.425 12.62s-18.425-5.662-18.425-12.621a7.453 7.453 0 0 1 .395-2.5 2 2 0 0 0 -1.147-2.517 12.69 12.69 0 0 1 -7.716-9.742h-4.042a16.791 16.791 0 0 0 8.666 12.71 12.313 12.313 0 0 0 -.166 2.049c0 9.165 10.066 16.621 22.435 16.621s22.434-7.456 22.434-16.621a12.311 12.311 0 0 0 -.165-2.048 16.785 16.785 0 0 0 8.796-14.71z"/></svg>