<svg id="Capa_1" enable-background="new 0 0 512.001 512.001" height="512" viewBox="0 0 512.001 512.001" width="512" xmlns="http://www.w3.org/2000/svg"><g id="XMLID_998_"><circle id="XMLID_1012_" cx="384.611" cy="32.734" fill="#f2cd69" r="22.123"/><circle id="XMLID_1011_" cx="127.389" cy="32.734" fill="#adeefa" r="22.123"/><ellipse id="XMLID_1491_" cx="256" cy="161.345" fill="#e67d97" rx="31.743" ry="31.743" transform="matrix(.953 -.303 .303 .953 -36.816 85.009)"/><g id="XMLID_1007_"><path id="XMLID_1523_" d="m455.267 265.101 28.883-14.202-4.582 31.858 22.432 23.08-31.714 5.488-15.019 28.466-15.019-28.466-31.714-5.488 22.432-23.08-4.582-31.858z" fill="#adeefa"/></g><g id="XMLID_1003_"><path id="XMLID_1006_" d="m56.734 228.442-28.883-14.201 4.581 31.857-22.432 23.081 31.715 5.487 15.019 28.467 15.019-28.467 31.714-5.487-22.432-23.081 4.581-31.857z" fill="#f2cd69"/></g><g id="XMLID_149_"><g id="XMLID_161_"><path id="XMLID_199_" d="m256 119.603c-23.017 0-41.743 18.726-41.743 41.743s18.726 41.743 41.743 41.743 41.743-18.726 41.743-41.743-18.726-41.743-41.743-41.743zm0 63.485c-11.989 0-21.743-9.754-21.743-21.743s9.754-21.743 21.743-21.743 21.743 9.754 21.743 21.743-9.754 21.743-21.743 21.743z"/><path id="XMLID_203_" d="m256 20c2.63 0 5.21-1.07 7.07-2.93s2.93-4.44 2.93-7.07-1.07-5.21-2.93-7.07-4.44-2.93-7.07-2.93-5.21 1.07-7.07 2.93-2.93 4.44-2.93 7.07 1.07 5.21 2.93 7.07 4.44 2.93 7.07 2.93z"/><path id="XMLID_215_" d="m309.558 117.787c2.559 0 5.119-.977 7.071-2.929l28.312-28.312c3.905-3.905 3.906-10.237.001-14.142-3.906-3.905-10.237-3.905-14.142 0l-28.312 28.312c-3.905 3.905-3.906 10.237 0 14.142 1.952 1.953 4.511 2.929 7.07 2.929z"/><path id="XMLID_216_" d="m356.339 271.684c2.559 0 5.119-.977 7.071-2.929 3.905-3.905 3.905-10.237 0-14.142l-46.781-46.781c-3.905-3.905-10.237-3.905-14.142.001-3.905 3.905-3.905 10.237 0 14.142l46.781 46.781c1.953 1.952 4.512 2.928 7.071 2.928z"/><path id="XMLID_217_" d="m256 227.088c-5.523 0-10 4.477-10 10v43.497c0 5.523 4.477 10 10 10s10-4.477 10-10v-43.497c0-5.523-4.477-10-10-10z"/><path id="XMLID_218_" d="m104.66 171.35c2.63 0 5.2-1.07 7.07-2.93 1.86-1.87 2.93-4.44 2.93-7.08 0-2.63-1.07-5.2-2.93-7.07-1.86-1.86-4.44-2.92-7.07-2.92-2.64 0-5.22 1.06-7.08 2.92-1.86 1.87-2.93 4.44-2.93 7.07 0 2.64 1.07 5.21 2.93 7.08 1.87 1.86 4.44 2.93 7.08 2.93z"/><path id="XMLID_219_" d="m195.371 207.832-41.093 41.093c-3.905 3.905-3.905 10.237.001 14.142 1.953 1.953 4.512 2.929 7.071 2.929s5.119-.977 7.071-2.929l41.093-41.093c3.905-3.905 3.905-10.237-.001-14.142-3.905-3.906-10.236-3.905-14.142 0z"/><path id="XMLID_220_" d="m144.655 151.345c-5.523 0-10 4.477-10 10s4.477 10 10 10h35.603c5.523 0 10-4.477 10-10s-4.477-10-10-10z"/><path id="XMLID_221_" d="m407.34 151.35c-2.63 0-5.2 1.06-7.07 2.92-1.86 1.87-2.92 4.44-2.92 7.07 0 2.64 1.06 5.22 2.92 7.08 1.87 1.86 4.44 2.93 7.07 2.93 2.64 0 5.21-1.07 7.08-2.93 1.86-1.86 2.93-4.44 2.93-7.08 0-2.63-1.07-5.2-2.93-7.07-1.86-1.86-4.44-2.92-7.08-2.92z"/><path id="XMLID_222_" d="m331.739 151.345c-5.523 0-10 4.477-10 10s4.477 10 10 10h29.996c5.523 0 10-4.477 10-10s-4.477-10-10-10z"/><path id="XMLID_223_" d="m256 368.615c-5.523 0-10 4.477-10 10v123.385c0 5.523 4.477 10 10 10s10-4.477 10-10v-123.385c0-5.523-4.477-10-10-10z"/><path id="XMLID_226_" d="m509.171 298.867-19.005-19.554 3.881-26.991c.528-3.671-1.02-7.333-4.02-9.514-3.001-2.18-6.962-2.52-10.29-.884l-24.47 12.032-24.47-12.032c-3.328-1.636-7.289-1.295-10.29.884-3.001 2.18-4.548 5.842-4.02 9.514l3.881 26.991-19.005 19.554c-2.585 2.66-3.486 6.532-2.34 10.06s4.151 6.131 7.806 6.764l26.87 4.649 12.725 24.118c1.73 3.28 5.135 5.334 8.844 5.334s7.114-2.053 8.844-5.334l12.725-24.118 26.87-4.649c3.655-.632 6.659-3.236 7.806-6.764 1.144-3.527.244-7.4-2.342-10.06zm-40.59 2.604c-3.055.529-5.692 2.445-7.139 5.187l-6.175 11.703-6.175-11.703c-1.447-2.742-4.084-4.658-7.139-5.187l-13.038-2.256 9.222-9.488c2.161-2.224 3.169-5.324 2.727-8.393l-1.883-13.098 11.874 5.838c2.783 1.368 6.042 1.368 8.825 0l11.874-5.838-1.883 13.098c-.441 3.069.566 6.169 2.727 8.393l9.222 9.488z"/><path id="XMLID_151_" d="m387.877 348.593c-30.768 30.767-47.712 71.675-47.712 115.187v38.22c0 5.523 4.477 10 10 10s10-4.477 10-10v-38.22c0-38.17 14.864-74.055 41.854-101.045 3.905-3.905 3.905-10.237 0-14.142s-10.236-3.904-14.142 0z"/><path id="XMLID_1466_" d="m112.978 272.269c1.146-3.528.246-7.4-2.34-10.06l-19.005-19.554 3.881-26.991c.528-3.671-1.02-7.333-4.02-9.514-3.001-2.18-6.961-2.52-10.291-.883l-24.47 12.032-24.47-12.032c-3.328-1.637-7.289-1.296-10.291.883-3 2.18-4.548 5.842-4.02 9.514l3.881 26.991-19.004 19.554c-2.585 2.66-3.486 6.532-2.34 10.06 1.146 3.527 4.151 6.131 7.806 6.763l26.87 4.649 12.725 24.118c1.73 3.28 5.135 5.333 8.844 5.333s7.114-2.053 8.844-5.333l12.725-24.118 26.87-4.649c3.654-.632 6.658-3.235 7.805-6.763zm-42.93-7.456c-3.055.528-5.692 2.445-7.139 5.187l-6.175 11.703-6.175-11.703c-1.447-2.742-4.084-4.659-7.139-5.187l-13.038-2.256 9.222-9.489c2.161-2.224 3.168-5.324 2.727-8.393l-1.883-13.098 11.874 5.839c2.783 1.368 6.042 1.368 8.825 0l11.874-5.839-1.883 13.098c-.441 3.069.566 6.169 2.727 8.393l9.222 9.489z"/><path id="XMLID_1469_" d="m109.981 311.934c-3.905 3.905-3.905 10.237 0 14.143 26.99 26.99 41.854 62.875 41.854 101.044v74.879c0 5.523 4.477 10 10 10s10-4.477 10-10v-74.879c0-43.512-16.944-84.419-47.712-115.187-3.904-3.905-10.237-3.905-14.142 0z"/><path id="XMLID_1703_" d="m384.612 64.857c17.712 0 32.123-14.41 32.123-32.123s-14.41-32.123-32.123-32.123-32.122 14.41-32.122 32.123 14.409 32.123 32.122 32.123zm0-44.245c6.685 0 12.123 5.438 12.123 12.123s-5.438 12.123-12.123 12.123c-6.684 0-12.122-5.438-12.122-12.123s5.437-12.123 12.122-12.123z"/><path id="XMLID_1832_" d="m195.371 114.858c1.953 1.953 4.512 2.929 7.071 2.929s5.119-.977 7.071-2.929c3.905-3.905 3.905-10.237 0-14.142l-28.313-28.312c-3.905-3.905-10.237-3.905-14.142 0s-3.905 10.237.001 14.142z"/><path id="XMLID_1835_" d="m127.389 64.857c17.712 0 32.122-14.41 32.122-32.123s-14.41-32.123-32.122-32.123-32.123 14.41-32.123 32.123 14.411 32.123 32.123 32.123zm0-44.245c6.685 0 12.122 5.438 12.122 12.123s-5.438 12.123-12.122 12.123c-6.685 0-12.123-5.438-12.123-12.123s5.438-12.123 12.123-12.123z"/><path id="XMLID_1836_" d="m256 95.603c5.523 0 10-4.477 10-10v-35.603c0-5.523-4.477-10-10-10s-10 4.477-10 10v35.602c0 5.524 4.477 10.001 10 10.001z"/><path id="XMLID_1908_" d="m256 323.66c-2.63 0-5.21 1.07-7.07 2.93s-2.93 4.44-2.93 7.07c0 2.64 1.07 5.21 2.93 7.08 1.86 1.86 4.44 2.92 7.07 2.92s5.21-1.06 7.07-2.92c1.86-1.87 2.93-4.45 2.93-7.08s-1.07-5.2-2.93-7.07c-1.86-1.86-4.44-2.93-7.07-2.93z"/></g></g></g></svg>