<svg id="Layer_1" enable-background="new 0 0 512 512" height="512" viewBox="0 0 512 512" width="512" xmlns="http://www.w3.org/2000/svg"><g><g><path clip-rule="evenodd" d="m10.255 409.904c39.494 7.026 91.368-2.522 125.479-19.747 32.439 12.381 68.562 16.263 105.165 9.435 11.304-2.097 22.183-5.128 32.609-9.01v-55.077c0-5.496 4.505-10.03 10.001-10.03h77.288c31.958-42.243 46.69-97.264 36.207-153.446-19.718-105.962-121.597-175.857-227.556-156.138-90.461 16.858-154.66 93.609-159.193 181.637v20.002c.453 8.613 1.445 17.254 3.088 25.952 4.703 25.414 14.194 48.731 27.283 69.243-3.06 32.242-9.661 60.942-30.371 96.697zm167.721-200.845c0-12.126 9.888-22.014 22.013-22.014 24.28 0 43.63-20.512 42.355-44.708-1.133-21.957-19.492-39.665-41.449-40.118-21.447-.425-39.947 15.214-42.893 36.463-1.672 12.013-12.834 20.427-24.846 18.756s-20.455-12.834-18.784-24.847c6.035-43.32 43.658-75.278 87.402-74.4 45.047.907 82.217 36.86 84.569 81.851 2.153 41.705-25.781 77.998-64.312 88.197v18.189c0 12.126-9.916 22.014-22.042 22.014s-22.013-9.888-22.013-22.014zm0 122.337c0-12.183 9.859-22.042 22.013-22.042 12.182 0 22.042 9.859 22.042 22.042 0 12.154-9.859 22.014-22.042 22.014-12.154 0-22.013-9.859-22.013-22.014z" fill="#ffcd69" fill-rule="evenodd"/></g><g><path clip-rule="evenodd" d="m177.976 246.429c0 12.126 9.888 22.014 22.013 22.014 12.126 0 22.042-9.888 22.042-22.014v-18.189c38.53-10.2 66.465-46.493 64.312-88.197-2.352-44.991-39.522-80.945-84.569-81.851-43.743-.878-81.367 31.08-87.402 74.4-1.672 12.013 6.771 23.176 18.784 24.847s23.175-6.743 24.846-18.756c2.946-21.249 21.447-36.888 42.893-36.463 21.957.453 40.315 18.161 41.449 40.118 1.275 24.196-18.075 44.708-42.355 44.708-12.126 0-22.013 9.888-22.013 22.014z" fill="#faf7f5" fill-rule="evenodd"/></g><g><path clip-rule="evenodd" d="m177.976 331.396c0 12.154 9.859 22.014 22.013 22.014 12.182 0 22.042-9.859 22.042-22.014 0-12.183-9.859-22.042-22.042-22.042-12.154 0-22.013 9.859-22.013 22.042z" fill="#faf7f5" fill-rule="evenodd"/></g><g><path clip-rule="evenodd" d="m283.51 460.533h128.482l52.526 38.928v-38.928h27.453c5.496 0 10.029-4.505 10.029-10.03v-115c0-5.525-4.533-10.03-10.029-10.03h-131.174-77.287c-5.496 0-10.001 4.533-10.001 10.03v55.077 59.922c0 5.498 4.505 10.031 10.001 10.031z" fill="#66e0f7" fill-rule="evenodd"/></g><g><path d="m199.989 299.353c-17.652 0-32.014 14.361-32.014 32.015 0 17.668 14.361 32.042 32.014 32.042 17.668 0 32.042-14.374 32.042-32.042 0-17.653-14.374-32.015-32.042-32.015zm0 44.057c-6.624 0-12.014-5.402-12.014-12.042 0-6.625 5.39-12.015 12.014-12.015 6.64 0 12.042 5.39 12.042 12.015 0 6.64-5.402 12.042-12.042 12.042z"/><path d="m232.031 235.608c39.835-14.102 66.507-53.313 64.298-96.088-2.624-50.199-44.068-90.315-94.354-91.328-48.814-.985-90.777 34.71-97.507 83.02-1.177 8.456 1.021 16.877 6.188 23.712 5.166 6.832 12.667 11.242 21.121 12.418 8.453 1.177 16.872-1.013 23.703-6.168 6.837-5.159 11.25-12.657 12.427-21.118 2.217-15.982 15.969-27.846 32.127-27.846.217 0 .438.002.655.007 16.607.343 30.814 14.086 31.669 30.646.473 8.966-2.689 17.512-8.903 24.062-6.192 6.526-14.525 10.12-23.466 10.12-17.652 0-32.014 14.361-32.014 32.014v37.37c0 17.652 14.361 32.014 32.014 32.014 17.668 0 32.042-14.361 32.042-32.014zm-12.558-17.036c-4.387 1.161-7.441 5.13-7.441 9.667v18.189c0 6.624-5.402 12.014-12.042 12.014-6.624 0-12.014-5.39-12.014-12.014v-37.37c0-6.624 5.39-12.014 12.014-12.014 14.482 0 27.969-5.809 37.975-16.355 9.883-10.417 15.12-24.588 14.367-38.868-1.406-27.25-23.909-49.037-51.237-49.601-.354-.007-.704-.011-1.057-.011-26.119 0-48.351 19.217-51.939 45.094-.439 3.16-2.096 5.968-4.664 7.905-2.57 1.94-5.729 2.763-8.899 2.324-3.166-.44-5.98-2.1-7.925-4.672-1.944-2.571-2.772-5.729-2.333-8.891 5.333-38.28 38.599-66.563 77.297-65.782 39.855.803 72.704 32.594 74.783 72.369 1.856 35.99-22.067 68.799-56.885 78.016z"/><path d="m491.971 315.475h-112.249c26.604-43.152 36.48-95.081 27.114-145.274-10.025-53.873-40.43-100.615-85.611-131.616-45.181-31-99.732-42.554-153.612-32.524-25.744 4.806-49.924 14.266-71.867 28.119-4.67 2.948-6.065 9.124-3.117 13.795 2.948 4.669 9.123 6.066 13.795 3.117 19.793-12.496 41.614-21.032 64.854-25.37 48.615-9.046 97.854 1.375 138.631 29.353 40.776 27.979 68.217 70.163 77.266 118.788 9.226 49.451-2.224 100.772-31.435 141.611h-72.23c-11.028 0-20.001 8.985-20.001 20.029v47.982c-7.967 2.629-16.158 4.739-24.443 6.276-33.54 6.255-68.039 3.162-99.766-8.947-2.632-1.006-5.564-.853-8.079.419-29.708 15.026-71.778 22.953-105.398 20.505 17.539-34.323 22.348-62.55 24.76-88.072.209-2.218-.328-4.441-1.526-6.319-12.827-20.103-21.534-42.202-25.883-65.697-8.379-44.925.088-91.146 23.841-130.149 2.872-4.717 1.377-10.869-3.34-13.742-4.719-2.874-10.87-1.378-13.742 3.34-26.322 43.219-35.705 94.437-26.423 144.203 4.604 24.876 13.625 48.354 26.829 69.838-3.021 29.226-9.392 55.992-28.983 89.681-1.64 2.82-1.802 6.263-.433 9.224s4.096 5.068 7.307 5.646c9.401 1.691 19.626 2.506 30.265 2.506 32.682-.001 69.254-7.679 97.789-21.176 34.024 12.154 70.732 15.066 106.439 8.404 7.007-1.299 13.957-2.973 20.786-4.987v46.067c0 11.044 8.973 20.029 20.001 20.029h125.181l49.873 36.963c1.756 1.302 3.849 1.966 5.955 1.966 1.534 0 3.075-.353 4.497-1.068 3.373-1.699 5.502-5.154 5.502-8.932v-28.929h17.453c11.044 0 20.029-8.985 20.029-20.029v-115c0-11.045-8.985-20.03-20.029-20.03zm0 135.058h-27.453c-5.522 0-10 4.478-10 10v19.07l-36.571-27.104c-1.723-1.276-3.81-1.966-5.954-1.966l-128.483-.029.001-115.029h208.461l.029.029z"/><path d="m445.735 382.99c-5.522 0-10 4.506-10 10.028s4.478 10 10 10 10-4.478 10-10v-.057c0-5.522-4.478-9.971-10-9.971z"/><path d="m387.74 382.99c-5.522 0-10 4.506-10 10.028s4.478 10 10 10 10-4.478 10-10v-.057c0-5.522-4.477-9.971-10-9.971z"/><path d="m329.775 382.99c-5.522 0-10 4.506-10 10.028s4.478 10 10 10 10-4.478 10-10v-.057c0-5.522-4.478-9.971-10-9.971z"/><path d="m65.962 80.971c1.503 0 3.029-.34 4.464-1.058l.057-.028c4.94-2.47 6.914-8.463 4.444-13.402-2.47-4.94-8.507-6.928-13.444-4.458-4.94 2.47-6.942 8.477-4.473 13.416 1.752 3.504 5.283 5.53 8.952 5.53z"/></g></g></svg>