<?xml version="1.0" encoding="iso-8859-1"?>
<!-- Generator: Adobe Illustrator 19.0.0, SVG Export Plug-In . SVG Version: 6.00 Build 0)  -->
<svg version="1.1" id="Capa_1" xmlns="http://www.w3.org/2000/svg" xmlns:xlink="http://www.w3.org/1999/xlink" x="0px" y="0px"
	 viewBox="0 0 512 512" style="enable-background:new 0 0 512 512;" xml:space="preserve">
<rect x="256" y="10.001" style="fill:#72D8FF;" width="86" height="40"/>
<polygon style="fill:#FEDA9B;" points="376,203.001 256,83.001 136,203.001 136,502 376,502 "/>
<g>
	<rect x="376" y="262" style="fill:#FFB954;" width="126" height="240"/>
	<rect x="10" y="262" style="fill:#FFB954;" width="126" height="240"/>
</g>
<g>
	<rect x="376" y="206.001" style="fill:#FF5D5D;" width="126" height="56"/>
	<rect x="10" y="206.001" style="fill:#FF5D5D;" width="126" height="56"/>
</g>
<g>
	<rect x="176" y="382" style="fill:#C9F3FF;" width="160" height="120"/>
	<rect x="176" y="302" style="fill:#C9F3FF;" width="160" height="40"/>
	<rect x="53" y="302" style="fill:#C9F3FF;" width="40" height="40"/>
	<rect x="53" y="408" style="fill:#C9F3FF;" width="40" height="40"/>
	<rect x="417.09" y="302" style="fill:#C9F3FF;" width="40" height="40"/>
	<rect x="417.09" y="408" style="fill:#C9F3FF;" width="40" height="40"/>
</g>
<circle style="fill:#FF5D5D;" cx="255.53" cy="206.001" r="34.13"/>
<path d="M192,157.001c2.63,0,5.21-1.07,7.07-2.93s2.93-4.44,2.93-7.07s-1.07-5.21-2.93-7.07c-1.86-1.86-4.44-2.93-7.07-2.93
	s-5.21,1.07-7.07,2.93c-1.86,1.86-2.93,4.44-2.93,7.07s1.07,5.21,2.93,7.07C186.79,155.93,189.37,157.001,192,157.001z"/>
<path d="M502,196.001H383.136c-0.023-0.023-0.042-0.049-0.065-0.071L266,78.858V60.001h76c5.523,0,10-4.477,10-10v-40
	c0-5.523-4.477-10-10-10h-86c-5.523,0-10,4.477-10,10v68.857l-38.696,38.696c-3.905,3.905-3.905,10.237,0,14.143
	c3.905,3.905,10.237,3.905,14.143,0L256,97.143l110,110V492h-20V382c0-5.522-4.477-10-10-10H176c-5.523,0-10,4.478-10,10v110h-20
	V207.143l30.321-30.321c3.905-3.905,3.905-10.237,0-14.143c-3.905-3.905-10.237-3.905-14.143,0l-33.25,33.25
	c-0.023,0.023-0.042,0.048-0.065,0.071H10c-5.523,0-10,4.477-10,10v296c0,5.522,4.477,10,10,10h492c5.523,0,10-4.478,10-10V206.001
	C512,200.478,507.523,196.001,502,196.001z M332,40.001h-66v-20h66V40.001z M20,216.001h106v36H20V216.001z M20,272h106v220H20V272z
	 M492,252.001H386v-36h106V252.001z M186,392h60v100h-60V392z M266,492V392h60v100H266z M492,492H386V272h106V492z"/>
<path d="M299.66,206.001c0-24.332-19.795-44.127-44.127-44.127s-44.127,19.795-44.127,44.127s19.795,44.127,44.127,44.127
	S299.66,230.333,299.66,206.001z M255.533,230.128c-13.304,0-24.127-10.823-24.127-24.127s10.823-24.127,24.127-24.127
	s24.127,10.823,24.127,24.127S268.836,230.128,255.533,230.128z"/>
<path d="M166,302v40c0,5.522,4.477,10,10,10h160c5.523,0,10-4.478,10-10v-40c0-5.522-4.477-10-10-10h-36.5c-5.523,0-10,4.478-10,10
	c0,5.522,4.477,10,10,10H326v20H186v-20h29c5.523,0,10-4.478,10-10c0-5.522-4.477-10-10-10h-39C170.477,292,166,296.479,166,302z"/>
<path d="M248.46,294.93c-1.86,1.86-2.93,4.44-2.93,7.07s1.07,5.21,2.93,7.069c1.86,1.86,4.44,2.931,7.07,2.931
	c2.63,0,5.21-1.07,7.08-2.931c1.86-1.859,2.92-4.439,2.92-7.069s-1.06-5.21-2.92-7.07c-1.87-1.86-4.44-2.93-7.08-2.93
	C252.9,292,250.32,293.07,248.46,294.93z"/>
<path d="M93,292H53c-5.523,0-10,4.478-10,10v40c0,5.522,4.477,10,10,10h40c5.523,0,10-4.478,10-10v-40
	C103,296.479,98.523,292,93,292z M83,332H63v-20h20V332z"/>
<path d="M93,398H53c-5.523,0-10,4.478-10,10v40c0,5.522,4.477,10,10,10h40c5.523,0,10-4.478,10-10v-40
	C103,402.479,98.523,398,93,398z M83,438H63v-20h20V438z"/>
<path d="M417.086,352h40c5.523,0,10-4.478,10-10v-40c0-5.522-4.477-10-10-10h-40c-5.523,0-10,4.478-10,10v40
	C407.086,347.523,411.563,352,417.086,352z M427.086,312h20v20h-20V312z"/>
<path d="M417.086,458h40c5.523,0,10-4.478,10-10v-40c0-5.522-4.477-10-10-10h-40c-5.523,0-10,4.478-10,10v40
	C407.086,453.523,411.563,458,417.086,458z M427.086,418h20v20h-20V418z"/>
<g>
</g>
<g>
</g>
<g>
</g>
<g>
</g>
<g>
</g>
<g>
</g>
<g>
</g>
<g>
</g>
<g>
</g>
<g>
</g>
<g>
</g>
<g>
</g>
<g>
</g>
<g>
</g>
<g>
</g>
</svg>
