<svg id="Capa_1" enable-background="new 0 0 512 512" height="512" viewBox="0 0 512 512" width="512" xmlns="http://www.w3.org/2000/svg"><g id="XMLID_1111_"><path id="XMLID_1159_" d="m440.447 428.072c16.619-20.939 26.55-47.426 26.55-76.235 0-10.548-1.332-20.784-3.835-30.552 23.431-15.817 38.838-42.614 38.838-73.012 0-46.528-36.106-84.599-81.824-87.786 8.812-12.864 13.976-28.424 13.976-45.194 0-44.226-35.853-80.079-80.079-80.079-16.63 0-32.075 5.072-44.876 13.75-17.871-23.666-46.236-38.964-78.176-38.964-52.976 0-96.118 42.078-97.843 94.635-6.496-1.486-13.249-2.297-20.196-2.297-49.845 0-90.252 40.407-90.252 90.252 0 23.113 8.698 44.187 22.987 60.153-21.698 16.483-35.717 42.551-35.717 71.901 0 49.845 40.407 90.252 90.252 90.252 12.198 0 23.824-2.434 34.438-6.82 7.846 41.85 44.552 73.528 88.68 73.528 23.152 0 44.26-8.727 60.236-23.059 17.893 10.194 38.596 16.021 60.662 16.021 13.373 0 26.243-2.147 38.293-6.101 14.646 20.305 38.49 33.535 65.439 33.535 13.104 0 25.467-3.145 36.406-8.691-24.354-12.346-41.598-36.675-43.959-65.237z" fill="#ff7b79"/><g id="XMLID_1114_"><g id="XMLID_1116_"><path id="XMLID_1117_" d="m256 321.511c-12.15 0-22-9.85-22-22v-29.93c0-20.685 13.741-39.232 33.416-45.103 17.141-5.115 28.817-21.21 28.395-39.14-.492-20.923-17.915-38.346-38.837-38.838-10.842-.264-21.061 3.765-28.795 11.319-7.739 7.559-12.001 17.677-12.001 28.491 0 12.15-9.85 22-22 22s-22-9.85-22-22c0-22.763 8.969-44.061 25.256-59.968 16.282-15.904 37.795-24.35 60.575-23.831 21.541.507 41.857 9.239 57.205 24.586 15.347 15.347 24.079 35.663 24.586 57.205.888 37.708-23.704 71.567-59.802 82.339-1.157.345-1.997 1.582-1.997 2.94v29.93c-.001 12.15-9.851 22-22.001 22z" fill="#80b4ff"/></g><circle id="XMLID_1115_" cx="256" cy="387.511" fill="#80b6ff" r="22"/></g><g id="XMLID_1164_"><path id="XMLID_206_" d="m448 512c-26.624 0-51.955-11.846-69.1-32.008-11.257 3.038-22.876 4.574-34.632 4.574-20.67 0-41.073-4.833-59.431-14.027-17.538 13.63-39.105 21.065-61.467 21.065-44.32 0-82.912-29.039-95.741-70.502-8.869 2.521-18.036 3.794-27.377 3.794-14.572 0-28.629-3.061-41.78-9.097-5.02-2.304-7.221-8.241-4.917-13.26 2.304-5.02 8.239-7.223 13.26-4.917 10.515 4.826 21.765 7.273 33.437 7.273 10.584 0 20.886-2.04 30.619-6.061 2.784-1.151 5.939-.985 8.586.451 2.648 1.436 4.508 3.988 5.062 6.948 7.1 37.878 40.262 65.371 78.851 65.371 19.799 0 38.82-7.281 53.559-20.503 3.205-2.874 7.888-3.375 11.628-1.245 16.892 9.624 36.156 14.71 55.711 14.71 12.011 0 23.846-1.885 35.175-5.603 4.137-1.359 8.68.119 11.228 3.651 13.271 18.401 34.703 29.386 57.329 29.386 4.875 0 9.662-.485 14.335-1.451-18.115-15.394-29.869-37.631-31.854-61.653-.209-2.533.553-5.05 2.133-7.04 15.951-20.097 24.382-44.309 24.382-70.019 0-9.505-1.185-18.949-3.522-28.07-1.049-4.094.589-8.406 4.092-10.77 21.562-14.555 34.434-38.75 34.434-64.724 0-40.797-31.854-74.976-72.519-77.811-3.577-.249-6.747-2.395-8.308-5.623-1.561-3.229-1.273-7.046.753-10.004 7.998-11.676 12.226-25.349 12.226-39.542 0-38.642-31.437-70.079-70.079-70.079-14.081 0-27.659 4.159-39.265 12.027-4.409 2.988-10.384 1.998-13.592-2.251-16.791-22.237-42.376-34.99-70.195-34.99-47.698 0-86.285 37.32-87.849 84.963-.098 2.985-1.525 5.77-3.891 7.593s-5.422 2.491-8.333 1.828c-5.933-1.357-11.978-2.045-17.966-2.045-44.251 0-80.252 36-80.252 80.251 0 19.762 7.259 38.757 20.438 53.485 1.862 2.08 2.769 4.844 2.503 7.623-.267 2.779-1.683 5.32-3.906 7.008-20.187 15.336-31.765 38.64-31.765 63.938 0 3.576.237 7.171.704 10.684.728 5.475-3.12 10.503-8.595 11.23-5.479.732-10.503-3.12-11.231-8.595-.583-4.383-.878-8.864-.878-13.319 0-28.153 11.475-54.328 31.801-73.246-12.36-17.038-19.071-37.568-19.071-58.809 0-55.279 44.973-100.251 100.252-100.251 3.716 0 7.446.211 11.165.631 3.278-23.739 14.329-45.625 31.771-62.539 20.237-19.623 46.909-30.43 75.103-30.43 31.109 0 59.94 12.989 80.405 35.933 13.057-7.035 27.633-10.718 42.647-10.718 49.67 0 90.079 40.409 90.079 90.079 0 13.063-2.789 25.788-8.148 37.475 43.652 10.075 75.996 49.431 75.996 95.504 0 30.305-13.943 58.679-37.623 77.212 1.74 8.641 2.62 17.476 2.62 26.352 0 28.874-9.034 56.146-26.172 79.144 3.133 22.718 17.472 42.95 38.104 53.409 3.361 1.704 5.479 5.152 5.479 8.919 0 3.768-2.118 7.216-5.479 8.919-12.791 6.484-26.561 9.772-40.929 9.772z"/></g><g id="XMLID_499_"><g id="XMLID_1163_"><g id="XMLID_502_"><path id="XMLID_203_" d="m256 331.511c-17.645 0-32-14.355-32-32v-29.93c0-25.072 16.677-47.56 40.557-54.686 12.832-3.829 21.573-15.887 21.257-29.322-.369-15.664-13.412-28.707-29.076-29.076-8.09-.192-15.773 2.812-21.572 8.476-5.796 5.661-8.988 13.239-8.988 21.337 0 17.645-14.355 32-32 32s-32-14.355-32-32c0-25.479 10.04-49.317 28.269-67.121 18.205-17.782 42.281-27.246 67.79-26.675 24.131.568 46.875 10.339 64.048 27.512s26.944 39.917 27.512 64.04c.951 40.387-24.216 76.83-61.796 90.458v24.985c-.001 17.647-14.356 32.002-32.001 32.002zm-.035-195.023c.417 0 .833.005 1.252.015 26.173.616 47.975 22.417 48.591 48.6.528 22.425-14.083 42.558-35.532 48.958-15.471 4.616-26.276 19.223-26.276 35.52v29.93c0 6.617 5.383 12 12 12s12-5.383 12-12v-29.93c0-5.768 3.758-10.917 9.139-12.522 31.789-9.486 53.445-39.308 52.663-72.521-.447-18.96-8.139-36.848-21.66-50.369s-31.409-21.213-50.369-21.66c-20.078-.452-39.028 6.997-53.352 20.988-14.344 14.01-22.243 32.766-22.243 52.814 0 6.617 5.383 12 12 12s12-5.383 12-12c0-13.53 5.332-26.189 15.013-35.645 9.389-9.171 21.695-14.178 34.774-14.178z"/></g></g><g id="XMLID_1179_"><path id="XMLID_200_" d="m256 419.511c-17.645 0-32-14.355-32-32s14.355-32 32-32 32 14.355 32 32-14.355 32-32 32zm0-44c-6.617 0-12 5.383-12 12s5.383 12 12 12 12-5.383 12-12-5.383-12-12-12z"/></g></g><g id="XMLID_1162_"><path id="XMLID_199_" d="m27.71 388.35c-2.63 0-5.21-1.07-7.07-2.93-1.86-1.87-2.93-4.44-2.93-7.07 0-2.64 1.07-5.211 2.93-7.08 1.86-1.86 4.441-2.92 7.07-2.92 2.63 0 5.21 1.06 7.07 2.92s2.93 4.44 2.93 7.08c0 2.63-1.07 5.21-2.93 7.07s-4.44 2.93-7.07 2.93z"/></g></g></svg>