<svg id="Capa_1" enable-background="new 0 0 512 512" height="512" viewBox="0 0 512 512" width="512" xmlns="http://www.w3.org/2000/svg"><g><g><path clip-rule="evenodd" d="m256 330.301 41.076 73.195 92.358 50.658 43.004-188.345c11.198-22.877-53.691-62.905-65.938-38.072z" fill="#ffe596" fill-rule="evenodd"/></g><g><path clip-rule="evenodd" d="m79.533 265.808 43.004 188.345 107.071-43.401 26.392-80.451-110.501-102.564c-13.862-36.031-78.411 4.876-65.966 38.071z" fill="#ffe596" fill-rule="evenodd"/></g><g><path clip-rule="evenodd" d="m256 330.301-133.463 123.853 133.463 34.273 133.435-34.273z" fill="#fdd76f" fill-rule="evenodd"/></g><g><path clip-rule="evenodd" d="m41.915 149.836h21.941l10.546-18.766v-56.98h-32.487z" fill="#eff6ff" fill-rule="evenodd"/></g><g><path clip-rule="evenodd" d="m437.57 131.07 7.229 18.766h25.286v-75.746h-32.515z" fill="#eff6ff" fill-rule="evenodd"/></g><g><path clip-rule="evenodd" d="m423.849 70.461c0 7.569 6.18 13.749 13.721 13.749h32.515c7.541 0 13.721-6.18 13.721-13.749v-32.94h-59.956v32.94z" fill="#7e707d" fill-rule="evenodd"/></g><g><path clip-rule="evenodd" d="m40.327 205.54 47.03-1.899 25.513-39.999-20.723-35.889c-1.644-2.863-5.329-3.855-8.164-2.211l-9.582 5.528-32.487 18.766-20.127 11.623c-2.835 1.644-3.827 5.329-2.183 8.164z" fill="#7e707d" fill-rule="evenodd"/></g><g><path clip-rule="evenodd" d="m41.915 84.21h32.487c7.541 0 13.749-6.18 13.749-13.749v-32.94h-59.985v32.941c0 7.568 6.18 13.748 13.749 13.748z" fill="#7e707d" fill-rule="evenodd"/></g><g><path clip-rule="evenodd" d="m423.849 200.041 47.795 5.5 20.723-35.917c1.644-2.835.68-6.52-2.183-8.164l-20.099-11.623-32.515-18.767-9.553-5.528c-2.863-1.644-6.548-.652-8.193 2.211l-20.723 35.889z" fill="#7e707d" fill-rule="evenodd"/></g><g><path clip-rule="evenodd" d="m380.42 279.756c18.228 10.517 41.502 4.281 52.019-13.947l-24.464-38.072h-41.473c-10.518 18.199-4.281 41.502 13.918 52.019z" fill="#ffbc85" fill-rule="evenodd"/></g><g><path clip-rule="evenodd" d="m183.4 155.761 17.377 8.816 8.816 17.377c1.191 2.353 2.069 2.325 3.26 0l8.816-17.377 17.377-8.816c2.353-1.191 2.353-2.069 0-3.26l-17.377-8.816-8.816-17.377c-1.191-2.353-2.069-2.353-3.26 0l-8.816 17.377-17.377 8.816c-2.324 1.19-2.353 2.069 0 3.26z" fill="#fde588" fill-rule="evenodd"/></g><g><path clip-rule="evenodd" d="m79.533 265.808c10.517 18.228 33.791 24.464 52.019 13.947 18.2-10.517 24.464-33.819 13.947-52.019l-41.7 5.471z" fill="#ffbc85" fill-rule="evenodd"/></g><g><path clip-rule="evenodd" d="m28.166 47.641h59.985 335.699 59.956 15.677c2.75 0 5.018-2.239 5.018-4.989v-30.163c0-2.75-2.268-4.989-5.018-4.989h-486.994c-2.749 0-4.989 2.239-4.989 4.989v30.162c0 2.75 2.24 4.989 4.989 4.989h15.677z" fill="#eff6ff" fill-rule="evenodd"/></g><g><path clip-rule="evenodd" d="m74.005 138.213 20.751 35.917 18.114-10.489-20.723-35.889c-1.644-2.863-5.329-3.855-8.164-2.211l-9.582 5.528-8.533 4.933c2.836-1.616 6.493-.623 8.137 2.211z" fill="#6a5c6b" fill-rule="evenodd"/></g><g><path clip-rule="evenodd" d="m123.076 240.664c8.249 14.287 6.208 31.693-3.855 43.6 4.224-.737 8.391-2.24 12.331-4.507 18.2-10.517 24.464-33.819 13.947-52.019z" fill="#f5a96c" fill-rule="evenodd"/></g><g><path clip-rule="evenodd" d="m64.225 274.653 15.308-8.845 32.969-19.022 32.997-19.05 15.28-8.816c8.561-4.961 8.051-5.67 1.814-11.197l-49.723-44.081-36.257 20.949-36.286 20.949 13.324 65.087c1.672 8.165 2.013 8.959 10.574 4.026z" fill="#9fd4fe" fill-rule="evenodd"/></g><g><path clip-rule="evenodd" d="m94.756 174.131 49.694 44.081c6.152 5.443 6.747 6.208-1.502 10.999l.028-.028 2.523-1.446 15.28-8.816c8.561-4.961 8.051-5.67 1.814-11.197l-49.723-44.081z" fill="#85beef" fill-rule="evenodd"/></g><g><path clip-rule="evenodd" d="m55.975 84.21v57.518c6.152-3.543 12.275-7.087 18.426-10.659v-46.859h-18.341c-.028 0-.056 0-.085 0z" fill="#d9eeff" fill-rule="evenodd"/></g><g><path clip-rule="evenodd" d="m69.724 70.461c0 7.541-6.152 13.692-13.664 13.749h18.341c7.541 0 13.749-6.18 13.749-13.749v-22.82h-18.426z" fill="#6a5c6b" fill-rule="evenodd"/></g><g><path clip-rule="evenodd" d="m465.096 157.065-17.406 34.641 23.954 13.834 20.723-35.917c1.644-2.835.68-6.52-2.183-8.164l-20.099-11.623-5.925-3.402c4.961 2.864 2.41 7.683.936 10.631z" fill="#6a5c6b" fill-rule="evenodd"/></g><g><path clip-rule="evenodd" d="m370.271 271.223c2.778 3.345 6.18 6.237 10.149 8.533 18.228 10.517 41.502 4.281 52.019-13.947l-2.069-1.191-20.552-11.878c-8.222 14.259-24.239 21.176-39.547 18.483z" fill="#f5a96c" fill-rule="evenodd"/></g><g><path clip-rule="evenodd" d="m453.842 84.21v56.243l10.318 5.981 5.925 3.402v-65.626z" fill="#d9eeff" fill-rule="evenodd"/></g><g><path clip-rule="evenodd" d="m460.248 47.641v22.82c0 7.541-6.123 13.692-13.635 13.749h7.229 16.243c7.541 0 13.721-6.18 13.721-13.749v-22.82z" fill="#6a5c6b" fill-rule="evenodd"/></g><g><path clip-rule="evenodd" d="m464.246 12.489v30.162c0 2.75-2.239 4.989-4.989 4.989h.992 23.557 15.677c2.75 0 5.018-2.239 5.018-4.989v-30.162c0-2.75-2.268-4.989-5.018-4.989h-40.226c2.749 0 4.989 2.239 4.989 4.989z" fill="#d9eeff" fill-rule="evenodd"/></g><g><path clip-rule="evenodd" d="m399.47 246.787 32.969 19.022 15.308 8.845c8.561 4.933 8.901 4.139 10.574-4.025l13.324-65.087-36.257-20.949-36.286-20.949-49.723 44.081c-6.208 5.528-6.747 6.237 1.814 11.197l15.308 8.816z" fill="#9fd4fe" fill-rule="evenodd"/></g><g><path clip-rule="evenodd" d="m447.69 191.706-13.295 65.087c-.397 1.899-1.077 5.188-1.956 9.015l2.098 1.219 13.21 7.626c8.561 4.933 8.901 4.139 10.574-4.025l13.324-65.087z" fill="#85beef" fill-rule="evenodd"/></g><g><path clip-rule="evenodd" d="m13.538 504.5h484.895c3.345 0 6.066-2.92 6.066-6.492v-37.363c0-3.572-2.721-6.492-6.066-6.492h-108.998-266.898-108.999c-3.317 0-6.038 2.92-6.038 6.492v37.363c0 3.572 2.722 6.492 6.038 6.492z" fill="#7e707d" fill-rule="evenodd"/></g><g><path clip-rule="evenodd" d="m464.246 460.645v37.363c0 3.572-2.721 6.492-6.038 6.492h40.226c3.345 0 6.066-2.92 6.066-6.492v-37.363c0-3.572-2.721-6.492-6.066-6.492h-40.226c3.316.001 6.038 2.921 6.038 6.492z" fill="#6a5c6b" fill-rule="evenodd"/></g><g><path clip-rule="evenodd" d="m283.583 113.721 17.377 8.816 8.816 17.377c1.191 2.353 2.069 2.353 3.26 0l8.816-17.377 17.377-8.788c2.325-1.191 2.353-2.069 0-3.26l-17.377-8.816-8.816-17.377c-1.191-2.353-2.069-2.353-3.26 0l-8.816 17.377-17.377 8.788c-2.353 1.19-2.353 2.069 0 3.26z" fill="#fde588" fill-rule="evenodd"/></g><g><path d="m242.442 145.812-15.191-7.707-7.704-15.185c-2.459-4.858-5.883-5.878-8.322-5.878s-5.863 1.02-8.319 5.872l-7.707 15.191-15.216 7.72c-4.834 2.476-5.842 5.896-5.836 8.331.006 2.434 1.029 5.849 5.861 8.293l15.191 7.707 7.704 15.185c2.449 4.839 5.864 5.861 8.298 5.867h.021c2.432 0 5.84-1.016 8.322-5.861l7.707-15.191 15.184-7.704c4.859-2.458 5.879-5.882 5.879-8.322s-1.021-5.862-5.872-8.318zm-24.165 12.077c-1.42.721-2.574 1.875-3.295 3.295l-3.757 7.407-3.758-7.407c-.721-1.42-1.875-2.575-3.295-3.295l-7.407-3.758 7.407-3.758c1.42-.721 2.574-1.875 3.295-3.295l3.758-7.407 3.757 7.407c.721 1.42 1.875 2.575 3.295 3.295l7.407 3.758z"/><path d="m491.306 70.461v-15.32h8.176c6.903 0 12.518-5.603 12.518-12.489v-30.163c0-6.886-5.615-12.489-12.518-12.489h-486.992c-6.887 0-12.49 5.603-12.49 12.489v30.163c0 6.887 5.603 12.489 12.49 12.489h8.176v15.32c0 9.073 5.728 16.815 13.749 19.856v55.189l-16.39 9.465c-3.1 1.798-5.321 4.704-6.253 8.182-.934 3.485-.459 7.114 1.337 10.22l20.114 34.861 13.08 63.898c1.059 5.166 2.058 10.045 6.961 12.253 1.322.595 2.628.848 3.922.848 3.7 0 7.287-2.067 10.789-4.084l6.509-3.757 13.301 58.291c.793 3.477 3.884 5.833 7.305 5.833.553 0 1.114-.061 1.675-.189 4.038-.921 6.565-4.942 5.644-8.98l-10.212-44.755c2.695 1.337 5.541 2.418 8.513 3.215 3.925 1.052 7.908 1.573 11.868 1.573 7.898 0 15.697-2.072 22.728-6.129 13.718-7.928 21.758-21.951 22.689-36.682l86.975 80.728-118.01 109.522-16.727-73.312c-.921-4.038-4.939-6.562-8.981-5.644-4.038.921-6.565 4.942-5.644 8.98l17.525 76.812h-99.595c-7.465-.001-13.538 6.276-13.538 13.991v37.363c0 7.714 6.073 13.991 13.538 13.991h484.895c7.481 0 13.567-6.277 13.567-13.992v-37.363c0-7.715-6.086-13.992-13.567-13.992h-99.593l17.552-76.867c.922-4.038-1.605-8.059-5.643-8.981-4.036-.918-8.059 1.604-8.982 5.643l-16.753 73.371-117.995-109.523 86.98-80.724c.926 14.732 8.958 28.755 22.673 36.68 7.029 4.056 14.824 6.126 22.722 6.126 3.959 0 7.945-.521 11.869-1.573 2.973-.797 5.821-1.879 8.517-3.217l-10.529 46.176c-.92 4.039 1.607 8.059 5.645 8.98.562.128 1.122.189 1.674.189 3.421 0 6.513-2.357 7.306-5.834l13.614-59.706 6.512 3.759c3.498 2.015 7.084 4.081 10.783 4.081 1.293 0 2.6-.252 3.922-.848 4.903-2.208 5.902-7.087 6.961-12.254l13.08-63.897 20.114-34.861c1.802-3.114 2.279-6.749 1.344-10.236-.935-3.485-3.168-6.391-6.27-8.172l-16.351-9.447v-55.204c8.006-3.044 13.721-10.783 13.721-19.853zm-448.232 124.831-16.214-28.102 59.544-34.386 16.222 28.093zm-1.159-118.582c-3.445 0-6.249-2.803-6.249-6.249v-15.32h44.985v15.32c0 3.387-2.861 6.249-6.249 6.249zm24.987 15v35.031l-17.487 10.102v-45.133zm60.902 181.55c-7.082 4.086-15.326 5.171-23.211 3.058-5.411-1.451-10.213-4.29-14.014-8.216l51.371-29.652c3.717 13.14-1.782 27.665-14.146 34.81zm-52.193-13.839-14.844 8.569-12.008-58.658 63.181-36.491 44.823 39.737s-81.043 46.777-81.152 46.843zm421.389 237.579h-482v-35.346h482zm-126.671-50.346h-228.686l114.35-106.125zm37.05-170.337c-7.885 2.113-16.129 1.028-23.206-3.055-12.354-7.139-17.844-21.658-14.128-34.8l51.348 29.639c-3.801 3.926-8.603 6.766-14.014 8.216zm43.826-8.327-95.997-55.412 44.824-39.738 63.181 36.491zm33.907-100.8-16.214 28.102-59.552-34.395 16.228-28.105zm-47.542-90.48c-3.43 0-6.22-2.803-6.22-6.249v-15.32h44.956v15.32c0 3.445-2.791 6.249-6.22 6.249zm25.015 15v45.138l-17.515-10.115v-35.023zm-189.085-51.569c-4.142 0-7.5 3.358-7.5 7.5s3.358 7.5 7.5 7.5h142.849v15.32c0 9.07 5.715 16.809 13.721 19.852v27.923c-6.149-2.483-13.358-.126-16.741 5.766l-20.114 34.835-48.823 43.284c-3.934 3.502-7.649 6.811-7.106 12.16.565 5.575 5.437 8.398 10.158 11.134l6.494 3.749-97.943 90.899-97.943-90.909 6.488-3.745c4.719-2.735 9.6-5.563 10.159-11.143.538-5.358-3.187-8.66-7.131-12.155l-48.811-43.274-20.106-34.819c-1.797-3.131-4.713-5.371-8.209-6.309-2.879-.772-5.85-.566-8.541.533v-27.925c8.021-3.041 13.749-10.782 13.749-19.856v-15.32h142.85c4.142 0 7.5-3.358 7.5-7.5s-3.358-7.5-7.5-7.5h-223.5v-25.141h482v25.141z"/><path d="m280.19 120.409 15.191 7.707 7.704 15.185c2.459 4.858 5.883 5.878 8.322 5.878 2.44 0 5.863-1.02 8.319-5.872l7.705-15.187 15.22-7.697c4.833-2.476 5.84-5.896 5.834-8.33s-1.029-5.848-5.861-8.294l-15.191-7.707-7.704-15.185c-2.459-4.858-5.883-5.878-8.323-5.878-2.439 0-5.863 1.02-8.319 5.872l-7.705 15.186-15.187 7.68c-4.859 2.459-5.878 5.883-5.878 8.322.001 2.441 1.02 5.865 5.873 8.32zm24.155-12.044c1.424-.72 2.582-1.876 3.304-3.3l3.757-7.406 3.758 7.406c.721 1.42 1.875 2.575 3.295 3.295l7.391 3.75-7.383 3.733c-1.424.72-2.582 1.876-3.304 3.3l-3.757 7.407-3.758-7.407c-.721-1.42-1.875-2.575-3.296-3.295l-7.391-3.75z"/></g></g></svg>