<svg id="Layer_1" enable-background="new 0 0 512 512" height="512" viewBox="0 0 512 512" width="512" xmlns="http://www.w3.org/2000/svg"><g><path d="m504.48 269.4v175.24c0 15.21-12.33 27.54-27.54 27.54h-239.92v-230.31h239.92c15.21 0 27.54 12.33 27.54 27.53z" fill="#ff7680"/><path d="m504.48 269.4v175.24c0 15.21-12.33 27.54-27.54 27.54h-239.92v-22h213.92c15.21 0 27.54-12.33 27.54-27.54v-153.24c0-15.2-12.33-27.53-27.54-27.53h26c15.21 0 27.54 12.33 27.54 27.53z" fill="#f44d90"/><path d="m267.02 395.1h237.46v34.76h-237.46z" fill="#46637f"/><path d="m504.48 395.1v34.76h-26.97c.64-2.3.97-4.72.97-7.22v-27.54z" fill="#234063"/><g fill="#46637f"><path d="m37.518 489.5c0 8.284 6.716 15 15 15s15-6.716 15-15v-17.319h-30z"/><path d="m247.518 472.181v17.319c0 8.284 6.716 15 15 15s15-6.716 15-15v-17.319z"/><path d="m476.943 472.181h-30v17.319c0 8.284 6.716 15 15 15 8.284 0 15-6.716 15-15z"/></g><path d="m307.52 119.72v324.92c0 15.21-12.33 27.54-27.54 27.54h-244.92c-15.21 0-27.54-12.33-27.54-27.54v-324.92c0-15.21 12.33-27.54 27.54-27.54h244.92c15.21 0 27.54 12.33 27.54 27.54z" fill="#ffff4d"/><path d="m307.52 119.72v324.92c0 15.21-12.33 27.54-27.54 27.54h-244.92c-15.21 0-27.54-12.33-27.54-27.54v-2.46h242.46c15.21 0 27.54-12.33 27.54-27.54v-294.92c0-15.21-12.33-27.54-27.54-27.54h30c15.21 0 27.54 12.33 27.54 27.54z" fill="#ffe150"/><path d="m37.52 275.18h240v167h-240z" fill="#f7904b"/><path d="m277.52 275.18v167h-240v-22h193.45c13.28 0 24.04-10.76 24.04-24.04v-120.96z" fill="#f25d40"/><path d="m107.518 167.109h100v30h-100z" fill="#46637f"/><path d="m427.83 285.763v46h-36v-46l18-18.337z" fill="#d8e5ef"/></g><g><path d="m279.978 84.681h-59.35v-69.681h12.5c4.142 0 7.5-3.358 7.5-7.5s-3.358-7.5-7.5-7.5h-151.221c-4.142 0-7.5 3.358-7.5 7.5s3.358 7.5 7.5 7.5h12.5v69.681h-59.35c-19.321 0-35.039 15.718-35.039 35.039v324.921c0 17.61 13.058 32.227 30 34.678v10.181c0 12.407 10.093 22.5 22.5 22.5s22.5-10.093 22.5-22.5v-9.819h165v9.819c0 12.407 10.093 22.5 22.5 22.5s22.5-10.093 22.5-22.5v-10.181c16.942-2.451 30-17.068 30-34.678v-267.827c0-4.142-3.357-7.5-7.5-7.5s-7.5 3.358-7.5 7.5v267.827c0 11.05-8.989 20.04-20.039 20.04h-244.922c-11.049 0-20.039-8.99-20.039-20.04v-324.921c0-11.05 8.99-20.039 20.039-20.039h244.921c11.05 0 20.039 8.989 20.039 20.039v21.985c0 4.142 3.357 7.5 7.5 7.5s7.5-3.358 7.5-7.5v-21.985c0-19.321-15.718-35.039-35.039-35.039zm-9.961 395v9.819c0 4.136-3.364 7.5-7.5 7.5-4.135 0-7.5-3.364-7.5-7.5v-9.819zm-209.999 0v9.819c0 4.136-3.364 7.5-7.5 7.5s-7.5-3.364-7.5-7.5v-9.819zm49.389-464.681h96.221v69.681h-96.221z"/><path d="m101.791 449.681h175.727c4.143 0 7.5-3.358 7.5-7.5v-167c0-4.142-3.357-7.5-7.5-7.5h-240c-4.142 0-7.5 3.358-7.5 7.5v167c0 4.142 3.358 7.5 7.5 7.5h30c4.142 0 7.5-3.358 7.5-7.5s-3.358-7.5-7.5-7.5h-22.5v-152h225v152h-168.227c-4.142 0-7.5 3.358-7.5 7.5s3.358 7.5 7.5 7.5z"/><path d="m223.518 344.176c4.142 0 7.5-3.358 7.5-7.5v-24.361h16.5c4.142 0 7.5-3.358 7.5-7.5s-3.358-7.5-7.5-7.5h-180c-4.142 0-7.5 3.358-7.5 7.5s3.358 7.5 7.5 7.5h148.5v24.361c0 4.142 3.358 7.5 7.5 7.5z"/><path d="m207.518 204.609c4.142 0 7.5-3.358 7.5-7.5v-30c0-4.142-3.358-7.5-7.5-7.5h-100c-4.142 0-7.5 3.358-7.5 7.5v30c0 4.142 3.358 7.5 7.5 7.5zm-92.5-30h85v15h-85z"/><path d="m476.942 234.366h-59.612v-28.533c0-13.155-10.702-23.857-23.857-23.857h-56.451c-4.143 0-7.5 3.358-7.5 7.5s3.357 7.5 7.5 7.5h56.451c4.884 0 8.857 3.974 8.857 8.857v28.533h-65.309c-4.143 0-7.5 3.358-7.5 7.5s3.357 7.5 7.5 7.5h65.309v14.994l-15.853 16.149c-1.376 1.402-2.147 3.289-2.147 5.254v46c0 4.142 3.357 7.5 7.5 7.5h36c4.143 0 7.5-3.358 7.5-7.5v-46c0-1.965-.771-3.852-2.147-5.254l-15.853-16.149v-14.994h59.612c11.05 0 20.04 8.989 20.04 20.039v118.194h-25.516c-4.143 0-7.5 3.358-7.5 7.5s3.357 7.5 7.5 7.5h25.516v19.764h-159.961c-4.143 0-7.5 3.358-7.5 7.5s3.357 7.5 7.5 7.5h159.961v7.279c0 11.05-8.99 20.04-20.04 20.04h-139.921c-4.143 0-7.5 3.358-7.5 7.5s3.357 7.5 7.5 7.5h102.421v9.819c0 12.407 10.094 22.5 22.5 22.5s22.5-10.093 22.5-22.5v-10.627c15.73-3.443 27.54-17.484 27.54-34.232v-175.237c0-19.321-15.719-35.039-35.04-35.039zm-56.612 89.897h-21v-35.434l10.5-10.696 10.5 10.696zm49.112 165.237c0 4.136-3.364 7.5-7.5 7.5s-7.5-3.364-7.5-7.5v-9.819h15z"/><path d="m337.021 402.599h99.787c4.143 0 7.5-3.358 7.5-7.5s-3.357-7.5-7.5-7.5h-99.787c-4.143 0-7.5 3.358-7.5 7.5s3.358 7.5 7.5 7.5z"/></g></svg>