<svg id="outline" height="512" viewBox="0 0 512 512" width="512" xmlns="http://www.w3.org/2000/svg"><path d="m80 48h-56a16 16 0 0 0 -16 16v424a16 16 0 0 0 16 16h416a16 16 0 0 0 16-16v-24z" fill="#443c3c"/><path d="m104 464a56 56 0 0 1 -56-56v-344a16 16 0 0 1 16-16h376a16 16 0 0 1 16 16v344c0 30.928 17.072 56 48 56z" fill="#fff"/><path d="m456 64a16 16 0 0 0 -16-16h-376a16 16 0 0 0 -16 16v88h408z" fill="#f75252"/><g opacity=".2"><path d="m456 72.4v-8.4a16 16 0 0 0 -16-16h-376a16 16 0 0 0 -16 16v258.377c148.36-220.697 364.051-246.9 408-249.977z" fill="#fff"/></g><circle cx="148" cy="100" fill="#fff" r="28"/><circle cx="380" cy="100" fill="#fff" r="28"/><path d="m131.692 429.538-35.692-53.538h152l-32 40z" fill="#d6940f"/><path d="m176 264-56 80h56z" fill="#17c4e0"/><path d="m216 416s64-48 136-48h72v64h-208z" fill="#bf6d13"/><circle cx="228" cy="220" fill="#f75252" r="28"/><path d="m104 464h320v-59c-28.668 0-28.668 22-57.336 22s-28.664-22-57.337-22-28.667 22-57.334 22-28.666-22-57.332-22-28.661 22-57.329 22-28.666-22-57.332-22v53.6a55.772 55.772 0 0 0 24 5.4z" fill="#17c4e0"/><path d="m24 512h416a24.027 24.027 0 0 0 24-24v-16h40a8 8 0 0 0 0-16c-18.452 0-40-12.571-40-48v-344a24.027 24.027 0 0 0 -24-24h-48v-16a24.027 24.027 0 0 0 -24-24h-32a24.027 24.027 0 0 0 -24 24v16h-152v-16a24.027 24.027 0 0 0 -24-24h-32a24.027 24.027 0 0 0 -24 24v16h-56a24.027 24.027 0 0 0 -24 24v424a24.027 24.027 0 0 0 24 24zm438.163-59.395q1.425 1.776 2.961 3.395h-361.124a48.054 48.054 0 0 1 -48-48v-248h392v248c0 17.385 5.03 33.227 14.163 44.605zm-134.163-428.605a8.009 8.009 0 0 1 8-8h32a8.009 8.009 0 0 1 8 8v16h-48zm-232 0a8.009 8.009 0 0 1 8-8h32a8.009 8.009 0 0 1 8 8v16h-48zm-16 32h64v8.228a36 36 0 1 0 16 1.837v-10.065h216v8.228a36 36 0 1 0 16 1.837v-10.065h48a8.009 8.009 0 0 1 8 8v80h-392v-80a8.009 8.009 0 0 1 8-8zm80 28.038a19.967 19.967 0 1 1 -16-3.638v23.6h16zm232 0a19.967 19.967 0 1 1 -16-3.638v23.6h16zm-376-20.038a8.009 8.009 0 0 1 8-8h17.376a23.882 23.882 0 0 0 -1.376 8v344a64.072 64.072 0 0 0 64 64h344v16a8.009 8.009 0 0 1 -8 8h-416a8.009 8.009 0 0 1 -8-8z"/><path d="m104 208h16v16h-16z"/><path d="m144 232h16v16h-16z"/><path d="m248 288h16v16h-16z"/><path d="m395.352 210.946c11.37-10.233 25.953-13.952 43.333-11.055l2.631-15.782c-27.942-4.657-46.236 5.557-56.667 14.945a66.411 66.411 0 0 0 -6.252 6.457 70.407 70.407 0 0 0 -8.056-13.388c-10.4-13.517-30.518-28.662-67.333-24.061l1.984 15.877c23.27-2.912 40.867 2.968 52.3 17.469a52.58 52.58 0 0 1 4.8 7.283 90.53 90.53 0 0 0 -13.7-3.569c-17.385-3.068-42.949-1.876-66.048 21.222l11.314 11.313c18.685-18.685 39.292-19.63 54.629-16.332-13.887 5.675-26.034 15.823-35.88 30.143a118.142 118.142 0 0 0 -16.168 34.592l15.519 3.894a103.634 103.634 0 0 1 14.094-29.8c9.023-12.983 19.932-21.5 32.552-25.5-12.153 20.246-29.304 60.418-30.348 126.946-30.142 3.96-57.537 14.63-78.225 24.914l4.417-5.52a8 8 0 0 0 -6.248-12.994h-64v-104a8 8 0 0 0 -14.549-4.588l-56 80a8 8 0 0 0 6.549 12.588h48v16h-72a8 8 0 0 0 -6.656 12.438l15.331 23c-6.063-3.607-13.622-6.438-24.675-6.438v16c11.617 0 16.991 4.125 23.795 9.347 7.728 5.93 16.488 12.653 33.537 12.653s25.807-6.723 33.535-12.653c6.8-5.222 12.178-9.347 23.794-9.347s16.991 4.125 23.795 9.347c7.729 5.93 16.488 12.653 33.537 12.653s25.809-6.723 33.537-12.653c6.8-5.222 12.18-9.347 23.8-9.347s16.993 4.125 23.8 9.347c7.724 5.931 16.483 12.653 33.533 12.653s25.811-6.723 33.539-12.653c6.8-5.222 12.18-9.347 23.8-9.347v-16c-17.05 0-25.81 6.722-33.538 12.653-6.8 5.222-12.18 9.347-23.8 9.347s-16.993-4.125-23.8-9.347c-7.727-5.931-16.487-12.653-33.537-12.653s-25.809 6.723-33.537 12.653c-6.8 5.222-12.18 9.347-23.8 9.347-8.313 0-13.427-2.117-18.158-5.232 21.819-13.422 68.268-37.768 118.168-37.768h72v-16h-72c-2.652 0-5.289.068-7.914.187.97-47.416 10.628-79.821 18.8-98.96a136.512 136.512 0 0 1 14.01-25.588c1.706 4.245 4 12.74 5.578 29.422 1.505 15.859 1.526 30.791 1.526 30.939h16c0-.753-.023-18.653-2.049-36.883a144.3 144.3 0 0 0 -4.2-23.47c1.281.475 2.586 1.01 3.9 1.617 14.7 6.786 23.605 18.915 26.461 36.051l15.783-2.63c-4.708-28.246-21.925-41.665-35.539-47.949a74.637 74.637 0 0 0 -15.22-5.07 51.21 51.21 0 0 1 6.216-6.72zm-259.987 125.054 32.635-46.621v46.621zm25.76 73.654c-6.8 5.222-12.177 9.346-23.793 9.346-1.1 0-2.134-.048-3.131-.12l-23.253-34.88h120.406l-14.454 18.069c-5.644-2.929-12.622-5.069-22.239-5.069-17.049 0-25.807 6.723-33.536 12.654z"/><path d="m228 256a36 36 0 1 0 -36-36 36.041 36.041 0 0 0 36 36zm0-56a20 20 0 1 1 -20 20 20.023 20.023 0 0 1 20-20z"/></svg>