<svg id="Capa_1" enable-background="new 0 0 512 512" height="512" viewBox="0 0 512 512" width="512" xmlns="http://www.w3.org/2000/svg"><g><g><path clip-rule="evenodd" d="m429.693 402.452v-35.746l-19.871-10.877-19.871 10.877v36.341c4.215 3.448 13.582 6.214 19.871 6.115 7.022-.111 15.011-2.667 19.871-6.71z" fill="#ce9875" fill-rule="evenodd"/></g><g><path clip-rule="evenodd" d="m181.236 402.934v-36.228l-19.176-13.544-19.176 13.544v38.949c4.284 4.989 12.058 6.471 18.45 6.007 6.391-.465 16.666-2.5 19.902-8.728z" fill="#ce9875" fill-rule="evenodd"/></g><g><path clip-rule="evenodd" d="m365.658 154.158c14.008-19.496 6.46-53.162-2.495-76.282-9.641-24.891-36.164-47.547-57.26-56.78-2.916-1.276-6.332-1.247-9.581-1.247-37.323 0-56.849 25.898-71.656 47.813-14.095 20.861-25 50-15.679 69.232l73.531 8.079 82.942 9.156z" fill="#a6e0fa" fill-rule="evenodd"/></g><g><path clip-rule="evenodd" d="m416.965 332.831 68.769-68.77c7.313-7.285 7.313-19.248 0-26.561-7.313-7.314-19.276-7.314-26.589 0l-94.819 94.793z" fill="#ce9875" fill-rule="evenodd"/></g><g><path clip-rule="evenodd" d="m208.987 136.895c4.62-41.727 35.235-94.85 87.336-117.046-3.997-.454-7.909-.765-11.792-.992h-22.847c-77.528 4.422-131.074 53.945-153.44 106.926z" fill="#fe8d94" fill-rule="evenodd"/></g><g><path clip-rule="evenodd" d="m456.82 164.193c-11.367-62.449-60.746-129.093-150.916-143.097 45.921 32.968 64.261 91.363 59.754 133.062z" fill="#fe8d94" fill-rule="evenodd"/></g><g><path clip-rule="evenodd" d="m411.239 159.176 45.581 5.017c-11.367-62.449-60.746-129.093-150.916-143.097 68.371 32.373 93.968 75.546 105.335 138.08z" fill="#ff6d75" fill-rule="evenodd"/></g><g><path clip-rule="evenodd" d="m345.05 455.036c.028-.028.057-.028.085-.028-.028 0-.057 0-.085.028zm159.449 37.815v-86.232c-44.646-7.229-152.901-3.997-189.496 1.928-32.428 5.216-56.665 4.054-70.583 1.162-117.468-24.209-188.447 22.111-208.63 49.352 10.346-4.819 22.422-6.293 35.49-6.265 32.258.028 70.554 9.185 103.748-.34.227-.057.482-.142.709-.198 1.389-.397 2.806-.794 4.195-1.162 4.791-1.276 9.524-2.381 14.202-3.345 35.547-7.314 68.173-6.123 94.649-.283 13.436 2.948 25.313 7.115 35.178 11.963 5.669-.624 11.225-1.616 16.639-3.175.198-.057.425-.113.624-.17 1.276-.369 2.551-.737 3.827-1.049.028-.028.057-.028.085-.028.028-.028.085-.028.142-.057.567-.142 1.162-.283 1.757-.454.057 0 .142-.028.227-.057.17-.028.369-.085.567-.142 3.373-.85 6.746-1.616 10.12-2.324 32.23-6.633 61.852-5.556 85.862-.255 36.82 8.107 60.575 26.079 60.688 41.131z" fill="#fde588" fill-rule="evenodd"/></g><g><path clip-rule="evenodd" d="m340.6 456.255c-30.132 8.646-64.885.34-94.167.312-25.937-.057-47.565 6.406-57.884 36.88h315.922c.567-15.166-23.329-33.506-60.661-41.727-28.12-6.18-63.865-6.633-102.586 4.365-.199.056-.426.113-.624.17z" fill="#75cef9" fill-rule="evenodd"/></g><g><path clip-rule="evenodd" d="m175.028 452.456c-33.194 9.525-71.49.369-103.748.34-28.602-.057-52.441 7.059-63.78 40.65h348.123c.595-16.725-25.71-36.936-66.841-45.979-31.011-6.832-70.384-7.314-113.046 4.791-.255.057-.481.142-.708.198z" fill="#a6e0fa" fill-rule="evenodd"/></g><g><path clip-rule="evenodd" d="m451.378 366.706c10.545 0 19.191-8.646 19.191-19.219s-8.646-19.191-19.191-19.191h-28.46-50.627-243.184c-10.573 0-19.219 8.618-19.219 19.191s8.646 19.219 19.219 19.219h13.776 38.353 208.715 39.742z" fill="#ffbc85" fill-rule="evenodd"/></g><g><path clip-rule="evenodd" d="m345.05 455.036.085-.028c-.028 0-.057 0-.085.028zm2.778-.737c.142-.028.283-.085.425-.113-.141.028-.283.085-.425.113zm10.12-2.325c32.23-6.633 61.852-5.556 85.862-.255 36.822 8.107 60.576 26.079 60.69 41.132v-86.232c-17.745-2.891-45.496-4.11-74.806-4.167-13.181 0-26.702.198-39.742.595-31.011.964-59.414 2.976-74.948 5.499-32.258 5.188-56.438 4.054-70.413 1.219 24.123 10.715 42.832 24.464 53.802 40.083 9.553 2.665 18.142 5.925 25.569 9.581 5.669-.624 11.225-1.616 16.639-3.175.198-.057.425-.113.624-.17 1.276-.369 2.551-.737 3.827-1.049.028-.028.057-.028.085-.028.028-.028.085-.028.142-.057.567-.142 1.162-.283 1.757-.454.057 0 .142-.028.227-.057.17-.028.369-.085.567-.142 3.317-.822 6.576-1.587 9.836-2.268.112.002.197-.026.282-.055z" fill="#fdd76f" fill-rule="evenodd"/></g><g><path clip-rule="evenodd" d="m421.529 328.295h-9.128c2.693 0 5.244.539 7.568 1.531 6.832 2.948 11.65 9.78 11.65 17.66 0 10.517-8.589 19.163-19.106 19.219h17.178 21.685c10.545 0 19.191-8.646 19.191-19.219s-8.646-19.191-19.191-19.191h-28.46z" fill="#f5a96c" fill-rule="evenodd"/></g><g><path clip-rule="evenodd" d="m461.809 237.499c7.313 7.314 7.313 19.276 0 26.59l-64.205 64.207h14.797 9.128l64.205-64.235c7.313-7.285 7.313-19.248 0-26.561-6.888-6.888-17.887-7.285-25.257-1.219.454.368.907.765 1.332 1.218z" fill="#c6865c" fill-rule="evenodd"/></g><g><path clip-rule="evenodd" d="m142.883 366.706h38.353v18.114h-38.353z" fill="#c6865c" fill-rule="evenodd"/></g><g><path clip-rule="evenodd" d="m389.951 366.706h39.742v18.114h-39.742z" fill="#c6865c" fill-rule="evenodd"/></g><path d="m495.493 465.94c-27.907-21.826-88.933-36.421-156.968-16.893-4.062 1.17-8.417 2.048-13.257 2.672-35.075-16.471-91.076-24.038-152.309-6.473-21.243 6.097-45.309 4.014-68.584 2.001-14.889-1.289-29.955-2.589-43.996-1.55 11.323-8.456 26.606-16.988 45.672-23.511 39.779-13.612 87.103-15.386 136.843-5.135 8.72 1.811 33.318 5.329 73.306-1.102 35.671-5.775 143.662-8.961 187.099-1.928 4.089.663 7.941-2.115 8.603-6.205.662-4.089-2.115-7.94-6.204-8.603-16.588-2.686-41.602-3.961-68.506-4.207v-20.804h14.187c14.72 0 26.69-11.99 26.69-26.72 0-14.72-11.97-26.69-26.69-26.69h-11.75l51.397-51.421c4.954-4.935 7.686-11.525 7.692-18.559.007-7.047-2.722-13.659-7.682-18.62-4.954-4.954-11.559-7.682-18.598-7.682-7.04 0-13.645 2.728-18.599 7.682l-88.597 88.599h-32.662c-4.14 0-7.5 3.36-7.5 7.5s3.36 7.5 7.5 7.5h35.771 53.178 29.851c6.45 0 11.69 5.24 11.69 11.69 0 6.46-5.24 11.72-11.69 11.72h-322.27c-6.47 0-11.72-5.26-11.72-11.72 0-6.45 5.25-11.69 11.72-11.69h168.86c4.14 0 7.5-3.36 7.5-7.5s-3.36-7.5-7.5-7.5h-27.29l18.47-167.55 68.03 7.51-1.47 13.27c-.46 4.12 2.51 7.82 6.63 8.28.28.03.56.05.83.05 3.78 0 7.02-2.84 7.45-6.68l1.47-13.28 76.45 8.43-1.47 13.26c-.45 4.12 2.51 7.83 6.63 8.28.28.03.56.05.83.05 3.78 0 7.02-2.84 7.45-6.67l2.3-20.73c.01-.19.01-1.73-.1-2.29-6.57-35.95-24.54-70.14-50.61-96.26-30.25-30.32-70.51-49.01-116.42-54.07-49.78-5.5-96.1 5.97-133.93 33.17-3.36 2.42-4.13 7.1-1.71 10.47 2.42 3.36 7.11 4.13 10.47 1.71 28.08-20.19 61.33-30.93 97.34-31.64-38.34 25.98-60.64 67.83-66.71 102.52l-83.21-9.16c7.18-14.39 16.69-28.06 27.85-39.98 2.83-3.02 2.68-7.77-.35-10.6-3.02-2.83-7.77-2.68-10.6.35-14.69 15.69-26.76 34.19-34.91 53.51-.31.69-.52 1.46-.6 2.21l-2.3 20.72c-.45 4.12 2.51 7.83 6.63 8.28.28.03.56.05.84.05 3.77 0 7.02-2.84 7.44-6.68l1.47-13.27 85.85 9.46-1.46 13.29c-.45 4.11 2.53 7.82 6.64 8.27.28.03.56.04.83.04 3.78 0 7.02-2.84 7.45-6.68l1.45-13.28 58.61 6.45-18.65 169.19h-126.48c-14.74 0-26.72 11.97-26.72 26.69 0 14.73 11.98 26.72 26.72 26.72h6.273v25.1c-11.847 2.063-23.277 4.957-34.188 8.69-42.855 14.663-63.473 36.519-70.208 45.01-13.122 6.537-23.869 18.14-30.592 38.041-.773 2.289-.396 4.811 1.012 6.773s3.677 3.127 6.093 3.127h348.123 148.847c4.037 0 7.35-3.195 7.495-7.229.344-9.472-5.353-19.077-16.472-27.773zm-31.045-223.138c2.12-2.121 4.958-3.289 7.991-3.289 3.032 0 5.87 1.168 7.99 3.289 2.124 2.124 3.292 4.964 3.289 7.999-.003 3.021-1.167 5.843-3.29 7.957l-62.007 62.037h-31.964zm-66.997 131.404h24.742v20.77c-8.245.037-16.55.161-24.742.361zm-132.651-.001h117.651v21.589c-28.437 1.041-54.007 2.979-68.64 5.347-23.138 3.721-40.534 3.942-52.333 3.179zm-76.064 0h60.974l-3.121 28.29c-.226-.045-.448-.089-.655-.132-19.481-4.015-38.639-6.263-57.198-6.764zm258.563-218.61-73.63-8.12c1.55-34.52-10.65-79.13-41.13-112.6 67.24 20.691 103.01 73.681 114.76 120.72zm-229.749-25.319c6.94-37.7 35.38-82.89 79.95-102.73 1.84.22 3.66.46 5.47.72 39.19 29.03 57.14 79.26 55.76 117.57zm-67.167 243.93h23.352v21.375c-7.92.197-15.711.727-23.352 1.584zm-131.643 111.741c14.481-28.166 42.321-27.39 84.343-23.754 24.634 2.131 50.106 4.335 74.014-2.526 32.445-9.308 65.911-11.836 96.786-7.315 25.406 3.721 48.061 12.182 62.157 23.213 4.442 3.477 7.781 7.036 9.813 10.383h-327.113zm343.404 0c-2.168-7.612-7.877-15.166-16.861-22.196-.315-.247-.658-.487-.981-.733-.002-.005-.003-.01-.004-.016 28.825-8.041 58.482-10.173 85.877-6.164 22.933 3.357 43.373 10.981 56.078 20.917 3.466 2.71 6.203 5.521 8.045 8.19h-132.154z"/></g></svg>