<svg id="Capa_1" enable-background="new 0 0 511.911 511.911" height="512" viewBox="0 0 511.911 511.911" width="512" xmlns="http://www.w3.org/2000/svg"><g><g><path d="m483.458 232.526h-426.039l-36.361 21.649v53.781l45.297 26.587h382.282l55.771-24.581v-55.787z" fill="#f9f7f8"/><path d="m321.045 32.325-228.253 4.605-54.019 14.327v175.073l84.054 6.196h370.176l11.405-27.651v-155.14z" fill="#f9f7f8"/><g><g id="XMLID_140_"><g><path d="m33.058 204.875h471.35v49.3h-471.35z" fill="#fe646f"/></g></g><g id="XMLID_138_"><g><path d="m224.728 106.275h279.68v49.3h-279.68z" fill="#fe646f"/></g><path d="m499.248 7.675h-223.52l-11.248 10.121v39.179h239.928v-44.14c0-2.85-2.31-5.16-5.16-5.16z" fill="#fe646f"/><path d="m47.058 7.675-26 29.355v155.867l26 11.978h228.67v-197.2z" fill="#60b7ff"/><g><g><g id="XMLID_139_"><g><path d="m504.408 303.475v44.14c0 2.85-2.31 5.16-5.16 5.16h-469.19v-49.3z" fill="#fe646f"/></g></g></g></g></g></g><g id="XMLID_137_"><g><path d="m67.058 204.875v-197.2h-20l-26 29.355v155.867l26 11.978z" fill="#26a6fe"/><path d="m67.058 334.543v-102.017h-9.639l-36.361 21.649v53.781l45.297 26.587z" fill="#efedef"/><path d="m33.058 204.875h34v49.3h-34z" fill="#fd4755"/><path d="m30.058 303.475h37v49.3h-37z" fill="#fd4755"/><path d="m47.058 7.675v486.141c0 5.76-4.669 10.429-10.429 10.429h-18.702c-5.76 0-10.429-4.669-10.429-10.429v-477.08c0-5.004 4.057-9.061 9.061-9.061z" fill="#baafb9"/></g></g></g><g><path d="m7.5 71.678c-4.142 0-7.5 3.358-7.5 7.5v425.062c0 4.142 3.358 7.5 7.5 7.5s7.5-3.358 7.5-7.5v-425.062c0-4.142-3.358-7.5-7.5-7.5z"/><path d="m47.054 410.729c-4.142 0-7.5 3.358-7.5 7.5v86.011c0 4.142 3.358 7.5 7.5 7.5s7.5-3.358 7.5-7.5v-86.011c0-4.142-3.358-7.5-7.5-7.5z"/><path d="m499.249.171h-39.819c-4.142 0-7.5 3.358-7.5 7.5s3.358 7.5 7.5 7.5h37.481v34.301h-213.678v-34.301h144.235c4.142 0 7.5-3.358 7.5-7.5s-3.358-7.5-7.5-7.5h-419.968c-4.142 0-7.5 3.358-7.5 7.5v39.545c0 4.142 3.358 7.5 7.5 7.5s7.5-3.358 7.5-7.5v-32.045h24.554v371.096c0 4.142 3.358 7.5 7.5 7.5s7.5-3.358 7.5-7.5v-25.988h444.695c6.982 0 12.662-5.68 12.662-12.662v-334.784c0-6.982-5.68-12.662-12.662-12.662zm-2.338 212.204v34.301h-442.357v-34.301zm-213.678-98.602h213.678v34.301h-213.678zm0 49.301h213.678v34.301h-213.678zm-228.679 98.603h442.357v34.301h-442.357zm442.357-197.205v34.301h-213.678v-34.301zm-228.678 132.903h-213.679v-182.204h213.679zm-213.679 147.904v-34.301h442.357v34.301z"/><path d="m79.764 57.235h5.527c4.142 0 7.5-3.358 7.5-7.5s-3.358-7.5-7.5-7.5h-5.527c-4.142 0-7.5 3.358-7.5 7.5s3.358 7.5 7.5 7.5z"/><path d="m120.063 57.235h5.527c4.142 0 7.5-3.358 7.5-7.5s-3.358-7.5-7.5-7.5h-5.527c-4.142 0-7.5 3.358-7.5 7.5s3.358 7.5 7.5 7.5z"/><path d="m160.363 57.235h5.527c4.142 0 7.5-3.358 7.5-7.5s-3.358-7.5-7.5-7.5h-5.527c-4.142 0-7.5 3.358-7.5 7.5s3.358 7.5 7.5 7.5z"/><path d="m200.663 57.235h5.527c4.142 0 7.5-3.358 7.5-7.5s-3.358-7.5-7.5-7.5h-5.527c-4.142 0-7.5 3.358-7.5 7.5s3.358 7.5 7.5 7.5z"/><path d="m240.962 57.235h5.527c4.142 0 7.5-3.358 7.5-7.5s-3.358-7.5-7.5-7.5h-5.527c-4.142 0-7.5 3.358-7.5 7.5s3.358 7.5 7.5 7.5z"/><path d="m85.292 119.596h-5.527c-4.142 0-7.5 3.358-7.5 7.5s3.358 7.5 7.5 7.5h5.527c4.142 0 7.5-3.358 7.5-7.5s-3.358-7.5-7.5-7.5z"/><path d="m125.591 119.596h-5.527c-4.142 0-7.5 3.358-7.5 7.5s3.358 7.5 7.5 7.5h5.527c4.142 0 7.5-3.358 7.5-7.5s-3.358-7.5-7.5-7.5z"/><path d="m165.89 119.596h-5.527c-4.142 0-7.5 3.358-7.5 7.5s3.358 7.5 7.5 7.5h5.527c4.142 0 7.5-3.358 7.5-7.5s-3.358-7.5-7.5-7.5z"/><path d="m206.19 119.596h-5.527c-4.142 0-7.5 3.358-7.5 7.5s3.358 7.5 7.5 7.5h5.527c4.142 0 7.5-3.358 7.5-7.5s-3.358-7.5-7.5-7.5z"/><path d="m246.489 119.596h-5.527c-4.142 0-7.5 3.358-7.5 7.5s3.358 7.5 7.5 7.5h5.527c4.142 0 7.5-3.358 7.5-7.5s-3.358-7.5-7.5-7.5z"/><path d="m102.217 95.915h5.527c4.142 0 7.5-3.358 7.5-7.5s-3.358-7.5-7.5-7.5h-5.527c-4.142 0-7.5 3.358-7.5 7.5s3.358 7.5 7.5 7.5z"/><path d="m142.517 95.915h5.527c4.142 0 7.5-3.358 7.5-7.5s-3.358-7.5-7.5-7.5h-5.527c-4.142 0-7.5 3.358-7.5 7.5s3.358 7.5 7.5 7.5z"/><path d="m182.816 95.915h5.527c4.142 0 7.5-3.358 7.5-7.5s-3.358-7.5-7.5-7.5h-5.527c-4.142 0-7.5 3.358-7.5 7.5s3.358 7.5 7.5 7.5z"/><path d="m223.116 95.915h5.527c4.142 0 7.5-3.358 7.5-7.5s-3.358-7.5-7.5-7.5h-5.527c-4.142 0-7.5 3.358-7.5 7.5s3.358 7.5 7.5 7.5z"/><path d="m102.217 173.277h5.527c4.142 0 7.5-3.358 7.5-7.5s-3.358-7.5-7.5-7.5h-5.527c-4.142 0-7.5 3.358-7.5 7.5s3.358 7.5 7.5 7.5z"/><path d="m142.517 173.277h5.527c4.142 0 7.5-3.358 7.5-7.5s-3.358-7.5-7.5-7.5h-5.527c-4.142 0-7.5 3.358-7.5 7.5s3.358 7.5 7.5 7.5z"/><path d="m182.816 173.277h5.527c4.142 0 7.5-3.358 7.5-7.5s-3.358-7.5-7.5-7.5h-5.527c-4.142 0-7.5 3.358-7.5 7.5s3.358 7.5 7.5 7.5z"/><path d="m223.116 173.277h5.527c4.142 0 7.5-3.358 7.5-7.5s-3.358-7.5-7.5-7.5h-5.527c-4.142 0-7.5 3.358-7.5 7.5s3.358 7.5 7.5 7.5z"/></g></g></svg>