<?xml version="1.0" encoding="iso-8859-1"?>
<!-- Generator: Adobe Illustrator 19.0.0, SVG Export Plug-In . SVG Version: 6.00 Build 0)  -->
<svg version="1.1" id="Capa_1" xmlns="http://www.w3.org/2000/svg" xmlns:xlink="http://www.w3.org/1999/xlink" x="0px" y="0px"
	 viewBox="0 0 512.001 512.001" style="enable-background:new 0 0 512.001 512.001;" xml:space="preserve">
<path style="fill:#F7CF9C;" d="M396.168,161.083c0.024-0.05,0.054-0.094,0.08-0.143l-15.696-22.579
	c-2.715-3.907-7.171-6.235-11.928-6.235c-27.194,0-239.872,0-265.846,0c-4.902,0-9.496,2.401-12.293,6.427L30.46,224.9h0.009
	c1.676-1.779,4.046-2.896,6.683-2.896c13.729,0,391.594,0,398.513,0L396.168,161.083z"/>
<g>
	<path style="fill:#EAB883;" d="M123.497,138.552c2.799-4.026,7.391-6.426,12.293-6.426h-33.014c-4.902,0-9.496,2.401-12.293,6.426
		l-60.024,86.347h0.009c1.676-1.779,4.046-2.896,6.683-2.896h28.334L123.497,138.552z"/>
	<path style="fill:#EAB883;" d="M434.018,221.004c-97.184,0-309.062,0-318.296,0h-78.57c-5.074,0-9.189,4.114-9.189,9.189
		c0,1.868,0,247.58,0,250.057c0,13.394,10.858,24.252,24.252,24.252h2.348c15.785,0,348.65,0,364.392,0
		c13.394,0,24.252-10.858,24.252-24.252c0-10.065,0-234.243,0-250.057C443.206,225.118,439.092,221.004,434.018,221.004z"/>
</g>
<path style="fill:#E0A773;" d="M57.959,480.25c0-10.065,0-234.243,0-250.057c0-5.075,4.114-9.189,9.189-9.189H37.151
	c-5.074,0-9.189,4.114-9.189,9.189c0,1.868,0,247.58,0,250.057c0,13.394,10.858,24.252,24.252,24.252h2.348h27.649
	C68.816,504.501,57.959,493.644,57.959,480.25z"/>
<path style="fill:#F94A46;" d="M199.528,174.488l-42.524-24.551c-5.082-2.935-6.823-9.432-3.89-14.514L223.9,12.819
	c2.935-5.082,9.433-6.823,14.514-3.89l92.231,53.249c5.081,2.934,6.823,9.432,3.889,14.514l-56.462,97.794h-78.544V174.488z"/>
<path style="fill:#ED3E3E;" d="M250.238,28.407c2.341-4.054,6.583-6.314,10.951-6.329L238.415,8.929
	c-5.081-2.935-11.58-1.193-14.514,3.89l-70.785,122.604c-2.934,5.082-1.193,11.58,3.89,14.514l17.301,9.989L250.238,28.407z"/>
<path style="fill:#70B5E8;" d="M377.793,329.077L377.793,329.077c-14.613,0-26.46-11.846-26.46-26.46l0,0H115.569l0,0
	c0,14.613-11.847,26.46-26.46,26.46l0,0c-2.616,0-4.736,2.121-4.736,4.736v65.475c0,4.49,5.119,4.908,4.736,4.736
	c14.613,0,26.46,11.846,26.46,26.46c14.278,0,222.34,0,235.763,0l0,0c0-14.613,11.847-26.46,26.46-26.46l0,0
	c3.614,0,6.543-2.93,6.543-6.543V335.62C384.336,332.007,381.406,329.077,377.793,329.077z"/>
<path style="fill:#52A5D8;" d="M119.106,391.026L119.106,391.026c-2.616,0-4.736-2.121-4.736-4.736v-39.478
	c0-2.616,2.121-4.736,4.736-4.736l0,0c17.596-4.082,28.344-26.83,26.46-39.458h-29.996c0,14.613-11.847,26.46-26.46,26.46l0,0
	c-2.616,0-4.736,2.121-4.736,4.736v65.475c0,2.616,2.121,4.736,4.736,4.736l0,0c14.613,0,26.46,11.846,26.46,26.46h29.996
	C147.45,417.857,136.702,395.11,119.106,391.026z"/>
<path style="fill:#92B620;" d="M481.536,211.268l-5.194-5.064c-7.525-7.333-3.105-16.278-3.006-19.973
	c0.786-4.582-2.349-8.919-6.968-9.591c-3.525-1.04-13.505,0.333-18.131-9.04l-3.217-6.517c-2.062-4.177-7.151-5.831-11.275-3.664
	c-3.463,1.23-10.711,8.198-19.962,3.334l-6.341-3.334c-4.066-2.137-9.188-0.565-11.274,3.664
	c-2.101,3.069-3.879,13.018-14.236,14.523l-7.11,1.033c-4.611,0.67-7.756,4.999-6.968,9.591c0.097,3.641,4.476,12.681-3.006,19.973
	l-5.194,5.064c-3.337,3.251-3.336,8.604,0,11.855l5.194,5.063c7.524,7.334,3.105,16.279,3.006,19.975
	c-0.788,4.592,2.358,8.921,6.968,9.591c3.518,1.038,13.504-0.333,18.131,9.04c2.097,3.051,3.244,11.136,10.651,11.136
	c3.199,0,4.672-1.623,10.182-4.289c9.313-4.897,16.397,2.067,19.962,3.334c4.117,2.164,9.209,0.522,11.275-3.663l3.217-6.517
	c4.651-9.427,14.534-7.979,18.131-9.04c4.61-0.67,7.756-4.998,6.968-9.591l-1.204-7.019c-1.779-10.371,7.086-15.008,9.404-18.018
	C484.871,219.871,484.871,214.518,481.536,211.268z"/>
<path style="fill:#83A00B;" d="M393.275,240.061c-15.988-27.692-7.674-62.727,18.304-80.468l-4.135-2.174
	c-4.066-2.137-9.188-0.565-11.275,3.664c-2.101,3.069-3.879,13.018-14.236,14.523l-7.11,1.034c-4.611,0.67-7.756,4.999-6.968,9.591
	c0.097,3.641,4.476,12.681-3.006,19.973l-5.194,5.064c-3.337,3.251-3.336,8.603,0,11.855l5.194,5.063
	c7.524,7.334,3.105,16.279,3.006,19.975c-0.788,4.592,2.358,8.921,6.968,9.591c3.518,1.038,13.504-0.333,18.131,9.04
	c2.097,3.051,3.244,11.136,10.651,11.136c3.199,0,4.673-1.623,10.182-4.289c9.313-4.896,16.397,2.067,19.962,3.334
	c4.117,2.164,9.209,0.522,11.275-3.663l1.426-2.889C425.276,270.599,404.616,259.706,393.275,240.061z"/>
<path d="M135.334,342.823c17.947,56.107,15.134,55.144,19.783,57.189c4.987,2.196,13.228,1.251,14.672-3.437
	c16.566-54.545,16.566-53.943,16.566-54.721c0-4.764-11.69-8.246-13.306-3.085L160.8,383.975l-12.336-45.205
	C146.799,333.476,133.921,337.222,135.334,342.823z"/>
<path d="M192.434,390.012c1.115,2.614,6.241,8.595,11.412,10.045c5.235,1.471,11.744,1.474,17.051,0
	c7.678-2.13,13.129-8.433,13.129-19.694c-0.868-19.294,2.884-31.537-6.256-39.434c-8.795-7.594-37.01-8.844-37.01,16.082
	C191.135,377.503,189.751,383.733,192.434,390.012z M206.577,350.314c2.789-2.85,8.745-2.843,11.588,0
	c3.44,3.44,1.598,9.049,2.115,30.049c0,3.056-0.705,5.286-2.115,6.696c-2.844,2.844-8.8,2.849-11.588,0
	c-1.381-1.41-2.071-3.642-2.071-6.696C205.018,359.092,203.212,353.749,206.577,350.314z"/>
<path d="M267.863,396.4v-47.848c11.143-0.472,13.502,1.201,15.245-1.851c2.046-3.58,1.211-10.486-3.085-10.486
	c-39.165,0.625-39.54-1.459-41.239,1.938c-1.93,3.857-0.964,10.398,3.172,10.398h12.16v47.848
	C254.117,402.084,267.863,401.97,267.863,396.4z"/>
<path d="M291.479,399.572c3.226,1.842,3.583,0.729,35.513,1.058c4.217,0,5.159-6.631,3.085-10.178
	c-1.835-3.134-3.261-1.263-26.701-1.807v-14.98c12.333-0.448,14.794,1.108,16.391-1.719c2.018-3.581,0.698-8.855-3.173-8.855
	h-13.218v-14.893c23.146-0.536,24.862,1.336,26.701-1.807c1.252-2.137,1.533-5.452,0.088-8.283
	c-1.697-3.31-2.797-1.303-34.543-1.895c-2.742,0-5.992,1.22-5.992,4.229C290.243,398.602,288.098,397.64,291.479,399.572z"/>
<path d="M115.569,281.273h235.763c4.142,0,7.499-3.357,7.499-7.499s-3.357-7.499-7.499-7.499H115.569
	c-4.142,0-7.499,3.357-7.499,7.499C108.07,277.917,111.427,281.273,115.569,281.273z"/>
<path d="M351.332,451.919H115.569c-4.142,0-7.499,3.358-7.499,7.499c0,4.142,3.357,7.499,7.499,7.499h235.763
	c4.142,0,7.499-3.357,7.499-7.499C358.831,455.276,355.474,451.919,351.332,451.919z"/>
<path d="M444.534,200.171c-3.124-2.719-7.86-2.392-10.58,0.733l-19.908,22.875l-6.395-7.946c-2.599-3.227-7.319-3.737-10.545-1.14
	c-3.227,2.598-3.736,7.318-1.14,10.545l12.014,14.924c2.928,3.636,8.433,3.742,11.499,0.221l25.789-29.632
	C447.987,207.626,447.658,202.89,444.534,200.171z"/>
<path d="M377.793,411.524c7.743,0,14.042-6.299,14.042-14.042V335.62c0-7.743-6.299-14.042-14.042-14.042
	c-10.456,0-18.962-8.506-18.962-18.961c0-4.142-3.357-7.499-7.499-7.499H178.084c-4.142,0-7.499,3.357-7.499,7.499
	s3.357,7.499,7.499,7.499h166.583c3.356,14.829,16.444,26.01,32.17,26.446v59.977c-15.726,0.436-28.813,11.618-32.17,26.447H122.236
	c-3.227-14.258-15.45-25.143-30.363-26.35v-60.172c14.913-1.207,27.138-12.091,30.363-26.349h20.852
	c4.142,0,7.499-3.357,7.499-7.499s-3.357-7.499-7.499-7.499H115.57c-4.142,0-7.499,3.357-7.499,7.499
	c0,10.455-8.506,18.961-18.962,18.961c-6.747,0-12.235,5.488-12.235,12.235v65.474c0,6.747,5.488,12.235,12.235,12.235
	c10.456,0,18.962,8.506,18.962,18.962c0,4.142,3.357,7.499,7.499,7.499h235.762c4.142,0,7.499-3.357,7.499-7.499
	C358.831,420.03,367.337,411.524,377.793,411.524z"/>
<path d="M481.576,200.833c-6.142-5.987,4.042-14.714-3.633-25.277c-7.648-10.528-19.194-3.599-22.981-11.275
	c-2.469-3.881-3.677-11.678-12.485-14.541c-12.373-4.02-17.675,8.336-25.203,4.375c-2.938-0.637-9.529-7.913-19.444-4.039
	l-11.121-15.996c-4.113-5.92-10.876-9.455-18.086-9.455H315.52l25.51-44.183c4.996-8.654,2.02-19.761-6.635-24.757l-92.231-53.25
	c-8.692-5.018-19.76-2.025-24.758,6.634l-12.177,21.091c-2.071,3.587-0.842,8.173,2.745,10.244
	c3.585,2.069,8.173,0.842,10.244-2.745l12.177-21.091c0.563-0.976,1.432-1.331,1.898-1.457c0.467-0.123,1.396-0.251,2.372,0.313
	l92.23,53.25c1.493,0.862,2.007,2.778,1.146,4.27c-8.584,14.867-46.972,81.358-54.297,94.044h-72.207l-40.783-23.546
	c-1.12-0.647-1.689-1.886-1.54-3.095c0.111-0.899-2.555,3.934,41.502-72.374c2.071-3.587,0.842-8.173-2.745-10.244
	c-3.59-2.071-8.174-0.843-10.244,2.745l-37.037,64.151h-47.912c-7.354,0-14.252,3.607-18.451,9.645
	c-64.566,93.809-63.863,88.759-63.863,96.922V480.25c0,17.508,14.243,31.751,31.751,31.751h364.392
	c18.803,0,34.099-15.296,34.099-34.099c0-4.142-3.357-7.499-7.499-7.499s-7.499,3.357-7.499,7.499
	c0,10.532-8.568,19.101-19.101,19.101H52.214c-9.237,0-16.753-7.516-16.753-16.753c0.173-256.332-0.983-250.739,1.685-250.747
	c0.158,0,313.294-0.001,315.019-0.001l4.441,4.329c6.426,6.264-4.082,15.167,3.746,25.941c7.823,10.769,19.608,3.547,23.577,11.588
	c1.826,2.475,4.551,15.597,17.644,15.597c5.103,0,7.851-2.099,13.929-5.259c6.813-3.583,10.935,4.815,20.206,5.255V441.92
	c0,4.142,3.357,7.499,7.499,7.499s7.499-3.357,7.499-7.499v-163.52c1.105-1.664,1.098-2.003,4.256-8.293
	c2.514-5.094,8.17-3.817,12.979-5.017c8.397-1.485,14.278-9.495,12.785-18.198l-1.204-7.021
	c-1.449-8.455,12.014-9.623,12.014-22.678C491.534,207.964,484.385,204.239,481.576,200.833z M361.716,195.882
	c-0.075,7.171-10.049,8.207-11.859,18.623H46.818l49.823-71.672c1.396-2.01,3.69-3.209,6.136-3.209h41.451
	c-0.256,4.22,1.002,8.633,3.792,12.232c2.978,3.837,4.347,4.021,23.521,15.131h-10.955c-4.142,0-7.499,3.357-7.499,7.499
	s3.357,7.499,7.499,7.499h38.941c6.487,0,109.311,0,120.119,0c4.142,0,7.499-3.357,7.499-7.499s-3.357-7.499-7.499-7.499h-28.584
	l15.799-27.364h61.763c2.301,0,4.457,1.128,5.77,3.018l13.17,18.945c-0.971,2.12-2.093,4.381-3.973,5.594
	c-4.48,2.892-13.933-0.451-20.346,8.377C357.52,183.441,361.771,190.665,361.716,195.882z M464.741,242.406
	c1.182,7.354,1.406,7.146,1.068,7.611c-1.244,1.713-17.024-1.287-24.297,13.453l-3.217,6.516c-0.414,0.835-1.251,0.398-3.609-0.965
	c-12.178-7.048-18.537-5.377-28.704,0.235c-3.9,2.151-2.092,1.907-6.306-5.787c-7.232-14.654-22.996-11.663-24.297-13.453
	c-1.207-1.662,6.453-15.748-5.298-27.203c-5.717-5.604-5.133-4.945-5.305-5.222c-0.48-0.778,0.153-0.92,5.306-6.018
	c12.516-12.2,2.813-27.071,5.817-27.514l7.109-1.034c17.449-2.535,18.25-20.371,20.943-18.97l6.341,3.334
	c14.496,7.619,25.589-4.03,27.546-3.388c0.551,0.178,0.252,0.159,3.673,6.915c7.241,14.673,22.971,11.638,24.297,13.452
	c1.22,1.68-6.46,15.744,5.298,27.202l5.193,5.063l0.001,0.001C478.511,218.793,461.745,224.939,464.741,242.406z"/>
<g>
</g>
<g>
</g>
<g>
</g>
<g>
</g>
<g>
</g>
<g>
</g>
<g>
</g>
<g>
</g>
<g>
</g>
<g>
</g>
<g>
</g>
<g>
</g>
<g>
</g>
<g>
</g>
<g>
</g>
</svg>
