<?xml version="1.0" encoding="iso-8859-1"?>
<!-- Generator: Adobe Illustrator 19.0.0, SVG Export Plug-In . SVG Version: 6.00 Build 0)  -->
<svg version="1.1" id="Layer_1" xmlns="http://www.w3.org/2000/svg" xmlns:xlink="http://www.w3.org/1999/xlink" x="0px" y="0px"
	 viewBox="0 0 512.005 512.005" style="enable-background:new 0 0 512.005 512.005;" xml:space="preserve">
<path style="fill:#EFF2FA;" d="M466.102,463.477H45.898c-19.64,0-35.562-15.922-35.562-35.562V82.832
	c0-19.64,15.922-35.562,35.562-35.562h420.203c19.64,0,35.562,15.922,35.562,35.562v345.083
	C501.663,447.556,485.742,463.477,466.102,463.477z"/>
<path style="fill:#FF6464;" d="M501.663,120.839H10.338v-44.51c0-16.048,13.01-29.057,29.057-29.057h433.212
	c16.048,0,29.057,13.01,29.057,29.057L501.663,120.839L501.663,120.839z"/>
<path style="fill:#C7CFE2;" d="M71.803,82.294h-3.002c-6.631,0-12.008-5.377-12.008-12.008V22.254
	c0-6.631,5.377-12.008,12.008-12.008h3.002c6.631,0,12.008,5.377,12.008,12.008v48.032C83.811,76.918,78.434,82.294,71.803,82.294z"
	/>
<path style="fill:#AFB9D2;" d="M70.302,55.276c-7.461,0-13.509-6.048-13.509-13.509v27.018c0,7.461,6.048,13.509,13.509,13.509
	s13.509-6.048,13.509-13.509V41.767C83.811,49.228,77.763,55.276,70.302,55.276z"/>
<path style="fill:#C7CFE2;" d="M440.547,82.294h-3.002c-6.631,0-12.008-5.377-12.008-12.008V22.254
	c0-6.631,5.377-12.008,12.008-12.008h3.002c6.631,0,12.008,5.377,12.008,12.008v48.032
	C452.555,76.918,447.178,82.294,440.547,82.294z"/>
<path style="fill:#AFB9D2;" d="M439.046,55.276c-7.461,0-13.509-6.048-13.509-13.509v27.018c0,7.461,6.048,13.509,13.509,13.509
	s13.509-6.048,13.509-13.509V41.767C452.555,49.228,446.507,55.276,439.046,55.276z"/>
<circle style="fill:#FFFFFF;" cx="256.26" cy="392.262" r="112.074"/>
<circle style="fill:#EFF2FA;" cx="256.26" cy="392.262" r="66.975"/>
<circle style="fill:#707487;" cx="256.26" cy="392.262" r="16.011"/>
<path d="M511.339,79.578c-0.041-21.77-17.763-39.451-39.525-39.451c-0.024,0-0.052,0-0.076,0l-8.506,0.016l-0.031-16.511
	c-0.024-12.943-10.573-23.472-23.56-23.472c-12.967,0.024-23.496,10.593-23.472,23.56l0.031,16.511L94.988,40.836l-0.031-16.511
	C94.933,11.382,84.385,0.853,71.398,0.853c-6.281,0.012-12.181,2.469-16.615,6.919s-6.869,10.36-6.857,16.641l0.031,16.511
	l-8.506,0.016c-10.522,0.02-20.431,4.16-27.899,11.657S-0.019,70.018,0,80.54l0.662,352.232c0.02,10.523,4.16,20.431,11.657,27.9
	c7.48,7.452,17.373,11.552,27.867,11.552c0.025,0,0.051,0,0.076,0l88.058-0.166c4.145-0.008,7.499-3.374,7.491-7.519
	c-0.008-4.141-3.366-7.491-7.505-7.491c-0.005,0-0.01,0-0.015,0l-88.058,0.166c-0.016,0-0.031,0-0.047,0
	c-6.495,0-12.629-2.547-17.274-7.176c-4.657-4.639-7.229-10.781-7.241-17.294l-0.572-304.702l384.755-0.723
	c4.145-0.008,7.499-3.374,7.491-7.519c-0.008-4.141-3.366-7.491-7.505-7.491c-0.004,0-0.01,0-0.014,0l-384.754,0.723l-0.062-32.52
	c-0.012-6.513,2.537-12.664,7.176-17.322c4.639-4.657,10.781-7.228,17.294-7.24l8.506-0.016l0.031,16.511
	c0.024,12.943,10.573,23.472,23.516,23.472c0.005,0,0.04,0,0.045,0c6.281-0.012,12.181-2.469,16.615-6.919
	c4.434-4.45,6.869-10.36,6.857-16.641l-0.031-16.511l321.213-0.604l0.031,16.511c0.024,12.943,10.573,23.472,23.516,23.472
	c0.005,0,0.04,0,0.045,0c12.967-0.024,23.496-10.593,23.472-23.56l-0.031-16.511l8.506-0.016c0.017,0,0.031,0,0.047,0
	c13.496,0,24.49,10.968,24.516,24.47l0.061,32.522l-16.511,0.031c-4.145,0.008-7.499,3.374-7.491,7.519
	c0.008,4.14,3.366,7.491,7.505,7.491c0.005,0,0.01,0,0.015,0l16.511-0.031l0.572,304.702c0.012,6.513-2.536,12.664-7.175,17.321
	c-4.639,4.657-10.781,7.229-17.294,7.241l-88.06,0.166c-4.145,0.008-7.499,3.374-7.491,7.519c0.008,4.141,3.366,7.491,7.505,7.491
	c0.005,0,0.01,0,0.015,0l88.06-0.166c21.794-0.041,39.492-17.806,39.451-39.6L511.339,79.578z M77.557,78.402
	c-1.604,1.609-3.737,2.499-6.009,2.503l-0.017,7.505v-7.505c-4.681,0-8.497-3.809-8.506-8.49L62.981,48.41c0-0.003,0-0.007,0-0.01
	c0-0.003,0-0.006,0-0.01l-0.045-24.006c-0.004-2.272,0.877-4.409,2.481-6.019c1.604-1.61,3.737-2.499,6.027-2.503
	c4.68,0,8.495,3.809,8.504,8.49l0.09,48.032C80.042,74.656,79.161,76.793,77.557,78.402z M445.801,77.711
	c-1.604,1.609-3.737,2.499-6.009,2.503l-0.017,7.505v-7.505c-4.681,0-8.497-3.809-8.506-8.49l-0.09-48.032
	c-0.009-4.69,3.8-8.513,8.507-8.522c4.681,0,8.496,3.809,8.505,8.49l0.045,24.001c0,0.005-0.001,0.01-0.001,0.015
	s0.001,0.01,0.001,0.015l0.045,24.001C448.286,73.964,447.404,76.101,445.801,77.711z"/>
<path d="M455.377,119.711c-0.008-4.14-3.366-7.491-7.505-7.491c-0.005,0-0.01,0-0.015,0l-16.011,0.03
	c-4.145,0.008-7.499,3.374-7.491,7.519c0.008,4.14,3.366,7.491,7.505,7.491c0.005,0,0.01,0,0.015,0l16.011-0.03
	C452.03,127.222,455.385,123.856,455.377,119.711z"/>
<path d="M263.886,184.614c-0.005,0-0.01,0-0.015,0l-16.011,0.03c-4.145,0.008-7.499,3.374-7.491,7.519
	c0.008,4.14,3.366,7.491,7.505,7.491c0.005,0,0.01,0,0.015,0l16.011-0.03c4.145-0.008,7.499-3.374,7.491-7.519
	C271.383,187.964,268.025,184.614,263.886,184.614z"/>
<path d="M263.946,224.64l-16.01,0.03c-4.145,0.008-7.499,3.374-7.491,7.519c0.008,4.14,3.366,7.491,7.505,7.491
	c0.005,0,0.01,0,0.015,0l16.01-0.03c4.145-0.008,7.499-3.374,7.491-7.519c-0.008-4.14-3.366-7.491-7.505-7.491
	C263.956,224.64,263.951,224.64,263.946,224.64z"/>
<path d="M319.923,184.508c-0.005,0-0.01,0-0.015,0l-16.011,0.03c-4.145,0.008-7.499,3.374-7.491,7.519
	c0.008,4.14,3.366,7.491,7.505,7.491c0.005,0,0.01,0,0.015,0l16.011-0.03c4.145-0.008,7.499-3.374,7.491-7.519
	C327.419,187.859,324.061,184.508,319.923,184.508z"/>
<path d="M319.983,224.534l-16.011,0.03c-4.145,0.008-7.499,3.374-7.491,7.519c0.008,4.14,3.366,7.491,7.505,7.491
	c0.005,0,0.01,0,0.015,0l16.011-0.03c4.145-0.008,7.499-3.374,7.491-7.519c-0.008-4.14-3.366-7.491-7.505-7.491
	C319.993,224.534,319.988,224.534,319.983,224.534z"/>
<path d="M207.849,184.719c-0.005,0-0.01,0-0.015,0l-16.011,0.03c-4.145,0.008-7.499,3.374-7.491,7.519
	c0.008,4.14,3.366,7.491,7.505,7.491c0.005,0,0.01,0,0.015,0l16.011-0.03c4.145-0.008,7.499-3.374,7.491-7.519
	C215.346,188.069,211.986,184.719,207.849,184.719z"/>
<path d="M207.91,224.745l-16.011,0.03c-4.145,0.008-7.499,3.374-7.491,7.519c0.008,4.14,3.366,7.491,7.505,7.491
	c0.005,0,0.01,0,0.015,0l16.011-0.03c4.145-0.008,7.499-3.374,7.491-7.519c-0.008-4.14-3.366-7.491-7.505-7.491
	C207.919,224.745,207.914,224.745,207.91,224.745z"/>
<path d="M135.815,199.864l16.011-0.03c4.145-0.008,7.499-3.374,7.491-7.519c-0.008-4.14-3.366-7.491-7.505-7.491
	c-0.005,0-0.01,0-0.015,0l-16.011,0.03c-4.145,0.008-7.499,3.374-7.491,7.519c0.008,4.14,3.366,7.491,7.505,7.491
	C135.805,199.864,135.81,199.864,135.815,199.864z"/>
<path d="M135.875,239.89c0.005,0,0.01,0,0.015,0l16.011-0.03c4.145-0.008,7.499-3.374,7.491-7.519
	c-0.008-4.14-3.366-7.491-7.505-7.491c-0.005,0-0.01,0-0.015,0l-16.011,0.03c-4.145,0.008-7.499,3.374-7.491,7.519
	C128.379,236.539,131.736,239.89,135.875,239.89z"/>
<path d="M135.95,279.917c0.005,0,0.01,0,0.015,0l16.011-0.03c4.145-0.008,7.499-3.374,7.491-7.519s-3.341-7.499-7.519-7.491
	l-16.011,0.03c-4.145,0.008-7.499,3.374-7.491,7.519C128.454,276.566,131.812,279.917,135.95,279.917z"/>
<path d="M136.027,319.942c1.971,0,3.913-0.801,5.304-2.191c1.401-1.401,2.201-3.342,2.201-5.314c0-1.971-0.801-3.913-2.201-5.303
	c-1.391-1.401-3.332-2.201-5.304-2.201c-1.971,0-3.913,0.801-5.304,2.201c-1.401,1.391-2.201,3.332-2.201,5.303
	c0,1.971,0.801,3.913,2.201,5.314C132.115,319.142,134.056,319.942,136.027,319.942z"/>
<path d="M375.96,184.403c-0.005,0-0.01,0-0.015,0l-16.011,0.03c-4.145,0.008-7.499,3.374-7.491,7.519
	c0.008,4.14,3.366,7.491,7.505,7.491c0.005,0,0.01,0,0.015,0l16.011-0.03c4.145-0.008,7.499-3.374,7.491-7.519
	C383.456,187.754,380.098,184.403,375.96,184.403z"/>
<path d="M376.035,224.429c-0.005,0-0.01,0-0.015,0l-16.011,0.03c-4.145,0.008-7.499,3.374-7.491,7.519
	c0.008,4.14,3.366,7.491,7.505,7.491c0.005,0,0.01,0,0.015,0l16.011-0.03c4.145-0.008,7.499-3.374,7.491-7.519
	C383.531,227.779,380.173,224.429,376.035,224.429z"/>
<path d="M376.095,264.456l-16.011,0.03c-4.145,0.008-7.499,3.374-7.491,7.519c0.008,4.14,3.366,7.491,7.505,7.491
	c0.005,0,0.01,0,0.015,0l16.011-0.03c4.145-0.008,7.499-3.374,7.491-7.519c-0.008-4.14-3.366-7.491-7.505-7.491
	C376.105,264.456,376.1,264.456,376.095,264.456z"/>
<path d="M383.691,311.987c0-1.971-0.801-3.913-2.201-5.303c-1.401-1.401-3.332-2.201-5.303-2.201c-1.981,0-3.913,0.801-5.303,2.201
	c-1.401,1.391-2.201,3.322-2.201,5.303s0.801,3.913,2.201,5.303c1.391,1.401,3.322,2.201,5.303,2.201
	c1.971,0,3.903-0.801,5.303-2.201C382.891,315.9,383.691,313.958,383.691,311.987z"/>
<path d="M408.481,191.847c0.008,4.14,3.366,7.491,7.505,7.491c0.005,0,0.01,0,0.015,0l16.011-0.03
	c4.145-0.008,7.499-3.374,7.491-7.519c-0.008-4.14-3.366-7.491-7.505-7.491c-0.005,0-0.01,0-0.015,0l-16.011,0.03
	C411.827,184.336,408.473,187.702,408.481,191.847z"/>
<path d="M416.075,239.364l16.011-0.03c4.145-0.008,7.499-3.374,7.491-7.519c-0.008-4.14-3.366-7.491-7.505-7.491
	c-0.005,0-0.01,0-0.015,0l-16.011,0.03c-4.145,0.008-7.499,3.374-7.491,7.519c0.008,4.14,3.366,7.491,7.505,7.491
	C416.066,239.364,416.07,239.364,416.075,239.364z"/>
<path d="M416.136,279.39c0.005,0,0.01,0,0.015,0l16.011-0.03c4.145-0.008,7.499-3.374,7.491-7.519
	c-0.008-4.14-3.366-7.491-7.505-7.491c-0.005,0-0.01,0-0.015,0l-16.011,0.03c-4.145,0.008-7.499,3.374-7.491,7.519
	C408.639,276.039,411.997,279.39,416.136,279.39z"/>
<path d="M416.211,319.416c0.005,0,0.01,0,0.015,0l16.011-0.03c4.145-0.008,7.499-3.374,7.491-7.519
	c-0.008-4.14-3.366-7.491-7.505-7.491c-0.005,0-0.01,0-0.015,0l-16.011,0.03c-4.145,0.008-7.499,3.374-7.491,7.519
	C408.714,316.066,412.072,319.416,416.211,319.416z"/>
<path d="M416.286,359.443c0.005,0,0.01,0,0.015,0l16.011-0.03c4.145-0.008,7.499-3.374,7.491-7.519
	c-0.008-4.14-3.366-7.491-7.505-7.491c-0.005,0-0.01,0-0.015,0l-16.011,0.03c-4.145,0.008-7.499,3.374-7.491,7.519
	C408.79,356.092,412.148,359.443,416.286,359.443z"/>
<path d="M416.362,399.469c0.005,0,0.01,0,0.015,0l16.011-0.03c4.145-0.008,7.499-3.374,7.491-7.519
	c-0.008-4.14-3.366-7.491-7.505-7.491c-0.005,0-0.01,0-0.015,0l-16.011,0.03c-4.145,0.008-7.499,3.374-7.491,7.519
	C408.865,396.119,412.223,399.469,416.362,399.469z"/>
<path d="M79.778,199.969l16.011-0.03c4.145-0.008,7.499-3.374,7.491-7.519c-0.008-4.14-3.366-7.491-7.505-7.491
	c-0.005,0-0.01,0-0.015,0l-16.011,0.03c-4.145,0.008-7.499,3.374-7.491,7.519c0.008,4.14,3.366,7.491,7.505,7.491
	C79.768,199.969,79.773,199.969,79.778,199.969z"/>
<path d="M79.838,239.995c0.005,0,0.01,0,0.015,0l16.011-0.03c4.145-0.008,7.499-3.374,7.491-7.519
	c-0.008-4.14-3.366-7.491-7.505-7.491c-0.005,0-0.01,0-0.015,0l-16.011,0.03c-4.145,0.008-7.499,3.374-7.491,7.519
	C72.342,236.645,75.7,239.995,79.838,239.995z"/>
<path d="M79.913,280.022c0.005,0,0.01,0,0.015,0l16.011-0.03c4.145-0.008,7.499-3.374,7.491-7.519
	c-0.008-4.14-3.366-7.491-7.505-7.491c-0.005,0-0.01,0-0.015,0l-16.011,0.03c-4.145,0.008-7.499,3.374-7.491,7.519
	C72.417,276.672,75.775,280.022,79.913,280.022z"/>
<path d="M79.989,320.049c0.005,0,0.01,0,0.015,0l16.011-0.03c4.145-0.008,7.499-3.374,7.491-7.519
	c-0.008-4.14-3.366-7.491-7.505-7.491c-0.005,0-0.01,0-0.015,0l-16.011,0.03c-4.145,0.008-7.499,3.374-7.491,7.519
	C72.492,316.698,75.85,320.049,79.989,320.049z"/>
<path d="M80.064,360.075c0.005,0,0.01,0,0.015,0l16.011-0.03c4.145-0.008,7.499-3.374,7.491-7.519
	c-0.008-4.14-3.366-7.491-7.505-7.491c-0.005,0-0.01,0-0.015,0l-16.011,0.03c-4.145,0.008-7.499,3.374-7.491,7.519
	C72.567,356.724,75.925,360.075,80.064,360.075z"/>
<path d="M80.139,400.102c0.005,0,0.01,0,0.015,0l16.011-0.03c4.145-0.008,7.499-3.374,7.491-7.519
	c-0.008-4.14-3.366-7.491-7.505-7.491c-0.005,0-0.01,0-0.015,0l-16.011,0.03c-4.145,0.008-7.499,3.374-7.491,7.519
	C72.642,396.75,76,400.102,80.139,400.102z"/>
<path d="M256.26,272.686h-0.214h-0.015c-65.936,0.124-119.478,53.868-119.354,119.804c0.124,65.813,53.765,119.354,119.574,119.354
	h0.215h0.015c31.94-0.06,61.946-12.554,84.489-35.182c22.543-22.628,34.925-52.681,34.865-84.621
	C375.711,326.229,322.07,272.686,256.26,272.686z M330.337,466.068c-17.938,18.005-41.278,28.67-66.38,30.486l-0.016-8.239
	c-0.008-4.14-3.366-7.491-7.505-7.491c-0.005,0-0.01,0-0.015,0c-4.145,0.008-7.499,3.374-7.491,7.519l0.016,8.232
	c-51.68-3.589-93.19-44.96-96.974-96.608l8.233-0.016c4.145-0.008,7.499-3.374,7.491-7.519c-0.008-4.14-3.366-7.491-7.505-7.491
	c-0.005,0-0.01,0-0.015,0l-8.233,0.016c3.586-51.697,44.927-93.194,96.61-96.974l0.016,8.234c0.008,4.14,3.366,7.491,7.505,7.491
	c0.005,0,0.01,0,0.015,0c4.145-0.008,7.499-3.374,7.491-7.519l-0.016-8.232c51.68,3.59,93.19,44.96,96.974,96.609l-8.233,0.015
	c-4.145,0.008-7.499,3.374-7.491,7.519c0.008,4.14,3.366,7.491,7.505,7.491c0.005,0,0.01,0,0.015,0l8.238-0.015
	C358.851,424.683,348.274,448.063,330.337,466.068z"/>
<path d="M320.298,384.64c-0.005,0-0.01,0-0.015,0l-41.764,0.079c-2.356-6.922-7.855-12.402-14.801-14.739l-0.079-41.772
	c-0.008-4.14-3.366-7.491-7.504-7.491c-0.005,0-0.01,0-0.015,0c-4.145,0.008-7.499,3.374-7.491,7.519l0.079,41.762
	c-9.29,3.157-15.989,11.968-15.969,22.31c0.024,12.943,10.573,23.472,23.515,23.472c0.005,0,0.04,0,0.045,0
	c6.281-0.012,12.182-2.469,16.615-6.92c2.604-2.614,4.512-5.733,5.646-9.133l41.752-0.079c4.145-0.008,7.499-3.374,7.491-7.519
	C327.795,387.99,324.437,384.64,320.298,384.64z M262.281,398.268c-1.603,1.609-3.737,2.499-6.009,2.503l-0.017,7.505v-7.505
	c-4.681,0-8.497-3.809-8.505-8.49c-0.009-4.69,3.8-8.513,8.507-8.522c4.681,0,8.496,3.809,8.505,8.49
	C264.765,394.522,263.885,396.659,262.281,398.268z"/>
<g>
</g>
<g>
</g>
<g>
</g>
<g>
</g>
<g>
</g>
<g>
</g>
<g>
</g>
<g>
</g>
<g>
</g>
<g>
</g>
<g>
</g>
<g>
</g>
<g>
</g>
<g>
</g>
<g>
</g>
</svg>
