<?xml version="1.0" encoding="iso-8859-1"?>
<!-- Generator: Adobe Illustrator 19.0.0, SVG Export Plug-In . SVG Version: 6.00 Build 0)  -->
<svg version="1.1" id="Capa_1" xmlns="http://www.w3.org/2000/svg" xmlns:xlink="http://www.w3.org/1999/xlink" x="0px" y="0px"
	 viewBox="0 0 512 512" style="enable-background:new 0 0 512 512;" xml:space="preserve">
<path style="fill:#20B7A1;" d="M212.008,352.374c-0.701,4.224-2.402,8.387-5.245,12.191c0,0.01,0,0.01-0.01,0.01
	c-0.851,0.921-9.318,10.199-10.369,11.35L88.599,493.919c-2.442,3.233-6.256,5.135-10.299,5.135H40.337
	c-8.808,0-16.795-3.463-22.69-9.098c-1.431-1.371-2.732-2.862-3.903-4.464c-2.863-3.953-4.874-8.558-5.745-13.562
	c-0.33-1.862-0.49-3.763-0.49-5.715c0-9.068,3.673-17.275,9.618-23.21c5.935-5.945,14.142-9.618,23.21-9.618h23.721
	c4.974,0,9.709-2.122,13.031-5.835l46.051-51.625c0.08-0.09,42.287-47.412,42.377-47.502c4.924-5.325,11.89-8.738,19.657-9.028
	C203.25,320.066,214.63,336.59,212.008,352.374z"/>
<g>
	<path style="fill:#199A8E;" d="M212.008,352.374c-0.701,4.224-2.402,8.387-5.245,12.191c0,0.01,0,0.01-0.01,0.01
		c-0.851,0.921-9.318,10.199-10.369,11.35L88.599,493.919c-2.442,3.233-6.256,5.135-10.299,5.135H40.337
		c-8.808,0-16.795-3.463-22.69-9.098c0.701-7.907,4.194-15.003,9.488-20.288c5.935-5.945,14.142-9.618,23.21-9.618h23.721
		c4.974,0,9.709-2.122,13.031-5.835l46.051-51.635c0.08-0.08,42.287-47.402,42.377-47.492c4.924-5.325,11.89-8.738,19.657-9.028
		C201.809,346.309,207.544,348.681,212.008,352.374z"/>
	<path style="fill:#199A8E;" d="M360.229,347.54c0,4.224-0.941,8.447-2.823,12.331c-1.331,2.772-3.153,5.365-5.455,7.667
		c-11.05,11.04-28.946,11.04-39.985,0L189.898,243.578c-5.515-5.525-8.277-12.751-8.277-19.988s2.762-14.463,8.277-19.988
		c4.924-4.934,11.23-7.667,17.676-8.187c7.987-0.661,16.194,2.072,22.3,8.187l122.078,123.949
		C357.476,333.077,360.229,340.304,360.229,347.54z"/>
</g>
<path style="fill:#20B7A1;" d="M360.229,347.54c0,4.224-0.941,8.447-2.823,12.331c-7.987,0.661-16.204-2.072-22.31-8.177
	L213.029,227.734c-5.525-5.515-8.277-12.751-8.277-19.988c0-4.224,0.941-8.447,2.822-12.331c7.987-0.661,16.194,2.072,22.3,8.187
	l122.078,123.949C357.476,333.077,360.229,340.304,360.229,347.54z"/>
<path style="fill:#93E2C6;" d="M360.229,347.65c0,5.004-1.301,9.709-3.593,13.792c-4.834,8.638-14.072,14.483-24.672,14.483H186.235
	c-9.298,0-17.555-4.504-22.64-11.35c-0.01,0-0.01,0-0.01-0.01c-0.741-0.991-1.411-2.032-2.022-3.113
	c-2.292-4.074-3.593-8.798-3.593-13.802c0-15.153,11.981-27.694,27.204-28.255c0.35-0.01,0.711-0.02,1.061-0.02h145.728
	c7.807,0,14.863,3.163,19.988,8.277C357.066,332.777,360.229,339.843,360.229,347.65z"/>
<g>
	<path style="fill:#24D3B5;" d="M356.635,361.442c-4.834,8.638-14.072,14.483-24.672,14.483H186.235
		c-9.298,0-17.555-4.504-22.64-11.35c-0.01,0-0.01,0-0.01-0.01c-0.741-0.991-1.411-2.032-2.022-3.113
		c4.654-8.327,13.402-14.092,23.611-14.473c0.35-0.01,0.711-0.02,1.061-0.02h145.728c7.807,0,14.863,3.163,19.988,8.277
		C353.793,357.078,355.364,359.16,356.635,361.442z"/>
	<path style="fill:#24D3B5;" d="M494.287,76.501H364.512c-2.842,0-4.154-3.533-2.012-5.395l64.887-56.41
		c1.151-1.011,2.873-1.011,4.034,0l21.369,18.576l43.508,37.833C498.45,72.968,497.129,76.501,494.287,76.501z"/>
</g>
<path style="fill:#93E2C6;" d="M383.562,195.326v56.54H209.966c-7.807,0-14.873-3.163-19.998-8.287
	c-1.832-1.832-3.413-3.913-4.684-6.195c-2.292-4.074-3.593-8.778-3.593-13.792c0-15.614,12.661-28.265,28.275-28.265H383.562z"/>
<path style="fill:#24D3B5;" d="M383.562,222.91v28.955H209.966c-7.807,0-14.873-3.163-19.998-8.287
	c-1.832-1.832-3.413-3.913-4.684-6.195c4.834-8.638,14.082-14.473,24.682-14.473L383.562,222.91L383.562,222.91z"/>
<path style="fill:#93E2C6;" d="M494.287,76.501h-91.23l49.734-43.228l43.508,37.833C498.45,72.968,497.129,76.501,494.287,76.501z"
	/>
<path style="fill:#20B7A1;" d="M498.559,165.211h-83.033h-36.435c-17.979,0-32.606,14.627-32.606,32.606v47.637
	c0,3.541,2.87,6.411,6.411,6.411h62.631h83.033c3.54,0,6.411-2.87,6.411-6.411v-73.832
	C504.969,168.081,502.099,165.211,498.559,165.211z"/>
<path style="fill:#24D3B5;" d="M498.559,165.215h-71.831c-3.538,0-6.411,2.864-6.411,6.411v80.24h12.82h59.01h6.411
	c3.538,0,6.411-2.872,6.411-6.411v-73.829C504.969,168.033,502.037,165.215,498.559,165.215z"/>
<path d="M511.984,170.62c-0.004-7.028-5.704-12.721-12.732-12.721h-8.797V84.005h12.052c6.928,0,10.151-8.629,4.925-13.172
	L434.327,7.277c-2.824-2.455-7.026-2.455-9.851,0l-73.105,63.556c-5.228,4.545-2.001,13.172,4.925,13.172h12.052v75.026
	c-13.977,3.479-24.927,14.678-28.053,28.789h-37.146c-4.214,0-7.621,3.467-7.504,7.718c0.113,4.116,3.698,7.295,7.815,7.295h35.921
	v41.527h-128.94c-10.972,0-20.409-8.318-21.19-19.262c-0.817-11.451,7.772-21.114,18.592-22.155c0.302-0.151,1.063-0.11,64.957-0.11
	c4.117,0,7.711-3.18,7.824-7.295c0.116-4.251-3.29-7.718-7.504-7.718c-68.372,0.01-67.678-0.686-75.557,2.212
	c-24.774,9.164-31.21,40.588-12.991,58.832l62.045,63.006c-60.969,0.647-63.497-1.782-74.476,2.862
	c-1.177,0-10.577,5.562-13.912,10.579c-0.09,0.1,0.574-0.648-59.643,66.859c-2.762,3.093-2.492,7.847,0.601,10.599
	c3.093,2.762,7.837,2.492,10.599-0.601c0.128-0.143,41.432-46.451,41.557-46.591c2.898,13.215,13.796,24.605,28.535,27.274
	C78.906,493.42,83.02,488.842,82.604,489.406c-1.011,1.341-2.622,2.142-4.304,2.142H40.337c-12.107,0-22.823-8.719-24.942-20.918
	c-2.775-15.265,9.02-29.736,24.942-29.736h23.721c15.239,0,21.486-12.588,25.743-16.314c2.762-3.093,2.492-7.847-0.601-10.599
	c-3.093-2.762-7.847-2.492-10.599,0.601c-5.687,5.488-7.76,11.3-14.543,11.3H40.337c-33.2,0-51.725,37.791-32.659,64.026
	c7.577,10.429,19.787,16.655,32.659,16.655H78.3c6.235,0,12.211-2.913,16.054-7.807l105.343-115.322h132.267
	c32.238,0,47.424-39.052,25.332-61.144l-61.955-62.915c22.173,0,94.996,0,117.385,0v239.684c0,4.146,3.361,7.507,7.507,7.507h84.242
	c4.146,0,7.507-3.358,7.507-7.505C511.982,380.601,512.021,231.282,511.984,170.62z M352.191,352.244
	c-2.082,9.248-10.369,16.174-20.228,16.174c-51.872,0-95.141,0-145.728,0c-17.437,0-26.978-20.173-16.294-33.67
	c0-0.188,6.062-7.867,16.294-7.867c41.358,0,100.42,0,145.728,0C345.62,326.882,355.204,339.764,352.191,352.244z M325.968,311.869
	h-58.291l-51.696-52.496h58.281L325.968,311.869z M412.727,244.359h-58.329v-48.278c0-12.775,10.393-23.168,23.168-23.168h35.16
	L412.727,244.359L412.727,244.359z M383.361,157.899V84.005h45.649c4.146,0,7.507-3.36,7.507-7.507s-3.361-7.507-7.507-7.507
	h-52.638l53.03-46.103l53.029,46.103h-23.394c-4.146,0-7.507,3.36-7.507,7.507s3.361,7.507,7.507,7.507h16.405v73.894
	C437.129,157.899,415.138,157.899,383.361,157.899z M496.969,491.549H427.74V463.84h69.229V491.549z M496.969,448.828H427.74v-25.88
	h69.229V448.828z M496.969,407.934H427.74v-25.881h69.229V407.934z M496.969,367.04H427.74v-25.881h69.229V367.04z M496.969,326.146
	H427.74v-25.881h69.229V326.146z M496.969,285.252H427.74v-25.88h69.229V285.252z M496.969,244.359H427.74v-71.447h69.229V244.359z"
	/>
<g>
</g>
<g>
</g>
<g>
</g>
<g>
</g>
<g>
</g>
<g>
</g>
<g>
</g>
<g>
</g>
<g>
</g>
<g>
</g>
<g>
</g>
<g>
</g>
<g>
</g>
<g>
</g>
<g>
</g>
</svg>
